<?xml version="1.0" encoding="UTF-8"?>
<svg id="Layer_2" data-name="Layer 2" xmlns="http://www.w3.org/2000/svg" xmlns:xlink="http://www.w3.org/1999/xlink" viewBox="0 0 105.5 105.5">
  <defs>
    <clipPath id="clippath">
      <circle cx="52.75" cy="52.75" r="52.75" fill="none"/>
    </clipPath>
    <linearGradient id="linear-gradient" x1="52.75" y1="-3.46" x2="52.75" y2="108.96" gradientUnits="userSpaceOnUse">
      <stop offset="0" stop-color="#fff"/>
      <stop offset=".12" stop-color="#fbf9fc"/>
      <stop offset=".27" stop-color="#f1ebf4"/>
      <stop offset=".43" stop-color="#e1d2e7"/>
      <stop offset=".59" stop-color="#cab0d4"/>
      <stop offset=".77" stop-color="#ad84bd"/>
      <stop offset=".95" stop-color="#8a4fa1"/>
      <stop offset="1" stop-color="#7f3f98"/>
    </linearGradient>
  </defs>
  <g id="Layer_1-2" data-name="Layer 1">
    <g clip-path="url(#clippath)">
      <circle cx="52.75" cy="52.75" r="56.21" fill="url(#linear-gradient)"/>
      <g>
        <path d="M90.67,91.79c-.22-2.25-.15-5.43.2-7.79.95-3.14,1.52-6.54,1.21-9.85-.46-6.12-4.71-13.73-11.29-14.71l-.08-.32c.4-1.36.55-2.77.46-4.23,5.39-6.22,6.89-14.52,6.36-22.47-.34-.82-.18-1.78-.42-2.64-.82-2.2-.66-3.56-1.65-5.8l-.08.23c.13-.25-.17-1.22-.52-1.16l.14-.23c-.53-.64-.77-2.36-1.42-2.55-.02-.04-.09-.07-.12-.12.24-.18.2-.29-.12-.35-.05-.08-.08-.17-.12-.23.41-.43-1.84-3.2-2.22-3.77-2.1-2.65-5.11-4.36-7.92-6.08,0-.02-.01-.04-.01-.07,0,0-.17-.05-.17-.04-5.92-2.78-21.1-4.39-25.74,1.95-10.68-7.83-28.13,6.21-23.11,20.29.02-6.76,7.3-14.89,10.62-16.31-2.4,2.14-5.06,7.38-5.22,11.61-.02-.36-.42,6.44,1.2,3.83-.02.07,3.38-4.74,5.32-6.14-1.55,2.11-4.96,6.14-6.34,10.38-.56-.03-1.97-.68-2.19-.84-2.29-.32-4.91,3.21-6.5,5.23-1.71-2.01-3.66.84-4.81,2.26-.65.74-1.06.93-1.74,1.56-.11.31.14.51.35.23h.31c.32-.53,1.18.06,1.42.44.67,1.08-1.47,4.04-2.17,4.93-.57-.81-1.42-.5-2.08.02-.46.56-3.84,2.69-4.37,2.58-.6-.38,5.69-5.68,5.5-6.23.33-.5-.79-.62-.81-.12l-.17-.06c-1.12,1.13-2.25,2.29-3.4,3.46-.01-.34-.02-.68-.03-1.02-.22.24-.47.45-.74.62h.06c-.11.82.26,1.42-.54,1.9-.6,1.04-.62,2.05-1.9,2.67-1.42.46-3.42.98-3.94,2.56-2.24-.09-4.81,1.83-5.43,3.88-1.3,2.72,1.24,6.98,2.67,8.96,1.88,4.21,4.73,7.68,8.3,10.57.64.02.73.62.28.74-3.36,5.88-6.59,11.98-10.1,17.76-2.91,4.05-8.1,13.32-7.56,18.13,3.53,6.92,30.85-4.21,36.9-6.44.31.2,1.03,1.32,1.12,1.72.26.2,1.51-1.4.8,1.67-.47,2.06-1.16,4.17-1.73,6.21-.36.49-.44.87-.23,1.16h.81l3.13-11.47c.13-.71-.55-.42-.81,0-1.61,3.89-3.23-2.34-3.94-3.71-1.03-3.46-3.74-10.23-2.4-13.58,3.51-1.04,6.52-3.4,9.82-4.84,4.87-1.56,11.57-1.68,16.68-1.62-2.73,6.53-2.61,15.58,6.96,11.3,3.79-1.81,6.57-5.04,8.97-8.41.16-.16.36-.08.53-.11,1.08.2.42-.36-.12-.7l-.12-.28c-.74-.17-1.4-.45-2-.85-1.19-2.56-2.35-5.9-3.04-8.54-.26-1.85-.52-3.69-.78-5.54,3.1-3.08,7.39-3.32,10.37-6.24.3.02.61.05.91.07-2.9,5.41-3.18,11.3-.41,16.6,1.29,1.43,2.52,4.34,3.63,4.43,2.46,2.5,5.35,2.72,8.57,3.59l.15.28c3.41.62,6.93,2.96,7.59,5.94l.25.15-.22.24c.18,1.36-.81,2.92-1.88,1.22.97-.36.28-1.75-.33-.99-2.27,1.85,3.05,4.73,3.24-.46.57-1.14-1.53-3.24-1.82-4.49ZM-9.5,112.49c-.02-.12,0-.22.04-.29-.02.11-.03.21-.04.29ZM85.05,61.3s.05.04.08.07c-.06-.01-.12,0-.17.04l.09-.11ZM28.42,35.82s.8.4.81.48c-.26.79-.48,1.58-.67,2.39l.22.24c-.08.03-.13.06-.15.1-.28-.17-.38.25-.2.6l-.29.26c-.11,1.83.07,3.67.57,5.51.28.2.2.4.04.69-.92,1.55-1.82,3.1-2.57,4.73-.84,1.57-1.68,3.18-2.28,4.88l.02.39c-.14.06-.26.14-.34.26-.36.52-.84,2.64-.93,3.35-.09.67-.19,2.32.05,2.89.06.14.17.25.3.33-.12.15-.12.38,0,.7.7,1.57,1.45,3.25,2.3,4.77.19.52.13.88.02,1.41l.22.19-.22-.14c-1.89-.05-3.76-.64-5.57-1.24-.74-.25-5.8-2.48-6.12-3.04-.29-.5.31-4.61.42-5.1,1.11-5,3.28-9.5,5.86-13.9,2.43-4.14,5.06-7.41,8.52-10.75ZM16.49,42.69c.71-1.13,1.58-2.06,2.61-2.8l.05-.25.15.22c.18-.07,1.04.09.9.29-.96,1.22-2.01,2.71-2.8,3.86.1-.27-.14-.6-.35-.82l-.57-.49ZM12.14,55.27c1.77-1.15,3.13-3.05,2.79-5.22.72-1.37,1.5-2.71,2.35-4l-.1-.27c.18-.06.34-.17.48-.31,1.39-2.1,2.86-4.22,4.43-6.15,1.19-1.47,3.48-3.79,5.41-3.81-5.81,5.87-10.86,13.55-13.59,21.36-.47,1.35-1.99,6.43-1.5,7.54.04.09.09.17.15.25-.08.31-.1.63-.05.96-.08.03-.14.07-.16.13-.17.52,4.31,2.81,5.25,3.06-.98-.19-2.2.82-1.02,1.49.19.11,2.69.84,2.84.83.73-.03.93-.7,1.07-1.31l4.91,1.29c.05-.02.09-.05.11-.1-.19.76-.55,1.41-1.37,1.63l-.17-.26c-3.43-.03-6.92-1.1-9.9-2.89l-.59-.1v-.28c-1.2-.77-2.3-1.67-3.28-2.69l-.31-.03.1-.27c-.39-.7-.23-1.53,0-2.25.4-.87.64-1.75.71-2.64,1.7-.62,4.07-4.03.93-4.28-.06-.06.33-1.51.51-1.67ZM23.44,100.57l-.06.26c.78,1.82.9,3.92.6,5.86l.15.48-.18.05c-.21.8-.48,1.62-.75,2.39-.21-.05-.35.07-.42.36-4.11,1.36-8.23,2.68-12.36,3.94l-.66.34c-.24-.3-1.01-.02-1.04.35.28.12-.39.18-.58.12-.23-.07-.47-.09-.72-.06-4.6,1.39-9.19,2-13.79,1.82-.55-.18-1.04-.23-1.48-.14-.18-.22-.43-.44-.76-.64-.47-.96-.53-2.04-.19-3.24l-.21-.17c-.1.18-.1.31-.21.35.06-.09.13-.2.21-.35l.34-.16c1.15-3.24,2.54-6.39,4.16-9.46v-.35c.65-.78,1.25-1.58,1.56-2.55,2.73-4.53,5.4-9.1,8.05-13.69,1.33-2.31,2.66-4.62,3.93-6.97.04-.06-.06-.46-.13-.52-2.29-1.8-4.46-3.76-6.14-6.16l-.53-.36.06-.32c-1.72-2.74-3.45-5.64-4.53-8.71-.53-1.51-1.03-3.39.18-4.61,1.33-1.33,2.78-2.37,4.75-1.66,3.09.95,6.17,1.29,9.3,1.39-.02.7-.62,1.35-1.2,1.75l-.12.35-.34-.08c-2.54,1.06-5.57.58-8.08-.28-.15.1-.08,2.2.03,2.36.07.1.16.16.28.2-.05.34.47,2.26.73,2.43.64.42.94-.55.43-.69l.04-.54c-.2-.24-.94-2.33-.48-2.3,2.05.28,4.32.57,6.23.06-.24.72-.43,1.36-.59,2.07l.13.13c-.3,0-.34.16-.12.46-.34.28-.42,1.29-.35,1.79.28,2.03,3.29,3.77,4.99,4.62l.23-.15c.06.13,1.51.83,1.78.95,2.09.91,4.32,1.42,6.57,1.72l-.23.12c-.43,3.27-2.95,5.08-5.84,6.42l-4.07,10.29c-.15.44-.24.9-.29,1.36l-.48.8c-1.9,5.11-3.89,10.11-5.99,15.02l-.71,2.16c.21.68.65.33,1.32-1.04.99-2.15,1.93-4.33,2.81-6.54.56-.21,1.07-.47,1.54-.78.23.21.25.19.23-.12.28.26.34.22.46-.12.22.27.63.11.58-.23.04.1.08.1.12,0,.15.01.3.02.46,0,.15-.01.3-.02.43-.07,2.33-.76,4.66-1.55,6.97-2.35.13-.05.25-.12.37-.21.12-.08.23-.18.34-.28.17.1.41.1.7,0-.11.2-.04.27.12.12l.45.55c.26-.11.36.02.28.3.59.57,1.04,1.27,1.38,2.01l.32.16ZM52.11,83.62c-.12.12-.32.15-.47.06l-4.79-.1c-.45-.01-.91-.02-1.4,0-.69.01-1.34.05-1.95.1-.49.12-1.08.22-1.75.26-.75.05-1.42.01-1.97-.05-1.03.13-2.16.32-3.37.62-.92.23-1.77.48-2.55.75h0s0,0,0,0c-.04.02-.26.13-.3.15-5.36,2.74-6.09,3.07-6.51,3.25-.91.39-2.23.9-3.91,1.35-.25.66-.51,1.56-.62,2.67-.12,1.23,0,2.26.15,2.99-4.5,1.55-9.01,3.09-13.51,4.64,1.4-3.68,2.79-7.37,4.19-11.05.66-1.89,1.37-3.77,2.13-5.63.47-1.07.95-2.14,1.42-3.22.75-.28,1.79-.76,2.85-1.61.7-.57,1.23-1.15,1.62-1.64.16-.4.3-.72.39-.93.49-1.15.76-1.68,1.09-2.61.06-.16.1-.3.13-.38.16.08.94.44,1.84.13.61-.21.96-.62,1.1-.8.27-.27.4-.54.47-.73.11-.31.11-.58.11-1.1,0-.35-.02-.64-.05-.88.3.59.65,1.17,1.04,1.73.22.24.54.58.95.97.45.44.91.88,2.07,1.89,1.52,1.33,1.55,1.33,2.31,2.01.4.36.87.81,1.49,1.48.48.52.86.96,1.09,1.24l1.2.97c.25.18.5.36.75.54,2.86,1.36,4.78,1.28,6.02.93.7-.2,1.43-.54,3.21-1.07,1.19-.35,2.17-.59,2.82-.73.56-.37,1.12-.74,1.69-1.1.52,1.41.95,2.88,1.06,4.41.11.15.1.37-.03.5ZM48.67,78.71l-.43.43c-.45.18-.93.32-1.39.46-.63.02-1.3.22-1.85.46-.32-.03-.63.05-.93.23l-.36-.17c-1.82.37-3.69.39-5.38-.47l-.4.06-.15-.35c-1.23-.93-2.36-1.97-3.4-3.13-3.09-2.19-5.66-4.75-7.74-7.93l-.41-.18s0,0,0,0c-1.83-2.66-3.23-6.59-2.35-9.82,1.18-4.35,3.84-8.31,5.68-12.39.19-1.35-.25-2.66-.44-3.97l.2-.42c-.1-2.02.48-3.99,1.25-5.84v-.08c.08-.05.19-.18.33-.38l.46-.47c1.1-2.24,2.32-4.4,3.67-6.49l.04-.34.32-.06c.12-.2,1.01-1.65,1.16-1.57,3.19,4.34,6.84,8.86,11.92,11.1-.4.32-1.6,1.81-.61,1.95,3.87-.2,7.04,1.08,8.81,4.58.27.66,1.31.75.88.05l.23-.17c0-.67,0-1.34-.01-2.01v.02c2.12.93,3.84,2.7,5.15,4.5.16,1.49.25,3,.24,4.52.16,1.66.5,3.32,1.9,4.35-.24.79-.31,2.01.58.87.58-1.52,2.74-5.44,4.82-4.14,2.69,1.68.43,8.13-.94,10.19-1.31,1.99-2.48,2.32-4.7,1.96-.51-.07-1.11.88-1.29,1.31,0,0,0,.01,0,.02-.07.03-.15.09-.24.17l-.29.14c-3.9,5.14-8.29,10.32-14.34,12.99ZM63.64,68.25l-.29-.11c-1.17.78-1.42.64-.75-.42l1.11-1.53c.03-.1,0-.19-.08-.27.08-.14.12-.25.13-.35h.25s0,.35,0,.35l.25.06c.4-.71.87-.92,1.41-.64,4.89-.04,7-7.04,7.03-11.07,3.33-3.7,4.31-8.86,5.16-13.67-.08-.77-1,.19-.53.52-.66,2.39-1.31,4.79-1.97,7.18l-.33.22c-.63,1.64-1.34,3.3-2.5,4.64-.42-.99-1.09-1.68-1.89-2.37.57-1.54,1.05-3.17,1.24-4.8.06-.53-.31-.75-.6-.29-.33,1.78-.92,3.42-1.77,4.91-1.45.38-2.51,1.48-3.47,2.59-.66-.12.65-8.15.84-9,.34-.82.59-7.41-.14-7.8-.29-.15-.49-.06-.3.2l-.09.29c.11,3.19-.06,6.38-.49,9.56l-.29.44c-.35,1.96-.61,3.92-.79,5.9-.47-1.29-.71-2.65-.72-4.09-.04-3.61-.18-6.81-1.68-10.17-.38-.86-1.93-3.81-2.63-4.18-.44-.23-.68.52-.15.62,1.74,2.93,3.31,6.02,3.37,9.51-.07.18-.21.27-.36.22l-.2-.54c-2.45-2.78-4.93-5.51-7.43-8.2-.36-.65-.79-1.18-1.29-1.57-1.49-2.95-2.38-6.01-2.63-9.33l-.26-.52c.09-1.29-.68-1.46-.57-.15.48,6.15,2.87,11.7,7.32,15.87-3.15-1.59-5.95-3.12-8.44-5.64-.33-.49-.73-.84-1.2-1.05v-.24c-1.22-1.6-2.09-3.34-2.6-5.23l-.29-.32c-.33-.62-.49-.15-.44.39.38,4.07,3.58,6.99,6.45,9.5.11.09-1.68-.72-2.05-.93-5.17-2.9-9.8-7.65-12.47-12.82-.24-.27-.67-.22-.53.15-.55.19-1.02.52-1.42.99-1.27,1.47-2.54,2.91-3.81,4.33-.42-5.5,2.46-10.62,6.26-14.33.28-.31.44-.63.48-.96-.07-.39-.71-.38-.81,0-3.19.48-5.95,3.22-7.96,5.68-1.67,2.04-3.11,4.44-4.22,6.81.14-2.19.72-4.27,1.4-6.35l.41-.33c1.39-2.9,3.66-5.3,6.38-6.99,6.67.71,13.35,1.41,20.02,2.12,13.85-1.49,19.18-2.78,20.62-3.84.44.16.87.32,1.31.47l.03.26c4.33,2.51,7.52,6.85,9.38,11.56l.43.46c.23.96.51,1.85.84,2.76.24,1.08.58,2.1,1.01,3.04-.04.1-.07.2-.09.31-.07.5.36,2.89.5,3.59.02.1.09.19.17.27l.12,1.51c-.19.57-.22,1.14-.12,1.72-.25.74-.32,1.58-.12,2.33-1.6,12.66-11.86,23.46-23.17,28.73ZM89.61,91.33l-.13.08-.27-.42c-1.54-.85-3.24-1.35-4.94-1.78l-.48.12c-2.84-.72-5.9-1.31-8.11-3.36h0s-.23-.54-.23-.54c-5.77-5.57-5.82-14.03-2.05-20.56l1.44-.39.14-.29c-.3,1.88-.2,3.69.32,5.43l.15.13c-.21.86,1.67,1.38,1.62.46.13,0,.24-.02.34-.09.72-.5,1.2-4.48.93-5.47.29-.05.37-.26.07-.35l.05-.69c.23-.28.65-.17,1.27.35-.12.32.48.73.7.46,2.16,1.95,3.41,4.51,4.54,7.16l.21.14c-.37.49.55.61.55.19,0-.89-1.74-4.32-2.28-5.22-1.27-2.11-2.65-3.41-4.81-4.44l.76-.9,3.61,2.52c.21.02.33-.07.42-.26.18-.4-2.86-3.13-3.58-3.24.19-.13.41-.12.63-.12,1.22-.02,3.33,1.05,4.35,1.74-.11.32.19.54.46.35.36.4.71.82,1.04,1.27.1.66.65,1.39,1.27,1.62,3.24,4.44,4.5,9.9,3.12,15.25l-1.03,4.4c-.44,2.12-.68,4.34-.11,6.45Z" fill="#28241e"/>
        <path d="M52.41,83.42s.03.07.04.1c-.02-.04-.04-.08-.04-.1Z" fill="#28241e"/>
        <path d="M50.21,84.58l.15.27c-.96,2.87-2.48,7.69-.66,10.43.36.32.61.66.74,1.01-.1.77,1.56.94,2.14.99,3.1.27,5.6-1.02,7.78-3.03.25-.18.53-.27.84-.26.29-.73.82-.49,1.19.02-.09-.36.06-.69.46-.99.04-.35.08-.57.43-.71.01-.33.03-.61.38-.71,0-.45.27-.8.71-.53.23-.45.53-.71.9-.78.57.58.66.3.29-.83-.1-.48.19-.89.6-.5.58-1.76,2.59.84,1.07,1.02-.22.44-.52.76-.94,1.01.49-.11.85.21.79.7.59.77.77,1.7.54,2.8.03.28.28.3.54.31.23-.62,1.1-.67,1.14.1l.81-.08c.1-.39.32-.69.67-.92-.03-.65,1.08-1.35,1.68-1.43.24-.36.6-.35.73.05.07-.7.78-1.46,1.06-.47-.27.36-.42.57-.28,1.05,1.05-.49.93.65.64,1.35.19.12.83.86.76,1.03-.1.28-.31.35-.56.24.13.49-.3.65-.56.23-.65.24-.74,1.08-.28,1.51.05.47.29.77.71.89-.05.54.1.78.44.7,0,.32.15.53.43.63l.43,1.47c.51.22.75.66.72,1.32.63-.84,1.69-.3.75.49.58.27.52.75.25,1.23.38.31.45.77.21,1.39.47.22.38.62.28,1.04.33.35.39.87.24,1.33-.17.49-1.58,1.61-2.08,1.81-1.93.78-4.14,1.04-6.2.77-.33-.84-.68-1.57-1.05-2.21-.16-.16-.28-.35-.35-.57l-.57-2.72c.28,2.23.59,4.44.94,6.62.65-.17,1.12-.1,1.39.22l.67,7.75-.22.16H27.73l-.2-.14c1.02-3.75,2.05-7.5,3.07-11.26l.26-.07.04-.69c.97-3.37,1.95-6.67,2.95-9.91-1.23,3.16-2.3,6.38-3.19,9.68-.11.38-.25.72-.61.92.32.16-.06.7-.26.93-.46.54-.87.81-1.52.36-.51-.35-2.1-3.99-2.31-4.75l.15-.26-.33-.22c-1.09-3.08-1.97-6.25-2.5-9.47-.12-.73-.53-3.64.31-4.09,3.05-1.16,5.96-2.61,8.71-4.37.42-.29.83-.38,1.22-.27l.23-.33c3.71-.92,8.03-1.6,11.86-1.53.1,0,.21.08.31.18,1.43-.02,2.86,0,4.28.06Z" fill="#fdfdfe"/>
        <path d="M30.86,108.33c.13-.41-.51-.06-.81,0,1.17-2.75,1.79-6.2,2.89-9.1.38-1,.89-1.98,1.34-2.95.26,0-.41,2.23-.46,2.43-.93,3.21-2.03,6.4-2.95,9.62Z" fill="#262119"/>
        <path d="M84.85,61.99c.17.12.31.21.46.35.28.31.63.74,1.04,1.27.44.52.86,1.08,1.27,1.62,3.14,4.32,4.46,9.62,3.21,14.85-.91,3.04-1.43,6.11-1.55,9.2.1.45.08.85-.04,1.2l-1-2.32c-1.66-2.52-2.88-5.58-3.48-8.55-.08-.4-.18-2.12-.28-2.27-.09-.14-.14-.23-.34-.19-.12.09-.06,1.16-.05,1.4.03.69-.07,1.2-.08,1.89,0,.6.04,1.12.24,1.68-.42-.13-.41-.59-.58-.84-.25-.39-.85-1.07-.98-1.46-.06-.19.09-.5.04-.57-.04-.06-.25-.08-.34-.19-.31-.4-.76-1.78-.91-2.24-1.02-3.17-1.35-6.07-1.29-9.36l.35-2.84c1.35,1.04,2.28,2.57,3.1,4.05l1.31,2.86.22.15c.07,0,.16.42.35.18-1.05-2.91-2.62-6.72-5.29-8.5-.31-.21-1.84-.88-1.89-1.13.15-.24.89-1.21,1.07-1.19l3.78,2.65c.09-.1-.47-.75-.58-.87-.33-.38-.84-.88-1.22-1.21-.27-.23-1.45-.96-1.54-1.07-.05-.06-.03-.13-.02-.21l.22-.32c.87-.42,3.97,1.05,4.73,1.68l.03.26Z" fill="#f1c862"/>
        <path d="M79.28,91.53c-.25.13-.61-.07-.7.23-1.3-.96-3.5-1.9-5.04-2.44-2.26-.78-4.66-1.11-6.9-1.97.11-.02.23.01.35,0,.09-.36-.48-.24-.46-.69,4.06,1.31,9.47,2.15,12.74,4.87Z" fill="#262119"/>
        <path d="M87.63,65.23c2.9,3.74,4.29,8.12,3.69,12.9-.56,4.41-2.75,8.91-1.49,13.46-.18.23-.29-.14-.35-.17.03-.32-.19-.67-.23-.93-.69-3.87,1.2-8.22,1.72-12,.29-2.05.22-4.41-.27-6.42-.59-2.38-1.76-4.77-3.07-6.83Z" fill="#f1eece"/>
        <path d="M83.54,112.83c-.17-.69-1.29-4.49-1.1-4.82.38-.65.93-.49,2.69-1.88.45-.36.8-.68,1.03-.89-.88-1.48-1.37-2.75-1.64-3.65-.31-1.02-.61-2.37-.81-3.29-.11-.49-.19-.9-.25-1.19-.21-.61-.53-1.33-.98-2.1-.4-.67-.82-1.22-1.19-1.66-.67-.61-1.34-1.21-2.01-1.82-.33-.16-1.04-.28-.7.23l.15.41c2.16,1.83,3.44,4.46,4.31,7.1.37,2.08,1.02,4.01,1.93,5.8-2.06,2.05-4.77,3.49-7.5,4.58l-.17.3-.52-.09c-2.28.66-4.68.92-6.99.93-.17-.82-.36-1.63-.56-2.44l-.14-.03c-.36-1.73-.69-3.55-1.19-5.24-.05-.18-.11-.61-.31-.67l1.27,9.5,1.39-.12.7,7.99h.58l.22-.15-.44-7.73h.57c.2-.03.48.07.82.31.31-.16.62-.21.92-.13.43-.2.85-.3,1.27-.29.61-.45,2.03-.95,2.78-1.04l.32.2c1.5-.09,3.17.33,4.41.8l1.95,7.92c.01.07.1.11.27.12h.7c-.27-1.41-.88-2.81-1.22-4.17-.23-.9-.33-1.9-.55-2.81Z" fill="#221e15"/>
        <path d="M85.41,61.5l-.03.02s-.02-.02-.04-.03c.02,0,.04.01.07.01Z" fill="#221e15"/>
        <path d="M86.35,63.61c-.24-.28-.6-.65-.87-.93-.05-.06-.41-.3-.17-.35.42.35.86.73,1.04,1.27Z" fill="#f1eece"/>
        <path d="M24.14,107.17c-.34.94-.37,1.52-.93,2.43-.3-.53.11-.56.21-.78.08-.15.36-1.88.32-2.04-.03-.12-.19-.24-.18-.25,0-.09.28-.13.32-.2.13-.21-.04-.62-.05-.87,0-.18.11-.39.08-.55-.02-.13-.25-.02-.24-.13s.21.05.24-.22c.07-.55-.26-2.86-.45-3.39-.07-.18-.58-.3-.02-.62.92,2.13,1.14,4.33.7,6.6Z" fill="#eee2dc"/>
        <path d="M74.65,11.71c.65.24,1.69,1.06,2.26,1.51,3.67,2.87,5.89,6.48,7.59,10.77,1.17,3.73,2.3,7.72,2.44,11.76-.07,1.19-.15,2.33-.24,3.42-1.06,12.86-11.8,23.75-23.05,29.08-.36.18-1.07.64-1.45.7-.27.04-.19-.21-.18-.41.03-.63,1.18-2.08,1.63-2.6.13-.15.86-.96.92-.98.12-.05.52.16.76.17,3.93.24,6.14-5.49,6.63-8.67.1-.62.05-1.85.17-2.26.04-.13.99-1.2,1.18-1.48,2.45-3.63,3.25-8.14,4.01-12.39l-.35.81c-.67,2.4-1.33,4.79-1.97,7.18-.62,1.69-1.52,3.82-2.77,5.14-.09.1-.08.11-.24.07-.16-.51-.44-1.07-.76-1.5-.24-.32-1.19-1.02-1.2-1.22.62-1.53,1.02-3.13,1.26-4.77.02-.12.1-.42-.1-.39-.31,1.12-1.07,4.39-1.85,5.13-.16.15-.66.21-.94.37-1.32.73-1.9,1.53-2.89,2.61-.6-3.2.38-6.41.79-9.57.22-1.65.48-3.66.35-5.3-.04-.5-.22-1.75-.36-2.19-.1-.33-.15-.09-.21-.08-.09.47-.08,1.05.01,1.72-.1,2.74-.3,5.45-.59,8.12-.31,2.39-.9,4.75-.81,7.18-.64-.68-.9-1.93-1.03-2.85-.53-3.91.12-7.04-1.35-10.93-.71-1.87-1.82-4-3.18-5.45.03.19.07.39.11.58,1.63,2.79,3.2,5.74,3.36,9.1.07.71-.05.93-.35.64-1.45-1.47-2.5-2.98-3.88-4.4-2-2.07-3.55-3.28-5.04-5.91v-.21c-1.06-2.01-2.08-4.11-2.12-6.39-.42-.43.06-1.06.54-.66.81,2.51,2.07,4.73,3.71,6.78l.75,1.47c-.74-3.09-1.25-6.14-1.26-9.46,0-.09.03-.19.07-.29s.09-.2.15-.29l-.24-.46c-.06-.76-.02-3.95.29-4.42.05-.08.12-.15.18-.22.36-.45.63.19.58.58l.27.36c.17,1.44.6,2.84,1.18,4.17l-.05.45c.42.19.48.24.35.7.17-.14.22-.08.12.12l.36.16c1.02,1.82,2.68,3.97,4.46,5.09.18.11-.46-3.79-.57-4.11l.16-.44c-.48-.71-.63-2.05-.46-2.9-.15-.19-.09-.26.12-.12.34-.05,1.05.44.93.81.23-.09.32,0,.23.23.39-.13.76.31.7.7.1.02.2.05.29.09s.17.08.23.14c2.85,3.26,4.42,7.84,4.95,12.03,1.01-3.24,1.75-6.52,1.85-10.01l.2-1.05c-.14-.37-.83-2.45.19-2.06.26.1,1.09,2.2,1.21,2.59,1.07,3.56,1.42,7.83.53,11.44.25-.2.44-.12.63.13,4.03-3.12,4.12-9.29,3.99-14.07,0-.19.07-.47.19-.62-.33-.41-.37-.68-.12-.81,0-.2.04-.4.12-.58l-.28-.08c-.69-3.83-1.49-7.76-4.09-10.84-.59-1.11.03-1.24.88-.65h.13Z" fill="#d1ae50"/>
        <path d="M86.35,29.78c.32,1.39.52,2.74.58,4.17l.12,1.51c0,.52,0,1.04,0,1.56l-.23,2.49c-.08-.04-.11-.16-.12-.35-.04-.06-.2-.07-.22-.19-.01-.08.09-1.38.11-1.47s.21-.03.24-.25c.06-.49-.23-.42-.24-.47-.02-.07.3-.59.24-1.16-.36-3.18-.84-6.47-1.86-9.59-.04-.11-.24-.07-.23-.14.02-.3.43-.23-.09-.72l-.14-1.19c.73,1.85,1.41,3.85,1.85,5.79Z" fill="#e3ce8a"/>
        <path d="M62.83,92.69c.15.14-.67,1.4-.93.75-.17-.45.3-.21.45-.3.14-.09-.02-.61.48-.45Z" fill="#fdfdfe"/>
        <path d="M76.85,101.27s-.02.45,0,.58c-.54.09-.21-.82,0-.58Z" fill="#fdfdfe"/>
        <path d="M83.37,99.55c-.89-2.98-1.54-3.8-1.81-4.27-1.04-1.81-2.23-3.08-3.06-3.87-2.92-1.93-6.35-2.82-9.76-3.62-.69-.14-1.39-.28-2.08-.43-.22-.03-.43-.06-.65-.09-2.78,4.15-9.01,10.72-14.54,9.23-.37-.21-.71-.28-1.03-.22-.57.55.27.8.74.94,2.6.78,5.45.06,7.65-1.42.52-.35,1.46-1.38,2.03-1.56.17-.05.51-.01.57-.07.11-.1-.04-.69.53-.31.24.16.17.49.76.33.08-.21-.21-.3-.2-.41,0-.04.45-.63.49-.63.05,0,.39.49.52.34.24-.27-.57-.55-.41-.81.05-.08.37-.24.47-.24.07,0,.01.33.23.24.09-.39.88-.48.64-.81-.02-.02-.51.13-.55.15-.02.01-.29.56-.38.14-.08-.37.25-.32.32-.43.1-.17-.03-.56.32-.55.09,0,0,.33.23.23l.7-.93c.21.84.48,1.49.68,1.91.53,1.12,1.04,2.23,2.07,2.51.42.12.81.06,1.04,0,.61-.03,1.11.02,1.47.09,1.74.31,3.19,1.33,3.11,1.88-.01.09-.02.27.03.47.02.1.2.09.26.23.07.16.19.74.22.76.08.07.39-.03.51.13.09.11-.24,1,.51.7-.14.8.21.49.33.59.06.05.34,1.25.43,1.48.19.36.6.33.63.36.05.05-.2,1.11.46,1.27.08.08.16.15.23.23.57.6.68,1.08.66,1.42-.03.45-.3.86-.07,1.18.1.15.19.09.33.26.17.2.11.35.19,1.11.04.38.07.49.02.71-.13.65-.48.56-.78.84-.31.3-.28.47-.77.73-1.77.93-4.45,1.18-6.42,1-.31-.61-.34-1.21-.75-1.8-.13-.19-.04-.3-.41-.23.09.41.35,2.7.63,2.75.57-.17,1.16-.05,1.74-.08,1.88-.12,4.03-.48,5.85-1.04,1.45-.45,3.54-1.58,4.86-2.38.54-.33,3.01-2.01,3.02-2.54-1.13-1.68-1.26-3.61-1.82-5.48Z" fill="#f1eff6"/>
        <path d="M34.68,27.93c.45-.67.82-1.43,1.45-1.97.8.66,1.25,1.62,1.86,2.42,2.77,3.61,6.11,6.92,10.24,8.93-.26.54-.66,1.01-.93,1.56-.05.11-.19.08,0,.23,3.19.07,5.64.2,7.82,2.72.48.55,1.3,2.06,1.68,2.38.2.16.35-.1.35-.23v-2.49c1.83.63,3.31,2.06,4.58,3.47.35.39,1.05,1.09,1.1,1.56.29,2.45-.29,5.29,1.09,7.59.22.37.95.89.97,1,.07.27-.24.98-.21,1.31.88-.99,1.1-2.33,1.97-3.42,1.57-1.94,3.91-2.3,4.71.49.83,2.91-1.48,10.5-4.89,10.92-.52.06-2.09-.17-2.3-.1-.15.05-.73,1.03-.89,1.26-3.71,5.29-8.91,11.12-15.06,13.56-.46.15-.93.31-1.39.46-.59.07-1.17.18-1.75.35-.68-.2.09-.57.5-.69,3-1.68,4.64-3.69,6.22-6.68.23-.44.7-1.36.42-1.74.36-.5.48-1.07.61-1.71.91-4.68.68-9.47-1.04-13.91,0-.15.06-.29.15-.42.18-.2.45-.16.8.13,1.94,2.06.07-.23-.77-.68l-.03-.26.05-.51c1-1.57,1.52-3.37,1.92-5.17.74-.27,1.37-.41,1.9-.43l-.11-.15c-.19.35-1.49.38-1.68,0-.45-.26-.39-1.54.39-1.44l.41-.16c-1.07-.03-1.76-.57-2.3-1.46-.88-.67-2.09-.86-3.16-.69l-.2-.19c-.05-.36.18-.93.63-.72.28-.11.46-.2.23-.47-3.15-2.21-6.38-4.7-9.46-7.14-2.4-2.01-4.53-4.3-5.89-7.11v-.44Z" fill="#debdb2"/>
        <path d="M53.45,80.18c.38-.4.56-.32.94.07,3.22,3.46,5.47,8.21,5.78,12.9-1.54,1.25-4,2.94-6,3.21-6.48.88-5.37-5.61-3.97-9.65.09-.26.74-1.95.83-2.01.18-.12,1.61-.09,1.61.39v3.36c0,.12-.34.74,0,.87.33-1.63.56-3.12.46-4.81-.05-.9-.51-2.47-.44-3.22.05-.56.53-.8.79-1.13Z" fill="#f2dfd9"/>
        <path d="M53.45,80.18c1.55-1.94,3.47-3.66,4.77-5.83.38-.64.68-1.33,1.01-2,.27-.54.22.19.27.44.89,4.41,2.11,9.09,4.15,13.11.09.17.64,1.18.7,1.22.11.08.72-.37.92-.04-1.14,2.4-3.06,4.42-5.1,6.08-.19-.12-.15.14-.23-.17-.28-1.08-.14-2.05-.5-3.21-.91-2.96-3.07-7.54-5.44-9.56-.17-.14-.36-.17-.55-.03Z" fill="#e7c2bc"/>
        <path d="M80.33,57.65c-.03.24-.21.83-.29,1.1-1.14,3.63-5.09,5.72-8.74,5.68,1.49-1.29,3.14-2.44,4.58-3.82.89-.85,1.66-1.81,2.55-2.67l1.91-2.32c-.05.65.07,1.39,0,2.03Z" fill="#815d92"/>
        <path d="M77.66,64.19c.01,1.42-.08,2.83-.29,4.22-.16.48-.71,1.29-1.21,1.11-.83-1.43-.42-3.98-.33-5.6l1.83-1.24c.02.5-.02,1.01,0,1.51Z" fill="#d1ae50"/>
        <path d="M86.82,39.51c.07.64-.16,1.77-.29,2.44-2.01,10.51-12.13,21.42-21.65,25.85-.37.17-.83.38-1.24.44,9.42-4.77,18.1-12.65,21.72-22.83.72-2.01,1.07-4.14,1.34-6.25.1.17.09.13.12.35Z" fill="#eae1b6"/>
        <path d="M89.25,90.49c-.29-1.31-.7-2.48-1.52-3.62-1.74-2.98-2.69-6.3-3.04-9.63-.91-1.24-.92,1.18-.81,1.76l-.1,2.03c-.1.03-1.13-1.43-.82-1.78-.83-.75-1.34-2.51-1.59-3.64-.79-3.57-1.27-7-.63-10.55l-.18-.41c.02-.08-.01-.16-.12-.23-.18-.12-.54-.39-.7-.46l-.58-.35c-.4-.27-.63-.27-.69,0-.12.46-.07.63-.12,1.04-.2,1.8-.22,4.09-1.27,5.56-.04,0-.24.2-.41.23-.65.09-.84-.29-1.21-.69-.69-1.63-.83-3.44-.42-5.45l-.04-.11c-.43.19-1.6.37-1.74.51-.2.2-1.26,2.63-1.44,3.08-2.56,6.41-1.22,13.46,3.88,18.19.47.4,1.01.8,1.62,1.18,2.4,1.51,4.81,2.01,6.49,2.17,1.94.49,3.93,1.03,5.68,2.09.23-.16.04-.94-.23-.93Z" fill="#d1ae50"/>
        <path d="M85.19,71.72s-.13.16-.23.12l-1.37-3.09c-.87-1.54-1.81-2.8-3.03-4.09-.05-.05-.07-.17-.12-.23,1.04.69,1.85,1.79,2.53,2.86.89,1.41,1.43,2.98,2.22,4.44Z" fill="#ebd995"/>
        <path d="M75.46,69.75s-.09.13-.17,0c-.95-1.47-.55-3.94-.3-5.57,0,0,.05-.22.12-.06-.11,1.89-.32,3.79.35,5.62Z" fill="#ebe0a4"/>
        <path d="M77.66,64.19c.07,1.35.11,2.95-.17,4.29-.09.44-.61,1.01-.99,1.21-.45.24-.3-.09-.35-.17,1.94-.79,1.04-3.67,1.51-5.33Z" fill="#d7c991"/>
        <path d="M79.75,63.96c-.13-.07-1.12-.51-1.16-.46l-.12.81v-.69c.04-.14-.11-.42.17-.34s.91.45,1.11.69Z" fill="#e4be5c"/>
        <path d="M87.05,35.46c-.23-.39-.1-1.02-.12-1.51.21.38.12,1.03.12,1.51Z" fill="#27291a"/>
        <path d="M10.47,100.69l.35.58c-.76-.29-.27.25-.81.35l.23.23-.46-.06c.45-.51,0-.37,0-.46-.01-.38.69-.29.47-.52.01,0,.07-.06.23-.12Z" fill="#dab7af"/>
        <path d="M22.63,73.81c-.08.5-.16.54-.35.93-.36-.16-.16-.19-.09-.38.07-.18.17-.83.43-.55Z" fill="#292825"/>
        <path d="M11.63,100.34c.31.09.16.82.05.81l-.52-.12.46-.12-.12-.58s.08.01.12,0Z" fill="#e3c4c0"/>
        <path d="M20.89,97.44l-.52.35-.17-.35c.33-.11.35-.21.7,0Z" fill="#e3c4c0"/>
        <path d="M11.51,78.04c-1.68-2-3.69-3.93-5.21-6.08-.08-.12-.2-.18-.23-.23-.28-.09-.4-.29-.35-.58-1.47-2.07-2.36-3.78-3.48-6.02,0-.13,0-.25-.01-.38-.02-.12-.03-.24-.08-.34-.63-1.44-1.33-2.82-2.03-4.18-.94-1.13,1.57-1.24,2.26-1.23.77,0,1.43.04,2.14.29.23-.16.5-.14.81.05.29-.15.63-.15,1.03,0,.32-.18.62-.18.9-.02.93.11,1.84.13,2.74.05.07.35.31.65.71.89.84-.5,1.54-1.29,1.62-2.32l-4.1-.25c-2.18-.15-4.54-1.08-6.63-1.36-1.33-.18-2.52.76-3.46,1.61-1.1,1-1.21,1.44-1.1,2.95.2,2.85,3.56,8.7,5.21,11.18,1.77,2.65,3.98,4.71,6.5,6.66l.09.33c-4.3,7.83-9.05,15.41-13.31,23.26-.8,1.47-1.64,2.91-2.34,4.44-.76,1.67-1.37,4.06-2.18,5.52-.15,1.2-.66,3.09.58,3.88.26.16.41.11.57.18-.03-.26.05-.36.24-.52.95-.82,2.72-1.46,3.81-2.33,2.43-1.92,4.89-6.57,6.15-9.32.05-.05.02-.12-.03-.18.06.02.12.02.15-.05.07-.16.16-.31.23-.46.1-.04.1-.08,0-.12l.12-.23c.11.09.19.01.23-.23,0-.02.11-.44.12-.46.04-.1.32-.42.43-.68.39-1,.81-1.95,1.2-2.92.16-.39.96-2.5.93-2.72l-.35-.12c.11-.24.39-.02.45-.07.21-.15.81-2.31,1.13-2.66,1.1-4.15,3.43-8.62,4.62-12.98.13-.47.29-1.05.18-1.5.17.11.47.31.23.52-.02.1.38.24.16-.4-.02-.05-.56-.8-.63-.87Z" fill="#f2dfd9"/>
        <path d="M17.19,45.77c1.24-1.93,2.84-4.19,4.24-6.01,1.02-1.33,4.06-4.49,5.77-4.52.07,0,.74.05.65.28-3.16,2.94-5.76,6.39-8.04,10.03-3.26,5.2-7.18,12.87-7.25,19.11-.11.36-.11.82.05,1.16-.84.13-1.64.37-2.42.74l-.29-.16c-.93-1.36.16-3.1.55-4.49.07-.27.02-.79.04-.82.11-.13,1.21-.68,1.56-1.06,1.05-1.14,1.55-3.21-.76-2.78.29-.57.27-1.68.7-2.13.15-.15.45-.25.63-.42.93-.85,2.01-2.1,2.13-3.43.04-.43-.13-.91-.05-1.2.12-.51,2.08-3.63,2.5-4.29Z" fill="#f7f7f8"/>
        <path d="M12.55,64.66c0,.29-.06.95.06,1.16.03.06.92.7,1.06.79,1.54,1.03,3.52,1.79,5.25,2.45.03.19-.28.13-.41.12-.86-.05-1.76-.57-2.24.54-.02.2.19.26.33.33.7.38,2.05.47,2.84.86.69-.11.75-.84.82-1.39l5.27,1.39c.45.57-.62,2.12-1.39,1.74-.63-.11-1.5-.03-2.13-.13-3.13-.47-5.87-1.4-8.53-3.11-.22-.14-.27-.23-.42-.33-1.01-.68-2.49-1.68-3.17-2.68.47-.08.93-.42,1.36-.55.27-.08,1.14-.11,1.18-.15.08-.07-.14-.88.12-1.04Z" fill="#a7aeae"/>
        <path d="M14.75,43.69c.41-.43.44-.58,1.09-.34,1.59.61.95,2.11.36,3.23-.21.4-1.65,2.86-1.97,2.78-.15-.04-.2-.63-.92-.58s-2.04,1.43-2.77,1.87c-.36.21-2.79,1.44-2.97,1.25,0-.53.52-1.21.87-1.62,1.39-1.68,3.42-3.24,4.93-4.86.51-.55.88-1.21,1.39-1.74Z" fill="#dbbaaf"/>
        <path d="M2.24,65.12c-.51-1.03-.97-2.03-1.42-3.04-.25-.56-1.29-2.16-1.11-2.67.15-.43,2.14-.63,2.6-.64.25,0,.94,0,1.25.02.11,0,.2.19.35.17.09-.01.19-.18.25-.19.1,0,.22.29.35.29.09,0,.23-.17.34-.16.26.01.53.54.82-.16-.03.31.84.39.86.35.06-.11-.1-.38.12-.35l.12.28c.19-.29.3.04.53.06.55.04,1.09.11,1.62.14.5.03.42-.25.46-.24.07,0,.19.13.32.15.13.02.38-.04.44.01.15.13.08.4.17.54.12.18.57-.04.41.57-1.33.79-3.06.79-4.58.7-1.22-.07-2.73-.28-3.76-.93.15.82.03,1.6.23,2.43-.36.29.06.66.12.87.01.05-.5,0,0,.52-.23-.17-.26.67-.23.7.04.03.64.05.58.64-.03.32-.68-.09-.81-.06Z" fill="#d6b2a7"/>
        <path d="M13.71,49.83c.67,1.1.33,1.91-.25,2.93-1.4,2.47-3.53,2.57-5.76,3.97-.57.23-4.83-.54-4.99-.76.11-1.37.85-1.46,1.85-1.97l.24.14c.08-.16.43-.34.64.03.32-.13.65-.09.69.32.63.26,1.4.09,2.1-.28,1.1-.59,2.19-1.17,3.31-1.62.71-.84,1.33-1.76,1.88-2.76h.3Z" fill="#d7b4a9"/>
        <path d="M24.06,103.5c-.09-.88-.37-2.03-.61-2.66v-.27c-.52-1.19-1.31-2.35-2.44-3.01-.03-.04-.07-.09-.12-.12-.24.02-.47.02-.7,0-2.72.92-5.74,1.92-8.57,2.9.09.21.05.21-.12,0-.2.07-.44.18-.58.23-.12.04-.29.05-.46.12-.02.05-.04.1-.06.15-.03-.02-.09-.04-.17-.04-.43.15-1.48.36-1.73.65-1.25,2.6-2.01,5.56-3.66,7.92-.09.02-.07-.11-.06-.17.61-2.36,2.16-5.35,3.06-7.71,1.31-3.43,2.55-6.88,3.89-10.31,1.5-3.83,3.13-7.64,4.53-11.52,1.68-.72,4.16-2.25,5.03-3.89.21-.39.95-2.47.86-2.79l-.26-.19c-2.71-.55-5.54-1.17-7.87-2.59l-.21.12c-1.46-.6-4.74-2.73-4.97-4.35-.07-.5.02-1.39.11-1.9.02-.1.08-.29.12-.46l-.13-.32c.22-.61.41-1.24.59-1.88-.06-.19-.12-.11-.26-.09-2.09.26-4.15.08-6.21-.24-.42,1.07.36,2.12.68,3.11-.01.1.07.86-.23.58-.09-.09-.87-2.07-.93-2.32-.51-.15-.42.44-.2.76-.14.48-.16.97-.06,1.46.45.16.81.53.08.23l-.16.21v.52c.9,1.81,1.86,3.59,3.02,5.25l.46.25c-.16.26.04.6.35.58-.12.29-.03.4.23.23l.05.33c1.71,2.2,3.5,4.33,5.36,6.4-.16.12-.21.32-.16.6-1.02,3.66-2.29,7.26-3.83,10.82-.61,1.93-1.3,3.76-2.01,5.56-.5-.1-.7.37-.26.61l-.83,2.36.17.2c-.63.85-1.11,1.81-1.44,2.89-.27.29-.34.53-.18.7-.33,0-.44.34-.12.46-.08.25-.19.44-.35.58-.35,0-.44.18-.23.46-.31-.04-.34,0-.12.23l-.33.17c-1.45,3.01-3.04,6.07-5.4,8.48-1.36,1.01-2.79,1.92-4.29,2.75-.29.22-.61.57-.17.77,1.55.65,4.02.49,5.73.35,3.36-.29,6.98-1.14,10.25-1.97.2.05.51.08.58-.12.32-.08.69-.25,1.04-.35,4.43-1.18,8.77-2.62,13.12-4.06.15-.07.22-.41.32-.58,0-.32.11-.49.29-.74.53-1.77.77-3.51.57-5.37Z" fill="#e7c2bc"/>
        <path d="M13.71,49.83c-.85.97-1.24,2.6-2.43,3.2-.25.13-.48.07-.58.12-1.06.53-2.61,1.59-3.81,1.72-.2.02-.3-.13-.42-.13-.16,0-.21.35-.53-.1-.1-.14-.06-.32-.17-.41-.21,0-.28.79-.52.58-.03-.03.17-.61-.23-.69l.11.69c-.33-.01-.61-.43-.58-.81.34-.17.7-.3,1.04-.46.07.07.15.03.23-.12,1.94-.93,4.17-1.86,5.99-2.99.33-.2,1.17-1,1.4-1.05.41-.08.38.26.49.45Z" fill="#f1e2e0"/>
        <path d="M19.16,39.63c.44-.06,1.45,0,1.25.61-.9,1.16-1.74,2.36-2.6,3.55-.12.16-.28.62-.51.36-.1-.21-.11-.45-.3-.69-.23-.3-.83-.5-.73-.85.04-.14,1.07-1.44,1.26-1.65.34-.38,1.15-1.27,1.63-1.33Z" fill="#dfc2b5"/>
        <path d="M8.27,57.12c0-.49.67-.44.95-.59.1-.05.11-.2.23-.26.53-.26,1.11-.42,1.65-.66-.04.25-.32,1.51-.58,1.51h-2.26Z" fill="#bc9080"/>
        <path d="M9.08,63.61c-.66-.06-.19-.7,0-.99.03-.12-.29.03-.23-.17.52-.07.11-.73.69-1.04.16.5-.36,1.66-.46,2.2Z" fill="#e1bfb7"/>
        <path d="M5.83,53.42v.7c-.34-.08-.11-.39-.23-.58.08-.04.15-.08.23-.12Z" fill="#d7b4a9"/>
        <path d="M34.68,27.93c.61,1.03,1.08,2.05,1.8,3.01,3.35,4.43,8.19,7.2,12.42,10.66.29.24,1.11.65,1.3.87.16.18.11.56.29.63.06.03.18-.65.52-.17-.27.4-.6.48-.98.17-.07.46-.48.08-.52.12-.02.03-.03.45-.35.58l-.13.29c-2.58,1.12-3.73,4.72-3.68,7.35.01.56.08,1.9.68,1.98.02-.09.04-.18.11-.24.24-.2,5.29,1,5.65,1.32l.15.31c.27,1.46.95,2.79,1.24,4.26.63,3.19.5,8.32-.45,11.41-.05.17-.3.29-.3.37,0,.07.2.17.19.33-.01.1-.67,1.68-.77,1.9-1.19,2.48-3.38,4.73-5.68,6.14-.35.21-.78.42-1.18.5-.03.2.28.13.39.11.44-.07,1.04-.49,1.46-.22-.61.19-1.23.32-1.85.46-.32-.02-.63.05-.93.23-2.31.44-3.99.54-6.14-.58-1.5-.78-2.52-2.24-3.71-3.3-1.09-.97-2.45-1.81-3.54-2.83-1.55-1.47-3.24-3.68-4.46-5.45l-.38-.15c-1.98-3.09-3.23-7-1.93-10.61,1.21-3.24,2.68-6.37,4.39-9.39,1.41-1.94,1.13-3.61.63-5.73l.19-.31c-.21-2.41.47-4.55,1.39-6.72,1.07-2.53,2.63-5.02,4.17-7.3Z" fill="#f2dfd9"/>
        <path d="M33.99,19.94c.66-.63,1.91-1.58,2.67-2.13.26-.19,1.8-1.25,1.96-1.11-.24,1.62-.1,3.3.24,4.91.37,1.72,1.3,4.46,2.37,5.86.09.12.29.38.45.36.27-.05.08-.29.05-.4-.3-1.48.19-4.33.64-5.86.27-.89.87-1.84.99-2.78.21-.05.08.2.11.23-.21,1.8.27,3.57.58,5.33.55.99.78,2.36.58,3.48-.28-.2-.26-.12-.23.17.4,4.3,4.11,7.93,7.41,10.31-.4,0-.9-.21-1.27-.35-4.81-1.86-10.66-7.3-13.37-11.65-.22-.35-1.16-2.25-1.3-2.29-.1-.03-.22.09-.27.1-.5.11-.96.52-1.32.89l-2.68,3.06c-.34.53-.86,1.13-1.06.15-.04-.2.62-3.61.72-3.92.51-1.58,1.29-3.12,2.41-4.36h.31Z" fill="#d5b152"/>
        <path d="M49.28,16.34c.39-.32.5-.03.31.88l.15.16c.03.82.13,1.62.23,2.43.27-.03.31.17.12.58.12.81.18,1.82.46,2.55.01.49.05.98.11,1.47l-.23.16-.23-1.04-.12.99c.35,5.29,2.37,10.13,5.8,14.13.21.25,2.28,2.17,2.08,2.38-2.13-1.32-4.47-2.28-6.52-3.73-1.53-1.07-2.76-2.23-3.9-3.69-.04-.32-.13-.55-.33-.83-.33-1.73,1.05-.66,1.34.21-.5-2.76-.95-5.57-1-8.4,0-.1.04-.19.08-.3s.1-.2.16-.29c.04-2.74.63-5.07,1.51-7.65Z" fill="#d2ad4d"/>
        <path d="M36.3,14.14c-4.16.84-8.55,6.11-10.56,9.65-.81,1.42-1.52,2.86-1.83,4.48l-.11-1.1c.38-2.35.78-4.71,1.74-6.9.22.1.06.37,0,.53-.35,1.04-.78,2.1-.99,3.18-.24,1.19-.17,1.6.64.41.5-.73.9-1.62,1.38-2.35.92-1.41,2.69-3.74,3.94-4.84.24-.21.74-.42.93-.6.13-.12.25-.48.38-.58.89-.65,3.12-1.87,4.18-2.02.22-.03.34-.26.3.13Z" fill="#ede3a4"/>
        <path d="M47.89,38.59c-.12-.11.63-.95.97-.93.32.02,1.73.76,2.21.93.92.32,1.85.44,2.75.84.31.14,2.55,1.4,2.65,1.52.17.22.35,1.58.05,1.57-1.25-1.63-2.88-2.87-4.86-3.48-.45-.14-1.56-.46-1.97-.46h-1.8Z" fill="#d3be5f"/>
        <path d="M59.24,35c2.03,2.98,3.58,6.51,3.47,10.2-.23-.06-.33-.32-.46-.46.38.05.25-.59.23-.87-.14-2.16-1.01-4.55-1.98-6.47-.45-.89-1.01-1.38-1.26-2.39Z" fill="#e5cf89"/>
        <path d="M66.08,36.62c.4,3.3-.16,6.58-.58,9.85-.2-.12-.12-.43-.1-.62.31-2.91.64-5.52.57-8.48-.01-.46-.34-.66.11-.75Z" fill="#e5d69a"/>
        <path d="M76.97,41.14c-.55,2.43-1.11,4.85-1.97,7.18-.22-.66.35-1.46.53-2.08.49-1.7.77-3.48,1.31-5.18l.13.07Z" fill="#e7d28d"/>
        <path d="M5.14,104.86c-.1.16-.11.32-.13.33-.1.09-.47-.08-.57.07.26.36.47.17.75.17.49,0-.58.5-.62.54-.15.11-.17.35-.36.39-.17-.59.74-.57.12-1.04.07.14-.24.76-.41.46-.19-.33.11-.63.05-.86-.04-.15-.54-.2-.34-.42.12-.13.54-.18.52.11l.4-.46v.81s.35-.12.35-.12l-.23-.58.23.06.06-.52c.02.31.5.3.52.41.02.11-.26.49-.35.63.03-.03.62-.47.69-.17.05.4-.96.5-.69.17Z" fill="#e1bfb7"/>
        <path d="M3.05,102.89c-.03.37.26.89.23.93-.13.14-.42-.37-.58-.35.02-.03-.02-.08,0-.12-.16-.22-.17-.28.12-.23.06-.1.1-.19.23-.23Z" fill="#e1bfb7"/>
        <path d="M2.47,103.93c-.04.08-.08.15-.12.23-.41-.27-.57-.16-.35-.69l.46.46Z" fill="#f7eae6"/>
        <path d="M8.15,99.53c-.14.28-.35.5-.58.17.17-.43.18-.27.58-.17Z" fill="#e1bfb7"/>
        <path d="M4.56,103.35c-.28-.08-.15-.6-.23-.81l.23.81Z" fill="#e1bfb7"/>
        <path d="M8.89,96.7c.08.08.22,0,.18.16-.54.38-.54.32-.34-.34.17-.04.08.1.16.18Z" fill="#e1bfb7"/>
        <path d="M55.42,20.28c.06-.47.09-.88.23-1.34.05-.17-.14-.35.23-.29-.18.38.23.8.24.98,0,.07-.23.05-.24.13-.03.2.19.58.21.82,0,.14-.08.24-.08.26-.15-.42-.11-.48-.58-.58Z" fill="#e8c05b"/>
        <path d="M57.39,25.84c.16.19.63-.06.69,0,.25.24-.43.46-.35.69-.14-.26-.22-.42-.35-.7Z" fill="#e8c05b"/>
        <path d="M61.91,24.34c-.09,0-.09.1-.12.12-.13.09-.3.13-.46.11.26-.3.43-.49.35-.93.22.08.07.44.23.69Z" fill="#e8c05b"/>
        <path d="M62.83,25.15c.14,0,.42-.64.58-.46.24.27-.43.45-.35.69-.07-.08-.16-.15-.23-.23Z" fill="#e8c05b"/>
        <path d="M78.01,23.3c.15.36.51.37-.12.58-.14-.23-.43-.02.12-.58Z" fill="#e8c05b"/>
        <path d="M60.87,25.83c.11.17.44.02.57-.1-.08.53.16.24.23.29.26.2-.02,1.27-.28,1.45s-1.12.23-1.11-.18c0-.13.75-.93.12-.64-.02-.55.51-.78.35-1.39.25,0,.04.43.13.57Z" fill="#e8c05b"/>
        <path d="M49.28,16.34c.04-.11.06-.53.12-.58.03-.02.33-.02.34,0,.11.1,0,1.35,0,1.62-.34.34-.38-.5-.35-.62,0-.04.63-.22-.11-.42Z" fill="#e8c05b"/>
        <path d="M66.88,16s.11.3.1.32-.17.03-.21.1c-.08.16-.23,1.03-.58.73-.25-.21.43-.22.23-.46-.04-.04-.4-.03-.35-.29.1-.18.65-.53.8-.4Z" fill="#e8c05b"/>
        <path d="M51.36,19.01c-.05.05-.57-.07-.47.46-1.1-1.09.86-.86.47-.46Z" fill="#e8c05b"/>
        <path d="M45.57,19.7c-.12.32.69.68.46.93-.14.15-.42-.32-.52-.32s-.2.28-.41.2c.11-.39.52-.3.23-.75l.23-.06Z" fill="#e8c05b"/>
        <path d="M56.23,14.61c-.16.17.05.64,0,.69-.04.04-.72.19-.7-.11h.35s-.12-.58-.12-.58h.46Z" fill="#e8c05b"/>
        <path d="M51.6,17.04l-.58.23c-.44-1.21.83-.49.58-.23Z" fill="#e8c05b"/>
        <path d="M59.24,11.82l.35-.58-.58-.23c1.29-.16.57,1.12.23.81Z" fill="#e8c05b"/>
        <path d="M75.11,23.18c.03.2-.05.44-.23.52-.43.2-1.06-.5-.11-.18l-.11-.46.46.12Z" fill="#e8c05b"/>
        <path d="M61.56,14.72c-.14-.03-.9.15-.93.12-.26-.3.78-.31.75-.58l.17.46Z" fill="#e8c05b"/>
        <path d="M47.43,16.11c.2-.18-.03-.67,0-.69.36-.31.85.79,0,.69Z" fill="#e8c05b"/>
        <path d="M66.88,14.02c-.12.17-1.45.23-.04-.45.11.04.08.41.04.45Z" fill="#e8c05b"/>
        <path d="M49.97,19.82l.69-.23-.58.81c-.03-.2-.1-.43-.12-.58Z" fill="#e8c05b"/>
        <path d="M72.57,23.06c.06.58-.69-.16-.58.35-.2.05-.07-.18-.12-.22-.04-.03-.29.16-.34.11.11-.63.52-.12,1.04-.23Z" fill="#e8c05b"/>
        <path d="M67.81,15.88c-.37-.04-.64-.35-.46-.69l.46.69Z" fill="#e8c05b"/>
        <path d="M60.75,9.97c.09.62-.07.3-.46.58.28-.53-.21-.23-.23-.69.27.22.36.24.69.12Z" fill="#e8c05b"/>
        <path d="M56.81,14.61c-.09-.04-.93-.08-.69-.34.02-.02.38-.23.41-.23.08,0,.37.49.29.58Z" fill="#e8c05b"/>
        <path d="M73.38,21.44c-.2.27-.26.8-.69.69-.1-.32.21-.21.3-.35.1-.16-.25-.59.4-.35Z" fill="#e8c05b"/>
        <path d="M59.13,16.46s-.12.94-.58.81c-.05-.05.35-.97.58-.81Z" fill="#e8c05b"/>
        <path d="M58.43,13.33c-.4-.26-.37.12-.4.12-.78-.16.33-.98.4-.12Z" fill="#e8c05b"/>
        <path d="M44.46,21.86c.16.19.37.25.3.63l-.58-.76c-.02-.39.23.07.28.13Z" fill="#e8c05b"/>
        <path d="M53.22,14.26l.23-.93c-.03.33.36.9-.23.93Z" fill="#e8c05b"/>
        <path d="M66.54,11.71s.25.37.23.4c-.32.72-.7-.72-.23-.4Z" fill="#e8c05b"/>
        <path d="M44.41,19.82c-.3.33-.32-.68-.11-.7.32.01.14.67.11.7Z" fill="#e8c05b"/>
        <path d="M46.03,21.67s-.53.15-.58.12c.11-.68.77-.39.58-.12Z" fill="#e8c05b"/>
        <path d="M51.48,19.93c-.68-.04-.87-.3-.12-.46l.12.46Z" fill="#e8c05b"/>
        <path d="M54.72,17.16l-.58.58c.05-.28.22-.68.58-.58Z" fill="#e8c05b"/>
        <path d="M61.33,12.29l-.46-.12v-.17c.26-.36.52-.08.46.29Z" fill="#e8c05b"/>
        <path d="M48.58,16.23c-.01-.24-.05-.43.17-.58l.29.29-.46.29Z" fill="#e8c05b"/>
        <path d="M67.12,14.84c-.09.39-.74.09-.69-.23l.69.23Z" fill="#e8c05b"/>
        <path d="M46.61,17.16v.17c-.12.18-.25.2-.46.17v-.35s.46,0,.46,0Z" fill="#e8c05b"/>
        <path d="M57.16,23.29c-.2.24-.53-.56-.17-.69.05.09.2.67.17.69Z" fill="#e8c05b"/>
        <path d="M58.66,18.31c-.16.23.2.79-.23.69.05-.24-.18-.79.23-.69Z" fill="#e8c05b"/>
        <path d="M54.72,9.74c.16.19-.26.36-.46.35-.13-.37.28-.55.46-.35Z" fill="#e8c05b"/>
        <path d="M69.44,23.76c-.1-.24.6-.55.69-.29l-.69.29Z" fill="#e8c05b"/>
        <path d="M63.99,24.22c-.04-.46-.31-.55.23-.69-.04.22.05.61-.23.69Z" fill="#e8c05b"/>
        <path d="M63.75,24.24c.09.1.01.54-.22.57l-.12-.7c.08.05.32.11.33.13Z" fill="#e8c05b"/>
        <polygon points="58.43 14.26 57.97 14.72 57.97 14.26 58.43 14.26" fill="#e8c05b"/>
        <path d="M60.4,17.73s-.05.71-.23.69c.02-.3-.26-.7.23-.69Z" fill="#e8c05b"/>
        <path d="M61.44,17.97c.19.21-.4.46-.46.17-.06-.29.36-.29.46-.17Z" fill="#e8c05b"/>
        <path d="M78.01,24.69c-.01-.13-.08-.75-.12-.81.12-.21.16-.41.12-.58-.36-.87-.49-2.68-.74-3.71-.65-2.61-1.39-4.34-2.81-6.57-.27-.42-.76-.72-.84-1.37.32-.3.58.07.89.16.18.05.14-.1.15-.1-.95-.67-2.06-1-3.13-1.39-4.16-1.51-7.83-2.16-12.28-2.09-3.45.06-8.56.73-11.12,3.24-.31.31-.59.69-.87,1.04-1.1-.7-2.44-1.58-3.68-2-3.32-1.12-8.04.28-10.98,2-3.05,1.79-5.65,4.51-7.07,7.76-.44,1.36-.82,2.75-1.16,4.16-.21.68.05,1.3.58.52,1.16-2.09,2.43-4.01,3.97-5.84,1.8-2.14,4.58-4.61,7.38-4.98.43-.09.55,0,.81,0-.85,1.17-1.99,2.15-2.89,3.31-2.76,3.51-4.64,8.16-4,12.68,1.65-2.13,3.23-4.38,5.39-6.02-.03,0-.06-.12-.3-.03-.16.05-.48.23-.62.33-.65.44-1.12,1.28-1.69,1.9-.51.55-.95,1.09-1.5,1.63-.13.12-.41.57-.46.58-.52.13-.09-1.29-.03-1.53.19-.75.12-.66.21-1.41.19-1.68,1.53-4.45,2.77-5.63l.29.05c1.27-1.08,2.59-2.15,4.03-2.96-.22,3.32.58,6.75,2.16,9.67.21.39,1.22,2.11,1.58,1-.43-2.02.07-4.19.59-6.16.43-.88.61-1.65.77-2.59,0,.05.01.09.07.07-.52,1.49-.09,3.49.29,5.02l.29.31c.21,1.17.4,2.3.58,3.48.33,2.17,1.56,4.09,2.9,5.79.52-.46-.58-.99-.06-1.62l.72.73c-.05.41.2.4.3.57.22.41.32,1.26.78,1.42-.41-.87-.49-1.75-.66-2.68-.45-2.49-.88-5.31-.85-8.04l.25-.53c.17-2.31.61-4.58,1.32-6.81l-.06-.31.26-.1c-.05-.21,0-.1.17.32-.16.25-.26.69.03.82-.34.67-.22,1.82.23,2.43.17.12.21.31.12.58-.31.34-.11,1.23,0,1.71.01.47.16.75.46.84-.13.44-.14,1.15-.12,1.62.16,3.38,1.24,6.91,2.9,9.85.27-.12.03-.34-.04-.48-.47-.92-.83-1.8-1.26-2.68-.64-1.32-.45-2.18-.6-3.48-.01-.12-.21-.24-.19-.37.46-.45.28-.01.41.28.52,1.11,1.02,2.47,1.59,3.51.54.98,1.5,1.98,2.1,3,.14.24.73,1.61.82,1.61.04,0,.24-.23.27-.31.13-.43-.52-2.31-.64-2.91-.49-2.49-.57-4.7-.62-7.2-.03-1.81-.01-3.29.23-5.1.33-.37.63.19.58.58.12,1.68.68,3.45,1.39,4.98.22.21.31.39.35.7.02.05.09.08.12.12.62,1.12,1.14,2.01,2.03,3.01.47.53,2.33,2.38,2.9,2.55.25.07.18-.16.17-.29-.07-1.51-.46-3.11-.69-4.58-.16-.97-.23-1.94-.46-2.9-.17-.12-.11-.15.12-.12.2.31.68.56.93.81.11.03.19.11.23.23.22.23.49.48.7.7,2.65,2.84,4.07,6.55,4.95,10.28.14.58.11,1.43.29,2.03.05.17.26.59.43.66-.09-1.43.7-2.66,1.01-4.01.46-2.04.72-4.47.86-6.57.02-.37.23-.94.22-1.28-.03-.58-.83-1.48-.11-1.8.19.61.55,1.11.78,1.71,1.13,2.9,1.64,8.2,1.02,11.27-.13.65-.39,1.26-.53,1.91.44.27.34-.21.52-.42.09-.11.28.03.29.01.05-.09-.16-.41-.11-.46.19-.22.25.23.29.24.78.08,2.47-2.43,2.8-3.11,1.55-3.24,1.84-8.29,1.54-11.84Z" fill="#f1c862"/>
        <path d="M73.95,24.68s-.16,0-.23,0v-.69c.18-.07.28.63.23.69Z" fill="#e8c05b"/>
        <path d="M49.16,43.8c1-.29,2.82.02,3.58.76.24.23.32.56.6.79,1.06.91,2.43.45,3.58.07l-.93.52c-.52.14-1,.4-1.51.58-.13.05-.44.05-.45.06-.06.06.03.95,0,1.15h1.68c.39,0,1.22-.56,1.68-.52-.8,1.04-2.18.86-3.3,1.21-.33,1.98-1.02,3.9-2.14,5.56-.01.32-.82.29-.94.14-.26-.35.17-.38.47-.37l-.08-.14c.51-.88.93-1.81,1.28-2.78l.31-.21c-.15-.34-.14-.73.03-1.17-1.8,1.24-4.08-.35-3.68-2.46.07-.39.5-1.71.87-1.12.18-.07.4-.04.67.09.13-.35.29-.58.49-.67l.13-.21c1.18.18.07-.41-.44-.56-.37-.11-.97-.2-1.31-.16l-.21.25c-3.2.66-3.72,4.92-3.52,7.64l-.21.22c.31.43.39.74.23.93-.09.03-.27.55-.55-.09-1.17-2.68.55-8.63,3.68-9.53Z" fill="#201d1a"/>
        <path d="M69.32,58.28l-.14-1.19c-.06-1-1.38-1.07-2.05-.6-.3.21-1.06,1.16-1.05,1.5,0,.21,1.65,1.3,1.27,2.02-.26-.08-.95-1.08-1.16-.93-.24.5-.3,1.24-.55,1.71s-.35-.21-.37-.49c-.16-1.66.17-3.3,1.58-4.32,2.04-1.48,3.15.34,2.47,2.3Z" fill="#221e15"/>
        <path d="M51.48,53.76c-.1.09-.21.12-.35.12v.11c.24.04.6-.05.81,0,.44.12,1.69,1.31,1.88,1.77.06.14.22.67-.08.55-.24-.1-.62-.76-.87-.99-.32-.29-.56-.36-.93-.52-.8-.35-1.91-.69-2.76-.89-.46-.11-2.91-.59-3.15-.5-.14-.33-.18-.57-.23-.93.18-.1.32-.03.42.2,1.48.05,3.26.37,4.85.74l.41.33Z" fill="#51453d"/>
        <path d="M44.99,80.06c-.31.07-.56.16-.93.23.42-.27.38-.42.93-.23Z" fill="#debdb2"/>
        <path d="M6.07,71.72c-.47.22-.78-.25-.35-.58.13.18.22.4.35.58Z" fill="#f7eae6"/>
        <path d="M3.4,65.58c-.29.31-.24-.8-.06-.81.26-.01.09.77.06.81Z" fill="#d6b2a7"/>
        <path d="M17.77,100.92c-.11-.32.2-.2.22-.24.15-.24-.14-.22-.18-.26-.27-.34.05-.38.14-.66.09-.28-.21-.67.17-.81.17.31-.08.66-.07.87.02.39.69,1.07-.28,1.1Z" fill="#e3c4c0"/>
        <path d="M28.77,38.94c-.09.16-.28.16-.57,0-4.04,4.13-6.81,9.02-9.05,14.38-.15.36-2.57,6.78-2.35,7.36.34.85,5.04,2.5,5.92,2.6l.26.33c.12.04.26,0,.33.18.47.94.86,1.92,1.3,2.87.32.69,1.04,1.53,1.04,2.33,0,.31-.12.62-.13.98-.2.15-.38.11-.6.09-2.42-.2-5.11-1.09-7.32-2.07-.57-.25-4.04-1.99-4.19-2.3-.2-.41,0-2.47.06-3.07.62-6.34,4.46-13.47,7.83-18.82,1.95-3.09,4.45-5.61,7-8.18.21-.09,1.08.37,1.14.61.07.28-.69,1.94-.68,2.7Z" fill="#f0f4f8"/>
        <path d="M22.98,63.61c-.97-.35-2.1-.56-3.07-.92-.7-.26-2.95-1.33-3.31-1.91-.18-.29.76-3.19.93-3.71,1.94-5.87,4.96-12.12,9.1-16.74.47-.53,1.06-.96,1.45-1.57l.29-.05.41.23c0,.08,0,.16,0,.23-.22-.1-.3.24-.35.46-.23-.02-.04-.11-.04-.1-.04.09-.15.31-.2.36-3.43,3.75-6.03,7.67-8.22,12.25l.04.29c-.79,1.99-1.51,4.01-2.17,6.06-.45,1.48-.73,2.38,1.03,2.91,1.4.48,2.77.99,4.11,1.51.05.23.49.49,0,.7Z" fill="#252a28"/>
        <path d="M17.53,69.75c-.06-.33.13-.24.38-.2.23.04,1.47.48,1.48.61,0,.2-.3.14-.44.09-.43-.13-.89-.52-1.41-.5Z" fill="#a8b0ad"/>
        <path d="M1.66,104.39c-.18.21-.25-.19-.31-.24-.14-.11-.58.15-.38-.28.18-.4.79.42.69.52Z" fill="#f7eae6"/>
        <path d="M2.71,103.35l-.46-.46.58.23c-.04.06-.08.16-.12.23Z" fill="#f7eae6"/>
        <path d="M1.08,103.23c-.4-.06-.42-.4-.17-.69l.17.69Z" fill="#f7eae6"/>
        <path d="M28.42,59.33l.33.17c.97,2.19,2.96,2.93,5.12,3.39.42.15.8.43.36.78-.09.07-1.94-.27-2.25-.34-1.3-.31-2.83-.7-3.45-2.02-.97-1.07-1.06-2.33-1.23-3.71,3.03-1.14,5.83-2.93,7.94-5.39.05-.25-.49-.24-.65-.27-1.99-.34-3.77.17-5.72.33.13-.49,1.77-.51,1.85-.58-.62-1.27-.54-2.45-.27-3.8.07-.36.61-1.84.59-1.94s-1.41-1.02-1.25-1.56c.32.35.92,1.07,1.45,1.04.28-.02,1.08-.88.72-1.19-.45-.39-1.3-.48-1.6-1.12.65.21,1.21.6,1.92.68,1.45.17,2.67-.68,3.75.77s.88,3.8.58,5.5c.4-.32.56-.95.72-1.42.84-2.47,1.2-5.26.2-7.73.56.39.81,1.27.91,1.92.61,3.64-.99,7.79-3.4,10.47-1.86,2.07-4.41,3.57-6.96,4.63-.2.29.17,1.08.3,1.4Z" fill="#28241e"/>
        <path d="M46.96,66.05c.43-.22.89-.34,1.29-.62l2.88-2.16v2.26c0,.28-.43,1.63-.55,2-.15.45-.35.86-.49,1.3.06.08.1.17.06.25-1.57,2.94-3.69,4.55-6.85,5.72-.41.15-1.95.71-1.9.06.49-.24,3.09-1.23,3.19-1.39.3-.49-.27-2.58-.29-3.25-.58.34-1.37.6-2.04.68-1.96.23-4.56.17-4.56-2.42-1.53.12-2.8-.18-4.06-1.04-.07-.12.14-.28.26-.31,4.29,1.5,8.53.38,12.63-1.11.14-.05.29-.03.43.03Z" fill="#2f2523"/>
        <path d="M28.42,59.33c.16-.98.17-.47.58-.29.13.06.29-.06.32-.04.05.03.49.66.71.85.26.22.8.65,1.1.76s.66-.04.79,0c.3.08-.16.31.95.24.05,0,.04.18.14.21.2.06.91.19,1.14.23.36.06.87-.03,1.21.06s1.25,1.05,1.28,1.4c.17,1.87-2.16,2.55-3.65,2.37-2.06-.25-3.01-1.33-4.08-2.94-.17-.26-.41-.55-.39-.88,1.45,1.6,3.49,1.82,5.47,2.12.15.02.23.22.2-.09-.8-.52-1.81-.47-2.72-.87-1.4-.6-2.5-1.72-3.07-3.13Z" fill="#e2beb6"/>
        <path d="M50.09,68.83s.2.08.35-.12c-.29,2.81-1.53,6.12-4.21,7.44-1.99.98-3.86.95-5.41-.77-.31-.35.2-.33.58-.52.21.22.7.03.95-.03,2.93-.7,5.16-2.24,6.91-4.68.28-.39.51-1.1.83-1.31Z" fill="#e0aca7"/>
        <path d="M33.64,67.44c-.09-.06-.23-.09-.23-.23.37.1.35-.21.53-.33,3.06-2,7.28-.5,10.73-.75.63-.05,1.27-.29,1.91-.3.25,0,.26,0,.38.22-3.51,1.75-9.06,2.67-12.83,1.42-.13-.04-.41-.24-.49-.03Z" fill="#dfb6af"/>
        <path d="M31.9,37.08l1.42-.35c.63-.25,1.52.12.55.35l-.18.24c-1.37.13-2.73.95-3.18,2.3,1.44-1.27,3.4-2.23,5.31-1.57-.13-.17-.16-.34-.1-.51-.37-.55.35-.39.7-.12.84.71.9,1.14,1.16,2.2-1.31-.35-1.92-1.19-3.39-1.01-2.09.25-3.25,1.51-4.66,2.86-.25-.16-.1-.2-.09-.32.07-1.94.68-3.18,2.47-4.08Z" fill="#25211a"/>
        <path d="M36.42,37.43c-.27-.09-.58-.23-.7.12-.24.11-.54.07-.91-.12-.46,0-.78-.12-.95-.35l.35-.23c-.78-.06-1.53.29-2.32.23,1.7-.86,3.02-.93,4.52.35Z" fill="#5e5651"/>
        <path d="M38.27,17.5c.22.18-.18.24-.2.27-.1.16.09.39-.26.31-.2-.32.29-.72.46-.58Z" fill="#e8c05b"/>
        <path d="M77.55,29.55c-.27-.25-.7-.12-.58-.58.49-.06.64.1.58.58Z" fill="#d1ae50"/>
        <path d="M77.43,27.81c.15.15-.2.69-.35.29-.12-.34.26-.37.35-.29Z" fill="#d1ae50"/>
        <path d="M49.74,44.38c1.08-.23.83.24.14.79-2,2.41-.34,5.82,2.83,5.3l.27.17c-.2.73-.98,2.63-1.51,3.13-1.77-.39-3.54-.81-5.37-.82l-.3-.45c-.36-2.71.47-7.89,3.94-8.11Z" fill="#fff"/>
        <path d="M49.74,44.38c.88-.35,2.51,0,2.66,1.04-.19-.06-.94-.08-1.04-.12l-.26.11c-.51-.56-.63-.3-.64.35l-.26.12s-.19-.05-.27.14c-.37.87-.64,1.45-.22,2.37.5,1.06,1.67,1.56,2.77,1.1.34-.14.51-.42.85-.49-.11.55-.2,1.07-.35,1.62-1.46.4-2.93-.15-3.73-1.43-.96-1.52-.41-3.78,1.06-4.72.02-.2-.45-.12-.58-.11Z" fill="#1d7db9"/>
        <path d="M51.36,45.31c-.11.84-.43,1.23-1.16.58.08-.17-.08-.77.35-.99.3-.15.57.32.81.41Z" fill="#d4dee1"/>
        <path d="M19.97,52.14c1.12-2.22,2.44-4.57,3.98-7.03.19-.54.98-.25.77.2l-.09.39c-2.18,3.37-4.43,6.86-5.45,10.78,1.1-1.38,2.41-2.57,3.94-3.57,1.31-1.05,2.03-2.52,2.74-3.99l1.97-3.58.25-.03c1-.27,1,.56.38,1.13l-.47.43c-.04.68-.35,1.45-.83,1.95-.68,1.36-1.36,2.72-2.04,4.06l-.63,1.36c-.32.09-.41.29-.3.59-.16.45-.26.87-.28,1.25-.9,2.42-1.45,4.2-.93,6.84-.08.21-.36.01-.49-.03-.89-.28-4.92-1.42-5.16-2.25-.18-.6.12-1.6.29-2.21.58-2.04,1.49-4.34,2.35-6.28Z" fill="#91a5c2"/>
        <path d="M28.42,39.63c-.5,2.08.35,4.13.56,6.17-1.69,3.41-3.75,6.72-5.08,10.28l-.58-.46c1.05.16.48-1.23.58-1.38.04-.05.42-.09.46-.13.23-.24-.29-.18-.23-.34.13-.02.34-.05.43-.15.19-.22.31-.61.42-.86.02-.04.2-.04.19-.09-.01-.21-.34-.24-.35-.41.52.09.65-.25.69-.7l-.23.06c-.08-.26.3-.18.42-.4.17-.33-.42-.62.4-.35-.45-.72-.06-.3.25-.63.09-.1,0-.41.09-.6.16-.37.33-.35.51-.91.05-.16.25-.14.3-.21.13-.21-.19-.54.37-.44l-.23-.58h.35c-.14-.31-.19-.29.12-.41-.46-.47.84-.96.9-1.17.21-.78-.51-.17-.68-.62-.23-.1-.37-.35-.41-.75.04-.48-.02-.86-.19-1.15.22-1.68-.1-1.33-1.09.03-.47.78-1.02,1.4-1.67,1.86l-.12-.27-.06.15-.29-.23c-1.42,2.41-3.05,4.68-4.14,7.27l-.14-.09c1.81-4.11,4.9-9.55,8.23-12.57.17-.16.26-.33.23.06Z" fill="#aabad1"/>
        <path d="M33.75,44.26l-.02.31c-2.29,1.9-.68,5.39,2.29,4.41l.28.15c-.08.49-.42,2.25-.89,2.41l-4.22-.17c-.53-1.02-.48-2.11-.32-3.22.24-1.69,1.19-3.38,2.88-3.89Z" fill="#f6f6f3"/>
        <path d="M33.75,44.26c.83-.25,1-.28,1.62.46-.48.05-.5.1-.69.46-.14.13-.29.06-.46-.22-.09.35-.24.54-.47.57-.19.44-.37.64-.36,1.22.03,1.45,1.88,2.3,3.02,1.33.09.39-.06.71-.11,1.04-3.4,1.3-5.34-2.73-2.55-4.87Z" fill="#1e7eb8"/>
        <path d="M34.68,45.19c-.24.45-.22.92-.93.35.15-.35.14-.72.54-.92l.39.57Z" fill="#b8cbd7"/>
        <path d="M49.05,65.47c-1.03,2.95-6.32,5.73-9.27,5.04-.64-.15-1.14-1.3-1.38-1.86.02-.27.97-.15,1.21-.17,2.6-.25,5.15-.74,7.52-1.87l1.93-1.14Z" fill="#f2f1f4"/>
        <path d="M50.55,65c-.31,1.91-.97,3.66-2.15,5.2-.35.46-2.71,2.99-3.12,2.91-.28-.06-.15-.86-.18-1.1-.05-.43-.38-1.74-.18-2.03.07-.1,1.14-.56,1.37-.71.83-.54,2.2-1.65,2.79-2.42.12-.15,1.19-2.15,1.45-1.85Z" fill="#a04a2a"/>
        <path d="M33.87,37.08c.56-.01,1.38.15,1.85.46.32.21.46.63.7.93-1.25-.36-1.77-.59-3.06-.22-1.38.39-2.12,1.08-3.19,1.96.12-1.82,1.98-3.08,3.71-3.13Z" fill="#e4c771"/>
        <path d="M24.72,45.31c.77-1.05,1.57-2.19,2.44-3.15.12-.14.34-.39.51-.44-.16.63.41,1.14-.06,1.62.35-.05.23.81.26,1.07.03.29.22.6.2.9-.02.29-1.73,3.19-2.01,3.72-.59,1.11-.81,1.81-1.65,2.87-1.6,2.03-3.77,2.61-5.12,4.84-.28.46-.41,1.16-.83,1.55.25-1.24.59-2.47,1.04-3.65,1.27-3.34,3.1-6.44,5.22-9.32Z" fill="#f1f0f5"/>
      </g>
    </g>
  </g>
</svg>