<?xml version="1.0" encoding="UTF-8"?><svg id="b" xmlns="http://www.w3.org/2000/svg" width="71.48" height="70" viewBox="0 0 71.48 70"><g id="c"><path d="M66.93,34.61c9.03,9.59,5.57,32.85-18.92,35.26-10.35,1.01-18.51-4.19-26.55-11.12-2.96-3.07-5.97-7.03-7.19-11.14,0,0-2.26,4.63-7.55,1.76-5.95-2.72-9.31-11.06-4.21-15.29,2.67-1.53,5.8-.67,8.24.73-2.31-4.74-2.52-19.04,9.26-24.28-.8-.36-2.67-.08-2.77-1.17,2.49-1.62,5.32-1.85,8.07-2.14-.52-.99-2.2-1.15-2.32-2.4,2.36-.77,4.95-.8,7.45-.17-3.71-5.37-1.69-4.21-1.69-4.21,2.7.62,4.95,2.18,6.81,3.79.63-1.13.79-2.81,1.48-4.22,2.23.52,2.36,3.38,2.73,5.26,5.52-2.28,10.29-1.57,10.29-1.57-.36,1.48-2.51,2.39-3.68,3.56,6.64,3.21,12.7,9.14,14.86,16.62,3.76-3.38,6.38-.64,7.48.61.32.53.59,1.08.8,1.65,1.71,3.55.42,7.65-2.56,8.47" fill="#231f20"/><path d="M40.7,18.93c-7.01-6.09-15.18-4.1-18.71-.12-6.33,7.06,2.59,16.07,5.98,18.25l4.35-2.34.07.11c-.8.56-1.46,1.35-2.43,1.58-4.23,3.39-7.08,8.06-7.3,13.92.74,15.87,23.74,25.37,39.96,12.59,5.83-3.79,8.16-11.78,7.41-18.33-1.64-11.41-13.08-16.05-15.11-16.58-.33-.95,2-10.94-4.32-13.65-2.83-1.38-8.6-2.22-9.9,4.58" fill="#fed5b5"/><path d="M66.63,58.98c-1.08,1.55-2.41,2.9-4.01,3.93-16.23,12.78-39.76,3.72-40.52-12.54.24-7.18,3.63-10.58,7.86-13.97.98-.23,1.63-1.02,2.43-1.58l-4.43,2.23c-3.39-2.18-12.31-11.19-5.98-18.25,2.21-2.49,6.23-4.2,10.65-3.64-.8,2.85-2.02,6.71-1.11,10.45,1.8,7.39,8.97,7.92,8.97,7.92,0,0-3.64,6.58-3.84,9.15l-.2,2.58s6.09-.81,10.09-1.73c4-.92,8.52-1.62,11.11-1.16,2.59.46,4.43,1.61,4.43,1.61,0,0-2.94-.44-4.7.07-1.76.51-3.87,4.58-3.87,4.58,0,0-.9,5.44.23,8.78s1.49,2.93,1.49,2.93l2.97-.98-3.4,3.95s4.45,2.79,11.83-4.35" fill="#efbd9b"/><path d="M49.55,31.33c.3-1.39-.67-2.78-2.16-3.1-1.34-.29-2.65.4-3.12,1.56-.46-.49-1.09-.85-1.83-1.01-1.79-.38-3.51.62-3.85,2.23-.34,1.61.83,3.22,2.61,3.6,1.09.23,2.16-.05,2.9-.67.83-1.45,1.7-.77,2.21-.66,1.49.32,2.94-.56,3.23-1.95" fill="#e2ad93"/><path d="M49.31,24.69c.31-1.46-.52-2.87-1.86-3.16-1.34-.28-2.67.67-2.98,2.13-.31,1.46.52,2.87,1.86,3.16,1.34.28,2.67-.67,2.98-2.13" fill="#efbd9b"/><path d="M36.9,26.66c-.11-1.57-1.5-2.76-3.11-2.65-1.61.11-2.82,1.48-2.71,3.05.11,1.58,1.5,2.76,3.11,2.65,1.61-.11,2.82-1.48,2.71-3.06" fill="#efbd9b"/><path d="M35.95,5.55c-2.27-2.01-4.46-3.46-6.3-3.99l2.11,3.61c-.02.58-4.49-.6-7.25.13,1.11.73,2.08,1.71,3.05,2.65-3.19.02-6.79.75-8.51,1.46,1.06.52,2.28.29,3.41,1.16-1.48,1-16.78,6.27-10.04,26.36l-.16.06c-1.99-1.64-4.94-3.15-7.62-2.69-1.96.51-3.15,2.21-3.55,4.08-.49,3.46,2.34,10.76,9.4,10.88,2.26-.06,3.15-2.41,3.92-4.19,2.59,8.98,7.61,12.84,9.84,14.97-7.22-13.71,1.7-21.06,2.8-22.14-4.08-3.55-8.87-9.25-7.89-15.24.71-3.8,3.78-6.52,7.32-7.81,4.45-1.64,10.15-.23,13.63,2.9.17-2.16,1.98-4.02,4.11-4.88,9.27-1.46,11.63,5.89,11.82,9.34l-.27,5.65c1.94.51,3.6,1.45,5.24,2.43.11-2.81-.75-5.67-1.62-8.44-3.03-6.84-8.5-11.42-14.59-14.47l3.28-2.82c-2.85-.12-7.56,1.05-9.14,2.15-.04-2.98-1.53-5.45-1.53-5.45l-1.47,4.29Z" fill="#8c7f4f"/><path d="M12.27,36.99c-1.99-1.64-4.94-3.15-7.62-2.69-1.96.51-3.15,2.21-3.55,4.08-.49,3.46,2.33,10.76,9.4,10.88.5-.01.93-.14,1.31-.34.53-.43,1-.89,1.4-1.39.5-.76.86-1.67,1.2-2.46,0,0,.86-5.03-2.14-8.07" fill="#efbd9b"/><path d="M61.35,24.35l.36,1.98c1.86-2.31,4.4-1.41,4.68-.42-2.47-1.25-3.71.92-3.79,1.78-.77,1.12-.52,2.74.9,4.05.85.38,2.42,2.25,3.51,1.46,1.82-.74,1.91-2.5,2.01-4.34-.15-2.03-1.5-4.8-3.5-5.47-1.51-.47-2.84.27-4.16.97" fill="#efbd9b"/><path d="M45.46,22.98c-.4.94-.18,3.58,2.37,3.09.88-.45,1.04-1.44.8-2.61-.61-2.19-2.8-1.73-3.17-.48" fill="#231f20"/><path d="M32.61,24.82c-.67,1.54-.52,2.72.85,4.07,3.05.84,2.72-1.12,2.67-2.15-.24-1.4-2.04-3.05-3.52-1.92" fill="#231f20"/><path d="M6.64,38.05c-.86,1.05-1.32,2.51-.73,3.91.17.37.31.78.73.89-.65-1.22-.46-2.79.19-3.96.72-.54,1.62-.76,2.41-.56.92.81,2.14,1.23,2.62,2.49-.58-.22-1.54.02-2.15.4-.64.88-.92,2.26.04,3.08.7.57,1.59.51,2.34.29.87-.28,1.28-1.35,1.23-2.13-.16-2.26-1.98-3.78-3.61-4.71-.9-.19-2.17-.22-3.08.3" fill="#231f20"/><path d="M10.7,41.6c-.47.28-.77,1.08-.62,1.6.14.57.72.79,1.17.81,1.07,0,1.14-1.25,1.01-1.96-.32-.38-.94-.62-1.57-.45" fill="#ae6f66"/><path d="M46.89,23.42c-.04-.39-.32-.68-.62-.65-.3.03-.52.37-.48.76.04.39.32.68.62.65.3-.03.51-.37.48-.76" fill="#fff"/><path d="M33.96,25.9c-.05-.39-.35-.67-.66-.62-.31.04-.52.39-.46.78.05.39.35.67.66.62.31-.04.52-.39.47-.78" fill="#fff"/><path d="M35.95,5.55c-2.27-2.01-4.46-3.46-6.3-3.99l2.11,3.61c-.02.58-4.49-.6-7.25.13,1.11.73,2.08,1.71,3.05,2.65-3.19.02-6.79.75-8.51,1.46.21.1.44.18.66.24,2.64-.44,4.88-.45,4.88-.45l5.18-1.18-2.04-1.8s1.49.07,3.65.64c2.16.57,1.25-2.02,1.25-2.02,0,0,.54.69,1.6,1.6,1.06.91,1.97-.04,1.97-.04,0,0-1.99,2.95-3.2,7.98,2.65.47,5.2,1.66,7.09,3.37.17-2.16,1.98-4.02,4.11-4.88,9.27-1.46,11.63,5.89,11.82,9.34l-.27,5.65c1.94.51,3.6,1.45,5.24,2.43.11-2.81-.75-5.67-1.62-8.44-3.03-6.84-8.5-11.42-14.59-14.47l3.28-2.82c-2.85-.12-7.56,1.05-9.14,2.15-.04-2.98-1.53-5.45-1.53-5.45l-1.47,4.29Z" fill="#a8975f"/><path d="M40.3,31.54c-.06.72.23,1.66,1,1.97.6.18,1.13-.25,1.34-.79.05-.72-.38-1.45-.9-1.95-.66-.33-1.22.23-1.43.77" fill="#231f20"/><path d="M40.89,31.52c-.11.51-.08,1.06.39,1.4l.59-.02c.12-.56.41-1.23-.25-1.57-.27-.11-.65-.14-.72.19" fill="#ae6f66"/><path d="M46.38,30.49c-.03.58.28,1.43.86,1.94.43.29.81-.12,1.01-.37.1-.71.08-1.54-.62-1.89-.46-.15-1.11-.29-1.24.32" fill="#231f20"/><path d="M46.97,30.47c-.31.52.06.84.32,1.24l.33.07c.51-.57.02-1.26-.65-1.31" fill="#ae6f66"/><path d="M48.34,29.41c.07-.33-.26-.68-.75-.79-.48-.1-.93.08-1,.42-.07.33.26.68.75.79.48.1.93-.08,1-.42" fill="#fff"/><path d="M12.03,36.8c-1.99-1.56-4.81-2.93-7.38-2.5-1.96.51-3.15,2.21-3.55,4.08-.39,2.76,1.33,7.98,5.64,10.03-2.82-2.46-3.93-6.41-3.61-8.69.4-1.87,1.59-3.57,3.55-4.08,1.78-.3,3.69.26,5.35,1.16" fill="#fed5b5"/><path d="M61.35,24.35l.05.28c.62-.17,1.27-.2,1.95,0,.22.08.44.17.65.27,1.19-.18,2.21.39,2.38,1-.55-.28-1.04-.39-1.47-.38,1.1.94,1.77,2.35,1.88,3.79-.07,1.25-.69,2.65-1.54,3.54,3.11,1.54,4.41-2.3,3.69-4.79-.15-2.03-1.44-4.01-3.44-4.68-1.51-.47-2.84.27-4.16.97" fill="#fed5b5"/><path d="M43.89,28.89c-1-.55-2.52-.78-3.74-.55-.94.29-1.55,1.09-1.83,1.95-.72,2.79,1.22,4.12,1.51,3.93-.9-1.07-1.32-2.72-.52-4.21.79-.95,3.83-1.95,5.42,1.15l-.37-1.69c.71-.82,1.72-1,2.72-1.08,3.06.11,2.23,3.74,2.23,3.74.25-.18,2.4-3.06-1.71-4.56-1.31-.03-2.81.14-3.69,1.31" fill="#231f20"/><path d="M60.97,43.5c-1.06.08-2.04.25-3.22.16-.07.82-.11,2.35-.68,3.37-.72,1.29-3.23,1.84-5.14,2.6-1.94,3.65-1.1,8.7,1.23,10.66.69-.15,1.7-.43,2.96-.82-1.09.92-2.15,1.53-4.71,2.3-13.49,1.35-21.45-7.34-21.34-18.42.94.12.81,1.61,4.02,2.14,2.4.4,4.01-.12,6.15-.34,6.5-.69,14.52-3.4,20.72-1.65" fill="#231f20"/><path d="M38,56.92c.39.41.87.65,1.42.76.64-.5,4.4.28,5.64-.38,1.09-.28,1.49-1.32,1.43-1.77-.77-4-8.2-2.17-8.49,1.4" fill="#ce181e"/><path d="M36.77,57.25c.91-3.74,6.24-6.03,9.23-4.13,2.2,1.4.72,4.59-1.31,5.12-1.58.42-3.85-.55-4.97.78,2.65,1.44,7.15,2.38,10.27,1.94-1.03-3.02-2.14-6.92-.63-10.7-5.45,1.14-13.36.32-17.59-2.96-.53,1.77.86,6.16,5,9.95" fill="#842c0b"/><path d="M49.97,50.1c-1.67,3.95-.59,8.1.74,10.71.67.16,1.08-.05,1.56-.15-1.83-2.06-2.97-6.96-1.33-10.8-.29.12-.69.11-.98.23" fill="#e2ad93"/><path d="M50.31,44.34c-2,.37-11.21,2.28-15.81,2.1-.53-.02-1.46-.77-1.99-.16-.45.61.58.9.91,1.11,6.56,4.29,18.15,2.63,22.93-.48.17-.89.93-2.44.46-3.27-.04,0-2.96.04-6.49.69" fill="#fff"/><path d="M50.31,44.34c3.53-.65,6.45-.7,6.49-.69.25.43.16,1.05,0,1.68-1.07.05-3.29.2-5.82.67-2,.37-11.21,2.28-15.81,2.1-.32-.01-.78-.29-1.21-.37-.18-.11-.36-.21-.53-.33-.33-.22-1.36-.51-.91-1.11.54-.62,1.46.14,1.99.16,4.6.18,13.81-1.73,15.81-2.1" fill="#c4e0e7"/><path d="M48.76,52.4c-.49,2.97.33,5.89,1.14,8.3-3.61.03-6.18-1.03-8-2.42.94.01,1.95.17,2.78-.05,2.04-.53,3.51-3.72,1.31-5.12-.2-.12-.4-.23-.62-.32h-.17c-1.41.04-2.63,0-3.66-.07-1.06.31-2.09.87-2.93,1.61-.63-1.22-.83-2.13-.83-2.13,0,0,1.32.35,3.76.52,1.02.07,2.25.11,3.66.08h.17c1.19-.04,2.33-.19,3.39-.4" fill="#af401f"/><path d="M41.51,53.52c2.12-.62,4.49-.19,4.96,1.92-1.68,1.79-5.46,1.59-5.83.02-.2-.84.26-1.48.87-1.94" fill="#ed2124"/><path d="M42.36,54.12c-.3,0,1.14-.51,1.79-.42.66.09,1.15.41,1.11.7-.04.3-.42.5-1.24.11-.6-.28-.17-.35-1.66-.39" fill="#fff" fill-rule="evenodd"/></g></svg>