<?xml version="1.0" encoding="UTF-8"?>
<svg id="b" data-name="Layer 2" xmlns="http://www.w3.org/2000/svg" xmlns:xlink="http://www.w3.org/1999/xlink" viewBox="0 0 94.31 99.95">
  <defs>
    <linearGradient id="d" x1="47.15" y1="99.95" x2="47.15" y2="0" gradientUnits="userSpaceOnUse">
      <stop offset="0" stop-color="#681eff"/>
      <stop offset="1" stop-color="#b858ff"/>
    </linearGradient>
  </defs>
  <g id="c" data-name="Layer 1">
    <g>
      <path d="M54.78,99.95c-5.45,0-10.78-.96-15.84-2.87-14.55-5.47-30.03-23.48-35.36-36.86-3.04-7.65-5.36-15.59-1.74-21.83,1.4-2.4,4.27-5.43,10.04-6.24.65-.09,1.29-.14,1.92-.14,1.81,0,3.38.36,4.75.95v-16.5c0-.39.04-.79.12-1.17,1.35-6.73,7.19-11.43,14.19-11.43,1.76,0,3.48.31,5.09.88.82-.98,1.78-1.85,2.86-2.56,2.15-1.42,4.68-2.18,7.32-2.18,3.43,0,6.89,1.3,9.49,3.56.75.65,1.39,1.34,1.93,2.05,1.44-.45,2.98-.69,4.57-.69,1.03,0,2.04.1,2.98.3,4.13.86,7.62,3.71,9.85,7.65,1.04-.25,2.11-.37,3.21-.37.35,0,.67.01.96.03,6.65.48,11.94,5.86,12.58,12.8.77,8.38,1.24,38.74-1.47,48.23-4.59,16.03-19.29,26.4-37.45,26.4Z" fill="url(#d)"/>
      <path d="M24.51,16.45c1.51-7.54,11.66-9.04,15.98-2.54.3-3.3,1.72-5.52,3.6-6.77,3.05-2.02,7.08-1.29,9.62.91,3.54,3.08,2.73,7.85,2.69,8.08.26-.78.78-1.95,1.84-3.01,2.34-2.34,5.75-2.47,7.65-2.08,4.18.87,7.61,5.65,7.71,11.73.25-.63.77-1.71,1.83-2.65,1.79-1.58,4.04-1.76,5.27-1.67,3.58.26,6.69,3.19,7.08,7.4.84,9.1,1.01,38.08-1.27,46.04-5.53,19.32-27.63,26.31-45.47,19.6-12.51-4.7-27.02-21.19-31.92-33.49-2.64-6.63-6.93-18.5,3.6-19.97,6.8-.95,8.18,6.95,11.8,10.76V16.45Z" fill="#212121"/>
    </g>
  </g>
</svg>