<?xml version="1.0" encoding="UTF-8"?><svg id="b" xmlns="http://www.w3.org/2000/svg" width="162.88" height="111.75" xmlns:xlink="http://www.w3.org/1999/xlink" viewBox="0 0 162.88 111.75"><defs><clipPath id="e"><path d="M13.5,0h135.87c7.46,0,13.5,7.44,13.5,16.62v78.51c0,9.18-6.05,16.62-13.5,16.62H13.5c-7.46,0-13.5-7.44-13.5-16.62V16.62C0,7.44,6.05,0,13.5,0Z" fill="none"/></clipPath><clipPath id="f"><rect x="-33.19" y="-26.64" width="233.56" height="147.94" transform="translate(35.01 130.2) rotate(-89.14)" fill="none"/></clipPath><clipPath id="g"><rect x="-19.62" y="-22.22" width="206.36" height="135.8" transform="translate(36.64 128.55) rotate(-89.14)" fill="none"/></clipPath><clipPath id="h"><rect x="-33.19" y="-26.64" width="233.56" height="147.94" transform="translate(35.01 130.2) rotate(-89.14)" fill="none"/></clipPath><clipPath id="i"><rect x="-20.71" y="-23.32" width="206.36" height="137.97" transform="translate(35.58 127.44) rotate(-89.14)" fill="none"/></clipPath></defs><g id="c"><g id="d"><g clip-path="url(#e)"><g clip-path="url(#f)"><path d="M112.43-28.77c1.22,9.88-3.47,19.09-4.2,29.01.22,1.31,0,2.78,1.24,3.63,4.01,2.75,9.62.49,13.79-.66,5.33-1.52,13.06-2.8,17.93,1.2,7.61,4.87,9.89,14.1,8.79,22.27-.36,3.71-1.5,7.98-4.72,10.53-7.09,4.56-10.96-1.93-11.7-4.55-1.58-5.68,1.59-15.84-6.41-18.02-8.41-.95-16.23,5.5-24.71,1.42-5.56-2.57-5.74-9.11-5.22-14.68.71-10.89,7.62-21.71,2.86-32.45-12.46-17.14-30.36-.64-33.99,8.14,5.16-.76,7.4,4.34,7.56,4.68,1.57-1.01,2.24-1,3.34-1.9-2.76-1.26-6.48-5.9-3.19-7.86,1.66-.08,3.03.43,4.27,1.33-.17-1.27-.94-3.25.5-4.21,2.57-.64,4.37,1.57,6.26,3.39.16-1.71-.71-3.94,1.07-4.95,2.34-.19,6.72,9.18,6,12.17-2.96,3.08-6.93,4.63-10.65,6.41,1.4,1.58,2.71,3.75,2.8,5.94.63-.4,1.05-1.19,1.83-1.21.7.62.35,2.82.3,3.02.63.04,1.25-.81,2.09-.63.9,1.35.16,2.97-.7,4.11,0,0,3.75-1.45-.17,3.86-3.44,3.39-7.51,6.13-12.34,5.94l-.59,3.62c.86.63,3.96,2.99,4.07,4.55v.98c-2.01,4.22-5,8.04-6.69,12.4,4.65,4.65,6.11,11.28,6.06,17.75,1.93-1.84,4.53-3.01,6.7-.97,1.96,2.26,1.54,4.92.68,7.58,1.92,1.38,4.45,2.66,6.5,3.56,0,0-.95,4.69-3.15,6.82.95,1.09,1.73,1.93,2.05,2.14.17-1.31-.24-2.83,1.13-3.35.14.1.29.34.48.35.12-1.71-.24-3.9.42-5.5.29-.14.83-.13,1.07.16.18-2.14.17-4.83,1.37-6.56.78.3,1.55.66,2.23,1.35.9-1.26,1.65-2.76,1.82-4.41-2.24-3.59-7.51.64-9.31-3.46-.62-7,6.93-5,8.52-2.9-.36-6.14-4.94-7.65-2.92-12.82.84-.91,2.21-1.04,3.43-.73,2.96.83,3.5,4.1,4.1,6.7.24.1.54-.04.59-.33.78-2.92-.89-5.62.22-8.44.94-.91,2.36-1.04,3.67-.73,4.14,2.14,2.05,9.84,2.05,9.84.29.3.73.3.98-.08,1.79-2.27,2.21-7.33,6.39-6.69,1.45.66,2.01,2.32,2.04,3.88,0,2.68-2.12,4.46-3.37,6.63,1.91-.36,4.47-2.08,6.45-.39,3.06,5.54-3.69,5.31-5.8,6.11-1.4,2.03-2.7,4.2-4.67,5.54-.55.92-.37,2.14-.88,3.06.43,4.1-.66,8.14-2.76,11.42.38.35,2.34.03,2.34.03-.39,3.26-3.21,6.05-5.39,8.36.58.3,1.81-.61,1.9.37-.81,2.14-2.73,3.08-4.41,4.62l-2.95,1.81c.18.73,1.05,1.28.55,2.15-.35.58-.98.57-1.52.66-.26.87.36,2.35-.87,2.67-1.02-.07-1.79-.71-2.56-1.45-.4.97-.62,2.57-2.04,2.55-.72-.69-.9-1.77-1.13-2.8-.88-.11-1.97,1.58-2.78.3-.13-1.12.81-1.79,1.21-2.67-1.73-1.97-7.67-12.07-7.67-12.07-1.51,9.88-11,17.64-20.3,19.7-3.33.98-9.74.28-14.15-1.34.04.92-.2,5.1-.07,5.95,3.15,1.51,6.27,2.48,8.53,5.25,0,.63-.84.72-1.28,1.05,8.22,6.41,3.77,5.81,3.03,6,6.58,6.86,2.06,5.79,2.06,5.79,1.19,1.87,3.07,3.56,2.94,5.99l-1.77.8c1.66,3.15,1.79,7.69-.64,10.53l-.02,1.66c2.1-.21,4.66-2.08,6.69-.49.81,1.18,1.92,5.67-3.71,6.58-3.23.54-5.95-3.21-8.77-.57-2.83,3.27-2.25,10.36-8.35,10.17-1.07-.21-2.13-.86-2.66-1.8-.57-1.18-.69-2.99-.08-4.2-2.03,1.97-4.94,3.98-7.99,2.91-.97-.5-1.59-1.54-1.96-2.47-.08-1.17.09-2.54,1.37-3.3-1.57.17-3.62.92-5.07-.42-.91-1.14-2.26-2.18-1.7-3.78l.75-1.01c-.87-.79-.75-2.11-.54-3.18,1.79-2.27,5.28-.99,7.72-.96,3.94.74,7.76-.18,10.72-2.62-2.06-2.23-2.66-4.92-3.05-7.8-.54.43-1.19,1.01-2.01.95-1.49-1.19-1.36-3.39-1.78-5.2l.07-4.44c-.55.58-1.13.28-1.76.22-.62-1.18-.31-2.44-.19-3.76l.98-3.74c-.39.14-1.28.66-1.86.46-.58-.74.07-1.56.37-2.24l2.75-4.16s-1.09-3.38-2.37-8.03c-4.31-.59-8.9-1.54-11.92-5.03,1.6-6.78,2.99-21.45,2.99-21.45-.74.67-1.97,1.29-3.14,1.37-3.07-.14-5.47-2.76-6.75-5.37-1.76-2.76-1.01-7.89.53-9.7.95-1.5,2.95-1.71,4.46-1.35h.1c-1.81-2.61-5.01-5.25-5.22-5.53-1.05-1.77-3.06-5.37-3.72-7.33.84-.43,5.87,2.78,6.65,2.79.21.07,2.62,2.65,5.04,5.09,2.25-7.18,5.13-10.68,7.38-12.66-.19-6.09-.24-14.79-.24-20.56.6-.96,1.85-.93,2.75-1.21.09-1.02.21-2.06.36-3.13-3.71-2.41-7.55-6.27-7.99-11.57.37-.93,1.06-.77,2.26.16-3.16-9.78.93-4.75,1.67-4.47.14-7.56,2.54-2.1,3.05-1.23,1.91-1.84,4.29-2.67,6.46-3.98-2.94-.48-5.84-1.69-7.36-4.68-.98-5.15,2.09-11.62,5-13.32,2.44-.17,2.23,4.05,2.23,4.05,1.11-.9,2.37-3.36,4.06-1.93.79.67.82,1.84.98,2.66,1.2-.76,2.59-2,4.31-1.74,1.03.32,1.49,1.09,1.8,2.11-.18,3.22-2.33,5.71-3.93,8.37.94.47,1.78,1.18,2.72,1.7.78-2.45,1.78-5.89,4.9-6.29.83.08,1.71.16,2.26.98,4.16-12.09,15.66-21.03,27.01-21.65,19.31-1.97,24.22,12.53,25.23,18.85M56.54-8.53c-.11-2.93.66-5.72.76-8.36-.24.05-.43.45-.68.16-2.03,1.06-4.13,3.3-3.98,5.93.76,1.59,2.48,1.85,3.9,2.26M70.48-13.88c-1.61-2.36-4.62-1.71-6.6-3.23-.86,3.19-1.92,6.43-2.05,9.75,2.88.04,6.65.55,8.39-2.51.61-1.13.68-2.75.26-4.01" fill="#231f20"/><path d="M26.41,47.32l10.72,10.7c1.12.11,2.2-.5,2.84-.98-1.32,1.91-3.93,8.38-3.71,13.26-3.81-2.93-4.37-7.67-6.07-11.55,0,0-1.5,2.32-3.06,2.3-3.08.29-5.52-3.08-6.28-4.53-2.71-4.98-.21-12.4,5.55-9.19" fill="#8c804f"/><path d="M26.41,47.32l2.03,2.02c1.28,2.04,2.03,4.68,1.99,7.56-.01.68-.06,1.36-.16,2.01l-.07-.17s-1.5,2.32-3.06,2.3c-3.08.29-5.52-3.08-6.28-4.53-2.71-4.98-.21-12.4,5.55-9.19" fill="#fdd5b5"/><path d="M26.79,47.7l1.64,1.64c1.22,1.95,1.96,4.45,1.99,7.17-.72,1.86-2.09,3.1-3.65,3.08-2.26-.03-4.05-2.73-4-6.01s1.83-5.8,4.03-5.89" fill="#efbd9b"/><path d="M58.03,36.57c1.39-1.69,3.12-2.93,5.21-2.95,3.46,0,6.6,2.44,8.11,5.49,1.18,2.75,1.47,5.92,1.38,9.14,5.82,5.55,9.96,12.39,8.47,20.76.06,10.36-19.49,26.5-36.94,13.94-5.06-4.27-7.84-10.9-6.43-16.92.96-7.21,6.05-13.37,6.05-13.37-3.3-4.1-4.39-9.67-2.37-14.67,6.87-12.29,16.51-1.41,16.51-1.41" fill="#efbd9b"/><path d="M58.03,36.57c1.39-1.69,3.12-2.93,5.21-2.95,3.46,0,6.6,2.44,8.11,5.49,1.18,2.75,1.47,5.92,1.38,9.14,5.82,5.55,9.96,12.39,8.47,20.76.05,8.48-13.03,20.83-27.35,18.15,32.41-5.62,7.83-32.74,1.63-40.05-2.97-3.49-1.55-7.82,1.25-11.78.82.7,1.29,1.24,1.29,1.24" fill="#fdd5b5"/><path d="M56.63,22.6c4.1-7.59,3.19-1.32,3.17-.05,7.99-3.44,3.51.05,3.01.73,9.97.39,2.65,2.38,2.65,2.38,5.22,2.91,11.56,7.58,11.83,22.02-.55.72-.94,2.16-1.15,3.08-.13-.21-2.01-2.3-2.82-2.59.32-4.83-.4-10.81-5.06-13.78-6.46-3.69-9.67,1.12-10.41,1.26-7.04-7.45-15.72-3.88-17.77,4.08-.95,4.62.05,9.37,2.98,12.92-.79.82-1.12,1.17-2.04,2.65l-.32-1.18c-4.13-4.5-7.68-8.02-11.87-12.13,2.62-14.94,15.34-17.53,15.34-17.92,0,0-6.83-4.4,4.35-.52-5.61-6.26,1.79-2.17,3.53-1.36-3.48-9.58,3.39-1.56,4.58.41" fill="#a8975f"/><path d="M108.41,27.61c.7,2.11.57,4.54-.1,6.68l-3.75-.2c.91-2.47-.61-4.98.12-7.71,1.33-1.2,3.23-.39,3.74,1.23" fill="#fdd5b5"/><path d="M117.64,30.34c.59,2.98-1.64,5.14-3.28,7.17-.21.73-.22,1.8.65,2.16,2.24.23,3.69-1.94,6.02-1.08.68.5.81,1.43.55,2.2-1.2,2.03-3.64,1.85-5.69,2.26-1.39,1.49-2.39,3.38-3.78,4.97l-3.7,3.02c.15-.34.59-.63.16-.92-.39-.3-.94.86-1.17-.02-.34-.44.21-1.27-.47-1.57-1.13.37-2.16,1.09-3.2,1.71-.14-.68.17-1.66-.41-2.1l-2.02,1.39c-1.04-1.97-2.76-4.48-5.35-4.42-1.6-.56-4.06.67-5.11-1.1-.27-1.27,1.41-6.23,8.11-1.17.85-1.45.39-3.24-.16-5.15-.84-2.84-3.62-5.76-2.02-8.71.54-.53,1.66-.41,2.25-.06,1.98,1.3,2.19,3.74,2.94,5.75l-.94.91s7.99-1.88,12.02,2.18c-.14-.88-1.1-1.68-1.92-2.22,2.22-2.02,1.6-5.83,4.88-6.76.88.01,1.35.9,1.64,1.58" fill="#fdd5b5"/><path d="M18.4,34.56c.09.34-.35.43-.35.73l-.57-.84.92.11Z" fill="#808285"/><path d="M21.55,36.37c-1.14.89-1.2,2.03-1.69,2.32l-1.47-2.71c.15-.34.11-.83.6-.92.88.31,1.8.61,2.57,1.31" fill="#ffd65a"/><path d="M38.94,53.94c-.1.24-.34.09-.49.14-6.12-5.31-11.01-10.8-16.48-16.78l.47-.61c4.76,4.9,14.53,15.18,16.5,17.26" fill="#fbab18"/><path d="M21.62,37.78c5.28,5.69,10.51,11.33,16.48,16.54.04.34-.35.58-.6.67-5.3-4.37-16.54-16.55-16.54-16.44l.65-.77Z" fill="#f4cc7c"/><path d="M37.06,56.16c-5.78-5.16-11.49-11.25-16.73-16.64l.2-.58,16.63,16.54-.11.68Z" fill="#cf8e13"/><path d="M109.02,42.35c.65,2.21-1.52,4.12-2.76,5.47,1.05-1.98,2.93-3.47,2.04-5.73l-.42-1.03c.84-.43.87.84,1.15,1.28" fill="#231f20"/><path d="M84.59,47.75c.97,3.82-1.08,7.16-3.47,10l-1.71-2.95c.69-.38,2.18-1.7,1.03-3.6-.38-.35-.92-.65-1.41-.36-.03-.93.9-1.55,1.55-2.22.29.05,1.57-.45,1.48,2.36.98-4.09-1.37-3.14-2.06-2.61-1.23,1.1-2.04,2.46-2.3,3.96-1.64-.9-.55-2.69-.04-3.76,3.82-5.74,6.67-2,6.94-.82" fill="#fdd5b5"/><path d="M85.98,72.35c-.04-.14-.09-.31-.15-.49-.44-2.1.46-3.66,1.45-5.44.8-.45,1.43-.4,1.95-.1l.07-.16c1.26,1.65,2.34,3.11,2.92,3.45-1.62-9.29,1.09-4.52,1.09-4.52-.9-10.8,1.07-6.13,1.65-6.07.36-1.21-.16-2.68.06-4.1.73-5.94,2.81,1.11,3.3-1.95l1.66-3.58,1.05,1.28,1.78-1.73c.48.64-.13,2.29.89,2.36.79-.87,1.49-1.59,2.61-1.81.33.59-1.11,2.32.55,2.35.05-.29.91-.73,1.11-1.01-.43.94-.05,1.71-.05,1.71.78-.21,1.62-.32,1.62-.46.13,1.12-.81,2.18-1.22,3.3.44.06,1.07-.03,1.42-.56.03,4.25-1.73,8.02-4.27,11.26.53.69,3.28-.63,3.28-.63-.77,2.77-3.64,5.46-5.82,7.52-.3.53,1.94.96,1.94.96-1.84,2.07-4.4,4.03-6.95,5.07.04.83,1.83,1.59.65,2.35l-1.02-.02c-.26,1.02-.08,1.66-.28,2.58-1.37.13-1.09-2.21-2.66-1.45-.6.67-.9,1.45-1.35,2.17-.32-1.03-.35-2.39-.98-3.04l-1.92,1.05c.11-.92,1.44-1.59.62-2.58-1.86-2.52-3.68-5.03-5.01-7.69" fill="#8c804f"/><path d="M80.19,52.22c.13.78-.22,1.31-.61,1.89l-.49.24c-.52-.88-1.05-1.72-.3-2.59.4-.77,1.32-.08,1.41.46" fill="#e2ad93"/><path d="M28.4,54.27c.38.98.6,2.16.29,3.27-.45.92-1.42.27-2,.12-.87-2.05.72-2.48,1.21-2.47-3.33-7.48-3.84-.98-3.84-.98-.67-.89-.21-2.15.19-3.02,1.86-1.18,3.83,1.81,4.15,3.09" fill="#231f20"/><path d="M39.75,55.12c-.21.87-1.15,1.84-2.03,1.97-.52-.98.51-1.6.96-2.33.44-.09.93-.18,1.07.36" fill="#ffe993"/><path d="M39.16,55.51c.14.44-.35.63-.6.77-.15,0-.29.04-.34-.1.05-.34.45-.92.94-.67" fill="#231f20"/><path d="M28.27,56.61c.04.39-.11.68-.4.92-.29-.15-.83-.11-.92-.6-.09-.59.41-1.02.85-1.26.59-.04.33.59.47.93" fill="#e2ad93"/><path d="M61.93,42.55c.6-1.29,2.03-1.89,3.21-1.34,1.18.55,1.65,2.03,1.06,3.32-.6,1.28-2.03,1.88-3.21,1.34-1.18-.55-1.65-2.03-1.06-3.32" fill="#efbd9b"/><path d="M56.68,43.52c-.24-1.48-1.66-2.48-3.17-2.24-1.51.24-2.54,1.64-2.3,3.12.24,1.48,1.66,2.48,3.17,2.24,1.51-.24,2.54-1.64,2.3-3.12" fill="#efbd9b"/><path d="M62.96,42.33c-.48.84-.58,3.36,1.88,3.18.87-.32,1.14-1.24,1.05-2.37-.33-2.13-2.45-1.95-2.93-.81" fill="#231f20"/><path d="M52.91,41.53c-1.05.54-1.16,3.11-.15,3.95,2.62,1.47,2.77-.41,2.95-1.37.1-1.35-1.19-3.28-2.81-2.57" fill="#231f20"/><path d="M64.25,42.85c.12-.35.44-.56.71-.47.27.09.4.46.28.81-.12.35-.44.56-.71.47-.27-.09-.4-.46-.28-.81" fill="#fff"/><path d="M54.76,43.5c.15-.34.05-.71-.22-.83-.27-.12-.62.06-.76.4-.15.34-.05.71.22.84.27.12.62-.06.77-.4" fill="#fff"/><path d="M66.01,51.46c.5-1.25-.18-2.71-1.52-3.25-1.21-.49-2.55-.06-3.17.95-.35-.53-.89-.98-1.55-1.24-1.61-.65-3.38,0-3.97,1.46-.58,1.45.25,3.15,1.86,3.8.98.4,2.03.3,2.83-.16,1.01-1.22,1.71-.44,2.17-.26,1.34.54,2.84-.04,3.34-1.3" fill="#e2ad93"/><path d="M57.67,49.14c-.17.66-.05,1.59.61,2,.53.26,1.09-.05,1.38-.52.17-.66-.12-1.41-.53-1.97-.57-.42-1.18.02-1.47.49" fill="#231f20"/><path d="M58.22,49.22c-.19.46-.25.98.13,1.37l.56.08c.2-.51.58-1.08.02-1.51-.24-.14-.59-.24-.71.06" fill="#ae6f66"/><path d="M63.52,49.15c-.12.54.03,1.38.49,1.95.35.34.77.02,1-.19.21-.65.33-1.43-.28-1.87-.4-.21-.99-.45-1.21.1" fill="#231f20"/><path d="M64.08,49.22c-.37.44-.08.8.1,1.21l.29.12c.57-.45.23-1.18-.39-1.33" fill="#ae6f66"/><path d="M61.46,47.24c-.85-.68-2.23-1.14-3.41-1.12-.93.12-1.62.77-2.03,1.53-1.12,2.49.48,4.05.77,3.92-.66-1.14-.8-2.76.2-4.02.89-.76,3.9-1.2,4.88,1.96l-.08-1.64c.8-.66,1.78-.66,2.72-.57,2.84.6,1.48,3.86,1.48,3.86.27-.12,2.74-2.47-.86-4.55-1.22-.25-2.65-.33-3.67.63" fill="#231f20"/><path d="M64.12,48.09c.05-.22.39-.33.76-.25.37.08.64.32.6.54-.05.22-.39.33-.76.25s-.64-.32-.59-.53" fill="#fff"/><path d="M49.4,59.02c.71.89-.39,1.5-.83,1.3-.24-.3-.57-.2-.91-.3-2.02,4.36-2.12,8.69.94,12.89,3.92,5.13,16.83,4.64,21.41-.56-2.48,5.32-7.27,6.47-8.63,6.73-.65,2.24-4.17,3.04-4.17,3.04,1.18-1.19,1.24-1.77,1.35-2.94-5.13.46-9.16-.33-12.51-4.67-3.74-4.2-3.18-10.49-1.3-15.19-1.36-.07-1.75-.49-2.88.17.11-.73.89-1.01,1.44-1.39,1.82-1,4.84-1,6.08.92" fill="#e2ad93"/><path d="M49.4,59.02c-.35.73-.98.18-1.41-.02-.24-.3-.58-.35-.92-.45-2.02,4.36-2.67,10.24.39,14.43,3.92,5.13,16.55,6.06,21.13.86-1.54,2.99-5.04,3.9-6.4,4.16-.65,2.24-3.17,3.16-3.17,3.16.4-1.02,1.59-1.73,1.7-2.9-5.13.46-10.78-.06-14.13-4.4-3.74-4.2-2.57-10.77-.7-15.47-1.37-.07-2.88.44-4.02,1.11.11-.73.89-1.01,1.44-1.39,1.82-1,4.84-1,6.08.92" fill="#231f20"/><path d="M80.32,56.35l-.91-1.56c.69-.38,2.18-1.7,1.03-3.6-.38-.35-.92-.65-1.41-.36-.03-.93.9-1.55,1.55-2.22.29.05,1.57-.45,1.48,2.36.08-.34.14-.64.18-.92-.33-.92-.87-1.65-1.55-2.07-.28.1-.53.24-.69.37-1.23,1.1-2.04,2.46-2.3,3.96-1.64-.9-.55-2.69-.04-3.76.12-.18.24-.35.36-.52.43-.29.91-.44,1.42-.44.45,0,.87.14,1.25.38.67.42,1.22,1.15,1.55,2.07.22.62.35,1.33.33,2.08-.03,1.98-.97,3.64-2.25,4.21" fill="#efbd9b"/><path d="M46.95,93.97c2.62,1.01,6,2.23,8.16,4.26-.3.87-.76.56-1.77,1.14,9.52,6.51,3.78,4.98,3.18,5.75,1.24,1.58,2.98,3.02,3.93,4.89-.49.53-1.61-.17-2.15.55,1.53,1.93,3.65,3.66,3.81,6.15-.59.43-1.56-.02-2.01.75,1.52,2.56,2.35,5.84.89,8.7-1.04,1.11-1.41,2.71-1.09,4.33-.3-.46-1.74-1.39-2.31-2.38-.69.33-.66,1.7-1.2,2.32-.92-.36-.95-1.67-1.87-2.13-.49.38-.6,1.16-.95,1.74-.28-.64-.27-1.62-.8-2.26l-2.12,1.24c-.24-.44.21-1.12.51-1.6-.72-.84-1.52.61-2.5.55.59-.62.85-1.55.77-2.33-3.08-2.83-4.05-6.6-3.94-10.5-1.31-.46-1.63,1.58-2.85,1.71-1.22-3.14-.87-6.79-.53-10.3-1.16-.85-1.53.9-2.51,1.23-.25-2.69.62-5.45,1.68-7.93-.68-.26-1.46-.12-2.01.31.32-1.6,1.66-3.1,2.75-4.5-.09-.63-.61-2.81-1.28-5.54.19-.41.38-.85.49-1.22.26-1.02,1.36-.94,2.34-1.12,1.18-.24,2.2.51,3.04,1.27.18,2.24.34,4.89.34,4.89" fill="#a8975f"/><path d="M111.05-29.33c1.28,10.61-3.37,19.58-4.09,29.5-.51,11.23,14.13,4.11,20.31,3.2,3.35-.7,7.2-1.07,10.4.52,7.86,2.82,11.06,11.34,11.41,19.09-.39,4.89-.78,12.02-6.49,14.37-1.79.62-3.28-.37-4.85-.83-7.06-6.54.84-19.04-9.68-22.88-9.1-1.43-18.17,6.27-26.58.43-5.34-5.75-2.35-14.93-1.36-21.73,2.74-9.32,6.29-22.18-3.42-29.45-17.4-8.97-29.91,8.92-33.37,17.16-1.21,5.34-2.96,10.65-2.6,16.44.65-1.43.74-2.01,1.01-3.04,3.04.77,6.79.55,9.09-1.84,1.39-1.2,1.35-3.35,1.07-4.95.73-.06,1.06,1.69,1.88,1.04l.46-1.42c.79.42.77,1.99,1.89,1.86.29-.4.37-.84.71-1.18.93.27,1.5,1.87,2.55.73l.7-1.38c1.7,1.82,2.76,3.91,3.23,7.68.63-.35,4.09-4.61,1.15,1.46,5.88-3.55,1.55,1.92.65,3.4,8.18-3.8-4.22,8.21-10.98,7.1-.22.6-.76,3.61-1.43,7.65-.7.86-1.62,1.51-2.93,1.76-3.08.34-5.23-1.22-8.1-1.76-4.75-1.63-10.55-.72-15.1-2.69-6.21-.6-7.71-4.31-8.04-5.49.19-1.64.38-2.58.38-2.58-5.29-3.46-10.79-13.44-5.43-9.89-3.19-9.6.27-3.57,1.1-3.63-.23-8.25,2.17-1.46,2.45-1.71,2.13-3.36,6.03-3.39,8.52-5.88-.14.3-.13.73.26.92.78.13,1.91.25,2.58-.3l-.71,1.19c2.06-.29,4.47-.92,4.47-.92-.38.59-.71,1.18-1.04,1.78,0,0,2.38-.63,3.5-.75-1.82,1.45-3.83,3.39-3.29,6.02,1.21,1.88,3.13,2.86,5.14,3.17.36,1.07.05,2.39.51,3.4.95-1.29.33-3.23.64-4.7.16-9.32,3.13-19.04,8.93-26.86,7.14-8.63,18.23-13.33,29.15-10.92,0,0,12.42,1.87,15.36,16.91" fill="#a8975f"/><path d="M57.05,34.85c-6.88-6.38-15-2.79-16.97,4.87-.95,4.62.06,9.37,2.98,12.92-.79.82-1.12,1.17-2.04,2.65l-.32-1.18c-4.13-4.5-7.68-8.02-11.87-12.13,2.62-14.94,15.33-17.53,15.34-17.92,0,0-1.83-1.18-2.05-1.78,3.02.35,8.68,2.37,8.68,2.37l-.99-1.94c-.99-1.94,4.01,1.53,4.01,1.53,0,0,0-.34-.19-2.68-.19-2.34,3.54,3.3,3.54,3.3,0,0,.24-.79.94-2.59.71-1.8.99,2.16.99,2.16l1.55-.2s.95,4.62-3.61,10.61" fill="#8c804f"/><path d="M21.55,36.37c-1.14.89-1.2,2.03-1.69,2.32l-1.47-2.71c.15-.34.11-.83.6-.92.88.31,1.8.61,2.57,1.31" fill="#ffd65a"/><path d="M20.31,38.04l-1.9-2.14c.1-.29.11-.66.43-.8l2.25,1.69c-.39.44-.6.89-.78,1.25" fill="#ffe993"/><path d="M145.75,35.05c-.82.97-1.85,1.77-3.17,2.32-1.79.62-3.28-.37-4.85-.83-7.06-6.54.84-19.04-9.68-22.88-9.1-1.43-18.17,6.27-26.58.43-5.34-5.75-2.35-14.93-1.36-21.73,2.74-9.32,6.29-22.18-3.42-29.45-3.97-2.05-7.68-2.69-11.09-2.38,3.84-.93,8.44-.89,13.48,1.38,13.78,6.2,3.5,29.74,1.7,40.9-1.8,11.17,11.26,9.52,15.21,8.74,3.95-.78,12.9-2.07,17.02.25,4.12,2.32,4.13,15.24,5.47,20.62.74,2.96,4.25,3.1,7.26,2.62" fill="#8c804f"/><path d="M38.54,5.43c.19-1.64.38-2.58.38-2.58-5.29-3.46-10.79-13.44-5.43-9.89-3.19-9.6.27-3.57,1.1-3.63-.23-8.25,2.17-1.46,2.45-1.71,2.13-3.36,6.03-3.39,8.52-5.88-.14.3-.13.73.26.92.78.13,1.91.25,2.58-.3l-.71,1.19c1.16-.17,2.44-.44,3.32-.64-2.13,1.22-4.56,3.04-4.59,5.01-.05,3.52,4.44,5.43,6.11,5.87,1.39.37,3.48.6,4.14.67.02.62.05,1.24.29,1.78.95-1.29.33-3.23.64-4.7.16-9.32,3.13-19.04,8.93-26.86,4.72-5.7,11.16-9.69,18.13-11.04-9.43,3.51-22.5,12.18-25.15,33.42-.49,3.93-.92,19.11-.32,21.38.31,1.17.56,3.02.83,4.71-4.4-1-9.41-.48-13.45-2.22-6.21-.6-7.71-4.31-8.04-5.49" fill="#8c804f"/><path d="M56.39,130.44c-.92-.35-.95-1.67-1.87-2.13-.49.38-.6,1.16-.95,1.74-.28-.64-.27-1.62-.8-2.26l-2.12,1.24c-.24-.44.21-1.12.51-1.6-.72-.84-1.52.61-2.5.55.59-.62.85-1.55.77-2.33-3.08-2.82-4.05-6.6-3.94-10.5-1.31-.46-1.63,1.58-2.85,1.71-1.22-3.14-.87-6.79-.53-10.3-1.16-.85-1.53.9-2.51,1.23-.25-2.69.62-5.45,1.68-7.93-.68-.26-1.46-.12-2.01.31.32-1.6,1.66-3.1,2.75-4.5-.09-.63-.61-2.81-1.28-5.54.19-.41.38-.85.49-1.22.26-1.02,1.36-.94,2.34-1.12.45-.09.88-.04,1.28.11-1,.04-1.82.66-1.12,2.97,1.42,4.64-.8,6.41.38,6.35,1.18-.06-2.26,4.9-1.64,5.22.62.32,2.04-.59,2.04-.59,0,0-1.58,11.4,0,10.72,1.58-.68,2.3-1.69,2.3-1.69,0,0,1.11,10.04,3.83,11.33,2.72,1.29,1.42,4.72,1.42,4.72l1.1-.53.52,1.96,1.04-1.78s.68,1.93,1.67,3.85" fill="#8c804f"/><path d="M105.45,49.79c.26-.14.55-.24.88-.31.33.59-1.11,2.32.55,2.35.05-.29.91-.73,1.11-1.02-.43.94-.05,1.71-.05,1.71.78-.21,1.62-.32,1.62-.46.13,1.12-.81,2.18-1.22,3.3.44.06,1.07-.03,1.42-.56.03,4.25-1.73,8.02-4.27,11.26.53.69,3.28-.63,3.28-.63-.77,2.77-3.64,5.46-5.82,7.52-.3.53,1.94.96,1.94.96-1.84,2.07-4.4,4.03-6.95,5.07.03.83,1.83,1.59.65,2.35l-1.02-.02c-.26,1.02-.07,1.66-.28,2.58-1.37.13-1.09-2.21-2.66-1.45-.6.67-.9,1.45-1.35,2.17-.33-1.03-.36-2.39-.98-3.04l-1.92,1.04c.11-.92,1.44-1.59.62-2.58l-.26-.35c1.32-.43,1.14,1.67,2.43,1.55.21-.92.02-1.56.28-2.58l1.02.02c4.14,1.18-.61-1.52-.65-2.35,2.55-1.03,5.12-3,6.95-5.07,0,0-2.24-.42-1.94-.96,2.18-2.07,5.05-4.75,5.82-7.52,0,0-2.75,1.32-3.28.63,2.54-3.23,4.3-7.01,4.26-11.25-.35.53-.98.62-1.42.57.36-.99,1.14-1.93,1.22-2.92" fill="#a8975f"/><path d="M110.25,49.52l-1.85,1.5c.15-.34.59-.63.16-.93-.39-.3-.94.86-1.17-.02-.34-.44.21-1.27-.47-1.57-1.13.37-2.16,1.09-3.2,1.71-.14-.69.17-1.66-.41-2.11l-2.02,1.39c-1.04-1.97-2.76-4.48-5.35-4.42-1.6-.56-4.06.67-5.11-1.1-.27-1.27,1.41-6.23,8.11-1.17.85-1.45.39-3.24-.16-5.15-.84-2.84-3.62-5.76-2.02-8.71.54-.53,1.66-.42,2.25-.06,1.98,1.3,2.19,3.74,2.94,5.75l-.94.91s7.99-1.88,12.02,2.18l-.03-.13.27.28s-10.71-1.88-9.36,4.73c.92,4.51,3.14,6.34,6.32,6.91" fill="#efbd9b"/><path d="M111.8,36.01c-.23-.18-.46-.35-.68-.5,2.22-2.02,1.6-5.83,4.88-6.76.34,0,.63.15.86.36-.54.34-1.16.87-1.67,1.68-1.11,1.78-2.59,4.47-3.05,4.91-.15.15-.26.25-.34.31" fill="#efbd9b"/><path d="M108.56,33.35c-.07.32-.16.63-.25.94l-3.75-.2c.91-2.48-.61-4.98.12-7.71.4-.36.85-.54,1.3-.57-.54,2.6.84,5.01-.04,7.39l2.64.14Z" fill="#efbd9b"/><path d="M38.54,5.43c.19-1.64.38-2.58.38-2.58-4.89-3.2-9.96-11.96-6.47-10.47-.9,1.1,3.6,7.04,7.73,9.75,0,0-.42,2.02-.7,5.26-.57-.8-.83-1.54-.95-1.96" fill="#a8975f"/><path d="M29.58,42.72l-.75-.74c2.62-14.94,15.33-17.53,15.34-17.92,0,0-1.83-1.18-2.05-1.78.34.04.72.1,1.13.18.43.63,2.73,2.15,2.73,2.15,0,.39-13.49,2.44-16.11,17.38-.11.25-.21.49-.29.72" fill="#a8975f"/><path d="M36.26,69.04c-.02.42-.02.84,0,1.25-3.81-2.94-4.37-7.68-6.07-11.55l.36-1.76s2.21,6.88,5.71,12.07" fill="#a8975f"/><path d="M37.83,7.44c-.35.43.05,1.01-.49.86-3.06-.91.49-1.2.49-.86" fill="#acc6cb"/><path d="M45.82,12.52c9.1,1.66,12.75-.74,23.67,5.43,1.94.76,4.52,1.04,6.43.78-.36.92-.72,2.14-1.98,2.07-4.44-.07-7.41-3.47-11.55-4.27-6.84-2.69-11.88-.43-21.03-2.9-2.03-1.05-4.56-1.97-5.69-4.18v-.93c5.36,3.54,7.19,3.85,10.15,4.01" fill="#fff"/><path d="M63.55,17.61c3.54,1.47,6.96,4.2,10.97,3.68-1.4,2.03-2.28,5.62-5.59,5.18l-1.31-.6c.93-.13,1.91-.85,2.17-1.87-1.35-1.14-3.44-1.22-4.91-1.34.69-.53,1.14-1.2.96-2.08-1.55-.95-3.46.04-4.79.95-.18-1.32.04-2.93-1.02-3.87-1.52.27-2.76,2.01-3.47,3.36-1.28-2.16-3.59-4.35-5.97-5.02-1.83.74.37,4.44.37,4.44-1.55-.51-3.44-1.42-5.34-1.59-1.72.51.54,2.84.54,2.84-8.96-1.9-3.69,2.14-3.69,2.14l-2.55,1.13c-1.71-.17-3.05-1.31-3.71-2.84l-.57-11.13c7.45,7.13,19.08,2.58,27.9,6.61" fill="#5d1e79"/><path d="M77.15,14.89c.09.73.37,1.47-.23,2.09-.4.38-1.13.23-1.56.08-.48-.45-1.35-.85-1.49-1.63-.13-1.03.66-1.6.87-2.48,1.12-.08,2.08,1.01,2.41,1.94" fill="#acc6cb"/><path d="M88.02,55.99c-.63,3.07-2.77,5.52-5.28,7.68-.45-2.3-1.1-5.09.84-7.01,1.24-1.2,3.06-2.05,4.45-.67" fill="#5d1e79"/><path d="M89.98,58.51c-1.27,3.39-3.81,6.77-7.15,8.77l-.1-2.93c2.91-2.2,5.05-4.66,5.97-8.01,1.12.31,2.04.91,1.29,2.16" fill="#cce2e7"/><path d="M36.2,71.64c.33,4.2,2.86,7.75,5.59,10.86-4.7,1.39-9.7-.49-13.31-3.61l1.57-10.27c.9-1.11,2,.08,2.92.39l3.23,2.63Z" fill="#6f2c91"/><path d="M42.13,82.95c.82.79,2.13,1.35,2.99,2.38-5.82,1.18-12.79.98-17.36-3.28l.47-2.24c3.81,2.98,9.05,4.92,13.9,3.14" fill="#fff"/><path d="M63.55,17.61c3.54,1.47,6.96,4.2,10.97,3.68-1.4,2.03-2.28,5.62-5.59,5.18l-1.31-.6c.93-.13,1.91-.85,2.17-1.87-1.35-1.14-3.44-1.22-4.91-1.34.69-.53,1.14-1.2.96-2.08l-.17-.1c.06-.45-.08-.86-.66-.99-1.54-.33-3.69.38-3.69.38,0,0,.03-2.29-1.04-2.77-1.08-.48-3.24,1.34-3.24,1.34l1.03-2.37c1.9.28,3.75.74,5.48,1.54" fill="#6f2c91"/><path d="M88.02,55.99c-.2.98-.56,1.9-1.03,2.77l-3.45-2.07c1.27-1.23,3.08-2.08,4.48-.69" fill="#6f2c91"/><path d="M89.98,58.51c-.2.54-.44,1.09-.71,1.63l-1.71-1.03c.48-.85.86-1.77,1.13-2.76,1.12.31,2.04.91,1.29,2.16" fill="#fff"/><path d="M36.2,71.64c.33,4.2,2.86,7.75,5.59,10.86-.93.28-1.88.42-2.83.46-3.48-4.74-4-10.13-4.27-10.59-.45-.78-1.09.45-1.73,1.96-.31.74-.55,3.98-.7,7.09-1.36-.67-2.64-1.54-3.78-2.52l1.57-10.27c.9-1.11,2,.08,2.92.39l3.23,2.63Z" fill="#5d1e79"/><path d="M42.13,82.95c.82.79,2.13,1.35,2.99,2.38-1.13.23-2.31.41-3.5.51-.83-.71-1.55-1.48-2.19-2.28.9-.09,1.81-.29,2.69-.62M32.12,84.75c-1.59-.62-3.07-1.49-4.36-2.7l.47-2.24c1.21.95,2.56,1.79,4,2.44-.04.89-.08,1.74-.1,2.5" fill="#cce2e7"/><path d="M45.82,12.52c5.31.97,8.77.56,12.9,1.27-.14.55-.28,1.09-.43,1.61-5.02-.83-9.69.18-16.92-1.77-2.03-1.05-4.56-1.97-5.69-4.18v-.93c5.36,3.54,7.19,3.85,10.15,4.01" fill="#cce2e7"/><path d="M37.56,23.96c-.58-.49-1.04-1.12-1.35-1.83l-.57-11.13c.47.45.96.85,1.46,1.22.09,3.69.24,8.07.45,11.74" fill="#6f2c91"/><path d="M37.09,11.18c-.57-.48-1.06-1.05-1.42-1.74v-.93c.49.32.95.61,1.37.88l.04,1.79Z" fill="#fff"/></g><g clip-path="url(#g)"><path d="M151.84,8.3s1.07-10.2-9.04-5.5c0,0,7.41-1.86,9.04,5.5" fill="#cee3e9"/></g><g clip-path="url(#h)"><path d="M147.11.45c4.33-1.37,4.98,2.86,4.98,2.86-.24-7.34-4.98-2.86-4.98-2.86" fill="#cee3e9"/><path d="M121.8,48.28s10.23.77,5.23-9.2c0,0,2.08,7.36-5.23,9.2" fill="#cee3e9"/><path d="M129.51,43.33c1.5,4.29-2.71,5.07-2.71,5.07,7.33-.46,2.71-5.07,2.71-5.07" fill="#cee3e9"/><path d="M98.71,22.39s-9.13-4.67-8.39,6.45c0,0,.93-7.59,8.39-6.45" fill="#cee3e9"/></g><g clip-path="url(#i)"><path d="M89.68,23.97c.28-4.53,4.46-3.62,4.46-3.62-6.93-2.42-4.46,3.62-4.46,3.62" fill="#cee3e9"/></g></g></g></g></svg>