<?xml version="1.0" encoding="UTF-8"?><svg id="b" xmlns="http://www.w3.org/2000/svg" width="200.47" height="111.75" xmlns:xlink="http://www.w3.org/1999/xlink" viewBox="0 0 200.47 111.75"><defs><clipPath id="e"><rect width="200.47" height="111.75" rx="16.62" ry="16.62" fill="none"/></clipPath><clipPath id="f"><rect x="37.79" y="-27.59" width="123.57" height="195.09" fill="none"/></clipPath><clipPath id="g"><rect x="42.82" y="-17.61" width="113.43" height="172.37" fill="none"/></clipPath><clipPath id="h"><rect x="37.79" y="-27.59" width="123.57" height="195.09" fill="none"/></clipPath><clipPath id="i"><rect x="41.01" y="-17.61" width="115.24" height="172.37" fill="none"/></clipPath></defs><g id="c"><g id="d"><g clip-path="url(#e)"><g clip-path="url(#f)"><path d="M122.72,6.04c1.14,8.23-2.66,15.99-3.15,24.28.2,1.09.04,2.32,1.08,3.02,3.38,2.25,8.04.29,11.51-.73,4.44-1.34,10.88-2.5,14.99.78,6.42,3.97,8.44,11.65,7.62,18.49-.26,3.11-1.15,6.68-3.81,8.86-5.86,3.89-9.18-1.47-9.83-3.65-1.39-4.72,1.13-13.25-5.58-14.97-7.04-.69-13.49,4.79-20.62,1.49-4.68-2.08-4.91-7.53-4.54-12.19.46-9.11,6.09-18.23,1.99-27.14-10.62-14.16-25.36-.16-28.28,7.22,4.3-.7,6.24,3.53,6.37,3.81,1.3-.87,1.86-.86,2.77-1.63-2.32-1.02-5.49-4.85-2.77-6.52,1.38-.09,2.54.32,3.58,1.06-.16-1.06-.83-2.7.37-3.52,2.14-.56,3.67,1.26,5.27,2.75.11-1.43-.64-3.28.83-4.15,1.95-.19,5.73,7.59,5.16,10.09-2.44,2.61-5.73,3.95-8.82,5.48,1.19,1.3,2.31,3.1,2.41,4.93.52-.34.86-1.01,1.51-1.03.59.51.33,2.35.29,2.52.53.02,1.04-.69,1.73-.55.77,1.11.17,2.48-.53,3.44,0,0,3.11-1.26-.09,3.22-2.83,2.87-6.19,5.22-10.23,5.11l-.45,3.03c.73.51,3.35,2.45,3.45,3.75v.81c-1.61,3.55-4.06,6.78-5.42,10.44,3.95,3.82,5.24,9.35,5.28,14.75,1.59-1.56,3.75-2.57,5.58-.9,1.66,1.86,1.35,4.09.66,6.32,1.62,1.12,3.75,2.17,5.48,2.89,0,0-.73,3.93-2.55,5.73.8.9,1.47,1.59,1.74,1.76.12-1.1-.24-2.36.9-2.81.12.08.24.28.41.28.08-1.43-.25-3.26.29-4.6.24-.12.69-.12.9.12.12-1.79.08-4.03,1.06-5.5.65.24,1.3.53,1.88,1.1.73-1.06,1.34-2.32,1.47-3.71-1.92-2.97-6.27.63-7.82-2.77-.61-5.84,5.72-4.26,7.08-2.52-.38-5.13-4.22-6.33-2.6-10.67.69-.77,1.83-.9,2.85-.65,2.49.65,2.98,3.38,3.5,5.54.2.08.45-.04.49-.29.61-2.45-.81-4.69.08-7.05.78-.77,1.96-.9,3.06-.65,3.49,1.73,1.83,8.19,1.83,8.19.24.24.61.24.81-.08,1.47-1.92,1.75-6.15,5.26-5.66,1.22.53,1.71,1.92,1.75,3.22.04,2.24-1.71,3.75-2.73,5.58,1.59-.33,3.71-1.79,5.38-.41,2.62,4.59-3.01,4.48-4.77,5.17-1.14,1.71-2.2,3.54-3.83,4.69-.45.77-.29,1.79-.69,2.57.41,3.42-.45,6.8-2.16,9.57.33.29,1.96,0,1.96,0-.28,2.73-2.61,5.09-4.4,7.05.49.25,1.51-.53,1.59.29-.65,1.79-2.24,2.61-3.63,3.91l-2.44,1.55c.16.61.9,1.06.49,1.79-.29.49-.81.49-1.26.57-.2.73.33,1.96-.69,2.24-.86-.04-1.51-.57-2.16-1.18-.33.81-.49,2.16-1.67,2.16-.61-.57-.77-1.47-.98-2.32-.73-.08-1.63,1.34-2.32.29-.12-.94.65-1.51.98-2.24-1.47-1.62-6.56-9.98-6.56-9.98-1.14,8.27-8.96,14.87-16.71,16.7-2.77.86-8.13.36-11.84-.94.04.76-.1,4.26.01,4.97,2.65,1.22,5.27,2,7.19,4.28,0,.53-.69.61-1.06.9,6.95,5.25,3.22,4.81,2.61,4.97,5.58,5.64,1.79,4.81,1.79,4.81,1.02,1.55,2.61,2.93,2.53,4.97l-1.47.69c1.43,2.61,1.59,6.4-.41,8.8v1.39c1.75-.21,3.87-1.79,5.58-.49.69.98,1.68,4.71-3.01,5.54-2.69.49-5.01-2.61-7.33-.37-2.32,2.77-1.75,8.68-6.84,8.6-.9-.16-1.79-.69-2.24-1.47-.49-.98-.61-2.48-.12-3.5-1.67,1.67-4.07,3.38-6.64,2.53-.81-.41-1.34-1.26-1.67-2.04-.08-.98.04-2.12,1.1-2.77-1.31.16-3.01.81-4.24-.29-.77-.94-1.91-1.79-1.47-3.14l.61-.85c-.73-.65-.65-1.75-.49-2.65,1.47-1.92,4.4-.9,6.44-.9,3.3.57,6.48-.24,8.92-2.32-1.75-1.83-2.28-4.07-2.65-6.48-.45.37-.98.86-1.67.82-1.26-.98-1.18-2.81-1.55-4.32v-3.71c-.45.49-.94.24-1.47.2-.53-.98-.29-2.04-.2-3.14l.77-3.14c-.32.12-1.06.57-1.55.41-.49-.61.04-1.3.28-1.87l2.24-3.5s-.95-2.81-2.08-6.68c-3.61-.44-7.45-1.18-10.02-4.05,1.25-5.69,2.23-17.95,2.23-17.95-.61.57-1.63,1.1-2.61,1.18-2.57-.08-4.6-2.24-5.7-4.4-1.51-2.28-.94-6.58.33-8.11.77-1.26,2.45-1.47,3.71-1.18h.08c-1.55-2.16-4.25-4.32-4.42-4.55-.9-1.47-2.62-4.45-3.19-6.08.69-.37,4.94,2.24,5.59,2.24.17.06,2.22,2.18,4.27,4.19,1.79-6.02,4.15-8.99,6.01-10.67-.24-5.08-.38-12.35-.45-17.17.49-.81,1.53-.8,2.28-1.05.06-.85.15-1.73.26-2.62-3.13-1.97-6.38-5.14-6.82-9.57.3-.79.87-.65,1.89.11-2.76-8.13.72-3.98,1.34-3.76.02-6.31,2.1-1.78,2.53-1.07,1.58-1.56,3.55-2.28,5.34-3.41-2.46-.36-4.9-1.34-6.21-3.82-.88-4.29,1.6-9.73,4.01-11.19,2.04-.18,1.91,3.36,1.91,3.36.91-.77,1.94-2.84,3.37-1.67.67.55.71,1.52.85,2.21,1-.65,2.14-1.71,3.57-1.51.87.25,1.25.89,1.53,1.74-.11,2.69-1.87,4.79-3.18,7.04.79.38,1.5.97,2.29,1.39.62-2.06,1.42-4.94,4.01-5.32.7.06,1.43.11,1.9.79,3.33-10.15,12.82-17.76,22.29-18.42,16.11-1.89,20.39,10.16,21.3,15.43M76.29,23.64c-.13-2.44.48-4.79.53-6.99-.2.05-.35.38-.57.14-1.68.91-3.41,2.81-3.25,5.01.66,1.32,2.09,1.52,3.29,1.84M87.87,19c-1.37-1.95-3.88-1.37-5.55-2.62-.68,2.67-1.52,5.39-1.59,8.17,2.41,0,5.56.38,6.98-2.2.5-.95.53-2.3.17-3.35" fill="#231f20"/><path d="M51.82,70.66l9.09,8.8c.94.08,1.83-.45,2.36-.86-1.08,1.61-3.18,7.05-2.93,11.12-3.22-2.4-3.75-6.35-5.21-9.57,0,0-1.22,1.96-2.53,1.96-2.57.28-4.65-2.5-5.3-3.71-2.32-4.13-.33-10.36,4.52-7.74" fill="#8c804f"/><path d="M51.82,70.66l1.72,1.66c1.09,1.69,1.75,3.89,1.75,6.29,0,.57-.04,1.13-.11,1.68l-.06-.14s-1.22,1.96-2.53,1.96c-2.57.28-4.65-2.5-5.3-3.71-2.32-4.13-.33-10.36,4.52-7.74" fill="#fdd5b5"/><path d="M52.15,70.97l1.39,1.35c1.04,1.61,1.69,3.69,1.75,5.97-.58,1.56-1.71,2.62-3.01,2.62-1.89,0-3.42-2.23-3.42-4.97s1.46-4.87,3.29-4.97" fill="#efbd9b"/><path d="M78.1,61.29c1.14-1.43,2.57-2.49,4.32-2.53,2.89-.04,5.54,1.96,6.84,4.48,1.02,2.28,1.3,4.93,1.26,7.62,4.93,4.56,8.47,10.23,7.33,17.23.18,8.66-15.95,22.38-30.68,12.1-4.28-3.5-6.68-9-5.58-14.06.71-6.04,4.89-11.24,4.89-11.24-2.81-3.38-3.79-8.03-2.16-12.22,5.58-10.35,13.77-1.38,13.77-1.38" fill="#efbd9b"/><path d="M78.1,61.29c1.14-1.43,2.57-2.49,4.32-2.53,2.89-.04,5.54,1.96,6.84,4.48,1.02,2.28,1.3,4.93,1.26,7.62,4.93,4.56,8.47,10.23,7.33,17.23.15,7.08-10.62,17.56-22.61,15.5,27-5.1,6.13-27.44.86-33.47-2.52-2.88-1.4-6.51.9-9.86.69.58,1.09,1.02,1.09,1.02" fill="#fdd5b5"/><path d="M63.56,3.34c-.29-.27-.59-.59-1-.58l.67-.68c.53.1.21,1.26.33,1.25" fill="#fdd5b5"/><path d="M63.16,3.72c.14.48-.3.87-.53,1.12-.41.06-.74-.06-.99-.25-.25-.32.1-.78.33-1.11.35-.46.98-.03,1.19.24" fill="#e2ad93"/><path d="M67.86,3.88l.03.86c-.26-.44-.68-.75-1.17-.82.1-.66,1.07-.85,1.14-.04" fill="#fdd5b5"/><path d="M62.66,9.32c.21.28,2.53-3.31,2.53-3.31.67.63,1.15.37,1.88.22l.75-.8c-.1,1.8-1.07,3.3-1.21,5.14.83-1.05,2.62-4.21,2.62-4.21.5.39,1.54.9,2.23.45,1.59-1.05-.25-2.19-.25-2.19.44-.22,1.04-.44,1.54-.26,1.81,1.11-1.81,5.44-3.23,7.94,1.53.64,2.77,2.14,4.48,2.29.52-2.28,1.69-5.4,3.64-5.51.63.43,1.41.81.83,1.64-.82-.05-1.5.13-1.93.84-.09.9.54,1.53,1.05,2.04-.5.87-.11,1.27-1.34,2.32-1.39-.11-2.51.75-3.71,1.36.19-.49.62-.92.93-1.38l-.34-.31c-1.14.16-2.18.61-3.27.93l.65-1.33c-.85-.87-3.19,2.15-2.67-.56-.06-.6-1.49.46-2.22.73-1.86-.67-4.1-.71-5.31-2.63-1.59-2.31-.35-5.45.83-7.65.45.02,1.28.44,1.76.1l.67-.68c-.02,1.71-.46,3.24-.93,4.8" fill="#fdd5b5"/><path d="M67.4,4.96c.1.53-.38.71-.74.92-.53.1-1.02-.09-1.28-.45.27-.54.85-1.46,1.64-.87l.38.39Z" fill="#e2ad93"/><path d="M71.67,5.7c.14.4-.18.74-.46.87-.61.02-1.11-.17-1.49-.64.23-.37.47-.63.83-.88.41.11.9.17,1.12.65" fill="#e2ad93"/><path d="M101.64,4.82c-.36.22-.84.48-1.03.93-.06.57.32,1.05.82,1.24.49.19,1.02.09,1.37-.33,1,1.88,2.06,4,1.89,6.38-2.4,2.49-5.29,3.81-8.26,5.02-.25-.19-.71-.55-1.07-.37l-.83,1.99c-.58-.27-1.02-1.23-1.87-.91-.24.17-.27.42-.39.58-.3-.28-.73-1.12-1.42-.93l-.61,1.2c-.38-.39-1.11-1.51-1.62-.72-.53-1.04-1.69-1.82-2.73-2.27.03-2.12-1.29-2.07-2.09-1.48-.28.26-.21,1.07-.66.8-.47-.72-.46-1.57-.08-2.32.65-1.25,4.02-2.51,7.14,2.56.78.14,3.57-1.75,4.4-2.4-7.63-6.67-2.52-5.5-2.52-5.5-.15.33-.67.76-.44,1.28.39.64,1.13.82,1.77.55.4-.14.71-.68,1.17-.33,1.04.62,1.53,1.66,2.52,2.23.07-.25-3.35-5-2.38-6.28.63-.88,1.64.19,1.76.14-.43.46-1.16.69-1.13,1.51.22.4.52.88,1.01.94.86.13,1.29-.33,1.76-.96,1.27,1.22,2.06,2.99,3.36,4.12-.09-1.81-2.05-6.79-.74-7.23.33.07.74.18.87.54" fill="#fdd5b5"/><path d="M102.59,6.17c-.15.33-.68.55-1.05.32-.38-.23-.47-.51-.23-.85.55-.67,1.06,0,1.28.53" fill="#e2ad93"/><path d="M97.81,7.03c-.15.37-.39.63-.75.8-.48.14-.98-.13-1.2-.53.15-.45.42-.75.86-.93.45-.06.79.34,1.08.66" fill="#e2ad93"/><path d="M93.89,9.33c-.35.38-.96.52-1.46.34-.33-.23-.48-.88.05-.98.64-.23.95.42,1.41.64" fill="#e2ad93"/><path d="M78.22,11.22c-.07.45-.2,1.23-.55,1.77-1.6-1.5.18-1.96.55-1.77" fill="#e2ad93"/><path d="M85.53,16.35c-.48.26-.98.07-1.39-.15-.26-.36-.03-.73.38-.87,1.01-.05.97.82,1.01,1.02" fill="#e2ad93"/><path d="M76.76,49.64c3.33-6.39,2.65-1.14,2.65-.08,6.63-2.97,2.93,0,2.53.57,8.33.2,2.24,1.96,2.24,1.96,4.4,2.36,9.75,6.18,10.16,18.24-.45.61-.76,1.81-.92,2.59-.11-.17-1.71-1.9-2.39-2.13.2-4.03-.47-9.03-4.4-11.45-5.44-3-8.07,1.06-8.68,1.18-5.97-6.13-13.18-3.05-14.79,3.63-.73,3.87.16,7.82,2.65,10.76-.65.69-.92.99-1.67,2.24l-.29-.98c-3.5-3.71-6.52-6.6-10.06-9.98,2-12.51,12.59-14.83,12.59-15.16,0,0-5.76-3.59,3.63-.49-4.76-5.16,1.47-1.83,2.93-1.18-3.02-7.96,2.81-1.34,3.83.29" fill="#a8975f"/><path d="M120.06,53.18c.61,1.75.53,3.79,0,5.58l-3.14-.12c.73-2.08-.57-4.16,0-6.44,1.1-1.02,2.69-.37,3.14.98" fill="#fdd5b5"/><path d="M127.81,55.34c.53,2.49-1.3,4.32-2.65,6.03-.16.61-.16,1.51.57,1.79,1.87.16,3.06-1.67,5.01-.98.57.41.69,1.18.49,1.83-.98,1.71-3.01,1.59-4.73,1.96-1.14,1.26-1.96,2.85-3.1,4.2l-3.06,2.57c.12-.29.49-.53.12-.77-.33-.25-.77.73-.98,0-.29-.37.16-1.06-.41-1.3-.94.33-1.79.94-2.65,1.47-.12-.57.12-1.38-.37-1.75l-1.67,1.18c-.9-1.63-2.36-3.71-4.52-3.63-1.34-.45-3.38.61-4.28-.86-.25-1.06,1.1-5.22,6.76-1.08.69-1.22.29-2.71-.2-4.3-.73-2.36-3.1-4.76-1.79-7.25.45-.45,1.38-.37,1.87-.08,1.67,1.06,1.87,3.1,2.53,4.77l-.77.77s6.65-1.67,10.06,1.67c-.12-.73-.94-1.39-1.63-1.83,1.83-1.71,1.26-4.89,3.99-5.7.73,0,1.14.73,1.39,1.3" fill="#fdd5b5"/><path d="M44.98,60.11c.08.28-.28.37-.28.61l-.49-.69.77.08Z" fill="#808285"/><path d="M47.63,61.57c-.94.76-.98,1.71-1.39,1.96l-1.26-2.24c.12-.29.08-.69.49-.77.73.25,1.51.49,2.16,1.06" fill="#ffd65a"/><path d="M62.38,76.03c-.08.2-.28.08-.41.12-5.17-4.36-9.33-8.88-13.97-13.81l.38-.52c4.03,4.03,12.33,12.5,14,14.21" fill="#fbab18"/><path d="M47.71,62.75c4.48,4.68,8.92,9.33,13.97,13.61.04.29-.29.49-.49.57-4.48-3.59-14.02-13.62-14.02-13.52l.53-.65Z" fill="#f4cc7c"/><path d="M60.83,77.91c-4.89-4.24-9.74-9.25-14.18-13.69l.16-.49,14.1,13.61-.08.57Z" fill="#cf8e13"/><path d="M120.76,65.48c.57,1.83-1.22,3.46-2.24,4.6.86-1.67,2.4-2.93,1.63-4.81l-.37-.86c.69-.37.73.69.98,1.06" fill="#231f20"/><path d="M100.43,70.29c.86,3.18-.81,5.99-2.77,8.39l-1.47-2.44c.57-.33,1.8-1.45.81-3.02-.33-.29-.77-.53-1.18-.29-.04-.77.73-1.3,1.26-1.87.24.04,1.3-.4,1.26,1.96.77-3.42-1.18-2.61-1.75-2.16-1.02.94-1.67,2.08-1.87,3.34-1.38-.73-.49-2.24-.08-3.14,3.12-4.84,5.54-1.75,5.78-.77" fill="#fdd5b5"/><path d="M101.89,90.82c-.03-.12-.08-.26-.13-.41-.4-1.75.34-3.06,1.14-4.56.66-.38,1.19-.35,1.63-.11l.05-.14c1.07,1.36,1.99,2.57,2.48,2.85-1.47-7.74.86-3.79.86-3.79-.89-9.01.81-5.13,1.3-5.09.28-1.02-.16-2.24,0-3.42.53-4.97,2.36.9,2.73-1.67l1.34-3.01.9,1.06,1.47-1.47c.41.53-.08,1.92.77,1.96.65-.73,1.22-1.34,2.16-1.55.29.49-.9,1.96.49,1.96.04-.24.75-.62.91-.86-.35.79-.02,1.43-.02,1.43.65-.18,1.34-.29,1.34-.41.12.94-.65,1.83-.98,2.77.37.04.9-.04,1.18-.49.08,3.55-1.34,6.72-3.42,9.45.45.57,2.73-.57,2.73-.57-.61,2.32-2.97,4.6-4.77,6.35-.24.45,1.63.77,1.63.77-1.51,1.75-3.63,3.42-5.74,4.32.04.69,1.55,1.3.57,1.96h-.85c-.2.86-.04,1.38-.2,2.16-1.14.12-.94-1.83-2.24-1.18-.49.57-.73,1.22-1.1,1.83-.28-.86-.33-2-.86-2.53l-1.59.9c.08-.77,1.18-1.34.49-2.16-1.59-2.08-3.14-4.16-4.28-6.36" fill="#8c804f"/><path d="M96.8,74.08c.12.65-.16,1.1-.49,1.59l-.41.2c-.45-.73-.9-1.42-.29-2.16.33-.65,1.1-.08,1.18.37" fill="#e2ad93"/><path d="M53.58,76.44c.33.81.53,1.79.29,2.73-.37.77-1.18.24-1.67.12-.75-1.7.57-2.08.98-2.08-2.88-6.2-3.22-.77-3.22-.77-.57-.73-.2-1.79.12-2.53,1.54-1.01,3.22,1.47,3.5,2.53" fill="#231f20"/><path d="M63.07,77.01c-.16.73-.94,1.55-1.67,1.67-.45-.81.41-1.34.77-1.96.37-.08.77-.16.9.29" fill="#ffe993"/><path d="M62.58,77.34c.12.37-.29.53-.49.65-.12,0-.25.04-.29-.08.04-.29.37-.77.77-.57" fill="#231f20"/><path d="M53.49,78.4c.04.33-.08.57-.33.77-.24-.12-.69-.08-.77-.49-.08-.49.33-.86.69-1.06.49-.04.29.49.41.77" fill="#e2ad93"/><path d="M81.44,66.23c.48-1.08,1.68-1.6,2.67-1.16.99.44,1.41,1.68.92,2.76-.48,1.08-1.67,1.6-2.67,1.16-.99-.44-1.41-1.68-.92-2.76" fill="#efbd9b"/><path d="M77.06,67.11c-.22-1.23-1.41-2.05-2.67-1.83-1.26.22-2.1,1.4-1.88,2.63.22,1.23,1.41,2.05,2.67,1.83,1.26-.22,2.1-1.4,1.88-2.63" fill="#efbd9b"/><path d="M82.29,66.04c-.39.71-.44,2.81,1.61,2.63.73-.28.94-1.05.85-1.99-.3-1.78-2.07-1.6-2.46-.64" fill="#231f20"/><path d="M73.88,65.5c-.87.46-.93,2.61-.07,3.3,2.21,1.19,2.3-.38,2.45-1.18.07-1.13-1.03-2.72-2.38-2.11" fill="#231f20"/><path d="M83.37,66.46c.1-.29.36-.47.59-.4.23.07.34.38.24.67-.1.3-.36.47-.59.4-.23-.08-.34-.38-.24-.67" fill="#fff"/><path d="M75.45,67.12c.12-.29.03-.6-.2-.69-.23-.1-.51.05-.63.34-.12.29-.03.6.19.7.23.1.51-.06.64-.34" fill="#fff"/><path d="M84.95,73.63c.4-1.05-.18-2.26-1.31-2.69-1.02-.39-2.13-.02-2.63.83-.3-.44-.75-.8-1.31-1.02-1.35-.52-2.83.05-3.29,1.27-.47,1.22.25,2.63,1.6,3.15.83.32,1.7.23,2.36-.17.83-1.03,1.43-.39,1.81-.24,1.13.43,2.37-.07,2.77-1.13" fill="#e2ad93"/><path d="M77.95,71.79c-.13.56-.02,1.33.54,1.67.45.21.91-.05,1.15-.45.13-.56-.11-1.18-.47-1.64-.48-.34-.98.03-1.22.43" fill="#231f20"/><path d="M78.42,71.85c-.15.39-.19.82.13,1.14l.47.06c.16-.42.47-.91,0-1.26-.2-.12-.49-.19-.59.06" fill="#ae6f66"/><path d="M82.85,71.73c-.09.45.05,1.15.43,1.63.3.28.65,0,.84-.17.17-.54.26-1.2-.26-1.56-.34-.17-.83-.36-1.01.1" fill="#231f20"/><path d="M83.31,71.78c-.3.37-.05.67.1,1.01l.25.09c.47-.39.18-.99-.35-1.11" fill="#ae6f66"/><path d="M81.1,70.16c-.72-.56-1.88-.92-2.86-.9-.77.11-1.35.66-1.68,1.3-.91,2.1.45,3.38.69,3.27-.57-.95-.7-2.3.11-3.36.74-.65,3.24-1.05,4.1,1.57l-.08-1.37c.66-.56,1.48-.57,2.27-.51,2.38.46,1.28,3.21,1.28,3.21.22-.11,2.26-2.1-.78-3.79-1.02-.19-2.22-.24-3.06.57" fill="#231f20"/><path d="M83.33,70.83c.04-.18.32-.28.63-.22.31.06.54.26.5.44-.04.18-.32.28-.63.22s-.54-.26-.5-.44" fill="#fff"/><path d="M71.17,80.15c.6.73-.31,1.26-.67,1.1-.2-.24-.48-.16-.76-.24-1.63,3.67-1.66,7.29.95,10.75,3.34,4.24,14.12,3.66,17.88-.73-2.01,4.48-6,5.5-7.13,5.73-.52,1.88-3.44,2.59-3.44,2.59.97-1.01,1.01-1.49,1.09-2.47-4.28.45-7.66-.16-10.51-3.75-3.18-3.46-2.78-8.72-1.28-12.67-1.14-.04-1.47-.39-2.4.18.08-.61.73-.86,1.18-1.18,1.51-.86,4.03-.9,5.09.69" fill="#e2ad93"/><path d="M71.17,80.15c-.28.61-.81.16-1.18,0-.2-.24-.49-.28-.77-.37-1.63,3.67-2.1,8.59.51,12.05,3.34,4.24,13.9,4.85,17.66.46-1.25,2.52-4.16,3.32-5.29,3.55-.52,1.88-2.61,2.68-2.61,2.68.32-.86,1.3-1.47,1.38-2.44-4.28.45-9,.08-11.86-3.5-3.18-3.46-2.28-8.96-.77-12.91-1.14-.04-2.4.41-3.34.98.08-.61.73-.86,1.18-1.18,1.51-.86,4.03-.9,5.09.69" fill="#231f20"/><path d="M96.97,77.53l-.78-1.29c.57-.33,1.8-1.45.81-3.02-.33-.29-.77-.53-1.18-.29-.04-.77.73-1.3,1.26-1.87.24.04,1.31-.4,1.26,1.96.06-.28.11-.54.14-.77-.28-.76-.75-1.37-1.32-1.71-.23.09-.44.21-.57.32-1.02.94-1.67,2.08-1.87,3.34-1.38-.73-.49-2.24-.08-3.14.1-.15.2-.3.29-.44.36-.25.76-.38,1.18-.38.37,0,.73.11,1.05.3.57.34,1.03.94,1.32,1.71.19.52.31,1.11.31,1.73,0,1.65-.76,3.05-1.83,3.55" fill="#efbd9b"/><path d="M69.57,109.37c2.2.81,5.04,1.79,6.87,3.46-.24.73-.63.47-1.47.98,8.03,5.32,3.22,4.11,2.73,4.77,1.06,1.3,2.53,2.49,3.34,4.03-.41.45-1.34-.12-1.79.49,1.3,1.59,3.1,3.01,3.26,5.09-.49.37-1.3,0-1.67.65,1.3,2.12,2.04,4.85.86,7.25-.86.94-1.14,2.28-.86,3.63-.26-.38-1.47-1.14-1.96-1.96-.57.29-.53,1.43-.97,1.96-.77-.29-.81-1.39-1.59-1.75-.41.33-.49.98-.77,1.47-.24-.53-.24-1.35-.69-1.87l-1.75,1.06c-.2-.37.16-.94.41-1.34-.61-.69-1.26.53-2.08.49.49-.53.69-1.3.61-1.96-2.61-2.32-3.46-5.46-3.42-8.72-1.1-.37-1.34,1.34-2.36,1.47-1.06-2.61-.81-5.66-.57-8.6-.98-.69-1.26.77-2.08,1.06-.24-2.24.45-4.56,1.3-6.64-.57-.2-1.22-.08-1.67.29.24-1.34,1.34-2.61,2.24-3.79-.09-.52-.54-2.34-1.14-4.61.16-.34.31-.72.39-1.03.2-.86,1.12-.81,1.94-.97.98-.21,1.84.4,2.56,1.03.18,1.87.34,4.08.34,4.08" fill="#a8975f"/><path d="M121.56,5.59c1.21,8.85-2.57,16.4-3.05,24.69-.29,9.39,11.85,3.25,17,2.42,2.79-.63,6-.98,8.69.31,6.6,2.26,9.38,9.33,9.76,15.8-.26,4.09-.51,10.05-5.24,12.09-1.49.54-2.74-.27-4.06-.63-5.98-5.38.46-15.91-8.37-18.99-7.62-1.08-15.1,5.46-22.19.69-4.53-4.73-2.15-12.44-1.41-18.13,2.17-7.82,4.98-18.6-3.22-24.55-14.65-7.28-24.87,7.82-27.65,14.74-.94,4.48-2.34,8.93-1.96,13.77.53-1.2.59-1.69.81-2.55,2.55.6,5.68.37,7.57-1.65,1.15-1.02,1.08-2.81.83-4.15.61-.06.9,1.4,1.58.84l.36-1.2c.66.34.67,1.65,1.6,1.53.23-.33.3-.7.58-1,.78.22,1.28,1.55,2.14.58l.57-1.16c1.44,1.5,2.36,3.23,2.79,6.37.52-.3,3.36-3.9.98,1.2,4.87-3.04,1.32,1.58.59,2.83,6.78-3.27-3.42,6.91-9.08,6.06-.17.5-.59,3.02-1.1,6.41-.57.73-1.33,1.28-2.43,1.51-2.57.33-4.38-.96-6.79-1.37-3.99-1.3-8.82-.47-12.65-2.06-5.19-.42-6.49-3.5-6.78-4.49.14-1.37.29-2.16.29-2.16-4.46-2.83-9.18-11.09-4.66-8.19-2.78-7.98.18-2.98.87-3.05-.29-6.89,1.79-1.24,2.03-1.46,1.74-2.83,4.99-2.9,7.04-5.01-.12.25-.1.62.23.77.66.1,1.6.19,2.15-.28l-.58,1c1.72-.27,3.72-.82,3.72-.82-.31.5-.58,1-.84,1.5,0,0,1.98-.56,2.91-.67-1.51,1.23-3.16,2.88-2.68,5.07,1.03,1.55,2.65,2.35,4.33,2.58.32.89.07,2,.47,2.84.78-1.09.23-2.7.47-3.93.01-7.79,2.38-15.94,7.12-22.55,5.86-7.3,15.06-11.36,24.21-9.48,0,0,10.4,1.4,13.04,13.93" fill="#a8975f"/><path d="M77.26,59.86c-5.83-5.25-12.56-2.14-14.11,4.28-.73,3.87.16,7.82,2.65,10.76-.65.69-.92.99-1.67,2.24l-.29-.98c-3.5-3.71-6.52-6.6-10.06-9.98,2-12.51,12.59-14.83,12.59-15.16,0,0-1.54-.96-1.73-1.46,2.53.26,7.28,1.87,7.28,1.87l-.85-1.6c-.85-1.61,3.37,1.23,3.37,1.23,0,0,0-.28-.19-2.24-.19-1.96,2.99,2.71,2.99,2.71,0,0,.19-.66.76-2.17.57-1.51.85,1.79.85,1.79l1.29-.19s.85,3.85-2.88,8.91" fill="#8c804f"/><path d="M47.63,61.57c-.94.76-.98,1.71-1.39,1.96l-1.26-2.24c.12-.29.08-.69.49-.77.73.25,1.51.49,2.16,1.06" fill="#ffd65a"/><path d="M46.62,62.99l-1.61-1.77c.08-.25.09-.55.35-.67l1.9,1.38c-.32.37-.49.75-.64,1.05" fill="#ffe993"/><path d="M151.35,58.93c-.67.82-1.53,1.5-2.62,1.97-1.49.54-2.74-.27-4.06-.63-5.98-5.38.46-15.91-8.37-18.99-7.62-1.08-15.1,5.46-22.19.69-4.53-4.74-2.15-12.44-1.41-18.13,2.17-7.82,4.98-18.6-3.22-24.55-3.34-1.66-6.45-2.15-9.29-1.85,3.19-.82,7.04-.84,11.27.98,11.59,5,3.29,24.79,1.93,34.14-1.36,9.35,9.52,7.81,12.81,7.11,3.29-.7,10.75-1.89,14.22,0,3.47,1.89,3.64,12.68,4.83,17.16.65,2.46,3.59,2.53,6.1,2.1" fill="#8c804f"/><path d="M61.43,35.52c.14-1.37.29-2.16.29-2.16-4.46-2.83-9.18-11.09-4.66-8.19-2.78-7.98.18-2.98.87-3.05-.29-6.89,1.79-1.24,2.03-1.46,1.74-2.83,4.99-2.9,7.04-5.02-.11.25-.1.62.23.77.66.1,1.6.19,2.15-.28l-.58,1c.97-.15,2.03-.39,2.77-.58-1.77,1.05-3.77,2.59-3.77,4.24,0,2.94,3.78,4.48,5.18,4.83,1.17.29,2.91.46,3.47.51.03.52.06,1.04.27,1.48.78-1.09.23-2.7.47-3.93.01-7.79,2.38-15.94,7.12-22.55,3.87-4.82,9.2-8.23,15.01-9.45-7.83,3.05-18.64,10.46-20.59,28.23-.36,3.29-.53,15.97,0,17.86.27.97.51,2.51.75,3.92-3.69-.78-7.87-.28-11.26-1.69-5.19-.42-6.49-3.5-6.78-4.49" fill="#8c804f"/><path d="M77.9,139.71c-.77-.28-.81-1.39-1.59-1.75-.41.33-.49.98-.77,1.47-.25-.53-.25-1.35-.69-1.88l-1.75,1.06c-.2-.37.16-.94.41-1.34-.61-.69-1.26.53-2.08.49.49-.53.69-1.3.61-1.96-2.61-2.32-3.46-5.46-3.42-8.72-1.1-.37-1.34,1.34-2.36,1.47-1.06-2.61-.81-5.66-.57-8.6-.98-.69-1.26.77-2.08,1.06-.24-2.24.45-4.56,1.3-6.64-.57-.2-1.22-.08-1.67.29.25-1.34,1.34-2.61,2.24-3.79-.09-.52-.54-2.34-1.14-4.61.16-.34.31-.71.39-1.03.2-.86,1.12-.81,1.94-.97.37-.08.73-.04,1.07.07-.84.05-1.51.57-.9,2.49,1.24,3.86-.59,5.37.39,5.3.98-.06-1.83,4.12-1.31,4.38.52.26,1.7-.52,1.7-.52,0,0-1.18,9.54.13,8.96,1.31-.59,1.9-1.44,1.9-1.44,0,0,1.05,8.38,3.34,9.42,2.29,1.04,1.24,3.92,1.24,3.92l.92-.46.46,1.63.85-1.5s.59,1.61,1.44,3.2" fill="#8c804f"/><path d="M117.87,71.74c.22-.12.46-.21.73-.27.29.49-.9,1.96.49,1.96.04-.25.75-.62.91-.86-.35.79-.02,1.43-.02,1.43.65-.19,1.34-.29,1.34-.41.12.94-.65,1.83-.98,2.77.37.04.9-.04,1.18-.49.08,3.55-1.34,6.72-3.42,9.45.45.57,2.73-.57,2.73-.57-.61,2.32-2.97,4.6-4.77,6.35-.24.45,1.63.77,1.63.77-1.51,1.75-3.63,3.42-5.74,4.32.04.69,1.55,1.3.57,1.96h-.85c-.2.86-.04,1.38-.2,2.16-1.14.12-.94-1.83-2.24-1.18-.49.57-.73,1.22-1.1,1.83-.29-.86-.33-2-.86-2.53l-1.59.9c.08-.77,1.18-1.34.49-2.16l-.22-.29c1.1-.38.97,1.38,2.05,1.26.16-.77,0-1.3.21-2.16h.86c3.47.94-.53-1.26-.57-1.96,2.12-.9,4.24-2.57,5.74-4.32,0,0-1.88-.32-1.63-.77,1.79-1.75,4.16-4.03,4.77-6.36,0,0-2.28,1.14-2.73.57,2.08-2.73,3.5-5.91,3.42-9.45-.29.45-.81.53-1.18.49.29-.83.93-1.63.99-2.45" fill="#a8975f"/><path d="M121.87,71.46l-1.52,1.28c.12-.29.49-.53.12-.77-.33-.24-.77.73-.98,0-.29-.37.16-1.06-.41-1.3-.94.33-1.79.94-2.65,1.47-.12-.57.12-1.39-.37-1.75l-1.67,1.18c-.9-1.63-2.36-3.71-4.52-3.63-1.34-.45-3.38.61-4.28-.85-.25-1.06,1.1-5.22,6.76-1.08.69-1.22.29-2.71-.2-4.3-.73-2.36-3.1-4.76-1.79-7.25.45-.45,1.38-.37,1.87-.08,1.67,1.06,1.87,3.1,2.53,4.77l-.77.77s6.65-1.67,10.06,1.67l-.02-.11.23.23s-8.96-1.43-7.76,4.07c.82,3.76,2.7,5.26,5.37,5.69" fill="#efbd9b"/><path d="M123.01,60.15c-.19-.15-.39-.29-.58-.41,1.83-1.71,1.26-4.89,3.99-5.7.29,0,.53.11.72.29-.44.29-.96.74-1.37,1.42-.91,1.5-2.11,3.76-2.49,4.14-.12.13-.22.21-.28.26" fill="#efbd9b"/><path d="M120.27,57.97c-.06.27-.12.53-.2.79l-3.14-.12c.73-2.08-.57-4.16,0-6.44.33-.31.7-.46,1.07-.49-.42,2.18.76,4.18.06,6.17l2.21.09Z" fill="#efbd9b"/><path d="M62.66,9.32c.21.28,2.53-3.31,2.53-3.31.39.36.71.43,1.06.39-.87,1.97-1.52,3.92-.94,4.42,1.27,1.08,5.7,4.5,9.57,5.1.16.03.32.05.48.06-1,.2-1.88.83-2.81,1.31.19-.5.62-.92.93-1.38l-.34-.31c-1.14.16-2.18.61-3.27.93l.65-1.33c-.85-.87-3.19,2.15-2.67-.56-.06-.6-1.49.46-2.22.73-1.86-.67-4.1-.71-5.31-2.63-1.59-2.31-.35-5.45.83-7.65.45.03,1.28.44,1.76.1l.67-.68c-.02,1.71-.46,3.24-.93,4.8M74.06,14.39c.54-2.26,1.7-5.21,3.59-5.31.18.12.38.25.55.38-1.01.36-1.91,1.11-2.14,1.76-.53,1.51-1.36,3.61-1.36,3.61l-.65-.43Z" fill="#efbd9b"/><path d="M67.34,4.15c-.19-.12-.4-.2-.62-.23.08-.51.67-.74.97-.45l-.35.68Z" fill="#efbd9b"/><path d="M95.43,17.65l-.9,2.01c-.58-.27-1.02-1.23-1.87-.91-.24.17-.27.42-.39.58-.29-.28-.73-1.12-1.42-.93l-.61,1.2c-.38-.39-1.11-1.51-1.62-.72-.53-1.04-1.69-1.82-2.73-2.27.03-2.12-1.3-2.07-2.09-1.48-.28.26-.21,1.07-.66.8-.47-.72-.46-1.57-.08-2.32.24-.45.83-.91,1.64-1.06-.37.86.52,2.44,2.3,3.22,2.29,1.01,2.92,2.23,2.92,2.23,0,0,.96-1.02,1.37-.44.41.58.78.85.78.85,0,0,.62-.78,1.27-.41.64.37,1.6-.67,1.6-.67l.47.31Z" fill="#efbd9b"/><path d="M90.61,16.14c1.07-.29,3.28-1.8,4-2.35-7.63-6.67-2.52-5.5-2.52-5.5-.15.33-.67.76-.44,1.28.39.64,1.13.82,1.77.55.4-.14.71-.68,1.17-.32,1.04.62,1.53,1.66,2.52,2.23.07-.25-3.35-5-2.38-6.28.09-.13.19-.22.3-.27.03.43.14.94.38,1.53-.04.12-.06.25-.05.39.18.32.4.69.74.86,1.43,2.32,3.28,5.11,3.28,5.11,0,0-5.1,3.19-6.84,3.37-1.31.14-1.54.06-1.94-.6" fill="#efbd9b"/><path d="M60.39,20.05c1.8-2.24,4.72-2.46,6.61-4.4-.1.21-.1.5.09.67-2.02,1.49-4.74,1.85-6.26,4.34-.06.05-.22-.24-.44-.61" fill="#a8975f"/><path d="M57.91,21.43c-.07-3.15.47-3.05,1.02-2.33-.14.47-.2,1.4-.13,3.02-.19.02-.53-.33-.89-.69" fill="#a8975f"/><path d="M56.88,24.63c-1.61-4.72-.95-4.31-.1-3.48.06.61.39,1.82,1.16,4.01-.43-.28-.78-.45-1.05-.54" fill="#a8975f"/><path d="M61.43,35.52c.14-1.37.29-2.16.29-2.16-4.13-2.61-8.47-9.87-5.53-8.67-.74.93,3.09,5.84,6.58,8.05,0,0-.33,1.69-.52,4.4-.48-.66-.71-1.27-.81-1.62" fill="#a8975f"/><path d="M54.41,66.78l-.64-.6c2-12.51,12.59-14.83,12.59-15.16,0,0-1.54-.96-1.73-1.46.29.03.61.08.94.14.36.52,2.3,1.77,2.3,1.77,0,.33-11.23,2.21-13.24,14.71-.09.21-.17.41-.23.6" fill="#a8975f"/><path d="M60.32,88.68c-.01.35,0,.71.01,1.04-3.22-2.4-3.75-6.36-5.21-9.57l.28-1.48s1.93,5.72,4.92,10.01" fill="#a8975f"/><path d="M60.87,37.21c-.29.37.05.84-.4.72-2.57-.72.4-1.01.4-.72" fill="#acc6cb"/><path d="M67.6,41.35c7.62,1.28,10.64-.78,19.84,4.24,1.63.61,3.79.82,5.38.57-.29.77-.57,1.79-1.63,1.75-3.71,0-6.23-2.81-9.7-3.42-5.74-2.16-9.93-.21-17.6-2.16-1.71-.86-3.83-1.59-4.81-3.42v-.77c4.51,2.89,6.04,3.13,8.51,3.22" fill="#fff"/><path d="M82.47,45.39c2.97,1.18,5.87,3.42,9.21,2.93-1.14,1.71-1.83,4.73-4.6,4.4l-1.1-.49c.77-.12,1.59-.73,1.79-1.59-1.14-.94-2.89-.98-4.11-1.06.57-.45.94-1.02.77-1.75-1.3-.77-2.89.08-3.99.86-.16-1.1,0-2.44-.9-3.22-1.26.25-2.28,1.71-2.85,2.85-1.1-1.79-3.05-3.58-5.05-4.12-1.52.64.37,3.71.37,3.71-1.3-.41-2.89-1.14-4.48-1.26-1.43.44.49,2.36.49,2.36-7.51-1.47-3.05,1.83-3.05,1.83l-2.12.98c-1.43-.12-2.57-1.06-3.14-2.32l-.61-9.29c6.31,5.87,15.97,1.91,23.39,5.17" fill="#5d1e79"/><path d="M93.8,42.94c.08.61.33,1.22-.16,1.75-.33.33-.94.2-1.3.08-.41-.37-1.14-.69-1.26-1.34-.12-.86.53-1.35.69-2.08.94-.08,1.75.81,2.04,1.59" fill="#acc6cb"/><path d="M103.39,77.14c-.49,2.57-2.24,4.64-4.32,6.48-.41-1.91-.98-4.24.61-5.87,1.02-1.02,2.53-1.75,3.71-.61" fill="#5d1e79"/><path d="M105.06,79.21c-1.02,2.85-3.1,5.7-5.87,7.41l-.12-2.44c2.4-1.87,4.16-3.95,4.89-6.76.94.24,1.71.73,1.1,1.79" fill="#cce2e7"/><path d="M60.31,90.85c.33,3.5,2.49,6.44,4.81,9-3.91,1.22-8.11-.29-11.16-2.85l1.18-8.6c.73-.94,1.67.04,2.44.29l2.73,2.16Z" fill="#6f2c91"/><path d="M65.4,100.23c.69.65,1.79,1.1,2.53,1.95-4.85,1.06-10.67.98-14.54-2.53l.37-1.87c3.22,2.45,7.62,3.99,11.65,2.45" fill="#fff"/><path d="M82.47,45.39c2.97,1.18,5.87,3.42,9.21,2.93-1.14,1.71-1.83,4.73-4.6,4.4l-1.1-.49c.77-.12,1.59-.73,1.79-1.59-1.14-.94-2.89-.98-4.11-1.06.57-.45.94-1.02.77-1.75l-.15-.08c.04-.38-.07-.72-.57-.82-1.29-.26-3.08.36-3.08.36,0,0,0-1.92-.9-2.3-.91-.39-2.69,1.16-2.69,1.16l.83-1.99c1.59.21,3.14.57,4.6,1.22" fill="#6f2c91"/><path d="M103.39,77.14c-.16.82-.44,1.6-.83,2.33l-2.9-1.69c1.04-1.04,2.55-1.78,3.73-.64" fill="#6f2c91"/><path d="M105.06,79.21c-.16.46-.35.92-.57,1.37l-1.44-.84c.39-.72.69-1.49.91-2.32.94.24,1.71.73,1.1,1.79" fill="#fff"/><path d="M60.31,90.85c.33,3.5,2.49,6.44,4.81,9-.78.24-1.57.38-2.35.42-2.97-3.91-3.47-8.41-3.7-8.79-.39-.65-.91.39-1.42,1.66-.25.62-.41,3.33-.5,5.93-1.15-.55-2.22-1.25-3.19-2.06l1.18-8.6c.73-.94,1.67.04,2.44.29l2.73,2.16Z" fill="#5d1e79"/><path d="M65.4,100.23c.69.65,1.79,1.1,2.53,1.95-.94.21-1.92.37-2.91.47-.7-.59-1.32-1.22-1.86-1.88.75-.09,1.5-.27,2.24-.55M57.06,101.85c-1.34-.49-2.59-1.21-3.68-2.2l.37-1.87c1.02.78,2.16,1.46,3.37,1.98-.02.74-.04,1.46-.06,2.09" fill="#cce2e7"/><path d="M67.6,41.35c4.45.75,7.33.36,10.79.9-.11.46-.22.91-.34,1.35-4.2-.63-8.09.27-14.16-1.27-1.71-.86-3.83-1.59-4.81-3.42v-.77c4.51,2.89,6.04,3.13,8.51,3.22" fill="#cce2e7"/><path d="M60.85,51.01c-.49-.4-.88-.92-1.15-1.51l-.61-9.29c.4.37.81.7,1.24,1,.12,3.08.3,6.74.52,9.8" fill="#6f2c91"/><path d="M60.29,40.34c-.48-.39-.9-.86-1.2-1.43v-.77c.4.26.79.5,1.15.72l.06,1.49Z" fill="#fff"/><path d="M64.15-2.53s-7.68-3.79-6.93,5.49c0,0,.69-6.35,6.93-5.49" fill="#cee3e9"/></g><g clip-path="url(#g)"><path d="M156.1,36.51s.77-8.53-7.62-4.48c0,0,6.17-1.65,7.62,4.48" fill="#cee3e9"/></g><g clip-path="url(#h)"><path d="M152.05,30.01c3.6-1.2,4.2,2.32,4.2,2.32-.29-6.13-4.2-2.32-4.2-2.32" fill="#cee3e9"/><path d="M131.51,70.28s8.55.51,4.26-7.75c0,0,1.83,6.12-4.26,7.75" fill="#cee3e9"/><path d="M137.88,66.04c1.3,3.56-2.2,4.27-2.2,4.27,6.12-.47,2.2-4.27,2.2-4.27" fill="#cee3e9"/><path d="M111.9,48.94s-7.68-3.79-6.93,5.49c0,0,.69-6.35,6.93-5.49" fill="#cee3e9"/></g><g clip-path="url(#i)"><path d="M104.37,50.37c.18-3.79,3.68-3.08,3.68-3.08-5.82-1.94-3.68,3.08-3.68,3.08" fill="#cee3e9"/></g></g></g></g></svg>