<?xml version="1.0" encoding="UTF-8"?><svg id="b" xmlns="http://www.w3.org/2000/svg" width="200.47" height="111.75" xmlns:xlink="http://www.w3.org/1999/xlink" viewBox="0 0 200.47 111.75"><defs><clipPath id="d"><rect width="200.47" height="111.75" rx="16.62" ry="16.62" fill="none"/></clipPath><clipPath id="e"><rect x="43.82" y="-46.23" width="139.65" height="194.2" fill="none"/></clipPath></defs><g id="c"><g clip-path="url(#d)"><g clip-path="url(#e)"><path d="M94.76,5.06c.9-.66,2.37.11,2.56-.97l-2.55.46c.13.26-.09.28,0,.51M152.93-9.73c-1.06-.24-2.28.09-3.62.52-.72.24-1.47.5-2.21.71-.67.19-1.34.33-2.01.38.31.71.71,1.47,1,2.23.32.86.51,1.76.21,2.59-.22.62-.85,1.12-1.59,1.59-.74.48-1.65.96-2.52,1.53-1.72,1.14-3.19,2.6-2.9,5.06.02.15-.08.23-.22.19-.42-.12-.71-.45-.92-.81-.21-.34-.36-.74-.53-1.07-1.15-2.24-1.83-5.84-.72-8.03.24-.47,1.95-2.82,3.54-3.52-1.3-.18-2.55.28-3.81.86-.75.34-1.49.72-2.24,1.02-.76.3-1.53.54-2.33.58-.36.02-.7-.02-1.02-.09-.32-.07-.63-.16-.95-.26-.63-.19-1.25-.37-2.01-.34-2.24.09-4.16,1.64-5.36,2.85,1.37.98,3.06,2.59,2.67,5.22-.13.86-.92,2.04-1.5,2.68-.6.68-1.29,1.28-1.97,1.9-.67.61-1.33,1.22-1.89,1.94-1.31,1.68-2.19,3.55-2.91,5.55-.04.12-.16.16-.27.08-.13-.09-.19-.24-.22-.39-.03-.15-.04-.34-.04-.54.01-.4.08-.9.15-1.44.07-.53.15-1.09.18-1.6.03-.52.02-.97-.07-1.3-.17-.62-.52-1.33-.85-2.1-.34-.78-.67-1.63-.79-2.49-.51-3.66,1.57-7.6,5.46-7.85.16-.01.38.02.6.03.22.01.41.01.57-.04.34-.11.6-.36.87-.68.14-.16.27-.33.41-.49l.12-.12c-5.3.21-9.16,1.09-12.25,3.89-.38.35-.84.87-1.3,1.33-.46.46-.95.9-1.4,1.01-.46.12-.96,0-1.4-.13-.22-.06-.44-.12-.65-.17-.21-.04-.4-.06-.57-.04-.92.12-1.82.65-2.75,1.27-.47.31-.93.64-1.4.93-.48.3-.96.56-1.45.74-.47.18-.91.23-1.29.36-.3.11-.55.26-.75.62,1.95,1.14,3.85,3.63,3.07,6.24-.22.75-.71,1.35-1.2,1.91-.24.28-.49.55-.72.83-.23.28-.43.57-.58.88-.9,1.82-.27,4.95.94,6.74.14.2-.1.4-.27.22-.76-.77-1.58-1.57-2.4-2.43-.82-.86-1.63-1.77-2.34-2.76-1.38-1.92-2.41-4.13-2.49-6.81-1.66.92-3.48,1.69-5.42,1.91-1.96.22-3.51-.34-4.91-1.05-.7-.35-1.36-.75-2.02-1.11-.66-.36-1.32-.68-2-.9-.2-.06-.2-.27,0-.34.74-.25,1.35-.24,1.94-.21.28.01.57.03.86.03.29,0,.59-.03.92-.1,1.04-.23,1.88-.75,2.64-1.42.38-.34.73-.71,1.08-1.09.35-.39.69-.78,1.04-1.17,1.41-1.55,2.97-2.99,5.67-2.77.93.07,2.54.91,3.04,2.24.99-.44,1.99-.88,2.94-1.35.88-.44,1.72-.9,2.46-1.43-.78-.18-1.55-.3-2.3-.43-.87-.15-1.73-.33-2.54-.68-.84-.36-1.63-.83-2.44-1.26-.74-.39-1.49-.74-2.31-.93-.25,1.44-1.21,2.82-2.64,3.26-1.37.42-3.54.58-4.65-.22-1.51-1.09-3.28-2.27-4.72-3.25-1.41-.97-2.58-1.78-2.78-2.13-.12-.2.08-.38.26-.23,1.08.89,2.41.56,3.9-.01.74-.28,1.49-.62,2.23-.86.63-.21,1.27-.35,1.89-.32-.26-.59-.53-1.19-.75-1.84-.26-.75-.47-1.55-.57-2.45-.08-.75-.06-1.51-.06-2.25,0-.73-.04-1.42-.21-2.02-.19-.67-.46-1.22-.73-1.72-.28-.51-.56-.97-.75-1.43-.09-.21.12-.36.29-.19.42.42.84.9,1.31,1.35.46.44.95.85,1.54,1.13.44.22.89.37,1.34.5.45.13.9.23,1.33.35.87.24,1.72.56,2.43,1.31.81.86,1.72,2.28,1.94,3.81.27,1.92.01,4.12-.96,5.31.12.37.65.73,1.2.92-.07-.33-.08-.61-.07-.88.01-.34.06-.65.07-.98,0-.01.04-.1.05-.11.37-.41.71-.94,1.12-1.39.42-.46.93-.87,1.61-.97.08-.01.18.05.2.14.38,1.72.3,3.86-1.2,4.74,2.7.91,9.26.93,9.88.7.31-.11.67-.53,1.07-1.04.2-.25.39-.5.59-.73.2-.23.41-.43.62-.57.41-.26.83-.45,1.24-.61.4-.15.8-.27,1.2-.39.66-.2,1.29-.4,1.87-.75-.23-.09-.43-.21-.62-.34-.14-.1-.28-.21-.41-.32-.13-.11-.26-.22-.39-.33-.51-.44-1-.82-1.7-.89-.08,0-.16-.1-.16-.18.04-1.2.44-2.24,2.22-2.27,1.37.46,2.55,1.16,3.21,2.61,3.98-2.03,8.23-2.81,13.37-3.29.41-.04.88,0,1.34,0,.45,0,.87-.02,1.21-.16.3-.13.65-.52,1.06-.99.2-.23.4-.47.61-.69.2-.22.42-.41.63-.55.89-.58,2.19-1.3,3.3-1.63.36-.11.76-.14,1.13-.17.37-.03.73-.05,1.05-.13.32-.07.58-.18.86-.26.14-.04.28-.07.43-.08-.75-.62-1.47-1.34-2.12-2.02-.75-.78-1.4-1.51-1.89-1.99-3.45-.88-6.67-.87-9.3-.57-2.53.29-4.51.85-5.61,1.17.25,2.82-.6,6.07-3.67,6.86-.63.16-1.31.21-2.01.19-.69-.02-1.41-.09-2.14-.16-.72-.07-1.45-.15-2.17-.17-.72-.02-1.42.01-2.09.15-.35.07-.6.18-.87.26-.29.08-.61.13-1.05.08-.23-.03-.25-.27-.03-.34.95-.31,1.5-.92,1.95-1.66.45-.76.78-1.63,1.26-2.41.63-1.03,1.73-2.47,2.52-3.13.6-.5,1.54-1.19,2.19-1.53,1.87-.96,3.75-.22,4.95.89,2.88-1.38,6.6-2.68,9.88-2.83-1.35-.55-2.65-1.18-3.74-2.14-2.26.7-4.57-.31-5.73-1.59-1.14-1.25-1.11-2.91-.86-4.51.13-.8.32-1.6.46-2.35.14-.75.23-1.44.17-2.02-.11-1.18-.32-2.51-.8-3.32-.12-.21.15-.39.3-.19.9,1.27,2.02,2.02,3.17,2.6.58.29,1.16.53,1.71.77.57.24,1.11.48,1.6.77,2.68,1.54,3.32,6.19,1.37,8.9.47.26.94.53,1.42.78.54.28,1.09.54,1.7.73.29.09.6.16.92.22.32.06.65.1.98.15.66.1,1.32.22,1.92.46.14.06.26.13.37.22.11.08.21.17.32.26.21.18.38.33.58.4.42.17.81.22,1.23.27.21.03.42.05.63.1.21.04.43.09.65.18.08.01.28.02.58.03.31.01.7.03,1.12.06.84.06,1.82.19,2.48.48.14.06.26.14.37.23.11.08.21.18.31.27.2.18.38.32.58.38.53.16,1.17.16,1.85.11.69-.04,1.4-.13,2.05-.13.65,0,1.28-.02,1.91-.02.59,0,1.18.03,1.77.13.05-.1,21.32.86,23.79-.44,1.12-.2,2.11-.57,3.09-1.03,1.04-.48,2.06-1.03,3.2-1.53.44-.19.89-.44,1.36-.68.48-.25.96-.48,1.46-.64,2.39-.77,6.1-1.23,9.29-1.15,1.06,1.04,2.58,2.83,2.44,4.45-.2,2.47-2.64,3.01-1.11,4.67,1.26,1.36,1.61,3.94.16,6.09-1.9.58-4.36.85-5.67.19-2.6,1.65-4.92,1.25-7.2.59-1.14-.33-2.28-.73-3.45-.99-1.16-.25-2.35-.35-3.6-.08-.33.07-1.02.53-1.27.64-.12.05-8.95,1.03-8.95,1.03,0,0-5.87,1.17-8.71.41" fill="#231f20"/><path d="M170.19-11.99c-.3.14-5.91,1.21-8.01,1.05.1-1.21-.42-1.86-1.23-2.15-.35-.16-.81-.26-1.39-.25-.65.01-1.32.15-1.99.39-.92.27-1.78.69-2.35,1.14-.11.09-.22.19-.32.3-.38.28-.75.58-1.1.9-.68.17-1.43-.1-2.12-.05-2.2.15-4.26,1.61-6.56,1.8-2.63.22-4.88-.82-7.18.09-1.37.73-3.36,1.72-5.51,2.01-1.93.26-3.48-.7-5.25-.46-.43.06-.82.4-1.26.33-.59.22-.9.64-1.35.95-.38.06-.39-.42-.78-.37-2.71.61-5.07.26-7.82,1.02-2.7.74-4.52,2.29-6.29,3.88-.61.54-1.25,1.31-1.77,1.44-.74.19-1.67-.36-2.38-.28-1.73.19-3.1,1.75-4.99,2.63-1.46.68-2.87.89-4.72,1.36,2.11-1.37,5.17-2.08,6.47-4.01-.4-.37-.98-.03-1.53-.03-2.59.01-5.03-1.03-7.04-1.96,2.8.42,6.62.42,9.84.64.91-.76,1.16-1.86,2.27-2.54,1.65-1.02,5.59-2.58,5.89-2.69.28-.1.16-.46.4-.58,3.71-2.58,10.73-3.31,15.96-3.61.86,3.32,5.19,1.89,7.6.54-1.41,0-2.95,1.37-4.83,1.28-.81-.04-2.02-.82-2.18-1.43-.22-.78.99-1.97,1.67-2.53.9-.74,2.56-1.48,3.83-1.81.89-.24,1.96-.05,2.53-.56.36.1.81.07,1.23.08.78,1.44,2.07,2.14,3.51,2.6-1-.79-2.69-1.65-3.5-3.11,1.41.16,3.34,1.28,5.53.31-1.78-.02-3.72.17-4.73-.96,1.48.4,3.72.1,5.47-.59-3.21.5-6.77.86-7.2-2.24.44-.47,1.33-.6,2.22-.61-.58-.43-2.02-.27-2.41.13-1.21,1.25,1.24,2.84,1.8,3.22-.72.29-2.24-.87-2.85-1.63-.11.04-1.85-2.03-2.96-2.99-3.77-.77-8.75-.39-12.73.19,1.28-.81,3.34-1.26,5.5-1.51,1.43-.16,2.76.13,3.05-1.06-2.03-.42-3.74-1.29-5.3-2.38.69-.15,2.89,1.34,3.53,1.59,1.24.48,2.77.48,4.03.99.48.19.87.7,1.37.86.89.3,5.83.74,6.8,1.2.95.45,1.24,1.19,2.52,1.06,2.27-.22,4.56-.52,6.69,0,2.91-.09,22.34.98,22.28.03l.97-.26c1.85-.37,3.53-1.28,5.3-2.12,2.14-1.01,4.14-2.37,7.11-2.71,2.29-.26,4.71-.68,6.92-.64.94,1.05,1.93,2.48,1.83,3.81-.2,2.47-2.64,3.01-1.11,4.66,1.1,1.18,1.5,3.28.64,5.21-1.15.36-3.91.9-5.31.51,1.23-1.13,3.15-3.14,2.12-5.05-.67-1.25-2.81-.64-4.16-1.17.97.92,2.87.34,3.59,1.37.67.95-.35,2.95-1.06,3.64-1.01.98-4.12,2.36-6.18,2.24-1.22-.07-2.23-.79-3.36-1.21-2.36-.89-5.56-1.11-7.69.08" fill="#ba8656"/><path d="M170.19-11.99c-.3.14-5.91,1.21-8.01,1.05-5.7.93-8.03.02-8.38.33-.68.17-1.43-.1-2.12-.05-2.2.15-4.26,1.61-6.56,1.8-2.63.22-4.88-.82-7.18.09-1.37.73-3.36,1.72-5.51,2.01-1.93.26-3.48-.7-5.25-.46-.43.06-2.15.97-2.6,1.28-.38.06-.39-.42-.78-.37-2.71.61-5.07.26-7.82,1.02-2.7.74-4.52,2.29-6.29,3.88-.61.54-1.25,1.31-1.77,1.44-.74.19-1.67-.36-2.38-.28-1.73.19-3.1,1.75-4.99,2.63-1.42.66-2.8.88-4.59,1.33.51-.16,3.44-1.13,4.56-1.97,1.24-.93,4.27-3.45,4.27-3.45,0,0-.63,1.04,2.05.43,2.68-.6,2.53-2.08,2.53-2.08,0,0,2.33-2.63,5.67-3.47,3.34-.84,11.45-2.31,11.45-2.31,0,0,2.36,1.43,5.07.94s5.78-2.79,5.78-2.79c0,0-4.13,1.1-5.65,1.03-1.52-.07-2.02-.92-2.02-.92,0,0,2.02.8,4.96-.32,2.94-1.12,1.67-2.98,1.67-2.98,0,0,2.26.28,3.35,1.13.66.52,0-.31-.62-1.04.69.59,1.53.96,2.42,1.25-1-.79-2.69-1.65-3.5-3.11,1.34.15,3.13,1.16,5.18.45.27,0,.56-.02.84-.07,1.57-.29,4.81-.42,4.81-.42,0,0-1.84-2.26-1.9-4.6.48.04.95.12,1.41.23,2.45-.4,22.3.82,22.28-.03.3.89.56,2.7-.51,3.57-1.63,1.33-3.98,1.18-3.98,1.18,0,0-1.51,1.33-3.46,1.45-1.79.11-2.25-.5-2.31-.6.1.17,1.17,1.86,3.63,1.42,2.59-.47,9.4-1.47,9.4-1.47,0,0,2.25-3.07,6.56-3.63,4.31-.56,5.71,1.98,5.98,3.45s-3.05,2.43-3.05,2.43c0,0,4.46-.58,4.86-2.17.24-.96-.82-2.07-1.7-2.8.93.2,1.99.14,2.49.86.67.95-.35,2.95-1.06,3.64-1.01.98-4.12,2.36-6.18,2.24-1.22-.07-2.23-.79-3.36-1.21-2.36-.89-5.56-1.11-7.69.08" fill="#9a623b"/><path d="M92.95,8.43c1.42-.88,1-3.47,3.67-3.2-.55,1.77-1.16,4.09,0,6.08-.62-2.49-.07-4.6.89-6.24,1.76.58,3.57,3.05,2.98,5.23-.4,1.5-2.34,2.58-2.84,4.47-.31,1.16-.12,2.7.34,4.09-2.3-2.07-5.83-6.13-5.04-10.43" fill="#58ab40"/><path d="M116.49,5.87c-1.36-5.04.22-8.92,4.91-9.2-1.16,1.8-2.06,2.97-2.33,4.48.97-1.44,1.61-3.11,2.97-4.29,1.7.39,3.33,3.27,2.31,5.46-.5,1.07-1.94,2.31-3.13,3.41-1.8,1.65-2.93,3.25-3.77,5.45.39-2.68-.46-4.49-.96-5.3" fill="#58ab40"/><path d="M89.57,2.15c1.9-.56,3.94-.22,4.81,1.36-1.98,1.45-5.76,1.38-7.39,3.37,2.06-1.17,4.46-1.77,7.18-2.32.32.55-.47,2.26-.73,2.67-.94,1.51-4.36,2.9-6.82,3.16-2.19.24-3.4-.38-4.99-1.22-1-.53-1.87-.68-2.42-1.08.51-.15,1.61.18,2.05.13,3.87-.42,4.93-5.07,8.32-6.07" fill="#80c342"/><path d="M143.4-8.34c-1.81,1.98-3.36,4.14-3.9,6.99,1.02-2.61,2.51-4.89,4.66-6.72.77.97,1.7,2.82,1.47,4.19-.35,2.06-5.81,2.85-7.13,7.07-1.26-2.24-1.89-5.51-.96-7.53.93-2,2.77-3.28,5.02-4.15.2.16.5.18.84.15" fill="#58ab40"/><path d="M123.22,1.62c.76-1.64.04-3.66-1.08-4.74,1.66.46,3.22,3.29,2.22,5.44-.5,1.07-1.94,2.31-3.13,3.41-1.8,1.65-2.93,3.25-3.77,5.45.17-1.14.11-2.12-.05-2.94.7-1.15,1.56-2.17,2.69-3.2,1.19-1.09,2.63-2.34,3.13-3.41" fill="#458e34"/><path d="M143.4-8.34l-.15.16c-1.85.86-3.34,2.05-4.15,3.78-.73,1.57-.5,3.9.23,5.92-.35.49-.64,1.04-.83,1.67-1.26-2.24-1.89-5.51-.96-7.53.93-2,2.77-3.28,5.02-4.15.2.16.5.18.84.15" fill="#458e34"/><path d="M92.95,8.43c1.35-.84,1.04-3.23,3.31-3.22l.02.1c.05.25.08.51.1.76-.27.97-.48,2.03-.4,3.1-.48,1.39-1.35,2.64-2.51,3.6-.54-1.37-.79-2.84-.51-4.34" fill="#458e34"/><path d="M93.47,4.7l.69-.14c.32.55-.47,2.26-.73,2.67-.94,1.51-4.36,2.9-6.82,3.16-2.19.24-3.4-.38-4.99-1.22-1-.53-1.87-.68-2.42-1.08.51-.15,1.61.18,2.05.13.32-.03.62-.1.91-.19,1.18.58,2.31.93,4.05.74,2.47-.27,5.88-1.66,6.82-3.16.1-.16.28-.51.44-.91" fill="#58ab40"/><path d="M113.94,101.8c-5.92-1.15-14.74-3.95-21.7-10.55,0-.02.04-.08.06-.09,1.1-.6,2.34-1.06,3.61-1.49,1.24-.42,2.51-.81,3.7-1.29.07-.03.14,0,.16.07.44,1.46.99,2.7,1.74,4.11.16.31.39.74.67,1.2.28.46.61.95.97,1.36.72.83,1.61,1.4,2.53.85.41-.25.79-.56,1.18-.88.39-.32.78-.64,1.21-.92.62-.39.55-.51,1.25-.87,1.94.65,4.45,1.43,6.1,1.78-.14.49-.21.44-.36.92-.3.95-.7,1.83-1.12,2.67-.42.85-.87,1.67-1.27,2.5-.02.05-.01.08.04.08.21.03.41.02.6,0,.19-.03.38-.08.56-.12.23-.05.44-.09.65-.07.14,0,.17.13.06.21-.22.17-.44.34-.66.51" fill="#231f20"/><path d="M82.06,58.1c.67-2.74,1.89-7.32,3-11.55.24-.1.52-.18.82-.25.39-.09.8-.17,1.2-.25.79-.16,1.55-.35,1.88-.72.64-.73.05-2.77-.4-3.36-.39-.52-1.12-.99-2.01-1.27.27-1.1.49-2.03.63-2.73,1.26-5.92,2.3-14.14-3.77-18.21-11.61-4.21-17.1,14.9-24.61,6.25-1.28-3.79-1.1-7.52.74-10.67,5.23-6.98,26.75-15.5,37.81,3.65,6.95,14.08-4.18,27.64-7.05,41.15-.38,1.98-.6,3.85-.69,5.62-.25-.57-.58-1.1-1.03-1.59-.47.15-.72.5-.92.88-.06.12-.12.24-.18.37-.07.14-.24.1-.22-.06.38-4.42-.74-8.4-3.52-9.56-.02,0-.06,0-.07.02-.16.26-.27.56-.37.87-.1.31-.17.64-.26.97-.13.52-.28,1-.54,1.37-.07.1-.18.08-.21-.04-.08-.31-.16-.61-.24-.9" fill="#231f20"/><path d="M98.73,29.83c-1.34,11.68-8.31,22.84-10.18,34.36-.44.16-.68.5-.88.87-.06.12-.12.24-.18.37-.07.14-.24.1-.22-.06.38-4.42-.74-8.4-3.52-9.56-.02,0-.06,0-.07.02-.08.14-.16.28-.22.44.7-3.27,1.63-6.65,2.53-9.99.35-.08.73-.15,1.09-.22.79-.16,1.55-.35,1.88-.72.64-.73.05-2.77-.4-3.36-.26-.35-.69-.68-1.21-.95,2.43-10.02,3.28-19.02-4.88-22.92-7.2-1.2-12.17,4.85-17.27,8.43-6.8,3.86-8.89-8.74-2.04-13.31,14.42-11.98,36.56-1.9,35.57,16.6" fill="#a8975f"/><path d="M111.11,100.03c-5.31-1.4-12.25-3.95-18.01-9.27.89-.41,1.85-.76,2.82-1.09,1.04-.35,2.09-.68,3.11-1.06.35.27.71.54,1.06.8.38,1.07.85,2.07,1.43,3.16.16.31.39.74.67,1.2.28.46.61.95.97,1.36.72.83,1.61,1.4,2.53.85.41-.25.79-.56,1.18-.88.39-.32.78-.64,1.21-.92.18-.11.36-.23.55-.34,1.83.67,3.61,1.18,5.24,1.55.36.64.91,2.03-.08,3.21-.69.83-1.79,1.22-2.68,1.41" fill="#a8975f"/><path d="M65.19,26.53c-6.35,3.6-8.59-7.14-3.28-12.3-.37,4.39,2.03,8.25,6.22,5.88,5.1-3.58,9.9-5.13,17.09-3.93,9.25,4.42,6.92,15.38,3.84,26.97-.14-.5-.33-.95-.5-1.18-.26-.35-.69-.68-1.21-.95,2.43-10.02,3.28-19.02-4.88-22.92-7.2-1.2-12.17,4.85-17.27,8.43" fill="#8c804f"/><path d="M111.11,100.03c-5.31-1.4-12.25-3.95-18.01-9.27.89-.41,1.85-.76,2.82-1.09l.62-.21c1.72,1.5,3.54,2.77,5.37,3.84.08.15.17.3.27.46.28.46.61.95.97,1.36.72.83,1.61,1.4,2.53.85.22-.13.44-.28.65-.45,2.75,1.19,5.42,2.02,7.76,2.63-.08.15-.18.3-.3.45-.69.83-1.79,1.22-2.68,1.41" fill="#8c804f"/><path d="M88.37,45.7c-1.06,3.92-2.11,7.87-2.74,11.6-.51-.67-1.14-1.19-1.89-1.5-.02,0-.06,0-.07.02-.08.14-.16.28-.22.44.7-3.27,1.63-6.65,2.53-9.99.35-.08.73-.15,1.09-.22.47-.1.93-.2,1.3-.35" fill="#8c804f"/><path d="M149.88,73.79c-.75,2.89-1.36,5.91-1.68,9.1-.61,6.06-.29,12.82.89,18.39,0,.01,0,.1-.01.11-.32.66-.83,1.13-1.37,1.54-.26.2-.54.39-.81.59-.2.15-.4.3-.58.46,2.26,1.43,3.81,3.4,4.24,6.47,2.85-.85,6.14.4,6.21,3.62,2.48-1.3,6.41-.51,7.56,1.82,1.41,2.86-1.15,4.07-3.3,4.64-.65.17-1.04.37-1.42.53-.39.17-.78.31-1.42.36-.05.07-.11.12-.17.17-.07.06-.15.12-.21.18-.12.11-.21.22-.23.4-.04.12,0,.23.21.4.14.12.31.23.46.33,1.74-2.54,8.74-3.32,10.38-.03.74,1.49.15,4.01-1.49,4.63-1.12-.01-1.85-.16-2.57-.27-.67-.1-1.35-.16-2.31-.04-.18,2.52-2.85,6.84-7.69,8.39-4.16,1.33-8.77-1.26-10.18-4.28-.16-.34-.26-.7-.34-1.07-.08-.36-.14-.73-.22-1.08-.15-.7-.34-1.3-.79-1.68-.52-.44-1.34-.63-2.22-.8-.44-.08-.88-.16-1.3-.26-.41-.1-.81-.23-1.14-.42-1.82-1.05-1.45-3.67-.72-5.41-1.24-1.47-2.55-2.32-5.29-2.44-1.83-.08-4.63.6-5.99,1.37-1.39.79-1.18,1.7-.15,2.92.63.74,1.5,1.37,2.42,1.96.93.59,1.91,1.13,2.72,1.69.05.03.09.14.07.2-.09.28-.23.37-.4.42-.05.02-.11.03-.18.05.6.74,1.31.77,2.11.6.44-.09.89-.25,1.35-.37.47-.13.95-.24,1.44-.23,3.18.06,2.16,4.85.92,6.08-1.96,1.95-5.32,1.68-7.79.57-.72.55-2.32,4.12-2.23,4.86.02.2.1.38.21.57.11.2.25.38.38.57.25.38.47.83.33,1.43,2.37,3.21-.87,7.12-4.52,6.29-1.31-.3-2.32-1.19-2.88-2.31-2.02,2.66-6.83,1.14-7.31-2.09-1.79-.26-2.67-2.58-2.61-4.25.07-1.85,1.12-3.34,2.37-4.53.63-.6,1.31-1.12,1.95-1.58.55-.39,1.07-.74,1.51-1.05-3.27-1.96-5.59-6-5.73-10.18-.48.31-.91.78-1.31,1.26-.24.28-.47.56-.7.82-.23.25-.46.49-.71.66-.02.01-.13.03-.15.02-.44-.13-.55-.58-.58-.96-.03-.38.03-.79.05-1.02.2-2.13,1.14-4.49,1.88-6.14-.53.11-1.1.4-1.67.72-.34.19-.68.39-1.01.55-.33.17-.66.3-.98.37-.04,0-.15-.03-.17-.06-.38-.48-.02-1.97.39-3.31.43-1.41.98-2.86,1.18-3.44,2.16-3.64,4.62-6.96,7.94-9.44-.19-.01-.39.02-.61.07-.18.04-.37.09-.57.12-.2.03-.41.04-.64,0-.13-.02-.19-.13-.13-.25.4-.84.85-1.66,1.27-2.51.42-.84.81-1.71,1.11-2.66.57-1.79,1.03-3.62,1.51-5.54-2.62.99-5.88,2.29-8.33,3.85-.43.27-.82.6-1.2.91-.39.32-.78.64-1.2.89-1,.6-1.96-.05-2.68-.88-.37-.42-.7-.92-.98-1.38-.28-.46-.51-.89-.67-1.2-.76-1.42-1.31-2.67-1.75-4.13-1.19.47-2.46.87-3.71,1.29-1.27.43-2.51.88-3.6,1.48-.07.49-.07.93-.11,1.32-.04.43-.13.83-.42,1.18-.01.01-.1.06-.12.06-.78.05-1.22-.26-1.53-.69-.07-.1-.14-.21-.2-.33-.06-.11-.12-.22-.17-.33-.08-.17-.16-.33-.25-.47-.22.15-.42.33-.6.52-.23.24-.45.49-.68.74-.46.5-1,.97-1.82,1.16-.07.02-.17-.04-.2-.1-.32-.72-.2-1.42.03-2.05.19-.51.46-.99.65-1.42-.22.02-.45.08-.69.14-.35.09-.7.21-1.05.3-.67.18-1.4.29-1.9-.21-.01-.01-.05-.11-.05-.12,0-.44.29-.8.62-1.09.17-.15.35-.28.54-.41l.18-.12c-4.1-1.02-7.94-2.37-10.07-5.46-.05-.07-.03-.19.04-.24.18-.14.46-.24.76-.29-1.13-.63-2.32-1.21-3.4-1.91-1.29-.84-2.44-1.86-3.1-3.38-.06-.13.01-.24.15-.25.6-.03,1.25.09,1.87.26.27.07.54.15.8.24-2.43-1.94-4.54-4.54-5.23-7.86-.02-.08.04-.18.12-.21.44-.13.82.05,1.14.24.16.09.31.19.47.28l.09.05c-.2-.4-.47-.84-.72-1.32-.34-.65-.67-1.39-.81-2.24-.18-1.05-.17-2.16-.14-3.28.03-1.12.06-2.27-.06-3.41-.02-.17-.06-.33-.11-.49-.05-.17-.11-.33-.16-.49-.11-.33-.2-.69-.13-1.06.01-.07.1-.15.18-.15.75.03,1.31.46,1.79.96.24.25.46.52.68.78.12.15.24.29.36.42.07-.71.35-1.34.65-1.93.18-.35.38-.7.56-1.05.15-.29.3-.59.41-.89-.92-.36-1.84-.71-2.73-1.1-.94-.41-1.85-.86-2.67-1.4-1.62-1.06-2.94-2.45-3.58-4.51-3.52-.22-7.37-2.22-7.62-5.74-.1-1.34.87-2.92,2.26-2.98.75-.03,1.4.32,1.95.74.55.42,1.03.93,1.46,1.29,1.02.85,1.92,1.41,3.33,1.64.06-.05.11-.11.16-.19l.1-.16c-2.39-1.22-5.4-4.04-5.09-7.26.12-1.22,1.5-3.26,3.24-2.44.56.26,1.07.82,1.53,1.43.46.6.91,1.28,1.32,1.81.94,1.21,1.79,2.3,2.71,3.12.17-.02.28-.09.4-.18.07-.06.13-.12.2-.18l.1-.09c-.28-.44-.62-.98-.96-1.59-.39-.67-.78-1.43-1.09-2.24-.64-1.62-.98-3.46-.37-5.26.22-.63,1.11-1.78,2.13-2.48,1.01-.7,2.28-1.03,3.08.26.39.63.51,1.76.58,2.89.07,1.14.09,2.33.24,3.15.15.8.42,1.44.74,2.02.31.57.67,1.08.99,1.64.24.05.35.06.54.03-1.05-2.61-1.81-7.23.31-9.75.62-.73,3.19-2.37,4.46-.9.34.4.48,1.58.44,2.32-.04.84-.19,1.7-.31,2.59-.12.87-.23,1.76-.19,2.68.11,2.56.78,5.53,1.62,7.55,2.21-4.4,7.29-3.24,8.61-1.47.45.6,1.1,2.71.39,3.51-.36.41-1.17.6-1.94.76-.4.08-.81.16-1.2.25-.38.09-.73.2-1,.33-1.46.72-2.32,1.53-2.49,3.64l-.03.08c-.7,1.11-1.57,1.68-2.23,2.11-.16.1-.32.2-.45.29-.13.09-.25.18-.34.26-.18.17-.25.32-.24.52.02.26.3.56.73.91.2.17.42.33.62.49.2.16.38.33.51.5.44.57.74,1.17.97,1.8.19.52.33,1.06.47,1.62.24-.35.39-.82.52-1.33.08-.33.16-.66.26-.97.1-.32.21-.63.38-.9.04-.06.15-.1.22-.07,2.86,1.19,3.97,5.25,3.59,9.68.06-.12.12-.25.18-.37.21-.39.48-.78.99-.94.04-.01.15.02.19.05.98,1.1,1.4,2.46,1.61,4.01.19,1.4.21,2.98.3,4.69.04-.07.08-.16.11-.24.11-.28.21-.61.31-.94.2-.66.44-1.42.91-1.84.02-.02.13-.05.16-.04.36.09.58.37.73.66.15.29.24.62.29.87.25,1.05.21,2.35.08,3.64-.12,1.2-.32,2.43-.45,3.47,1.88-.28,3.41-.92,5.15-1.34.04-.14.06-.33.06-.55,0-.26,10.96-3.3,14.06-4.47,1.67,1.44,3.57,2.36,5.86,3.55,1.55.62,9,5.13,22.46,3.12,3.8-1.4,6.94-3.06,9.49-4.9" fill="#231f20"/><path d="M148.9,39.64c1.23-.24,2.36-1.1,3.2-2.35.36-.74.58-1.55.64-2.32.03-1.85-1.03-3.36-2.4-4.52l-.23-.13c.29-2.02.51-3.78.43-4.14-.03-.14-.3-.5-.76-1.05-.44-.52-1-1.16-1.56-1.83-1.09-1.3-2.24-2.8-2.17-3.66,0-.05.08-.14.13-.16.48-.14.87.03,1.21.23.16.09.32.2.49.29l.1.05c-.56-1.09-1.25-2.31-1.85-3.61-.67-1.47-1.23-3.06-1.36-4.74,0-.11.07-.19.18-.19.69.03,1.22.42,1.66.88.22.23.43.47.64.71.09.1.18.2.26.3-.12-1.34-.26-2.82-.26-4.24,0-1.6.16-3.14.72-4.34.07-.15.21-.16.3-.03.47.66.78,1.08,1.03,1.43.15.21.28.4.41.61.1-1.03.16-2.1.3-3.09.17-1.17.45-2.26,1.07-3.04.03-.04.14-.07.19-.06.36.1.54.36.68.6.07.12.13.24.19.36.3-.84-.1-2.27-.46-3.15-2.65-1.11-5.35-6.05-2.29-8.58,2.09-1.59,4.9-2.73,7.17-2.36,2.94.48,2.08,3.13,2.08,3.13l8.47.77c-.11.04-.24.07-.38.09-.56,2.73-1.43,5.21-3.39,6.63-.07.15-.14.28-.23.4-.09.13-.18.25-.27.38-.12.16-.22.32-.29.51.47-.18,1.09-.4,1.75-.58.82-.22,1.72-.38,2.5-.31.13.01.19.12.15.24-.11.28-.27.57-.45.86-.18.29-.38.58-.59.88-.32.46-.63.93-.87,1.42.31-.16.65-.36,1.02-.55.55-.29,1.16-.58,1.77-.75.13-.04.23.04.22.18-.16,3.47-.55,5.75-2.24,9.11.4-.18.69-.41.99-.65.2-.16.4-.33.64-.47.24-.15.52-.29.88-.39.12-.03.22.04.23.16.27,5.1-2.39,8.68-4.76,10.95.24-.11.55-.25.94-.14.1.03.15.13.12.23-.26.74-.69,1.29-1.18,1.77-.39.39-.82.75-1.22,1.14.18,0,.33-.02.48-.03.32,0,.69.04.91.46.01.03.01.14,0,.17-.62,1.15-1.66,1.88-2.69,2.55.09.08.16.13.23.17.15.11.34.26.39.55,0,.01-.01.1-.02.12-.25.44-.67.7-1.09.9-.2.1-.41.2-.62.3-.18.09-.34.19-.49.3-.78,2.96-1.46,6.01-2.15,9.07,3.95,1.82,7.35,4.24,9.32,8.1.02.04,0,.16-.02.19-.68.82-1.42,1.6-2.16,2.39-.73.79-1.46,1.59-2.12,2.49-1.15,1.58-2.31,3.07-3.45,4.6-.84-6.3-4.79-12.05-10.08-15.22v-.02Z" fill="#231f20"/><path d="M158.9,124.64c.08.02.1.1.2.1-1.36-1.4,1.26-2.74,2.49-3.09,2.51-.71,6.72.14,6.58,2.99-.13,2.67-3.94,2.61-4.98.3.06-.24.12-.55.2-1-1.01.05-.6,2.11-.1,2.39-1.36.23-1.49-.77-2.09-1.3-.4.77.43,1.16.6,1.69-.81,3.83-3.74,6.89-7.28,7.98-2.81.86-6.58-.41-8.07-1.89-1.58-1.57-1.6-3.9-2.79-5.98-.77-.41-1.53-.71-2.49-1-.88-.26-2.13-.3-2.69-.8-.87-.77-.72-3.12-.2-3.99.75-1.24,3.45-1.85,5.08-1.1.71.33,1.61,1.15,1.99,1.69.49.68.37,1.71,1.1,2.39,1.69-2.7-.04-7.71,1.59-10.67.61-1.11,2.85-2.88,5.18-2.39,1.2.25,2.87,1.59,2.79,3.09-.14,2.74-5.05,3.02-5.68.3-.48,1.36,1.12,2.23,2.29,2.59-.63,1.02-2.28.42-3.09,0,.57.73,1.32,1.27,2.79,1.1.15.74.21,1.59.2,2.49-.64.22-1.62.1-1.99.6.43.85,1.4.02,2.09,0,2.5-.08,4.89,2.12,6.28,3.49" fill="#efbd9b"/><path d="M132.38,108.49c3.12.2,5.61-1.23,8.18-1.89-.32,4.57-2,8.63-4.49,11.37-2.48-.86-6.1-.75-8.57.3-3.31-1.91-4.17-7.51-3.89-12.06.09-.06.18-.12.2,0,2.48,1.12,5.51,2.1,8.57,2.29" fill="#fdd5b5"/><path d="M148.03,106.3c.77,1.23,1.68,2.31,1.79,4.19-.83.18-1.95-.64-2.79-.2.66.25,1.46.56,2.29.9-3.48,1.84-2.32,7.3-2.79,11.56-.94-3.07-5.71-5.25-8.47-2.49-.35-.82-.92-1.41-1.59-1.89,2.45-3.28,4.23-7.33,4.59-11.96,2.31-.6,4.59-.74,6.98-.1" fill="#a8975f"/><path d="M120.41,103.61c.85.81,2,1.33,2.79,2.19-.46,4.66.57,10.3,3.49,12.56-1.46.96-3.01,2.16-3.29,3.99.67-.19.52-1.2,1.3-1.3.93,2.72,3.58,3.73,5.58,5.38-1.6.37-3.6.69-4.98.7.62.94,2.05,1.07,3.09,1.59-.4.35-1.13.38-1.69.3-.25.78.56.5.9.7-.74.72-2.32.57-3.19.4.18.88,1.13,1,1,2.19-.79-.35-2.11-.3-2.69-1.1-.72.41-1.14,1.12-1.5,1.89-.37-.29-.05-1.46.1-2.09-1.28-.08-2.12,1.13-2.99,1.79-.32-.18-.11-.88-.4-1.1-.8-.7-1.64-1.35-2.69-1.79-1.92-1.87-3.98-5.21-4.09-8.57-.02-.52.25-1.06-.2-1.49-1.33.73-2.25,1.87-3.19,2.99-.16-3.18,1.41-5.5,2.19-8.08-1.57-.03-3.12,1.33-4.39,1.6.77-5.5,3.81-8.51,4.79-9.77.78-1,1.57-2.11,2.39-2.79,4.56-3.76,7.38-.2,7.68-.2" fill="#a8975f"/><path d="M135.77,105.2c4.45-1.06,8.82-3.89,11.76-6.48.42.61.08,1.98.6,2.49-1.43,2.01-3.89,2.95-6.48,4.09-2.12.93-5.13,2.28-7.98,2.59-1.69.19-4.49-.36-5.98-.8-2.64-.77-4.4-2.18-6.38-3.59-2.02-1.44-3.83-3.01-7.28-3.09.08-.62.49-.91.6-1.49,4.11-.5,5.82,2.22,8.37,3.69,3.14,1.8,7.82,3.76,12.76,2.59" fill="#fff"/><path d="M101.27,90.45c-.05-2.39,3.55-2.75,4.79-.8-.12,1.55-.04,5.48-1.3,5.68-.81.13-3.47-4.01-3.49-4.89" fill="#5d1e79"/><path d="M136.56,79.11c-.15.07-.31.12-.49.17-.52.15-1.24.09-1.97-.08.79,0,1.61-.04,2.46-.09" fill="#8c804f"/><path d="M139.56,78.81c-1.09,1.99-3.05,3.2-5.69,2.76-1.75-.29-3.45-1.34-4.66-2.63.97.11,1.99.19,3.08.23,1.17.56,2.56.89,3.87.7.67-.09,1.17-.41,1.57-.87.6-.05,1.21-.12,1.83-.2" fill="#fff"/><path d="M109.05,90.65c-.06.9.08,2.05-.3,2.49-.96.27-1.78,1.21-2.49,1.4,1.19-6.58-.44-12.75-3.19-16.95-.86-.91-1.13-1-1.79-1.4.13-.04,1.46-.4,2.35-.64,1.21.39,2.63,2.75,3.13,3.74,1.45,2.87,2.5,8.27,2.29,11.37" fill="#c4e0e7"/><path d="M148.77,74.56c-.73,3.16-1.34,6.52-1.53,10.01-.22,3.79.4,12.6.3,13.16-.13.67-1.69,1.95-2.29,2.39-4.24,3.12-10.21,5.85-17.05,4.39-5.96-1.28-7.71-6.36-13.16-6.08,1.44-4.25,2.85-9.12,2.39-14.16-.72,1.43-.11,3.75-.6,5.08-2.69.97-5.17,2.14-7.48,3.49.46-5.79-.87-12.11-3.59-15.95-.41-.58-.89-.92-1.56-1.56.88-.25,2.12-.55,3.26-.91,1.86-.52,3.64-1.13,5.33-1.83,1.49,1.13,3.18,1.95,5.15,2.97,1.01.4,4.5,2.45,10.52,3.28,2.26,2.57,6.53,4.35,9.41,2.63.88-.53,1.63-1.5,2.22-2.74l.31-.05c3.26-1.2,6.04-2.6,8.37-4.13" fill="#6f2c91"/><path d="M78.24,57.75c.02-.83.15-2.17.3-3.19,1.99,1.23,3.06,3.39,3.69,5.98.9-.99,1.28-2.51,1.69-3.99,3.33,2.34,3.28,8.35,1.99,12.76,1.12-1.07,1.55-2.83,2.39-4.19,1.52,2.05,1.87,6.84,1.69,10.17,1.07-1.09,1.52-2.8,2.09-4.39.93,2.63.1,4.94,0,7.98.83.62,7.44-1.53,8.18-1.5.98.05,2.24,1.13,2.79,1.69,2,2.05,1.68,6.56-1.05,7.55-1.34.48-9.19,3.62-10.52,3.81.16.67-.02,1.87-.1,2.59-1.03-.2-.97-1.49-1.3-2.39-1.25.85-2.09,2.1-3.29,2.99-.14-1.44.91-2.54,1.49-3.59-1.14-.21-2.67.65-4.19.7.44-.49.82-1.04,1.79-1,.61-1.05-1.33-.9-2.39-1.3-2.44-.9-6.34-2.44-7.68-4.29.84-.02,1.68.29,2.79.2-1.76-1.1-7.39-4.15-8.27-5.58.85.09,2.03.5,3.09.5-2.13-2.49-4.98-4.26-5.88-7.98,1.07.28,2.12,1.05,3.09,1.1.07-.54-.68-.68-1-1-2.44-2.43-2.4-6.91-2.39-11.56.36-.08,2.02,2.31,2.59,2.49-.43-2.78,1.11-3.85,1.3-4.69.75.68,2.23,4.37,2.79,1.3.24-1.3-.09-2.16,0-3.59,1.58.64,3.1,1.35,4.29,2.39" fill="#a8975f"/><path d="M149.06,39.76l.02-.09v-.12c.53-.11,1.03-.34,1.5-.67,2.84.43,8.91,2.12,13.3,8.4.12.17-2.31,2.81-5.09,6.45-1.12-5.78-4.84-10.98-9.73-13.98" fill="#6f2c91"/><path d="M154.61,37.01c4.87,1.51,9.14,4.27,11.26,8.18-.4.64-1.11,1.47-1.69,1.59-3.8-5.68-9.61-7.71-13.1-8.3.37-.34.72-.74,1.03-1.19.11-.22.2-.45.29-.68.78.07,1.54.19,2.21.4" fill="#fff"/><path d="M63.39,37.71c1.21,1.55,2,2.5,3.19,3.79-.85.64-1.59,1.4-2.29,2.19-2.16-.9-4.88-3.16-5.18-5.78-.11-.96.65-3.11,2.19-2.69.57.15,1.61,1.87,2.09,2.49" fill="#efbd9b"/><path d="M67.08,30.13c.66-.44,1.72-1.3,2.79-.7.73,3.01.49,7.62,2.59,9.57-1.45.24-2.73.66-3.79,1.3-.61-1.21-2.05-3.05-2.49-4.98-.47-2.03-.08-3.76.9-5.18" fill="#efbd9b"/><path d="M73.36,32.83c.2-2.46,1.79-4.75,4.49-4.19.64,2.12-.47,5.17-.2,7.98.31,3.2,1.15,5.95,2.29,8.37.7-.77,1.14-1.78,1.79-2.59,2-1.75,7.16-1.87,6.88,2.09-.41.86-2.25.8-3.49,1.3-1.84.74-3.18,1.56-3.39,4.09-.85,2.08-2.84,1.81-3.39,3.59.06.36-.47.12-.5.4.06.98.14,1.74,0,2.69-1.47-.75-2.91-1.54-4.49-2.19-.21,1.47.5,3.39-.1,5.08-1.18-.72-1.28-2.5-1.99-3.69-3.99-1.19-7.71-2.66-8.77-6.78-2.44-.32-6.21-1.34-7.18-3.49-.44-.97-.57-2.42.1-3.19,1.67-1.91,4.12,1.74,5.78,2.59.36.18,1.47.2,1.89.6.38.35.8-.8,1.59-1.6,1.57-1.57,2.72-2.33,4.89-3.39,1.67-.82,3.62-.8,5.68-1.2.02-.32-.52.02-.7-.3-.16-1.69-1.38-3.91-1.2-6.18" fill="#fdd5b5"/><path d="M155.8,1.62c.3-1.66,1.16-2.77,2.09-3.79.38,1.14-.68,2.5.2,3.39,1.18-1.45,2.78-2.47,4.49-3.39-.46,1.05-1.3,2.2-1.4,3.29.88-.2,1.34-.97,2.09-1.3.77-.33,1.64-.29,2.59-.6-.72,1.37-1.83,2.36-2.09,4.19,1.39.01,1.95-1.63,3.49-1.79-.19.54-.15,1.04-.2,1.79-.24,3.58-2.71,8.16-2.69,8.27,1.04-.42,2.27-1.52,3.39-2.19-.17,4.25-3.24,9.18-5.88,11.07,1.16.12,1.11-.18,1.59-.3-.37,1.33-2.17,2.08-3.29,2.99,1.49.41,1.77-.36,2.69-.1-.54,1.13-2.2,1.98-3.59,2.59.09.61,1.16.24,1.5.6-.53.5-1.27.79-1.99,1.1-.23,2.32-.95,4.33-1.4,6.68-.56.8-.89.88-1.4,1.2-1.11.7-2.29.63-3.32.16.03-.17.05-.34.06-.51.03-1.64-.8-3.02-1.95-4.11.35-2.14.79-4.53.71-4.81-.12-.41-1.92-2.26-2.59-3.09-.62-.78-1.54-1.48-1.79-2.49.71.33,1.57.77,2.39.7-1.47-2.06-3.14-5.76-3.99-8.37,1.19,0,1.64,2.14,2.89,2.09-.28-2.88-1.02-5.96-.2-8.97.99.84,1.05,2.61,2.19,3.29.43-2.14-.39-5.29.8-7.28.65.31.67,1.26,1.6,1.3.43-1.76.11-3.48-.4-5.28,1.41.95,2.64,2.08,3.39,3.69" fill="#a8975f"/><path d="M158.1-10.24c-.41,2.34-4.6,3.92-6.48,4.69.92.37,2.22-.47,2.99-.9,1.33.32,1.56.44,3.49,1.6-.21-.85-1.59-1.4-2.39-1.99.76-.59,1.58-1.46,2.99-1.7,2.34-.39,6.16-.08,6.78,1.6-.25,1.77-1.14,2.92-1.99,4.09-2.08.61-3.76,1.63-5.08,2.99-.26-.88.42-2.14.1-3.09-1.52.48-2.06,1.93-2.79,3.19-1.17-1.36-2.27-2.78-4.09-3.49-.1.03-.27.32-.18.45-1.32-.86-2.81-2.36-2.61-5.03.92-1.6,3.06-3.76,5.68-4.09,1.38-.17,3.9-.1,3.59,1.69" fill="#efbd9b"/><path d="M147.91,100.85c.05.15.12.27.22.37-1.43,2.01-3.89,2.95-6.48,4.09-2.12.93-5.13,2.28-7.98,2.59-1.69.19-4.49-.36-5.98-.8-2.64-.77-4.4-2.18-6.38-3.59-2.02-1.44-3.83-3.01-7.28-3.09.08-.62.49-.91.6-1.5,4.11-.5,5.82,2.22,8.37,3.69,1.36.78,3.02,1.6,4.86,2.17,0,.67.03,1.12.06,1.26.27,1.23,4.97,2.23,9.97,0,3.33-1.48,7.39-3.15,10.01-5.2" fill="#c4e0e7"/><path d="M139.56,78.81c-.06.11-.12.22-.19.32-1.9,1.01-3.77,1.69-5.34,1.69-.49,0-.94.15-1.35.44-1.31-.47-2.53-1.32-3.46-2.32.97.11,1.99.19,3.08.23,1.17.56,2.56.89,3.87.7.67-.09,1.17-.41,1.57-.87.6-.05,1.21-.12,1.83-.2" fill="#c4e0e7"/><path d="M127.86,104.43c-5.7-1.39-7.49-6.28-12.83-6.01,1.44-4.25,2.85-9.12,2.39-14.16-.72,1.43-.11,3.75-.6,5.08-2.69.97-5.17,2.14-7.48,3.49.32-3.95-.2-8.14-1.42-11.62l10.45-3.04s-4.58-2.58-7.86-4.72c.77-.27,1.53-.56,2.27-.86,1.49,1.13,3.18,1.95,5.15,2.97,1.01.4,4.5,2.44,10.52,3.28,1.01,1.17,2.38,2.13,3.9,2.67-3.8,3.36-4.51,17.95-4.48,22.91" fill="#5d1e79"/><path d="M149.06,39.76l.02-.09v-.12c.53-.11,1.03-.34,1.5-.67,1.48.22,3.84.79,6.39,2.17l-2.09,4.01c-1.61-2.13-3.59-3.95-5.82-5.32" fill="#5d1e79"/><path d="M154.61,37.01c1.29.4,2.53.88,3.71,1.46l-1.09,2.1c-2.26-1.19-4.47-1.8-6.14-2.08.37-.34.72-.74,1.03-1.19.11-.22.2-.45.29-.68.78.07,1.54.19,2.21.4" fill="#c4e0e7"/><path d="M101.27,90.45c-.01-.68.26-1.19.7-1.53-.01.1-.02.2-.01.3.02.88,2.67,5.02,3.49,4.88.07-.01.14-.04.2-.07-.18.71-.45,1.23-.89,1.3-.81.13-3.47-4.01-3.49-4.89" fill="#5d1e79"/><path d="M105.25,82c-.59-1.63-1.33-3.12-2.18-4.41-.86-.91-1.13-1-1.79-1.4.13-.04.26-.09.39-.15.39-.09,1.07-.26,1.96-.5,1.21.39,2.63,2.75,3.13,3.74.3.59.58,1.28.83,2.04l-2.34.68Z" fill="#fff"/><path d="M155.8,1.62c.3-1.66,1.16-2.77,2.09-3.79.38,1.14-.68,2.5.2,3.39.21-.25.43-.5.66-.72,0,.6-.05,1.2-.2,1.8-.92-.04-.95-.98-1.6-1.3-1.19,1.98-.37,5.14-.8,7.28-1.15-.68-1.21-2.45-2.19-3.29-.82,3.02-.08,6.09.2,8.97-1.25.05-1.7-2.09-2.89-2.09.85,2.61,2.52,6.32,3.99,8.37-.82.08-1.68-.36-2.39-.7.25,1.01,2.95,4.63,3.07,5.04.07.26-1.07,6.26-1.99,11.24-.43-.04-.86-.16-1.26-.35.03-.17.05-.34.06-.51.03-1.64-.8-3.02-1.95-4.11.35-2.14.79-4.53.71-4.81-.12-.41-1.92-2.26-2.59-3.09-.62-.78-1.54-1.48-1.79-2.49.71.33,1.57.77,2.39.7-1.47-2.06-3.14-5.76-3.99-8.37,1.19,0,1.64,2.14,2.89,2.09-.28-2.88-1.02-5.96-.2-8.97.99.84,1.05,2.61,2.19,3.29.43-2.14-.39-5.29.8-7.28.65.31.67,1.26,1.6,1.3.43-1.76.11-3.48-.4-5.28,1.41.95,2.64,2.08,3.39,3.69" fill="#8c804f"/><path d="M63.39,37.71c.93,1.19,1.62,2.03,2.42,2.94-.54.21-1.33.35-2.45.21-1.98-.25-3.23-3.34-3.74-4.88.37-.57.93-.96,1.68-.76.57.15,1.61,1.87,2.09,2.49" fill="#fdd5b5"/><path d="M67.83,29.64c.59-.35,1.31-.61,2.03-.2.66,2.69.53,6.65,1.99,8.86l-1.18.82s-1.13-.56-1.81-2.48c-.62-1.75-1.28-4.44-1.04-6.99" fill="#fdd5b5"/><path d="M74.41,39.45c-1,.66-6.28,4.3-6.48,7.72-.23,3.77,7.1,6.08,9.29,3.77,2.19-2.31,3.78-6.08,6.53-6.76,1.68-.41,3.58-.62,4.8-.71.06.3.09.64.06,1.02-.41.86-2.25.8-3.49,1.3-1.83.74-3.18,1.56-3.39,4.09-.85,2.08-2.84,1.81-3.39,3.59.06.36-.47.12-.5.4.06.98.14,1.74,0,2.69-1.47-.75-2.91-1.54-4.49-2.19-.21,1.47.5,3.39-.1,5.08-1.18-.72-1.28-2.5-1.99-3.69-3.99-1.19-7.71-2.66-8.77-6.78-2.44-.32-6.21-1.34-7.18-3.49-.39-.86-.54-2.09-.1-2.9,1.6,1.4,5.13,4.38,6.29,4.46,1.11.08,1.58-.94,1.76-1.5.34-.05.74-.98,1.42-1.66,1.57-1.57,2.72-2.33,4.88-3.39l.13-.06.23-.1c1.35-.56,2.87-.65,4.48-.89M75.97,39.23h-.73c-.07-.18-.53.06-.69-.22-.16-1.69-1.38-3.91-1.2-6.18.15-1.86,1.1-3.63,2.73-4.13-.6,1.04-1.06,2.62-1.06,4,0,2.19.95,6.53.95,6.53" fill="#efbd9b"/><path d="M74.45,51.47c-2.37.94-4.37-.61-4.49-3.09.08-.09.27-.06.3-.2.08.05.16.1.3.1.26,2.19,1.55,3.34,3.89,3.19" fill="#c6876d"/><path d="M104.1,80.9c.67,2.2-.01,4.98-2.09,5.73-1.34.48-9.19,3.62-10.52,3.81.16.67-.02,1.87-.1,2.59-1.03-.2-.97-1.49-1.3-2.39-1.25.85-2.09,2.1-3.29,2.99-.14-1.44.91-2.54,1.5-3.59-1.14-.21-2.67.65-4.19.7.44-.49.82-1.04,1.8-1,.61-1.05-1.33-.9-2.39-1.3-2.44-.9-6.34-2.44-7.68-4.29.84-.02,1.68.29,2.79.2-1.76-1.1-7.39-4.15-8.27-5.58.85.09,2.03.5,3.09.5-2.13-2.49-4.98-4.26-5.88-7.98,1.06.28,2.12,1.05,3.09,1.1.07-.54-.68-.68-1-1-2.44-2.43-2.4-6.91-2.39-11.56.36-.08,2.02,2.31,2.59,2.49-.43-2.78,1.11-3.85,1.3-4.69.46.42,1.21,1.99,1.84,2.4.32,1.76.92,3.27,2.02,4.37.32.32,1.07.45,1,1-.97-.05-2.03-.82-3.09-1.1.91,3.71,3.75,5.49,5.88,7.98-1.06,0-2.24-.4-3.09-.5.89,1.43,6.51,4.48,8.27,5.58-1.11.09-1.95-.22-2.79-.2,1.33,1.84,11.66,7.54,11.5,6.88.86-.13,8.61-2.08,11.4-3.16" fill="#8c804f"/><path d="M132.38,108.49c3.12.2,5.61-1.23,8.18-1.89-.02.29-.05.57-.08.86-2.73,1.26-5.88,2.45-8.18,2.52-2.9.09-5.94-.64-8.72-1.3-.03-.84-.01-1.68.03-2.48.09-.06.18-.12.2,0,2.48,1.12,5.51,2.1,8.57,2.29" fill="#efbd9b"/><path d="M149.44,108.74c.2.51.34,1.08.38,1.75-.83.18-1.95-.64-2.79-.2.66.25,1.46.56,2.29.9-3.48,1.84-2.32,7.3-2.79,11.57-.94-3.07-5.71-5.25-8.47-2.49-.35-.82-.92-1.41-1.6-1.89.78-1.04,1.49-2.16,2.11-3.35,4.16.94,5.47,2.8,5.47,2.8,0,0-1.21-6.84,5.39-9.07" fill="#8c804f"/><path d="M140.97,107.22c.03-.27.06-.55.08-.82.82-.21,1.64-.37,2.46-.45-.75.4-1.62.84-2.54,1.27" fill="#8c804f"/><path d="M120.41,103.61c.85.81,2,1.33,2.79,2.19-.09.9-.12,1.83-.1,2.77-1.85-.44-3.58-.82-5.05-.88-3.77-.15-6.79,5.16-6.79,5.16l1.98-.15s-2.48,4.51-1.68,4.81c.79.3,2.28-1.49,2.28-1.49,0,0,1.79,7.34,3.77,9.48,1.98,2.13,4.86,3.62,4.86,3.62l-.15,1.09,1.49-1.09,1.54.05s-1.88-3.03-.94-3.03-2.43-2.92-2.58-4.41c-.08-.81,1.18-2.94,3.62-4.68.37.51.78.95,1.24,1.31-1.46.96-3.01,2.16-3.29,3.99.67-.19.52-1.2,1.3-1.3.93,2.72,3.58,3.73,5.58,5.38-1.6.37-3.6.69-4.98.7.62.94,2.05,1.07,3.09,1.59-.4.35-1.13.38-1.69.3-.25.78.56.5.9.7-.74.72-2.32.57-3.19.4.18.88,1.13,1,1,2.19-.79-.35-2.11-.3-2.69-1.1-.72.41-1.14,1.12-1.5,1.89-.37-.29-.05-1.46.1-2.09-1.28-.08-2.12,1.13-2.99,1.79-.32-.18-.11-.88-.4-1.1-.8-.7-1.64-1.35-2.69-1.79-1.92-1.87-3.98-5.21-4.09-8.57-.02-.52.25-1.06-.2-1.49-1.33.73-2.25,1.87-3.19,2.99-.16-3.18,1.41-5.5,2.19-8.08-1.57-.03-3.12,1.33-4.39,1.6.77-5.5,3.81-8.51,4.79-9.77.78-1,1.57-2.11,2.39-2.79,4.56-3.76,7.38-.2,7.68-.2" fill="#8c804f"/><path d="M150.26,117.68c.49.33,1.13.5,2.06.39.15.74.21,1.59.2,2.49-.61.21-1.51.12-1.93.52-.49,0-1.91-1.03-1.99-2.3-.04-.63.8-.95,1.66-1.11M150.29,115.23c.26.88,1.42,1.46,2.33,1.74-.19.3-.46.46-.78.53-.36-.06-1.24-.26-1.97-.93-.95-.87.08-1.66.08-1.66,0,0,.13.14.35.32M152.11,110.91c.36-.02.73,0,1.1.07,1.2.25,2.87,1.59,2.79,3.09-.07,1.33-1.26,2.08-2.55,2.19-.65-.22-2.67-1.02-2.8-2.55-.09-1.03.73-2.08,1.46-2.8M137.89,122.27c.07-.49.2-.93.37-1.22.75-1.24,3.45-1.85,5.08-1.1.71.33,1.61,1.15,1.99,1.69.49.68.37,1.71,1.1,2.39.11-.17.2-.35.28-.53-.02,1.49-.57,1.99-.57,1.99,0,0-1.58-2.69-3.48-3.48-1.6-.67-4.05.01-4.77.25M158.9,124.64c.08.02.1.1.2.1-1.36-1.4,1.26-2.74,2.49-3.09,2.51-.71,6.72.14,6.58,2.99-.01.29-.07.55-.17.78-3.36,1.43-4.61-2.37-4.61-2.37l-.29.97c-.2.13-.3.38-.33.68-.28.13-.9.44-1.28.67-.09-.12-.19-.24-.3-.34-.09.16-.12.31-.11.44-.68-.06-1.88-.77-1.88-.77,0,0,1.58,1.11,1.58,1.82s-3.64,6.25-6.09,6.01c-2.45-.24-.87-2.53-.87-2.53,0,0-2.45,2.21-4.59,1.19-2.14-1.03-1.5-4.75-.08-7.28,1.25-2.22,6.76-1.09,8.1-.78.64.52,1.2,1.05,1.65,1.5" fill="#fdd5b5"/><path d="M117.93,75.57c-3.36-1.74-5.89-2.9-8.05-5.98,0,0-.67,4.8-6.17,3.98-6.04-.48-11.41-6.74-8.13-12.11,1.92-2.21,4.94-2.46,7.49-2.01-4.96-4.61-8.73-17.23.18-25.63-.81-.06-2.38.79-2.79-.14,1.74-2.23,4.17-3.34,6.52-4.48-.75-.7-2.27-.31-2.74-1.36,1.87-1.43,4.15-2.3,6.54-2.55-4.82-3.53-2.71-3.17-2.71-3.17,2.56-.32,5.01.32,7.11,1.15.23-1.2-.11-2.73.1-4.2,2.12-.26,3.06,2.22,3.93,3.76,4.23-3.79,8.65-4.69,8.65-4.69.11,1.42-1.53,2.92-2.23,4.32,6.79.7,13.86,3.97,17.93,9.86,2.35-4.19,5.46-2.62,6.79-1.87,1.38,1.15,2.43,2.67,2.4,4.52-.07.77-.28,1.59-.64,2.32-.87,1.28-2.04,2.16-3.31,2.31,12.59,7.46,17.72,29.47-8.41,39.09-13.47,2-20.91-2.51-22.46-3.12" fill="#231f20"/><path d="M123.99,34.56c-.81-6.41,4.54-7.53,7.44-7.22,6.37.36,7.18,9.91,7.75,10.64.52-.05,1.74-.06,3.32.14,15.27,2.69,27.34,28.88-2.19,39.57-9.8,2.49-19.98-1.12-23.23-9.68-1.49-5.23-.65-10.5,4.15-16.78l-3.27,3.39c-3.63-.83-14.1-5.9-10.54-14.15,1.98-4.64,8.63-9.02,16.58-5.91" fill="#efbd9b"/><path d="M123.99,34.56c-.81-6.41,4.54-7.53,7.44-7.22,6.37.36,7.18,9.91,7.75,10.64.52-.05,1.74-.06,3.32.14,15.27,2.69,27.34,28.88-2.19,39.57-2.57.65-5.17.88-7.66.72,10.38-2.02,13.42-8.15,14.52-12.64,2.11-8.59-4.06-21.45-15.4-21.1-11.08.34-14.88-2.19-15.8-10.87,2.39-.51,5.12-.37,8.02.76" fill="#fdd5b5"/><path d="M136.13,39.49c1.69.28,1.76,3.79.15,4.27-1.05.31-1.8.54-2.02,1.32-.22.78-1.58,2.28-2.76,2.56-1.18.28-2.4.6-3.41-.4-1.01-1-1.66-2.44-.1-3.82,1.56-1.37,3.54-1.28,3.54-1.28,0,0,.24-.63.92-1.31.69-.68,1.99-1.62,3.69-1.34" fill="#e2ad93" fill-rule="evenodd"/><path d="M126.11,45.13c-1.42,2.28-5.91.87-5.6-2.47.1-1.04,1.18-1.56,2.06-1.73,1.45-.28,5.07,1.75,3.55,4.2" fill="#efbd9b"/><path d="M133.85,39.77c-2.14,1.24-5.13-1.83-3.46-4.38.54-.82,1.65-.77,2.42-.53,1.26.39,3.36,3.57,1.04,4.91" fill="#efbd9b"/><path d="M115.95,24.3l.07-4.26s2.03,1.7,2.92,4.31c1.08-1.48,4.91-4.03,7.46-4.84l-2.09,3.54c6.26.73,12.41,3,17.06,8.05,1.57,2.16,3.15,4.41,3.86,6.92-1.74-.34-3.47-.63-5.33-.46l-1.38-5.06c-1.16-2.98-5.36-8.7-13.14-4.43-1.64,1.45-2.71,3.67-2.23,5.62-3.98-1.64-9.43-1.04-12.89,1.83-2.76,2.28-4.69,5.66-4.23,9.23.86,5.59,6.73,9.07,11.36,10.89-.67,1.31-5.83,12.88,5.16,20.82-2.59-1.16-8.39-2.09-13.26-9.17-.17,1.82-.28,4.18-2.26,4.95-6.28,2.17-10.88-3.35-11.44-6.56-.19-1.77.38-3.65,1.97-4.73,2.24-1.26,5.28-.89,7.52-.08l.12-.11c-13.53-15.79-2.09-25.67.27-27.71-1.25-.41-2.27.19-3.35.07,1.31-1.18,4.29-2.98,7.1-4.02-1.13-.51-2.26-1.07-3.46-1.35,2.23-1.53,6.52-1.93,6.37-2.45l-2.91-2.5c1.78-.12,4.13.45,6.72,1.49" fill="#8c804f"/><path d="M105.07,60.88c3.53,1.71,4.21,6.42,4.21,6.42-.07.81-.14,1.72-.36,2.55-.21.57-.5,1.13-.84,1.68-.28.3-.62.55-1.06.72-6.28,2.17-10.88-3.35-11.44-6.56-.19-1.77.38-3.65,1.97-4.73,2.24-1.26,5.28-.89,7.52-.08" fill="#efbd9b"/><path d="M143.82,32.68c.97-1.04,1.93-2.12,3.4-2.19,1.97-.05,3.67,1.28,4.39,3.02.44,1.65.19,3.48-1.21,4.71-.74,1.05-2.51.74-3.37.68,1.32-.79,2.47-2.88.55-4.06-.47-.25-1.36-.17-1.71.38-.17-.79.3-3.09,2.84-2.79-.53-.78-3.03-.76-4.01,1.88l-.89-1.63Z" fill="#efbd9b"/><path d="M146.22,37.2c-.33-.63-.23-1.72.77-1.59.56.23,1.07.39,1.01,1.11-.21.96-.54,1.29-1.13,1.6-.68-.04-.35-.8-.66-1.12" fill="#ae6f66"/><path d="M99.28,64.17c.54-.84,1.6-1.4,2.43-1.65,1.75.02,3.9.44,4.98,2.21.38.62.49,1.68-.12,2.31-.53.52-1.24.99-2.06.83-1.15-.24-1.5-1.5-1.34-2.51.34-.59,1.04-1.23,1.61-1.31-.94-.81-2.12-.6-3.22-.85-.74.2-1.4.78-1.76,1.55-.05,1.27.46,2.63,1.52,3.34-.39.1-.69-.17-.98-.4-1.08-.88-1.32-2.29-1.04-3.54" fill="#231f20"/><path d="M104.14,65.24c.45-.42,1.07-.51,1.49-.35.41.53.88,1.58,0,2.07-.38.19-.96.27-1.31-.13-.35-.35-.43-1.15-.17-1.59" fill="#ae6f66"/><path d="M115.95,24.3l.07-4.26s2.03,1.7,2.92,4.31c1.08-1.48,4.91-4.03,7.46-4.84l-2.09,3.54c6.26.73,12.41,3,17.06,8.05,1.57,2.16,3.15,4.41,3.86,6.92-1.74-.34-3.47-.63-5.33-.46l-1.38-5.06c-1.16-2.98-5.36-8.7-13.14-4.43-1.64,1.45-2.71,3.67-2.23,5.62-2.16-.89-4.76-1.12-7.24-.68-.38-4.82.53-8.06.53-8.06,0,0-.53,1.13-1.73.67-1.2-.46-1.88-.89-1.88-.89,0,0,1.55,1.99-.52,2.18-2.08.19-3.41.61-3.41.61l2.32.93-4.24,2.71s-1.98.73-4.19,1.97c-.22.02-.43.03-.65,0,1.31-1.18,4.29-2.98,7.1-4.02-1.13-.51-2.26-1.07-3.46-1.35,2.23-1.53,6.52-1.93,6.37-2.45l-2.91-2.5c1.78-.12,4.13.45,6.72,1.49" fill="#a8975f"/><path d="M104.8,60.78c-1.73-.25-3.57-.14-5.06.7-1.59,1.08-2.15,2.96-1.97,4.73.37,2.11,2.49,5.23,5.69,6.49-4.4-.41-7.43-4.46-7.88-7.02-.19-1.77.38-3.65,1.97-4.73,2.15-1.21,5.04-.91,7.25-.17" fill="#fdd5b5"/><path d="M143.82,32.68c.97-1.04,1.93-2.12,3.4-2.19,1.97-.05,3.67,1.28,4.39,3.02.44,1.65.19,3.48-1.21,4.71-.17.24-.36.39-.55.48.49-1.05.51-2.26.21-3.39-.51-1.23-1.51-2.26-2.75-2.73.38-.14.84-.21,1.41-.14-.33-.48-1.39-.65-2.39-.11-.21-.03-.43-.04-.65-.03-.67.03-1.23.27-1.73.62l-.13-.23Z" fill="#fdd5b5"/><path d="M136.95,39.42c.3.68.6,1.52.47,2.38-.42-.47-.37-.95-.69-1.36-1.29-1.63-4.02.34-4.56,1.69.24.49.89.47,1,1.11-1.01-.03-2.41-.87-3.69-.49-2.78.82-2.76,5.05.76,5.1-3.29,1.14-4.69-3.13-2.51-5.03.78-.68,2.37-1.03,3.68-.61.65-1.84,3.06-3.99,5.55-2.79" fill="#231f20"/><path d="M122.68,41.56c1.36-.26,3.88,1.62,2.88,3.23-1,1.61-4.66.7-4.41-2.07.05-.56.69-.99,1.53-1.15" fill="#231f20"/><path d="M136.06,41.39c.49,1.04.12,2.36-.86,2.3-1.35-.08-.89-3.53.86-2.3" fill="#231f20"/><path d="M132.61,46.39c-.95.74-2.68.4-3.34-.31l-.07-.65c.77-1.07,3.74-.77,3.41.96" fill="#231f20"/><path d="M129.76,45.47c.94-.36,2.14-.25,2.38.63-.84.29-2.25.35-2.38-.63" fill="#ae6f66"/><path d="M135.15,43.25c-.29-.44-.29-1.4.17-1.56.77.12.55,1.5-.17,1.56" fill="#ae6f66"/><path d="M132.61,35.49c1.18.36,2.36,2.89.91,3.73-1.45.84-3.95-1.4-2.59-3.46.28-.42.96-.49,1.68-.27" fill="#231f20"/><path d="M122.46,44.03c-.32-.31-.43-.72-.24-.92.19-.19.6-.1.93.21.32.31.43.72.24.92-.19.19-.6.1-.93-.21" fill="#fff"/><path d="M131.72,38c-.39-.22-.59-.6-.46-.83.13-.23.56-.24.95-.02.39.22.59.6.46.83-.14.23-.56.24-.95.02" fill="#fff"/><path d="M137.69,56.63c2.59-.99,5.8-2.49,7.23-4.23,1.14-1.39,1.87-2.87,2.4-4.57.79-2.54.86-.45.88.15.04,1.23-.4,3.36-1.84,5.39,0,1.15,1.22,3.92-1.71,6.1-.55.41-1.09.8-1.65,1.19-.52.37-2.71,6.07,4.29,5.01.53-.08.79.31.45.73-5.74,7.07-19.07,2.55-21.98-4.19-.27-.63-.45-1.25-.59-1.87-.06-.29-.99.61-1.09.79-.05.09-.1.19-.15.25-.45.61-.77.3-.86-.16-.52-2.56,2.12-4.85,3.68-5.26.15-.04.43.08.51.21.31.55-.01.99-.24,1.22-.06.06,3.31,2.05,10.68-.77" fill="#e2ad93"/><path d="M140.85,61.29c-.81,1.86.63,6.75,2.22,6.94,1.33.16,3.14-1.86,4.31-2.13-5.46,6.71-18.39,2.46-21.21-4.09-.52-1.2-.68-2.37-.89-3.59-.91.77-1.72,2.93-1.77,2.7-.45-2.22,1.91-4.35,3.35-4.73.31.54-.5.84-.72,1.23,2.19,1.93,6.43,1.54,12.07-.09,2.78-.81,5.6-3.07,7.07-4.86,1.19-1.46,1.83-3.03,2.47-4.69.04,1.15-.39,3.25-1.84,5.23.06,2.31.47,3.66-1.5,5.86-1.16.75-2.09,1.73-3.54,2.21" fill="#231f20"/><path d="M127.84,59.44c6.38,1.21,14.06-2.11,17.25-5.76.38,1.98.27,3.61-1.25,4.98-4.91,4.06-14.22,4.06-16.64,1.24.08-.28.09-.54.64-.46" fill="#fff"/><path d="M139.23,61.9c.21-.23.54-.35.97-.36-.57,2.41.61,5.44,1.99,6.84-.05.34-.63.19-.87.36-1.86-1.37-2.52-4.44-2.1-6.84" fill="#c74a27"/><path d="M132.89,62.56c1.85,0,3.56-.18,5.8-.53-.55,2.81.6,5.2,1.88,6.74-1.16-.04-1.8.05-2.96,0,0-3.3-2.66-4.73-4.72-6.2" fill="#810000"/><path d="M130.91,62.63c2.9,1.06,5.36,2.59,6.24,5.82-2.92.14-5.08-1.53-7.01-2.83-.38-1.35-.22-2.46.77-2.99" fill="#ce171e"/><path d="M127.84,59.44c6.38,1.21,14.06-2.11,17.25-5.76.1.5.08,1,0,1.49-3.33,3.47-9.68,6.62-15.4,6.15h-.08c-1.05-.33-1.89-.81-2.41-1.42.08-.28.09-.54.64-.46" fill="#c4e0e7"/><path d="M130.91,62.63c.84.31,1.64.65,2.37,1.07-.67.41-1.18,1.11-.77,2.28.43,1.24,2.4,1.52,4.3,1.49.13.31.24.64.34.98-2.92.14-5.08-1.53-7.01-2.83-.38-1.35-.22-2.46.77-2.99" fill="#ab0f14"/><path d="M128.66,43.78c-.04-.34.53-.68,1.27-.76.74-.08,1.37.14,1.4.48.04.34-.53.68-1.27.76-.74.08-1.37-.14-1.4-.48" fill="#fdd5b5"/><path d="M134.2,40.4c-.02-.2.36-.41.84-.46.49-.05.9.07.92.27.02.2-.36.41-.84.46-.49.05-.9-.07-.92-.27" fill="#fdd5b5"/></g></g></g></svg>