<?xml version="1.0" encoding="UTF-8"?><svg id="b" xmlns="http://www.w3.org/2000/svg" width="200.47" height="111.75" xmlns:xlink="http://www.w3.org/1999/xlink" viewBox="0 0 200.47 111.75"><defs><clipPath id="d"><rect width="200.47" height="111.75" rx="13.47" ry="13.47" fill="none"/></clipPath></defs><g id="c"><g clip-path="url(#d)"><path d="M127.34,18.71c-.15-.1-.33-.18-.47-.28.02-.12.03-.26.03-.41,0,0,.01,0,.02-.01.07-.05.13-.09.25-.09.03,0,.06,0,.09,0-.06.35.08.5.08.79" fill="#6ba23a"/><path d="M105.49,39.84c-.09,0-.17-.01-.26-.01.08,0,.17,0,.26.01M106.28,40.13s.05-.06.08-.09c-.02.03-.05.06-.08.09M99.54,40.16s-.09-.01-.14-.01c.05,0,.1,0,.14.01M106.19,40.24s.05-.05.07-.08c-.02.03-.05.06-.07.08M106.12,40.32s.03-.04.05-.05c-.02.02-.03.04-.05.05M106.06,40.37s0-.01.02-.02c0,0,0,.01-.02.02M101.58,42.41c1.25-.87,1.93-2.54,3.6-2.58-1.67.03-2.35,1.71-3.6,2.58M100.28,42.91c-.12-.29-.17-.6-.17-.93,0,.32.04.63.17.93.35-.04.66-.14.94-.28-.28.14-.59.24-.94.28M101.09,49.22c-.08-1.48-.08-3.05-.35-4.35-.3,1.3-.06,3.24.35,4.35M101.08,52.59c-.14-.13-.32-.22-.56-.23.04-2.55-.08-2.93-.21-5.55-.16-3.2.31-2.74,1.85-4.29.68-.68,1.67-.97,2.57-1.08.05-.04.11-.07.16-.11-.96.69-1.97,1.32-2.55,2.38,0,.16,0,.33,0,.49,0,2.43.57,4.56.58,6.96,0,.07,0,.14,0,.2-.71.19-1.37.62-1.83,1.22M100.73,53.19c-.07,0-.15-.01-.22-.02,0-.18,0-.35.01-.51.07-.05.14-.09.22-.12.1.04.18.1.25.19-.1.15-.19.3-.26.46" fill="#b5a689"/><path d="M99.8,53.09c-.35-.05-.71-.11-1.08-.18.12-1.44.39-3.26.39-4.79,0-.87-.08-1.65-.32-2.23-.24-.57-.8-.78-1.15-1.26-.52-.72-.83-1.58-1.38-2.29-.58-.77-1.21-1.26-1.49-1.95.47-.14,1-.23,1.49-.35.82.98,1.14,2.46,2.41,2.98.7-.45.5-1.79.58-2.87.04,0,.07,0,.11,0,.01,0,.02,0,.03,0,.05,0,.1,0,.14.01.26.04.41.18.61.28.04.02.09.04.14.06-.07.51-.17,1.01-.17,1.48,0,.32.04.63.17.93.35-.04.66-.14.94-.28.13-.06.25-.14.36-.22,1.25-.87,1.93-2.54,3.6-2.58.02,0,.03,0,.05,0,.08,0,.17,0,.26.01.26.03.55.09.87.2-.02.03-.05.06-.08.09,0,0-.01.02-.02.02-.02.03-.05.06-.07.08,0,0-.02.02-.03.03-.02.02-.03.04-.05.05-.01.01-.02.03-.04.04,0,0,0,.01-.02.02-.35.36-.75.67-1.16.96-.05.04-.11.07-.16.11-.9.12-1.89.41-2.57,1.08-1.55,1.55-2.01,1.08-1.85,4.29.12,2.62.25,2.99.21,5.55-.01,0-.03,0-.04,0-.13,0-.27.02-.43.06-.11.16-.19.39-.25.66M100.51,53.17c-.11,0-.23-.02-.34-.04.08-.19.2-.36.36-.47,0,.16,0,.33-.01.51" fill="#9c8d6f"/><path d="M101.09,49.22c-.41-1.11-.64-3.05-.35-4.35.26,1.3.26,2.87.35,4.35" fill="#746a53"/><path d="M100.16,53.14c-.12-.01-.24-.03-.36-.05.06-.28.14-.5.25-.66.16-.04.3-.06.43-.06.02,0,.03,0,.04,0,.24,0,.42.09.56.23-.03.04-.07.09-.1.13-.06-.08-.14-.15-.25-.19-.08.03-.16.07-.22.12-.16.12-.27.28-.36.47" fill="#746a53"/><path d="M78.05,21c0-.17,0-.33,0-.5h0c.05.17.03.33,0,.5M79.91,22.78c-.39-.08-.61-.93-.93-.93-.11,0-.22.09-.36.34-.06.09-.15.12-.23.12-.12,0-.24-.07-.33-.14,0-.19,0-.39,0-.58.02.04.04.09.07.13.02.15.16.18.29.18.04,0,.07,0,.11,0,.62-.21.07-.88.46-1.25.21.57.28,1.28.87,1.66.05,0,.12.02.17.02.04,0,.07,0,.1-.04.07-.39-.03-.76-.25-1.13l.18-.1c.22.39.47.77.34,1.19,0,.26-.23.51-.49.51" fill="#5a8931"/><path d="M113.36,26.95c-.18,0-.36-.08-.52-.28,0-.5,0-1.14.54-1.37-.16.35-.52,1.04-.17,1.49.55-.03.8-.59.94-1.04.13-.15-.14-.45.18-.45h0c.29.13.04.83.54.83.02,0,.04,0,.06,0,.27-.02.55-.08.55-.38l-.21-.58c.39.04.63.41,1.03.41.04,0,.09,0,.13-.01.02,0,.04,0,.05,0,.15,0,.23-.19.26-.31.03-.66-.79-.4-.99-.9.31,0,.64.06.97.06s.62-.05.91-.25c.04-.08.13-.17.09-.26-.25-.15-.52-.22-.82-.22-.1,0-.21,0-.32.02l-.03-.19c.21-.03.42-.07.62-.07.22,0,.43.04.62.19.24.09.39.41.29.64-.29.44-1.73.09-1.03.98.16.25-.11.47-.28.54-.08.06-.18.08-.27.08-.1,0-.2-.02-.3-.05-.1-.02-.19-.05-.27-.05-.14,0-.24.08-.22.4-.14.14-.31.19-.49.19-.27,0-.56-.12-.79-.24-.2.35-.67.81-1.11.81" fill="#5a8931"/><path d="M117.5,18.05c-.48-.14-1.09-.31-1.16-.9.25.21.69.62,1.14.62.08,0,.16-.01.24-.04.13-.54-.35-.94-.74-1.19-.11-.17-.48,0-.39-.31.05-.06.13-.08.23-.08.06,0,.12,0,.18.01.06,0,.13.01.19.01.17,0,.32-.05.36-.3.06-.27.08-.54-.21-.63l-.62.04c.16-.4.66-.51.7-1.02.1-.16-.08-.31-.2-.38-.07-.02-.13-.03-.19-.03-.44,0-.47.69-.95.73.18-.55.53-1.12.37-1.75,0-.03-.02-.07-.03-.1-.06-.06-.12-.16-.21-.16,0,0-.01,0-.02,0-.18.16-.3.35-.39.57-.05.14-.09.3-.12.47l-.2-.02c.03-.24.06-.48.14-.69.06-.18.16-.34.33-.46.09-.12.26-.19.41-.19.1,0,.2.03.28.09.08.09.1.23.1.39,0,.42-.17.95.21.95.09,0,.2-.03.35-.09.03-.01.06-.02.09-.02.22,0,.33.28.36.43.18.48-.72.94.07,1.12.24.44-.1.9-.4,1.21.4.41.87,1.39.06,1.7" fill="#5a8931"/><path d="M79.3,57.21c-.32-.19-.68-.34-1.05-.45,0-.16,0-.31,0-.47l2.06.14c-.39.26-.73.55-1,.78" fill="#bababa"/><path d="M32.71,42.82c0-.31,0-.62,0-.94,0,.31,0,.63,0,.94M32.77,56.97c0-.24,0-.5,0-.74,0,.24,0,.5,0,.74" fill="#555554"/><path d="M32.76,56.23c0-4.39-.03-8.88-.06-13.42.03,4.54.05,9.03.06,13.42" fill="#72a9c9"/><path d="M79.81,61.35c-.42-.55-.97-.93-1.56-1.18,0-.84,0-1.7,0-2.54.57.24,1.09.62,1.5,1.14.46-1.23,1.47-1.99,2.46-1.99.78,0,1.54.47,2.01,1.55,1.08-.93.62-3.4,2.01-4.02.3-.05.57-.07.82-.07,1.84,0,2.43,1.24,3.87,1.64.15-.16.2-.29.21-.4,0-.39-.7-.55-.69-1.17,0-.07.01-.14.03-.22.57-.83,1.94-1.31,3.25-1.31s2.7.53,2.99,1.76c.32-.38.78-.66,1.29-.82.3-.09.62-.14.93-.14.57,0,1.13.17,1.54.53.2.17.36.39.48.66.17-.07.31-.18.43-.31.41-.45.54-1.17.85-1.72.17-.29.39-.54.73-.66.06,0,.11,0,.16,0,.05,0,.1,0,.15,0,1.07,0,1.81.33,2.5.71.01,0,.03.01.04.02.01,0,.03.02.04.02.15.08.29.16.43.24.19.11.38.21.59.31h0c-.33,1.27,1.18,2.38.21,2.87-1.16-.54-2.01-1.38-3.72-1.38-.09,0-.18,0-.28,0-1.16.39-.93,2.2-2.03,2.66-.18-.41-.47-.72-.83-.91,0,0,0,0,0,0-.14-.27-.3-.5-.51-.67,0,0-.02-.01-.02-.02,0,0-.01,0-.02-.01-.01,0-.03-.02-.04-.03,0,0,0,0,0,0-.16-.11-.35-.19-.58-.22,0,0,0,0,0,0-.02,0-.05,0-.08,0-.07,0-.15-.01-.21-.01-.74,0-1.29.46-1.74,1.11,0,0,0,.01-.01.02,0,.01-.02.03-.03.04-.01.02-.02.03-.03.05,0,0,0,0,0,.01-.05.07-.09.15-.14.22h0c-.36-1.12-1.65-1.62-2.98-1.62s-2.65.47-3.22,1.28c-.26,1,1.16,1.01.43,1.79-1.44-.42-2.03-1.67-3.89-1.67-.24,0-.5.02-.78.07-1.39.61-.95,3.08-2.04,4-.46-1.09-1.22-1.56-2.01-1.56-.98,0-1.99.75-2.46,1.97M43.33,64.18c0-.75,0-1.51,0-2.27,0,.76,0,1.52,0,2.27" fill="#aecb38"/><path d="M70.16,68.14c-.59-1.17-1.82-1.83-3.06-1.83-.36,0-.73.06-1.07.17,0-.26,0-.52,0-.78.32-.16.66-.23,1.03-.23,1.12,0,2.37.66,3.11,1.11.39-1.43,1.81-2.54,3.26-2.54.65,0,1.31.23,1.87.75.25-2.05.82-2.74,1.51-2.74.45,0,.95.29,1.45.69,0,.23,0,.46,0,.7-.43-.26-.94-.43-1.62-.43-.73.53-.18,2.34-.67,3.12-1.26-.47-1.82-1.59-2.83-1.59-.09,0-.19,0-.29.03-1.63.32-1.55,2.15-2.68,3.57" fill="#b78841"/><path d="M70.16,66.58c-.74-.45-1.98-1.11-3.11-1.11-.36,0-.71.07-1.03.23,0-1.54,0-3.1,0-4.67.61-.25,1.33-.36,2.09-.36,2.08,0,4.41.87,5.21,2.2-.06-1.92,1.58-3,3.32-3,.54,0,1.09.1,1.6.31,0,.86,0,1.72,0,2.57-.5-.4-1-.69-1.45-.69-.69,0-1.26.69-1.51,2.74-.57-.52-1.22-.75-1.87-.75-1.44,0-2.87,1.11-3.26,2.54" fill="#c89447"/><path d="M76.51,36.39c-.06,0-.13,0-.2-.01-.49-.32-.53-1.08-.69-1.72-.24.1-.46.14-.65.14-.96,0-1.35-1.06-.61-1.75-.04-.02-.1-.02-.19-.02-.07,0-.15,0-.24,0-.09,0-.19,0-.29,0-.32,0-.65-.04-.76-.22-.11-.92.32-1.29.69-1.72-1.32-.27-3.21-1.07-1.72-2.52-.07,0-.14,0-.21,0-1.97,0-1.78-1.92-.6-2.75-.52-.28-1.12-.49-1.26-1.15.37-.62.9-1.09,1.6-1.38-.92-.36-.85-1.84.33-1.84.04,0,.08,0,.13,0-.1-.47-.1-1.15.46-1.49-.5-.38-.01-.95-.11-1.61-.06-.4-.49-.77-.46-1.15.07-.78.85-1.2,1.74-1.2.33,0,.68.06,1.01.17.21-.25-.43-.64-.35-1.15.2-.16.44-.21.67-.21.29,0,.59.07.82.1.16-.33-.1-1.08,0-1.72.42-.15.67-.46,1.24-.46.04,0,.09,0,.14,0-.11-.69-.51-1.09-.34-2.06.31-.61,1.18-.66,1.15-1.61.04-.02.09-.03.13-.05,0,.48,0,.97.02,1.45-.04-.01-.09-.02-.14-.03-.19.16-.37.32-.58.46-.09.93.32,1.36.58,1.95-.42.59-1.19.22-1.61.69,0,.47-.02.94.11,1.26-.16.34-.47.57-.87.57-.15,0-.32-.03-.51-.11-.2.43.68,1.28.46,1.72-.02,0-.04,0-.05,0-.18,0-.19.17-.3.23-.33-.43-1.02-.71-1.6-.71-.5,0-.94.21-1.03.71-.16.84.78.82.8,1.72-.12-.08-.19-.11-.22-.11-.05,0-.04.06-.05.11-.01.06-.04.12-.18.12-.03,0-.08,0-.13-.01-.02.63.76.46.69,1.15-.14.43-.78.37-.92.8.22.14.55.18.57.52-.51.09-1.21.28-1.39.66,0,.02-.02.04-.02.06-.05.02-.1.03-.17.03h-.02c.04.14.11.25.2.34.09.33.33.75.57,1.17-.55.28-1.52.27-1.58,1.12.51.29,1.41.19,1.61.8-.59.56-1.29,1.01-1.49,1.95.5.34,1.62.07,1.95.58,0,.8-.58,1.04-.69,1.72.65.35,1.83.16,2.18.81.18.89-.76,1.19-.57,1.72.18-.06.48-.13.76-.13s.53.06.62.24c0,.12.09.14.12.23.06.6-.41.65-.35,1.26.08,0,.15.01.22.01.51,0,.79-.22,1.27-.24.36.37,0,1.26.34,1.84.04,0,.08,0,.12,0,.75,0,1.04-.46,1.49-.75,0,.4,0,.8,0,1.21-.06-.14-.1-.29-.13-.46-.55.19-.78.7-1.53.7" fill="#ac803d"/><path d="M78.12,29.98c-.51-.03-.91-.3-1-1.06-.37.3-.78.43-1.16.43-1.12,0-2.06-1.09-1.25-2.26-.04,0-.08,0-.12,0-.57,0-.81-.33-1.02-.92.13-.33.24-.67.46-.92-.1.02-.19.04-.28.04-.96,0-.89-1.4-.41-1.87-.02,0-.03,0-.05,0-.33,0-.51-.14-.76-.23.02.31-.14.48-.37.6-.24-.42-.49-.84-.57-1.17.2.19.49.3.72.46,0-.38-.19-.57-.11-1.03-.05,0-.09-.01-.13-.01-.15,0-.23.06-.32.12-.05.04-.1.07-.17.09,0-.02.01-.04.02-.06.19-.38.88-.57,1.39-.66,0,.02,0,.04,0,.06-.21.28-.42.57-.34,1.15.11.15.26.18.43.18.07,0,.14,0,.21-.01.07,0,.14-.01.21-.01.22,0,.39.07.41.42-.11.5-.49.74-.46,1.38.13.13.3.17.47.17.11,0,.22-.01.33-.03.11-.01.22-.03.32-.03.19,0,.36.05.48.23-.26.54-1.03.58-.92,1.49.06.09.2.11.36.11.06,0,.12,0,.18,0,.06,0,.12,0,.18,0,.22,0,.41.03.43.24.08.69-.47.75-.35,1.49.19.41.46.55.76.55.59,0,1.31-.55,1.88-.66-.09.66.14,1,.34,1.38.07,0,.13.02.2.02,0,.12,0,.23,0,.35" fill="#b78841"/><path d="M76.67,35.69s-.08,0-.12,0c-.35-.58.01-1.47-.34-1.84-.49.02-.77.24-1.27.24-.07,0-.14,0-.22-.01-.07-.61.4-.67.35-1.26-.02-.09-.12-.11-.12-.23-.09-.18-.34-.24-.62-.24s-.58.06-.76.13c-.19-.53.75-.83.57-1.72-.35-.64-1.53-.46-2.18-.81.11-.68.68-.92.69-1.72-.33-.51-1.45-.23-1.95-.58.2-.94.9-1.39,1.49-1.95-.19-.61-1.1-.51-1.61-.8.06-.86,1.03-.84,1.58-1.12.23-.12.39-.29.37-.6.25.08.43.23.76.23.02,0,.03,0,.05,0-.48.47-.55,1.87.41,1.87.09,0,.18-.01.28-.04-.22.24-.33.59-.46.92.21.59.45.92,1.02.92.04,0,.08,0,.12,0-.81,1.17.12,2.27,1.25,2.26.39,0,.8-.13,1.16-.43.09.76.49,1.03,1,1.06.01,1.64.02,3.3.03,4.96-.45.3-.74.75-1.49.75" fill="#c29045"/><path d="M72.3,23.07c-.23-.16-.52-.26-.72-.46-.09-.09-.16-.2-.2-.34h.02c.07,0,.12-.01.17-.03.07-.02.12-.06.17-.09.09-.06.17-.12.32-.12.04,0,.08,0,.13.01-.08.46.11.65.11,1.03" fill="#c29045"/><path d="M78.06,21.6c-.08-.2-.04-.4,0-.6,0,.2,0,.4,0,.6M78.12,29.63c-.06,0-.13-.01-.2-.02-.2-.38-.43-.71-.34-1.38-.57.12-1.29.66-1.88.66-.3,0-.57-.14-.76-.55-.13-.74.42-.8.35-1.49-.02-.21-.21-.24-.43-.24-.06,0-.12,0-.18,0-.06,0-.12,0-.18,0-.16,0-.3-.02-.36-.11-.11-.91.65-.96.92-1.49-.12-.18-.29-.23-.48-.23-.1,0-.21.01-.32.03-.11.01-.22.03-.33.03-.18,0-.34-.04-.47-.17-.03-.64.35-.87.46-1.38-.02-.35-.19-.42-.41-.42-.07,0-.14,0-.21.01-.07,0-.14.01-.21.01-.17,0-.32-.03-.43-.18-.08-.58.13-.87.34-1.15,0-.02,0-.04,0-.06-.02-.34-.35-.38-.57-.52.14-.43.78-.37.92-.8.07-.69-.71-.52-.69-1.15.05,0,.09.01.13.01.13,0,.16-.06.18-.12,0-.06,0-.11.05-.11.03,0,.1.03.22.11-.02-.9-.96-.88-.8-1.72.1-.51.53-.71,1.03-.71.59,0,1.27.29,1.6.71.11-.07.12-.23.3-.23.02,0,.03,0,.05,0,.22-.44-.67-1.28-.46-1.72.18.07.35.11.51.11.4,0,.71-.23.87-.57-.14-.32-.12-.79-.11-1.26.42-.46,1.18-.1,1.61-.69-.26-.59-.67-1.02-.58-1.95.21-.14.39-.3.58-.46.05,0,.1.01.14.03.03,3.25.06,6.61.09,10.02l-.45.41s-.09.02-.13.02c-.2,0-.33-.19-.43-.4-.27-.51.53-.54.54-.86-.04-.1-.08-.13-.13-.13s-.1.03-.15.06c-.05.03-.11.07-.17.07-.02,0-.03,0-.04,0-.09,0-.19.01-.29.01-.41,0-.85-.09-1.04-.5.22-.36.68-.41,1.07-.41.14,0,.28,0,.38,0-.17-.17-.37-.23-.57-.23-.3,0-.62.13-.9.24-.44.74.53,1.23,1.1,1.3-.04.43-.03,1,.43,1.2.11-.05.2-.07.26-.07.36,0,.11.69.49.91.01.01.03.03.05.04.02,2.46.04,4.94.06,7.44" fill="#cd9749"/><path d="M78.06,22.19s-.03-.03-.05-.04c-.38-.22-.13-.91-.49-.91-.07,0-.15.02-.26.07-.46-.2-.47-.77-.43-1.2-.57-.08-1.54-.56-1.1-1.3.28-.11.6-.24.9-.24.2,0,.4.06.57.23-.1,0-.24,0-.38,0-.39,0-.85.06-1.07.41.19.4.63.5,1.04.5.1,0,.2,0,.29-.01.01,0,.03,0,.04,0,.06,0,.12-.03.17-.07.05-.03.11-.06.15-.06s.09.03.13.13c-.02.32-.81.35-.54.86.1.21.22.4.43.4.04,0,.09,0,.13-.02l.45-.41c0,.17,0,.33,0,.5-.03.2-.07.39,0,.6,0,.19,0,.39,0,.58" fill="#b78841"/><path d="M78.25,56.29l-11.87-.8c.02-.22.04-.44.06-.66l11.81.8c0,.22,0,.44,0,.66" fill="#b6766b"/><polyline points="78.25 56.29 66.38 55.49 66.38 55.49 78.25 56.29 78.25 56.29" fill="#e59e84"/><path d="M72.39,58.54c-1.25-.7-2.8-1.06-4.34-1.06-.63,0-1.26.06-1.87.19.07-.74.13-1.47.19-2.18l11.87.8c0,.16,0,.31,0,.47-.54-.16-1.13-.23-1.72-.23-1.8,0-3.6.72-4.14,2.02" fill="#db977f"/><path d="M66.03,57.7c0-3.48-.01-7.02-.03-10.58.35-3.51.64-7.04.58-11.06,0-.01-.06-.02-.18-.02s-.26,0-.47.01c0-.28,0-.56,0-.83l.25-.02s-.07-.28-.22-.76c0-.13-.02-.26-.05-.4,0-1.27-.02-2.54-.03-3.81.5.96.93,1.95,1.31,2.99.41,1.12,1,3.93.91,4.52-.81,5.5-1.14,10.63-1.69,17.09-.02.22-.04.44-.06.66h0c-.06.71-.13,1.44-.19,2.18-.05.01-.1.02-.15.03" fill="#b8816c"/><path d="M65.94,35.22c0-.15,0-.31,0-.46.03-.09.04-.19.04-.3v-.02c.15.48.22.76.22.76l-.25.02" fill="#c95737"/><path d="M66,47.12c-.02-3.67-.04-7.37-.06-11.06.2,0,.36-.01.47-.01s.17,0,.18.02c.06,4.02-.23,7.55-.58,11.06" fill="#b39372"/><path d="M65.93,34.76c0-.24,0-.47,0-.72.03.15.05.28.05.42,0,.11-.01.21-.04.3" fill="#d75d3b"/><path d="M72.47,59.47c-.71-.53-1.69-.93-2.72-1.13-.54-.11-1.09-.17-1.63-.17h0c-.75,0-1.47.11-2.08.36,0-.27,0-.55,0-.83.05-.01.1-.02.15-.03.6-.12,1.23-.19,1.87-.19,1.53,0,3.09.36,4.34,1.06.54-1.3,2.34-2.02,4.14-2.02.59,0,1.17.08,1.72.23,0,.29,0,.58,0,.87-.52-.22-1.08-.33-1.63-.33-.63,0-1.25.14-1.78.41-.78.26-1.39.69-1.6,1.19-.14.34-.44.55-.77.58" fill="#a07839"/><path d="M73.28,60.32c-.19-.31-.47-.59-.81-.85.33-.03.63-.23.77-.58.21-.5.82-.93,1.6-1.19-.94.48-1.6,1.37-1.56,2.61" fill="#b78841"/><path d="M78.25,57.63c-.52-.22-1.08-.33-1.63-.33.55,0,1.11.11,1.63.33M66.03,58.53c.61-.24,1.33-.36,2.08-.36h0c-.75,0-1.47.11-2.08.36M73.28,60.33c-.6-.96-2-1.68-3.53-1.99,1.03.21,2.01.6,2.72,1.13.34.25.62.54.81.85,0,0,0,0,0,0" fill="#c89447"/><path d="M73.33,62.85c-.8-1.32-3.13-2.2-5.21-2.2-.76,0-1.48.11-2.09.36,0-.83,0-1.66,0-2.49.61-.24,1.33-.36,2.08-.36.54,0,1.09.06,1.63.17,1.53.31,2.94,1.02,3.53,1.99,0,0,0,0,0,0-.04-1.24.62-2.13,1.56-2.61.53-.27,1.15-.41,1.78-.41.55,0,1.11.11,1.63.33,0,.85,0,1.7,0,2.54-.51-.21-1.06-.31-1.6-.31-1.74,0-3.38,1.08-3.32,3" fill="#da9b47"/><path d="M56.11,69.47c-.59-.32-1.14-.67-1.72-.99,0-.33,0-.66,0-1,.3.13.57.28.82.43,0-2.48,2.32-3.39,4.81-3.39,2.13,0,4.39.67,5.45,1.61.17-.19.35-.33.55-.43,0,.26,0,.52,0,.78-.54.18-1.04.51-1.45.99-.31-1.74-2.22-2.42-4.2-2.42-1.55,0-3.15.42-4.05,1.08-.7,1.2-.07,2.43-.22,3.35" fill="#bdb239"/><path d="M55.21,67.91c-.25-.16-.53-.3-.82-.43.01-2.48.02-5.01.02-7.59.1-.01.21-.02.32-.02.61,0,1.25.18,1.9.61.23.51.13,1.35.43,1.79.71-.57,1.51-.78,2.35-.78,1.68,0,3.5.83,5,1.28.21-.86.82-1.42,1.62-1.76,0,1.57,0,3.13,0,4.67-.2.1-.39.25-.55.43-1.06-.94-3.32-1.61-5.45-1.61-2.49,0-4.81.92-4.81,3.39" fill="#cec13e"/><path d="M63.02,59.21c-.99-.58-2.35-1.05-3.76-1.05-.45,0-.91.05-1.37.15-.74-.97-1.86-1.55-3.48-1.63,0-.21,0-.43,0-.64.03,0,.07,0,.1.01.11-2.17.06-4.7-.12-7.24-.01-3.92-.03-7.9-.06-11.88,5.5-.45,10-.82,11.62-.89.02,3.69.05,7.39.06,11.06-.35,3.49-.78,6.97-1.01,10.89-.76.28-1.44.69-1.98,1.21" fill="#b5bf75"/><path d="M54.5,56.06s-.07,0-.1-.01c0-2.38,0-4.79-.02-7.23.17,2.54.23,5.07.12,7.24" fill="#bfa875"/><path d="M58.42,23.65s-.03-.02-.05-.03c.02,0,.03.02.05.03M58.59,23.74s-.03-.02-.05-.03c.02,0,.03.02.05.03M54.61,23.77s0,0-.01-.02c0,0,0,0,.01.02M58.74,23.83s-.03-.02-.05-.03c.02.01.03.02.05.03M54.71,23.9s-.02-.03-.03-.04c0,.01.02.03.03.04M58.9,23.93s-.02-.01-.03-.02c.01,0,.02.01.03.02M59.04,24.03s-.02-.01-.03-.02c.01,0,.02.01.03.02M54.82,24.04s-.03-.04-.04-.06c.01.02.03.04.04.06M59.2,24.14s0,0-.02-.01c0,0,0,0,.02.01M54.92,24.19s-.04-.06-.06-.09c.02.03.04.06.06.09M59.34,24.24s0,0,0,0c0,0,0,0,0,0M60.65,25.43s0,0,0,0c0,0,0,0,0,0M60.81,25.61s-.03-.03-.04-.04c.01.01.03.03.04.04M63.98,34.63c-1.69-1.15-1.86-3.81-2.66-5.77-.79-1.93-2.02-3.93-3.09-5.32.59.76,1.23,1.7,1.81,2.72l1.24-.11c-.13-.17-.26-.33-.4-.48,1.87,2.16,3.1,5.25,3.13,8.14,0,.27,0,.54-.03.81M61.38,34.72c-1.47-.31-1.36-2.18-1.77-3.19-.67-1.68-1.59-3.35-2.55-4.99l2.06-.19c-.58-.97-1.24-1.86-1.99-2.64,2.55,2.63,3.99,6.42,4.9,10.77-.05,0-.11,0-.16,0-.25,0-.46.03-.48.24M65.93,34.78c-.76-.52-.69-1.9-1.11-2.78.42.46.95,1.31,1.11,2.04,0,.24,0,.47,0,.72,0,0,0,.01,0,.02M59.07,34.92c-1.4,0-2.47-2.37-2.92-3.27-.61-1.22-1.23-2.6-1.89-3.97,0-.3,0-.59,0-.89l2.14-.19c-.44-.84-.91-1.64-1.44-2.37,2.11,2.94,3.4,6.94,4.69,10.55-.2.09-.39.14-.58.14M54.31,35.17c-.01-2.06-.03-4.12-.05-6.18.91,1.9,1.72,3.91,2.56,5.89-.29.24-.81.27-1.36.27-.09,0-.19,0-.28,0h-.2c-.23,0-.46,0-.67.02" fill="#e09539"/><path d="M63.4,60.02c-1.28-.43-2.7-.93-4.02-.93h0s-.06,0-.09,0c-.01,0-.03,0-.04,0-.39,0-.77.04-1.15.13-.03,0-.06,0-.09,0-.27,0-.73-.18-.86-.35-.15-.19-.32-.37-.52-.53-.02-.09-.05-.18-.09-.25-.65-.41-1.28-.59-1.88-.59-.09,0-.18,0-.26.01,0-.28,0-.55,0-.83,1.62.08,2.75.66,3.48,1.63.45-.11.91-.15,1.37-.15,1.41,0,2.77.46,3.76,1.05.54-.52,1.22-.92,1.98-1.21.33-.12.68-.23,1.03-.31,0,.28,0,.55,0,.83-.03.01-.06.02-.09.04-.17.07-.33.16-.49.25-.7.25-1.32.6-1.8,1.06-.06.06-.15.11-.25.14" fill="#a59c32"/><path d="M57,59.88c-.26-.37-.23-1.03-.36-1.53.2.16.37.34.52.53.13.17.59.35.86.35.03,0,.06,0,.09,0,.38-.09.77-.13,1.15-.13.01,0,.03,0,.04,0-.83.01-1.61.23-2.3.79M64.36,60.32c-.31-.09-.62-.19-.95-.3.1-.04.19-.08.25-.14.48-.46,1.1-.81,1.8-1.06-.54.35-.94.84-1.1,1.5" fill="#bdb239"/><path d="M65.94,58.57s.06-.03.09-.04c-.03.01-.06.02-.09.04M56.99,59.88c-.3-.44-.21-1.27-.44-1.79-.65-.41-1.28-.59-1.88-.59-.09,0-.18,0-.26.01.09,0,.17-.01.26-.01.6,0,1.23.18,1.88.59.04.08.06.16.09.25.13.5.1,1.16.36,1.53,0,0,0,0,0,0M64.36,60.33c-1.49-.44-3.31-1.24-4.97-1.24h0c1.32,0,2.74.51,4.02.93.33.11.65.21.95.3,0,0,0,0,0,0" fill="#cec13e"/><path d="M64.41,62.78c-1.5-.46-3.33-1.28-5-1.28-.84,0-1.64.21-2.35.78-.3-.44-.2-1.28-.43-1.79-.65-.42-1.3-.61-1.9-.61-.11,0-.21,0-.32.02,0-.42,0-.85,0-1.28,0-.36,0-.73,0-1.1.09,0,.17-.01.26-.01.6,0,1.23.18,1.88.59.23.51.14,1.35.44,1.79,0,0,0,0,0,0,.69-.56,1.48-.78,2.3-.79.03,0,.06,0,.09,0h0c1.67,0,3.48.8,4.97,1.24,0,0,0,0,0,0,.16-.66.55-1.16,1.1-1.5.15-.1.31-.18.49-.25.03-.01.06-.03.09-.04,0,.84,0,1.66,0,2.49-.81.33-1.42.9-1.62,1.76" fill="#e2cb3c"/><path d="M45,62.13c-.21-.07-.42-.13-.64-.17-.25-.04-.5-.06-.75-.06h0s-.05,0-.07,0c-.05,0-.11,0-.16,0-.01,0-.03,0-.04,0,0-.31,0-.62,0-.93.02,0,.03,0,.04,0,.43,0,.88.07,1.35.25.19-1.77,1.76-2.92,3.58-2.92.65,0,1.34.15,2,.47,1.03-.45,1.54-1.43,2.45-2.01.44-.05.85-.08,1.24-.08.14,0,.28,0,.41.01,0,.28,0,.55,0,.83-.17.01-.33.04-.5.08-.26,0-.53.02-.82.05-.11.08-.21.17-.33.27-.18.17-.36.35-.53.53-.38.38-.87.85-1.55,1.15-.05.02-.19.03-.34.03-.18,0-.38-.02-.44-.04-.56-.27-1.1-.39-1.61-.39-1.42,0-2.53.94-2.65,2.11-.05.44-.3.73-.64.82" fill="#a6af63"/><path d="M43.33,61.91h0s.03-.01.04-.01c.05,0,.11,0,.16,0-.07,0-.14,0-.21,0M45.84,62.55c-.26-.18-.54-.32-.84-.42.35-.09.6-.38.64-.82.12-1.17,1.23-2.11,2.65-2.11.51,0,1.05.12,1.61.39.06.03.26.04.44.04.15,0,.29,0,.34-.03.68-.3,1.17-.77,1.55-1.15.18-.18.35-.36.53-.53.11-.1.22-.19.33-.27.29-.03.57-.05.82-.05-1.48.37-2.65,1.79-3.16,3.17-.41-1.07-1.32-1.52-2.26-1.52h0c-1.63,0-3.34,1.38-2.65,3.3" fill="#bec871"/><path d="M50.75,60.78c-.41-1.07-1.32-1.52-2.26-1.52.94,0,1.85.46,2.26,1.52.51-1.39,1.68-2.8,3.16-3.17.16-.04.33-.07.5-.08-1.71.15-3.09,1.72-3.66,3.26M43.33,61.91c.07,0,.14,0,.21,0,.02,0,.05,0,.07,0h0c-.09,0-.18,0-.28,0M45.84,62.56c-.44-.3-.95-.5-1.48-.59.22.04.43.09.64.17.3.1.58.24.84.42,0,0,0,0,0,0" fill="#cfda7a"/><path d="M45.88,64.85c-.65-.46-1.46-.68-2.27-.68-.09,0-.19,0-.28,0,0-.75,0-1.51,0-2.27.09,0,.18,0,.28,0h0c.25,0,.5.02.75.06.53.09,1.04.29,1.48.59,0,0,0,0,0,0-.68-1.93,1.03-3.3,2.65-3.3h0c.94,0,1.85.46,2.26,1.52.56-1.54,1.95-3.11,3.66-3.26,0,.37,0,.73,0,1.1,0,.43,0,.85,0,1.28-1.67.17-3.04,1.71-3.61,3.22-.4-1.08-1.32-1.54-2.27-1.54-1.62,0-3.32,1.36-2.65,3.28" fill="#e4e57c"/><path d="M32.76,56.23c0-4.39-.03-8.88-.06-13.42,1.59-.1,2.99-.23,4.55-.23.53,0,1.08.01,1.67.05,1.08,3.62.66,8.81,1.22,12.97-2.64.4-4.89.5-7.37.63" fill="#a0c6b1"/><path d="M27.17,38.01c-.49-2.41-1.95-5.82-4.64-9.19,0-.39,0-.78-.01-1.18.53.61,1.03,1.23,1.48,1.85h0c.04.06.09.12.13.18.94,1.12,1.8,2.32,2.57,3.63,1.11,1.37.56,4.46,2.99,4.46.1,0,.2,0,.31-.02-.73-3.25-3.73-7.76-7.49-11.6,0-.38,0-.76-.01-1.13,3.59,3.32,6.53,7.33,8.36,12.49l1.82-.06c0,.06,0,.12,0,.18l-5.5.4M26.75,38.04s-.04-.08-.12-.21c.13.08.26.14.41.19l-.3.02" fill="#a59590"/><path d="M27.18,38.06s-.09-.02-.13-.04c-.15-.05-.29-.11-.41-.19-.89-.55-1.22-1.79-1.65-2.52-.71-1.19-1.52-2.5-2.43-3.79,0-.9-.02-1.8-.02-2.7,2.69,3.36,4.15,6.78,4.64,9.19,0,.02,0,.03,0,.05" fill="#b7a59e"/><path d="M29.1,57.28c.53-4.69-.33-10.05.5-14.76,1.06-.37,2.08-.55,3.1-.64,0,.31,0,.63,0,.94-.57.04-1.17.07-1.8.1-1.4,4.48-.21,8.63-.73,13.47.91-.06,1.76-.11,2.59-.15,0,.24,0,.5,0,.74-1.18.1-2.4.21-3.66.31" fill="#91aabb"/><path d="M32.67,36.96c-.9-3.07-2.28-5.64-3.98-7.88h0c-1.79-2.37-3.93-4.38-6.22-6.23,0-.34,0-.68-.01-1.02,2.17,1.64,4.88,4.05,7.21,7.16h0c.62.83,1.22,1.71,1.77,2.64.55.92.85,1.92,1.2,2.91,0,.81.01,1.62.02,2.42" fill="#a59590"/><path d="M32.51,19.03l-7.21-.17s-.03-.02-.05-.03c-.01.01-.02.02-.04.03l-2.79-.06c0-.29,0-.58,0-.87,2.92.02,6.45.05,10.08.12,0,.33,0,.66.01.99" fill="#91aabb"/><path d="M30.18,56.38c.53-4.84-.66-8.99.73-13.47.63-.03,1.23-.06,1.8-.1.03,4.54.05,9.03.06,13.42-.83.04-1.68.09-2.59.15" fill="#80bce0"/><path d="M22.57,33.3c-.07-.1-.14-.19-.21-.29-2.28-3.15-5.56-6.12-9.5-8.41,0-.41,0-.82-.01-1.23,2.3,1.25,4.48,2.62,5.77,3.7,1.46,1.23,2.78,2.82,3.94,4.45,0,.59,0,1.18.01,1.77" fill="#8693ad"/><path d="M22.53,28.82c-2.28-2.85-5.46-5.66-9.7-7.79,0-.21,0-.43,0-.64.03.01.06.03.09.04.06.03.13.06.19.09.04.02.08.04.12.06.07.03.14.07.2.1.03.02.07.03.1.05.07.04.15.07.22.11.03.01.05.03.08.04.08.04.15.08.23.12.02.01.04.02.06.03.08.04.16.09.24.13.02,0,.03.02.05.03.09.05.17.09.25.14.01,0,.02.01.03.02.09.05.18.1.27.15,0,0,0,0,.02,0,.09.05.19.11.28.16,0,0,0,0,0,0,3,1.74,5.39,3.83,7.27,5.98,0,.39,0,.78.01,1.18" fill="#9a7881"/><path d="M22.55,31.52c-1.16-1.63-2.47-3.22-3.94-4.45-1.28-1.08-3.46-2.45-5.77-3.7,0-.78-.02-1.55-.02-2.33,4.24,2.13,7.42,4.94,9.7,7.79,0,.9.02,1.8.02,2.7" fill="#aa848e"/><path d="M22.43,18.79h-.6s-9.03-.46-9.03-.46c0-.23,0-.45,0-.67,1.04.08,2.09.14,3.14.17,1.22.04,3.55.06,6.49.08,0,.29,0,.58,0,.87" fill="#8693ad"/><path d="M22.5,26.14c-3.01-3.08-6.5-5.73-9.7-6.99,0-.27,0-.54,0-.81l9.03.44h.6c0,.24,0,.46,0,.69-.62-.27-1.29-.45-1.99-.48-.08,0-.16,0-.25,0h0c-.07,0-.13,0-.2,0-.35.01-.72.07-1.08.17-.12.03-.25.07-.38.12.15.06.78.4,1.7.99,0,0,0,0,0,0,.02.01.05.03.07.04,0,0,.01,0,.02.01.02.01.03.02.05.03.02,0,.03.02.05.03,0,0,.01,0,.02.01.02.01.04.03.06.04,0,0,0,0,0,0,.57.37,1.23.84,1.95,1.38,0,.34,0,.68.01,1.02-1.69-1.37-3.47-2.67-5.24-3.96-.17.03-.38.04-.59.04-.16,0-.32,0-.48,0-.17,0-.33-.01-.49-.01h0c-.44,0-.84.05-1.03.29.1.06.21.13.31.19.01,0,.02.02.04.02,2.69,1.67,5.23,3.5,7.51,5.6,0,.38,0,.76.01,1.13" fill="#9a7881"/><path d="M16.65,18.92h0c.21,0,.42,0,.59-.04-.17.03-.38.04-.59.04M20.45,18.98c-.08,0-.16,0-.25,0h0c.08,0,.16,0,.25,0M18.91,19.15c.37-.1.73-.16,1.08-.17-.35.01-.72.07-1.08.17M14.64,19.19c.2-.24.59-.29,1.03-.29h0c-.44,0-.84.05-1.03.29M14.95,19.38c-.1-.06-.21-.13-.31-.19.1.06.21.13.31.19M20.24,20.26c-.92-.59-1.55-.93-1.7-.99.16.06.78.4,1.7.99M20.31,20.31s-.05-.03-.07-.04c.02.01.05.03.07.04M20.39,20.36s-.03-.02-.05-.03c.02.01.03.02.05.03M20.45,20.4s-.01,0-.02-.01c0,0,.01,0,.02.01M12.91,20.44s-.06-.03-.09-.04c.03.01.06.03.09.04M20.51,20.44s0,0,0,0h0M13.21,20.58s-.08-.04-.12-.06c.04.02.08.04.12.06M13.52,20.73s-.07-.03-.1-.05c.03.02.07.03.1.05M13.81,20.88s-.05-.03-.08-.04c.03.01.05.03.08.04M14.11,21.04s-.04-.02-.06-.03c.02.01.04.02.06.03M14.4,21.19s-.03-.02-.05-.03c.02,0,.03.02.05.03M14.69,21.35s-.02-.01-.03-.02c.01,0,.02.01.03.02M14.97,21.51s0,0-.02,0c0,0,0,0,.02,0M15.25,21.67s0,0,0,0c0,0,0,0,0,0M22.49,25c-2.28-2.1-4.82-3.93-7.51-5.6,2.69,1.67,5.23,3.5,7.51,5.6h0M22.5,26.14c-3-3.08-6.5-5.73-9.7-6.99h0c3.2,1.26,6.69,3.91,9.7,6.99h0" fill="#a48089"/><path d="M22.46,21.82c-.72-.55-1.38-1.01-1.95-1.38h0s-.04-.03-.06-.04c0,0-.01,0-.02-.01-.02,0-.03-.02-.05-.03-.02-.01-.03-.02-.05-.03,0,0-.02,0-.02-.01-.02-.02-.05-.03-.07-.04,0,0,0,0,0,0-.92-.59-1.55-.93-1.7-.99.13-.05.25-.09.38-.12.37-.1.73-.16,1.08-.17.07,0,.14,0,.2,0,.08,0,.17,0,.25,0,.7.04,1.37.22,1.99.48,0,.79.02,1.57.02,2.36M22.49,25c-2.28-2.1-4.82-3.93-7.51-5.6-.01,0-.02-.02-.04-.02-.1-.06-.21-.13-.31-.19.2-.24.59-.29,1.03-.29h0c.16,0,.33,0,.49.01.16,0,.32,0,.48,0h0c.21,0,.41,0,.59-.04,1.77,1.29,3.54,2.59,5.24,3.96,0,.72.01,1.44.02,2.16M22.52,27.65c-1.87-2.15-4.27-4.24-7.27-5.98,0,0,0,0,0,0-.09-.05-.18-.11-.28-.16,0,0,0,0-.02,0-.09-.05-.18-.1-.27-.15-.01,0-.02-.01-.03-.02-.08-.05-.17-.09-.25-.14-.02,0-.03-.02-.05-.03-.08-.04-.16-.09-.24-.13-.02-.01-.04-.02-.06-.03-.08-.04-.15-.08-.23-.12-.03-.01-.05-.03-.08-.04-.07-.04-.15-.07-.22-.11-.03-.02-.07-.03-.1-.05-.07-.03-.14-.07-.2-.1-.04-.02-.08-.04-.12-.06-.06-.03-.13-.06-.19-.09-.03-.01-.06-.03-.09-.04,0-.42,0-.83-.01-1.25,3.2,1.26,6.69,3.91,9.7,6.99,0,.5,0,1,.01,1.51" fill="#ad8a96"/><path d="M12.8,18.33l-9.21-.45c0-.31,0-.64-.01-.95,3.11.16,6.15.51,9.22.73,0,.22,0,.45,0,.67M12.86,24.6c-2.79-1.61-5.91-2.89-9.25-3.63,0-.44,0-.88-.01-1.32.84.17,1.76.41,2.6.69,1.78.59,4.28,1.74,6.65,3.03,0,.41,0,.82.01,1.23" fill="#a796ab"/><path d="M12.83,21.03c-2.15-1.08-4.57-1.98-7.29-2.62-.55-.13-1.22-.23-1.95-.31,0-.07,0-.14,0-.21l9.21.45c0,.27,0,.54,0,.81-.7-.27-1.38-.48-2.05-.61,0,0,0,0-.02,0-.12-.02-.23-.04-.34-.06-.01,0-.03,0-.04,0-.07,0-.13-.02-.2-.03,0,0-.02,0-.03,0-.03,0-.06,0-.1-.01h-.06s-.09-.02-.14-.02c-.03,0-.05,0-.08,0-.03,0-.06,0-.08,0-.03,0-.05,0-.08,0-.04,0-.07,0-.11,0-.03,0-.06,0-.09,0-.03,0-.05,0-.07,0-.03,0-.06,0-.09,0-.02,0-.03,0-.05,0-.48,0-.95.05-1.39.16.12.03.25.07.37.11.03,0,.06.02.09.03.09.03.18.06.28.08.03.01.07.02.1.03.09.03.17.05.26.08.04.01.08.03.12.04.08.02.16.05.23.08.04.01.08.03.11.04.08.03.16.05.24.08.04.01.08.03.12.04.08.03.15.05.23.08.04.01.08.03.12.04.07.03.15.05.22.08.05.02.09.03.14.05.07.03.14.05.2.08.05.02.09.03.13.05.07.03.13.05.2.08.05.02.09.04.14.06.06.03.13.05.19.08.05.02.1.04.15.06.06.02.12.05.18.07.05.02.11.05.16.07.05.02.11.05.16.07.06.02.11.05.17.07.05.02.1.04.15.07.06.03.12.05.18.08.04.02.09.04.13.06.06.03.12.06.18.08.02,0,.03.01.05.02,0,.21,0,.43,0,.64" fill="#b9757c"/><path d="M12.85,23.37c-2.37-1.28-4.86-2.44-6.65-3.03-.84-.28-1.76-.51-2.6-.69,0-.52-.01-1.04-.02-1.55.73.08,1.4.19,1.95.31,2.72.64,5.14,1.55,7.29,2.62,0,.78.02,1.55.02,2.33" fill="#cd8189"/><path d="M9.41,18.38s-.05,0-.07,0c.03,0,.05,0,.07,0M9.61,18.39s-.07,0-.11,0c.04,0,.07,0,.11,0M9.77,18.4s-.05,0-.08,0c.03,0,.06,0,.08,0M9.98,18.42s-.09,0-.14-.01c.04,0,.09,0,.14.01M10.14,18.44s-.06,0-.1-.01c.03,0,.06,0,.1.01M10.36,18.47c-.07,0-.13-.02-.2-.03.06,0,.13.02.2.03M7.8,18.53c.44-.11.91-.16,1.39-.16.02,0,.03,0,.05,0-.02,0-.03,0-.05,0-.48,0-.95.05-1.39.16M10.75,18.53c-.12-.02-.23-.04-.34-.06.11.02.23.04.34.06M8.17,18.64c-.12-.04-.24-.07-.37-.11.12.03.25.07.37.11M8.54,18.75c-.09-.03-.18-.06-.28-.08.09.03.18.06.28.08M8.89,18.86c-.09-.03-.17-.05-.26-.08.09.03.17.05.26.08M9.25,18.98c-.08-.03-.16-.05-.23-.08.08.02.16.05.23.08M9.6,19.1c-.08-.03-.16-.05-.24-.08.08.03.16.05.24.08M12.81,19.15c-.7-.27-1.38-.48-2.05-.61.66.13,1.35.34,2.05.61h0M9.95,19.22c-.08-.03-.15-.05-.23-.08.08.03.15.05.23.08M10.3,19.34c-.07-.03-.15-.05-.22-.08.07.03.15.05.22.08M10.64,19.47c-.07-.03-.13-.05-.2-.08.07.03.14.05.2.08M10.97,19.6c-.07-.03-.13-.05-.2-.08.07.03.14.05.2.08M11.31,19.73c-.06-.03-.13-.05-.19-.08.06.03.13.05.19.08M11.63,19.87c-.06-.02-.12-.05-.18-.07.06.02.12.05.18.07M11.96,20.01c-.05-.02-.11-.05-.16-.07.06.02.11.05.16.07M12.28,20.15s-.1-.04-.15-.07c.05.02.1.04.15.07M12.59,20.29s-.09-.04-.13-.06c.04.02.09.04.13.06M12.82,20.4s-.03-.01-.05-.02c.02,0,.03.01.05.02" fill="#c67c84"/><path d="M12.82,20.4s-.03-.01-.05-.02c-.06-.03-.12-.06-.18-.08-.04-.02-.09-.04-.13-.06-.06-.03-.12-.06-.18-.08-.05-.02-.1-.04-.15-.07-.06-.02-.11-.05-.17-.07-.05-.02-.11-.05-.16-.07-.05-.02-.11-.05-.16-.07-.06-.02-.12-.05-.18-.07-.05-.02-.1-.04-.15-.06-.06-.03-.13-.05-.19-.08-.05-.02-.09-.04-.14-.06-.07-.03-.13-.05-.2-.08-.04-.02-.09-.03-.13-.05-.07-.03-.13-.05-.2-.08-.05-.02-.09-.03-.14-.05-.07-.03-.15-.05-.22-.08-.04-.01-.08-.03-.12-.04-.08-.03-.15-.05-.23-.08-.04-.01-.08-.03-.12-.04-.08-.03-.16-.05-.24-.08-.04-.01-.07-.02-.11-.04-.08-.03-.16-.05-.23-.08-.04-.01-.08-.03-.12-.04-.09-.03-.17-.05-.26-.08-.03-.01-.07-.02-.1-.03-.09-.03-.18-.06-.28-.08-.03,0-.06-.02-.09-.03-.12-.04-.24-.07-.37-.11.44-.11.91-.16,1.39-.16.02,0,.03,0,.05,0,.03,0,.06,0,.09,0,.02,0,.05,0,.07,0,.03,0,.06,0,.09,0,.04,0,.07,0,.11,0,.02,0,.05,0,.08,0,.03,0,.05,0,.08,0,.03,0,.05,0,.08,0,.04,0,.09,0,.14.01h.06s.06.01.1.02c0,0,.02,0,.03,0,.06,0,.13.02.2.03.01,0,.03,0,.04,0,.11.02.23.04.34.06,0,0,0,0,.02,0,.66.13,1.35.34,2.05.61,0,.42,0,.83.01,1.25" fill="#d28691"/><path d="M132.87,150.51c-14.46,1.65-25.54-.47-28.59-1.16-7.52-1.7-14.13-4.35-19.1-7.67-1.22-.81-3.64-2.77-4.13-4.36-.71-2.35-.01-4.7,2.08-7.01-.59-4.5-6.17-25.48-9.18-36.8-1.42-5.34-1.87-7.03-1.98-7.57-2.31-1.03-5.69-3.94-6.01-6.72-.14-1.19.26-2.24,1.2-3.12-3.25-.33-5.95-.14-8.79.06-2.57.18-5.23.37-8.6.22h-.13s-.08-.1-.08-.1c-1.51-1.75-2.24-4.49-2.94-7.14-.16-.6-.31-1.19-.48-1.78-1.61-.83-3.34-1.61-5.17-2.43-1.98-.89-4.04-1.81-6-2.84-.35-.18-.75-.46-1.1-.71-.21-.15-.47-.33-.59-.39-.08.04-.22.17-.33.26-.32.28-.75.66-1.29.72-.33.04-.67-.05-.99-.25-.34-.22-.54-.66-.72-1.31-.12.03-.23.06-.34.07-.69.08-1.15-.25-1.63-.6l-.16-.12-.03-.1c-.25-.86.04-1.34.27-1.73l.04-.07c-.23-.06-.46-.12-.69-.18-3.24-.84-7.26-1.87-8.77-5.41l-.03-.07v-.08c.07-.56.59-.73.97-.86h.02c-.33-.27-.67-.52-1.01-.77-1.66-1.24-3.38-2.53-4.28-4.85-.19-.85.51-1.04.89-1.15.06-.02.11-.03.17-.05-.27-.32-.57-.65-.89-.99-1.4-1.5-3-3.2-2.58-5.66l.02-.14.12-.07c.38-.22.88-.3,1.36-.36.14-.02.63-.06.73-.07-.18-.54-.45-1.05-.73-1.58-.59-1.11-1.2-2.26-1-3.76v-.1s.09-.07.09-.07c.17-.17.36-.26.57-.29.31-.04.6.09.86.19.08.03.16.06.23.09.12-.92.2-1.88.28-2.81l.05-.6c-2.26-1.11-3.97-2.91-5.62-4.66-7.39-.87-7.87-2.94-7.72-5.16,0-.13.02-.26.02-.38v-.1s.07-.08.07-.08c.66-.78,1.56-1.24,2.66-1.36,1.47-.17,3.04.28,4.21.75-1.54-1.44-3.68-3.53-3.66-6.04.02-1.87,1.13-2.28,1.79-2.35,1.35-.15,3.11.71,4.17,1.58.54.45,1.03,1.01,1.5,1.55.79.91,1.53,1.77,2.48,2.1-.19-.64-.61-1.52-1.04-2.45-1.08-2.28-2.29-4.85-1.69-6.52.2-.55.59-.96,1.15-1.22.29-.13.57-.21.85-.25,2.21-.25,3.6,2.67,4.83,5.25.51,1.07.99,2.09,1.48,2.78.1-.97-.13-2.27-.35-3.53-.48-2.76-1.03-5.88,1.63-6.53.08-.02.16-.03.24-.04,1.28-.15,3.03.91,3.5,1.84,1,1.96.97,4.41.94,6.77-.02,1.59-.04,3.23.26,4.66,1.01-.39,2-.65,2.95-.76,1.99-.23,3.68.22,4.66,1.22.7.72.99,1.67.83,2.75-.24,1.68-1.81,1.9-3.33,2.11-1.08.15-2.2.3-2.87.96-.28.28-.43.79-.58,1.33-.21.74-.44,1.56-1.11,2,.33.31.7.57,1.09.84.17.12.34.24.51.36.04-.16.06-.34.08-.53.03-.21.05-.42.1-.61l.1-.42.36.24c2.81,1.86,4.58,4.64,5.4,8.5.07-.09.11-.19.16-.32.14-.35.32-.78,1.1-1.04l.18-.06.13.13c1.47,1.49,2.21,4.36,2.27,8.77h.04s.13-.07.2-.13c.16-.13.37-.3.69-.34.1-.01.2,0,.3,0l.13.02.07.11c2.1,3.25,1.56,7.48,1.13,10.87-.1.79-.2,1.54-.25,2.23,1.02.46,1.98.91,2.92,1.35,1.63.77,3.18,1.5,5.02,2.24.02-.05.03-.11.05-.17.08-.27.17-.61.5-.79l.06-.04h.07c.9-.02,1.55.27,2.17.54.36.16.71.31,1.1.41-.16-2.23.14-4.44.89-6.58-1.42.08-2.99-.52-4.23-1.62-1.24-1.26-1.77-3.11-1.55-5.35.27-1,1.07-3.88,4-4.21.58-.07,1.21-.03,1.89.11-.4-3.14-.1-6.41.89-9.73l-27.76-62.06C7.37-47.41-5.92-67.25-11.87-90.18c-1.77.02-2.97-1.06-4.02-2.01-.26-.24-.52-.47-.78-.68l-.04-.03-.03-.04c-4.41-7.17-3.14-19.34.85-24.63.15-.2.29-.46.43-.73.06-.12.13-.25.2-.37.45-26.18,10.67-51.79,28.79-72.11,18.3-20.53,43.51-34.3,70.97-38.77l.14-.02c1.52-.23,3.07-.44,4.59-.61,28.28-3.22,56.37,3.64,79.09,19.32,22.62,15.61,38.13,38.7,43.71,65.06l.07.06c1.71,1.33,5.27,4.09,7.65,7.45,2.4,3.39,7.57,11.81,3.75,16.74-.77,1-1.74,1.57-2.88,1.7-1.42.16-3.07-.35-5.04-1.55l-1.24-1.17c-.14,13.49-2.8,26.81-7.91,39.59l-26.31,135.74c.31.21.57.4.82.6,4.09,3.75,3.61,11.05-1.08,16.67,0,.25-.02.91-.04,1.9-.77,33.36-.76,44.27-.6,47.48,1.61.73,2.53,1.9,2.73,3.47.46,3.5-2.81,8.11-5.35,10.08-12.59,9.81-27.31,15.74-43.74,17.61M161.2,48.46c7.44.27,13.15,1.32,16.97,3.14l20.4-118.62c-7.31,12.32-16.74,23.11-28.05,32.1l-9.31,83.39ZM102.63,49.06c1.88.89,6.82,4.05,8.3,5.12,3.55-.82,7.35-1.59,11.3-2.3l-1.71-9.9c-1.49-.03-3.1-.54-4.77-1.5l-.11-.06-.03-.12c-.56-2.22-1.61-5.98-3.31-10.51.8,3.27-.09,7.11-2.32,9.77-1.15,1.57-2.5,2.47-4,2.64-.38.04-.78.04-1.17-.01-.62-.08-1.16-.27-1.59-.47.2,2.17,0,4.64-.59,7.35M145.67,48.86c4.81-.36,9.28-.52,13.3-.46l7.2-80.05c-3.57,2.58-7.3,4.97-11.08,7.11-1.5.84-2.95,1.8-4.45,2.92l-4.97,70.48ZM124.72,51.46c4.37-.73,8.74-1.35,12.99-1.84,1.81-.21,3.61-.39,5.35-.54l3.25-67.01c-14.81,14.33-19.59,38.47-19.1,56.43v.14s-.1.09-.1.09c-.15.13-.32.28-.5.45-.81.74-1.91,1.75-3.4,2.34l1.5,9.95ZM105.93,24.34c.38-.04.76-.05,1.15-.02,1.95.49,3.46,1.65,4.41,3.35-4.27-10.68-11.93-24.7-24.7-33.39l4.87,19.53c5.6,3.27,8.64,9.61,9.21,13.56,1.14-1.34,2.85-2.77,5.07-3.02M56.06,24.88c.82-1.66,1.8-3.24,2.9-4.71-.14-.03-.28-.06-.43-.09l-.44-.08c-.28-.05-.56-.1-.84-.16-.83-.18-1.75-.45-2.32-1.14-.09-.11-.13-.25-.11-.39.02-.14.1-.26.22-.34.03-.02,3.27-2.2,8.22-2.76.2-.02.41-.04.62-.06-.02-.06-.04-.13-.06-.19-.06-.2-.12-.41-.17-.62-.17-.64-.27-1.12-.32-1.57-.14-1.35.2-2.34,1.06-3.03.07-.05.15-.09.25-.1.14-.02.28.02.37.09.15.12.58.57,1.26,1.29.41.44.87.92,1.17,1.22.7-1.5,1.47-2.74,2.36-3.79l-7.52-23.07c-10.07-3.04-19.61-7.42-28.36-13.02l22.13,52.52ZM84.46,11.66c.98.05,1.96.19,2.9.42l-5.68-20.8c-3.17-1.59-6.45-2.75-9.75-3.44-1.67-.35-3.41-.76-5.16-1.21l6.95,23c1.46-.83,2.99-1.36,4.56-1.57.22-.02.46.12.53.32.21.57-.19,1.48-.61,2.27.9-.31,1.8-.61,2.72-.83.56-.13,1.07-.22,1.58-.28.87-.1,1.69-.1,2.5.01.16.02.35.17.4.32.21.59-.43,1.32-.94,1.77M212.85-141.61c.21,1.2.38,2.32.53,3.38.19,1.35.35,2.75.49,4.16.95,2.8,2.35,4.32,4.28,4.56.65-.49.68-1.45.64-1.99-.26-3.66-3.73-7.63-5.93-10.11" fill="#1d1d1b"/><path d="M219.52-138.15c-2.24-3.17-5.54-5.8-7.58-7.38l-.12.06c-11.68-55.97-66.95-92.97-127.12-83.82l-.14.02C27.56-220-14.08-172.31-14.95-118.6c-.25.44-.45.88-.7,1.21-3.81,5.05-5.23,17.15-.84,24.29,1.38,1.12,2.64,2.76,4.85,2.62,6.04,23.49,19.86,43.37,38.45,57.5l27.83,62.23c-.99,3.26-1.36,6.72-.85,10.14-4.42-1.15-5.53,2.25-5.95,3.74-.18,1.83.12,3.73,1.46,5.09,1.15,1.02,2.84,1.77,4.48,1.5-.95,2.51-1.22,4.97-1.01,7.3-1.34-.16-2.11-1.04-3.59-1.02-.38.21-.32.76-.56,1.08-3.14-1.26-5.46-2.48-8.4-3.79.27-3.71,1.75-9.16-.82-13.13-.79-.12-.85.8-1.49.34-.03-2.93-.34-6.86-2.18-8.74-1.2.4-.65,1.2-1.56,1.58-.8-4.23-2.64-6.96-5.36-8.76-.12.51-.1,1.13-.33,1.56-.74-.6-1.6-1.05-2.24-1.78,1.43-.49,1.14-2.62,1.98-3.45,1.72-1.69,5.74-.33,6.11-2.9.47-3.24-3.44-4.82-8.35-2.76-.93-3.6.43-8.4-1.26-11.71-.42-.83-2.2-1.94-3.41-1.65-3.8.92-.28,7.63-1.18,10.45-2.02-2.05-3.58-9.87-7.2-8.19-3.3,1.53,1.61,8.15,1.85,10.33-1.93-.32-3.03-2.57-4.56-3.83-1.79-1.47-5.44-2.77-5.47.54-.03,3.22,3.72,5.76,4.88,7.1-1.97-1.12-6.08-2.71-8.16-.26-.06,1.67-.92,4.27,7.55,5.24,1.73,1.84,3.47,3.67,5.8,4.76-.12,1.33-.22,2.67-.4,3.94-.57-.03-1.18-.67-1.71-.14-.3,2.24,1.33,3.67,1.82,5.56-.82.11-1.77.11-2.32.44-.51,3.01,2.23,4.87,3.64,6.7-.4.34-1.42.19-1.24.99,1.11,2.88,3.53,4.11,5.58,5.81-.42.27-1.2.26-1.26.82,1.61,3.78,6.22,4.6,9.61,5.51-.23.58-.75.93-.46,1.92.64.46,1.1.85,2.09.44.19.77.37,1.26.67,1.45,1.2.76,2-.76,2.45-.79.18,0,1.14.79,1.83,1.15,3.77,1.97,7.85,3.54,11.29,5.32.93,3.23,1.57,6.83,3.39,8.94,7.43.33,11.57-1,18.11-.2-4.51,3.31,1.29,8.56,4.34,9.84-.01.45,10.53,38.84,11.22,44.69-1.63,1.76-2.95,4.07-2.11,6.82.44,1.44,2.72,3.34,4.01,4.2,5.37,3.58,12.13,6.07,19,7.62,9.9,2.23,43.11,6.18,72.09-16.4,3.31-2.58,8.55-10.56,2.52-13.12-.41-7.42.63-48.98.64-49.68,4.5-5.32,5.3-12.56,1.19-16.32-.3-.24-.62-.47-.96-.69l26.37-135.99c5.06-12.66,7.84-26.25,7.89-40.17l1.69,1.61c2.28,1.4,5.42,2.65,7.53-.07,3.44-4.44-.74-12.11-3.76-16.38M102.87,41.19c.41.24,1.11.59,1.98.7,1.41.19,3.23-.22,4.9-2.52,3.92-4.67,3.48-13.18-2.71-14.74-2.72-.21-4.92,1.53-6.41,3.49-.26-3.78-3.25-10.68-9.25-14.11l-5.08-20.4c15.6,10.26,25.45,30.1,29.59,46.63,1.9,1.09,3.51,1.48,4.88,1.46l1.81,10.44c-4.18.74-8.14,1.55-11.71,2.38-1.48-1.09-6.95-4.58-8.58-5.27.6-2.66.91-5.46.58-8.05M124.47,51.8l-1.58-10.49c1.88-.67,3.15-2.05,4.03-2.82-.51-18.77,4.57-42.96,19.73-57.17l-3.3,68.02c-6.34.56-12.81,1.42-18.88,2.45M71.99-12.45c3.52.74,6.83,1.95,9.94,3.53l5.85,21.42c-1.29-.35-2.67-.56-4.15-.56l.12-.08c.23-.15,1.59-1.24,1.37-1.86l-.16-.13c-1.39-.18-2.71-.04-3.98.26-1.15.27-2.27.67-3.37,1.06.04-.11.09-.23.15-.35.12-.23,1-1.7.77-2.34-.02-.07-.14-.14-.21-.13-1.68.22-3.3.82-4.77,1.72l-7.21-23.88c1.87.49,3.76.94,5.66,1.34M145.35,49.18l5-70.96c1.46-1.09,2.98-2.11,4.59-3.02,4.02-2.27,7.89-4.78,11.58-7.47l-7.29,80.98c-4.38-.08-9.09.11-13.9.48M62.52-14.86l7.62,23.38c-1.13,1.3-1.96,2.79-2.6,4.23-.39-.32-2.42-2.54-2.71-2.77-.06-.05-.19-.05-.25,0-.9.72-1.06,1.74-.95,2.76.05.5.17,1.02.31,1.52.11.4.23.79.32,1.16-5.43.36-9.04,2.79-9.06,2.8-.1.07-.12.2-.04.29.5.6,1.32.86,2.15,1.04.42.09.85.16,1.27.24.31.06.61.12.88.2-1.33,1.69-2.49,3.59-3.44,5.61l-22.76-54.03c8.93,5.83,18.77,10.41,29.24,13.56M160.86,48.75l9.36-83.83c11.74-9.31,21.56-20.73,28.91-33.51l-20.74,120.63c-4.1-2.06-10.31-3.06-17.53-3.29M219.08-131.53c.06.83-.09,1.82-.86,2.32-2.38-.24-3.79-2.26-4.65-4.84-.13-1.38-.29-2.76-.48-4.15-.2-1.48-.44-2.95-.71-4.41,2.03,2.29,6.41,6.88,6.71,11.07" fill="#1d1d1b"/><polyline points="181.13 -132.67 160.21 54.58 158.68 55.03 175.43 -131.08" fill="#1d1d1b" fill-rule="evenodd"/><polyline points="176.57 -130.77 159.46 54.08 159.58 54.04 180.32 -131.72" fill="#a8b3ce" fill-rule="evenodd"/><polyline points="213.15 -119.07 178.65 58.83 177.14 59.33 207.51 -117.29" fill="#1d1d1b" fill-rule="evenodd"/><polyline points="208.67 -117.02 177.88 58.35 178 58.32 211.39 -116.77" fill="#c3c8dd" fill-rule="evenodd"/><polyline points="99.41 -114.49 127.38 71.07 126.01 71.9 94.29 -111.48" fill="#1d1d1b" fill-rule="evenodd"/><polyline points="95.48 -111.48 126.52 70.78 126.62 70.72 98.87 -113.37" fill="#a8b3ce" fill-rule="evenodd"/><polyline points="30.71 -112.51 88.66 65.33 90.24 65.4 36.58 -112.33" fill="#1d1d1b" fill-rule="evenodd"/><polyline points="35.53 -111.75 89.29 64.66 89.17 64.65 31.68 -111.78" fill="#a8b3ce" fill-rule="evenodd"/><polyline points=".88 -90.96 77.09 79.45 78.68 79.35 6.75 -91.4" fill="#1d1d1b" fill-rule="evenodd"/><polyline points="5.75 -90.72 77.65 78.71 77.54 78.72 1.92 -90.34" fill="#c3c8dd" fill-rule="evenodd"/><path d="M84.69-229.29l-.14.02C21.9-219.08-22.21-162.45-13.99-102.45-7.69-56.42,27.58-21.77,71.99-12.45c24.02,5.04,38.62,31.57,43.91,52.68,6.18,3.54,9.31-.26,11.02-1.73-.59-21.86,6.37-51.06,28.03-63.3,40.04-22.61,64.44-67.36,58.13-113.39-8.22-60-65.64-100.65-128.39-91.1" fill="#1d1d1b"/><path d="M84.83-228.31l-.14.02C22.53-218.17-21.14-162.02-13.01-102.6-6.77-57.02,28.17-22.67,72.21-13.43c12.04,2.53,34.98,15.12,44.53,52.93,1.76.74,3.34,1.02,4.74.92l.14-.02c1.38-.34,2.81-1.09,4.3-2.34-.98-39.16,17.61-58.29,28.46-64.42,39.71-22.43,63.96-66.09,57.72-111.67-8.14-59.41-65.02-99.74-127.27-90.27" fill="#842f0d"/><path d="M83.86-228.15l-1.24.22c-.86,2.89-2.27,8.62-3.37,17.94-1.71,14.43-2.69,37.43.25,71.7,3.5,40.86,10.72,65.58,18.41,89.1,7.71,23.56,15.9,45.91,21.35,82,.32,2.14.61,4.7.86,7.58.47.05.93.05,1.36.02l.14-.02.26-.07c-.76-4.2-1.27-7.9-1.45-10.85-1.38-22.75.97-50.68,2.15-80.83,1.19-30.13,1.21-62.43-4.81-93.96-6.43-33.71-15-54.49-21.94-66.83-3.47-6.17-6.54-10.23-8.73-12.74-1.62-1.85-2.76-2.87-3.24-3.27" fill="#c5451d"/><path d="M115,33.34c-.18-.56-.36-1.12-.54-1.67l-.39-1.85c-4.61-21.87-17.83-39.2-49.01-56.41C38.11-41.47,7.48-73.04,7.26-131.99c-.14-36.71,18.74-60.93,37.63-75.95,12.79-10.17,25.59-16.14,32.53-18.93C19.16-213.73-20.82-159.67-13.01-102.6-6.77-57.02,28.17-22.67,72.21-13.43c11.17,2.34,31.7,13.35,42.25,45.09.18.55.41,1.1.54,1.67" fill="#fff042"/><path d="M115,33.34c.62,1.97,1.2,4.03,1.74,6.16.53.22,1,.39,1.46.52-.61-3.37-1.29-6.91-2.05-10.53-4.63-21.97-13.13-44.81-32.9-62.36-26.78-23.77-41.88-70.2-40.39-109.33,2.07-54.5,26.36-77.44,36.59-84.72-2.04.78-4.9,1.95-8.3,3.55-7.05,3.32-16.45,8.51-25.84,15.98-18.77,14.93-37.49,38.96-37.36,75.39.22,58.65,30.67,90.02,57.45,104.8C96.7-9.94,110.1,7.53,114.76,29.66c.71,3.39,1.39,6.69,2.02,9.86-.57-2.14-1.16-4.2-1.78-6.18" fill="#c5451d"/><path d="M125.3,38.55c.21-.15.41-.32.62-.5-.98-39.16,17.61-58.29,28.46-64.42,39.71-22.43,63.96-66.09,57.72-111.67-8.06-58.88-64.01-99.02-125.6-90.51l.29.06c2.01.06,5.94.25,11.13.94,7.68,1.01,18.13,3.1,29.19,7.38,22.12,8.57,46.69,25.95,56.4,61.15,15.6,56.53-5.28,96.21-27.11,118.77-25.23,26.07-30.77,46.56-31.12,69.05-.06,3.45-.05,6.71,0,9.75" fill="#fff042"/><path d="M123.98,39.43c.21-.12.42-.25.63-.39-.06-3.19-.08-6.61-.02-10.24.36-22.67,5.97-43.33,31.33-69.54,21.69-22.41,42.45-61.84,26.93-118.08-16.3-59.09-74.79-67.58-92.46-68.79.43.12.87.25,1.33.39,4.83,1.47,11.49,4.11,18.8,8.79,14.63,9.37,31.87,26.92,42.4,59.62,11.93,37.05,5.74,86.82-13.53,117.82-14.23,22.9-17.63,47.63-16.18,70.08.23,3.57.49,7.03.77,10.33" fill="#c5451d"/><path d="M122.56,40.11c.25-.09.5-.2.75-.32-.29-3.39-.56-6.96-.8-10.63-1.46-22.55,1.95-47.44,16.28-70.51,19.15-30.81,25.32-80.37,13.45-117.23-10.47-32.54-27.61-49.96-42.11-59.25-7.25-4.65-13.85-7.26-18.63-8.71-1.92-.58-3.54-.98-4.8-1.24-.72-.02-1.18-.02-1.34-.02,4.08,3.8,8.93,11.48,11.09,15.31,6.99,12.42,15.58,33.27,22.02,67.04,6.03,31.61,6.01,63.98,4.82,94.12-1.19,30.12-3.53,58.03-2.15,80.76.18,2.91.68,6.55,1.43,10.68" fill="#fff042"/><path d="M118.96,40.21l.46.09c-.25-2.79-.53-5.28-.85-7.37-5.44-36.04-13.62-58.36-21.32-81.89-7.71-23.56-14.93-48.33-18.44-89.26-4.75-55.42.73-81.46,3.03-89.47-.95.61-2.16,1.43-3.54,2.5-3.6,2.77-8.44,7.18-13.37,13.74-9.84,13.12-20.04,34.85-21.35,69.26-1.48,38.98,13.57,85.19,40.16,108.79,19.92,17.68,28.47,40.7,33.11,62.73.79,3.75,1.49,7.4,2.12,10.88" fill="#fff042"/><path d="M95.02-58.21c.95,3.05,1.92,6.04,2.89,9.02,7.71,23.56,15.9,45.91,21.35,82,.32,2.14.61,4.7.86,7.58.47.05.93.05,1.36.02l.14-.02.26-.07c-.76-4.2-1.27-7.9-1.45-10.85-1.38-22.75.97-50.68,2.15-80.83.23-5.94.42-11.96.53-18.04-8.52,4.77-17.96,8.49-28.1,11.18" fill="#af3e18"/><path d="M114.46,31.67l-.39-1.85c-4.61-21.87-17.83-39.2-49.01-56.41-15.03-8.3-31.21-21.79-42.62-42.32-13.5-8.07-25.64-18.88-35.02-30.77C-5.26-55.55,29.12-22.47,72.21-13.43c11.17,2.34,31.7,13.35,42.25,45.09" fill="#f7d142"/><path d="M116.75,39.5c.55.23,1.01.39,1.46.52-.61-3.37-1.29-6.91-2.05-10.53-4.63-21.97-13.13-44.81-32.9-62.36-6.72-5.97-12.7-13.36-17.88-21.7-14.3-.96-28.62-6-41.72-13.63,11.3,19.81,27.08,32.89,41.75,40.99C96.7-9.94,110.1,7.53,114.76,29.66c.71,3.39,1.39,6.69,2.02,9.86-.56-2.12-1.14-4.16-1.76-6.12.61,1.96,1.19,3.99,1.72,6.1" fill="#af3e18"/><path d="M125.3,38.55c.21-.15.41-.32.62-.5-.98-39.16,17.61-58.29,28.46-64.42,39.71-22.43,63.96-66.09,57.72-111.67-6.58-48.08-45.09-83.66-92.53-90.47,8.46,3.63,18.53,9.4,27.34,18.46,15.55,10.26,29.77,26.21,36.62,51.02,15.6,56.53-5.28,96.21-27.11,118.77-25.23,26.07-30.77,46.56-31.12,69.05-.06,3.45-.05,6.71,0,9.75" fill="#f7d142"/><path d="M123.98,39.43c.21-.12.42-.25.63-.39-.06-3.19-.08-6.61-.02-10.24.36-22.67,5.97-43.33,31.33-69.54,21.69-22.41,42.45-61.84,26.93-118.08-6.41-23.23-19.33-38.64-33.74-48.86,9.38,10.53,16.94,25.09,18.94,45.17,2.26,22.75-1.38,41.88-9.49,57.45-1.72,23.55-8.4,46.74-19.17,64.07-14.23,22.9-17.63,47.63-16.18,70.08.23,3.57.49,7.03.77,10.33" fill="#af3e18"/><path d="M122.56,40.11c.25-.09.5-.2.75-.32-.29-3.39-.56-6.96-.8-10.63-1.46-22.55,1.95-47.44,16.28-70.51,10.46-16.84,17.05-39.27,18.94-62.17-7.84,14.31-19.54,25.53-33.91,33.73-.11,6.22-.3,12.38-.54,18.45-1.19,30.12-3.53,58.03-2.15,80.76.18,2.91.68,6.55,1.43,10.68" fill="#f7d142"/><path d="M118.96,40.21l.46.09c-.25-2.79-.53-5.28-.85-7.37-5.44-36.04-13.62-58.36-21.32-81.89-.98-3-1.95-6.01-2.91-9.07-4.07,1.06-8.25,1.95-12.53,2.67-5.14.87-10.35,1.13-15.56.84,5.08,8.11,10.93,15.3,17.48,21.12,19.92,17.68,28.47,40.7,33.11,62.73.79,3.75,1.49,7.4,2.12,10.88" fill="#f7d142"/><path d="M102.29,49.23c1.64.7,7.11,4.18,8.58,5.27,22.11-5.13,59.31-9.56,69.9-.96,4.1,3.76,3.31,11-1.19,16.32,0,.7-1.04,42.26-.64,49.68,6.03,2.56.8,10.54-2.52,13.12-28.98,22.57-62.19,18.63-72.09,16.4-6.87-1.55-13.63-4.04-19-7.62-1.29-.86-3.57-2.75-4.01-4.19-.84-2.75.48-5.06,2.11-6.82-.69-5.85-11.23-44.24-11.22-44.69-3.05-1.29-8.86-6.54-4.34-9.85-6.55-.8-10.68.53-18.11.2-1.82-2.11-2.46-5.7-3.39-8.94-3.44-1.78-7.51-3.35-11.29-5.32-.69-.36-1.64-1.16-1.83-1.15-.46.02-1.25,1.55-2.45.79-.3-.19-.48-.68-.67-1.45-.98.41-1.45.02-2.09-.44-.29-.99.23-1.34.46-1.92-3.39-.92-8.01-1.74-9.61-5.52.06-.56.84-.55,1.26-.82-2.05-1.7-4.47-2.92-5.58-5.81-.18-.8.84-.65,1.24-.99-1.41-1.83-4.16-3.69-3.64-6.7.55-.32,1.51-.32,2.32-.43-.49-1.89-2.12-3.32-1.82-5.56.53-.53,1.15.12,1.71.14.18-1.28.28-2.62.4-3.94-2.33-1.09-4.06-2.93-5.8-4.76-8.46-.97-7.6-3.57-7.55-5.24,2.08-2.46,6.2-.86,8.16.26-1.16-1.34-4.9-3.87-4.88-7.1.03-3.31,3.68-2.01,5.47-.54,1.54,1.26,2.63,3.51,4.56,3.83-.24-2.18-5.15-8.8-1.85-10.33,3.62-1.68,5.19,6.14,7.2,8.19.9-2.82-2.62-9.52,1.18-10.45,1.2-.29,2.98.82,3.41,1.65,1.7,3.31.33,8.1,1.26,11.71,4.92-2.06,8.82-.47,8.35,2.76-.37,2.57-4.39,1.21-6.11,2.9-.84.82-.55,2.96-1.98,3.45.64.73,1.5,1.18,2.24,1.78.23-.43.21-1.05.33-1.56,2.73,1.8,4.57,4.53,5.36,8.76.91-.38.36-1.18,1.56-1.58,1.84,1.88,2.15,5.81,2.18,8.74.64.46.7-.46,1.49-.34,2.57,3.97,1.09,9.42.82,13.13,2.94,1.31,5.26,2.53,8.4,3.79.24-.32.18-.87.56-1.08,1.49-.03,2.26.85,3.59,1.01-.22-2.33.05-4.79,1-7.3-1.64.27-3.32-.48-4.48-1.5-1.33-1.36-1.63-3.27-1.45-5.09.41-1.49,1.53-4.89,5.94-3.74-1.04-6.97,1.57-14.13,5.69-19.39-.28-.08-.58-.14-.89-.2-.42-.08-.85-.15-1.27-.24-.83-.18-1.65-.44-2.15-1.04-.08-.09-.06-.22.04-.29.01,0,3.63-2.44,9.06-2.8-.1-.37-.22-.76-.32-1.16-.13-.5-.26-1.02-.31-1.52-.11-1.02.05-2.04.95-2.77.06-.05.19-.05.25,0,.29.23,2.32,2.45,2.71,2.77.9-2.02,2.15-4.13,4.1-5.69.49-.67,1.41-.97.69,3.85,1.77-1.36,3.83-2.26,5.98-2.54.08,0,.19.06.21.13.23.64-.64,2.11-.77,2.34-.06.12-.11.23-.15.35,1.11-.39,2.22-.79,3.37-1.06,1.27-.3,2.59-.45,3.98-.26l.16.13c.23.63-1.14,1.71-1.37,1.86l-.12.08c11.23.06,16.65,11.02,17.01,16.18,1.49-1.97,3.69-3.7,6.41-3.49,6.19,1.56,6.62,10.07,2.71,14.74-1.68,2.3-3.49,2.71-4.9,2.52-.87-.12-1.58-.46-1.98-.7.33,2.59.02,5.39-.58,8.05" fill="#1d1d1b"/><path d="M69.17,27.38c3.43-7.87,11.02-9.46,15.55-7.54,8.09,3.37,4.23,14.42,2.28,17.59l-4.56-.22c.88.27,1.74.67,2.64.47,4.88,1.15,9.11,3.9,11.62,8.7,5.69,13.52-9.7,30.59-28.31,26.39-6.36-.84-11.49-6.57-13.47-12.34-3.17-10.16,4.52-18.58,6.01-19.83-.1-.92-6.02-8.32-1.83-13.1,1.81-2.28,6.29-5.27,10.08-.12" fill="#fddbbe"/><path d="M73.69,21.52c3.61-2.68,8-2.97,11.03-1.68,8.08,3.37,4.23,14.42,2.27,17.59l-4.56-.22c.88.27,1.74.67,2.64.47,4.88,1.14,9.11,3.9,11.62,8.7,5.47,12.99-8.53,29.26-26.14,26.79,10.09-.69,8.98-5.53,8.07-5.76-1.26-.32-2.75-1.37-2.75-1.37,0,0,3.53-1.17,2.89-2.77-.64-1.61-3.29-3.44-3.29-3.44l-3.02.34c-3.02.34-9.68-3.17-9.68-3.17,0,0,1.76.71,6.2.82,4.44.1,11.12-2.95,10.85-7.95-.27-5.01-8.9-7.08-10.76-7.32-1.86-.25-3.29-2.07-3.29-2.07l8.57-3.88s2.4-3.02,1.99-8.02c-.2-2.42-1.43-5.02-2.64-7.05" fill="#f1c6a5"/><path d="M16.14,14.5c1.04-.49,2.22-.88,3.23-1.38-1.78-2.59-2.62-8.02-6.29-7.62-.99,3.12,2.06,6.51,3.06,9" fill="#fddbbe"/><path d="M13.77,15.96c-1.45-.99-2.89-3.87-4.46-4.94-1.77-1.21-4.55-1.22-3.36,1.74.89,2.21,4.53,3.82,5.73,5.65.76-.76,1.07-1.89,2.09-2.44" fill="#fddbbe"/><path d="M24.43,24.75c.72-.84,2.83-1.58,2.7-4.55,1.45-1.41,6.13-.71,6.32-2.58.32-3.18-5.52-2.6-7.57-1-2.55-2.73.45-13.78-3.92-13.59-3.51.15-.54,6.93-.78,9.55.14.33.85-.05.75.59-2.51.72-5.54,1.7-7.43,3.22-1.09.88-2.29,3.28-3.32,3.6-2.47.76-6.11-4.25-8.93-1.02.75,3.26,4.45,2.83,7.48,3.21,1.32,2.04,3.02,3.6,5.26,4.49.35-.28.01-1.11.72-1.1,1.34.42,2.05,1.63,3.45,1.98.02-1.35.13-2.63,1.16-3.18,1.23,1.19,2.26,2.64,3.93,3.28.29-.88,1.04-1.98.18-2.9" fill="#fddbbe"/><path d="M44.82,56.49c-.59-.38-5.66-2.72-5.88-2.55.28-3.73,2.04-8.67.13-12.22-.65.59-.78,1.61-1.82,1.9-.5-3,.04-7.28-1.33-10.19-1.17.64-.89,2.44-1.65,3.41-.68-3.66-2.66-9.31-4.21-10.2-.8.03-.19,1.17-1.06,1.14-1.03-.69-1.84-1.64-2.96-2.21-.42,1.4-.58,2.29-.96,3.5-1.89-.55-3.19-1.86-4.44-3.22-.45.86-.51,2.03-.66,3.13-1.71-.08-2.17-1.74-3.78-1.94-.8,2.42-.89,4.54-.32,7.27-1.26-.14-.55-1.77-2.23-1.39.62,1.9,1.44,3.54,2.28,5.16-.78.62-1.58.31-2.64.64.52,3.36,2.9,4.39,4.31,6.63-.82.06-1.6.14-1.97.56,1.32,1.79,2.7,3.64,4.61,4.73.72.41,2.1.21,2.2,1.44-.89.1-1.9.11-2.3.6.94,1.2,2.12,2.18,3.54,2.82,2.01.9,5.46.89,6.68,2.12-.16.54-.95.56-.87,1.29.83-.25,1.38-.4,1.88.12-.13.22-.29,1.64.34,1.49.38-.35.23-1.13.87-1.29,3.65,1.91,6.94,4.28,11.14,5.51,3.95-1.04,3.57-6.67,1.09-8.26" fill="#98874d"/><path d="M51.77,57.9c-.84.03-1.22-.51-2.08-.44-3.05,4.14-2.27,13.07.96,17.35.5-.18.53.23,1.02.05-3.12-5.99-1.55-12.08.1-16.96" fill="#d1e6ed"/><path d="M95.34,64.27c0,.63-.02,1.26-.09,1.9-.55,4.82-5.01,6.98-9.41,5.99,4.01-1.96,7.13-4.86,9.5-7.88" fill="#d1e6ed"/><path d="M82.31,79c-.91-1.04-2.04-1.81-3.29-.64.47,1.3,2.66,1.65,3.29.64" fill="#e6b499"/><path d="M116.7,74.41c2.23-1.23,6.06-3.84,3.95-5.53-4.32,2.89-8.63,5.31-14.06,7.53.17.68.69.91,1.01,1.41,3.61-.61,6.02-1.7,9.1-3.41" fill="#d1e6ed"/><path d="M175.41,60.09c-2.28-5.51-35.61-6.08-58.52,1.38-1.39-1.81-3.11-3.86-4.99-5.73,8.86-2.31,18.52-4.43,30.45-5.31,6.99-.52,37.42-2.78,39.43,7.58,1.82,9.39-4.65,12.27-8.8,14.96-.68-2.72-1.85-6.41-3.15-8.34,3.53-2.43,10.36-4.46,7.73-9.53-.49-.15-1.18-.05-1.86.04.08.61.93.24,1.25.54,1.02,1.91-.11,4.12-1.53,4.41" fill="#ebc23f"/><path d="M84.05,82.36c.17-1.23.88-2.04,1.16-3.18-.97-.83-2.35-2.14-3.76-1.78.66.31,1.05.98,1.53,1.52-.46,1.8-3.49,1.28-4.52.51-.4,3.04,3.04,4.13,5.59,2.92" fill="#fddbbe"/><path d="M157.92,70.22c-.98-2.18-4.85-3.01-7.24-2.57-4.41.83-8.42,6.28-10.87,8.7,7.09-1.68,12.88-2.92,18.12-6.13" fill="#b68a18"/><path d="M97.85,78.59c-1.52-1.12-3.89-2.36-5.97-.34-1.53-.74-4-.81-5.75.15-2.15-2.01-6.97-3.43-8.44.28-2.08-.87-5.53-.81-7.2-2.23-.67-.57-.88-1.52-1.46-2.19,8.68,1.85,15.79-1.6,15.79-1.6,2.91,1.13,6.34,1.04,8.96-1.36,2.15-1.97,2.68-4.66,2.28-7.98,1.99-2.73,3.38-5.49,4.27-7.69.65-1.72.72-2.72.72-2.72.25-.75.48-1.52.7-2.31,8.53,1.42,18.22,16.53,18.27,17.15.12,1.53-4.91,3.95-6.09,4.59-2.77,1.5-5.05,2.22-7.95,3.11-2.06-4-4.15-6.86-5.43-11.92-1.02,1.01,4.33,11.96,6.16,15.4,1.23-.27,2.4-.24,3.83-.61.13.9.19.69.34,1.49-3.09.19-6.27.1-6.5.02-2.25-3.05-5.18-2.71-6.52-1.25" fill="#059"/><path d="M67.93,74.01c-.16.21-.23.49-.72.45-5.51.16-9.4.54-14.52.47-.72-2.32-1.85-4.71-1.9-7.75-.05-3.36,1.1-6.69,2.02-9.05l.31.02c1.09,6.59,6.03,12.01,10.11,14.36,1.67.64,3.23,1.13,4.71,1.49" fill="#059"/><path d="M111.9,79.87c2.67.26,5.2-.58,7.57-.52-.11-4.71-7.82-3.18-7.57.52" fill="#98874d"/><path d="M89.97,85.25c-.69-2.93.46-4.4,1.15-6.23-4-2.65-8.29,3.87-4.78,7.16-.04-1.67,2.45-1.41,3.62-.92" fill="#fddbbe"/><path d="M89.93,86.44c-.42-.94-1.72-.77-2.81-.87-.37,1.5,1.76,1.62,2.81.87" fill="#e6b499"/><path d="M168.9,63.88c-19.03-20.34-42.26,13.71-43.05,14.91-2.09.24-2.98.08-5.21.42-.14-1.63-1.05-3.87-1.47-5.43,1.2-1.38,2.87-2.38,3.6-4.14-1.68-2.61-3.71-4.77-5.27-7.54,26.84-7.64,56.76-5.83,56.85-.88-1.8,1.06-2.98,1.97-5.46,2.66" fill="#b68a18"/><path d="M90.89,87.35c0-.32-.23-.35-.24-.65-.59.29-1.16.6-1.76.88.71.29,1.19-.18,2.01-.23" fill="#f1c6a5"/><path d="M95.8,87.3c-.4-1.35-2.16-1.23-3.29-.64-.03.73.4.9.65,1.28,1.23-.07,1.79-.07,2.64-.64" fill="#e6b499"/><path d="M101.73,87.3c.43-.96-2.37-1.93-2.59-.38.07,1.05,1.86.79,2.59.38" fill="#e6b499"/><path d="M97.38,87.79c-1.71-2.39-1.34-5.81-.26-8.28-3.83-4.28-8.29,2.78-5.32,6.88,1.43-.85,3.85-1.25,4.63.49-.03.99-1.62,1.54-2,1.75,1.44.15,1.76-.5,2.95-.85" fill="#fddbbe"/><path d="M90.78,87.87c-2.85,2.28-7.1-.68-6.95-4.46-3.13,1.35-6.94-.17-6.69-3.65-2.81-1.12-6.14-1.59-8.51-3.27-3.27,2.06,1.15,6.71,2.74,7.65,5.62,3.33,16.17,4.84,22.15,5.44-1.21-.2-1.79-1.19-2.74-1.72" fill="#ebc23f"/><path d="M102.36,80.95c.05-.46.65-.5.56-1.08-4.15-5.16-7.53,4.21-4.5,6.61.76-1.47,3.68-1.22,4.11.38,0,1.21-1.7,1.09-2.53,1.64,4.32,2.48,3.14-5.14,2.36-7.56" fill="#fddbbe"/><path d="M100.86,90.11c-1.23-.09-1.79-.87-2.74-1.72-.72.75-1.98,1.07-3.05,1.53,6.42.65,33.56,2.57,65.54-9.42-.32-2.98-.89-8.03-2.43-9.47-8.17,4.16-17.5,6.28-26.74,7.79-8.99,1.47-18.69,2.03-27.93,1.83,1.05,4.06.69,9.71-2.65,9.46" fill="#ebc23f"/><path d="M130.56,75.54c.26,1.14,3.4,1.28,3.7,1.27,1.26-.03,3.05-.38,3.33-.55,3.3-1.96,7.62-8.16,12.16-9.35,8.57-2.25,10.87,5.98,11.27,8.21,1.3,7.19-.42,13.97,2.98,20.17,2.7,2.46,5.3.32,6.73-1.95,3.98-6.35,2.89-16.64.34-23.77-2.68-7.51-10.82-11.53-17.7-11.03-4.44.32-10.68,4.3-14.31,7.62-4.56,3.34-8.71,8.45-8.5,9.39" fill="#98874d"/><path d="M178.01,119.82c.3,2.6-9.76,10.44-18.41,14.13-41.18,17.54-70.09,1.9-74.5-2.26.01-.11-.63-2.72-1.61-6.63,47.85,19.95,84.8-3.42,94.47-13.9.02,5.14.05,8.65.05,8.66" fill="#ffec96"/><path d="M173.99,86.51c.05-3.22-.27-9.78-.77-12.9,2.44-1.41,3.5-2.17,5.22-3.31-.25,1.18-.39,6.72-.46,13.7-1.32.87-2.65,1.7-3.99,2.5" fill="#ffd850"/><path d="M76.61,97.9c-1.53-6.06-2.66-10.6-2.69-10.96,8.02,2.35,15.63,3.47,25.2,4.22,20.21,1.57,46.48-3.7,61.62-9.65.3,2.47.09,7.43,1.07,11.23-34.02,14.72-70.85,10.31-85.19,5.16" fill="#ffec96"/><path d="M83.35,124.53c-1.76-7.02-4.52-17.83-6.6-26.07,14.85,5.27,51.44,9.3,85.18-5.26.72,2.48,2.01,4.36,4.38,4.54,3.68.28,6.68-5.97,7.56-9.51.05-.2.08-.6.1-1.15,1.34-.79,2.68-1.62,4-2.49-.07,8.27-.06,18.39-.03,25.66-8.76,9.47-45.39,35.15-94.6,14.27" fill="#005faa"/><path d="M65.78,40.83c-.8-1.04-.55-2.58.57-3.44,1.01-.77,2.37-.72,3.22.06.19-.59.57-1.15,1.12-1.57,1.34-1.03,3.17-.88,4.1.32.93,1.21.59,3.02-.75,4.04-.82.63-1.82.82-2.69.59-1.27-.87-1.72.03-2.1.33-1.12.86-2.67.7-3.47-.34" fill="#e6b499"/><path d="M64.34,34.2c-.27-1.35.51-2.65,1.75-2.9,1.24-.25,2.46.64,2.74,1.99.28,1.35-.51,2.65-1.75,2.9-1.24.25-2.46-.64-2.74-1.99" fill="#f1c6a5"/><path d="M74.78,32.56c-.46-1.38.3-2.89,1.72-3.36,1.41-.47,2.93.27,3.39,1.65.46,1.38-.31,2.89-1.72,3.36-1.41.47-2.93-.27-3.39-1.65" fill="#f1c6a5"/><path d="M67.8,14.34c1.09-2.58,2.34-4.66,3.66-5.83l-.33,3.85c.25.47,3.5-2.28,6.1-2.77-.64,1.05-1.05,2.25-1.49,3.42,2.67-1.25,5.96-2.08,7.67-2.16-.68.85-1.79,1.15-2.38,2.33,1.63.25,16.48-1.45,18.85,17.98h.16c1.01-2.17,2.87-4.6,5.28-5.29,1.84-.36,3.51.59,4.58,1.99,1.78,2.69,2.33,9.9-3.51,12.8-1.9.85-3.58-.75-4.93-1.94,1.41,8.52-1.24,13.73-2.25,16.4.57-14.3-9.79-16.88-11.14-17.34,1.99-4.58,3.71-11.24.51-15.84-2.1-2.89-5.74-3.93-9.21-3.6-4.36.4-8.55,3.84-10.21,7.83-1-1.73-3.25-2.56-5.37-2.44-8.31,2.47-7.35,9.53-6.14,12.49l2.48,4.6c-1.42,1.2-2.42,2.64-3.4,4.11-1.21-2.3-1.63-5.03-2.01-7.68-.19-6.91,2.55-12.9,6.41-17.86l-3.85-1.04c2.33-1.23,6.72-2.13,8.48-1.84-1.15-2.49-.89-5.15-.89-5.15" fill="#98874d"/><path d="M100.05,31.13c1.01-2.16,2.87-4.59,5.28-5.28,1.84-.36,3.51.59,4.58,1.99,1.78,2.69,2.33,9.9-3.51,12.8-.42.19-.83.26-1.23.23-.61-.14-1.19-.35-1.72-.6-.72-.44-1.38-1.05-1.98-1.57,0,0-2.72-3.85-1.42-7.58" fill="#f1c6a5"/><path d="M54.1,40.11l.49,1.79c-2.47-1.18-4.23.58-4.07,1.51,1.56-2.02,3.46-.71,3.87-.02-.61-.14-1.28.43-1.44.94-.53,2.21,1.44,2.89,2.31,2.79-.56.65-.75,1.85-1.98,1.63-1.81.11-3.23-1.02-4.04-2.51-.68-1.76-.4-3.92,1.01-5.27,1.07-.99,2.48-.9,3.85-.84" fill="#f1c6a5"/><path d="M67.68,32.45c.58.74,1.04,3.14-1.35,3.33-.89-.18-1.28-1.03-1.36-2.13,0-2.1,2.07-2.23,2.7-1.21" fill="#1d1d1b"/><path d="M55.49,45.04c0,.44.75.76.3,1.27-.62.2-1.07.2-1.87-.34-.53-.48-.28-.95-.05-1.52.61-.8,1.43-.1,1.62.59" fill="#b5776d"/><path d="M77.79,29.48c1.12,1.08,1.41,2.14.72,3.77-1.7,1.67-2.72,0-3.04-.89-.29-1.28.66-3.33,2.32-2.88" fill="#1d1d1b"/><path d="M74.81,57.55c6.4-2.08,11.75-7.79,12.49-14.36-.78-.29-1.56.14-2.19.62l-.39-.15c-.1-.64.61-1.3,1.25-1.34,3.86-1.36,6.64,3.3,6.64,3.3-1.1-.99-2.51-2.41-4.39-2.47,5.59,6.04,5.43,10.78,3.27,15.77-7.07,9.98-14.06,7.01-14.06,7.01l2.71-.3c-.1-1.43.09-3.07-.94-4.12-1.52-.89-2.71-2.37-4.34-3.06-8.55,3.13-13.95-2.24-14.27-3.33,3.46,3.35,9.77,3.9,14.24,2.41" fill="#1d1d1b"/><path d="M106.31,29.38c1.04.7,1.83,1.88,1.68,3.27-.05.37-.07.78-.41.98.26-1.25-.32-2.59-1.21-3.46-.78-.29-1.63-.25-2.28.14-.6.96-1.57,1.65-1.67,2.89.45-.35,1.37-.38,2.01-.21.8.61,1.4,1.76.77,2.74-.47.69-1.28.87-2,.87-.85-.02-1.49-.86-1.65-1.57-.45-2.04.76-3.86,1.96-5.12.75-.4,1.86-.76,2.81-.54" fill="#1d1d1b"/><path d="M103.65,33.59c.49.13.97.76.97,1.26.02.54-.43.89-.83,1.02-.95.28-1.34-.81-1.41-1.47.18-.42.67-.79,1.27-.81" fill="#b5776d"/><path d="M83.54,59.22c.05.13,7.71-4.82,5.42-13.86,2.69,3.44,4.11,8.19,1.49,13.24-1.83,3.12-5.57,6.44-9.4,6.88l-.43-3.83-4.38-3.47c5.08-2.29,10.34-6.94,11.71-12.54,1.82,4.45-.87,10.31-4.41,13.58" fill="#fff"/><path d="M83.54,59.22c.05.13,7.71-4.82,5.42-13.86,2.69,3.44,4.11,8.19,1.49,13.24-1.83,3.12-5.57,6.44-9.4,6.88l-.09-.79c5.83-1.84,7.61-5.03,8.67-6.84,1.21-2.07.07-3.26-2.42-.71-1.58,1.62-4.61,3.39-6.62,4.48l-.27-.21.95-.72c5.84-4.39,6.11-10.37,6.11-10.37,0,0-2.36,3.13-5.48,5.81-1.26,1.08-2.99,2.08-4.61,2.89l-1.05-.83c5.08-2.29,10.34-6.94,11.71-12.54,1.82,4.45-.87,10.31-4.41,13.58" fill="#d7e8ee"/><path d="M66.43,33.55c-.17-.32-.1-.69.15-.82.25-.13.59.03.75.35.17.32.1.69-.15.82-.25.13-.59-.02-.75-.35" fill="#fff"/><path d="M76.98,31.29c-.19-.3-.15-.68.09-.84.24-.16.6-.03.8.27.19.31.15.68-.09.84-.24.15-.6.03-.79-.27" fill="#fff"/><path d="M67.8,14.34c1.09-2.58,2.34-4.66,3.66-5.83l-.33,3.85c.25.47,3.5-2.28,6.1-2.77-.64,1.05-1.05,2.25-1.49,3.42,2.67-1.25,5.96-2.08,7.67-2.16-.14.17-.29.32-.46.46-2.38.68-4.25,1.56-4.25,1.56l-4.79,1.07.98-2.31s-1.21.65-2.79,1.99c-1.57,1.34-1.84-1.19-1.84-1.19,0,0-.18.79-.7,1.97-.52,1.18-1.66.75-1.66.75,0,0,2.83,1.67,5.84,5.38-2.02,1.44-3.67,3.45-4.58,5.63-1-1.73-3.25-2.56-5.37-2.44-8.31,2.47-7.35,9.53-6.14,12.49l2.48,4.6c-1.42,1.2-2.42,2.64-3.4,4.11-1.21-2.3-1.63-5.03-2.01-7.68-.19-6.91,2.55-12.9,6.41-17.86l-3.85-1.04c2.33-1.23,6.72-2.13,8.48-1.84-1.15-2.49-.89-5.15-.89-5.15" fill="#b29e5a"/><path d="M73.58,37.33c.33.58.47,1.48-.05,2.04-.43.38-1.04.24-1.43-.12-.33-.58-.26-1.36-.02-1.98.42-.54,1.11-.29,1.5.07" fill="#1d1d1b"/><path d="M73.08,37.54c.3.39.49.85.23,1.32l-.5.22c-.32-.42-.83-.86-.41-1.41.18-.2.49-.38.68-.13" fill="#b5776d"/><path d="M68.09,38.87c.25.47.33,1.3.06,1.96-.24.41-.72.22-.99.09-.37-.55-.68-1.25-.23-1.82.32-.3.81-.68,1.16-.22" fill="#1d1d1b"/><path d="M67.59,39.09c.46.31.28.73.22,1.16l-.24.19c-.65-.27-.52-1.04.02-1.35" fill="#b5776d"/><path d="M66.03,38.75c-.19-.25-.05-.68.31-.95.36-.28.81-.3,1-.05.19.25.05.67-.31.95-.36.28-.81.3-1,.05" fill="#fff"/><path d="M100.17,30.87c1.03-2.09,2.84-4.36,5.16-5.02,1.84-.36,3.51.59,4.58,1.99,1.43,2.15,2.06,7.19-.72,10.6,1.37-3.17.73-6.91-.44-8.68-1.07-1.4-2.74-2.34-4.58-1.99-1.61.46-2.97,1.69-4,3.09" fill="#fddbbe"/><path d="M54.1,40.11l.07.25c-.59.11-1.14.34-1.63.78-.16.15-.3.32-.43.49-1.07.32-1.69,1.21-1.59,1.78.35-.45.71-.74,1.07-.9-.54,1.22-.54,2.67-.06,3.91.55,1.02,1.39,1.87,2.45,2.27-.19.08-.42.1-.7.05-1.81.11-3.23-1.02-4.04-2.51-.68-1.76-.4-3.92,1.01-5.27,1.07-.99,2.48-.9,3.85-.84" fill="#fddbbe"/><path d="M69.53,36.54c.62-.86,1.79-1.65,2.9-1.94.9-.13,1.72.29,2.3.9,1.71,2.04.62,3.92.31,3.88.32-1.25.02-2.8-1.24-3.72-1.04-.48-3.97-.1-4.06,3.11l-.36-1.56c-.92-.4-1.84-.15-2.7.18-2.51,1.3-.37,4.01-.37,4.01-.28-.05-3.22-1.6-.38-4.48,1.08-.55,2.4-1,3.6-.37" fill="#1d1d1b"/><path d="M99.21,122.96c-1.69-.87-2.64-2.67-4.31-3.58-1.78.74-3.16,2.52-5.13,2.62.18-2.07,1.94-2.97,1.47-4.91-.46-1.91-3.59-2.4-3.77-4.82,2.04-.2,3.7.06,4.86.97,2.02-.98,2.13-3.48,3.5-4.98,1.55.41,1.54,2.78,2.34,4.14,1.83.25,3.72.42,5.51.73.19,2.14-2.83,3.02-4.06,4.53,0,2.16.27,3.95-.41,5.3" fill="#1d1d1b"/><path d="M99.13,116.36c2.16-1.26,2.5-1.55,3.45-2.43-1.91-.44-4.12-.14-5.32-.58-.26-1.52-.76-2.74-1.44-3.73-1.24,1.18-1,3-2.4,3.69-1.36.66-2.43-.31-3.95.09,1.01,1.09,2.13,2.05,3.08,3.21-.19,1.47-.74,2.66-1.25,3.87,1.59-.56,2.36-1.77,3.97-2.32,1.39.67,2.14,2.16,3.54,2.82.1-1.54-.71-3.81.32-4.61" fill="#fff"/><path d="M42.73,60.05s1.95,2.71.86,4.66c-4.12-1.25-7.38-3.58-10.99-5.47-.63.15-.49.93-.87,1.29-.63.15-.47-1.27-.34-1.49-.5-.53-1.05-.38-1.88-.12-.08-.72.71-.75.87-1.29-1.23-1.23-4.68-1.22-6.68-2.12-1.42-.64-2.61-1.61-3.54-2.82.4-.49,1.41-.5,2.3-.6-.1-1.24-1.48-1.04-2.2-1.44-1.91-1.09-3.29-2.93-4.61-4.73.37-.42,1.15-.5,1.97-.56-1.42-2.24-3.79-3.27-4.31-6.63,1.06-.33,1.86-.02,2.64-.64-.84-1.62-1.66-3.26-2.28-5.16,1.67-.38.97,1.25,2.23,1.39-.51-2.5-.49-4.48.13-6.65,1.43,1.91,3.64,4.6,4.56,4.16,1.41-.66,1.4-2.16,1.4-2.16,0,0,3.45,2.46,3.8,4.07.35,1.61,2.55-2.29,2.55-2.29,0,0,.78,5.41.79,6.89,0,1.48,1.75-2.2,1.75-2.2,0,0,1.45,3.98,1.39,6.33-.07,2.34-.28,4.85-.28,4.85,0,0,3.36-2.55,3.56-.74.21,1.81-.84,8.58-.84,8.58" fill="#b29e5a"/><path d="M51.77,57.9c-.86,2.54-1.69,5.4-1.86,8.41-.67-.08-1.38-.18-2.1-.29-.2-3.26.37-6.5,1.88-8.56.86-.07,1.25.47,2.08.44" fill="#fff"/><path d="M115.15,75.24c-2.4,1.24-5.22,2.45-7.96,2.65-.31-.5-.43-.8-.6-1.48,2.65-1.09,5.03-2.22,7.28-3.43.49.84.92,1.61,1.28,2.26" fill="#fff"/><path d="M113.6,72.52c-2.63,1.38-4.85,2.08-7.63,2.94-1.99-3.88-4.03-6.69-5.31-11.48-.15-3.31,1.9-4.4,5.1-1.98,2.27,1.71,5.56,6.68,7.84,10.52" fill="#005faa"/><path d="M50.8,66.41c.1-2.67.89-5.28,1.65-7.34,1,3.37,1.85,6.6,1.61,7.15-.16.37-1.49.36-3.26.19" fill="#005faa"/><path d="M68.59-77.52l39.23,157.44c-.59,0-1.14,0-1.62,0L61.95-82.12c1.98,1.68,4.15,3.34,6.64,4.61" fill="#1d1d1b" fill-rule="evenodd"/><path d="M67.26-78.25l39.76,158.17h-.14S62.98-81.27,62.98-81.27c1.33,1.08,2.74,2.12,4.28,3.02" fill="#c3c8dd" fill-rule="evenodd"/><path d="M74.98,91.38c-.64-2.57-1.04-4.24-1.06-4.45,8.03,2.35,15.63,3.48,25.2,4.22,20.21,1.57,46.48-3.7,61.62-9.65.3,2.47.09,7.43,1.07,11.23-11.46,4.96-23.23,7.75-34.36,9.07l-.73-7.7s-15.82,2.64-30.59,1.4c-9.28-.77-16.82-2.75-21.14-4.12" fill="#ffd850"/><path d="M127.49,102.29c11.17-1.33,22.97-4.13,34.44-9.09.72,2.48,2.01,4.36,4.38,4.54,3.68.28,6.68-5.97,7.56-9.51.05-.2.08-.6.1-1.15,1.35-.79,2.68-1.62,4-2.49-.07,8.27-.06,18.39-.03,25.65-5.65,6.11-22.9,18.96-47.64,21.72" fill="#059"/><path d="M178.01,119.82c.3,2.6-9.76,10.44-18.41,14.13-32.58,13.87-57.48,6.98-68.65,1.44,18.14,4.17,40.02,3.43,40.02,3.43l-.61-6.45c24.14-2.58,41.43-14.52,47.6-21.2.02,5.14.05,8.65.05,8.66" fill="#ffd850"/><path d="M74.98,91.38c-.64-2.57-1.04-4.24-1.06-4.45,8.03,2.35,15.63,3.48,25.2,4.22,20.21,1.57,46.48-3.7,61.62-9.65.3,2.47.09,7.43,1.07,11.23-11.46,4.96-23.23,7.75-34.36,9.07l-.73-7.7s-15.82,2.64-30.59,1.4c-9.28-.77-16.82-2.75-21.14-4.12" fill="#ffd850"/><path d="M125.68,124.75c-1.11-2.16.57-4.71.37-7.16-2.03-.95-4.45-1.42-5.94-3.05,1-1.13,4.3-1.73,6.56-1.93,1.28-1.57,1.35-4.1,2.2-6.01,1.75,1.24,2.58,3.64,3.7,5.68,2.86-.17,4.72-1.27,6.3-1.23-.55,2.55-2.62,3.9-3.72,6.02.69,1.83,2.74,3.5,2.32,5.5-2.48.24-3.93-2.45-6.42-2.83-2.14,1.39-3.42,3.47-5.36,5.02" fill="#1d1d1b"/><path d="M130.89,118.39c2.21.22,3.72,2.34,5.38,2.61-.75-1.35-1.63-2.54-2.32-3.97.73-.59,3.7-4.3,3.33-4.96-1.66.42-3.79,1.23-4.91,1.58-1.3-1.42-1.91-3.73-3.29-5.05-.92,1.69-.42,4.29-2.31,5.01-1.34.51-3.2-.31-4.65.87,1.28,1.2,3.1,1.71,4.84,2.33.15,2.4-.62,4.07-.82,6.2,1.85-1.32,3.3-2.96,4.73-4.61" fill="#fff"/><path d="M130.89,118.39c-.55.64-1.11,1.27-1.69,1.89l-.86-9c.2-.9.32-1.89.75-2.68,1.38,1.32,1.98,3.63,3.29,5.05,1.12-.34,3.25-1.16,4.91-1.58.36.66-2.61,4.37-3.33,4.96.69,1.43,1.57,2.62,2.32,3.97-1.66-.27-3.17-2.39-5.38-2.61" fill="#d1e6ed"/><path d="M163.12,113.85c1.46-1.23,1.98-3.2,3.39-4.45,1.9.31,3.65,1.75,5.58,1.4-.64-1.98-2.56-2.45-2.54-4.46.02-1.97,2.96-3.15,2.59-5.55-2.03.26-3.59.89-4.51,2.04-2.19-.5-2.86-2.91-4.53-4.06-1.42.75-.87,3.06-1.34,4.56-1.73.65-3.53,1.25-5.2,1.95.29,2.13,3.44,2.3,4.98,3.5.49,2.1.62,3.91,1.59,5.07" fill="#1d1d1b"/><path d="M161.71,107.4c.4-.13-2.78-.95-3.91-1.59,1.76-.86,3.98-1.06,5.05-1.76-.09-1.54.13-2.84.57-3.96,1.47.88,1.41,2.28,2.92,2.63,1.47.34,2.55-.43,4.11-.38-.74,1.29-1.61,2.47-2.28,3.82.52,1.39,1.32,2.42,2.09,3.49-1.68-.19-2.7-1.2-4.39-1.36-1.21.97-1.6,2.59-2.82,3.54-.45-1.48-.16-3.88-1.35-4.42" fill="#d1e6ed"/><path d="M167.06,96.33c-.96.18-2.01-.08-3.07-1.04-3.4-6.2-1.68-12.98-2.98-20.17-.29-1.61-1.58-6.36-5.5-8.02,9.58-.77,11.26,22.46,11.55,29.23M133.74,70.93c1.49-1.61,3.36-3.36,5.31-4.79,3.63-3.31,9.87-7.29,14.31-7.62,5-.36,10.68,1.67,14.43,5.7-2.1-.96-4.38-1.69-6.8-2.1-15.02-2.52-18.21,8.33-22.29,9.81-2.06.74-3.77-.04-4.96-1.01" fill="#b29e5a"/><path d="M105.83,87.54c.35-1.1.46-2.49.38-3.91,7.26.05,14.45-.47,21.2-1.33,1.19.75,2.17,1.92,1.49,3.68-2.05.24-4.26.49-6.66.74-6.01.63-11.49.86-16.41.82" fill="#ffd850"/><path d="M77.28,81.17c.72,2.45,3.88,3.39,6.55,2.24-.04.98.22,1.9.66,2.69-3.42-.62-6.02-1.31-7.74-1.85-5.65-1.78-7.23-3.21-8.01-4.74-.78-1.53,1.51-.98,1.51-.98,0,0-1.8.99,7.03,2.64" fill="#ffd850"/><path d="M157.92,70.22c-5.23,3.21-11.02,4.45-18.12,6.13,1.04-1.02,2.36-2.59,3.87-4.12,4.93-.9,9.7-2.29,12.88-3.49.61.4,1.1.89,1.36,1.49" fill="#8d6c11"/><path d="M168.9,63.88c-.83-.89-1.66-1.67-2.5-2.35.3-.47.41-.89.25-1.25-.46-1-3.26-1.79-6.61-2.2-3.03-.9-6.06-.82-9-.09-4.74.45-7.53,1.1-7.53,1.1,0,0-17.52,1.99-19.22,4.81-1.42,2.35-.15,7.34,6.27,8.83-2.77,3.22-4.49,5.75-4.7,6.06-2.09.24-2.98.08-5.21.42-.14-1.63-1.05-3.87-1.47-5.43,1.2-1.38,2.87-2.38,3.6-4.14-1.68-2.61-3.71-4.77-5.27-7.54,26.84-7.64,56.76-5.83,56.85-.88-1.8,1.06-2.98,1.97-5.46,2.66" fill="#8d6c11"/><path d="M175.41,60.09c-2.28-5.51-35.61-6.08-58.52,1.38-1.39-1.81-3.11-3.86-4.99-5.73,3.25-.85,6.61-1.67,10.14-2.41-.33,1.12-.9,3.76.86,3.87,2.24.14,18.32-3.91,35.15-5.02,9.58-.63,15.42.93,18.02,2.91l-.37.05c.06.45.54.36.91.41.22.21.41.43.56.65.59,1.77-.46,3.62-1.75,3.89" fill="#d7b032"/><path d="M150.05-88.57l-8.01,164.97,1.41-.23,11.87-168.26c-1.56,1.32-3.31,2.5-5.27,3.52" fill="#1d1d1b" fill-rule="evenodd"/><path d="M151.2-89.2l-8.51,165.16.11-.04,11.77-167.41c-1.04.82-2.17,1.59-3.38,2.29" fill="#c3c8dd" fill-rule="evenodd"/><path d="M82.98,78.93c-.24-.27-.45-.57-.69-.84-.18-.27-.41-.51-.66-.72,1.35-.22,2.66,1.02,3.59,1.81-.28,1.15-.99,1.95-1.16,3.18-1.18.56-2.56.63-3.66.23.99-.59,2.09-1.56,2.24-3.03.16-.17.28-.38.34-.64" fill="#f1c6a5"/><path d="M97.38,87.79c-1.15.34-1.49.94-2.78.86l.05-.13c.57-.27,1.75-.79,1.77-1.64-.24-.53-.63-.86-1.1-1.04.05-.54.06-1.13,0-1.74-.26-2.99-1.62-4.54-2.52-5.25,1.21-.94,2.8-1,4.3.68-.35.81-.63,1.71-.78,2.65-.03.1-.06.18-.07.26-.04.21-.05.44-.03.67-.11,1.65.19,3.33,1.16,4.68" fill="#f1c6a5"/><path d="M102.36,80.95c.74,2.3,1.84,9.27-1.73,7.86.08-.21.14-.43.2-.65.8-.24,1.69-.42,1.7-1.3-.18-.66-.79-1.1-1.5-1.27-.03-.97-.14-1.99-.22-3-.19-2.34-1-3.36-1.63-3.8,1.01-.75,2.33-.68,3.74,1.07.1.58-.5.62-.56,1.08" fill="#f1c6a5"/><path d="M19.37,13.12c-.6.3-1.26.56-1.91.82-.27-.61-2.86-6.51-3.46-7.62-.2-.37-.54-.65-.93-.81,3.67-.4,4.51,5.03,6.29,7.62" fill="#f1c6a5"/><path d="M13.77,15.96c-.52.28-.86.72-1.17,1.17-.67-.79-4.14-4.86-4.99-5.43-.51-.35-1.28-.55-1.9-.59.33-1.24,2.25-1.01,3.6-.1,1.57,1.07,3.01,3.95,4.46,4.94" fill="#f1c6a5"/><path d="M22.74,6.06c-.14-1.26-.43-2.28-.72-3.04,4.28-.09,1.32,10.88,3.86,13.6,2.05-1.6,7.89-2.18,7.57,1-.19,1.88-4.86,1.17-6.32,2.58.13,2.96-1.98,3.7-2.7,4.55.86.92.11,2.02-.18,2.9-1.67-.64-2.7-2.09-3.93-3.28-1.03.55-1.14,1.83-1.16,3.18-1.39-.35-2.11-1.56-3.45-1.98-.71,0-.37.82-.72,1.1-.96-.38-1.83-.89-2.61-1.5.32.02.65.05,1,.09,3.4.42,4.83-3.96,4.83-3.96,0,0,3.66,1.07,4.8-.92,1.14-1.99.08-11.31-.27-14.31M2.29,19.16l-.05-.19c2.82-3.23,6.47,1.78,8.93,1.02.1-.03.21-.08.31-.15l-.46,1.17s-3.94-1.35-4.95-1.49c-.5-.07-2.07-.31-3.78-.35" fill="#f1c6a5"/><path d="M19.7,23.42c-1.63-.8-2.09-1.91-2.65-3.94.89,1.19,2.59,2.33,2.65,3.94" fill="#1d1d1b"/></g></g></svg>