<?xml version="1.0" encoding="UTF-8"?><svg id="b" xmlns="http://www.w3.org/2000/svg" width="200.49" height="166.26" xmlns:xlink="http://www.w3.org/1999/xlink" viewBox="0 0 200.49 166.26"><defs><clipPath id="d"><rect x="18.11" y="0" width="182.38" height="166.26" fill="none"/></clipPath><clipPath id="e"><path d="M187.41,84.4c-4.06,3.67-13.62,13.73-20.62,17.49-5.95-1.67-28.99-10.78-36.69-16.74,4.54-3.59,9.3-6.94,14.16-10.14,13.37,4.36,27.45,7.32,43.15,9.39M182.42,70.41c2.07,4.23,3.94,8.63,6.12,12.78-1.51,1.69-42.07-7.28-43.71-8.82-1.14-1.07-3.76-9.6-4.69-11.45.05-.2-.01-.31-.14-.36,14.74,2.15,26.68,5.5,42.42,7.85M196.75,60.29c.65.3-10.6,6.07-14.6,9.24-14.19-1.71-29.45-5.63-42.42-7.85.99-1.62,12.66-6.16,13.89-7.06,14.42,1.68,29.89,3.83,43.13,5.67M190.51,44.91c4.01,3.82,6.29,9.1,8.57,14.37-8.77.13-38.81-4.58-45.74-5.38-1.14-4.17-2.52-8.95-3.51-13.07,12.02.03,32,2.01,40.68,4.08" fill="none"/></clipPath><clipPath id="f"><path d="M184.5,84c-.66.69-1.78,1.84-3.4,3.5-2.9,2.96-14.94,11.74-14.94,11.74,0,0-7.09-2.4-11.79-4.54-4.7-2.14-20.91-9.94-20.91-9.94l12.47-9.23c12.04,3.8,24.68,6.5,38.58,8.46M179.63,69.98l5.63,13.23-.06.06c-8.78-.9-32.06-6.05-38.66-8.19l.24-.18-4.75-12.03c12.95,2.02,23.91,4.91,37.6,7.11M195.59,60.13c-2.16,1.03-6.36,3.03-7.47,3.56-1.25.61-6.39,4.34-8.09,5.57-12.71-1.71-26.14-5.01-37.91-7.16l13.24-7.28c13.5,1.6,27.79,3.57,40.22,5.3M189.37,46.09s2.1,2.25,3.1,4.06c.88,1.6,3.66,7.7,4.28,9.08-9.95-.47-32.8-3.94-41.45-5.08-.59-1.74-2.33-7.05-3.36-11.9,11.03.1,37.43,3.85,37.43,3.85" fill="none"/></clipPath></defs><g id="c"><g clip-path="url(#d)"><path d="M183.52,69.65c1.65,5.01,4.18,9.28,6.38,13.83-1.98,1.67-14.85,14.99-23.59,19.91-2.53-.62-32.72-13.67-37.61-18.03,4.51-4.2,10.03-7.19,14.77-11.12-1.5-4.56-3.41-8.77-5.05-13.2,4.33-2.59,9.18-4.55,13.86-6.72-.62-5.3-2.78-9.29-3.56-14.45,10.9-.23,41.69,3.8,42.4,4.05,1.96.68,9.38,14.4,9.17,15.46-.25,1.25-12.79,7.65-16.76,10.26" fill="#231f20"/><path d="M144.26,75.01c-4.87,3.2-9.62,6.55-14.16,10.14,7.7,5.95,30.75,15.07,36.69,16.74,7-3.76,16.56-13.82,20.62-17.49-15.7-2.07-29.78-5.03-43.15-9.39" fill="#fff"/><path d="M140.14,62.92c.93,1.84,3.55,10.38,4.69,11.45,1.64,1.54,42.2,10.52,43.71,8.82-2.18-4.14-4.05-8.55-6.12-12.78-15.74-2.35-27.68-5.7-42.42-7.85.13.05.19.16.14.36" fill="#c4e0e7"/><path d="M153.63,54.62c-1.24.9-12.9,5.44-13.89,7.06,12.97,2.22,28.23,6.14,42.42,7.85,4-3.17,15.25-8.94,14.6-9.24-13.24-1.84-28.7-3.99-43.13-5.67" fill="#fff"/><path d="M190.51,44.91c-8.68-2.07-28.66-4.04-40.68-4.08.99,4.12,2.37,8.89,3.51,13.07,6.93.8,36.97,5.51,45.74,5.38-2.28-5.27-4.56-10.55-8.57-14.37" fill="#c4e0e7"/></g><g clip-path="url(#e)"><path d="M151.94,42.25c1.26,5.92,3.56,12.5,3.56,12.5l-13.71,7.54,4.99,12.62-13.34,9.87s16.21,7.8,20.91,9.94c4.7,2.14,11.79,4.54,11.79,4.54,0,0,12.04-8.78,14.94-11.74,2.9-2.96,4.17-4.29,4.17-4.29l-5.77-13.55s7.13-5.23,8.63-5.97c1.5-.73,8.76-4.18,8.76-4.18,0,0-3.42-7.54-4.41-9.36-.99-1.81-3.1-4.06-3.1-4.06,0,0-26.4-3.75-37.43-3.85" fill="#bdd63d" fill-rule="evenodd"/></g><g clip-path="url(#f)"><path d="M151.94,42.25c1.26,5.92,3.56,12.5,3.56,12.5l-13.71,7.54,4.99,12.62-13.34,9.87s16.21,7.8,20.91,9.94c4.7,2.14,11.79,4.54,11.79,4.54,0,0,12.04-8.78,14.94-11.74,2.9-2.96,4.17-4.29,4.17-4.29l-5.77-13.55s7.13-5.23,8.63-5.97c1.5-.73,8.76-4.18,8.76-4.18,0,0-3.42-7.54-4.41-9.36-.99-1.81-3.1-4.06-3.1-4.06,0,0-26.4-3.75-37.43-3.85" fill="#bdd63d" fill-rule="evenodd"/><path d="M146.79,74.9l-.24.18c6.6,2.14,29.88,7.28,38.71,8.13l-5.63-13.23c-13.68-2.2-24.64-5.09-37.59-7.11l4.75,12.03ZM192.47,50.16c-.99-1.81-3.1-4.06-3.1-4.06,0,0-26.4-3.75-37.43-3.85,1.03,4.86,2.77,10.16,3.36,11.9,8.64,1.14,31.5,4.61,41.45,5.08-.63-1.38-3.41-7.47-4.29-9.08" fill="#92b433" fill-rule="evenodd"/><path d="M186.07,72.03c-3.43-.3-4.46,4.14-7.89,3.84-3.5-.31-4.66-3.5-8.15-3.81-2.78-.24-3.63,3.64-6.41,3.4-3.64-.32-5.03-3.32-8.67-3.64-1.28-.11-1.94-.03-3.23-.07-.17,1.14-.44,1.76-.54,2.9-.19,2.21,2.82,2.26,4.34,3.83,2.17,2.28.71,5.02.43,8.24-.19,2.21,1.75,3.89,3.96,4.09,3.35.29,4.7-3.62,8.06-3.32,5.07.44,3.17,9.77,8.24,10.21,3,.26,4.71.41,7.71.67,6.57.57,11.73-5.01,12.3-11.58.61-6.99-3.15-14.16-10.14-14.77" fill="#00b0e7" fill-rule="evenodd"/><path d="M184.76,71.84l5.92,12.42c-10.1-.88-28.44-5.08-38.1-7.51-.86-.47-1.5-1.03-1.4-2.09.1-1.14.37-1.77.54-2.9,1.29.04,1.95-.05,3.23.07,3.64.32,5.03,3.32,8.67,3.64,2.78.24,3.63-3.64,6.41-3.39,3.5.31,4.66,3.5,8.15,3.81,1.41.12,5.64-3.2,6.58-4.03" fill="#0095da"/><path d="M189.24,41.63c-.17.03-13.9,2.29-12.99,7.63.44,2.59,1.84,4.34,3.16,6.5,1.03,1.69,1.43,3.07-1.02,4.09-3.96,1.67-5.64,7.51,9.88,8.87,15.47,1.35,27.67-2.28,25.01-9.42-2.63-7.05-12.35-14.24-13.3-14.94-1.32.33-15.98,4.15-14.69,7.37.64,1.6,1.6,2.99,2.41,4.51.65,1.22,1.01,2.33.1,3.23-1.52,1.53-3,4.65,3.1,5.74l-.07.4c-6.57-1.17-4.95-4.78-3.32-6.43.68-.68.48-1.52-.18-2.75-.81-1.53-1.78-2.93-2.43-4.55-1.46-3.64,12.79-7.38,15.15-7.96,0,0,2.75,1.96,5.78,4.81,3.02,2.84,6.41,6.64,7.83,10.43,2.93,7.84-10.33,11.29-25.43,9.97-15.05-1.32-15.1-7.51-10-9.66,2.08-.88,1.82-1.88.83-3.5-1.35-2.21-2.76-3.98-3.21-6.64-.86-5.07,9.95-7.56,13.33-8.11l.07.4Z" fill="#3f6012"/><path d="M183.64,69.22c.03-1.46-2.54-3.99-3.17-4.6-1.92-1.83-3.78-2.76-6.49-3.33-2.78-.58-6.38-.76-11.7-1.08-5.36-.32-10.37-.4-14.75-1.08-4.41-.68-8.25-1.98-11.17-4.81-3.71-3.59.78-4.31,3.45-4.33,3.35-.03,7.4.63,7.4.63,0,0,5.43.76,11.55,1.44,6.16.68,12.92,1.27,15.64.95,3.28-.39,6.68.06,9.95.28,3.61.24,7.31.33,10.63-.52,5.36-1.38-.7-11.82-2.47-14.47l.85-.57c1.91,2.86,8.6,14.3,1.87,16.03-5.3,1.36-10.82.47-16.19.2-1.63-.08-3.17-.09-4.53.07-2.86.34-9.76-.27-15.87-.95-6.14-.68-11.59-1.45-11.59-1.45-1.89-.31-14.06-1.99-9.99,1.95,2.7,2.61,6.3,3.86,10.62,4.53,4.35.67,9.32.75,14.65,1.07,5.38.33,9.03.52,11.84,1.1,2.88.6,4.92,1.62,6.99,3.59.98.93,4.18,4.22,3.38,5.81,0,0-.18.27-.48.63-5.82,6.77-11.26-1.57-16.4-.34-3.37.8-4.05,2.86-8.22,1.89-4.97-1.15-8.83-4.82-14.52-4.43-4.9.33-11.16,4.33-12.27,5.07-.14.81-.45,3.21.43,3.28,4.27.37,16.02,2.25,16.36,7.96.36,5.89,4.63,19.79,11.89,21.24l-.2,1.01c-8.11-1.62-12.36-16.4-12.71-22.18-.3-4.89-11.76-6.68-15.43-7-2.08-.18-1.53-3.69-1.26-4.92,0,0,1.98-1.35,4.49-2.64,8.93-4.57,11.94-3.12,20.34.52,2.17.94,4.62,1.93,6.95.86,3.78-1.73,4.81-2.73,9.42-.69,3.77,1.67,6.94,3.69,10.35-.28.19-.23.32-.4.35-.43" fill="#ffd65a"/><path d="M172.95,69.92c-4.61-2.04-5.64-1.04-9.42.69-2.33,1.07-4.78.08-6.95-.86-5.65-2.45-8.87-3.91-13.09-3.21l.39,1c.36-.06.71-.1,1.05-.12,5.69-.39,9.55,3.29,14.52,4.44,4.17.96,4.85-1.09,8.22-1.89,4.16-.99,8.52,4.29,13.12,2.74l-.41-.97c-2.37.73-4.75-.63-7.43-1.81M158.66,53.09c6.11.68,13.01,1.29,15.87.95,1.37-.16,2.9-.15,4.54-.07,5.06.25,10.25,1.06,15.26.01l-.45-.96c-3.02.58-6.3.49-9.52.27-3.27-.21-6.68-.67-9.95-.28-2.72.32-9.48-.26-15.64-.95-1.5-.17-2.96-.34-4.31-.5l.34,1.07c1.22.15,2.52.3,3.85.45" fill="#d2a93b"/><path d="M177.13,35.91s.59.49,1.4,1.33c3.39,3.5,6.69,8.92,3.64,13.84-4.34,7.02-21.47,3.93-24.27,8.88-.49.86-.3,1.08.41,1.35,2.73,1.05,9.81,0,11.76,1.83.61.57.75,1.34.46,2.15-1.15,3.19-8.16,2.33-10.61,2.18-1.73-.11-8.62-.8-9.8.9-2.94,4.24,5.66,11.22-2.57,13.66-3.66,1.09-6.9,1.3-4.98,6.61,2.49,6.86,10.8,10.8,13.16,11.8,1.78-2.57,8.26-11.57,12.36-8.76,3.68,2.52,5.07,15.25,5.38,19.66l-1.74.12s-.29-4.05-1.05-8.42c-.8-4.57-2.03-8.86-3.58-9.92-2.85-1.95-9.85,8.14-10.7,9.45,0,0-3.55-1.3-6.83-3.46-3.25-2.13-7.02-5.4-8.64-9.88-3.36-9.26,6.58-7.75,8.22-9.94,1.88-2.52-6.63-13.07,4.27-13.74,4.25-.26,8.53.69,12.76.28.31-.03,2.94-.27,2.7-1.42-1.02-.96-9.13-.68-11.2-1.47-1.59-.61-2.38-1.93-1.31-3.83,3.44-6.09,20.5-2.78,24.31-8.94,2.74-4.43-1.31-10.1-4.68-12.92l1.11-1.34Z" fill="#ed2124"/><path d="M170.12,56.21l-6.18-.86c6.28-1.17,14.3-1.19,16.76-5.18,1-1.62,1.1-3.4.65-5.15l1.87.24c.37,1.92.14,3.91-1.04,5.83-2.08,3.36-7.1,4.4-12.06,5.12" fill="#ce171e"/><path d="M156.62,65.55c3.27.66,6.52,1.35,9.86,2.02-2.4.3-5.18,0-6.55-.09-1.73-.11-8.62-.8-9.8.9-1.56,2.24.12,5.25.82,7.95-.71-.18-1.36-.36-1.97-.53-1.14-4.05-3.47-9.75,4.45-10.24,1.06-.07,2.13-.05,3.19,0" fill="#ce171e"/><path d="M175.33,37.98c-.34.04-10.88,1.36-8.74,6.83,1.06,2.71,2.98,4.49,4.62,6.78,1.36,1.91,1.69,3.63-1.14,5.57-2.2,1.51-4.14,3.45-6.51,4.7-2.32,1.23-5.28,1.93-10.53,1.76-5.2-.17-9.74-.57-13.2-.33-3.46.24-5.65,1.11-6.5,3.28-1.05,2.71-2.53,8.52-2.2,11.58.02.18.13,1.11.45,1.14,4.46.39,13.71,1.22,14.56,7.07.74,5.05-5.01,13.26-8.21,16.99-.31.37-.86-.1-.55-.47,0,0,2.24-2.61,4.37-5.99,2.15-3.42,4.1-7.49,3.68-10.42-.78-5.33-9.86-6.1-13.91-6.45-1.69-.15-1.07-4.48-.96-5.28.35-2.71,1.16-6,2.1-8.42,1.01-2.61,3.63-3.5,7.12-3.74,3.49-.24,8.05.15,13.28.32,5.18.17,8-.52,10.17-1.67,2.34-1.24,4.27-3.17,6.44-4.66,2.43-1.67,2.13-2.91.96-4.56-1.7-2.39-3.59-4.09-4.7-6.94-2.06-5.28,5.67-7.39,9.33-7.81.48-.06.56.66.08.72" fill="#00b0e7"/><path d="M142.17,63.22c.72,0,1.47.01,2.25.04-.79-.13-1.58-.26-2.39-.39l.14.35ZM171.2,51.58c-1.63-2.29-3.56-4.08-4.62-6.78-.22-.56-.3-1.07-.28-1.54l-.73-.07c-.03.58.08,1.2.34,1.88,1.11,2.85,3,4.55,4.7,6.94,1.09,1.53,1.42,2.71-.48,4.21l.95.13c1.7-1.62,1.28-3.12.12-4.76" fill="#007dc5"/><polygon points="154.73 43.93 156.4 51.08 171.95 52.73 170.58 45.31 154.73 43.93" fill="#c4e0e7" fill-rule="evenodd"/></g><path d="M160.12,46.38l-.81,1.63c-.68-.18-1.15-.39-1.43-.63-.25-.31-.32-.56-.23-.75l.04-.07c.24-.29.66-.4,1.28-.33l.97.11.18.04ZM159.74,45.81c-.77-.09-1.41-.05-1.91.12-.31.15-.52.36-.64.61-.38.79.24,1.44,1.85,1.99l-.39.84.4.1.1-.13,1.42-2.84.25.07.05-.05c.15-.31.2-.47.15-.47-.5-.12-.93-.2-1.27-.24M163.18,46.82c.1.32.17.78.21,1.37-.64-.07-1.13-.16-1.48-.26.57-.53,1-.9,1.27-1.11M163.55,45.84c-.15.07-1.11.97-2.87,2.67-.58.5-.88.78-.92.84.04.14.16.25.35.33.33-.27.77-.68,1.3-1.24.52.15,1.1.26,1.77.34l.23.03.15,1.11c.11,0,.29-.06.53-.17l-.2-2.02c-.08-.69-.2-1.32-.35-1.88M166.84,46.31c-.49.55-1.25,1.6-2.31,3.17l-.16.2c.09.1.22.16.38.18.27-.28.8-1,1.59-2.15.06.88.05,1.77,0,2.68.18-.11.89-.83,2.15-2.17.08-.11.13-.16.16-.16-.05.92-.14,1.75-.26,2.48-.02.05-.02.08,0,.08l.5-.14c.11-1.05.23-2.31.34-3.78-.22.16-.81.81-1.78,1.95l-.5.53-.12-2.87Z" fill="#231f20" fill-rule="evenodd"/><path d="M118.4,70.95c3.43,7.77,5.94,16.43,10.77,22.84.16,2.08-1.28,2.62-1.93,3.92.43,1.62.86,3.25,1.4,4.77,1.68-2.51,2.9-5.48,5.44-7.15.71.17.47,1.25.7,1.87,3.66-3.48,7-7.28,12.45-9.03.45.94-.1,1.94-.35,2.72,3.75-1.1,7.13-2.61,12.28-2.04.09.89-.34,1.26-.35,2.04,1.78-.24,3.34-.69,4.91-.34.13,1.43-.94,1.7-1.58,2.38.64-.05,1.14.03,1.58.17-.07-4.67,3.93-5.56,6.14-8.17,1.07-1.27.97-2.48,1.93-3.92,5.16,1.13,3.83,8.19,1.05,11.07,4.69-1.52,9.5-4.4,14.03-6.64.9,1.21.57,4.16,0,5.45.71,1.26.4,4.01-.35,4.94.2,8.9-8.73,11.28-16.66,9.37-2.06,2.37-5.18,3.71-8.24,5.11-.03.77,1.09.42.88,1.36-3.21,3.03-8.78,3.18-13.5,4.43.35.68,1.11.97,1.23,1.87-1.25,2.03-4.83,1.78-8.07,1.87,2.55,5.93,7.14,10.78,7.37,18.39-1.06.45-1.29-.44-2.28-.51.37.72,1.1,3.45.88,4.94-1.24.12-2.33-.31-3.16-1.02-1.04,2.05-1.99,4.2-3.33,5.96.8.12,2.37.09,2.45,1.36,2.23-1.48,7.33-1.83,8.42.85,3.82-.34,8.44,1.35,9.12,3.75,1.83,6.49-6.83,8.35-10.7,4.43-4.06,2.51-8.79,4.99-14.91,5.28-1.54.07-3.19-.54-4.73-.34-.68.09-1.27.7-1.93.85-3.25.75-6.52-.17-9.12-1.36-4.26,2.03-9.59.26-9.47-3.92.12-4.34,5.64-2.34,9.12-3.58-.92-.55-2.69.77-3.33,0,1.68-5.6,3.96-11.15,4.03-17.37-2.76-.29-5.93-.75-8.59-1.02-3.33,4.43-5.45,10.04-8.42,14.82-.04,1.39.07,2.78.18,3.58,1.42.51,2.06.08,4.03.17,4.53,3.2-.21,8.4-5.26,7.49-1.32-.24-2.19-1.29-3.51-1.87-1.62,1.94-4.29,1.09-7.01,1.53-1.11.18-2.13.98-3.33,1.02-2.07.07-3.6-.82-5.44-1.19-5.61,4.18-10.94-2.27-6.14-6.3,1.81-1.52,4.79-1.94,6.84-2.9,3.23-5.33,4.17-12.87,5.79-19.76-11.08,5.69-33.73,5.79-44.72-.85-4.63-5.06-7.28-13.47-7.72-22.82-.3-6.44,1.64-12.57,3.51-17.54-1.06-.33-2.41-.39-3.33-.85,2.32-9.5,7.54-16.18,14.73-20.95-2.14-4.18-3.73-8.61-4.03-13.62-.56-9.31,3.65-16.49,11.92-17.88,2.83-.48,5.6.62,7.55,2.09,2.51-.23,4.62,0,7.04,0,.54,0,3.9-1.68,6.28-1.92.63-.07,1.26-.1,1.89-.1-4.15-7.39.98-17.05,9.92-9.65-1.29-9.6,4.79-18.91,14.3-21.08-.66-.24-2.38-.71-2.46-1.53,2.7-1.22,5.53-.75,8.36-.41-.54-.67-1.83-1.8-1.89-2.6,2.64-.43,4.75.13,7.13,1.22-.43-1.13-1.39-3.47-1.12-4.64,1.95.54,4.74,3.54,5.94,5.15l.44-.06c.74-1.02,1.2-2.21,1.96-3.22,2.18.81,1.7,3.62,1.59,5.45,1.77-.28,8.86-.5,10.1.9-.92,1.48-3.05,1.31-3.89,2.75,5.64,4.69,9.68,11.42,10.17,18.83,7.94-4.22,10.76,9.71,2.21,10.21l.27.42c4.25,6.83,3.47,14.23-.75,20.85-.63.98-1.98,2.96-2.85,3.68-7.61,6.26-16.09,7.88-23.87,6" fill="#231f20"/><path d="M94.39,44.37s-4.28-6.86-15.73-1.62c-11.46,5.24,4.81,23.03,5.68,23.89.86.86,4.6,3.52,4.6,3.52,0,0,4.06.65,5.89-.32,1.83-.97-.43-25.47-.43-25.47" fill="#a14f0c" fill-rule="evenodd"/><path d="M78.12,94.37h1.83s.11,5.49,0,7.72c-.11,2.23-.03,10.24.83,14.01.86,3.77,2.48,9.09,3.66,10.38,1.18,1.29,7.91,2.26,7.91,2.26,0,0-3.71,7.69-18.72,4.06-15.01-3.63-2.01-14.87-.32-19.9,1.69-5.03,2.45-11.24,2.45-11.24l2.37-7.29Z" fill="#a14f0c" fill-rule="evenodd"/><path d="M124.9,20.58c2.74-6.2,8.06-4.13,10.46-2.19,5.43,3.98,1,13,1.11,13.98,1.82.95,11.72,7.9,10.77,19.15-.72,6.42-4.71,13.53-11.11,15.86-6.35,2.99-12.89,3.24-18.61,1.65-.26-.55-.53-1.1-.8-1.64.31-.32.58-.69.53-1.36-.38-5.05-7.1-6.74-11.57-4.77-.25-.34-.65-.55-1.11-.69-1.72-2.2-2.97-4.67-3.6-7.28-.06-.25-.11-.5-.16-.76-.37-1.94-.4-3.95-.03-5.98,1.5-5.54,5.24-9.36,10.03-11.67.98,0,1.78-.61,2.62-1.1l-4.67,1.28c-2.75-2.83-9.28-13.39-1.68-18.73,4.25-3.02,12.47-3.12,17.82,4.24" fill="#efbd9b"/><path d="M124.9,20.58c2.74-6.2,8.06-4.13,10.46-2.19,5.43,3.98,1,13,1.11,13.98,1.82.95,11.72,7.9,10.77,19.15-.63,5.56-3.71,11.64-8.68,14.68-19.33,5.15-19.22-7.99-17.33-8.25,2.06-.29,2.29-1.48,2.29-1.48l4.64-3.44s-3.2-.29-5.78-1.43c-2.58-1.15-6.07-3.49-4.92-9.85,1.15-6.36,10.13-8.41,10.13-8.41h-5.21s-7.22-7.5-5.5-15.87c.19-.92.39-1.73.6-2.44,2.64.84,5.26,2.59,7.42,5.56" fill="#fdd5b5"/><path d="M131.49,33.73c-.59,1.26-2.16,1.78-3.51,1.15-.46-.22-1.14-1.05-2.25.14-.85.43-1.93.46-2.92,0-1.62-.76-2.38-2.55-1.7-4.01.68-1.46,2.55-2.03,4.17-1.28.67.31,1.19.8,1.52,1.37.69-1,2.1-1.37,3.31-.8,1.35.63,1.97,2.17,1.38,3.43" fill="#e2ad93"/><path d="M131.59,27.82c-.62,1.32-2.1,1.94-3.32,1.37-1.21-.57-1.7-2.1-1.08-3.42.62-1.32,2.1-1.94,3.32-1.37,1.21.57,1.7,2.1,1.08,3.42" fill="#efbd9b"/><path d="M120.91,27.69c-.45,1.48-2.04,2.3-3.55,1.84-1.51-.46-2.36-2.03-1.91-3.51.45-1.48,2.04-2.3,3.55-1.84,1.51.46,2.36,2.03,1.91,3.51" fill="#efbd9b"/><path d="M123.32,6.77l2.35-3.77s.88,2.69.26,5.53c1.75-.71,6.5-.78,9.2-.04l-3.75,1.96c5.13,4.25,9.34,9.82,10.73,17.02.22,2.84.41,5.76-.31,8.41-1.35-1.3-2.73-2.56-4.46-3.47l1.51-5.33c.58-3.34-.05-10.87-9.22-11.52-2.23.35-4.36,1.73-5,3.75-2.63-3.75-7.76-6.35-12.37-5.77-3.67.46-7.19,2.37-8.7,5.84-2.26,5.5,1.06,11.99,4.17,16.28-1.02.62-7.53,3.89-8.34,12.43-1.01-2.21-2.79-4.24-5.06-5.84-.11-.81-.19-1.65-.24-2.54-.38.52-.79,1.09-1.24,1.6-2.61-1.49-5.71-2.46-8.97-2.62-1.66-2.86-1.76-6.38-1.02-8.3.79-1.69,2.3-3.05,4.28-3.11,2.66.16,5.14,2.24,6.68,4.25l.17-.03c-2-20.65,13.76-22.31,15.39-22.94-.89-1.08-2.1-1.13-3-1.86,1.79-.3,5.39-.21,8.44.48-.72-1.11-1.42-2.26-2.32-3.2,2.8-.09,6.79,2.02,6.95,1.47l-1.22-3.9c1.64.92,3.41,2.78,5.13,5.2" fill="#8c804f"/><path d="M93.8,31.55c2.2,3.56.27,8.17.27,8.17-.38.52-.78,1.09-1.24,1.61-2.61-1.5-5.71-2.46-8.97-2.62-1.66-2.86-1.76-6.38-1.02-8.3.79-1.69,2.3-3.05,4.28-3.11,2.66.16,5.14,2.24,6.68,4.25" fill="#efbd9b"/><path d="M143.42,30.3c1.41-.37,2.84-.79,4.18-.01,1.76,1.08,2.56,3.25,2.25,5.23-.5,1.73-1.71,3.23-3.6,3.53-1.22.51-1.69-.69-2.42-1.23.92-.09,2.81-1.25,1.75-3.41-.28-.49-1.11-.93-1.71-.64.27-.8,1.93-2.6,4.01-.86-.05-1-2.27-2.42-4.55-.63l.09-1.97Z" fill="#efbd9b"/><path d="M128.3,25.34c.62-1.12,2.82-1.07,2.92,1.15-.03,1.17-.4,2.08-1.34,2.32-2.54-.09-2.16-2.66-1.58-3.47" fill="#231f20"/><path d="M143.11,35.72c.04-.75.73-1.67,1.54-.98.37.53.74.96.29,1.58-.7.74-1.17.85-1.86.78-.58-.42.12-.92.03-1.38" fill="#ae6f66"/><path d="M117.63,24.51c1.75-.51,2.82,1.63,2.54,2.99-.32.96-.71,2.86-3.2,1.03-.78-1.71-.5-2.84.66-4.02" fill="#231f20"/><path d="M86.91,31.17c.93-.44,2.17-.33,3.03-.08,1.53,1.02,3.21,2.63,3.21,4.85,0,.77-.47,1.79-1.35,2-.75.17-1.63.17-2.27-.44-.88-.87-.52-2.2.17-3.02.62-.33,1.58-.5,2.13-.25-.39-1.26-1.55-1.76-2.39-2.61-.76-.25-1.65-.1-2.39.38-.72,1.11-1.02,2.62-.46,3.86-.4-.14-.52-.55-.65-.92-.48-1.41.07-2.8.98-3.77" fill="#231f20"/><path d="M90.63,34.92c.62-.12,1.22.15,1.5.54.08.71-.07,1.93-1.12,1.85-.44-.05-.99-.31-1.09-.87-.12-.52.24-1.28.71-1.52" fill="#ae6f66"/><path d="M129.67,26.45c-.16.35-.51.53-.78.4-.27-.13-.36-.51-.2-.86.16-.35.51-.53.78-.4.27.13.36.51.2.86" fill="#fff"/><path d="M118.54,26.41c-.2.33-.57.47-.83.31-.26-.16-.32-.55-.12-.88.2-.33.57-.47.83-.31.26.16.32.55.12.88" fill="#fff"/><path d="M123.32,6.77l2.35-3.77s.88,2.69.26,5.53c1.75-.71,6.5-.78,9.2-.04l-3.75,1.96c5.13,4.25,9.34,9.82,10.73,17.02.22,2.84.41,5.76-.31,8.41-1.35-1.3-2.73-2.56-4.46-3.47l1.51-5.33c.58-3.34-.05-10.87-9.22-11.52-2.23.35-4.36,1.73-5,3.75-1.43-2.04-3.6-3.74-6.03-4.77,2.26-4.53,4.81-6.91,4.81-6.91,0,0-1.08.71-1.89-.4s-1.18-1.88-1.18-1.88c0,0,.3,2.67-1.64,1.65-1.94-1.02-3.34-1.42-3.34-1.42l1.54,2.17h-5.2s-2.14-.5-4.76-.66c-.2-.11-.4-.23-.58-.37,1.79-.3,5.39-.21,8.44.48-.72-1.11-1.42-2.26-2.32-3.2,2.8-.09,6.79,2.02,6.95,1.47l-1.22-3.9c1.64.92,3.41,2.78,5.13,5.2" fill="#a8975f"/><path d="M122.62,31.89c.32-.47.98-.88,1.54-.42.39.6.64,1.38.43,2.06-.32.47-.92.76-1.45.46-.66-.46-.73-1.42-.52-2.1" fill="#231f20"/><path d="M123.18,32c.14-.3.5-.18.73-.02.56.46.13,1.04-.1,1.55l-.57-.11c-.37-.43-.28-.95-.06-1.42" fill="#ae6f66"/><path d="M128.65,32.23c.26-.55.85-.27,1.25-.03.6.49.43,1.28.18,1.94-.25.19-.7.5-1.04.13-.44-.62-.54-1.49-.39-2.04" fill="#231f20"/><path d="M129.21,32.34c.63.19.95.96.33,1.39l-.3-.14c-.16-.44-.44-.82-.03-1.25" fill="#ae6f66"/><path d="M130.76,31.63c-.14.3-.61.38-1.05.18-.44-.2-.68-.61-.54-.92.14-.3.61-.38,1.05-.18.44.2.68.61.54.92" fill="#fff"/><path d="M93.61,31.31c-1.39-1.22-3.08-2.18-4.85-2.28-1.98.05-3.49,1.41-4.28,3.11-.6,1.56-.65,4.17.24,6.63-.29-.03-.58-.05-.87-.06-1.66-2.86-1.76-6.38-1.02-8.3.79-1.69,2.3-3.05,4.28-3.11,2.55.15,4.94,2.08,6.49,4.01" fill="#fdd5b5"/><path d="M143.42,30.3c1.41-.37,2.84-.79,4.18-.01,1.76,1.08,2.56,3.25,2.25,5.23-.5,1.73-1.71,3.23-3.6,3.53-.28.12-.52.15-.74.11,1-.66,1.67-1.73,2.01-2.91.21-1.4-.12-2.89-.96-4.03.41.09.85.3,1.31.68-.03-.61-.88-1.39-2.05-1.48-.17-.15-.36-.28-.56-.4-.61-.35-1.23-.46-1.86-.44v-.28Z" fill="#fdd5b5"/><path d="M124.63,62.81c-9.98,1.37-16.81-8.33-15.33-18.71,7.47,7.74,18.65,9.54,25.11,7.18-1.12,1.64-5.65,2.19-7.17,2.6-.63,1.29-.99,2.12-2.11,2.98-2.91.66-5.07-.43-7.36-.66.16,5.75,3.84,5.66,6.85,6.61" fill="#231f20"/><path d="M116.85,55.39c-.16,1.23.59,3.54.75,5.01-.93-.44-1.99-1.08-3.01-2.03.34-1.25.46-2.6.32-4.16.71.56,1.39.98,1.94,1.18" fill="#ab0f14"/><path d="M114.01,53.45c.07.34.12.69.15,1.06.1,1.12.02,2.21-.2,3.23-1.74-1.88-3.26-4.74-3.73-9.12.66,1.55,2.22,3.43,3.79,4.84" fill="#ce171e"/><path d="M125.86,53.23c.02,2.32-1.4,2.85-3.47,2.7-7.9-.57-12.67-8.36-12.03-9.84,3.73,4.43,8.96,6.71,15.5,7.14" fill="#fff"/><path d="M125.86,53.23c0,.85-.18,1.46-.52,1.89.02-.18.03-.37.03-.58-5.76-.37-10.51-2.19-14.11-5.65-.78-1.27-1.1-2.34-.9-2.8,3.73,4.43,8.96,6.71,15.5,7.14" fill="#c4e0e7"/><path d="M126.63,30.15c1.1-.93,2.57-.76,3.81-.44,3.59,2.34.91,4.61.63,4.73,0,0,1.59-3.29-1.3-4.06-.97-.14-1.97-.2-2.83.43l-.02,1.69c-.83-3.31-3.95-3.03-4.91-2.29-1.1,1.24-1.05,2.91-.43,4.13-.31.11-1.87-1.58-.57-4.08.46-.77,1.22-1.39,2.18-1.46,1.21.05,2.61.6,3.44,1.35" fill="#231f20"/><path d="M83.4,153.74c-2.53,1.6-7.97,2.27-7.19,6.47.38,2.03,3.89,3.18,5.96,1.36-1.03-.38-2.2.44-3.16-.34,3.32-1.69,6.98,1.29,10.17,1.02,2.12-.18,2.72-1.92,4.56-2.72.09.99-.68,1.15-.88,1.87,2.94.42,4.64-.79,6.49-1.87,1.78,1.79,6.88,3.16,8.77.51.59-.83.81-2.8-.35-3.75-2.75-.06-5.23-.37-6.84-1.53-.2,1.99-3.49,1.08-4.56.51-.77,1.11-1.85,2.47-3.33,2.04-1.37-.4-.79-2.23-1.4-3.07-1.25.55-2.18,1.41-4.21,1.19-.29-1.01-.37-1.33-.18-2.21-1.39.21-2.46,1.25-3.86.51" fill="#fdd5b5"/><path d="M156.7,153.06c.94.12,1.44-.19,1.75-.68-.35-1.75-3.21-1.1-1.75.68" fill="#e2ad93"/><path d="M138.29,152.38c-.62.64-1.58.94-1.75,1.53-.45,1.52,1.3,2.64,1.4,4.09-1.25-.64-3.11.25-4.21-.17-.47.17-.22,1.04-.88,1.02-2.12-.22-3.63-1.02-5.26-1.7-.25.89-.71,1.58-1.58,1.87-1.33-.58-2.06-1.75-3.16-2.55-.71.22-1.04.81-1.93.85-.85-.08-.83-1.01-1.4-1.36-1.93.98-5.84-.45-7.37,1.19-1.16,4.31,2.63,5.82,6.84,4.94-.22-.69-1.49-1.09-1.05-1.87,2.87,2.07,7.42,3.53,11.92,2.55-.71-.96-3.31-.99-2.81-2.55,7.49,4.66,18.69.39,24.02-3.41,2.56,2.72,9.06,3.51,9.47-.85.11-1.17-.38-3.34-1.4-3.41-.17,0-.81,1-1.75,1.02-.88.02-1.02-.16-1.75-.85-.03-.66,0-1.26.18-1.7-4.57-1.17-8.54,1.71-11.4,2.73,1.74-1.66,3.75-3.05,6.66-3.58-.5-1.4-2.45-1.49-3.68-1.36-3.47.36-6.86,3.54-9.29,4.09,1.44-1.44,3.46-2.32,5.09-3.58-2.45-2.06-3.52,1.63-4.91,3.07" fill="#fdd5b5"/><path d="M102.52,151.35c.5-3.1,4.82-6.48,5.09-9.54.37-4.27-4.87-7.52-8.94-7.83-3.34-.25-6.21.78-8.59,2.21-1.12,6.16-2.82,11.55-4.38,16.69,1.01-.16,1.59-.73,2.81-.68-.28.86-.42,1.83,0,2.55,1.82-.22,2.74-1.31,4.56-1.53-.6,4.87,2.39,3.03,2.98.51,1.34.4,1.96,1.5,3.68,1.53.21-.8-.64-1.71.18-2.04,1.26-.03,1.53.9,2.63,1.02.45-.88-.17-1.86,0-2.9" fill="#a8975f"/><path d="M96.55,124.79c2.23.55,3.24-1.19,3.51-3.07-2.79-.55-2.49,1.9-3.51,3.07" fill="#8c8c99"/><path d="M94.27,124.79c2.24.19,2.22-1.81,2.98-3.07-.58,0-.87-.29-1.58-.17-.16,1.37-1.19,1.91-1.4,3.24" fill="#8c8c99"/><path d="M91.82,124.62c.51.02,1.15-.09,1.4.17.49-1.17,1.44-1.9,1.58-3.41-2.5-.38-1.96,2.19-2.98,3.24" fill="#8c8c99"/><path d="M90.94,124.62c.63-1.04,1.32-2.01,1.58-3.41-1.74-.25-1.85,2.83-1.58,3.41" fill="#8c8c99"/><path d="M144.43,139.94c1.1.29,1.07,1.69,2.45,1.7.35-1.78-.7-5.37-.88-5.96,1.12.05,1.09,1.22,2.28,1.19-2.04-7.22-3.82-14.69-11.57-16.35.1.89-.32,1.28-.88,1.53-2.35-.27-3.68-1.54-5.96-1.87-.22,1.27-1,1.98-1.93,2.55-1.51-.29-1.8-1.78-2.1-3.24-1,.33-1.54,1.11-2.63,1.36-.4-.12-.31-.72-.53-1.02-5.57,2.1-13.82,3.4-20.69,1.87-1.52,1.86-2.95,5.2-5.96,4.09-.71,1.87-1.98,3.18-2.98,4.77,9.11,3.79,22.72,5.61,34.07,6.74,0,.28-4.69.45-5.49.41-.37,5.48-1.95,12.32-4.21,16.69,1.49.09,2.12-.66,3.51-.68-.08,1.06-.28,1.7,0,2.55,1.46.36,1.61-1.34,2.46-1.02.93.97,1.34,2.44,2.98,2.73.44-.6.2-1.85.7-2.38,1.75.57,2.95,2.59,5.26,2.04-.33-.24-.91-1.3-.18-1.53,1.21.53,2.32,1.15,4.21,1.02-.17-.85-.82-1.25-.7-2.38-.81-.17-1.56,1.44-2.1,1.19,3.7-4.26,9.97-11.43,10.87-16.01" fill="#a8975f"/><path d="M99.71,117.63c-.05,1.34-1.27,2.37-1.05,3.41,1,0,.91-.26,1.75,0,.55-1.11,1.15-2.17,1.4-3.58-.88-.11-1.36.16-2.1.17" fill="#8c8c99"/><path d="M93.75,120.53c.68-.09.86.3,1.58.17.34-1.08.86-2,1.05-3.24-2.59-.64-2.11,1.7-2.63,3.07" fill="#8c8c99"/><path d="M91.64,120.36c.47,0,1-.06,1.23.17.42-.9.84-1.79.88-3.07-1.76-.45-1.91,1.35-2.1,2.9" fill="#8c8c99"/><path d="M97.26,117.46c-.44,1.05-.7,2.27-1.23,3.24.29.29,1.03.14,1.58.17.47-1.13,1.1-2.11,1.4-3.41-.93-.03-.9-.11-1.75,0" fill="#8c8c99"/><path d="M103.57,118.66c-.23.79-1.04,1.77-1.05,2.21,6.72,1.64,15.23.04,20.34-2.04.43-.84.89-2.43-.18-2.89-4.2,2.62-13.11,4.01-19.11,2.72" fill="#c4e0e7"/><path d="M92.35,116.78h1.75c.03-1.11.35-1.93.53-2.9h-1.75c-.13,1.01-.33,1.95-.53,2.9" fill="#8c8c99"/><path d="M100.06,116.78c.3.21,1.16-.13,1.93,0,.42-.9.5-2.12.88-3.07h-1.93c-.28,1.03-.4,2.22-.88,3.07" fill="#8c8c99"/><path d="M97.43,116.78h1.93c.17-1.08.71-1.81.7-3.07-2.38-.44-2.25,1.56-2.63,3.07" fill="#8c8c99"/><path d="M94.62,116.78h2.1c.34-.97.52-2.1.88-3.07-2.79-.72-2.47,1.57-2.98,3.07" fill="#8c8c99"/><path d="M103.04,116.44c1.14-.37,1.23-1.76,1.58-2.9-1.58-.06-1.2,1.78-1.58,2.9" fill="#8c8c99"/><path d="M93.4,110.48c-.06.96-.22,1.83-.35,2.72h1.75c.21-.98.4-2,.53-3.07-.68.08-1.39.13-1.93.34" fill="#8c8c99"/><path d="M104.45,109.97c-.16.92-.26,1.91-.35,2.9,1.53-.05,1.26-1.84,1.75-2.9-.57-.28-.67.04-1.4,0" fill="#8c8c99"/><path d="M101.11,113.04h1.93c.36-.9.45-2.06.7-3.07-2.21-.94-2.43,1.1-2.63,3.07" fill="#8c8c99"/><path d="M99.18,109.97c-.33.93-.46,2.05-.7,3.07.71-.12,1,.16,1.58.17.55-.77.66-1.97.7-3.24-.6-.31-.84.02-1.58,0" fill="#8c8c99"/><path d="M96.2,109.97c-.3.96-.39,2.12-.7,3.07.77.19,1,.04,2.1,0,.15-.9,1.14-2.53.35-3.24-.24.39-1.22.06-1.75.17" fill="#8c8c99"/><path d="M93.57,106.74c-.21,1.26.04,1.57-.18,2.9.9.13,1.27-.24,2.1-.17.02-1.06.29-1.88.18-3.07-.83.07-1.2.08-2.1.34" fill="#8c8c99"/><path d="M96.38,106.57c.1,1.21-.34,1.85,0,2.9.75-.01,1.23-.29,2.1-.17.18-.96.23-2.05.35-3.07-.99-.05-1.77.09-2.45.34" fill="#8c8c99"/><path d="M104.8,106.22c-.14,1.22-.1,1.4-.18,2.89.51-.02,1.15.09,1.4-.17-.09-1.05.31-1.63.17-2.73-.71-.14-.6-.03-1.4,0" fill="#8c8c99"/><path d="M101.99,106.39c-.06.84-.22,1.44-.18,2.72h1.93c.17-.5.2-1.89.17-3.07-.77,0-1.37.15-1.93.34" fill="#8c8c99"/><path d="M99.36,106.39v2.9h1.4c.19-.81.9-2.64.18-3.24-.05.24-1.14.02-1.58.34" fill="#8c8c99"/><path d="M66.74,105.88c-.12,2.71-4.53,4.47-2.1,6.98,3.49-.47,4.14-3.7,4.56-7.15-.74.16-1.26.16-2.45.17" fill="#8c8c99"/><path d="M44.3,104.01c-.37,2.31-1.98,3.42-2.28,5.79,3.04,3.2,5.13-2.48,4.21-5.79h-1.93Z" fill="#8c8c99"/><path d="M107.25,104.35c.62,5.06-1.48,9.59-3.16,13.45,5.82,1.54,13.38-.13,18.06-2.21-2.68-3.81-6.02-6.98-7.54-11.92-2.05.6-4.47.59-7.37.68" fill="#5d1e79"/><path d="M93.57,106.05c.64-.12,1.28-.24,2.1-.17.27-.58.41-1.3.35-2.21h-2.45v2.38Z" fill="#8c8c99"/><path d="M86.21,104.18c-.12,6.31-.21,12.11-.35,19.76,1.13.32,2.56.35,3.86.51,1.92-6.27,3.31-13.47,2.98-20.78-2.42-.08-4.56.11-6.49.51" fill="#636270"/><path d="M96.73,103.67c.12.85-.16,1.32-.18,2.04.81,0,1.71.08,2.28-.17.1-.9-.13-1.46-.18-2.21-.58.18-1.44.08-1.93.34" fill="#8c8c99"/><path d="M104.8,105.54c.6.07.98-.07,1.4-.17,0-.8-.31-1.29-.35-2.04-.41-.05-.66-.27-1.23-.17.17.68.22,1.49.18,2.38" fill="#8c8c99"/><path d="M101.99,103.33c.05.75.28,1.32.18,2.21.6-.05,1.42.13,1.75-.17-.06-.68.16-1.63-.17-2.04-.32-.26-1.43-.26-1.75,0" fill="#8c8c99"/><path d="M99.53,105.54c.58,0,1.17,0,1.75,0v-2.38c-2.03-.39-2.1.83-1.75,2.38" fill="#8c8c99"/><path d="M64.46,104.52c2.17.73,5.01.1,8.07,0,.48-1.69.9-3.44,1.4-5.11-.41-.34-1.12-.39-1.93-.34.01,1.37-.01,2.71-.88,3.24-1.63-.82-3.72.79-4.74-.68-.02-1.14.05-2.19-.17-2.72-2.9-1.17-2.21,4.05-1.75,5.62" fill="#d1d3d4"/><path d="M41.67,97.03c-.47,1.7-.26,3.32-.18,5.62,2.6.51,4.15.54,7.19.34.59-1.81,1.01-3.79,1.75-5.45-.5-.18-1.37-.59-1.75-.34.1,1.69-.16,3.02-1.23,3.58-.41-.25-5.83,2.17-4.03-4.09-.74-.04-1.24.16-1.75.34" fill="#d1d3d4"/><path d="M67.27,101.12c1.48.22,1.99-.09,3.68.17-.02-2.4.68-5.13,1.4-7.32-1.49.03-2.62-.3-4.21-.17-.77,1.93-1.18,4.9-.88,7.32" fill="#8c8c99"/><path d="M103.74,100.09c-.34.41-.11,1.37-.18,2.04.83-.23,1.63.12,2.81,0,.54.16.43.94.88,1.19,9.15-.1,17.43-2.48,20.87-8.69-.27-.7-.82-1.14-1.4-1.53-4.99,5.23-13.37,8.97-22.97,6.98" fill="#fff"/><path d="M45.7,92.09c-.94,1.82-1.1,4.39-1.58,6.64.29,1.42,1.61,1.98,3.51.85.04-2.09.74-4.94,1.05-7.32-1.15.09-2-.1-2.98-.17" fill="#8c8c99"/><path d="M41.84,91.92c-1.2,2.61-2.37,6.21-2.98,9.54-1.15,6.24-.87,15.23,1.58,20.95.29.67,1.8,4.22,2.28,5.11,3.1,5.74,11.53,7.93,19.46,8.68,7.67.73,16.82-.08,22.97-2.21,1.21-.42,2.67-.99,3.16-1.7-2.24.57-3.63-.54-4.74-1.53-6.27-5.63-6.89-22.8-4.73-36.44-2.02.01-3.13-.23-5.44-.17-.38,1.28-1.03,2.29-1.23,3.75,1.1.48,2.14.17,2.81.85-.91,1.77-.81,5.02-2.1,6.81-1.19-.03-2.03.02-2.63.17-.42,3.51-1.98,8.53-5.26,8.35-1.45-.08-2.59-1.84-2.28-3.24.38-1.75,3.07-2.87,2.98-4.94-.92-.18-2.07-.15-2.45-.85.07-3.14-.52-5.08.7-7.15.88-.1,2.07.16,2.45,0,.12-1.58.65-2.78.88-4.26-6.46-.48-11.11-.96-17.54-1.19.01,1.43-.92,1.94-.7,3.58.83.27,1.91.3,2.45.85-.75,2.39-1.23,5.05-2.45,6.98-.6.29-1.09-.19-1.75.17.35,3.84-.75,8.15-4.03,7.83-1-.1-2.13-1-2.28-2.04-.36-2.61,2.49-2.77,2.11-5.79-.8-.19-1.82-.16-2.46-.51.12-2.79-.47-5,.18-7.32,1.05.29,2.04-.61,2.98-.17.27-1.33.61-2.59.88-3.92-.63-.35-1.9-.09-2.81-.17" fill="#df7e1c"/><path d="M134.78,99.58c-.82-.39-.84-1.56-1.05-2.55-2.69,1.54-4.01,5.29-4.73,8.17-1.34-.57-1.51-2.28-1.93-3.75-1.8-.65-4.57-.18-6.31,1.02-1.38.95-3.39,3.38-3.33,4.6.05,1.03,5.5,7.6,7.19,9.37-.01,1.13-1.05,2.16-.53,3.24.79-.43,1.3-1.13,2.28-1.36.71.96.56,2.74,1.58,3.4,1.24-.44,1.05-2.28,1.93-3.07,2.02.65,3.27,2.05,5.79,2.21-.06-.84-.57-1.61-.35-2.21.25-.04.3-.28.53-.34,4.09.58,8.99,1.19,13.33-.17-.17-1.48-2.35-1.01-2.28-2.72,4.41-.72,10.96-1.24,14.56-3.75-.28-1.26-2.64-1.39-2.98-1.7,4.06-1.28,8.72-1.98,10.52-5.45-.41-.4-1.25-.38-1.58-.85.5-.74-.17-1.59,0-2.55.89-.33,1.96-.48,2.46-1.19-.68-1.27-3.96-.13-4.38-1.19.04-.87,1.09-.76,1.4-1.36-1.72-.16-2.24.24-3.51-.17.45-.92,1.59-1.18,1.4-2.73-1.19-.85-3.61-.48-4.56-.51,0-.07,2.46-1.68,2.1-2.72-1.76-.08-3.9.99-5.61.85.19.1,1.34-1.08,1.23-2.38-1.42-.74-8.83,1.3-12.28,2.73.09-1.11.53-1.87.7-2.9-5.37,1.88-8.81,5.63-11.57,10.05" fill="#a8975f"/><path d="M164.77,93.28c1.25.58,1.22,2.33.18,3.07.67.22,1.92-.14,2.81.51.58.49-1.06,1.26-.18,1.53,1.14-.19,2.99.39,3.33,1.53-.43.89-1.26,1.39-2.28,1.7,3.25,1.19.59,1.84,0,1.53,5.28,3.39,17.32,1.34,16.84-6.47-.91.28-1.58,1.6-2.63,1.19,1.11-1.82,3.78-2.12,3.33-5.45-1.18-.1-1.8,1.75-3.33,1.87,1.42-1.81,4.4-3.88,2.98-7.32-4.89,2.12-9.5,5.42-14.73,6.64,1.46-2.39,5.53-8.65,1.05-11.07-.97,5.02-7.4,4.73-7.37,10.73" fill="#fdd5b5"/><path d="M76.61,93.29c.53,0,1.36-.01,1.88-.01,2.29-12.63,6.57-15.64,11.93-21.46.18,0,.14-.22-.18-.17-7.34,4.4-11.74,11.96-13.63,21.64" fill="#3eb7ea"/><path d="M93.57,70.8c-3.14,1.19-13.52,11.14-14.03,21.63-.05,1.03-4.87,29.14,4.74,37.81,3.95,3.57,8.21-.22,10.17-2.89.37-.51.92-1.13.7-1.53-3.83-.2-7.01-.19-10.35-1.02.33-4.03.33-19.42.88-21.63,4.79-.69,10.18-.05,14.73-.85.66-7.87-.98-17.87-1.75-25.72-.21-2.1-.25-4.48-1.4-6.13-1.23.26-2.53.18-3.68.34" fill="#faa73f"/><path d="M53.77,70.29c-6.86,3.53-13.72,13.18-15.08,19.93,4.82,1.33,30.44,2.49,37.35,3.07,1.81-9.83,6.25-17.09,13.15-21.97-7.29.1-14.16-.46-20.69-.51.33,4.49-1.95,7.7-4.21,10.22-2.7-1.92-6.92-2.36-8.07-5.79,2.32-1.04,5.08-1.65,5.61-4.43-1.22-.38-7.13-.99-8.07-.51" fill="#00a3e2"/><path d="M57.45,75.74c1.79,1.78,4.22,2.94,6.84,3.92,2.84-2.28,3.88-6.67,3.33-11.75-1.87-.16-2.54-.05-4.56-.17.29,4.77-2.64,6.41-5.61,8" fill="#636270"/><path d="M121.28,96.35c1.55-.96,4.99-2.78,5.09-4.26.03-.46-.93-1.95-1.4-2.89-3.5-6.95-6.05-14.4-9.12-21.12-1.61-1.39-3.51-2.49-5.96-3.06-3.69,1.48-10.16,6.64-10.52,10.56,1.89,15.6,1.59,26.88,2.28,26.74,1.05-.21.9-1.02,1.05-2.55.88-8.91-.18-15.87,1.4-22.65-.02,7.49.21,15.19-.35,21.97,5.89,2.39,13.53-.26,17.54-2.73" fill="#6f2c91"/><path d="M98.48,70.46c.51.64.1,2.18.88,2.55,2.73-4.07,8.11-10.58,14.38-8.85-.07.5-1.03.13-1.23.51,1.54.32,2.88,1.75,3.86,2.04.14-1.63-.91-2.78-1.93-3.75-3.07-2.92-8.59-.81-11.92.17.11-1.03,1.48-.84,1.93-1.53-1.06-.1-1.68-.64-2.98-.51-.16,3.68-1.3,6.74-2.98,9.37" fill="#3eb7ea"/><path d="M60.6,60.41c-.48,1.79-.38,4.73-.35,6.47,2.47-.24,6.13.64,9.82-.17v-6.47c-3.78.15-5.55.32-9.47.17" fill="#d1d3d4"/><path d="M91.29,42.36c-4.45-.9-5.56,7.13-5.26,10.9.21,2.71,1.18,7.12,2.28,9.88.6,1.49,3.51,6.34,4.74,6.81,1.72.67,2.7-.49,4.91-.17,5.63-8.55,1.52-25.77-6.66-27.42" fill="#faa73f"/><path d="M68.15,41.34c-3.27,4.3-5.15,10.72-4.56,18.22,1.9.17,2.87.38,4.38-.34-.89-4.67,1.6-11.48,4.03-15.16.63-.95,1.63-1.74,1.4-2.38-2.34-.43-3.2-.16-5.26-.34" fill="#636270"/><path d="M74.46,42.02c-2.61,1.93-5.08,8.25-5.79,12.6-.26,1.58.04,3.06,0,4.77.99-.08,1.64-.55,2.28-.17-.28,2.88.23,5.8-.18,8.52h-2.28v2.38c7.19.09,15.72.88,23.5.34-3.57-4.16-7.11-12.76-6.66-20.61.23-3.99,1.79-7.49,5.26-8.35-4.6-2.52-12.44-2.22-16.13.51" fill="#faa73f"/><path d="M62.99,39.5c-4.71-.72-8.99,2.16-11.04,4.76-5.75,7.28-1.35,20.66,1.29,25.34,2.66.32,5.83.13,8.77.34-.12-.86.3-1.19.18-2.04-.85-.08-2.05.18-2.63-.17-.23-3.25-.5-5.97.7-8.34,1.1-.19,1.35.08,2.45.17-.46-6.73,1.46-13.68,4.38-18.22-1.63-.7-2.37-1.57-4.1-1.84" fill="#faa73f"/><path d="M103.74,100.09c2.85.59,5.59.68,8.17.37l.04.27s10.05.37,16.11-6.22l.06.13c-3.44,6.21-11.72,8.59-20.87,8.69-.45-.25-.34-1.03-.88-1.19-1.18.12-1.98-.23-2.81,0,.07-.67-.16-1.63.18-2.04" fill="#c4e0e7"/><path d="M162.28,99.01s3.15,1.15,2.87,2.29c-.29,1.15-15.58,6.93-15.58,6.93l2.29.29c2.29.29,4.92,1.2,1.15,2.63-3.78,1.43-14.43,1.43-14.43,1.43,0,0,1.43,1.43,1.15,3.2-.29,1.77-6.64-.86-6.64-.86,0,0,.86,1.43-.29,2.87-1.15,1.43-3.2-2.29-3.2-2.29l-1.72,2.58-.86-3.78s-3.2-2.29-3.2-9.79c0-1.32.17-2.4.45-3.29-1.26.15-2.54.59-3.51,1.26-1.38.95-3.39,3.38-3.33,4.6.05,1.03,5.5,7.6,7.19,9.37-.01,1.13-1.05,2.16-.53,3.24.79-.43,1.29-1.13,2.28-1.36.71.96.56,2.74,1.58,3.41,1.24-.44,1.05-2.28,1.93-3.07,2.02.65,3.27,2.05,5.79,2.21-.06-.84-.57-1.61-.35-2.21.25-.04.3-.28.53-.34,4.09.58,8.99,1.19,13.33-.17-.17-1.48-2.35-1.01-2.28-2.72,4.41-.72,10.96-1.24,14.56-3.75-.28-1.26-2.64-1.39-2.98-1.7,4.06-1.28,8.72-1.98,10.52-5.45-.41-.4-1.25-.38-1.58-.85.5-.74,2.77-.67,0-2.55.89-.33,1.96-.48,2.46-1.19-.68-1.27-3.86-.53-4.38-1.19.05.1,1.09-.76,1.4-1.36-.55-.05-.97-.05-1.34-.03l-3.25,1.67Z" fill="#8c804f"/><path d="M164.77,93.28c-.02-3.65,2.35-4.97,4.43-6.58-.54,1.4-1.44,4.72.3,8.24,2.29,4.64,11.23-.62,13.86-3.78.78-.94,1.15-2.26,1.28-3.66.39-.18.78-.36,1.17-.53,1.42,3.44-1.56,5.51-2.98,7.32,1.53-.12,2.15-1.97,3.33-1.87.45,3.33-2.22,3.63-3.33,5.45,1.05.41,1.72-.91,2.63-1.19.49,7.82-11.55,9.87-16.84,6.47,0,0,2.3-.54,0-1.53,1.02-.32,1.85-.82,2.28-1.7-.34-1.14-2.19-1.73-3.33-1.53-.88-.27.75-1.04.18-1.53-.88-.65-2.14-.3-2.81-.51.5-.35.76-.92.77-1.5.14-.27.13-.51-.12-.68-.14-.37-.42-.7-.83-.89" fill="#efbd9b"/><path d="M111.82,99.79c-2.73.41-5.56.31-8.08-.72.56-6.78.33-14.48.35-21.97-1.58,6.78-.53,13.74-1.4,22.65-.15,1.53,0,2.34-1.05,2.55-.69.14-.39-11.14-2.28-26.74.36-3.92,6.83-9.08,10.52-10.56,1.95.46,3.56,1.25,4.94,2.25-1.8-.31-3.83.27-4.59,3.97-1.3,6.33,1,24.24,1.59,28.55" fill="#5d1e79"/><path d="M138.29,152.38c1.39-1.43,2.46-5.12,4.91-3.07-1.63,1.26-3.65,2.13-5.09,3.58,1.38-.31,3.08-1.47,4.92-2.48-.99.98-2.09,2.25-1.88,2.84.25.69,3.59-.58,5.82-1.51-.94.58-1.77,1.27-2.54,2,.93-.33,1.97-.86,3.12-1.38-.62.63-1.38,1.35-2.13,1.93-1.7,1.32-6.83,4.27-4.27,4.84,2.56.57,10.24-4.64,10.24-4.64,0,0,5.1,2.83,9.15.57.03.33.04.64.02.9-.41,4.36-6.91,3.57-9.47.85-5.34,3.8-16.54,8.07-24.02,3.41-.5,1.57,2.1,1.59,2.81,2.55-4.51.97-9.05-.48-11.92-2.55-.44.78.83,1.19,1.05,1.87-4.21.88-8-.63-6.84-4.94,1.52-1.64,5.43-.21,7.37-1.19.58.35.55,1.28,1.4,1.36.89-.04,1.22-.63,1.93-.85,1.1.81,1.82,1.98,3.16,2.55.87-.29,1.33-.98,1.58-1.87,1.63.68,3.14,1.49,5.26,1.7.66.02.41-.85.88-1.02,1.1.42,2.96-.47,4.21.17-.1-1.45-1.85-2.56-1.4-4.09.17-.59,1.13-.89,1.75-1.53" fill="#efbd9b"/><path d="M137.52,151.29c-1.41,1.73-2.82,3.34-3.97,4.67.55.24,1.3-1.36,2.1-1.19-.11,1.13.53,1.53.7,2.38-1.89.13-3-.49-4.21-1.02-.73.23-.15,1.29.18,1.53-2.31.54-3.51-1.47-5.26-2.04-.5.53-.27,1.78-.7,2.38-1.64-.28-2.05-1.76-2.98-2.73-.85-.31-.99,1.38-2.45,1.02-.27-.86-.08-1.5,0-2.55-1.38.02-2.02.77-3.51.68,2.26-4.37,3.83-11.21,4.21-16.69.81.04,5.49-.12,5.49-.41-11.35-1.13-24.96-2.96-34.07-6.74,1-1.59,2.28-2.9,2.98-4.77,3.01,1.11,4.44-2.23,5.96-4.09,6.87,1.52,15.12.23,20.69-1.87.22.3.13.9.53,1.02,1.09-.25,1.63-1.03,2.63-1.36.31,1.46.6,2.94,2.1,3.24.93-.57,1.71-1.29,1.93-2.55,2.29.33,3.61,1.6,5.96,1.87.56-.25.97-.64.88-1.53,2.88.62,4.94,2.03,6.49,3.94-.91.09-1.94.14-3.09.14-5.4,0-9.1-1.71-9.1-1.71,0,0-7.11,2.56-5.88,7.02,1.23,4.46,13.46,7.59,13.46,7.59,0,0,1.23,1.14.95,5.12-.19,2.64-1.3,6.42-2.02,8.65" fill="#8c804f"/><path d="M100.94,154.76c.52.37,1.12.66,1.8.87-.26.24-1.24,1.08-2.35,1.24-1.3.19-2.79,0-2.79,0,0,0,4.84,4.01,10.94,2.15-.08.4-.23.76-.41,1.02-1.89,2.65-6.99,1.28-8.77-.51-1.85,1.08-3.55,2.29-6.49,1.87.19-.72.96-.88.88-1.87-1.84.8-2.44,2.54-4.56,2.73-3.19.27-6.85-2.71-10.17-1.02.96.78,2.13-.04,3.16.34-2.07,1.82-5.59.67-5.96-1.36-.78-4.2,4.66-4.87,7.19-6.47,1.4.74,2.46-.3,3.86-.51-.19.89-.11,1.2.18,2.21,2.03.22,2.96-.64,4.21-1.19.61.83.03,2.67,1.4,3.07,1.48.43,2.56-.93,3.33-2.04,1.07.57,4.36,1.48,4.56-.51" fill="#efbd9b"/><path d="M97.97,153.88c-.56-1.88,1.49-8.76,4.83-11.38,1.4-1.1,3.2-1.18,4.81-.9.17-4.16-4.95-7.3-8.96-7.61-3.34-.25-6.21.78-8.59,2.21-1.12,6.16-2.82,11.55-4.38,16.69,1.01-.16,1.59-.73,2.81-.68-.28.86-.42,1.83,0,2.55,1.82-.22,2.74-1.31,4.56-1.53-.6,4.87,2.39,3.03,2.98.51.98.29,1.57.95,2.49,1.3-.19-.25-.38-.62-.55-1.17M99.71,155.27c.01-.05.02-.1.03-.16l-.03.16Z" fill="#8c804f"/><path d="M57.75,74.6c-.51.21-1.03.41-1.53.63.2.62.51,1.13.88,1.58l-1.87,1.33,7.85,3.92c1.49.74,2.6.56,2.6.56,0,0,1.67-1.69,2.23-3.18.56-1.49,1.14-3.91,1.14-3.91l14.82.56c-2.71,3.09-4.8,6.78-6.26,11.08l-36.87-2.6c1.86-3.7,4.67-7.54,7.81-10.48l9.19.51Z" fill="#3eb7ea"/><path d="M74.46,42.02c.66-.49,1.46-.9,2.34-1.23-1.38,1.83-3.53,5.14-4.03,8.62-.74,5.23,5.02,5.78,7.08,5.97.94.08,3.35-.18,5.69-.49.84,6.25,3.64,12.29,6.45,15.57-7.77.54-16.31-.26-23.5-.34v-2.38h2.28c.4-2.71-.1-5.64.18-8.52-.64-.38-1.29.09-2.28.17.04-1.7-.26-3.19,0-4.77.71-4.35,3.17-10.67,5.79-12.6" fill="#df7e1c"/><path d="M65.18,40.28c.61.36,1.22.76,1.91,1.06-2.92,4.54-4.84,11.49-4.38,18.22-1.11-.09-1.35-.36-2.45-.17-1.2,2.37-.93,5.09-.7,8.34.58.35,1.78.09,2.63.17.12.86-.3,1.19-.18,2.04-2.93-.21-6.1-.02-8.77-.34-2.65-4.71-7.08-18.19-1.2-25.45-1.93,12.32,9.17,10.1,9.17,10.1,0,0,.74-5.23,1.49-8.39.44-1.88,1.61-4.1,2.49-5.59" fill="#df7e1c"/><path d="M78.88,120.94c.77,3.57,1.96,6.6,3.64,8.68-6.66,2.18-20.33.89-28.21-.74-9.89-2.05-11.94-6.71-10.08-8.59,1.62-1.64,27.92.16,34.65.65" fill="#faa73f"/><path d="M41.84,91.92c.91.08,2.18-.18,2.81.17-.27,1.33-.61,2.59-.88,3.92-.51-.23-1.02-.09-1.56.06.13-.58.27-1.15.39-1.74-.39-.22-1.04-.2-1.68-.17.3-.8.61-1.55.92-2.23" fill="#c06716"/><path d="M72.56,96.38c.27-.76.61-1.45.84-2.24,2.3-.06,3.42.18,5.44.17-.12.76-.23,1.53-.33,2.31-2.4-.11-4.58-.2-5.95-.24" fill="#c06716"/><path d="M69.9,107.77c.16-.71.27-1.41.35-2.06.39-.1.89-.15,1.52-.17-.21.83-.49,1.62-.94,2.23-.34,0-.65,0-.94,0" fill="#c06716"/><path d="M63.21,100.12c-.15,1.38.07,2.9.03,4.91.38.71,1.53.67,2.45.85.09,2.07-2.6,3.19-2.98,4.94-.31,1.39.83,3.15,2.28,3.24.56.03,1.08-.09,1.54-.33-.84,1.55-2.02,2.65-3.59,2.56-1.45-.08-2.59-1.84-2.28-3.24.38-1.75,3.07-2.87,2.98-4.94-.92-.19-2.07-.15-2.45-.85.07-3.14-.52-5.08.7-7.15.41-.05.88-.02,1.31.01" fill="#c06716"/><path d="M49.1,94.72c.21-.77.64-1.31.63-2.29,6.42.23,11.07.71,17.54,1.19-.23,1.48-.75,2.68-.88,4.26-.27.11-.94.01-1.63-.02.17-.65.35-1.3.46-2.01-5.98-.45-10.41-.89-16.12-1.14" fill="#c06716"/><path d="M47.34,105.46c0-.48-.02-.97-.06-1.45.27-.15.51-.15.74-.13-.2.55-.42,1.08-.68,1.58" fill="#c06716"/><path d="M40.49,98.21c-.06,1.64.21,3.32.12,5.29.63.35,1.66.32,2.46.51.39,3.02-2.47,3.18-2.11,5.79.15,1.04,1.28,1.95,2.28,2.04.5.05.95-.01,1.35-.16-.64,1.54-1.74,2.55-3.39,2.39-1-.1-2.13-1-2.28-2.04-.36-2.61,2.49-2.77,2.1-5.79-.8-.19-1.82-.16-2.45-.51.03-.78.01-1.52-.02-2.22.09-.71.19-1.4.31-2.05.18-.99.41-2.01.68-3.02.32-.05.64-.15.95-.23" fill="#c06716"/><path d="M85.56,103.92c-.43,3.82-.45,17.15-.76,20.86,3.33.83,6.51.83,10.35,1.02.22.41-.33,1.02-.7,1.53-.2.27-.43.56-.68.85-4.66-.42-10.05-1.03-12.15-1.55.33-4.03.33-19.42.88-21.63.23-.25,1.16-.63,3.06-1.09" fill="#df7e1c"/><path d="M57.45,75.74l.34-.18c1.63,1.26,3.63,2.18,5.75,2.97,2.64-2.12,3.72-6.05,3.43-10.66l.65.05c.55,5.08-.49,9.47-3.33,11.75-2.62-.98-5.05-2.14-6.84-3.92" fill="#8c8c99"/><path d="M68.15,41.34c1.78.15,2.66-.02,4.38.2-3.24,4.05-4.42,8.42-4.42,8.42l-3.76-.43c.8-3.2,2.11-5.97,3.8-8.19" fill="#8c8c99"/><path d="M60.6,60.41h.37c-.26,1.77-.18,4.08-.16,5.54,2.35-.22,5.76.55,9.26-.06v.82c-3.69.81-7.35-.06-9.82.17-.03-1.74-.13-4.69.35-6.47" fill="#a7a9ac"/><path d="M60.6,60.41c3.91.15,5.69-.02,9.47-.17v6.47c-.37.08-.74.15-1.12.2v-5.72c-3.47.14-8.43-.48-8.35-.78" fill="#fff"/><path d="M71.87,101.36c.66-.4.83-1.29.87-2.3-.23-.01-.48,0-.74.01,0,.82,0,1.63-.19,2.26l.06.03ZM72.53,104.52l.26-.93c-2.87.14-5.52.67-7.58-.02-.28-.98-.66-3.37-.2-4.75-1.46.63-.92,4.41-.54,5.7,2.17.73,5.01.1,8.07,0" fill="#a7a9ac"/><path d="M49.44,97.19c-.3-.08-.58-.1-.76.01.06.98,0,1.85-.28,2.51.71-.49,1-1.38,1.04-2.52M41.49,102.65c2.6.51,4.15.54,7.19.34.1-.3.19-.61.28-.92-2.75.16-4.26.11-6.73-.37-.07-1.96-.24-3.43,0-4.87-.2.06-.39.13-.58.2-.47,1.7-.26,3.32-.18,5.62" fill="#a7a9ac"/><path d="M64.35,110c-.55.91-.72,1.82.28,2.86,1.79-.24,2.83-1.21,3.48-2.57l-3.76-.3ZM66.21,107.47l2.71.16c.11-.62.2-1.26.28-1.92-.74.16-1.26.16-2.46.17-.03.56-.24,1.09-.53,1.58" fill="#636270"/><path d="M42.42,108.28c-.19.46-.33.95-.41,1.52,1.78,1.87,3.23.71,3.94-1.24l-3.54-.28ZM43.55,106.12l2.87.17c.05-.79,0-1.59-.2-2.28h-1.93c-.13.82-.42,1.48-.74,2.11" fill="#636270"/><path d="M71.9,95.42c.15-.5.3-.99.45-1.46-1.49.03-2.62-.3-4.21-.17-.16.41-.31.86-.43,1.34l4.19.29ZM70.95,101.29c0-.85.07-1.75.22-2.65l-3.97-.23c-.06.92-.04,1.85.07,2.7,1.48.22,1.99-.09,3.68.17" fill="#636270"/><path d="M44.42,97.11c-.09.55-.19,1.09-.3,1.62.29,1.42,1.62,1.98,3.51.85.01-.69.1-1.46.22-2.28l-3.42-.19ZM45.12,93.59l3.32.23c.09-.53.17-1.06.24-1.56-1.15.09-2-.1-2.98-.17-.24.46-.42.96-.58,1.5" fill="#636270"/><path d="M60.42,73.91c.74-.58,1.38-1.25,1.85-2.1l5.25,1.69c-.25,1.47-.7,2.8-1.35,3.93l-5.74-3.52Z" fill="#8c8c99"/><path d="M70.93,103.1c0-.38.31-.68.68-.68s.68.31.68.68-.31.68-.68.68-.68-.31-.68-.68" fill="#fff"/><path d="M47.26,101.88c0-.42.34-.75.75-.75s.75.34.75.75-.34.75-.75.75-.75-.34-.75-.75" fill="#fff"/><path d="M67.09,61.81c0-.65.52-1.17,1.17-1.17s1.17.52,1.17,1.17-.52,1.17-1.17,1.17-1.17-.52-1.17-1.17" fill="#fff"/><path d="M98.57,70.33c1.64-2.6,2.74-5.61,2.9-9.23,1.31-.13,1.92.4,2.98.51-.45.7-1.82.51-1.93,1.53,2.73-.81,6.92-2.37,10.04-1.3-3.25.03-7.84,1.96-13.99,8.49" fill="#00a3e2"/><path d="M101.49,57.59s.49,1.29.8,1.65c.31.37,1.06,1.22,1.06,1.22l-1.74-.43-.12-2.45Z" fill="#8c804f" fill-rule="evenodd"/><path d="M94.44,129.13c-1.35,4.06-3.26,8.03-5.84,11.34-.64.81-3.68,4.1-4.47,4.81-5.28,4.75-15.41,8.42-22.67,5.15-2.23-1-5-2.98-6.36-4.64-4.88-5.95-4.45-17.41-9.1-23.7-6.44-8.7-23.72-5.48-34.35-9.96-3.57-1.5-7.18-4-9.1-7.04-5.29-8.37-1.67-20.94,4.81-25.94,1.72-1.33,5.92-3.35,8.93-3.43,5.93-.17,14.34,4.34,16.66,8.93,2.73,5.4-.94,12.65-7.04,10.82-3.57-1.07-6.02-6.7-10.65-6.35-5.98.44-4.65,9.46-1.55,11.85,3.88,2.99,11.83,4.07,18.04,4.81,11.02,1.3,17.85,5.38,22.67,11.85,4.49,6.03,5.42,15.81,10.65,20.44,3.8,3.36,9.93,2.54,14.43-.34.85-.55,1.65-1.27,2.41-2.08,3.28-.8,6.45-1.98,8.72-3.71,1.63-1.24,3.04-2.65,4.24-4.08l-.42,1.28Z" fill="#231f20"/><path d="M26.94,106.11c15.99.92,23.47,7.42,27.14,12.88,4.14,6.16,5.35,17.45,11.85,21.3,6.09,3.61,14.29-1.24,17.52-4.98,2.78-.89,5.28-1.94,7.17-3.38,1.19-.91,2.27-1.9,3.23-2.93-1.34,3.33-3.41,6.93-3.88,7.69-3.64,5.93-6.91,9.43-13.4,12.02-2.82,1.13-6.55,2.31-10.31,1.89-3.86-.43-8.65-3.35-10.65-6.01-4.95-6.59-3.85-19.97-10.82-25.59-5.16-4.16-12.19-4.18-19.92-5.15-8.6-1.08-17.87-3.33-21.64-9.96-4.41-7.76-1.42-19.78,4.81-24.22,10.29-7.33,21.79.92,24.05,5.67,2.22,4.66-.29,10.65-5.67,9.1-3.11-.9-5.19-4.78-8.24-5.84-7.61-2.64-10.67,8.41-5.5,12.88,2.92,2.53,8.86,4.33,14.26,4.64" fill="#a8975f"/><path d="M32.43,91.51c-.89,2.3-3,3.8-6.01,2.93-3.11-.89-5.19-4.78-8.24-5.84-1.89-.65-3.49-.47-4.76.25,1.22-2.58,3.75-4.24,7.24-3.04,3.05,1.06,5.14,4.95,8.24,5.84,1.37.4,2.56.3,3.53-.14" fill="#8c804f"/><path d="M87.13,140.87c-2.72,3.51-5.76,5.92-10.55,7.84-2.82,1.13-6.54,2.31-10.31,1.89-3.86-.43-8.65-3.35-10.65-6.01-4.95-6.59-3.85-19.97-10.82-25.59-5.16-4.16-12.19-4.18-19.92-5.15-8.6-1.08-17.87-3.33-21.64-9.96-4.22-7.42-1.67-18.75,4.02-23.6-3.86,5.59-5.09,14.58-1.55,20.82,3.78,6.63,13.05,8.88,21.64,9.96,7.74.97,14.76.99,19.92,5.15,6.97,5.62,5.87,19,10.82,25.59,2,2.66,6.79,5.58,10.65,6.01,3.76.42,7.48-.76,10.31-1.89,3.41-1.36,5.92-2.97,8.07-5.05" fill="#8c804f"/><rect x="18.11" y="0" width="182.38" height="166.26" fill="none"/></g></svg>