<?xml version="1.0" encoding="UTF-8"?><svg id="b" xmlns="http://www.w3.org/2000/svg" width="200.47" height="111.75" xmlns:xlink="http://www.w3.org/1999/xlink" viewBox="0 0 200.47 111.75"><defs><clipPath id="d"><rect width="200.47" height="111.75" rx="16.62" ry="16.62" fill="none"/></clipPath><clipPath id="f"><rect x="1.84" y="0" width="179.22" height="163.38" fill="none"/></clipPath><clipPath id="g"><path d="M14.7,82.95c3.99,3.61,13.38,13.49,20.26,17.19,5.85-1.64,28.49-10.59,36.05-16.45-4.46-3.53-9.14-6.82-13.91-9.96-13.14,4.28-26.97,7.19-42.4,9.23M19.6,69.2c-2.03,4.16-3.87,8.48-6.01,12.56,1.48,1.66,41.34-7.15,42.95-8.67,1.12-1.05,3.69-9.43,4.61-11.25-.05-.2,0-.3.14-.35-14.48,2.11-26.22,5.4-41.68,7.71M5.52,59.25c-.64.29,10.42,5.96,14.35,9.08,13.94-1.68,28.94-5.53,41.68-7.71-.97-1.59-12.44-6.05-13.65-6.94-14.17,1.65-29.37,3.76-42.38,5.57M11.65,44.14c-3.94,3.75-6.18,8.94-8.42,14.12,8.62.13,38.14-4.5,44.95-5.29,1.12-4.1,2.48-8.79,3.45-12.84-11.81.03-31.44,1.98-39.97,4.01h0Z" fill="none"/></clipPath><clipPath id="h"><path d="M17.56,82.55c.65.68,1.75,1.81,3.34,3.44,2.85,2.91,14.68,11.54,14.68,11.54,0,0,6.97-2.36,11.59-4.46s20.55-9.77,20.55-9.77l-12.25-9.07c-11.83,3.73-24.25,6.39-37.91,8.31M22.34,68.78l-5.53,13,.06.06c8.63-.88,31.5-5.95,37.99-8.05l-.24-.18,4.67-11.82c-12.73,1.98-23.5,4.82-36.95,6.99M6.66,59.1c2.12,1.01,6.25,2.98,7.34,3.5,1.23.6,6.28,4.26,7.95,5.47,12.49-1.68,25.69-4.92,37.25-7.04l-13.01-7.15c-13.27,1.57-27.31,3.51-39.52,5.21M12.77,45.3s-2.06,2.21-3.05,3.99c-.86,1.57-3.6,7.57-4.21,8.92,9.78-.46,32.23-3.87,40.73-4.99.58-1.71,2.29-6.93,3.3-11.69-10.84.1-36.78,3.78-36.78,3.78h0Z" fill="none"/></clipPath></defs><g id="c"><g clip-path="url(#d)"><g id="e"><g clip-path="url(#f)"><path d="M18.52,68.45c-1.62,4.92-4.11,9.12-6.27,13.59,1.95,1.64,14.59,14.73,23.18,19.56,2.49-.61,32.15-13.43,36.96-17.72-4.43-4.13-9.86-7.07-14.51-10.93,1.47-4.48,3.35-8.62,4.96-12.97-4.25-2.55-9.02-4.47-13.62-6.6.61-5.21,2.73-9.13,3.5-14.2-10.71-.23-40.97,3.73-41.66,3.98-1.93.67-9.22,14.15-9.01,15.19.25,1.23,12.57,7.52,16.47,10.08" fill="#221f1f"/><path d="M57.1,73.72c4.79,3.14,9.45,6.44,13.91,9.96-7.57,5.85-30.22,14.81-36.05,16.45-6.88-3.69-16.27-13.58-20.26-17.19,15.43-2.03,29.26-4.94,42.4-9.23" fill="#fff"/><path d="M61.15,61.84c-.91,1.81-3.49,10.2-4.61,11.25-1.61,1.51-41.47,10.34-42.95,8.67,2.14-4.07,3.98-8.4,6.01-12.56,15.47-2.31,27.2-5.6,41.68-7.71-.13.05-.19.16-.14.35" fill="#c4dfe6"/><path d="M47.89,53.68c1.22.88,12.68,5.35,13.65,6.94-12.74,2.18-27.74,6.03-41.68,7.71-3.93-3.12-14.99-8.78-14.35-9.08,13.01-1.81,28.2-3.92,42.38-5.57" fill="#fff"/><path d="M11.65,44.14c8.53-2.03,28.16-3.97,39.97-4.01-.97,4.05-2.33,8.74-3.45,12.84-6.81.79-36.33,5.41-44.95,5.29,2.24-5.18,4.48-10.37,8.42-14.12" fill="#c4dfe6"/></g><g clip-path="url(#g)"><path d="M49.55,41.53c-1.24,5.82-3.5,12.28-3.5,12.28l13.47,7.41-4.9,12.4,13.11,9.7s-15.93,7.66-20.55,9.77c-4.62,2.1-11.59,4.46-11.59,4.46,0,0-11.83-8.63-14.68-11.54-2.85-2.91-4.1-4.22-4.1-4.22l5.67-13.31s-7.01-5.14-8.48-5.87c-1.47-.72-8.61-4.11-8.61-4.11,0,0,3.36-7.41,4.33-9.2.97-1.78,3.05-3.99,3.05-3.99,0,0,25.94-3.68,36.78-3.78" fill="#bcd53a" fill-rule="evenodd"/></g><g clip-path="url(#h)"><path d="M49.55,41.53c-1.24,5.82-3.5,12.28-3.5,12.28l13.47,7.41-4.9,12.4,13.11,9.7s-15.93,7.66-20.55,9.77c-4.62,2.1-11.59,4.46-11.59,4.46,0,0-11.83-8.63-14.68-11.54-2.85-2.91-4.1-4.22-4.1-4.22l5.67-13.31s-7.01-5.14-8.48-5.87c-1.47-.72-8.61-4.11-8.61-4.11,0,0,3.36-7.41,4.33-9.2.97-1.78,3.05-3.99,3.05-3.99,0,0,25.94-3.68,36.78-3.78" fill="#bcd53a" fill-rule="evenodd"/><path d="M54.61,73.61l.24.18c-6.49,2.1-29.36,7.15-38.04,7.99l5.53-13c13.44-2.16,24.21-5,36.94-6.99l-4.67,11.82h0ZM9.73,49.3c.97-1.78,3.05-3.99,3.05-3.99,0,0,25.94-3.68,36.78-3.78-1.01,4.78-2.72,9.98-3.3,11.69-8.49,1.12-30.95,4.53-40.73,4.99.62-1.36,3.35-7.34,4.22-8.92" fill="#91b33d" fill-rule="evenodd"/><path d="M16.01,70.79c3.37-.29,4.38,4.07,7.75,3.77,3.44-.3,4.58-3.44,8.01-3.74,2.73-.24,3.57,3.58,6.3,3.34,3.58-.31,4.94-3.26,8.52-3.58,1.26-.11,1.91-.03,3.17-.07.17,1.12.43,1.73.53,2.85.19,2.17-2.77,2.22-4.26,3.76-2.13,2.24-.7,4.93-.42,8.1.19,2.17-1.72,3.82-3.89,4.02-3.29.28-4.62-3.56-7.92-3.26-4.98.43-3.12,9.6-8.1,10.03-2.95.26-4.63.4-7.58.66-6.46.56-11.53-4.92-12.09-11.38-.6-6.87,3.1-13.91,9.96-14.51" fill="#08aee5" fill-rule="evenodd"/><path d="M17.3,70.6l-5.82,12.2c9.92-.86,27.95-4.99,37.44-7.38.85-.46,1.47-1.01,1.38-2.05-.1-1.12-.36-1.74-.53-2.85-1.27.04-1.92-.05-3.17.07-3.58.31-4.94,3.26-8.52,3.58-2.73.24-3.57-3.58-6.3-3.33-3.44.3-4.58,3.44-8.01,3.74-1.39.12-5.54-3.14-6.47-3.96" fill="#1c93d1"/><path d="M12.9,40.92c.17.03,13.66,2.25,12.76,7.5-.43,2.55-1.81,4.26-3.11,6.39-1.01,1.66-1.41,3.02,1,4.02,3.89,1.64,5.54,7.38-9.71,8.72-15.2,1.33-27.19-2.24-24.58-9.26,2.58-6.93,12.14-13.99,13.07-14.68,1.3.32,15.7,4.08,14.44,7.24-.63,1.57-1.57,2.94-2.37,4.43-.64,1.2-.99,2.29-.1,3.17,1.49,1.5,2.95,4.57-3.05,5.64l.07.39c6.46-1.15,4.86-4.7,3.26-6.32-.67-.67-.47-1.49.18-2.7.8-1.5,1.75-2.88,2.39-4.47,1.43-3.58-12.57-7.25-14.89-7.82,0,0-2.7,1.93-5.68,4.73-2.97,2.79-6.3,6.52-7.69,10.25-2.88,7.7,10.15,11.09,24.99,9.8,14.79-1.3,14.84-7.38,9.83-9.49-2.04-.86-1.79-1.85-.82-3.44,1.33-2.17,2.71-3.91,3.15-6.52.85-4.98-9.78-7.43-13.1-7.97l-.07.39h0Z" fill="#42612d"/><path d="M18.4,68.03c-.03-1.43,2.5-3.92,3.12-4.52,1.89-1.8,3.71-2.71,6.38-3.27,2.73-.57,6.27-.75,11.5-1.06,5.27-.31,10.19-.39,14.49-1.06,4.33-.67,8.11-1.95,10.98-4.73,3.65-3.53-.77-4.24-3.39-4.25-3.29-.03-7.27.62-7.27.62,0,0-5.34.75-11.35,1.42-6.05.67-12.7,1.25-15.37.93-3.22-.38-6.56.06-9.78.28-3.55.24-7.18.32-10.45-.51-5.27-1.36.69-11.61,2.43-14.22l-.84-.56c-1.88,2.81-8.45,14.05-1.84,15.75,5.21,1.34,10.63.46,15.91.2,1.6-.08,3.12-.09,4.45.07,2.81.33,9.59-.27,15.59-.93,6.03-.67,11.39-1.42,11.39-1.42,1.86-.3,13.82-1.96,9.82,1.92-2.65,2.56-6.19,3.79-10.44,4.45-4.27.66-9.16.74-14.4,1.05-5.29.32-8.87.51-11.63,1.08-2.83.59-4.83,1.59-6.87,3.53-.96.91-4.11,4.15-3.32,5.71,0,0,.18.27.47.62,5.72,6.65,11.06-1.54,16.12-.33,3.31.79,3.98,2.81,8.08,1.86,4.88-1.13,8.68-4.74,14.27-4.35,4.81.32,10.97,4.25,12.06,4.98.14.8.44,3.15-.42,3.22-4.2.36-15.74,2.21-16.08,7.82-.35,5.79-4.55,19.45-11.68,20.87l.2.99c7.97-1.59,12.15-16.12,12.49-21.8.29-4.81,11.56-6.56,15.16-6.88,2.04-.18,1.5-3.63,1.24-4.83,0,0-1.95-1.33-4.41-2.59-8.78-4.49-11.73-3.07-19.99.51-2.13.92-4.54,1.9-6.83.85-3.71-1.7-4.73-2.68-9.26-.68-3.7,1.64-6.82,3.63-10.17-.28-.19-.23-.31-.39-.34-.42" fill="#ffd55a"/><path d="M28.91,68.72c4.53-2,5.54-1.02,9.26.68,2.29,1.05,4.7.08,6.83-.85,5.55-2.41,8.72-3.84,12.86-3.15l-.38.98c-.35-.06-.7-.1-1.03-.12-5.59-.38-9.38,3.23-14.27,4.36-4.1.94-4.77-1.07-8.08-1.86-4.09-.97-8.37,4.22-12.89,2.69l.4-.95c2.33.72,4.67-.62,7.3-1.78M42.95,52.18c-6,.67-12.78,1.27-15.59.93-1.35-.16-2.85-.15-4.46-.07-4.97.25-10.07,1.04-15,0l.44-.94c2.97.57,6.19.48,9.35.27,3.21-.21,6.56-.66,9.78-.28,2.67.31,9.32-.26,15.37-.93,1.47-.17,2.91-.33,4.24-.49l-.33,1.05c-1.2.15-2.48.29-3.78.44" fill="#d1a839"/><path d="M24.8,35.3s-.58.48-1.38,1.31c-3.33,3.44-6.57,8.77-3.58,13.6,4.26,6.9,21.1,3.86,23.85,8.73.48.85.29,1.06-.4,1.33-2.68,1.03-9.64,0-11.56,1.8-.6.56-.74,1.32-.45,2.11,1.13,3.13,8.02,2.29,10.43,2.14,1.7-.11,8.47-.79,9.63.88,2.89,4.17-5.56,11.03,2.53,13.42,3.6,1.07,6.78,1.28,4.89,6.5-2.45,6.74-10.61,10.61-12.93,11.6-1.75-2.53-8.12-11.37-12.15-8.61-3.62,2.48-4.98,14.99-5.29,19.32l1.71.12s.28-3.98,1.03-8.27c.79-4.49,1.99-8.71,3.52-9.75,2.8-1.92,9.68,8,10.51,9.29,0,0,3.49-1.28,6.71-3.4,3.19-2.09,6.9-5.31,8.49-9.71,3.3-9.1-6.47-7.62-8.08-9.77-1.85-2.48,6.51-12.84-4.2-13.5-4.18-.26-8.38.68-12.54.28-.3-.03-2.89-.27-2.65-1.4,1-.94,8.97-.67,11.01-1.44,1.56-.6,2.34-1.9,1.29-3.76-3.38-5.98-20.14-2.73-23.89-8.78-2.69-4.35,1.29-9.92,4.6-12.7l-1.09-1.32h-.02Z" fill="#eb2426"/><path d="M31.69,55.24l6.07-.85c-6.17-1.15-14.05-1.17-16.47-5.09-.98-1.59-1.08-3.34-.64-5.06l-1.84.24c-.36,1.89-.14,3.84,1.02,5.73,2.04,3.3,6.98,4.32,11.85,5.03" fill="#cc2127"/><path d="M44.95,64.42c-3.21.65-6.41,1.33-9.69,1.98,2.36.29,5.09,0,6.44-.09,1.7-.11,8.47-.79,9.63.88,1.53,2.2-.12,5.16-.81,7.81.7-.18,1.34-.35,1.94-.52,1.12-3.98,3.41-9.58-4.37-10.06-1.04-.07-2.09-.05-3.13,0" fill="#cc2127"/><path d="M26.57,37.33c.33.04,10.69,1.34,8.59,6.71-1.04,2.66-2.93,4.41-4.54,6.66-1.34,1.88-1.66,3.57,1.12,5.47,2.16,1.48,4.07,3.39,6.4,4.62,2.28,1.21,5.19,1.9,10.35,1.73,5.11-.17,9.57-.56,12.97-.32,3.4.24,5.55,1.09,6.39,3.22,1.03,2.66,2.49,8.37,2.16,11.38-.02.18-.13,1.09-.44,1.12-4.38.38-13.47,1.2-14.31,6.95-.73,4.96,4.92,13.03,8.07,16.7.3.36.85-.1.54-.46,0,0-2.2-2.56-4.29-5.89-2.11-3.36-4.03-7.36-3.62-10.24.77-5.24,9.69-5.99,13.67-6.34,1.66-.15,1.05-4.4.94-5.19-.34-2.66-1.14-5.9-2.06-8.27-.99-2.56-3.57-3.44-7-3.68-3.43-.24-7.91.15-13.05.31-5.09.17-7.86-.51-9.99-1.64-2.3-1.22-4.2-3.12-6.33-4.58-2.39-1.64-2.09-2.86-.94-4.48,1.67-2.35,3.53-4.02,4.62-6.82,2.02-5.19-5.57-7.26-9.17-7.67-.47-.06-.55.65-.08.71" fill="#08aee5"/><path d="M59.15,62.13c-.71,0-1.44,0-2.21.04.78-.13,1.55-.26,2.35-.38l-.14.34ZM30.63,50.69c1.6-2.25,3.5-4.01,4.54-6.66.22-.55.29-1.05.28-1.51l.72-.07c.03.57-.08,1.18-.33,1.85-1.09,2.8-2.95,4.47-4.62,6.82-1.07,1.5-1.4,2.66.47,4.14l-.93.13c-1.67-1.59-1.26-3.07-.12-4.68" fill="#0e7dc1"/><polygon points="46.81 43.18 45.17 50.2 29.89 51.82 31.24 44.53 46.81 43.18" fill="#c4dfe6" fill-rule="evenodd"/></g><path d="M41.51,45.59l.8,1.6c.67-.18,1.13-.38,1.41-.62.25-.3.31-.55.23-.74l-.04-.07c-.24-.28-.65-.39-1.26-.32l-.95.11-.18.04ZM41.89,45.03c.76-.09,1.39-.05,1.88.12.3.15.51.35.63.6.37.78-.24,1.42-1.82,1.96l.38.83-.39.1-.1-.13-1.4-2.79-.25.07-.05-.05c-.15-.3-.2-.46-.15-.46.49-.12.91-.2,1.25-.24M38.51,46.02c-.1.31-.17.77-.21,1.35.63-.07,1.11-.16,1.45-.26-.56-.52-.98-.88-1.25-1.09M38.14,45.05c.15.07,1.09.95,2.82,2.62.57.49.86.77.9.83-.04.14-.16.25-.34.32-.32-.27-.76-.67-1.28-1.22-.51.15-1.08.26-1.74.33l-.23.03-.15,1.09c-.11,0-.28-.06-.52-.17l.2-1.98c.08-.68.2-1.3.34-1.85M34.91,45.52c.48.54,1.23,1.57,2.27,3.12l.16.2c-.09.1-.22.16-.37.18-.27-.28-.79-.98-1.56-2.11-.06.86-.05,1.74,0,2.63-.18-.11-.87-.82-2.11-2.13-.08-.11-.13-.16-.16-.16.05.9.14,1.72.26,2.44.02.05.02.08,0,.08l-.49-.14c-.11-1.03-.23-2.27-.33-3.71.22.16.8.8,1.75,1.92l.49.52.12-2.82h0Z" fill="#221f1f" fill-rule="evenodd"/><path d="M82.51,69.73c-3.37,7.64-5.84,16.14-10.58,22.44-.16,2.04,1.26,2.57,1.9,3.85-.42,1.59-.85,3.19-1.38,4.69-1.65-2.47-2.85-5.38-5.35-7.03-.7.17-.46,1.23-.69,1.84-3.6-3.42-6.88-7.15-12.23-8.87-.44.92.1,1.91.34,2.67-3.68-1.08-7.01-2.56-12.07-2-.09.87.33,1.24.34,2-1.75-.24-3.28-.68-4.82-.33-.13,1.41.92,1.67,1.55,2.34-.63-.05-1.12.03-1.55.17.07-4.59-3.86-5.46-6.03-8.03-1.05-1.25-.95-2.44-1.9-3.85-5.07,1.11-3.76,8.05-1.03,10.88-4.61-1.49-9.34-4.32-13.79-6.52-.88,1.19-.56,4.09,0,5.36-.7,1.24-.39,3.94.34,4.85-.2,8.75,8.58,11.08,16.37,9.21,2.02,2.33,5.09,3.65,8.1,5.02.03.76-1.07.41-.86,1.34,3.15,2.98,8.63,3.12,13.27,4.35-.34.67-1.09.95-1.21,1.84,1.23,1.99,4.75,1.75,7.93,1.84-2.51,5.83-7.02,10.59-7.24,18.07,1.04.44,1.27-.43,2.24-.5-.36.71-1.08,3.39-.86,4.85,1.22.12,2.29-.3,3.11-1,1.02,2.01,1.96,4.13,3.27,5.86-.79.12-2.33.09-2.41,1.34-2.19-1.45-7.2-1.8-8.27.84-3.75-.33-8.29,1.33-8.96,3.68-1.8,6.38,6.71,8.21,10.51,4.35,3.99,2.47,8.64,4.9,14.65,5.19,1.51.07,3.13-.53,4.65-.33.67.09,1.25.69,1.9.84,3.19.74,6.41-.17,8.96-1.34,4.19,1.99,9.42.26,9.31-3.85-.12-4.26-5.54-2.3-8.96-3.52.9-.54,2.64.76,3.27,0-1.65-5.5-3.89-10.96-3.96-17.07,2.71-.28,5.83-.74,8.44-1,3.27,4.35,5.36,9.87,8.27,14.56.04,1.37-.07,2.73-.18,3.52-1.4.5-2.02.08-3.96.17-4.45,3.14.21,8.25,5.17,7.36,1.3-.24,2.15-1.27,3.45-1.84,1.59,1.91,4.22,1.07,6.89,1.5,1.09.18,2.09.96,3.27,1,2.03.07,3.54-.81,5.35-1.17,5.51,4.11,10.75-2.23,6.03-6.19-1.78-1.49-4.71-1.91-6.72-2.85-3.17-5.24-4.1-12.65-5.69-19.42,10.89,5.59,33.14,5.69,43.94-.84,4.55-4.97,7.15-13.24,7.59-22.42.29-6.33-1.61-12.35-3.45-17.24,1.04-.32,2.37-.38,3.27-.84-2.28-9.34-7.41-15.9-14.47-20.59,2.1-4.11,3.67-8.46,3.96-13.38.55-9.15-3.59-16.2-11.71-17.57-2.78-.47-5.5.61-7.42,2.05-2.47-.23-4.54,0-6.92,0-.53,0-3.83-1.65-6.17-1.89-.62-.07-1.24-.1-1.86-.1,4.08-7.26-.96-16.75-9.75-9.48,1.27-9.43-4.71-18.58-14.05-20.71.65-.24,2.34-.7,2.42-1.5-2.65-1.2-5.43-.74-8.21-.4.53-.66,1.8-1.77,1.86-2.55-2.59-.42-4.67.13-7.01,1.2.42-1.11,1.37-3.41,1.1-4.56-1.92.53-4.66,3.48-5.84,5.06l-.43-.06c-.73-1-1.18-2.17-1.93-3.16-2.14.8-1.67,3.56-1.56,5.36-1.74-.28-8.71-.49-9.92.88.9,1.45,3,1.29,3.82,2.7-5.54,4.61-9.51,11.22-9.99,18.5-7.8-4.15-10.57,9.54-2.17,10.03l-.27.41c-4.18,6.71-3.41,13.98.74,20.49.62.96,1.95,2.91,2.8,3.62,7.48,6.15,15.81,7.74,23.46,5.9" fill="#221f1f"/><path d="M106.1,43.61s4.21-6.74,15.46-1.59c11.26,5.15-4.73,22.63-5.58,23.48-.85.85-4.52,3.46-4.52,3.46,0,0-3.99.64-5.79-.31-1.8-.95.42-25.03.42-25.03" fill="#9f5124" fill-rule="evenodd"/><path d="M122.09,92.74h-1.8s-.11,5.39,0,7.59.03,10.06-.82,13.77c-.85,3.7-2.44,8.93-3.6,10.2s-7.77,2.22-7.77,2.22c0,0,3.65,7.56,18.4,3.99s1.98-14.61.31-19.55-2.41-11.04-2.41-11.04l-2.33-7.16h0Z" fill="#9f5124" fill-rule="evenodd"/><path d="M76.12,20.23c-2.69-6.09-7.92-4.06-10.28-2.15-5.34,3.91-.98,12.77-1.09,13.74-1.79.93-11.52,7.76-10.58,18.82.71,6.31,4.63,13.3,10.92,15.58,6.24,2.94,12.67,3.18,18.29,1.62.26-.54.52-1.08.79-1.61-.3-.31-.57-.68-.52-1.34.37-4.96,6.98-6.62,11.37-4.69.25-.33.64-.54,1.09-.68,1.69-2.16,2.92-4.59,3.54-7.15.06-.25.11-.49.16-.75.36-1.91.39-3.88.03-5.88-1.47-5.44-5.15-9.2-9.86-11.47-.96,0-1.75-.6-2.57-1.08l4.59,1.26c2.7-2.78,9.12-13.16,1.65-18.41-4.18-2.97-12.25-3.07-17.51,4.17" fill="#eebc9a"/><path d="M76.12,20.23c-2.69-6.09-7.92-4.06-10.28-2.15-5.34,3.91-.98,12.77-1.09,13.74-1.79.93-11.52,7.76-10.58,18.82.62,5.46,3.65,11.44,8.53,14.43,18.99,5.06,18.89-7.85,17.03-8.11-2.02-.28-2.25-1.45-2.25-1.45l-4.56-3.38s3.14-.28,5.68-1.41c2.54-1.13,5.96-3.43,4.83-9.68-1.13-6.25-9.95-8.26-9.95-8.26h5.12s7.09-7.37,5.4-15.59c-.19-.9-.38-1.7-.59-2.4-2.59.83-5.17,2.55-7.29,5.46" fill="#fdd4b4"/><path d="M69.65,33.15c.58,1.24,2.12,1.75,3.45,1.13.45-.22,1.12-1.03,2.21.14.84.42,1.9.45,2.87,0,1.59-.75,2.34-2.51,1.67-3.94s-2.51-1.99-4.1-1.26c-.66.3-1.17.79-1.49,1.35-.68-.98-2.06-1.35-3.25-.79-1.33.62-1.94,2.13-1.36,3.37" fill="#e1ac92"/><path d="M69.55,27.35c.61,1.3,2.06,1.91,3.26,1.35,1.19-.56,1.67-2.06,1.06-3.36-.61-1.3-2.06-1.91-3.26-1.35-1.19.56-1.67,2.06-1.06,3.36" fill="#eebc9a"/><path d="M80.04,27.22c.44,1.45,2,2.26,3.49,1.81s2.32-1.99,1.88-3.45-2-2.26-3.49-1.81-2.32,1.99-1.88,3.45" fill="#eebc9a"/><path d="M77.68,6.66l-2.31-3.7s-.86,2.64-.26,5.43c-1.72-.7-6.39-.77-9.04-.04l3.68,1.93c-5.04,4.18-9.18,9.65-10.54,16.72-.22,2.79-.4,5.66.3,8.26,1.33-1.28,2.68-2.52,4.38-3.41l-1.48-5.24c-.57-3.28.05-10.68,9.06-11.32,2.19.34,4.28,1.7,4.91,3.68,2.58-3.68,7.63-6.24,12.16-5.67,3.61.45,7.07,2.33,8.55,5.74,2.22,5.4-1.04,11.78-4.1,16,1,.61,7.4,3.82,8.2,12.21.99-2.17,2.74-4.17,4.97-5.74.11-.8.19-1.62.24-2.5.37.51.78,1.07,1.22,1.57,2.56-1.46,5.61-2.42,8.81-2.57,1.63-2.81,1.73-6.27,1-8.16-.78-1.66-2.26-3-4.21-3.06-2.61.16-5.05,2.2-6.56,4.18l-.17-.03c1.97-20.29-13.52-21.92-15.12-22.54.87-1.06,2.06-1.11,2.95-1.83-1.76-.29-5.3-.21-8.29.47.71-1.09,1.4-2.22,2.28-3.14-2.75-.09-6.67,1.98-6.83,1.44l1.2-3.83c-1.61.9-3.35,2.73-5.04,5.11" fill="#8b804f"/><path d="M106.68,31.01c-2.16,3.5-.27,8.03-.27,8.03.37.51.77,1.07,1.22,1.58,2.56-1.47,5.61-2.42,8.81-2.57,1.63-2.81,1.73-6.27,1-8.16-.78-1.66-2.26-3-4.21-3.06-2.61.16-5.05,2.2-6.56,4.18" fill="#eebc9a"/><path d="M57.92,29.78c-1.39-.36-2.79-.78-4.11,0-1.73,1.06-2.52,3.19-2.21,5.14.49,1.7,1.68,3.17,3.54,3.47,1.2.5,1.66-.68,2.38-1.21-.9-.09-2.76-1.23-1.72-3.35.28-.48,1.09-.91,1.68-.63-.27-.79-1.9-2.55-3.94-.85.05-.98,2.23-2.38,4.47-.62l-.09-1.94h0Z" fill="#eebc9a"/><path d="M72.78,24.91c-.61-1.1-2.77-1.05-2.87,1.13.03,1.15.39,2.04,1.32,2.28,2.5-.09,2.12-2.61,1.55-3.41" fill="#221f1f"/><path d="M58.23,35.11c-.04-.74-.72-1.64-1.51-.96-.36.52-.73.94-.28,1.55.69.73,1.15.84,1.83.77.57-.41-.12-.9-.03-1.36" fill="#ad6f66"/><path d="M83.27,24.09c-1.72-.5-2.77,1.6-2.5,2.94.31.94.7,2.81,3.14,1.01.77-1.68.49-2.79-.65-3.95" fill="#221f1f"/><path d="M113.45,30.64c-.91-.43-2.13-.32-2.98-.08-1.5,1-3.15,2.58-3.15,4.77,0,.76.46,1.76,1.33,1.97.74.17,1.6.17,2.23-.43.86-.85.51-2.16-.17-2.97-.61-.32-1.55-.49-2.09-.25.38-1.24,1.52-1.73,2.35-2.56.75-.25,1.62-.1,2.35.37.71,1.09,1,2.57.45,3.79.39-.14.51-.54.64-.9.47-1.39-.07-2.75-.96-3.7" fill="#221f1f"/><path d="M109.8,34.32c-.61-.12-1.2.15-1.47.53-.08.7.07,1.9,1.1,1.82.43-.05.97-.3,1.07-.85.12-.51-.24-1.26-.7-1.49" fill="#ad6f66"/><path d="M71.44,26c.16.34.5.52.77.39.27-.13.35-.5.2-.85s-.5-.52-.77-.39c-.27.13-.35.5-.2.85" fill="#fff"/><path d="M82.37,25.96c.2.32.56.46.82.3s.31-.54.12-.86-.56-.46-.82-.3-.31.54-.12.86" fill="#fff"/><path d="M77.68,6.66l-2.31-3.7s-.86,2.64-.26,5.43c-1.72-.7-6.39-.77-9.04-.04l3.68,1.93c-5.04,4.18-9.18,9.65-10.54,16.72-.22,2.79-.4,5.66.3,8.26,1.33-1.28,2.68-2.52,4.38-3.41l-1.48-5.24c-.57-3.28.05-10.68,9.06-11.32,2.19.34,4.28,1.7,4.91,3.68,1.41-2,3.54-3.68,5.93-4.69-2.22-4.45-4.73-6.79-4.73-6.79,0,0,1.06.7,1.86-.39s1.16-1.85,1.16-1.85c0,0-.29,2.62,1.61,1.62,1.91-1,3.28-1.4,3.28-1.4l-1.51,2.13h5.11s2.1-.49,4.68-.65c.2-.11.39-.23.57-.36-1.76-.29-5.3-.21-8.29.47.71-1.09,1.4-2.22,2.28-3.14-2.75-.09-6.67,1.98-6.83,1.44l1.2-3.83c-1.61.9-3.35,2.73-5.04,5.11" fill="#a7955e"/><path d="M78.36,31.35c-.31-.46-.96-.86-1.51-.41-.38.59-.63,1.36-.42,2.02.31.46.9.75,1.42.45.65-.45.72-1.4.51-2.06" fill="#221f1f"/><path d="M77.81,31.45c-.14-.29-.49-.18-.72-.02-.55.45-.13,1.02.1,1.52l.56-.11c.36-.42.28-.93.06-1.4" fill="#ad6f66"/><path d="M72.44,31.68c-.26-.54-.84-.27-1.23-.03-.59.48-.42,1.26-.18,1.91.25.19.69.49,1.02.13.43-.61.53-1.46.38-2" fill="#221f1f"/><path d="M71.89,31.79c-.62.19-.93.94-.32,1.37l.29-.14c.16-.43.43-.81.03-1.23" fill="#ad6f66"/><path d="M70.36,31.09c.14.29.6.37,1.03.18.43-.2.67-.6.53-.9-.14-.29-.6-.37-1.03-.18-.43.2-.67.6-.53.9" fill="#fff"/><path d="M106.87,30.78c1.37-1.2,3.03-2.14,4.77-2.24,1.95.05,3.43,1.39,4.21,3.06.59,1.53.64,4.1-.24,6.51.28-.03.57-.05.85-.06,1.63-2.81,1.73-6.27,1-8.16-.78-1.66-2.26-3-4.21-3.06-2.51.15-4.85,2.04-6.38,3.94" fill="#fdd4b4"/><path d="M57.92,29.78c-1.39-.36-2.79-.78-4.11,0-1.73,1.06-2.52,3.19-2.21,5.14.49,1.7,1.68,3.17,3.54,3.47.28.12.51.15.73.11-.98-.65-1.64-1.7-1.98-2.86-.21-1.38.12-2.84.94-3.96-.4.09-.84.29-1.29.67.03-.6.86-1.37,2.01-1.45.17-.15.35-.28.55-.39.6-.34,1.21-.45,1.83-.43v-.28h-.02Z" fill="#fdd4b4"/><path d="M76.39,61.73c9.81,1.35,16.52-8.19,15.06-18.39-7.34,7.61-18.33,9.37-24.67,7.06,1.1,1.61,5.55,2.15,7.05,2.55.62,1.27.97,2.08,2.07,2.93,2.86.65,4.98-.42,7.23-.65-.16,5.65-3.77,5.56-6.73,6.5" fill="#221f1f"/><path d="M84.03,54.44c.16,1.21-.58,3.48-.74,4.92.91-.43,1.96-1.06,2.96-1.99-.33-1.23-.45-2.55-.31-4.09-.7.55-1.37.96-1.91,1.16" fill="#a91f23"/><path d="M86.82,52.53c-.07.33-.12.68-.15,1.04-.1,1.1-.02,2.17.2,3.17,1.71-1.85,3.2-4.66,3.67-8.96-.65,1.52-2.18,3.37-3.72,4.76" fill="#cc2127"/><path d="M75.18,52.32c-.02,2.28,1.38,2.8,3.41,2.65,7.76-.56,12.45-8.21,11.82-9.67-3.67,4.35-8.8,6.59-15.23,7.02" fill="#fff"/><path d="M75.18,52.32c0,.84.18,1.43.51,1.86-.02-.18-.03-.36-.03-.57,5.66-.36,10.33-2.15,13.87-5.55.77-1.25,1.08-2.3.88-2.75-3.67,4.35-8.8,6.59-15.23,7.02" fill="#c4dfe6"/><path d="M74.42,29.64c-1.08-.91-2.53-.75-3.74-.43-3.53,2.3-.89,4.53-.62,4.65,0,0-1.56-3.23,1.28-3.99.95-.14,1.94-.2,2.78.42l.02,1.66c.82-3.25,3.88-2.98,4.82-2.25,1.08,1.22,1.03,2.86.42,4.06.3.11,1.84-1.55.56-4.01-.45-.76-1.2-1.37-2.14-1.43-1.19.05-2.56.59-3.38,1.33" fill="#221f1f"/><path d="M103.12,114.76h-1.9c-.17-1.06-.7-1.78-.69-3.02,2.34-.43,2.21,1.53,2.58,3.02" fill="#8b8b98"/><path d="M105.88,114.76h-2.06c-.33-.95-.51-2.06-.86-3.02,2.74-.71,2.43,1.54,2.93,3.02" fill="#8b8b98"/><path d="M97.6,114.43c-1.12-.36-1.21-1.73-1.55-2.85,1.55-.06,1.18,1.75,1.55,2.85" fill="#8b8b98"/><path d="M107.08,108.57c.06.94.22,1.8.34,2.67h-1.72c-.21-.96-.39-1.97-.52-3.02.67.08,1.37.13,1.9.33" fill="#8b8b98"/><path d="M96.22,108.07c.16.9.26,1.88.34,2.85-1.5-.05-1.24-1.81-1.72-2.85.56-.28.66.04,1.38,0" fill="#8b8b98"/><path d="M99.5,111.09h-1.9c-.35-.88-.44-2.02-.69-3.02,2.17-.92,2.39,1.08,2.58,3.02" fill="#8b8b98"/><path d="M101.4,108.07c.32.91.45,2.01.69,3.02-.7-.12-.98.16-1.55.17-.54-.76-.65-1.94-.69-3.18.59-.3.83.02,1.55,0" fill="#8b8b98"/><path d="M104.32,108.07c.29.94.38,2.08.69,3.02-.76.19-.98.04-2.06,0-.15-.88-1.12-2.49-.34-3.18.24.38,1.2.06,1.72.17" fill="#8b8b98"/><path d="M106.91,104.9c.21,1.24-.04,1.54.18,2.85-.88.13-1.25-.24-2.06-.17-.02-1.04-.28-1.85-.18-3.02.82.07,1.18.08,2.06.33" fill="#8b8b98"/><path d="M104.15,104.73c-.1,1.19.33,1.82,0,2.85-.74,0-1.21-.28-2.06-.17-.18-.94-.23-2.01-.34-3.02.97-.05,1.74.09,2.41.33" fill="#8b8b98"/><path d="M95.87,104.39c.14,1.2.1,1.38.18,2.84-.5-.02-1.13.09-1.38-.17.09-1.03-.3-1.6-.17-2.68.7-.14.59-.03,1.38,0" fill="#8b8b98"/><path d="M98.64,104.55c.06.83.22,1.42.18,2.67h-1.9c-.17-.49-.2-1.86-.17-3.02.76,0,1.35.15,1.9.33" fill="#8b8b98"/><path d="M101.22,104.55v2.85h-1.38c-.19-.8-.88-2.59-.18-3.18.05.24,1.12.02,1.55.33" fill="#8b8b98"/><path d="M133.27,104.05c.12,2.66,4.45,4.39,2.06,6.86-3.43-.46-4.07-3.64-4.48-7.03.73.16,1.24.16,2.41.17" fill="#8b8b98"/><path d="M155.32,102.22c.36,2.27,1.95,3.36,2.24,5.69-2.99,3.14-5.04-2.44-4.14-5.69h1.9Z" fill="#8b8b98"/><path d="M93.47,102.55c-.61,4.97,1.45,9.42,3.11,13.22-5.72,1.51-13.15-.13-17.75-2.17,2.63-3.74,5.92-6.86,7.41-11.71,2.01.59,4.39.58,7.24.67" fill="#5c2a78"/><path d="M106.91,104.22c-.63-.12-1.26-.24-2.06-.17-.27-.57-.4-1.28-.34-2.17h2.41v2.34Z" fill="#8b8b98"/><path d="M114.14,102.38c.12,6.2.21,11.9.34,19.42-1.11.31-2.52.34-3.79.5-1.89-6.16-3.25-13.24-2.93-20.42,2.38-.08,4.48.11,6.38.5" fill="#636270"/><path d="M103.8,101.88c-.12.84.16,1.3.18,2-.8,0-1.68.08-2.24-.17-.1-.88.13-1.43.18-2.17.57.18,1.42.08,1.9.33" fill="#8b8b98"/><path d="M95.87,103.72c-.59.07-.96-.07-1.38-.17,0-.79.3-1.27.34-2,.4-.05.65-.27,1.21-.17-.17.67-.22,1.46-.18,2.34" fill="#8b8b98"/><path d="M98.64,101.55c-.05.74-.28,1.3-.18,2.17-.59-.05-1.4.13-1.72-.17.06-.67-.16-1.6.17-2,.31-.26,1.41-.26,1.72,0" fill="#8b8b98"/><path d="M101.05,103.72h-1.72v-2.34c1.99-.38,2.06.82,1.72,2.34" fill="#8b8b98"/><path d="M135.51,102.72c-2.13.72-4.92.1-7.93,0-.47-1.66-.88-3.38-1.38-5.02.4-.33,1.1-.38,1.9-.33,0,1.35,0,2.66.86,3.18,1.6-.81,3.66.78,4.66-.67.02-1.12-.05-2.15.17-2.67,2.85-1.15,2.17,3.98,1.72,5.52" fill="#d1d2d3"/><path d="M157.91,95.36c.46,1.67.26,3.26.18,5.52-2.55.5-4.08.53-7.07.33-.58-1.78-.99-3.72-1.72-5.36.49-.18,1.35-.58,1.72-.33-.1,1.66.16,2.97,1.21,3.52.4-.25,5.73,2.13,3.96-4.02.73-.04,1.22.16,1.72.33" fill="#d1d2d3"/><path d="M132.75,99.38c-1.45.22-1.96-.09-3.62.17.02-2.36-.67-5.04-1.38-7.19,1.46.03,2.57-.29,4.14-.17.76,1.9,1.16,4.81.86,7.19" fill="#8b8b98"/><path d="M96.92,98.36c.33.4.11,1.35.18,2-.82-.23-1.6.12-2.76,0-.53.16-.42.92-.86,1.17-8.99-.1-17.13-2.44-20.51-8.54.27-.69.81-1.12,1.38-1.5,4.9,5.14,13.14,8.81,22.57,6.86" fill="#fff"/><path d="M153.95,90.5c.92,1.79,1.08,4.31,1.55,6.52-.28,1.4-1.58,1.95-3.45.84-.04-2.05-.73-4.85-1.03-7.19,1.13.09,1.97-.1,2.93-.17" fill="#8b8b98"/><path d="M157.74,90.34c1.18,2.56,2.33,6.1,2.93,9.37,1.13,6.13.85,14.97-1.55,20.59-.28.66-1.77,4.15-2.24,5.02-3.05,5.64-11.33,7.79-19.12,8.53-7.54.72-16.53-.08-22.57-2.17-1.19-.41-2.62-.97-3.11-1.67,2.2.56,3.57-.53,4.66-1.5,6.16-5.53,6.77-22.4,4.65-35.81,1.98,0,3.08-.23,5.35-.17.37,1.26,1.01,2.25,1.21,3.68-1.08.47-2.1.17-2.76.84.89,1.74.8,4.93,2.06,6.69,1.17-.03,1.99.02,2.58.17.41,3.45,1.95,8.38,5.17,8.21,1.42-.08,2.55-1.81,2.24-3.18-.37-1.72-3.02-2.82-2.93-4.85.9-.18,2.03-.15,2.41-.84-.07-3.09.51-4.99-.69-7.03-.86-.1-2.03.16-2.41,0-.12-1.55-.64-2.73-.86-4.19,6.35-.47,10.92-.94,17.24-1.17,0,1.41.9,1.91.69,3.52-.82.27-1.88.29-2.41.84.74,2.35,1.21,4.96,2.41,6.86.59.28,1.07-.19,1.72.17-.34,3.77.74,8.01,3.96,7.69.98-.1,2.09-.98,2.24-2,.35-2.56-2.45-2.72-2.07-5.69.79-.19,1.79-.16,2.42-.5-.12-2.74.46-4.91-.18-7.19-1.03.28-2-.6-2.93-.17-.27-1.31-.6-2.55-.86-3.85.62-.34,1.87-.09,2.76-.17" fill="#dc7e26"/><path d="M66.41,97.86c.81-.38.83-1.53,1.03-2.51,2.64,1.51,3.94,5.2,4.65,8.03,1.32-.56,1.48-2.24,1.9-3.68,1.77-.64,4.49-.18,6.2,1,1.36.93,3.33,3.32,3.27,4.52-.05,1.01-5.4,7.47-7.07,9.21,0,1.11,1.03,2.12.52,3.18-.78-.42-1.28-1.11-2.24-1.34-.7.94-.55,2.69-1.55,3.34-1.22-.43-1.03-2.24-1.9-3.02-1.98.64-3.21,2.01-5.69,2.17.06-.83.56-1.58.34-2.17-.25-.04-.29-.28-.52-.33-4.02.57-8.83,1.17-13.1-.17.17-1.45,2.31-.99,2.24-2.67-4.33-.71-10.77-1.22-14.31-3.68.28-1.24,2.59-1.37,2.93-1.67-3.99-1.26-8.57-1.95-10.34-5.36.4-.39,1.23-.37,1.55-.84-.49-.73.17-1.56,0-2.51-.87-.32-1.93-.47-2.42-1.17.67-1.25,3.89-.13,4.3-1.17-.04-.85-1.07-.75-1.38-1.34,1.69-.16,2.2.24,3.45-.17-.44-.9-1.56-1.16-1.38-2.68,1.17-.84,3.55-.47,4.48-.5,0-.07-2.42-1.65-2.06-2.67,1.73-.08,3.83.97,5.51.84-.19.1-1.32-1.06-1.21-2.34,1.4-.73,8.68,1.28,12.07,2.68-.09-1.09-.52-1.84-.69-2.85,5.28,1.85,8.66,5.53,11.37,9.88" fill="#a7955e"/><path d="M36.94,91.67c-1.23.57-1.2,2.29-.18,3.02-.66.22-1.89-.14-2.76.5-.57.48,1.04,1.24.18,1.5-1.12-.19-2.94.38-3.27,1.5.42.87,1.24,1.37,2.24,1.67-3.19,1.17-.58,1.81,0,1.5-5.19,3.33-17.02,1.32-16.55-6.36.89.28,1.55,1.57,2.58,1.17-1.09-1.79-3.71-2.08-3.27-5.36,1.16-.1,1.77,1.72,3.27,1.84-1.4-1.78-4.32-3.81-2.93-7.19,4.81,2.08,9.34,5.33,14.47,6.52-1.43-2.35-5.43-8.5-1.03-10.88.95,4.93,7.27,4.65,7.24,10.54" fill="#fdd4b4"/><path d="M123.58,91.68c-.52,0-1.34,0-1.85,0-2.25-12.41-6.46-15.37-11.72-21.09-.18,0-.14-.22.18-.17,7.21,4.32,11.54,11.75,13.39,21.26" fill="#41b6e9"/><path d="M106.91,69.58c3.09,1.17,13.29,10.95,13.79,21.25.05,1.01,4.79,28.63-4.66,37.15-3.88,3.51-8.07-.22-9.99-2.84-.36-.5-.9-1.11-.69-1.5,3.76-.2,6.89-.19,10.17-1-.32-3.96-.32-19.08-.86-21.25-4.71-.68-10-.05-14.47-.84-.65-7.73.96-17.56,1.72-25.27.21-2.06.25-4.4,1.38-6.02,1.21.26,2.49.18,3.62.33" fill="#f9a63f"/><path d="M146.02,69.08c6.74,3.47,13.48,12.95,14.82,19.58-4.74,1.31-29.91,2.45-36.7,3.02-1.78-9.66-6.14-16.79-12.92-21.59,7.16.1,13.91-.45,20.33-.5-.32,4.41,1.92,7.57,4.14,10.04,2.65-1.89,6.8-2.32,7.93-5.69-2.28-1.02-4.99-1.62-5.51-4.35,1.2-.37,7.01-.97,7.93-.5" fill="#18a1db"/><path d="M142.4,74.44c-1.76,1.75-4.15,2.89-6.72,3.85-2.79-2.24-3.81-6.55-3.27-11.55,1.84-.16,2.5-.05,4.48-.17-.28,4.69,2.59,6.3,5.51,7.86" fill="#636270"/><path d="M79.68,94.69c-1.52-.94-4.9-2.73-5-4.19-.03-.45.91-1.92,1.38-2.84,3.44-6.83,5.95-14.15,8.96-20.75,1.58-1.37,3.45-2.45,5.86-3.01,3.63,1.45,9.98,6.52,10.34,10.38-1.86,15.33-1.56,26.41-2.24,26.28-1.03-.21-.88-1-1.03-2.51-.86-8.76.18-15.59-1.38-22.26.02,7.36-.21,14.93.34,21.59-5.79,2.35-13.3-.26-17.24-2.68" fill="#702f8f"/><path d="M102.08,69.25c-.5.63-.1,2.14-.86,2.51-2.68-4-7.97-10.4-14.13-8.7.07.49,1.01.13,1.21.5-1.51.31-2.83,1.72-3.79,2-.14-1.6.89-2.73,1.9-3.68,3.02-2.87,8.44-.8,11.71.17-.11-1.01-1.45-.83-1.9-1.5,1.04-.1,1.65-.63,2.93-.5.16,3.62,1.28,6.62,2.93,9.21" fill="#41b6e9"/><path d="M139.31,59.37c.47,1.76.37,4.65.34,6.36-2.43-.24-6.02.63-9.65-.17v-6.36c3.71.15,5.45.31,9.31.17" fill="#d1d2d3"/><path d="M109.15,41.63c4.37-.88,5.46,7.01,5.17,10.71-.21,2.66-1.16,7-2.24,9.71-.59,1.46-3.45,6.23-4.66,6.69-1.69.66-2.65-.48-4.82-.17-5.53-8.4-1.49-25.32,6.54-26.94" fill="#f9a63f"/><path d="M131.89,40.63c3.21,4.23,5.06,10.53,4.48,17.9-1.87.17-2.82.37-4.3-.33.87-4.59-1.57-11.28-3.96-14.9-.62-.93-1.6-1.71-1.38-2.34,2.3-.42,3.14-.16,5.17-.33" fill="#636270"/><path d="M125.69,41.3c2.56,1.9,4.99,8.11,5.69,12.38.26,1.55-.04,3.01,0,4.69-.97-.08-1.61-.54-2.24-.17.28,2.83-.23,5.7.18,8.37h2.24v2.34c-7.07.09-15.45.86-23.09.33,3.51-4.09,6.99-12.54,6.54-20.25-.23-3.92-1.76-7.36-5.17-8.21,4.52-2.48,12.22-2.18,15.85.5" fill="#f9a63f"/><path d="M136.96,38.82c4.63-.71,8.83,2.12,10.85,4.68,5.65,7.15,1.33,20.3-1.27,24.9-2.61.31-5.73.13-8.62.33.12-.85-.29-1.17-.18-2,.84-.08,2.01.18,2.58-.17.23-3.19.49-5.87-.69-8.2-1.08-.19-1.33.08-2.41.17.45-6.61-1.43-13.44-4.3-17.9,1.6-.69,2.33-1.54,4.03-1.81" fill="#f9a63f"/><path d="M96.92,98.36c-2.8.58-5.49.67-8.03.36l-.04.27s-9.88.36-15.83-6.11l-.06.13c3.38,6.1,11.52,8.44,20.51,8.54.44-.25.33-1.01.86-1.17,1.16.12,1.95-.23,2.76,0-.07-.66.16-1.6-.18-2" fill="#c4dfe6"/><path d="M39.39,97.3s-3.1,1.13-2.82,2.25c.28,1.13,15.31,6.81,15.31,6.81l-2.25.28c-2.25.28-4.83,1.18-1.13,2.58,3.71,1.41,14.18,1.41,14.18,1.41,0,0-1.41,1.41-1.13,3.14.28,1.74,6.52-.85,6.52-.85,0,0-.85,1.41.28,2.82,1.13,1.41,3.14-2.25,3.14-2.25l1.69,2.54.85-3.71s3.14-2.25,3.14-9.62c0-1.3-.17-2.36-.44-3.23,1.24.15,2.5.58,3.45,1.24,1.36.93,3.33,3.32,3.27,4.52-.05,1.01-5.4,7.47-7.07,9.21,0,1.11,1.03,2.12.52,3.18-.78-.42-1.27-1.11-2.24-1.34-.7.94-.55,2.69-1.55,3.35-1.22-.43-1.03-2.24-1.9-3.02-1.98.64-3.21,2.01-5.69,2.17.06-.83.56-1.58.34-2.17-.25-.04-.29-.28-.52-.33-4.02.57-8.83,1.17-13.1-.17.17-1.45,2.31-.99,2.24-2.67-4.33-.71-10.77-1.22-14.31-3.68.28-1.24,2.59-1.37,2.93-1.67-3.99-1.26-8.57-1.95-10.34-5.36.4-.39,1.23-.37,1.55-.84-.49-.73-2.72-.66,0-2.51-.87-.32-1.93-.47-2.42-1.17.67-1.25,3.79-.52,4.3-1.17-.05.1-1.07-.75-1.38-1.34.54-.05.95-.05,1.32-.03l3.19,1.64.03-.03Z" fill="#8b804f"/><path d="M36.94,91.67c.02-3.59-2.31-4.88-4.35-6.47.53,1.38,1.42,4.64-.29,8.1-2.25,4.56-11.04-.61-13.62-3.71-.77-.92-1.13-2.22-1.26-3.6-.38-.18-.77-.35-1.15-.52-1.4,3.38,1.53,5.41,2.93,7.19-1.5-.12-2.11-1.94-3.27-1.84-.44,3.27,2.18,3.57,3.27,5.36-1.03.4-1.69-.89-2.58-1.17-.48,7.68,11.35,9.7,16.55,6.36,0,0-2.26-.53,0-1.5-1-.31-1.82-.81-2.24-1.67.33-1.12,2.15-1.7,3.27-1.5.86-.27-.74-1.02-.18-1.5.86-.64,2.1-.29,2.76-.5-.49-.34-.75-.9-.76-1.47-.14-.27-.13-.5.12-.67.14-.36.41-.69.82-.87" fill="#eebc9a"/><path d="M88.98,98.07c2.68.4,5.46.3,7.94-.71-.55-6.66-.32-14.23-.34-21.59,1.55,6.66.52,13.5,1.38,22.26.15,1.5,0,2.3,1.03,2.51.68.14.38-10.95,2.24-26.28-.35-3.85-6.71-8.92-10.34-10.38-1.92.45-3.5,1.23-4.85,2.21,1.77-.3,3.76.27,4.51,3.9,1.28,6.22-.98,23.82-1.56,28.05" fill="#5c2a78"/><path d="M142.11,73.32c.5.21,1.01.4,1.5.62-.2.61-.5,1.11-.86,1.55l1.84,1.31-7.71,3.85c-1.46.73-2.55.55-2.55.55,0,0-1.64-1.66-2.19-3.12-.55-1.46-1.12-3.84-1.12-3.84l-14.56.55c2.66,3.04,4.72,6.66,6.15,10.89l36.23-2.55c-1.83-3.64-4.59-7.41-7.67-10.3l-9.03.5h0Z" fill="#41b6e9"/><path d="M125.69,41.3c-.65-.48-1.43-.88-2.3-1.21,1.36,1.8,3.47,5.05,3.96,8.47.73,5.14-4.93,5.68-6.96,5.87-.92.08-3.29-.18-5.59-.48-.83,6.14-3.58,12.08-6.34,15.3,7.64.53,16.03-.26,23.09-.33v-2.34h-2.24c-.39-2.66.1-5.54-.18-8.37.63-.37,1.27.09,2.24.17-.04-1.67.26-3.13,0-4.69-.7-4.27-3.12-10.48-5.69-12.38" fill="#dc7e26"/><path d="M134.81,39.59c-.6.35-1.2.75-1.88,1.04,2.87,4.46,4.76,11.29,4.3,17.9,1.09-.09,1.33-.35,2.41-.17,1.18,2.33.91,5,.69,8.2-.57.34-1.75.09-2.58.17-.12.85.29,1.17.18,2,2.88-.21,5.99-.02,8.62-.33,2.6-4.63,6.96-17.87,1.18-25.01,1.9,12.11-9.01,9.92-9.01,9.92,0,0-.73-5.14-1.46-8.24-.43-1.85-1.58-4.03-2.45-5.49" fill="#dc7e26"/><path d="M157.74,90.34c-.89.08-2.14-.18-2.76.17.27,1.31.6,2.55.86,3.85.5-.23,1-.09,1.53.06-.13-.57-.27-1.13-.38-1.71.38-.22,1.02-.2,1.65-.17-.29-.79-.6-1.52-.9-2.19" fill="#bf6828"/><path d="M127.55,94.72c-.27-.75-.6-1.42-.83-2.2-2.26-.06-3.36.18-5.35.17.12.75.23,1.5.32,2.27,2.36-.11,4.5-.2,5.85-.24" fill="#bf6828"/><path d="M130.17,105.91c-.16-.7-.27-1.39-.34-2.02-.38-.1-.87-.15-1.49-.17.21.82.48,1.59.92,2.19h.92" fill="#bf6828"/><path d="M136.74,98.39c.15,1.36-.07,2.85-.03,4.82-.37.7-1.5.66-2.41.84-.09,2.03,2.55,3.13,2.93,4.85.3,1.37-.82,3.1-2.24,3.18-.55.03-1.06-.09-1.51-.32.83,1.52,1.98,2.6,3.53,2.52,1.42-.08,2.55-1.81,2.24-3.18-.37-1.72-3.02-2.82-2.93-4.85.9-.19,2.03-.15,2.41-.84-.07-3.09.51-4.99-.69-7.03-.4-.05-.86-.02-1.29,0" fill="#bf6828"/><path d="M150.61,93.09c-.21-.76-.63-1.29-.62-2.25-6.31.23-10.88.7-17.24,1.17.23,1.45.74,2.63.86,4.19.27.11.92,0,1.6-.02-.17-.64-.34-1.28-.45-1.98,5.88-.44,10.23-.87,15.84-1.12" fill="#bf6828"/><path d="M152.34,103.64c0-.47.02-.95.06-1.42-.27-.15-.5-.15-.73-.13.2.54.41,1.06.67,1.55" fill="#bf6828"/><path d="M159.07,96.52c.06,1.61-.21,3.26-.12,5.2-.62.34-1.63.31-2.42.5-.38,2.97,2.43,3.12,2.07,5.69-.15,1.02-1.26,1.92-2.24,2-.49.05-.93,0-1.33-.16.63,1.51,1.71,2.51,3.33,2.35.98-.1,2.09-.98,2.24-2,.35-2.56-2.45-2.72-2.06-5.69.79-.19,1.79-.16,2.41-.5-.03-.77,0-1.49.02-2.18-.09-.7-.19-1.38-.3-2.01-.18-.97-.4-1.98-.67-2.97-.31-.05-.63-.15-.93-.23" fill="#bf6828"/><path d="M114.78,102.13c.42,3.75.44,16.85.75,20.5-3.27.82-6.4.82-10.17,1-.22.4.32,1,.69,1.5.2.27.42.55.67.84,4.58-.41,9.88-1.01,11.94-1.52-.32-3.96-.32-19.08-.86-21.25-.23-.25-1.14-.62-3.01-1.07" fill="#dc7e26"/><path d="M142.4,74.44l-.33-.18c-1.6,1.24-3.57,2.14-5.65,2.92-2.59-2.08-3.66-5.95-3.37-10.48l-.64.05c-.54,4.99.48,9.31,3.27,11.55,2.57-.96,4.96-2.1,6.72-3.85" fill="#8b8b98"/><path d="M131.89,40.63c-1.75.15-2.61-.02-4.3.2,3.18,3.98,4.34,8.27,4.34,8.27l3.69-.42c-.79-3.14-2.07-5.87-3.73-8.05" fill="#8b8b98"/><path d="M139.31,59.37h-.36c.26,1.74.18,4.01.16,5.44-2.31-.22-5.66.54-9.1-.06v.81c3.63.8,7.22-.06,9.65.17.03-1.71.13-4.61-.34-6.36" fill="#a7a8ab"/><path d="M139.31,59.37c-3.84.15-5.59-.02-9.31-.17v6.36c.36.08.73.15,1.1.2v-5.62c3.41.14,8.28-.47,8.21-.77" fill="#fff"/><path d="M128.23,99.61c-.65-.39-.82-1.27-.85-2.26.23,0,.47,0,.73,0,0,.81,0,1.6.19,2.22l-.06.03ZM127.58,102.72l-.26-.91c2.82.14,5.42.66,7.45-.02.28-.96.65-3.31.2-4.67,1.43.62.9,4.33.53,5.6-2.13.72-4.92.1-7.93,0" fill="#a7a8ab"/><path d="M150.27,95.51c.29-.08.57-.1.75,0-.06.96,0,1.82.28,2.47-.7-.48-.98-1.36-1.02-2.48M158.09,100.88c-2.55.5-4.08.53-7.07.33-.1-.29-.19-.6-.28-.9,2.7.16,4.19.11,6.61-.36.07-1.93.24-3.37,0-4.79.2.06.38.13.57.2.46,1.67.26,3.26.18,5.52" fill="#a7a8ab"/><path d="M135.62,108.1c.54.89.71,1.79-.28,2.81-1.76-.24-2.78-1.19-3.42-2.53l3.69-.29h0ZM133.79,105.62l-2.66.16c-.11-.61-.2-1.24-.28-1.89.73.16,1.24.16,2.42.17.03.55.24,1.07.52,1.55" fill="#636270"/><path d="M157.17,106.41c.19.45.32.93.4,1.49-1.75,1.84-3.17.7-3.87-1.22l3.48-.28h0ZM156.06,104.29l-2.82.17c-.05-.78,0-1.56.2-2.24h1.9c.13.81.41,1.45.73,2.07" fill="#636270"/><path d="M128.2,93.77c-.15-.49-.29-.97-.44-1.43,1.46.03,2.57-.29,4.14-.17.16.4.3.85.42,1.32l-4.12.28ZM129.14,99.54c0-.84-.07-1.72-.22-2.6l3.9-.23c.06.9.04,1.82-.07,2.65-1.45.22-1.96-.09-3.62.17" fill="#636270"/><path d="M155.21,95.43c.09.54.19,1.07.29,1.59-.28,1.4-1.59,1.95-3.45.84,0-.68-.1-1.43-.22-2.24l3.36-.19h0ZM154.52,91.98l-3.26.23c-.09-.52-.17-1.04-.24-1.53,1.13.09,1.97-.1,2.93-.17.24.45.41.94.57,1.47" fill="#636270"/><path d="M139.48,72.64c-.73-.57-1.36-1.23-1.82-2.06l-5.16,1.66c.25,1.44.69,2.75,1.33,3.86l5.64-3.46h0Z" fill="#8b8b98"/><path d="M129.16,101.32c0-.37-.3-.67-.67-.67s-.67.3-.67.67.3.67.67.67.67-.3.67-.67" fill="#fff"/><path d="M152.42,100.12c0-.41-.33-.74-.74-.74s-.74.33-.74.74.33.74.74.74.74-.33.74-.74" fill="#fff"/><path d="M132.93,60.75c0-.64-.51-1.15-1.15-1.15s-1.15.51-1.15,1.15.51,1.15,1.15,1.15,1.15-.51,1.15-1.15" fill="#fff"/><path d="M102,69.12c-1.61-2.55-2.69-5.51-2.85-9.07-1.29-.13-1.89.39-2.93.5.44.69,1.79.5,1.9,1.5-2.68-.8-6.8-2.33-9.87-1.28,3.19.03,7.7,1.93,13.75,8.34" fill="#18a1db"/><path d="M99.13,56.6s-.48,1.27-.79,1.62c-.3.36-1.04,1.2-1.04,1.2l1.71-.42.12-2.41h0Z" fill="#8b804f" fill-rule="evenodd"/><path d="M106.05,126.9c1.33,3.99,3.2,7.89,5.74,11.14.63.8,3.62,4.03,4.39,4.73,5.19,4.67,15.14,8.27,22.28,5.06,2.19-.98,4.91-2.93,6.25-4.56,4.8-5.85,4.37-17.11,8.94-23.29,6.33-8.55,23.31-5.38,33.75-9.79,3.51-1.47,7.06-3.93,8.94-6.92,5.2-8.22,1.64-20.58-4.73-25.49-1.69-1.31-5.82-3.29-8.78-3.37-5.83-.17-14.09,4.26-16.37,8.78-2.68,5.31.92,12.43,6.92,10.63,3.51-1.05,5.92-6.58,10.47-6.24,5.88.43,4.57,9.3,1.52,11.64-3.81,2.94-11.62,4-17.73,4.73-10.83,1.28-17.54,5.29-22.28,11.64-4.41,5.93-5.33,15.54-10.47,20.09-3.73,3.3-9.76,2.5-14.18-.33-.84-.54-1.62-1.25-2.37-2.04-3.22-.79-6.34-1.95-8.57-3.65-1.6-1.22-2.99-2.6-4.17-4.01l.41,1.26h0Z" fill="#221f1f"/><path d="M172.38,104.28c-15.71.9-23.06,7.29-26.67,12.66-4.07,6.05-5.26,17.15-11.64,20.93-5.98,3.55-14.04-1.22-17.22-4.89-2.73-.87-5.19-1.91-7.05-3.32-1.17-.89-2.23-1.87-3.17-2.88,1.32,3.27,3.35,6.81,3.81,7.56,3.58,5.83,6.79,9.27,13.17,11.81,2.77,1.11,6.44,2.27,10.13,1.86,3.79-.42,8.5-3.29,10.47-5.91,4.86-6.48,3.78-19.62,10.63-25.15,5.07-4.09,11.98-4.11,19.57-5.06,8.45-1.06,17.56-3.27,21.26-9.79,4.33-7.63,1.4-19.44-4.73-23.8-10.11-7.2-21.41.9-23.63,5.57-2.18,4.58.28,10.47,5.57,8.94,3.06-.88,5.1-4.7,8.1-5.74,7.48-2.59,10.48,8.26,5.4,12.66-2.87,2.49-8.71,4.25-14.01,4.56" fill="#a7955e"/><path d="M166.99,89.93c.87,2.26,2.95,3.73,5.91,2.88,3.06-.87,5.1-4.7,8.1-5.74,1.86-.64,3.43-.46,4.68.25-1.2-2.54-3.68-4.17-7.11-2.99-3,1.04-5.05,4.86-8.1,5.74-1.35.39-2.52.29-3.47-.14" fill="#8b804f"/><path d="M113.24,138.44c2.67,3.45,5.66,5.82,10.37,7.7,2.77,1.11,6.43,2.27,10.13,1.86,3.79-.42,8.5-3.29,10.47-5.91,4.86-6.48,3.78-19.62,10.63-25.15,5.07-4.09,11.98-4.11,19.57-5.06,8.45-1.06,17.56-3.27,21.26-9.79,4.15-7.29,1.64-18.42-3.95-23.19,3.79,5.49,5,14.33,1.52,20.46-3.71,6.51-12.82,8.73-21.26,9.79-7.61.95-14.5.97-19.57,5.06-6.85,5.52-5.77,18.67-10.63,25.15-1.97,2.61-6.67,5.48-10.47,5.91-3.69.41-7.35-.75-10.13-1.86-3.35-1.34-5.82-2.92-7.93-4.96" fill="#8b804f"/><rect x="1.84" y="0" width="179.22" height="163.38" transform="translate(182.9 163.4) rotate(180)" fill="none"/></g></g></g></svg>