<?xml version="1.0" encoding="UTF-8"?><svg id="a" xmlns="http://www.w3.org/2000/svg" width="1249.39" height="728.69" xmlns:xlink="http://www.w3.org/1999/xlink" viewBox="0 0 1249.39 728.69"><defs><clipPath id="b"><rect x="17.75" y="43.59" width="1199" height="629.51" fill="none"/></clipPath><clipPath id="c"><rect x="54.25" y="81" width="239.25" height="41.17" fill="none"/></clipPath><clipPath id="d"><rect x="256.75" y="334.69" width="447" height="394" fill="none"/></clipPath><filter id="e" x="107.82" y="354.67" width="598" height="553" filterUnits="userSpaceOnUse"><feOffset dx="23.95" dy="20.96"/><feGaussianBlur result="f" stdDeviation="11.97"/><feFlood flood-color="#000" flood-opacity=".38"/><feComposite in2="f" operator="in"/><feComposite in="SourceGraphic"/></filter><clipPath id="g"><rect x="120.28" y="369.85" width="525.11" height="480.38" fill="none"/></clipPath></defs><g clip-path="url(#b)"><rect x="31.23" y="43.59" width="1185.51" height="632.33" fill="#fff"/><rect x="11.32" y="43.59" width="1205.43" height="632.33" fill="#133743"/><path d="M0,375.41c7.35,12.26,17.8,28.06,31.98,45.18,30.13,36.37,59.74,57.73,68.53,63.88,23.77,16.62,46.42,26.61,91.73,46.59,40.77,17.98,41.12,15.45,65.02,27.53,21.01,10.63,50.54,25.81,81.42,53.66,16.73,15.09,39.84,39.3,60.57,74.81-128.16,3.18-256.32,6.35-384.48,9.53-4.92-107.06-9.84-214.12-14.76-321.18Z" fill="#00bdb6"/><path d="M745.42,11.89c2.85,23.21,8.28,55.02,19.45,91.71,7.8,25.63,15.22,49.98,31.29,78.13,8.54,14.96,24.15,39.11,69.34,81.52,51.47,48.3,68.72,52.18,104.85,84.63,8.51,7.64,59.96,54.62,95.59,124.24,41.74,81.55,45.59,162.55,42.17,216,47.09,2.46,94.19,4.91,141.28,7.37-9.87-231.83-19.73-463.66-29.6-695.49-158.13,3.96-316.25,7.93-474.38,11.89Z" fill="#00bdb6"/><path d="M1027.86,26.3c14.5,11.62,33.7,29.32,52.01,54.35,18.27,24.98,27.83,46.58,33.68,60,4.41,10.13,22.14,52.12,28.82,112.94,1.2,10.91,1.77,29.16,2.92,65.65,1.73,54.85.32,64.31,3.75,91.45,1.9,15.03,4.91,37.96,14.06,66.66,9.25,29.01,20.12,49.27,30.22,68.12,9.15,17.06,22.17,39.11,40.06,63.53-2.44-195.88-4.88-391.76-7.32-587.65-66.07,1.65-132.14,3.29-198.22,4.94Z" fill="#007c84"/><rect x="1180.71" y="244.43" width="36.04" height="82.68" fill="#f8693f"/><path d="M1187.42,252.35h2.68c2.1,0,3.04,1.2,3.04,2.5,0,.91-.45,1.71-1.24,2.07v.03c1.15.27,1.88,1.21,1.88,2.4,0,1.57-1.16,2.87-3.41,2.87h-2.95v-9.86ZM1189.91,256.55c1.1,0,1.68-.57,1.68-1.45,0-.82-.51-1.44-1.68-1.44h-.92v2.89h.92ZM1190.23,260.92c1.22,0,1.95-.45,1.95-1.56,0-.94-.7-1.51-1.79-1.51h-1.42v3.07h1.25Z" fill="#fff"/><path d="M1199.82,254.94c0-.97-.76-1.35-1.61-1.35-.98,0-1.82.34-2.49.67l-.43-1.21c.75-.39,1.86-.79,3.13-.79,2.06,0,3.04,1.09,3.04,2.54,0,2.86-3.89,3.19-4.49,6.08h4.55v1.33h-6.56c.42-5.04,4.86-5.07,4.86-7.27Z" fill="#fff"/><rect x="1180.71" y="332.36" width="36.04" height="82.68" fill="#f8693f"/><path d="M1187.46,340.28h2.68c2.1,0,3.04,1.2,3.04,2.5,0,.91-.45,1.71-1.24,2.07v.03c1.15.27,1.88,1.21,1.88,2.4,0,1.57-1.16,2.87-3.41,2.87h-2.95v-9.86ZM1189.94,344.47c1.1,0,1.68-.57,1.68-1.45,0-.82-.51-1.44-1.68-1.44h-.92v2.89h.92ZM1190.27,348.84c1.22,0,1.95-.45,1.95-1.56,0-.94-.7-1.51-1.79-1.51h-1.42v3.07h1.25Z" fill="#fff"/><path d="M1197.81,341.84l-2.28,1.08-.54-1.23,3.15-1.48h1.21v9.94h-1.54v-8.31Z" fill="#fff"/><rect x="1180.71" y="68.58" width="36.04" height="82.68" fill="#f8693f"/><path d="M1194.82,85.77c-1.03.57-2.04.75-3,.75-3.12,0-4.88-2.08-4.88-4.97s2.03-5.13,5.1-5.13c1.06,0,1.95.22,2.52.49v1.47c-.73-.39-1.52-.63-2.49-.63-2.21,0-3.46,1.71-3.46,3.76,0,2.17,1.3,3.68,3.38,3.68.95,0,1.7-.27,2.39-.66l.43,1.24Z" fill="#fff"/><path d="M1200.67,79.1c0-.97-.76-1.35-1.61-1.35-.98,0-1.82.34-2.49.67l-.43-1.21c.75-.39,1.86-.79,3.13-.79,2.06,0,3.04,1.09,3.04,2.54,0,2.86-3.89,3.19-4.49,6.08h4.55v1.33h-6.56c.42-5.04,4.86-5.07,4.86-7.27Z" fill="#fff"/><rect x="1180.71" y="156.51" width="36.04" height="82.68" fill="#f8693f"/><path d="M1194.85,173.7c-1.03.57-2.04.75-3,.75-3.12,0-4.88-2.08-4.88-4.97s2.03-5.13,5.1-5.13c1.06,0,1.95.22,2.52.49v1.47c-.73-.39-1.52-.63-2.49-.63-2.21,0-3.46,1.71-3.46,3.76,0,2.17,1.3,3.68,3.38,3.68.95,0,1.7-.27,2.39-.66l.43,1.24Z" fill="#fff"/><path d="M1198.67,165.99l-2.28,1.08-.54-1.23,3.15-1.48h1.21v9.94h-1.54v-8.31Z" fill="#fff"/><rect x="1123.75" y="420.28" width="93" height="82.68" fill="#c32a3e"/><path d="M1190.1,428.16h1.21l3.89,9.91h-1.68l-.97-2.53h-3.64l-.94,2.53h-1.64l3.77-9.91ZM1192.07,434.25l-.8-2.25c-.27-.81-.42-1.26-.52-1.59h-.03c-.09.34-.24.79-.54,1.59l-.81,2.25h2.7Z" fill="#fff"/><path d="M1200.7,430.79c0-.97-.76-1.35-1.61-1.35-.98,0-1.82.34-2.49.67l-.43-1.21c.75-.39,1.86-.79,3.13-.79,2.06,0,3.04,1.09,3.04,2.54,0,2.86-3.89,3.19-4.49,6.08h4.55v1.33h-6.56c.42-5.04,4.86-5.07,4.86-7.27Z" fill="#fff"/><rect x="1123.75" y="596.13" width="93" height="82.68" fill="#c32a3e"/><path d="M1185.3,600.39h1.75c.75,0,1.3.11,1.75.35.78.41,1.23,1.16,1.23,2.2,0,.92-.39,1.83-1.44,2.28-.42.18-.94.29-1.65.29h-.39v2.78h-1.25v-7.89ZM1187.03,604.48c.43,0,.75-.07.99-.2.48-.23.7-.69.7-1.33,0-.56-.21-1.03-.66-1.29-.25-.14-.58-.23-1.05-.23h-.46v3.05h.48Z" fill="#fff"/><path d="M1191.36,602.62h1.04l.14.66c.55-.56,1.03-.8,1.56-.8.25,0,.54.07.74.2l-.44,1.07c-.21-.12-.42-.16-.6-.16-.38,0-.72.18-1.21.63v4.06h-1.24v-5.67Z" fill="#fff"/><path d="M1196.32,605.76c.02.97.66,1.65,1.68,1.65.56,0,1.01-.16,1.42-.38l.37.85c-.55.36-1.25.53-1.92.53-1.97,0-2.82-1.4-2.82-2.97,0-1.71.94-2.96,2.47-2.96s2.42,1.15,2.42,2.98v.3h-3.63ZM1198.68,604.87c-.02-.72-.37-1.42-1.17-1.42-.75,0-1.19.66-1.21,1.42h2.37Z" fill="#fff"/><path d="M1188.26,612.34h1.21l3.89,9.91h-1.68l-.97-2.53h-3.64l-.94,2.53h-1.64l3.77-9.91ZM1190.22,618.43l-.8-2.25c-.27-.81-.42-1.26-.52-1.59h-.03c-.09.34-.24.79-.54,1.59l-.8,2.25h2.7Z" fill="#fff"/><path d="M1196.81,613.94l-2.28,1.08-.54-1.23,3.15-1.48h1.21v9.94h-1.54v-8.31Z" fill="#fff"/><rect x="1123.75" y="508.21" width="93" height="82.68" fill="#c32a3e"/><path d="M1190.14,516.08h1.21l3.89,9.91h-1.68l-.97-2.53h-3.64l-.94,2.53h-1.64l3.77-9.91ZM1192.11,522.17l-.8-2.25c-.27-.81-.42-1.26-.52-1.59h-.03c-.09.34-.24.79-.54,1.59l-.81,2.25h2.7Z" fill="#fff"/><path d="M1198.7,517.68l-2.28,1.08-.54-1.23,3.15-1.48h1.21v9.94h-1.54v-8.31Z" fill="#fff"/><g clip-path="url(#c)"><path d="M199.04,82.18h-2.04l-5.42,14.14h2.66l1.32-3.53h5l1.36,3.53h2.77l-5.64-14.14ZM196.3,90.71l1.02-2.78c.38-1.09.6-1.71.72-2.2h.04c.13.47.32,1.11.7,2.18l.98,2.8h-3.47Z" fill="#fff"/><path d="M226.04,85.97c-2.87,0-4.53,2.28-4.53,5.32,0,2.73,1.49,5.25,5.15,5.25,1.23,0,2.49-.28,3.55-.94l-.77-1.75c-.72.41-1.53.68-2.53.68-1.68,0-2.79-1-2.85-2.56h6.45v-.6c0-3.35-1.64-5.4-4.47-5.4M224.04,90.19c.02-1.22.7-2.29,1.96-2.29,1.34,0,1.91,1.13,1.93,2.29h-3.89Z" fill="#fff"/><path d="M269.95,85.97c-2.87,0-4.53,2.28-4.53,5.32,0,2.73,1.49,5.25,5.15,5.25,1.23,0,2.49-.28,3.55-.94l-.77-1.75c-.72.41-1.53.68-2.53.68-1.68,0-2.79-1-2.85-2.56h6.45v-.6c0-3.35-1.64-5.4-4.47-5.4M267.95,90.19c.02-1.22.7-2.29,1.96-2.29,1.34,0,1.91,1.13,1.94,2.29h-3.89Z" fill="#fff"/><path d="M290.22,83.12l-2.53.75v2.35h-1.81v1.99h1.81v5.62c0,1.69,1.09,2.71,2.87,2.71,1,0,2.21-.3,2.94-.79l-.77-1.75c-.38.26-.94.49-1.53.49-.66,0-.98-.34-.98-1.28v-5h.11s.82,0,.82,0c1.14,0,1.46-.6,1.62-.89l.5-1,.02-.04-.02-.04h-2.93v-.02h-.11v-3.1Z" fill="#fff"/><path d="M217,85.97c-2.36,0-3.81,1.26-3.81,3.05,0,3.37,4.72,2.73,4.72,4.44,0,.77-.75,1.07-1.77,1.07s-1.98-.34-2.74-.83l-.11.27-.45,1.72c.83.46,2.04.86,3.48.86,2.17,0,4.08-.92,4.08-3.14,0-3.52-4.72-2.91-4.72-4.51,0-.66.57-.92,1.43-.92s1.65.19,2.38.46l.47-1.81v-.16c-.83-.3-1.83-.49-2.96-.49" fill="#fff"/><path d="M235.52,85.97c-2.36,0-3.81,1.26-3.81,3.05,0,3.37,4.72,2.73,4.72,4.44,0,.77-.75,1.07-1.77,1.07s-1.89-.31-2.64-.77l-.52,2c.82.42,1.97.78,3.33.78,2.17,0,4.09-.92,4.09-3.14,0-3.52-4.72-2.91-4.72-4.51,0-.66.57-.92,1.43-.92s1.64.19,2.36.45l.49-1.87v-.1c-.83-.3-1.83-.49-2.96-.49" fill="#fff"/><path d="M243.93,85.97c-2.36,0-3.81,1.26-3.81,3.05,0,3.37,4.72,2.73,4.72,4.44,0,.77-.75,1.07-1.77,1.07s-1.92-.32-2.67-.79l-.52,2.01c.82.43,1.99.79,3.36.79,2.17,0,4.09-.92,4.09-3.14,0-3.52-4.72-2.91-4.72-4.51,0-.66.57-.92,1.43-.92s1.63.19,2.35.45l.5-1.92v-.04c-.83-.3-1.83-.49-2.96-.49" fill="#fff"/><path d="M208.65,85.97c-2.36,0-3.81,1.26-3.81,3.05,0,3.37,4.72,2.73,4.72,4.44,0,.77-.74,1.07-1.77,1.07s-1.98-.34-2.74-.83h0s.97,2.59.97,2.59c.58.15,1.24.25,1.95.25,2.17,0,4.08-.92,4.08-3.14,0-3.52-4.72-2.91-4.72-4.51,0-.66.57-.92,1.43-.92s1.64.19,2.36.45l.49-1.88v-.08c-.83-.3-1.83-.49-2.96-.49" fill="#fff"/><path d="M248.69,85.79l-.05.03v10.51h2.53v-7.13c.75-.6,1.6-1,2.4-1,1.3,0,1.49.98,1.49,2.16v5.98h2.55v-6.75l-.02-.38c.72-.6,1.57-1,2.38-1,1.3,0,1.53.94,1.53,2.14v6h2.53v-6.71c0-2.67-1.57-3.65-3.34-3.65-1.13,0-2.41.53-3.62,1.56-.49-1-1.45-1.56-2.68-1.56s-2.38.6-3.38,1.39h-.1c-.26-.54-.66-.76-.9-.89l-1.29-.65-.05-.03Z" fill="#fff"/><path d="M275.87,85.79l-.05.03v10.51h2.53v-7.07c.75-.62,1.64-1.07,2.47-1.07,1.3,0,1.55,1,1.55,2.24v5.9h2.55v-6.69c0-2.88-1.64-3.67-3.23-3.67-1.26,0-2.38.56-3.45,1.39h-.14c-.26-.54-.66-.76-.9-.89l-1.29-.65-.05-.03Z" fill="#fff"/><path d="M100.95,82.02c-4.51,0-7.4,3.25-7.4,7.33s2.49,7.09,7.08,7.09c1.37,0,2.82-.25,4.33-1.05-.37-.58-.58-1.28-.59-2.09-1,.58-2.06.98-3.44.98-2.87,0-4.66-2.05-4.66-5,0-2.76,1.64-5.1,4.74-5.1,1.36,0,2.53.34,3.62.92v-2.39c-.87-.38-2.15-.68-3.68-.68" fill="#fff"/><path d="M135.51,81h-2.53v14.63c.85.45,2,.7,3.3.7,3.42,0,6.02-2.05,6.02-5.6,0-3.2-2.15-4.98-4.83-4.98-.79,0-1.38.13-1.96.3v-5.06ZM136.68,94.22c-.36,0-.77-.04-1.17-.17v-5.85c.32-.13.77-.32,1.53-.32,1.66,0,2.64,1.24,2.64,3.01,0,1.99-1.17,3.33-3,3.33" fill="#fff"/><path d="M165.19,81.11h-2.55v4.89c-.4-.09-.98-.13-1.36-.13-3.19,0-5.51,2.2-5.51,5.4s2.45,5.17,5.72,5.17c1.23,0,2.7-.26,3.7-.75v-14.59ZM161.45,94.33c-1.83,0-3.08-1.13-3.08-3.1,0-2.07,1.3-3.27,3.06-3.27.51,0,.83.06,1.21.15v6.05c-.34.13-.85.17-1.19.17" fill="#fff"/><path d="M181.06,85.87c-2.87,0-4.53,2.28-4.53,5.32,0,2.73,1.49,5.25,5.15,5.25,1.23,0,2.49-.28,3.55-.94l-.77-1.75c-.72.41-1.53.68-2.53.68-1.68,0-2.79-1-2.85-2.56h6.45v-.6c0-3.35-1.64-5.4-4.47-5.4M179.06,90.1c.02-1.22.7-2.29,1.96-2.29,1.34,0,1.91,1.13,1.93,2.29h-3.89Z" fill="#fff"/><path d="M109.86,85.87c-1.4,0-2.7.34-3.89,1l.83,1.64c.72-.38,1.64-.71,2.64-.71,1.17,0,1.94.51,1.94,1.69v.32l-1.72.06c-1.02.04-1.89.21-2.6.58-1.04.53-1.7,1.39-1.7,2.76,0,1.94,1.43,3.23,3.34,3.23,1.26,0,2.17-.51,2.89-1.17h.21c.24.29.51.45.7.55l1.33.67.05.03.05-.03v-5.95h-.02v-.99c0-2.44-1.34-3.67-4.04-3.67M109.41,94.44c-.92,0-1.49-.51-1.49-1.39,0-.51.19-.92.62-1.15.34-.19.81-.3,1.47-.32l1.3-.04v2.2c-.35.28-1.01.71-1.9.71" fill="#fff"/><path d="M115.81,85.65l-.05.03v10.51h2.53v-7.13c.74-.6,1.59-1,2.4-1,1.3,0,1.49.98,1.49,2.16v5.98h2.55v-6.75l-.02-.38c.72-.6,1.57-1,2.38-1,1.3,0,1.53.94,1.53,2.14v6h2.53v-6.71c0-2.67-1.57-3.65-3.34-3.65-1.13,0-2.4.53-3.62,1.56-.49-1-1.45-1.56-2.68-1.56s-2.38.6-3.38,1.39h-.09c-.26-.54-.66-.76-.9-.89l-1.29-.65-.05-.03Z" fill="#fff"/><path d="M148.98,85.92c-1.15,0-2.15.62-2.77,1.34l-.28-1.13h-2.15v10.1h2.53v-7.13c.78-.96,1.55-1.25,2.19-1.25.92,0,1.56.58,1.56.58v-2.32c-.37-.13-.74-.19-1.09-.19" fill="#fff"/><path d="M152.86,81.43c-.89,0-1.55.68-1.55,1.54s.66,1.52,1.55,1.52,1.57-.68,1.57-1.52c0-.88-.68-1.54-1.57-1.54M154.13,86.13h-2.55v10.1h2.55v-10.1Z" fill="#fff"/><path d="M176.44,85.48h-3.94s-1.54,0-1.54,0c-2.74,0-4.11,1.86-4.11,3.72,0,1.35.62,2.52,1.68,3.14-.83.58-1.21,1.3-1.21,1.9,0,.54.23,1,.66,1.26-1.04.45-1.81,1.32-1.81,2.44,0,1.75,1.72,2.97,4.68,2.97,3.49,0,5.32-1.5,5.32-3.33,0-3.78-6.62-2.09-6.62-3.91,0-.21.06-.43.25-.75.34.11.77.17,1.23.17,2.45,0,4.17-1.47,4.17-3.74,0-.79-.25-1.54-.71-2.14h.29c.83-.08,1.09-.55,1.21-.78l.44-.88.02-.03-.02-.03ZM171.02,91.16c-1.13,0-1.76-.88-1.76-1.88,0-1.22.74-1.88,1.74-1.88,1.13,0,1.81.9,1.81,1.9,0,1.22-.77,1.86-1.79,1.86M171.19,99.11c-1.68,0-2.74-.62-2.74-1.62,0-.66.49-1.09.81-1.32,1.36.53,4.49.23,4.49,1.69,0,.75-1.02,1.26-2.55,1.26" fill="#fff"/><polygon points="94.16 103.08 101.22 103.08 100.65 104.7 96.05 104.7 96.05 109.15 100.61 109.15 100.61 110.77 96.05 110.77 96.05 115.5 101.31 115.5 101.31 117.12 94.16 117.12 94.16 103.08" fill="#fff"/><path d="M103.45,107.04h1.57l.23,1.24c1.08-.89,2.21-1.49,3.48-1.49,1.59,0,3.05.94,3.05,3.58v6.75h-1.87v-6.13c0-1.43-.34-2.53-1.72-2.53-1.02,0-1.99.6-2.88,1.36v7.3h-1.87v-10.07Z" fill="#fff"/><path d="M113.05,119.25c0-1.04.64-1.98,1.85-2.53-.44-.26-.7-.72-.7-1.26s.25-1.24,1.12-1.96c-1-.62-1.61-1.72-1.61-3.07,0-1.98,1.48-3.62,3.82-3.62.89,0,1.53.19,1.93.38.11.06.15.06.23-.02.49-.49,1.15-.83,2.18-.83.23,0,.51.04.62.06l-.42,1.41c-.19-.04-.42-.06-.62-.06-.3,0-.64.06-.89.23.68.68,1.04,1.6,1.04,2.53,0,2.19-1.61,3.66-3.96,3.66-.47,0-.91-.06-1.27-.19-.34.38-.47.7-.47,1.02,0,1.94,6.62.19,6.62,3.96,0,1.87-1.82,3.2-4.98,3.2-2.73,0-4.47-1.11-4.47-2.92M120.67,119.16c0-1.72-3.01-1.38-4.71-1.94-.47.3-1.19.83-1.19,1.7,0,1.15,1.19,1.83,2.95,1.83,1.93,0,2.95-.7,2.95-1.6M119.75,110.49c0-1.26-.85-2.19-2.12-2.19s-2.1.81-2.1,2.17c0,1.26.79,2.21,2.12,2.21,1.19,0,2.1-.77,2.1-2.19" fill="#fff"/><path d="M123.93,102.04h1.87v12.56c0,.77.23,1,.74,1,.17,0,.47-.06.64-.13l.38,1.47c-.47.19-1.06.3-1.55.3-1.4,0-2.08-.77-2.08-2.11v-13.1Z" fill="#fff"/><path d="M128.74,103.76c0-.66.49-1.19,1.19-1.19s1.23.51,1.23,1.19-.53,1.21-1.23,1.21-1.19-.53-1.19-1.21M129,107.04h1.87v10.07h-1.87v-10.07Z" fill="#fff"/><path d="M133.07,115.03c.64.38,1.51.77,2.59.77s2.04-.4,2.04-1.45c0-2.04-4.71-1.36-4.71-4.71,0-1.6,1.25-2.85,3.52-2.85,1,0,1.91.21,2.63.49v1.62c-.72-.32-1.55-.57-2.54-.57-.93,0-1.76.28-1.76,1.24,0,2.04,4.71,1.32,4.71,4.77,0,2.07-1.74,3-3.82,3-1.4,0-2.54-.45-3.25-.89l.59-1.41Z" fill="#fff"/><path d="M141.3,102.04h1.87v6.22c1-.85,2.12-1.47,3.41-1.47,1.57,0,3.05.94,3.05,3.58v6.75h-1.87v-6.13c0-1.43-.36-2.53-1.74-2.53-1.02,0-1.99.6-2.86,1.36v7.3h-1.87v-15.08Z" fill="#fff"/><path d="M85.79,102.04c-.07,1.73-.32,3.31-.75,4.69-.42,1.34-1.02,2.53-1.78,3.54-1.42,1.88-3.14,2.82-4.28,3.45-.1.05-.78.4-4.03,2.03v-13.7h10.85" fill="none" stroke="#fd0" stroke-miterlimit="10" stroke-width=".07"/><path d="M66.62,102.04v13.7c-3.25-1.63-3.93-1.97-4.03-2.03-1.14-.62-2.86-1.56-4.28-3.45-.76-1.01-1.36-2.2-1.78-3.54-.43-1.38-.68-2.95-.75-4.69h10.85" fill="none" stroke="#fd0" stroke-miterlimit="10" stroke-width=".07"/><rect x="74.94" y="82.51" width="10.87" height="11.17" fill="none" stroke="#171614" stroke-miterlimit="10" stroke-width=".07"/><rect x="55.75" y="82.51" width="10.87" height="11.17" fill="none" stroke="#171614" stroke-miterlimit="10" stroke-width=".07"/><path d="M70.78,119.52l-.33-.18c-.49-.24-8.13-4.06-8.58-4.3-2.47-1.35-7.62-4.16-7.62-14.01v-20.03h33.07v20.03c0,9.85-5.15,12.66-7.63,14.01-.46.25-8.14,4.08-8.58,4.3l-.33.18Z" fill="#1d1d1b"/><path d="M74.15,94.48v-12.77h-6.73v12.77h-12.46v6.55c0,.07,0,.14,0,.21h12.45v15.79c1.8.9,3.36,1.68,3.36,1.68h0s1.57-.78,3.36-1.68v-15.79h12.45c0-.07,0-.14,0-.21v-6.55h-12.46Z" fill="#fff"/><rect x="54.96" y="81.71" width="12.46" height="12.77" fill="#e63329"/><rect x="74.15" y="81.71" width="12.46" height="12.77" fill="#e63329"/><path d="M67.42,101.24h-12.45c.07,9.15,4.74,11.8,7.25,13.17.25.14,2.91,1.47,5.2,2.62v-15.79Z" fill="#e63329"/><path d="M74.15,101.24v15.79c2.29-1.15,4.95-2.48,5.2-2.62,2.51-1.37,7.18-4.02,7.25-13.17h-12.45Z" fill="#e63329"/><path d="M78.42,97.96l.26-.31-.32-.39-.33.39.26.31c0,.16.01,1.51-.78,1.99,0,0,.26.05.62-.02,0,0,.06.35.23.76.17-.4.23-.76.23-.76.36.07.62.02.62.02-.8-.48-.79-1.84-.78-1.99" fill="#1d1d1b"/><path d="M80.45,95.66l.26-.31-.33-.39-.32.39.26.31c0,.16.01,1.51-.78,1.99,0,0,.27.05.62-.02,0,0,.06.35.23.76.17-.4.23-.76.23-.76.36.07.62.02.62.02-.79-.48-.78-1.84-.78-1.99" fill="#1d1d1b"/><path d="M82.48,97.96l.26-.31-.33-.39-.32.39.26.31c0,.16.01,1.51-.78,1.99,0,0,.27.05.62-.02,0,0,.06.35.23.76.17-.4.23-.76.23-.76.36.07.62.02.62.02-.79-.48-.79-1.84-.78-1.99" fill="#1d1d1b"/><path d="M84.51,95.66l.26-.31-.33-.39-.32.39.26.31c0,.16.01,1.51-.78,1.99,0,0,.27.05.62-.02,0,0,.06.35.23.76.17-.4.23-.76.23-.76.36.07.62.02.62.02-.79-.48-.78-1.84-.78-1.99" fill="#1d1d1b"/><path d="M76.4,95.66l.26-.31-.33-.39-.32.39.26.31c0,.16.01,1.51-.78,1.99,0,0,.27.05.62-.02,0,0,.06.35.23.76.17-.4.23-.76.23-.76.36.07.62.02.62.02-.8-.48-.79-1.84-.78-1.99" fill="#1d1d1b"/><path d="M59.22,97.96l.26-.31-.33-.39-.32.39.26.31c0,.16.01,1.51-.78,1.99,0,0,.27.05.62-.02,0,0,.06.35.23.76.17-.4.23-.76.23-.76.36.07.62.02.62.02-.79-.48-.79-1.84-.78-1.99" fill="#1d1d1b"/><path d="M61.25,95.66l.26-.31-.33-.39-.32.39.26.31c0,.16.01,1.51-.78,1.99,0,0,.27.05.62-.02,0,0,.06.35.23.76.17-.4.23-.76.23-.76.36.07.62.02.62.02-.79-.48-.79-1.84-.78-1.99" fill="#1d1d1b"/><path d="M63.27,97.96l.26-.31-.33-.39-.32.39.26.31c0,.16.01,1.51-.78,1.99,0,0,.27.05.62-.02,0,0,.06.35.23.76.17-.4.23-.76.23-.76.36.07.62.02.62.02-.79-.48-.78-1.84-.78-1.99" fill="#1d1d1b"/><path d="M65.3,95.66l.26-.31-.32-.39-.33.39.26.31c0,.16.01,1.51-.78,1.99,0,0,.26.05.62-.02,0,0,.06.35.23.76.17-.4.23-.76.23-.76.36.07.62.02.62.02-.8-.48-.79-1.84-.78-1.99" fill="#1d1d1b"/><path d="M57.19,95.66l.26-.31-.33-.39-.33.39.26.31c0,.16.01,1.51-.78,1.99,0,0,.26.05.62-.02,0,0,.06.35.23.76.17-.4.23-.76.23-.76.36.07.62.02.62.02-.79-.48-.79-1.84-.78-1.99" fill="#1d1d1b"/><path d="M70.86,103.14l.26-.31-.33-.39-.32.39.26.31c0,.16.01,1.51-.78,1.99,0,0,.27.05.62-.02,0,0,.06.35.23.76.17-.4.23-.76.23-.76.36.07.62.02.62.02-.8-.48-.79-1.84-.78-1.99" fill="#1d1d1b"/><path d="M70.86,110.06l.26-.31-.33-.39-.32.39.26.31c0,.16.01,1.51-.78,1.99,0,0,.27.05.62-.02,0,0,.06.35.23.76.17-.4.23-.76.23-.76.36.07.62.02.62.02-.8-.48-.79-1.84-.78-1.99" fill="#1d1d1b"/><path d="M72.75,106.6l.26-.31-.33-.39-.33.39.26.31c0,.16.01,1.51-.78,1.99,0,0,.26.05.62-.02,0,0,.06.35.23.76.17-.4.23-.76.23-.76.36.07.62.02.62.02-.79-.48-.79-1.84-.78-1.99" fill="#1d1d1b"/><path d="M68.96,106.6l.26-.31-.33-.39-.33.39.26.31c0,.16.01,1.51-.78,1.99,0,0,.26.05.62-.02,0,0,.06.35.23.76.17-.4.23-.76.23-.76.36.07.62.02.62.02-.79-.48-.79-1.84-.78-1.99" fill="#1d1d1b"/><path d="M72.75,113.52l.26-.31-.33-.39-.33.39.26.31c0,.16.01,1.51-.78,1.99,0,0,.26.05.62-.02,0,0,.06.35.23.76.17-.4.23-.76.23-.76.36.07.62.02.62.02-.79-.48-.79-1.84-.78-1.99" fill="#1d1d1b"/><path d="M68.96,113.52l.26-.31-.33-.39-.33.39.26.31c0,.16.01,1.51-.78,1.99,0,0,.26.05.62-.02,0,0,.06.35.23.76.17-.4.23-.76.23-.76.36.07.62.02.62.02-.79-.48-.79-1.84-.78-1.99" fill="#1d1d1b"/><path d="M70.86,87.39l.26-.31-.33-.39-.32.39.26.31c0,.15.01,1.51-.78,1.99,0,0,.27.05.62-.02,0,0,.06.35.23.76.17-.4.23-.76.23-.76.36.07.62.02.62.02-.8-.48-.79-1.84-.78-1.99" fill="#1d1d1b"/><path d="M72.75,83.93l.26-.31-.33-.39-.33.39.26.31c0,.15.01,1.51-.78,1.99,0,0,.26.05.62-.02,0,0,.06.35.23.76.17-.4.23-.76.23-.76.36.07.62.02.62.02-.79-.48-.79-1.84-.78-1.99" fill="#1d1d1b"/><path d="M68.96,83.93l.26-.31-.33-.39-.33.39.26.31c0,.15.01,1.51-.78,1.99,0,0,.26.05.62-.02,0,0,.06.35.23.76.17-.4.23-.76.23-.76.36.07.62.02.62.02-.79-.48-.79-1.84-.78-1.99" fill="#1d1d1b"/><path d="M72.75,90.85l.26-.31-.33-.39-.33.39.26.31c0,.16.01,1.51-.78,1.99,0,0,.26.05.62-.02,0,0,.06.35.23.76.17-.4.23-.76.23-.76.36.07.62.02.62.02-.79-.48-.79-1.84-.78-1.99" fill="#1d1d1b"/><path d="M68.96,90.85l.26-.31-.33-.39-.33.39.26.31c0,.16.01,1.51-.78,1.99,0,0,.26.05.62-.02,0,0,.06.35.23.76.17-.4.23-.76.23-.76.36.07.62.02.62.02-.79-.48-.79-1.84-.78-1.99" fill="#1d1d1b"/><path d="M64.73,88.02l.04.16c.04.14.07.26.09.34.13.61.24.76.54.76.17,0,.31-.09.35-.23l.06-.21s.05-.08.1-.08c.11,0,.17.12.17.39,0,.08.03.25.07.52.03.16.04.31.04.46,0,.14-.01.19-.06.33.04.21.06.49.06.65,0,.26-.05.51-.13.63.04.18.05.25.05.4,0,.11-.01.24-.03.35-.05.25-.06.32-.06.37s0,.1.02.14c.02.06.03.1.03.13,0,.03-.01.05-.03.05l-.21-.08-.23-.13c-.07-.04-.13-.08-.24-.19-.21.18-.27.21-.8.36-.11.03-.19.06-.23.1-.07.05-.12.07-.14.07-.09,0-.13-.15-.13-.45,0-.22.02-.43.06-.59-.16-.06-.29-.09-.38-.09-.02,0-.07,0-.16.02h-.04s-.06-.04-.06-.1c0-.04.03-.14.07-.23l.1-.25c.04-.09.13-.2.25-.31.1-.09.2-.14.27-.16l.38-.07c.23-.04.36-.16.36-.32s-.1-.26-.33-.34l-.45-.16c-.12-.04-.25-.11-.41-.2-.25-.15-.29-.17-.35-.17-.09,0-.14.07-.14.19,0,.19.12.32.3.32.04,0,.07,0,.11-.02.05-.02.09-.03.11-.03.05,0,.07.03.07.08v.05s-.02.18-.02.18c-.02.15-.12.34-.34.64l-.09.13c-.09.34-.3.65-.57.84-.07.05-.11.08-.12.08,0,0-.04.06-.08.15-.02.04-.09.13-.21.25-.09.1-.18.18-.26.24-.12.09-.19.16-.21.19l-.11.18s-.05.05-.09.05c-.09,0-.18-.1-.23-.26-.04-.12-.07-.16-.15-.16-.04,0-.1.01-.18.03l-.15.02h-.38c-.19,0-.46.05-.58.11-.05.02-.08.03-.11.03-.03,0-.04-.01-.07-.06-.02-.04-.02-.05-.02-.09,0-.19.14-.56.32-.85.12-.18.15-.23.29-.34-.04-.18-.16-.32-.29-.36l-.18-.05s-.04-.03-.04-.05c0-.06.09-.13.24-.21.21-.11.41-.17.58-.17.18,0,.34.07.54.22.29.22.36.27.5.27.23,0,.44-.21.44-.43,0-.15-.08-.3-.28-.56-.29-.38-.38-.58-.38-.86,0-.17.05-.4.12-.5l.11-.16s.04-.07.04-.1c0-.07-.08-.12-.19-.12-.17,0-.49.12-.74.28-.13.08-.21.17-.21.23,0,.03.02.06.04.08l.12.07s.02.03.02.04c0,.01-.02.05-.04.08l-.21.28c-.11.14-.28.32-.44.47-.06.05-.09.08-.11.11,0,0-.03.05-.08.16-.08.14-.28.35-.47.48-.08.05-.13.09-.15.12-.01.02-.04.07-.08.15-.03.05-.07.13-.14.22-.1.15-.19.26-.25.33l-.3.3c-.09.09-.17.27-.3.66-.07.23-.14.37-.18.37-.02,0-.05-.02-.08-.06-.21-.24-.39-.38-.48-.38-.02,0-.06.02-.12.05-.08.05-.17.08-.29.11l-.39.07c-.29.06-.41.12-.58.32-.04.05-.07.07-.09.07-.03,0-.06-.05-.06-.12v-.1s.06-.29.06-.29c.06-.31.13-.53.21-.69l.18-.33c.04-.06.05-.12.05-.17,0-.24-.25-.47-.56-.5-.08,0-.11-.02-.11-.07,0-.05.09-.16.2-.25.21-.16.49-.28.66-.28.11,0,.27.04.47.13l.23.1c.09.04.17.05.23.05.25,0,.48-.22.78-.73.13-.23.19-.4.19-.54,0-.27-.13-.43-.34-.43-.16,0-.33.08-.46.2-.11.11-.16.22-.16.33v.12s0,.03,0,.03c0,.1-.03.15-.09.15-.1,0-.24-.14-.66-.65-.31-.38-.38-.54-.39-.91-.36-.46-.45-.65-.45-.98v-.22c-.23-.3-.3-.46-.3-.74,0-.1.02-.16.08-.28-.13-.19-.17-.27-.2-.41l-.05-.22c-.04-.15-.09-.28-.17-.39-.1-.14-.11-.16-.11-.2,0-.12.08-.17.45-.26-.01-.1-.02-.18-.02-.24,0-.06,0-.12.03-.25l.07-.39c.03-.16.05-.27.05-.34,0-.07-.01-.13-.08-.34-.04-.12-.07-.2-.09-.24-.03-.05-.06-.12-.06-.15,0-.04.03-.06.07-.06.11,0,.38.17.67.4.61.5.73.71.81,1.31,0,.05.02.12.03.21.29.21.44.47.44.75,0,.22-.08.47-.21.68l-.21.33c-.06.1-.1.22-.1.35,0,.2.06.38.2.64.16.29.3.4.47.4.28,0,.52-.49.52-1.04v-.26c0-.11,0-.21.02-.35.02-.16.03-.27.03-.31v-.25s.01-.17.01-.17c0-.06-.03-.12-.11-.2l-.23-.25c-.34-.37-.52-.71-.52-.97,0-.32.23-.56.54-.56.06,0,.12,0,.22.04v-.07c0-.47.1-.81.22-.81l.05.02.19.17.23.15.06.06c0-.13,0-.15.14-.3.03-.04.08-.1.15-.2.05-.08.09-.13.1-.16.02-.03.03-.06.05-.1.03-.05.06-.08.09-.08s.05.04.09.15c.03.07.04.09.22.25.06.06.11.1.13.14.02.03.05.1.09.21,0,.02.02.05.03.08.08-.1.12-.13.21-.19l.16-.09c.06-.04.1-.06.12-.06.01,0,.03.03.05.06.02.04.05.09.08.16.11.2.15.29.15.38v.1s0,.13,0,.13c.35.11.48.29.48.66,0,.27-.14.58-.41.91-.18.22-.2.26-.2.41,0,.78.54,1.24,1.5,1.25h.71c.45.02.73.06,1.15.2.5.16.65.2.79.2.05,0,.1-.01.14-.04.04-.03.06-.06.06-.09,0-.15-.26-.27-1.11-.51-1.74-.49-2.48-1.2-2.48-2.36,0-.9.74-1.59,1.7-1.59.31,0,.78.08,1.06.18l.43.16c.08.03.16.04.23.04.15,0,.22-.12.23-.37,0-.13.03-.18.12-.18.12,0,.31.15.48.39.17.24.29.51.29.7,0,.24-.11.41-.37.56-.24.36-.53.53-.92.53-.31,0-.74-.17-1.46-.58-.25-.14-.38-.19-.51-.19-.19,0-.31.11-.31.28,0,.15.12.25.43.36.46.16.57.22.75.41.54.09.77.19,1.11.45.93.3,1.5.93,1.5,1.66s-.48,1.22-1.14,1.22c-.16,0-.25-.01-.5-.06" fill="#1d1d1b"/><path d="M65.77,92.66c-.03-.13-.04-.19-.04-.26v-.08s.04-.17.04-.17v-.14c.01-.15-.01-.25-.06-.32l-.13-.17c-.04-.06-.08-.12-.1-.2-.01-.04-.02-.07-.02-.09,0-.05.03-.08.08-.08.03,0,.04,0,.14.06.04.02.08.04.1.04.06,0,.1-.1.1-.28,0-.2-.02-.32-.06-.37l-.16-.18-.14-.12s-.06-.06-.06-.09c0-.05.03-.08.09-.08.05,0,.15.02.23.05h.05s.06-.02.06-.08v-.04s-.03-.22-.03-.22l-.06-.23c-.02-.08-.03-.09-.08-.09h-.03s-.26.06-.26.06h-.04c-.35,0-.71-.29-.82-.66l-.21-.69c-.06-.21-.22-.42-.51-.65-.08-.07-.16-.11-.21-.12l-.19-.02s-.06-.02-.06-.05c0-.04.04-.06.13-.06l.35.03c.13.01.32.06.57.15.32.11.53.16.71.16.53,0,.84-.29.84-.77,0-.33-.17-.7-.43-.94-.15-.13-.3-.23-.35-.23-.03,0-.05.02-.05.06v.14s.01.01.01.01c0,.05-.03.09-.07.09-.05,0-.11-.07-.18-.21-.2-.42-.52-.67-.84-.67-.05,0-.09.02-.09.06,0,.02.02.07.05.15l.08.19s.03.08.03.1c0,.01-.02.02-.05.02-.05,0-.13-.04-.18-.1l-.16-.17-.14-.21c-.11-.17-.2-.25-.43-.37-.13-.07-.22-.12-.25-.14-.05-.03-.09-.04-.13-.04s-.06.02-.06.06c0,.03.01.07.04.11.08.12.11.18.11.21,0,.03-.03.06-.05.06-.08,0-.25-.17-.4-.39-.12-.19-.19-.4-.19-.6,0-.46.33-.79.78-.79.23,0,.52.1.79.27l.5.31c.17.11.43.19.58.19.07,0,.21-.02.31-.05.05-.01.09-.03.13-.05.03-.02.05-.04.05-.06,0-.02-.01-.04-.03-.05l-.06-.02-.23-.04c-.06-.01-.16-.05-.28-.11-.28-.13-.46-.22-.53-.26-.17-.11-.29-.18-.35-.2-.09-.03-.14-.07-.14-.1s.02-.05.05-.05c.03,0,.07.01.11.04.16.1.29.15.39.15l.45.16c.23.08.55.15.7.15.19,0,.35-.16.35-.35,0-.12-.07-.31-.18-.47-.02-.03-.05-.05-.07-.05-.04,0-.07.03-.07.09v.08s.03.13.03.13c0,.14-.09.25-.21.25-.04,0-.1-.01-.17-.03l-.69-.22c-.58-.19-.84-.24-1.13-.24-.82,0-1.45.57-1.45,1.31,0,.84.59,1.39,2.05,1.89,1.44.49,1.64.61,1.64.99,0,.21-.21.4-.45.4-.1,0-.18,0-.25-.02-.05-.01-.29-.07-.72-.17-.43-.11-.83-.15-1.31-.15-1.04,0-1.61.18-2.11.67-.12.12-.17.14-.31.14h-.07s-.15-.01-.15-.01h-.02c-.12,0-.21.06-.3.19-.11.18-.17.28-.18.29-.03.04-.07.06-.12.06-.1,0-.15-.07-.26-.33-.05-.13-.13-.23-.22-.32l-.21-.19s-.05-.06-.05-.08c0-.02.01-.06.04-.1.1-.15.14-.21.15-.28.03-.14.03-.15.09-.15.07,0,.08.06.09.31,0,.07.03.17.09.29l.12.25s.05.05.1.05c.11,0,.25-.26.28-.53.03-.23.05-.3.1-.3.02,0,.04,0,.05.02.01.02.04.08.09.19.03.06.07.11.14.16.06.04.1.07.13.07h.01c.09,0,.11-.05.14-.25v-.11s-.01-.15-.01-.15v-.1c-.01-.07,0-.11.05-.11.02,0,.05.01.08.04l.11.11c.07.07.14.11.21.11.09,0,.14-.04.14-.09,0-.05-.02-.1-.1-.25l-.07-.14c-.09-.16-.15-.22-.23-.22h-.11s-.13.06-.13.06c-.04.02-.07.02-.08.02-.02,0-.03-.02-.03-.04,0-.09.06-.24.18-.43.08-.13.14-.42.17-.83.04-.55.11-.91.19-.91.05,0,.07.04.07.16v.15s0,.1,0,.1c0,.1.02.18.05.18.09,0,.2-.13.28-.35.04-.09.05-.16.05-.22v-.05s-.22-.39-.22-.39l-.21-.06s-.07-.03-.07-.05v-.26l-.02-.13-.04-.11-.05-.12c-.23.13-.34.21-.42.32-.08.11-.13.15-.17.15-.03,0-.05-.03-.05-.06,0-.03.01-.08.03-.17v-.06c0-.23-.13-.45-.36-.6l-.06.08-.08.11-.13.15s-.08.12-.11.21c-.01.04-.02.09-.02.12v.02s0,.04,0,.04c0,.09,0,.11-.05.11h-.03s-.07-.12-.07-.12l-.12-.13-.18-.12-.1-.07s-.03.07-.04.1c-.03.07-.05.13-.05.17v.17s-.02.18-.02.18v.03c0,.09-.02.13-.08.13-.02,0-.07-.02-.12-.05-.05-.03-.1-.04-.15-.04-.16,0-.27.11-.27.29,0,.21.06.42.17.56l.14.18s.11.09.11.06l.03-.22-.03-.18v-.08c0-.07.02-.11.06-.11.06,0,.1.07.13.24l.08.39.09.5c.02.13.07.28.13.42.08.2.14.32.18.37.12.15.13.17.13.21,0,.03-.02.05-.05.05s-.05-.01-.1-.03c-.04-.02-.08-.03-.13-.04h-.08c-.17-.01-.2.13-.2.84,0,.43.09,1.02.2,1.3l.22.56c.03.09.05.18.05.26,0,.77-1.02,1.99-2.14,2.55-.42.21-.55.41-.58.87v.14c.16-.09.23-.12.35-.15.31-.08.38-.12.42-.28l.04-.14c.02-.05.04-.07.29-.2.08-.04.14-.09.17-.14.05-.09.1-.14.13-.14.03,0,.04.01.04.04v.04s-.11.3-.11.3v.07c-.01.23.11.41.34.52.04-.25.06-.33.14-.44l.19-.3c.07-.11.1-.24.1-.45,0-.12,0-.24-.03-.33v-.08c0-.05.02-.08.07-.08.04,0,.07.01.07.03l.04.2s.05.08.1.08c.1,0,.23-.13.37-.37.05-.09.08-.19.08-.28l-.02-.14-.03-.16v-.03c0-.07.04-.12.09-.12.02,0,.04,0,.05.02l.06.24c.02.08.08.14.14.14.07,0,.19-.12.26-.27.06-.13.1-.27.1-.43,0-.23.02-.29.11-.29.03,0,.05,0,.05.03l.04.14s.05.08.08.08c.04,0,.16-.13.24-.26.02-.04.03-.07.03-.1,0-.05-.03-.09-.1-.15-.11-.09-.12-.11-.12-.24s.02-.2.12-.37c.05-.09.1-.18.14-.25.13-.26.18-.33.23-.33.04,0,.08.04.08.09,0,.03,0,.06-.02.09-.03.06-.04.1-.04.13,0,.04.03.08.08.08.05,0,.11-.02.19-.06.03-.02.13-.05.29-.12l.35-.13c.06-.02.13-.03.21-.03.06,0,.13,0,.19.02.12.03.21.04.24.04.1,0,.18-.08.18-.18,0-.07-.07-.21-.17-.32-.04-.04-.05-.07-.05-.1v-.04s.05-.04.07-.04c.07,0,.24.18.39.41.91,1.44,1.23,1.78,1.85,1.97.62.19.78.34.78.71,0,.2-.1.44-.33.76-.46.65-.57.91-.57,1.33v.08c.05-.02.09-.04.12-.05.09-.04.14-.07.17-.07l.26-.05c.08-.02.15-.12.15-.22v-.03s-.03-.23-.03-.23v-.03c0-.08.04-.18.1-.22.02-.01.04-.02.05-.02.03,0,.06.03.08.07l.17.36c.07.15.15.22.37.32" fill="#fd0"/><path d="M57.26,84.97c-.08,0-.12.07-.12.21l-.02.2c-.02.19-.03.21-.03.26,0,.15.04.26.11.26.07,0,.17-.13.23-.28.03-.09.05-.17.05-.25,0-.07-.02-.16-.05-.24-.04-.11-.1-.17-.16-.17" fill="#fd0"/><path d="M56.39,83.43l.15.15c.24.24.36.64.36,1.21,0,.13,0,.21-.03.55-.01.18-.02.32-.02.44,0,1.32.43,2.31.99,2.31.18,0,.29-.09.46-.34.03-.04.07-.08.1-.08.03,0,.05.03.05.09l.02.23.02.2.02.22.03.2v.03c0,.06-.02.09-.07.1l-.19.03c-.09.01-.19.06-.29.12-.16.1-.26.17-.27.21l-.12.24s-.04.05-.07.05c-.06,0-.16-.11-.27-.3-.1-.16-.15-.29-.15-.35,0-.03.03-.05.09-.05h.16s.08,0,.08,0h.1s.06-.05.06-.08c0-.03-.02-.05-.04-.06l-.47-.2c-.15-.06-.27-.18-.36-.35-.13-.25-.19-.4-.19-.48,0-.07.03-.11.09-.11.02,0,.04,0,.07.02.05.02.11.04.13.04.04,0,.08-.03.08-.07,0-.03-.04-.08-.08-.11-.4-.29-.62-.62-.62-.91,0-.08.02-.12.06-.12h.08s.14.03.14.03h0c.05,0,.09-.03.09-.08,0-.03-.03-.07-.09-.1-.09-.05-.15-.09-.17-.1-.06-.04-.11-.09-.15-.15-.02-.03-.08-.14-.18-.34l-.15-.29c-.06-.11-.09-.17-.1-.18-.01-.01-.03-.04-.06-.08.14-.07.21-.09.33-.09.14,0,.24.09.34.35.06.16.13.27.17.27.02,0,.03-.04.03-.12,0-.1-.01-.21-.04-.32-.03-.1-.04-.18-.03-.23l-.02-.15-.13-.06s-.06-.05-.1-.11c-.06-.09-.08-.17-.08-.24,0-.05.01-.12.03-.19.11-.41.14-.56.14-.69v-.09s.09.11.09.11Z" fill="#fd0"/><path d="M57.65,91.07c-.15-.02-.22-.04-.31-.07-.03-.01-.09-.04-.2-.08-.17-.07-.3-.11-.4-.11-.16,0-.29.05-.44.18l.09.07.21.15.2.16c.05.04.11.06.17.06.21,0,.39-.1.67-.36" fill="#fd0"/><path d="M61.72,93c.06-.13.09-.17.21-.28.29-.25.43-.44.43-.59v-.23c0-.14.02-.18.09-.18.03,0,.06.01.07.03l.05.13s.05.05.09.05.1-.05.15-.12l.11-.15c.05-.07.08-.14.08-.21,0-.04,0-.08-.02-.12,0-.02-.03-.08-.07-.17-.02-.05-.04-.13-.04-.17,0-.07.03-.11.1-.11.03,0,.06.01.08.03l.08.11s.05.04.08.04c.04,0,.08-.04.11-.09l.08-.17s.03-.08.03-.09c0-.03-.03-.07-.1-.1l-.14-.06c-.18-.08-.32-.38-.32-.68,0-.04,0-.08.02-.12l.07-.18c.02-.05.03-.11.03-.17,0-.11-.04-.22-.11-.33-.08-.13-.13-.21-.14-.22-.06-.17-.09-.21-.15-.21h-.05s-.07.05-.07.05l-.12.06-.14.17-.15.07c-.09.04-.17.23-.17.39,0,.28.03.35.39.98.14.24.21.45.21.61,0,.43-.39.74-1.16.93l-.49.12c-.36.09-.57.33-.64.75.15-.08.21-.09.47-.09h.16s.03,0,.03,0c.14,0,.16,0,.25-.14.1-.15.21-.23.35-.3l.17-.07.14-.07h.04s.06,0,.06.03c0,.04-.04.11-.1.18-.12.14-.17.25-.17.41,0,.1.02.16.12.28" fill="#fd0"/><path d="M60.39,91.36c.12.08.25.19.32.29.1.14.12.15.21.15.04,0,.1,0,.15-.02l.09-.02c.17-.03.23-.06.23-.1,0-.03-.02-.06-.05-.09l-.12-.11-.12-.11c-.08-.07-.22-.12-.35-.12s-.2.03-.38.13" fill="#fd0"/><path d="M63.81,91.93h.06s.1-.02.1-.02h.1s.05.01.05.01c.23,0,.46-.2.46-.41,0-.07-.07-.11-.19-.11-.28,0-.46.16-.57.53" fill="#fd0"/><path d="M59.87,84.6c.01.1.06.18.11.18.04,0,.1-.12.21-.3.15-.25.29-.5.29-.64,0-.04-.02-.08-.05-.08h-.01s-.12.11-.12.11c-.08.08-.15.11-.36.19-.12.05-.16.09-.16.18v.08s.07.15.07.15l.02.13Z" fill="#1d1d1b"/><path d="M59.23,84.05l.18.1s.08.06.08.1v.07c-.04.09-.02.19-.02.23,0,.19-.15.19-.21.19-.03,0-.02-.02-.1-.12l-.23-.26c-.07-.08-.13-.27-.16-.48v-.03c0-.06.02-.08.06-.08.03,0,.08.02.12.05l.29.23Z" fill="#1d1d1b"/><path d="M59.64,85.17h-.18s-.05-.04-.13-.09c-.05-.03-.1-.04-.15-.04-.1,0-.16.05-.16.13,0,.09.04.23.14.47l.14.34c.12.3.24.42.39.42.14,0,.16-.14.25-.37.21-.53.33-.61.33-.8,0-.13-.03-.16-.15-.16l-.1-.02-.17.11h-.22Z" fill="#1d1d1b"/><path d="M59.63,85.46h-.14s-.04.01-.05.03l-.02.05.05.25.04.22c.02.12.07.17.16.17.1,0,.17-.07.18-.2l.02-.23c.01-.16.02-.24.02-.24,0-.02-.01-.05-.03-.06-.01-.01-.03-.02-.05-.02h0s-.17.03-.17.03Z" fill="#fd0"/><path d="M84.43,88.02l.04.16c.04.14.07.26.09.34.13.61.24.76.54.76.17,0,.31-.09.35-.23l.06-.21s.05-.08.1-.08c.12,0,.18.13.18.38,0,.1.02.27.06.52.03.18.04.34.04.49,0,.11-.01.17-.06.3l.02.13c.04.21.04.29.04.39,0,.45-.02.59-.13.77.04.17.06.26.06.38,0,.08-.01.19-.03.37l-.04.32v.19c.04.07.05.11.05.13,0,.03-.02.05-.04.05l-.21-.08-.23-.13c-.08-.04-.13-.08-.24-.19-.21.18-.23.2-.48.26-.35.1-.48.14-.55.19-.07.05-.12.07-.15.07-.08,0-.14-.16-.14-.39,0-.34.02-.51.07-.65-.21-.07-.31-.09-.38-.09-.03,0-.04,0-.15.02h-.05s-.05-.03-.05-.1c0-.1.07-.31.17-.49.13-.24.35-.43.52-.47l.38-.07c.23-.04.36-.16.36-.32s-.1-.25-.33-.34l-.44-.16c-.15-.05-.29-.12-.42-.2-.11-.07-.19-.11-.23-.14-.04-.02-.08-.03-.12-.03-.09,0-.15.07-.15.18,0,.18.14.33.31.33.04,0,.07,0,.11-.02.05-.02.08-.03.1-.03.05,0,.08.05.08.11,0,.19-.12.51-.24.67l-.13.16-.1.13c-.03.27-.3.66-.57.84-.06.04-.1.07-.12.08,0,0-.04.06-.08.15-.02.04-.09.13-.21.25-.09.1-.18.18-.26.24-.12.09-.19.16-.21.19l-.11.18s-.05.05-.08.05c-.09,0-.18-.1-.23-.27-.04-.12-.07-.16-.15-.16-.04,0-.1.01-.18.03l-.15.02h-.37c-.2,0-.47.05-.59.11-.05.02-.08.03-.11.03-.05,0-.08-.06-.08-.16,0-.34.26-.85.59-1.18-.05-.2-.15-.33-.28-.36-.12-.03-.18-.05-.19-.05-.02-.01-.03-.03-.03-.05,0-.07.08-.13.24-.22.3-.14.39-.17.55-.17.19,0,.35.07.55.22.29.22.36.27.5.27.23,0,.44-.21.44-.42,0-.15-.08-.31-.28-.56-.28-.36-.38-.6-.38-.9,0-.21.04-.32.22-.61.03-.05.04-.09.04-.11,0-.06-.1-.11-.2-.11-.11,0-.25.04-.44.13-.32.15-.51.28-.51.37,0,.03.02.07.05.09l.11.07s.02.03.02.04-.02.06-.04.08c-.02.02-.09.12-.21.28-.15.2-.29.35-.44.47-.06.04-.09.08-.11.11l-.08.16c-.07.13-.28.35-.45.48-.08.06-.13.1-.15.12-.02.02-.05.07-.1.15-.11.19-.28.43-.39.55l-.29.3c-.08.08-.2.33-.31.66-.09.26-.14.37-.18.37-.02,0-.05-.02-.08-.06-.21-.24-.39-.38-.48-.38-.02,0-.06.02-.12.05-.08.05-.18.08-.28.11l-.38.07c-.32.06-.44.13-.59.32-.04.05-.07.07-.08.07-.04,0-.07-.06-.07-.13v-.09s.03-.11.06-.29c.05-.3.13-.55.21-.69l.19-.33c.03-.06.05-.12.05-.17,0-.24-.23-.44-.57-.5-.07,0-.11-.04-.11-.08,0-.05.08-.14.21-.24.22-.17.47-.28.65-.28.12,0,.27.04.48.13l.23.1c.09.04.17.05.24.05.25,0,.48-.22.78-.73.13-.23.19-.4.19-.55,0-.27-.12-.43-.33-.43-.16,0-.32.07-.45.2-.12.12-.18.23-.18.34v.11s.01.06.01.06c0,.09-.03.12-.09.12-.08,0-.17-.08-.36-.3-.08-.09-.17-.21-.3-.35-.32-.38-.39-.53-.4-.91-.36-.46-.45-.71-.45-.98v-.22c-.24-.31-.29-.43-.29-.73,0-.14,0-.17.06-.28-.13-.19-.17-.27-.2-.41l-.05-.22c-.04-.15-.09-.28-.17-.39-.1-.14-.11-.16-.11-.2,0-.11.11-.18.37-.25l.08-.02c-.01-.1-.02-.18-.02-.24,0-.06,0-.12.03-.25l.07-.39c.03-.15.04-.27.04-.35,0-.09-.01-.16-.06-.33-.03-.11-.07-.19-.11-.24-.04-.06-.06-.11-.06-.14,0-.04.04-.06.08-.06.03,0,.07.01.11.03.36.2.75.5,1.02.82.24.27.31.49.37,1.08.32.24.44.46.44.8,0,.2-.07.4-.21.63-.13.2-.2.31-.21.33-.06.11-.1.23-.1.36,0,.19.06.37.2.63.16.28.3.4.47.4.28,0,.53-.48.53-1.01v-.1s0-.29,0-.29l.03-.25.02-.31.02-.25v-.14c0-.1-.01-.13-.34-.48-.36-.39-.53-.71-.53-1.01,0-.28.24-.52.54-.52.06,0,.12,0,.22.04v-.35s.07-.28.07-.28c.05-.22.07-.26.15-.26l.05.02.19.17.23.15.06.06c.02-.13.03-.16.14-.3.05-.07.1-.14.15-.2l.11-.16.06-.1c.04-.06.06-.08.09-.08.03,0,.05.04.08.16.01.05.05.1.1.14l.14.12c.11.09.18.23.23.43.08-.1.12-.14.21-.19l.17-.09c.06-.04.1-.05.11-.05.01,0,.03.03.05.06.02.06.05.11.08.16.14.22.15.25.15.4v.09s0,.13,0,.13c.34.09.48.28.48.66,0,.28-.13.58-.4.91-.18.22-.21.29-.21.45,0,.75.56,1.2,1.51,1.22h.7c.46.02.73.06,1.15.2.49.16.65.2.8.2.11,0,.2-.06.2-.13,0-.15-.25-.27-1.11-.51-1.74-.49-2.48-1.2-2.48-2.36,0-.9.74-1.59,1.71-1.59.3,0,.78.08,1.05.18l.43.16c.08.03.16.04.23.04.15,0,.21-.09.23-.37,0-.12.05-.18.13-.18.11,0,.33.17.48.39.16.22.27.52.27.71,0,.23-.12.4-.37.54-.24.36-.53.53-.92.53-.3,0-.81-.21-1.46-.58-.25-.15-.36-.19-.51-.19-.19,0-.31.11-.31.28,0,.15.11.25.43.36.5.18.61.24.75.41.54.09.77.19,1.11.45.96.31,1.5.91,1.5,1.67,0,.7-.47,1.2-1.12,1.2-.17,0-.27-.01-.51-.06" fill="#1d1d1b"/><path d="M85.47,92.66c-.02-.1-.03-.14-.03-.2v-.14c.04-.2.05-.29.05-.41,0-.08-.02-.14-.08-.21l-.13-.17c-.08-.11-.12-.19-.12-.29,0-.06.01-.08.06-.08h.05s.04.03.09.06c.04.02.08.04.11.04.06,0,.1-.1.1-.3,0-.28-.05-.41-.21-.53l-.15-.12s-.04-.06-.04-.09c0-.05.03-.08.08-.08.03,0,.07,0,.12.02l.12.03h.05s.05-.02.05-.08v-.04s-.03-.22-.03-.22c-.03-.23-.07-.32-.14-.32h-.02s-.27.05-.27.05h-.05c-.33,0-.72-.31-.82-.66l-.2-.69c-.06-.21-.24-.43-.51-.65-.09-.07-.16-.11-.22-.12l-.19-.02s-.06-.03-.06-.05c0-.04.04-.06.12-.06.27,0,.55.05.94.18.35.11.54.16.71.16.53,0,.85-.28.85-.74,0-.23-.08-.52-.2-.7-.1-.16-.28-.32-.5-.47-.03-.02-.06-.03-.08-.03-.03,0-.05.02-.05.05v.14s.01.01.01.01c0,.05-.03.09-.07.09-.06,0-.12-.07-.19-.21-.19-.41-.51-.66-.83-.66-.07,0-.11.02-.11.07,0,.03.02.08.05.14.03.05.07.12.1.19.02.04.03.07.03.09,0,.02-.02.03-.05.03-.05,0-.12-.04-.18-.1-.11-.11-.16-.17-.16-.17l-.14-.21c-.11-.16-.22-.27-.42-.37l-.26-.14c-.05-.03-.1-.04-.14-.04-.03,0-.05.02-.05.05s.02.08.05.12c.05.08.1.17.1.21,0,.04-.02.06-.05.06-.07,0-.21-.13-.39-.39-.13-.19-.2-.39-.2-.6,0-.45.34-.79.78-.79.23,0,.51.1.79.27l.51.31c.18.11.43.19.58.19.08,0,.11,0,.3-.05.05-.01.1-.03.14-.05.02-.01.04-.04.04-.06,0-.04-.03-.06-.09-.06-.23-.02-.72-.21-1.04-.41-.19-.12-.3-.19-.35-.2-.09-.03-.15-.08-.15-.11,0-.02.02-.03.05-.03h.06s.46.18.46.18l.44.16c.22.08.55.15.71.15.2,0,.34-.14.34-.34,0-.1-.02-.22-.07-.3-.06-.13-.15-.23-.18-.23-.04,0-.06.04-.06.11v.06s.02.14.02.14c0,.14-.08.24-.2.24-.05,0-.11-.01-.17-.03l-.69-.22c-.6-.19-.83-.24-1.12-.24-.83,0-1.46.56-1.46,1.31,0,.84.58,1.37,2.06,1.89,1.44.5,1.63.61,1.63,1,0,.22-.2.39-.46.39-.09,0-.18,0-.25-.02-.06-.01-.3-.07-.72-.17-.44-.11-.81-.15-1.31-.15-1.05,0-1.55.16-2.1.67-.13.12-.18.14-.32.14h-.07s-.17-.01-.17-.01c-.13,0-.22.06-.3.19l-.17.29s-.07.06-.12.06c-.11,0-.17-.07-.27-.33-.05-.14-.13-.25-.21-.32l-.22-.19s-.05-.06-.05-.08.02-.06.05-.1c.03-.04.06-.09.1-.15.03-.06.05-.1.05-.13v-.09s.05-.05.09-.05c.07,0,.08.05.08.31,0,.07.03.16.08.29l.12.25s.05.05.1.05c.11,0,.25-.26.29-.53.03-.23.05-.3.1-.3.04,0,.06.03.15.21.03.06.07.11.13.16.05.04.1.07.13.07h.01c.09,0,.12-.05.14-.25v-.11s-.01-.15-.01-.15v-.1c-.01-.07,0-.11.05-.11.02,0,.05.01.08.04l.11.11c.07.07.14.11.21.11.09,0,.15-.04.15-.1,0-.05-.01-.08-.11-.24,0-.01-.03-.06-.07-.14-.09-.18-.14-.22-.22-.22h-.11s-.14.06-.14.06c-.04.02-.07.02-.08.02-.02,0-.03-.02-.03-.04,0-.1.06-.25.18-.43.07-.11.13-.4.18-.83l.05-.5c.03-.31.07-.41.13-.41.02,0,.04,0,.04.02l.03.16v.13c0,.16.02.28.04.28.04,0,.11-.05.17-.14.05-.06.08-.13.11-.21.03-.11.05-.21.05-.28,0-.25-.1-.35-.43-.44-.03,0-.05-.02-.06-.03v-.1s-.01-.18-.01-.18l-.02-.13-.04-.11-.05-.12-.08.05c-.22.14-.27.18-.34.27-.1.12-.13.15-.17.15-.03,0-.05-.02-.05-.05l.04-.18v-.03c0-.23-.13-.46-.36-.63l-.07.08-.07.11-.13.15c-.07.09-.12.2-.12.31v.04s0,.04,0,.04c0,.08-.01.11-.05.11h-.02s-.08-.12-.08-.12l-.11-.13-.19-.12-.1-.07c-.1.22-.11.25-.11.53v.09c0,.1-.03.15-.08.15-.03,0-.07-.02-.13-.05-.05-.03-.1-.04-.16-.04-.15,0-.27.13-.27.31,0,.19.04.33.17.54.08.14.19.25.24.25,0,0,.02-.1.03-.23l-.03-.18v-.08c0-.07.02-.11.06-.11.06,0,.1.07.13.24l.08.39.08.5c.02.13.07.28.13.42.08.2.14.32.18.37.12.15.13.17.13.21,0,.03-.02.05-.05.05-.02,0-.05-.01-.1-.03-.04-.02-.08-.03-.13-.04h-.08c-.17-.01-.21.13-.21.83,0,.44.09,1.02.2,1.31l.22.56c.04.09.05.18.05.26,0,.78-1.04,2.01-2.14,2.55-.43.21-.55.42-.59,1.01.18-.09.26-.12.37-.15.31-.09.38-.13.42-.28l.04-.14c.02-.06.06-.09.28-.2.08-.04.14-.09.17-.14.05-.09.1-.14.13-.14.03,0,.05.02.05.06v.02s-.12.3-.12.3v.07c-.01.22.11.41.34.52.01-.06.03-.1.03-.13.04-.16.07-.27.11-.32l.2-.3c.07-.11.09-.18.09-.45v-.33s-.02-.09-.02-.09c0-.06.03-.08.07-.08.04,0,.07.01.07.03l.03.2s.05.08.1.08c.1,0,.23-.13.37-.37.05-.09.08-.17.08-.25,0-.07-.01-.22-.03-.33v-.06c0-.05.03-.09.08-.09.03,0,.05,0,.05.02l.07.24c.03.08.08.14.14.14.16,0,.33-.33.35-.69.01-.22.04-.3.11-.3.03,0,.05,0,.05.03l.04.14s.05.08.08.08c.03,0,.08-.05.15-.13.04-.05.07-.09.1-.14.02-.04.03-.08.03-.11,0-.05-.01-.07-.1-.13-.08-.06-.12-.13-.12-.22,0-.15.06-.32.25-.65.17-.3.2-.33.24-.33.04,0,.07.04.07.09,0,.03,0,.06-.02.09-.03.06-.04.1-.04.13,0,.04.04.08.08.08.05,0,.12-.02.19-.06.05-.03.14-.06.29-.12.2-.07.32-.11.36-.13.07-.02.14-.03.22-.03.06,0,.12,0,.18.02.12.03.2.04.24.04.1,0,.17-.07.17-.17,0-.04-.03-.12-.07-.18-.05-.09-.09-.14-.09-.15-.05-.05-.06-.08-.06-.1v-.04s.05-.04.07-.04c.08,0,.25.17.39.41.83,1.36,1.23,1.79,1.84,1.97.63.19.78.33.78.71,0,.2-.11.45-.33.76-.42.59-.57.93-.57,1.32v.09c.05-.02.09-.04.12-.05.09-.04.14-.07.17-.07l.26-.05c.08-.02.15-.12.15-.22v-.02s-.02-.23-.02-.23v-.04c0-.13.06-.24.14-.24.03,0,.06.03.08.06l.17.36c.07.15.15.22.37.32" fill="#fd0"/><path d="M76.81,85.39v.17s-.01.1-.01.1c0,.17.03.25.09.25.07,0,.18-.13.23-.28.03-.09.05-.21.05-.29,0-.05-.01-.1-.05-.2-.05-.12-.1-.17-.15-.17-.09,0-.13.12-.15.41" fill="#fd0"/><path d="M76.09,83.43l.15.15c.22.22.36.66.36,1.09v.18s-.04.5-.04.5v.42c-.01,1.39.39,2.33.98,2.33.15,0,.33-.14.46-.34.03-.04.06-.08.08-.08.03,0,.05.03.05.09l.02.23.02.2c.01.09.02.17.03.22.02.1.03.17.03.21,0,.11-.02.12-.27.15-.09.01-.2.05-.29.12-.16.11-.26.18-.27.21l-.12.24s-.04.05-.07.05c-.06,0-.14-.09-.26-.3-.11-.19-.16-.3-.16-.35,0-.03.03-.05.09-.05h.15s.09,0,.09,0h.09s.06-.05.06-.09c0-.03-.02-.05-.04-.06l-.48-.2c-.11-.05-.24-.17-.35-.35-.12-.2-.19-.37-.19-.46,0-.08.03-.12.08-.12.02,0,.05,0,.08.02.05.02.1.04.12.04.02,0,.04,0,.06-.02.02-.02.03-.04.03-.05,0-.03-.03-.07-.08-.11-.4-.28-.64-.62-.64-.9,0-.08.02-.12.06-.12h.08c.06.02.13.03.15.03.06,0,.1-.03.1-.08,0-.03-.04-.07-.1-.1-.26-.13-.33-.21-.5-.58-.13-.29-.2-.41-.31-.55.14-.07.21-.09.33-.09.14,0,.24.09.34.35.06.16.13.27.17.27.02,0,.03-.03.03-.12,0-.11-.02-.21-.04-.32-.03-.1-.04-.18-.03-.23l-.02-.15-.12-.06c-.11-.06-.18-.2-.18-.35,0-.07,0-.13.02-.19,0-.01.02-.09.06-.25.05-.17.07-.35.07-.45v-.09s.09.11.09.11Z" fill="#fd0"/><path d="M77.35,91.07c-.22-.04-.26-.05-.51-.16-.17-.08-.29-.11-.4-.11-.17,0-.29.05-.45.18l.1.07.21.15.2.16c.05.04.11.06.18.06.21,0,.38-.09.67-.36" fill="#fd0"/><path d="M81.42,93c.06-.13.09-.17.21-.28.29-.25.43-.44.43-.59v-.23c0-.14.02-.18.09-.18.03,0,.06.01.07.03l.05.13s.05.05.09.05c.08,0,.13-.05.26-.27.05-.09.08-.15.08-.21,0-.04,0-.08-.02-.12,0-.02-.03-.08-.07-.17-.02-.05-.04-.13-.04-.17,0-.07.04-.11.1-.11.03,0,.06.01.08.03l.08.11s.02.04.06.04c.04,0,.11-.04.14-.09l.08-.17s.03-.08.03-.1c0-.04-.03-.07-.09-.09l-.15-.06c-.17-.07-.32-.37-.32-.66,0-.03.01-.08.03-.14l.06-.18c.02-.06.03-.12.03-.18,0-.1-.03-.2-.1-.32-.07-.12-.12-.19-.13-.22-.06-.16-.1-.21-.15-.21-.04,0-.07.01-.14.05l-.11.06-.15.17-.15.07c-.09.04-.17.24-.17.4,0,.23.05.35.39.97.15.26.21.45.21.6,0,.43-.44.79-1.16.93-.85.18-1.04.32-1.14.87.15-.08.21-.09.47-.09h.15s.03,0,.03,0c.14,0,.16,0,.25-.14.1-.15.21-.23.35-.3l.17-.07.14-.07h.04s.06,0,.06.03c0,.04-.03.1-.1.18-.1.12-.16.25-.16.35,0,.14.02.21.11.34" fill="#fd0"/><path d="M80.09,91.36c.12.08.24.19.32.29.1.14.12.15.22.15.04,0,.09,0,.15-.02l.09-.02c.18-.04.23-.06.23-.11,0-.03-.02-.06-.04-.08l-.13-.11-.12-.11c-.07-.06-.22-.12-.33-.12-.13,0-.24.04-.4.13" fill="#fd0"/><path d="M83.51,91.93h.06s.11-.02.11-.02h.08s.06.01.06.01c.11,0,.16-.01.21-.05.07-.05.13-.13.2-.24.03-.05.04-.09.04-.12,0-.07-.07-.11-.18-.11-.29,0-.47.16-.58.53" fill="#fd0"/><path d="M79.57,84.6c.01.1.06.18.12.18.04,0,.11-.15.22-.34.15-.26.27-.47.27-.6,0-.04-.02-.08-.05-.08h-.01s-.12.11-.12.11c-.07.06-.21.14-.35.19-.13.05-.17.09-.17.18v.09s.1.18.1.18v.09Z" fill="#1d1d1b"/><path d="M78.64,83.82s-.09-.05-.12-.05c-.05,0-.06.02-.06.08v.03c.01.06.03.12.04.18.05.17.11.27.14.3l.16.27c.07.08.19.13.23.15h0s.05-.02.05-.04l.03-.21.05-.19v-.05c0-.05-.02-.1-.07-.12l-.18-.1-.28-.23Z" fill="#1d1d1b"/><path d="M79.34,85.17h-.18s-.05-.04-.13-.09c-.05-.03-.1-.04-.15-.04-.1,0-.16.06-.16.16,0,.08.05.23.14.44.04.09.08.2.14.34.12.3.24.42.4.42.14,0,.25-.11.33-.34l.12-.48c.06-.15.2-.21.2-.31,0-.12-.14-.24-.25-.24h-.06s-.16.12-.16.12h-.23Z" fill="#1d1d1b"/><path d="M79.33,85.46h-.13s-.04.01-.05.03c-.02.03-.03.05-.03.05l.05.25.04.22c.02.12.04.17.14.17.1,0,.19-.07.2-.2l.02-.23c.01-.16.02-.24.02-.24,0-.02-.01-.05-.03-.06-.02-.01-.04-.02-.05-.02h0s-.17.03-.17.03Z" fill="#fd0"/><path d="M64.93,108.03c.09.23.12.35.14.5l.02.45c.02.45.16.67.44.67.1,0,.18-.03.23-.07l.12-.12h.05c.07-.01.11.04.11.13v.17c-.02.08,0,.24.03.49.02.14.03.29.03.43,0,.23-.02.31-.1.52.07.21.12.44.12.64,0,.23-.04.39-.13.52.04.18.05.26.05.36s-.01.24-.04.4c-.04.22-.05.39-.04.51v.03c0,.07-.02.1-.06.1s-.09-.03-.13-.08c-.06-.08-.11-.11-.16-.11-.07,0-.1.04-.2.36-.03.1-.12.23-.25.39-.1.13-.17.23-.19.31-.03.13-.05.2-.06.22-.01.03-.04.05-.06.05h-.01c-.17,0-.37-.37-.58-1.08-.06-.2-.13-.29-.24-.29-.08,0-.15.05-.18.12l-.06.15s-.03.04-.06.04c-.08,0-.21-.15-.29-.35-.07-.16-.1-.34-.1-.49,0-.33.24-.58.98-1,.32-.18.44-.41.44-.83,0-.33-.1-.52-.38-.73-.22-.17-.35-.23-.47-.23-.1,0-.18.07-.18.15,0,.1.06.16.2.21.16.06.23.12.23.19,0,.07-.07.21-.18.38-.12.18-.17.24-.34.35-.05.29-.19.48-.51.69-.06.18-.1.25-.21.39l-.22.29c-.07.09-.15.25-.16.33-.02.16-.04.19-.1.19-.08,0-.26-.15-.43-.37-.1-.13-.13-.19-.14-.35-.11.09-.14.1-.36.13-.13.02-.23.04-.28.08-.16.09-.21.11-.24.11-.04,0-.06-.02-.06-.1v-.23c-.01-.32.12-.69.31-.94-.18-.16-.37-.26-.52-.28-.06,0-.08-.01-.08-.04,0-.04.04-.12.1-.2.08-.1.14-.17.19-.21.15-.13.41-.22.61-.22.14,0,.34.05.6.15.09.04.18.05.25.05.12,0,.18-.08.18-.21,0-.19-.09-.49-.31-.98-.14-.33-.21-.55-.21-.7,0-.37.17-.75.39-.86-.1-.05-.15-.06-.23-.06-.11,0-.19.03-.33.11-.16.09-.24.17-.24.23,0,.02.03.05.09.09.08.06.1.08.1.16,0,.26-.22.61-.52.84-.07.37-.24.59-.57.75-.04.2-.07.26-.23.49-.28.39-.34.51-.39.73-.03.11-.05.16-.09.16-.04,0-.14-.07-.24-.18-.09-.1-.14-.16-.17-.2-.05-.07-.07-.14-.12-.34-.08.02-.1.03-.15.03h-.16s-.11,0-.11,0c-.23,0-.48.05-.6.13-.05.03-.08.04-.09.04-.07,0-.12-.14-.12-.32,0-.38.11-.7.35-1.05-.09-.08-.12-.11-.2-.19-.03-.04-.06-.06-.08-.07l-.12-.06s-.06-.05-.06-.07c0-.06.15-.2.34-.32.2-.13.36-.19.51-.19.17,0,.27.04.48.23.15.13.25.19.32.19.05,0,.11-.04.15-.1.04-.05.05-.1.05-.16,0-.2-.24-.54-.51-.72-.2-.13-.42-.2-.63-.2-.29,0-.55.15-.66.38l-.12.24c-.03.06-.06.09-.1.09-.07,0-.1-.03-.34-.31l-.27-.32c-.08-.1-.14-.19-.17-.28-.03-.08-.04-.13-.05-.14,0-.01-.05-.04-.1-.09-.21-.15-.37-.45-.45-.88,0-.03-.02-.08-.03-.14-.26-.32-.41-.71-.41-1.05,0-.05,0-.07.02-.15-.15-.15-.17-.19-.29-.59-.08-.29-.14-.41-.24-.55-.03-.04-.04-.07-.04-.08,0-.06.09-.1.24-.13.14-.02.15-.02.21-.02h.21s-.01-.28-.01-.28c0-.17.01-.28.06-.48.02-.1.03-.18.03-.22,0-.02,0-.08-.02-.18-.01-.08-.02-.13-.03-.16-.02-.04-.02-.07-.02-.09,0-.03.02-.05.06-.05.03,0,.07.01.14.05.18.09.34.18.45.28.36.29.65.73.65,1v.08c-.02.09-.03.15-.03.16,0,.05.03.11.07.17l.12.16c.1.14.17.31.17.42,0,.1-.02.14-.19.39-.13.18-.18.32-.18.47,0,.19.08.43.21.67.12.22.27.34.4.34.24,0,.34-.21.38-.78.02-.29.05-.56.08-.81v-.14c.01-.07,0-.11-.1-.21l-.32-.37c-.3-.35-.39-.54-.39-.79,0-.29.19-.49.47-.49h.13s0-.07,0-.07c0-.07.02-.16.05-.29.07-.23.15-.4.19-.4.01,0,.05.02.1.05.02.01.08.04.19.07.06.02.1.04.21.11.05-.18.09-.27.17-.37.14-.18.29-.32.35-.32.03,0,.09.04.17.13l.2.21s.07.1.12.2l.04.09c.06-.03.1-.06.13-.07.08-.05.14-.08.17-.1.13-.06.2-.09.2-.1.05-.04.09-.05.11-.05.03,0,.05.06.13.41.05.24.06.29.07.47.34.05.5.24.5.6,0,.34-.17.68-.53,1.07-.1.11-.12.16-.12.26,0,.94.32,1.23,1.49,1.36.72.08.93.12,1.79.38.45.14.72.19.88.19.2,0,.31-.07.31-.2,0-.2-.14-.26-.98-.44-1.96-.41-2.72-1.08-2.72-2.38,0-.92.69-1.62,1.61-1.62.4,0,.77.12,1.34.46.53.31.64.36.76.36.14,0,.2-.09.2-.32,0-.15.04-.22.14-.22.08,0,.21.09.33.22.18.21.24.31.24.6,0,.38-.2.64-.6.75-.04.05-.07.08-.1.11-.22.25-.41.33-.75.33-.3,0-.68-.12-.94-.31l-.51-.36c-.22-.16-.38-.22-.53-.22-.22,0-.34.13-.34.35s.14.39.37.46l.48.15c.17.05.25.09.45.19.12-.02.17-.02.24-.02.29,0,.61.08.89.22.09.05.15.07.19.09l.26.07c.6.17,1.09.84,1.09,1.5,0,.75-.48,1.21-1.27,1.21h-.24Z" fill="#1d1d1b"/><path d="M64.75,114.33l.06-.13.15-.16c.12-.13.19-.32.19-.55,0-.11-.02-.23-.05-.34-.03-.08-.04-.16-.04-.19,0-.07.05-.13.1-.13.02,0,.05.02.08.05l.16.18c.1.11.13.13.25.16v-.15s.02-.17.02-.17c0-.25-.09-.54-.23-.72-.08-.11-.12-.17-.12-.21s.03-.08.06-.08c.01,0,.03,0,.04.02.1.08.15.11.18.11.05,0,.1-.13.1-.27,0-.2-.08-.43-.22-.59-.07-.08-.11-.13-.13-.16-.01-.02-.02-.04-.02-.06,0-.05.04-.08.09-.08.04,0,.06,0,.13.05.03.02.06.03.08.03.08,0,.11-.12.11-.43v-.13s-.01-.19-.01-.19c-.01-.22-.03-.26-.13-.26h-.08c-.52,0-.75-.33-.89-1.21-.1-.64-.33-1.09-.62-1.19-.17-.06-.24-.1-.24-.14,0-.03.05-.06.1-.06.04,0,.13.02.2.05.42.17.78.25,1.09.25.51,0,.9-.37.9-.85,0-.36-.17-.73-.48-1.03-.08-.08-.18-.14-.26-.16h-.02s-.05.02-.05.02l.02.15.04.11v.04s-.01.04-.04.04c-.03,0-.06-.02-.08-.04l-.19-.29c-.15-.23-.48-.42-.73-.42-.09,0-.14.04-.14.1,0,.03.03.08.06.12.05.06.1.13.1.17v.04s-.04.04-.05.04h-.01c-.05,0-.08-.02-.31-.29-.19-.22-.57-.43-.78-.43-.03,0-.06.01-.08.03-.01.01-.02.03-.02.04,0,.03.03.08.07.12.07.06.12.13.12.16,0,.02-.03.04-.06.04-.06,0-.2-.09-.45-.29-.39-.31-.57-.6-.57-.94,0-.41.29-.73.66-.73.22,0,.51.11.71.26l.52.39c.24.18.53.28.83.28.07,0,.13-.02.18-.04.05-.02.07-.05.07-.07,0-.01-.04-.03-.1-.05-.19-.04-.34-.11-.44-.19l-.53-.4c-.2-.15-.33-.25-.41-.29-.28-.15-.33-.18-.33-.21,0-.02.03-.03.06-.03.03,0,.06,0,.09.02l.27.12c.09.04.24.13.44.26.57.38.85.5,1.18.5s.55-.23.55-.53c0-.06-.02-.13-.04-.18l-.05-.11s-.05-.07-.06-.05l-.03.04-.03.22s-.01.03-.03.07c-.02.04-.04.08-.07.11-.06.06-.11.08-.19.08-.16,0-.35-.09-.84-.4-.5-.32-.95-.49-1.31-.49-.76,0-1.37.62-1.37,1.38,0,1.06.64,1.54,2.67,1.98.77.17,1.11.4,1.11.74,0,.31-.25.51-.65.51-.12,0-.22,0-.29-.02-.07-.01-.43-.11-1.09-.3-.45-.13-.96-.2-1.41-.2-.79,0-1.33.24-1.69.75-.04.06-.08.1-.11.1-.02,0-.05-.01-.09-.04l-.15-.12c-.1-.08-.27-.15-.38-.15-.08,0-.16.03-.22.09-.05.05-.09.07-.11.07-.06,0-.17-.13-.25-.31-.12-.25-.18-.49-.18-.72,0-.11.03-.18.08-.18.04,0,.06.03.08.08l.08.31c.05.17.14.31.22.31.03,0,.09-.05.15-.13.04-.05.07-.1.09-.15.07-.19.08-.22.13-.22.06,0,.09.04.13.23,0,.04.02.09.07.18.04.08.09.15.13.19.03.04.07.06.11.06.09,0,.18-.16.18-.33v-.05s-.01-.2-.01-.2c0-.08.01-.1.05-.1.03,0,.04.01.07.05.05.06.11.11.18.15.06.04.12.05.15.05.03,0,.07-.02.1-.05.03-.03.04-.06.04-.08,0-.03-.04-.08-.15-.19-.06-.06-.13-.21-.21-.42-.03-.08-.07-.14-.1-.14,0,0-.03,0-.07.02l-.14.05-.1.04h-.04s-.08-.03-.08-.07.1-.16.21-.25c.08-.07.13-.18.14-.29,0-.18.04-.32.07-.32l.03-.37c.01-.19.09-.54.16-.73.01-.04.03-.07.04-.07.03,0,.06.08.06.17v.06s0,.11,0,.11c0,.13.02.2.06.2.05,0,.1-.07.14-.18l.1-.24c.03-.07.04-.14.04-.2,0-.21-.12-.36-.29-.36h-.08s-.07.03-.07.03c-.06,0-.1-.06-.1-.13v-.15s0-.21,0-.21l-.04-.22v-.11s-.11.05-.11.05l-.12.1-.17.14-.14.12s-.05.03-.08.03c-.08,0-.09-.02-.09-.19v-.04c0-.13-.06-.24-.27-.49-.01-.01-.03-.04-.05-.06l-.04.07-.12.19-.12.3-.02.19c0,.05-.03.1-.05.1s-.06-.03-.1-.08c-.16-.19-.21-.22-.45-.31l-.02.07c-.04.13-.06.2-.06.22v.2s-.01.08-.01.08v.07c0,.06-.02.09-.06.09h0s-.02-.02-.06-.05c-.02-.02-.07-.03-.13-.03-.2,0-.32.11-.32.28,0,.13.04.22.24.52.09.13.19.24.23.24.03,0,.05-.07.05-.15l-.02-.13c-.02-.06-.03-.12-.03-.16,0-.06.02-.09.05-.09.1,0,.19.28.23.66l.04.39c.02.14.06.28.13.42.1.2.19.33.27.39.1.07.16.14.16.18,0,.03-.03.06-.06.06,0,0-.08-.03-.21-.08h-.09c-.21-.01-.28.11-.28.47,0,.44.3,1.08.62,1.34l.49.39c.25.2.43.53.43.76,0,.31-.34.61-.92.83l-.35.13c-.27.1-.38.28-.49.79.14-.04.2-.05.29-.05h.05s.16,0,.16,0c.14,0,.24-.09.24-.21v-.1s.04-.07.09-.1c.1-.05.14-.07.15-.07l.12-.1s.04-.02.06-.02c.03,0,.06.03.06.07,0,.03,0,.06-.02.1-.04.09-.06.22-.06.36,0,.26.04.4.17.59.01-.07.02-.12.03-.14.02-.05.08-.15.18-.29.16-.22.28-.5.28-.65v-.04s-.03-.24-.03-.24c0-.04.02-.09.05-.12.02-.02.05-.03.07-.03.05,0,.07.03.11.11.03.06.05.1.08.1.04,0,.11-.1.16-.21.04-.08.05-.16.05-.22,0-.04-.01-.08-.03-.14-.02-.05-.03-.09-.03-.12s0-.04.04-.07c.02-.01.03-.02.05-.02.02,0,.04,0,.06.02l.1.06s.06.03.08.03c.04,0,.1-.05.15-.12.09-.14.15-.26.15-.3,0-.03-.02-.05-.08-.09-.21-.15-.35-.37-.35-.57,0-.04.01-.1.03-.15l.11-.29c.05-.14.08-.22.08-.22h.03s.06.02.06.07c0,.04,0,.08-.02.12-.03.07-.04.15-.04.2,0,.08.04.12.11.12.05,0,.11-.01.18-.04.32-.14.57-.21.72-.21.14,0,.23.03.38.14.04.03.07.04.1.04.02,0,.04-.02.06-.04.01-.02.02-.04.02-.05,0-.04-.02-.09-.06-.14-.05-.07-.08-.11-.08-.15,0-.03.02-.05.06-.05.17,0,.42.53.67,1.36.19.66.25.72.87,1.08.53.3.73.6.73,1.08s-.13,1.09-.4,1.89c-.09.25-.12.42-.12.57,0,.11.02.22.1.51.04.14.06.22.07.24.01.03.04.08.08.16" fill="#fd0"/><path d="M62.3,112.85c.06-.15.08-.18.2-.36.17-.26.23-.4.23-.52v-.17c0-.16.03-.23.09-.23.02,0,.04.01.06.03l.05.08s.04.04.07.04c.03,0,.09-.04.12-.09.08-.12.12-.26.12-.38v-.12s-.02-.12-.02-.12c0-.06.03-.09.09-.09.04,0,.06.02.09.1.02.05.05.09.08.09.03,0,.06-.02.09-.06l.08-.13.06-.1.02-.05s-.02-.06-.08-.1c-.2-.14-.28-.36-.29-.75-.01-.3-.03-.49-.05-.58,0-.02-.07-.17-.19-.46-.05-.11-.09-.24-.13-.38-.02-.1-.05-.13-.13-.13-.29,0-.5.25-.5.57,0,.19.08.49.22.86.2.51.26.7.26.88,0,.39-.16.56-.69.75-.61.22-.89.53-.99,1.09.05-.02.08-.03.11-.04.07-.03.12-.04.15-.05l.17-.04c.15-.04.26-.12.29-.2l.04-.15s.03-.06.06-.07l.1-.04.1-.04.02.04-.04.14s-.02.13-.02.25c0,.23.05.37.18.54" fill="#fd0"/><path d="M56.63,103.04c.01.06.02.1.02.12,0,.03-.01.12-.04.27l-.02.22c0,.19.03.39.09.56.05.15.07.2.07.24v.04s-.03.08-.05.08c-.02,0-.06-.02-.11-.07-.12-.11-.25-.16-.39-.16-.05,0-.11,0-.18.02l.05.12.16.39.22.34.23.16s.04.04.06.06c.02.03.03.05.03.07,0,.02-.02.03-.04.04h-.21s-.06.03-.06.06c0,.04.03.14.09.32l.11.31.18.17.19.14c.06.04.09.09.09.12,0,.03-.02.06-.04.06h-.1s-.05.04-.05.1c0,.08.07.22.21.41.16.22.28.3.46.3h.16c.08,0,.12.04.12.1,0,.05-.03.08-.1.09-.15.03-.19.06-.19.13,0,.03.02.07.05.12l.09.12c.07.1.15.16.2.16.03,0,.09-.03.15-.1.09-.11.2-.2.34-.23.37-.09.44-.13.44-.22,0-.03-.01-.07-.04-.12-.12-.21-.16-.35-.16-.52,0-.13-.03-.22-.08-.22-.02,0-.05.03-.09.08-.09.13-.23.22-.37.22-.37,0-.81-.57-1.02-1.34-.05-.18-.08-.38-.08-.57s.03-.42.08-.65c.07-.31.11-.48.12-.52v-.14c.01-.26-.23-.6-.6-.86" fill="#fd0"/><path d="M57.39,104.52c-.08.15-.15.48-.15.69,0,.12.04.22.09.22.02,0,.04-.02.06-.05l.12-.21s.04-.07.08-.13c.04-.06.07-.12.07-.16,0-.13-.12-.28-.27-.36" fill="#fd0"/><path d="M58.55,109.3s.04.04.05.05c.05.05.08.07.09.08.21.21.24.23.34.23.09,0,.28-.05.39-.11.05-.02.07-.05.07-.07,0-.01-.04-.06-.11-.12l-.12-.11c-.09-.08-.22-.15-.28-.15-.12,0-.25.05-.44.19" fill="#fd0"/><path d="M61,111.22c.11.05.15.07.21.11.09.06.15.1.17.11.03.01.09.02.17.02.05,0,.09,0,.13-.02l.22-.08.21-.07c.06-.02.1-.05.1-.08,0-.02-.05-.04-.12-.06-.05-.01-.1-.03-.16-.05-.26-.11-.3-.12-.39-.12-.21,0-.42.1-.54.26" fill="#fd0"/><path d="M63.67,113.35c.07-.17.12-.2.36-.21.27-.01.53-.5.53-.83,0-.03-.01-.06-.02-.06-.01,0-.04.01-.07.04-.08.05-.13.08-.16.09l-.31.14c-.21.09-.38.37-.38.58,0,.07.01.13.06.26" fill="#fd0"/><path d="M59.11,104.13l.1.15s.21.17.23.17c.03,0,.05-.02.07-.09l.04-.16v-.18c.01-.14-.05-.19-.34-.27-.07-.02-.1-.02-.15-.05-.04-.03-.1-.06-.13-.06s-.04.01-.04.03v.05s.06.16.06.16l.15.27Z" fill="#1d1d1b"/><path d="M60.24,104.13l-.14.25s-.05.06-.05.06h-.01c-.06,0-.11-.13-.12-.26l-.02-.21c.02-.09.07-.13.2-.15.11-.02.18-.04.21-.06.1-.07.16-.11.17-.12h.02s.05.02.05.05h0s-.07.2-.07.2l-.23.25Z" fill="#1d1d1b"/><path d="M59.96,104.85l.17-.08s.06-.02.08-.02c.08,0,.14.06.14.17,0,.12-.09.28-.22.52-.14.25-.24.42-.35.42-.15,0-.37-.24-.58-.65-.05-.09-.08-.21-.08-.3,0-.13.06-.2.17-.2.05,0,.09.01.12.03l.1.06c.08.05.18.08.27.08.07,0,.13-.01.18-.04" fill="#1d1d1b"/><path d="M59.72,105.11l-.12-.02h-.02c-.07,0-.1.04-.1.11,0,.11.08.3.19.46.02.03.05.05.08.05.07,0,.12-.13.15-.34l.03-.16v-.03c0-.07-.02-.09-.07-.09h-.03" fill="#fd0"/><path d="M83.3,107.88c.18.24.44.4.65.4.07,0,.18-.02.29-.04.06-.02.1-.02.14-.02.05,0,.07.02.07.07,0,.04-.03.13-.05.2-.03.08-.05.14-.06.19l-.04.22-.11.19-.15.14-.04.04v.14c0,.26-.08.41-.29.55-.02.01-.04.03-.07.05l-.02.09c-.05.2-.08.32-.1.37-.03.06-.1.16-.2.3-.13.17-.21.3-.26.43-.04.11-.08.14-.15.14-.1,0-.21-.13-.22-.28-.02.03-.04.05-.05.06l-.13.08-.2.14c-.09.06-.15.1-.17.13l-.12.12s-.04.03-.06.03c-.05,0-.11-.09-.16-.27l-.11-.35c-.03-.09-.04-.21-.04-.34,0-.18.01-.24.07-.38-.21.02-.27.04-.38.08-.03.01-.07.02-.09.02-.03,0-.06-.02-.06-.06,0-.02.02-.1.04-.16l.14-.36c.11-.28.45-.53.72-.53.06,0,.15.02.27.06.07.02.12.03.16.03.12,0,.22-.09.22-.2,0-.06-.04-.12-.08-.14-.02,0-.14-.05-.38-.12-.18-.05-.27-.12-.46-.35-.14-.17-.2-.22-.25-.22-.04,0-.06.03-.06.07v.14s.01.07.01.07c0,.29-.09.58-.3.96l-.3.54c-.14.26-.2.45-.2.65,0,.21.09.4.21.43l.16.04s.04.02.05.03c.02.02.03.04.03.06,0,.02-.02.06-.05.1-.02.02-.08.1-.19.24-.18.24-.3.32-.52.39-.13.31-.34.49-.71.62l-.04.07c-.13.22-.4.42-.58.42h-.04c-.02.19-.16.4-.37.54-.14.1-.22.16-.24.18-.01.02-.03.05-.05.1-.05.11-.09.15-.15.15-.11,0-.21-.11-.27-.31-.04.03-.07.05-.1.06-.12.09-.19.13-.2.14-.05.02-.17.06-.37.11-.26.06-.48.17-.54.27l-.09.16-.04.02c-.05,0-.11-.07-.14-.17-.06-.22-.1-.45-.1-.6,0-.38.12-.62.51-1.01v-.09c0-.59.44-.98,1.1-.98h.11s.36.02.36.02h.03c.19,0,.37-.07.57-.23.26-.21.33-.34.33-.58,0-.08-.02-.16-.1-.43-.05-.18-.08-.34-.08-.5,0-.44.32-.98.75-1.28.11-.08.19-.18.19-.24,0-.02-.01-.04-.03-.04-.03,0-.08.03-.13.08-.05.05-.14.1-.25.16l-.17.08-.19.07c-.06.02-.09.06-.09.09,0,.02,0,.06.02.1.01.03.02.06.02.08,0,.02-.02.07-.05.12l-.15.24c-.14.24-.25.34-.43.42-.12.35-.29.53-.54.56-.2.4-.38.54-.73.58-.05.16-.13.28-.32.49-.08.08-.12.14-.14.17-.08.15-.09.16-.13.16-.05,0-.16-.07-.24-.16-.04-.04-.07-.08-.09-.13l-.1-.17c-.03-.06-.06-.08-.1-.08h-.07s-.23.04-.23.04c-.15.02-.35.14-.42.24l-.13.19s-.03.03-.05.03c-.1,0-.15-.21-.15-.56,0-.3.05-.51.15-.65l.3-.41c.04-.06.06-.11.06-.16s-.02-.09-.05-.14c-.06-.07-.12-.12-.17-.13l-.22-.03s-.06-.02-.06-.03c0-.02.01-.04.03-.07.07-.09.16-.17.26-.23.26-.16.43-.22.61-.22s.37.06.55.18l.31.2s.09.04.15.04c.14,0,.25-.08.35-.28.1-.18.14-.33.14-.49,0-.4-.28-.69-.68-.69-.18,0-.37.07-.55.21-.05.04-.09.08-.11.12l-.08.19s-.05.07-.08.07c-.05,0-.17-.15-.27-.35-.05-.1-.1-.23-.15-.38-.06-.21-.09-.36-.09-.53l.02-.29c-.14-.23-.19-.39-.19-.66,0-.1.01-.17.08-.37-.09-.15-.12-.26-.12-.47v-.13s.04-.15.04-.15l.02-.13c-.1-.13-.13-.22-.23-.69-.06-.26-.09-.38-.14-.45-.02-.03-.03-.05-.03-.06,0-.06.15-.12.32-.12h.15c-.04-.09-.05-.13-.05-.2,0-.13.03-.28.08-.42.05-.16.07-.21.07-.26,0-.13-.02-.25-.05-.32l-.08-.21s-.03-.08-.03-.11c0-.02.01-.03.05-.03.21,0,.6.23.91.52.31.29.41.53.41.97l-.02.23c.29.25.41.46.41.69,0,.17-.05.28-.21.43-.28.28-.35.43-.35.8,0,.56.17.87.48.87.27,0,.48-.3.52-.73l.03-.4c0-.1.03-.23.05-.38.02-.1.03-.22.03-.28,0-.14-.09-.32-.37-.65-.3-.35-.4-.54-.4-.81,0-.33.22-.56.53-.56.08,0,.11.01.2.06,0-.18.01-.22.12-.48.08-.2.17-.35.21-.35.01,0,.04.01.06.04.05.04.09.08.14.12.07.05.1.07.11.07.02.02.05.05.1.1.07-.24.13-.35.33-.54.15-.15.2-.19.23-.19.02,0,.05.02.08.05l.13.17.18.2c.07.08.09.14.13.33l.1-.06.17-.1s.07-.05.13-.09c.03-.02.05-.03.07-.03.02,0,.04.03.05.08l.06.24.14.28c.04.08.05.15.05.27v.07s.07,0,.07,0c.21,0,.39.25.39.53,0,.38-.3.87-.69,1.12-.04.13-.04.18-.04.28,0,.84.22,1.02,1.51,1.21.32.05.61.11.87.18.04.01.32.1.83.28.29.1.48.14.63.14.16,0,.24-.05.24-.13,0-.14-.21-.27-.86-.53l-.92-.36c-.93-.37-1.37-.94-1.37-1.78,0-.98.73-1.72,1.71-1.72.37,0,.73.08,1.25.27.67.24.7.25.77.25.13,0,.2-.09.22-.28.02-.16.06-.22.15-.22.13,0,.27.12.37.32.09.17.14.37.14.55,0,.35-.18.58-.52.65-.22.29-.51.44-.85.44-.42,0-.63-.08-1.35-.53-.26-.16-.37-.2-.55-.2-.25,0-.44.16-.44.37,0,.19.16.32.51.42.21.06.24.07.35.18.08-.02.12-.03.18-.03.34,0,.77.19,1.12.49.65.2,1.23.91,1.23,1.5,0,.65-.56,1.24-1.2,1.24-.17,0-.51-.05-.82-.13" fill="#1d1d1b"/><path d="M82.92,110.81l.04-.12.04-.15s.05-.09.12-.18c.11-.14.16-.32.16-.53,0-.07-.02-.13-.06-.21-.02-.04-.03-.07-.03-.1,0-.01,0-.03.02-.05.01-.02.03-.03.04-.03h0s.07.03.11.07c.04.06.08.09.11.09.05,0,.1-.08.12-.2.01-.06.02-.1.02-.11,0-.05-.04-.18-.1-.3-.02-.04-.03-.08-.03-.11,0-.04.02-.07.06-.07.03,0,.08.03.14.09.03.03.06.04.08.04.07,0,.11-.07.16-.23.03-.1.04-.15.04-.17,0-.03-.01-.05-.04-.05h-.04s-.12.02-.12.02c-.19,0-.46-.13-.59-.29l-.3-.36c-.11-.14-.27-.35-.26-.35l-.24-.16s-.06-.06-.06-.09c0-.04.04-.07.1-.07.06,0,.23.06.54.2.3.13.78.23,1.07.23.51,0,.92-.41.92-.91,0-.27-.12-.52-.42-.87-.06-.07-.15-.13-.2-.13-.03,0-.06.03-.06.06,0,.03.01.07.03.12.01.03.02.07.02.1,0,.05-.02.08-.05.08-.07,0-.14-.11-.19-.3-.07-.24-.21-.38-.53-.54-.12-.06-.28-.12-.33-.12-.02,0-.03.02-.03.05,0,.04.02.08.04.13.05.07.08.14.08.2h0c0,.05-.02.07-.06.07-.07,0-.08-.02-.24-.25-.08-.12-.29-.28-.48-.36-.06-.03-.12-.04-.18-.04h0s-.07.02-.07.04c0,0,.02.04.05.1l.02.06s-.02.06-.05.06c-.06,0-.26-.16-.41-.34-.17-.19-.27-.44-.27-.64,0-.41.39-.77.82-.77.11,0,.2.02.27.05l.37.19.43.29c.25.16.59.29.8.29.08,0,.13-.01.33-.07.1-.03.17-.07.17-.11h0s-.04-.03-.04-.03l-.23-.02c-.13-.01-.42-.15-.65-.3l-.49-.32-.43-.18s-.05-.04-.05-.06.02-.04.05-.04c0,0,.04,0,.12.02l.4.12c.1.03.26.1.49.22.44.24.73.34.94.34.24,0,.42-.17.42-.4,0-.08-.02-.2-.04-.3-.01-.05-.03-.1-.06-.14-.02-.03-.04-.04-.05-.04-.03,0-.05.03-.05.09v.07s0,.06,0,.06c0,.2-.08.26-.29.26-.18,0-.41-.07-.95-.28-.5-.2-.82-.28-1.13-.28-.8,0-1.49.65-1.49,1.39,0,.64.42,1.13,1.29,1.49l.9.37c.74.31,1.02.53,1.02.82,0,.24-.22.4-.57.4-.15,0-.34-.04-.68-.15-.84-.27-1.39-.38-1.87-.38-.78,0-1.34.22-1.79.69-.06.06-.09.08-.15.08-.04,0-.07-.01-.15-.06-.08-.05-.17-.08-.23-.08-.08,0-.2.07-.25.14l-.11.14s-.07.06-.09.06c-.08,0-.21-.13-.3-.29-.05-.1-.09-.19-.11-.28-.01-.07-.02-.18-.02-.29v-.2s.04-.21.04-.21c.01-.1.03-.16.03-.18,0-.03.03-.04.05-.04.05,0,.08.05.08.17v.07s0,.05,0,.05c0,.3.12.58.25.58.1,0,.19-.19.27-.55.01-.07.04-.12.08-.12.04,0,.07.05.1.21.02.1.09.25.16.34.04.05.08.09.12.09.09,0,.14-.13.18-.44.02-.12.05-.19.09-.19.02,0,.03,0,.04.02,0,0,.03.05.07.12.03.04.07.08.12.11.05.03.1.04.12.04.03,0,.07-.02.1-.04.05-.04.07-.07.07-.09,0-.02-.02-.05-.06-.09-.07-.07-.12-.17-.19-.35-.04-.12-.08-.2-.09-.24-.02-.04-.03-.06-.05-.07h-.03s-.06,0-.06,0c-.01,0-.09.02-.22.06h-.07s-.05,0-.05-.04c0-.03.04-.08.09-.12.27-.21.43-.57.49-1.09.04-.32.08-.44.21-.63.03-.04.05-.06.07-.06.04,0,.06.03.06.09,0,.04-.01.09-.03.15-.01.04-.02.08-.02.13v.04s.02.06.02.06l.12-.04.13-.15c.08-.09.14-.29.14-.43,0-.1-.02-.17-.08-.24-.07-.08-.11-.11-.16-.11h-.07s-.08.01-.08.01c-.07,0-.1-.02-.1-.06l.02-.08v-.12s-.05-.26-.05-.26l-.05-.13-.03-.11-.07.05-.16.09s-.08.06-.13.12c-.15.18-.16.19-.22.19-.04,0-.06-.01-.06-.04v-.05c.03-.1.04-.17.04-.22,0-.18-.13-.46-.3-.62-.22.21-.34.44-.34.67v.13s-.02.07-.05.07h0s-.05-.02-.08-.05l-.13-.17s-.07-.06-.17-.14c-.02-.02-.05-.04-.08-.07l-.04.08c-.1.21-.14.34-.15.51,0,.14-.02.18-.05.18-.02,0-.04,0-.07-.02-.16-.09-.18-.1-.24-.1-.19,0-.32.14-.32.34,0,.08.04.2.13.35.1.17.24.33.31.33.02,0,.02-.01.02-.07v-.02s-.01-.18-.01-.18l-.02-.14v-.02s.01-.06.05-.06c.1,0,.18.28.25.84.06.49.2.83.41,1.03.05.05.09.09.09.11,0,.02-.02.03-.04.03-.03,0-.08-.02-.14-.05-.04-.02-.08-.03-.12-.03-.11,0-.22.12-.24.26l-.1.6-.07.85c-.01.16,0,.37.06.64.05.23.07.4.07.5,0,.64-.39,1.14-1.05,1.33l-.68.2c-.42.13-.63.4-.69.92.11-.09.14-.1.31-.13l.2-.03c.08-.01.15-.03.18-.05.02-.01.06-.05.12-.12l.18-.2c.07-.08.13-.12.17-.12.03,0,.05.03.05.06,0,.04-.03.1-.08.18-.05.08-.08.17-.08.27,0,.13.03.22.17.42.02-.06.03-.11.04-.13.02-.03.07-.11.16-.22.15-.19.25-.39.25-.48,0-.16.02-.22.06-.22.03,0,.04,0,.06.1,0,.02.01.04.03.06.02.03.05.04.06.04.01,0,.04-.01.08-.04.07-.05.13-.1.17-.15.04-.06.08-.12.11-.19.03-.09.05-.16.05-.2v-.14s.01-.07.03-.07c.03,0,.08.06.11.12.02.04.04.05.07.05h0s.07-.02.09-.04c.13-.13.21-.28.21-.4v-.2s-.05-.16-.05-.16h0s.02-.07.05-.07c.05,0,.1.07.17.22.03.07.06.11.1.11.05,0,.09-.04.19-.18l.1-.14s.03-.07.03-.11c0-.04-.01-.07-.03-.1l-.08-.13s-.02-.06-.02-.11c0-.14.05-.31.16-.5.08-.14.12-.23.14-.27.02-.04.03-.06.06-.06.02,0,.04.03.04.05v.12s0,.08,0,.08v.08s.04.05.09.05c.03,0,.07,0,.11-.02l.26-.1c.06-.02.14-.06.24-.12.41-.23.54-.28.74-.28.12,0,.28.05.5.15.05.02.08.03.11.03.03,0,.06-.02.09-.05.02-.02.03-.05.03-.08,0-.04-.01-.08-.04-.13-.03-.06-.06-.13-.06-.16,0-.03.02-.05.05-.05.02,0,.06.03.08.06.03.05.11.19.24.42.2.35.45.6.68.65l.46.11c.14.03.18.09.18.27,0,.33-.16.62-.42.79l-.38.25c-.14.09-.25.33-.25.53,0,.13.03.36.07.55l.07-.07.18-.11.16-.16.08-.23.08-.21c.04-.1.09-.17.12-.17.04,0,.06.06.06.16v.03s0,.04,0,.04c0,.15.02.22.14.45" fill="#fd0"/><path d="M76.66,113.84c0-.5.18-.72.91-1.1,1.43-.73,2.21-1.4,2.21-1.91,0-.1-.03-.25-.13-.57-.06-.2-.09-.36-.09-.46,0-.24.19-.59.44-.81l.2-.18c.11-.1.19-.24.19-.33v-.05s0-.06,0-.06c0-.1.04-.14.15-.15h.1s.08-.03.08-.03c.03,0,.07.02.09.05l.05.08.07.08s.05.04.07.04c.01,0,.04-.01.08-.03.05-.03.09-.04.13-.04.05,0,.08.03.08.09,0,.21-.14.52-.38.85-.4.55-.54.85-.54,1.2,0,.28.08.52.23.72.03.04.04.06.04.08,0,.03-.03.08-.07.13-.02.02-.04.05-.06.08-.08.12-.14.17-.2.17-.04,0-.08-.03-.1-.09l-.04-.12s-.04-.05-.06-.05c0,0-.03.02-.05.04-.03.04-.04.08-.04.12v.18c0,.07-.03.15-.07.21-.04.06-.09.11-.15.16-.04.04-.07.05-.08.05-.03,0-.06-.03-.08-.08l-.06-.21s-.03-.05-.05-.05c-.04,0-.07.06-.07.15-.02.24-.06.39-.13.45l-.15.14s-.1.08-.13.08-.06-.01-.07-.04l-.07-.16s-.03-.03-.05-.03c-.04,0-.07.08-.09.24-.04.38-.12.55-.33.7-.16.12-.2.16-.26.3-.09-.14-.13-.25-.13-.42,0-.09.01-.15.04-.2.04-.08.07-.14.07-.18,0-.03-.02-.05-.04-.05,0,0-.03.01-.05.04-.03.03-.08.07-.14.11-.19.11-.22.15-.26.36-.06.28-.2.42-.49.48-.36.07-.38.08-.51.2v-.19Z" fill="#fd0"/><path d="M75.98,102.9v.26c0,.06,0,.1-.02.17-.03.15-.04.2-.04.24,0,.2.03.3.15.51.07.12.11.25.11.36,0,.04-.02.07-.05.07-.02,0-.04-.01-.05-.03l-.08-.12c-.07-.09-.13-.12-.3-.12h-.18c.07.19.1.26.13.38.09.35.1.37.29.54.19.17.21.19.21.25,0,.05-.03.09-.07.09h-.07s-.04-.02-.04-.02c-.06,0-.11.11-.11.22,0,.07.03.18.07.27.03.06.05.11.07.13l.11.11s.04.07.04.11c0,.05-.03.09-.06.09-.02,0-.05-.01-.09-.03-.03-.01-.05-.02-.08-.02-.05,0-.07.03-.07.09l.02.16.06.28c.01.06.05.13.12.2.05.06.11.1.16.13.13.06.2.09.21.1.02.01.03.05.03.08s-.03.07-.07.07c-.01,0-.05,0-.11-.02h-.11c-.11-.01-.11,0-.11.08,0,.05,0,.11.02.16l.04.17c.04.18.1.28.17.28.01,0,.04-.02.08-.04.15-.12.46-.22.65-.22s.42.02.51.05c.05.02.08.03.1.03.03,0,.03-.03.04-.12l.02-.19.04-.33.03-.24v-.14s-.07.06-.09.07c-.18.17-.29.22-.48.22-.49,0-.76-.55-.76-1.5,0-.39.06-.95.17-1.59.02-.13.03-.23.03-.29,0-.35-.22-.69-.6-.94" fill="#fd0"/><path d="M76.7,105.28l.1-.09.1-.08c.08-.07.14-.22.14-.33,0-.05-.01-.1-.04-.15-.04-.08-.11-.15-.15-.15-.04,0-.07.09-.08.22l-.02.16-.03.16v.16s-.01.11-.01.11Z" fill="#fd0"/><path d="M75.77,109.62c.11.04.13.06.24.19.15.17.23.21.42.21.05,0,.1,0,.15-.02l.14-.04.11-.03c.05-.01.08-.04.08-.05,0-.02-.08-.09-.21-.18-.08-.06-.17-.11-.25-.15-.09-.05-.17-.07-.24-.07-.15,0-.29.05-.43.14" fill="#fd0"/><path d="M77.19,112.6c0-.34.33-.62.74-.62.2,0,.32.04.32.11,0,.05-.09.13-.29.23-.02,0-.12.07-.31.17-.21.12-.28.15-.46.23v-.12Z" fill="#fd0"/><path d="M81.49,110.03c.15-.03.2-.07.27-.07h.19s.07-.03.13-.08c.03-.03.08-.06.15-.11.21-.14.22-.15.22-.2,0-.06-.09-.09-.26-.09-.33,0-.54.16-.7.54" fill="#fd0"/><path d="M78.3,103.57l.15.1c.08.05.15.09.21.12.16.07.22.09.22.15,0,.02,0,.08-.02.12-.02.05-.03.1-.03.15-.01.14-.1.18-.16.18-.07,0-.15-.11-.26-.32-.05-.09-.13-.28-.17-.42v-.04s0-.04.04-.04" fill="#1d1d1b"/><path d="M79.73,103.94l-.24.25c-.09.11-.09.21-.11.23-.02.01-.04.03-.07.03h-.02c-.06,0-.11-.04-.11-.11v-.18s-.02-.18-.02-.18h0c0-.08.04-.12.09-.13l.22-.06.23-.12c.07-.03.09-.04.1-.04.03,0,.05.03.05.06,0,.01,0,.04-.02.07l-.11.18Z" fill="#1d1d1b"/><path d="M78.66,104.66l.16.12s.09.04.14.04c.06,0,.16-.03.25-.07l.14-.06s.06-.02.08-.02c.08,0,.15.09.15.2,0,.16-.11.32-.28.55l-.12.24c-.09.13-.15.18-.23.18-.13,0-.19-.07-.37-.45-.14-.27-.19-.43-.19-.56,0-.11.06-.19.14-.19.03,0,.08,0,.12.02" fill="#1d1d1b"/><path d="M78.8,105.25v.2c.01.09.09.18.16.18.1,0,.17-.15.2-.37.02-.1.02-.12.02-.15,0-.08-.03-.1-.13-.1h-.06s-.07,0-.07,0h-.05c-.07,0-.09.05-.09.18" fill="#fd0"/><path d="M66.91,100.45h1.03v2.13h1.22v-2.11h3.07v2.11h1.21v-2.11h1.03v-5.5h-1.18l-.04-.06c-.14-.21-.33-.32-.57-.32s-.43.14-.56.39h-.85c-.08-.22-.32-.39-.57-.39-.27,0-.49.14-.6.39h-.92c-.15-.27-.32-.38-.59-.38s-.44.12-.57.38h-1.12v5.47Z" fill="#1d1d1b"/><rect x="67.35" y="95.42" width="6.71" height="4.62" fill="#e63329"/><path d="M68.05,96.48c-.18,0-.32.14-.32.32s.14.32.32.32.32-.14.32-.32-.14-.32-.32-.32" fill="#fd0"/><path d="M68.05,97.17c-.2,0-.36-.16-.36-.36s.16-.36.36-.36.36.16.36.36-.16.36-.36.36M68.05,96.52c-.15,0-.28.12-.28.28s.12.28.28.28.28-.12.28-.28-.12-.28-.28-.28" fill="#1d1d1b"/><path d="M73.32,96.48c-.18,0-.32.14-.32.32s.14.32.32.32.32-.14.32-.32-.14-.32-.32-.32" fill="#fd0"/><path d="M73.32,97.17c-.2,0-.36-.16-.36-.36s.16-.36.36-.36.36.16.36.36-.16.36-.36.36M73.32,96.52c-.15,0-.28.12-.28.28s.12.28.28.28.28-.12.28-.28-.12-.28-.28-.28" fill="#1d1d1b"/><path d="M68.05,98.99c-.18,0-.32.14-.32.32s.15.32.33.32c.17,0,.31-.14.31-.32s-.14-.32-.32-.32" fill="#fd0"/><path d="M68.06,99.68c-.21,0-.37-.16-.37-.36s.16-.36.36-.36.36.16.36.36-.16.36-.35.36M68.05,99.04c-.15,0-.28.12-.28.28s.13.28.29.28c.15,0,.27-.12.27-.28s-.12-.28-.28-.28" fill="#1d1d1b"/><path d="M73.32,98.99c-.18,0-.32.14-.32.32s.14.32.32.32.32-.14.32-.32-.14-.32-.32-.32" fill="#fd0"/><path d="M73.32,99.68c-.2,0-.36-.16-.36-.36s.16-.36.36-.36.36.16.36.36-.16.36-.36.36M73.32,99.04c-.15,0-.28.12-.28.28s.12.28.28.28.28-.12.28-.28-.12-.28-.28-.28" fill="#1d1d1b"/><path d="M69.05,98.02c.43.54.98.81,1.65.81.63,0,1.06-.23,1.56-.81-.51-.52-.97-.74-1.59-.74-.65,0-1.24.27-1.62.74" fill="#fd0"/><path d="M69.37,98.02c.45-.35.82-.49,1.29-.49s.82.14,1.28.5c-.4.4-.75.55-1.29.55-.48,0-.91-.19-1.28-.56" fill="#1d1d1b"/><path d="M69.91,97.91c.27.17.48.23.73.23.29,0,.54-.07.77-.23-.25-.12-.51-.18-.76-.18s-.52.06-.74.18" fill="#fd0"/><rect x="67.26" y="95.66" width="6.9" height=".24" fill="#1d1d1b"/><path d="M74.17,95.91h-6.93v-.26h6.93v.26ZM67.27,95.88h6.87v-.21h-6.87v.21Z" fill="#1d1d1b"/><path d="M68.32,95.36v.66c0,.16.12.28.28.28.19,0,.29-.1.29-.28v-.65c0-.25-.1-.41-.27-.41-.03,0-.08.01-.13.03-.04.02-.06.03-.07.04-.03.02-.05.05-.06.09-.03.06-.04.1-.04.12" fill="#fd0"/><path d="M70.39,95.9v.12c0,.16.12.28.28.28.19,0,.29-.1.29-.28v-.65c0-.25-.1-.41-.26-.41-.19,0-.31.16-.31.4" fill="#fd0"/><path d="M72.41,95.36v.66c0,.16.12.28.28.28.19,0,.29-.1.29-.28v-.65c0-.25-.1-.41-.27-.41-.03,0-.08.01-.13.03-.04.02-.06.03-.08.04-.02.02-.05.05-.06.09-.03.06-.04.1-.04.12" fill="#fd0"/><rect x="68.17" y="100.95" width=".63" height=".81" fill="#fd0"/><rect x="68.17" y="101.94" width=".63" height=".26" fill="#fd0"/><rect x="72.45" y="100.95" width=".63" height=".81" fill="#fd0"/><rect x="72.45" y="101.94" width=".63" height=".26" fill="#fd0"/></g></g><g clip-path="url(#d)"><g filter="url(#e)"><g clip-path="url(#g)"><path d="M337.4,694.27c-11.14,7.53-21.41,21.19-25.94,26.47-1.24-.39-2.38-.93-3.6-1.31,1.01-6.63-2-13.41-3.87-19.76,14.22-25.1,28.44-50.19,40.65-76.16-2.94,19.45-6.5,70.14-7.23,70.77M304.5,734.85c-.44,1.11-.88,2.26-1.31,3.44,1.01.62,4.32-.64,6.49-1.61-1.1,4.73-2.76,10.19-3.72,15.51,1.16.57,5.12-1.23,7.58-2.05-.18,2.44-1.61,5.91-.79,8.37,1.72-1.14,5.44-2.94,8.62-3.6,2.15,8.12,7.58,13.27,11.49,20.26-16.17,4.62-36.07-11.35-47.57,5.76-1.1,3.52-.61,6.09-.61,6.09-4.8,3.68-8.06,8.95-6.73,15.19,5.94,12.37,17.98,6.51,22.39,1.11,2.01-.11,4.19-1.23,6.18-.32-3.39,4.84-8.77,16.32,3.8,21.27,9.74-.27,14.59-4.37,18.73-11.07,6.47-13.03,16.13-19.48,27.37-21.45,2.37,4.23,5.14,10.19,10.44,11.01,11.24.38,12.95-9.3,11.3-14.08-8.17-13.14-16.17-11.97-23.1-18.3-2.85-9.14,5.87-15.04,11.69-19.55,18.04-13.7,76.12-10.85,66.93,17.47-2.05,7.08-7.52,2.9-11.15,5-4.19,1.66-8.69,4.04-10.21,8.77-.63,3.59.17,16.2,27,8.47,10.39,2.03,17.11,8.02,21.37,10.41,2.38,3.93,2.71,3.35,4.86,4.44,3.85,12.28,32.69,13.75,26.96-8.79-4.85-8.09-11.19-8.71-17.76-10.71l12.78-.06c2.05,6.39,9,3.05,11.49,8.43,3.58.93,8.01,2.02,11.35-.09,3.64-2.67,6.27-5.37,6.49-9.99-.34-4.76-2.42-9.56-7.11-12.23-.51-3.76-2.3-7.83-6-9.78-14.41-5.87-26.3,4.59-41.08,4.19l-1.8-.46c3.81-4.26,5.78-9.86,7.16-14.74,1.92.77,1.76,1.52,4.3,2.74,1.33-2.43,1.04-4.67,1.38-7.4,2.16-.25,4.68,3.11,7.15,1.41.21-3.44-2.32-6.66-3.27-10,3.01-.1,10.44,2.65,10.44,2.65-7.64-22.02-21.82-34.45-37.27-46.12.14-11.68-12.81-69.58-21.24-86.06,20.69-8.65,89.92-31.87,89.92-31.87,2.02.72.29,3.89,2.73,4.47,2.45.43,3.74-2.02,5.61-3.17,1.29,1.59,1.14,3.75,3.01,4.9,3.31-1.58,5.03-5.33,5.6-8.65,2.58-.72,6.03,4.47,7.9,1.01-.57-3.32-2.73-6.06-4.45-8.95,0,0,16.81-6.06,21.69-12.84-.15-2.31-6.04-4.03-6.17-4.47,6.03-2.59,13.79-4.03,17.24-10.38-1.73-3.32-6.47-2.74-9.63-2.74,5.89-3.47,13.93-6.35,16.51-13.86-.63-.8-1.44-1.2-2.34-1.37l.63-.25c4.36-2.29,6.48-5.43,7.25-6.84.48-6.84,11.57-17.35,11.89-18.31.32-2.22-3.33-3.34-5.07-4.93,9.2-2.55,16.19-11.15,18.41-19.75,3.9-.03,18.49-2.91,27.71-6.99,7.33-5.74,9.04-11.77,6.03-19.09-1.27-2.71-3.33-4.77-6.03-5.73-10.62,2.71-20.44,8.76-31.22,10.19v-.63c9.83-4.94,33.38-17.22,19.34-42.5-2.85-2.71-7.29-4.3-11.73-3.02-7.61,7.79-10.62,20.05-21.72,25.62-1.43.15-2.37-.95-3.32-1.91,7.28-10.19,14.73-24.35,8.24-37.08-4.28-4.93-12.34-8.29-15.85-7.32-4.44.16-7.29,3.82-9.2,7.32-3.48,10.67-.63,22.28-5.39,32.47h-1.1c1.58-14-.79-29.29-14.1-37.08-5.39-3.5-12.05-3.18-17.76-.32-12.84,15.28,9.03,25.78,7.61,41.22l-6.18,11.78c-7.61-6.36-17.91-11.46-28.85-8.75-5.71,1.59-10.14,5.72-13.31,10.34-1.11,4.14-2.85,8.44,0,12.25,9.03,8.92,24.08,3.35,35.02,7.64,3.33,4.3,4.29,9.71,7.61,14.16-.32,1.27.64,2.07.32,3.35,0,0-6.98-5.58-10.31-4.94-.95,2.23.32,5.57.48,8.44-.13,3.8-.81,7.54-1.57,11.31-.35,1.42-.72,2.72-1.08,4.04-2.59-2.16-3.58-6.49-7.17-5.92-2.01,4.91-.72,12.7.29,18.32-1.87,0-4.88-2.89-6.9-1.01-1.72,7.64.53,14.76,3.39,20.67-11.01-11.06-11.72-3.49-11.58-1.91,2.01,8.08,2.59,18.82,4.6,26.9,0,0-27.56,7.46-41.35,11.07,9.49-21.41,9.49-59.84-21.57-78.21,5.18-2.17,8.34-7.64,9.34-12.84.72-5.91-2.16-11.25-6.18-15.58-4.02-3.03-13.46-9.48-22.41,2.89-11.05-20.77-32.61-34.47-54.15-39.81,2.73-4.18,8.47-8.22,8.62-12.84,0,0-14.47.9-29.3,11.11-2.3-5.35-4.45-13.7-11.35-13.85-1.14,4.62-.58,9.67-1.72,13.42-6.47-3.61-14.08-6.78-22.41-6.93,0,0-6.66-2.14,7.61,11.39-7.76-.29-15.37,1.45-21.83,5.2,1.15,3.61,6.17,3.03,8.33,5.62-7.9,2.59-16.09,5.05-22.41,11.4,1.01,3.17,6.32,1.15,8.91,1.73-31.39,22.89-21.84,65.05-12.07,77.61-8.04-2.6-17.81-3.17-24.7,3.02-12.35,15.71,2.75,38.27,21.97,42.55,17.36,5.15,21.12-9.95,21.12-9.95,6.18,11.39,17.53,21.2,28.15,28.41-.86,1.01-3.38,1.83-2.73,2.74.43,1.59,2.73,1.59,2.73,3.47-3.59.29-7.04,5.48-4.74,6.92-2.73,1.16-6.04,3.04-7.33,5.92,1.72,1.73,4.6.58,6.6,1.73-11.38,24.56-47.97,71.27-47.97,71.27-6.04,3.17-12.5,5.77-17.53,11.39-.14.86,3.16,1.01,4.17,2.16l-11.35,10.96c-8.19-2.74-118.66-49.67-65.21-147.13,23.26-40.54,73.11-72.56,65.5-125.21-15.53-73.3-93.44-68.37-117.5-51.35-9.19,8.22-13.65,20.04-13.5,33.6,15.08,35.75,52.59-20.09,85.47,5.63,15.22,19.47,3.3,44.86-6.9,62.61-7.76,13.71-36.35,56.83-40.93,65.48-47.56,121.28,62.47,170.93,78.57,176.85-1.58,2.02-3.88,4.18-5.17,6.63,1.15.87,4.6.72,3.01,3.03-5.17,9.95-13.07,18.9-16.8,29.44.14,1,3.73,1.29,5.17,2.16-5.75,5.62-5.17,13.13-3.16,20.34-8.04,9.52-17.24,19.61-16.53,33.32,1.16,8.37-.57,19.62,9.34,24.23,6.47,4.04,13.5-5.78,18.23,3.03,4.6,1.44,9.92.72,13.51-2.45,4.74-1.87,6.03,5.48,10.91,2.89,4.32-.58,6.61-4.76,8.05-8.36,7.32,4.47,18.24,2.45,24.71-2.46,2.87-2.59,4.3-6.49,3.16-10.39-3.74-8.51-14.36-3.89-20.68-7.64-2.88-3.04-5.61-6.06-6.9-9.67,4.45-.86.15-4.62,1.01-7.21.43-2.02,1.44-3.75,2.16-5.62.58,2.3,1.01,2.88,3.44,3.46,3.16-4.9,4.74-10.54,5.46-16.59,1.66,0,1.95,3.33,3.77,3.53.75-1.41,1.63-2.76,2.59-4.1.68-3.97.07-8.6-.47-12.27,1.44,1.3,3.45,2.74,5.89,3.89-3.44-10.97,2.59-21.49,5.46-31.59,1.58,1.3,2.73,5.48,5.46,4.18,2.87-3.32,3.01-7.64,3.87-11.69l2.52.14Z" fill="#1d1d1b"/><path d="M563.97,523.54v-1.01c4.34-1.86,17.56-10.85,18.04-11.09-2.05-.64-3.79.89-5.55.17.82-.8,1.61-1.62,2.35-2.48,5.57-3.2,10.09-9.73,14.29-14.09-5.07-4.93-20.44-2.06-20.61-1.9-3.96-.64-.47-5.41-1.57-7.65-3.01.32-9.83,4.94-9.83,4.94-1.27-4.77-3.32-9.24-6.81-13.05-2.07,3.34-1.43,8.43-5.39,10.34-2.06-4.62-4.6-9.07-8.71-12.89-.64,2.07-3.49,7.64-3.49,7.64l-6.82-7c.09,8.9-2.26,17.47-3.9,26.24l.04.27c-.12.36-.25.73-.39,1.08-4.02-2.31-3.02-7.79-7.19-9.67-.28,7.36,1.44,13.99,3.74,20.34-3.87,2.46-5.31-4.76-9.19-4.47.29,7.51,1.73,14.57,4.02,21.21-4.45.72-7.47-5.35-11.64-5.63.58,9.52,4.6,19.19,3.02,29.86l-45.82,12.41c-13.4,22.52-53.45,57.15-111.6,31.44,0,.43-8.04-7.07-13.5-6.49-2.02-.87-4.17-1.3-6.61-1,.87,2.16,2.6,3.23,3.87,6.2-.71.29-9.62-1.01-12.49-.71,2.59,1.15,6.75,2.16,8.33,5.19-2.45,2.74-7.04.29-9.34,3.46,1,.3,4.88.58,6.6,2.46-14.36,25.67-31.6,50.19-49.7,74.43-5.03,2.17-10.34,4.48-14.51,7.94.72,1.44,4.17,1.16,3.16,3.47-7.04,6.92-14.07,11.67-19.97,19.32,2.01-.14,4.46-2.6,5.89-.28-10.5,7.77-13.21,12.83-16.95,17.59,1.01.72,2,1.15,2.73,2.16-3.44,11.1-13.65,19.62-17.24,30.73,2.16.73,4.17-1.44,5.61,1.16-1.01,4.17-5.32,7.06-6.32,11.39,2.58,5.33.86,11.69,2.87,16.59-.15,2.02-1.15,3.61-2.45,4.9.43.58,3.02-.43,3.02-.43,1.87,1.73-.43,3.46-.57,5.19,3.87.58,6.46-3.89,9.91-2.02.14,2.46-2.74,3.61-3.02,5.91,4.46,1.74,8.62-3.02,13.79-2.45,1.44,1.15,0,2.74,0,4.19,4.59.87,4.74-9.95,8.62-3.47,0,1.3.57,2.31,1.29,3.47,1.72-2.16-.43-6.06,1.72-7.65,2.73.14,4.3,3.61,6.6,4.76-1.29-4.62.43-10.38,3.74-13.41.58.15,3.16,3.03,3.16,3.03,2.88-5.34,3.73-11.68,3.73-18.32,3.74-.72,3.02,4.32,5.61,5.92,2.16-6.2-1.29-12.84-1.15-19.04.72-1.88,4.31,1.73,5.17,2.45.43-9.95,9.34-28.56,10.06-27.68l3.73,4.75c7.52-13.7,1-26.83,3.88-28.99,2.01,0,3.02,2.31,4.45,3.46-.71-5.62-1.87-11.83-4.88-17.02,15.08-28.85,49.41-88.57,49.41-88.57-2.35,19.14-4.29,38.49-6.03,58.18-1.46,7.53-1.6,18.05-2.68,23.53,3.02-.38,2.29-1.3,7.12-1.5-20.47,8.67-34.98,30.85-40.22,42.87,2.14.76,5.07-2.65,7.48-.88-2.1,5.01-4.48,9.88-5.44,15.49,2.59-.38,4.92-1.79,7.38-2.75-1.16,3.8-1.11,5.9-1.59,8.63,2.75-.82,5.21-2.22,7.95-2.6,1.44,8.25,8.64,15.29,12.1,23.15-.04,2.59-2.91,2.26-4.5,2.95-12.51.99-30.64-5.67-33.44-1.89,1.87.17,2.5,5.09,1.91,5.51,8.36-1.3,17.1.16,24.13.71-6.58.49-14.51.03-21.71,1.36-4.62,1.51-9.66,2.14-13.87,4.95,3.44.35,6.42,2.42,7.51,5.76.43,7.82-11.45,5.42-14.27,2.78-.92,2.59-.19,11.55,9.6,9.55,3.17-.52,8.63-3.91,7.66-11.26,2,1.05,1.09,3.77,1.63,5.51,1.87-.11,3.16-.82,3.51-3.4,1.14.74,1.12,1.75,1.09,2.9-.27.42,3.43.71,3.57.71,6.33-5.93,17.23-10.21,22.01-9.36-7.66,2.61-13.9,6.1-20.46,11.48,2.87-.1,7.31.99,8.82,4.63.95,3.63-5.96,11.9-13.58,4.24-.9,2.57,1.44,11.51,11.36,8.13,12.55-3.24,11.51-17.83,22.1-23.85,5.23-2.79,10.32-6.6,16.37-7.64.37-1.23-1.4-5.09-1.62-6.24,8.24,5.2,5.37,19.65,17.95,16.91,5.25-2,4.96-5.7,4.96-5.7-10.17,4.74-12.71-3.23-11.66-5.52,1.48-2.72,4.23-3.54,6.97-3.92-5.31-8.6-25.71-8.53-18.54-24.27,4.87-8,13.59-13.76,21.98-16.93-11.4-20.07-27.78-57.08-14.92-101.03,16.3-44.98,43.96-27.7,52-22.22,16.21,16.29,21.27,39.74,19.6,62.54,2.61.64,4.98,1.51,8.25,1.51h6.5c-1.44-20.71-13.55-63.71-19.2-75.9.28-4.47,66.15-25.22,94.59-35.17,1.43,1.15,1.43,3.03,1.29,4.76,3.44,0,1.29-4.9,4.88-4.76,2.44,1,2.44,3.74,3.74,5.47,1.87-2.02,1.57-5.05,2.15-7.64,2.3-1.15,4.17.73,6.17,1.44.29-2.31-5.74-7.21-.71-8.36,5.89-4.33,13.21-5.2,18.67-10.97-1.72-2.31-8.18-.87-6.61-5.63,6.04-2.59,12.64-4.04,17.95-8.22v-1.15c-3.01-.28-8.04,1.01-10.34-1.3,3.74-5.63,12.35-6.93,16.51-13.13h-11.34Z" fill="#98874e"/><path d="M456.29,575.99c-5.52,6.77-13.01,13.77-22.27,19.47-5.67,5.86-11.22,11.04-14.99,13.2-4.76,2.75-10.58,3.13-16.19,6.3,3.88,1.68,7.04,3.74,9.02,5.08,42.98,50.2,3.31,121.95,3.31,121.95,30.53,7.14,21.92,28.09,17.39,32.77-2.01-.32-4.61.36-6.33.6,1.26,1.76,3.25,3.38,2.33,5.96-6.41,4.83-11.51,1.38-12.77-.23-1.03,1.14-.79,3.45-.37,4.77,6.48,7.03,16.77,2.03,24.82,1.87,5.83,3.71,13.64,1.88,18.59,10.34-.13-.73.24-2.65.53-3.08,1.3,2.34,3.31,6.71,6.2,7.81,1.17-1.42-.19-3.87,2.4-5.93-1.3,7.59,2.94,12.17,8.37,14.29,12.58,3.18,16.8-8.92,13.29-12.47-5.2,6.2-11.83,5.59-15.08.03-.37-6.54,5.02-7.85,7.03-8.24l-22.19-6.34s17.44-1.25,26.48-.51l.06-3.47c2.52,3.51,3.36,7.61,7.75,8.51l-.65-3.48c3.04,3.3,8.54,10.37,15.63,7.18,2.46-1.4,5.57-3.92,5.08-8.26-5.08,4.57-10.95,1.54-12.34-1.23-.8-8.45,7.19-7.35,8.91-7.03,0,0-10.07-10.61-37.08.05,5.7-5.96,15.48-6.8,24.54-6.93-.97-3.37.81-5.18.81-5.18-13.17-2.97-25.4,6.49-37.72,4.54-4.99-2.54,2.29-7.62,2.64-11.65l2.31-8.62c1.87.03,3.43,1.21,5.13,2.11,1.48-2.29-1.57-6,1.86-7.61,1.43.6,3,1.06,4.42,1.81-.36-3.9-4-9.59-3.98-10.45,3.61-.8,6.58,1.55,10.02,2.33-6.98-18.9-32.93-39.82-40.02-45.13.14-.64,3.28.68,4.86.57-2.37-24.29-16.62-73.94-21.06-83.5.29-4.47,66.15-25.22,94.59-35.17,1.43,1.15,1.43,3.03,1.29,4.76,3.44,0,1.29-4.9,4.88-4.76,2.44,1.01,2.44,3.75,3.74,5.48,1.87-2.02,1.58-5.05,2.15-7.65,2.3-1.15,4.17.73,6.17,1.44.28-2.31-5.74-7.21-.71-8.36,5.89-4.33,13.21-5.2,18.67-10.97-1.72-2.31-8.18-.87-6.6-5.63,6.03-2.59,12.64-4.04,17.95-8.22v-1.15c-3.01-.28-8.04,1.01-10.34-1.3,3.74-5.63,12.36-6.93,16.51-13.13h-11.34s14.05-5.07,18.04-12.11c-2.05-.64-3.79.9-5.55.17.83-.81,1.61-1.63,2.35-2.48,5.57-3.2,10.1-9.73,14.29-14.09-5.07-4.93-20.44-2.06-20.61-1.9-3.96-.64-.47-5.41-1.57-7.64-3.01.32-9.83,4.94-9.83,4.94-1.27-4.77-3.33-9.24-6.81-13.05-2.07,3.34-1.43,8.43-5.39,10.34-2.06-4.62-4.6-9.07-8.71-12.89-.64,2.07,6.07,6.26-1.13,21.52,0,0,6.82-4.62,9.82-4.94,1.11,2.23.2,13.84-6.4,23.88-3.29-2.59-4.46-4.95-7.98-7.31-.59,1.19-1.77,2.01-1.77,3.42v16.39c-3.75,0-5.63-1.88-9.26-2.83v9.9c0,6.84.58,10.85,2.34,17.44-1.52-2.35-2.94-3.76-5.4-5.18-2.34,4.24.94,8.6-1.88,12.5-4.34,5.89-10.8,4.7-17.61,7.3-3.49,1.31-22.72,5.4-44.63,9.06" fill="#b29e5a"/><path d="M601.61,500.45s35.09,7.68,27.41-27.26c0,0-1.33,26.1-27.41,27.26" fill="#b5bbbc"/><path d="M634.3,486.81c2.07,16.6-14.36,15.12-14.36,15.12,23.06,5.19,14.36-15.12,14.36-15.12" fill="#b5bbbc"/><path d="M365.75,634.9c-9.62,16.91-8.9,43.91-8.91,45.89.75,20.53,8.99,43.28,19.98,61.1,18.66-3.3,36.65-.66,36.65-.66,11.24-27.12,14.94-46.47,15.81-59.09,1.15-19.1-2.68-38.24-13.25-53.73-7.32-9.52-33.12-28.95-50.26,6.49" fill="#f1c6a5"/><path d="M360.87,457.76c-24.46-13.6-47.25-2.6-55.16,11.4-14.21,24.85,17.67,45.86,29.01,50.19l11.36-9.67.28.29c-2.01,2.16-3.44,4.9-6.17,6.2-10.35,12.69-15.8,28.26-12.79,45.73,12.1,46.44,85.77,60.1,125.54,12.11,14.8-14.85,16.66-39.96,10.34-58.85-11.97-32.7-48.56-39.23-54.87-39.53-1.58-2.59-.96-33.59-21.25-37.64-9.19-2.31-26.72-1.17-26.29,19.76" fill="#f1c6a5"/><path d="M360.87,457.76c-8.93-4.96-17.63-6.65-25.47-6.11.01,28.27,11.35,38.13,47,42.09,36.49,4.05,51.91,48.09,42.27,74.7-5.05,13.9-16.88,32.19-50.83,33.92,26.22,5.52,57.61-2.41,79.11-28.34,14.8-14.85,16.66-39.96,10.34-58.85-11.97-32.7-48.56-39.23-54.87-39.53-1.58-2.59-.96-33.59-21.25-37.64-9.19-2.31-26.72-1.17-26.29,19.76" fill="#fddbbd"/><path d="M378.11,482.29c-3.31-1.01-7.91-.73-11.35.72-2.59,1.44-3.88,4.18-4.17,6.93-.37,8.7,6.17,11.4,6.89,10.67-3.3-2.6-5.61-7.21-4.17-12.12,1.72-3.31,10.06-8.17,16.66,0l-2.15-4.76c1.58-2.89,4.45-4.05,7.33-4.9,9.06-1.61,8.9,9.66,8.9,9.66.64-.68,5.15-10.56-7.9-12.4-3.87.72-8.19,2.16-10.05,6.2" fill="#1d1d1b"/><path d="M396.29,485.95c0-4.31-3.71-7.79-8.29-7.79-4.13,0-7.56,2.84-8.19,6.55-1.68-1.15-3.76-1.83-6.03-1.83-5.49,0-9.95,4.04-9.95,9.01s4.45,9,9.95,9c3.36,0,6.33-1.5,8.13-3.81,1.54-4.79,4.51-3.34,6.09-3.34,4.58,0,8.29-3.5,8.29-7.8" fill="#e6b499"/><path d="M387.5,469.65c0-4.51-3.34-8.16-7.46-8.16s-7.46,3.66-7.46,8.16,3.34,8.16,7.46,8.16,7.46-3.65,7.46-8.16" fill="#f1c6a5"/><path d="M357.57,479.17c-2.65-3.96-8.06-4.96-12.08-2.24-4.01,2.72-5.12,8.13-2.46,12.09,2.66,3.95,8.07,4.96,12.08,2.23,4.02-2.71,5.12-8.13,2.46-12.08" fill="#f1c6a5"/><path d="M439.51,509.06s-4.62,31.43-46.38,37.48c-19.79,2.87-38.08-8.67-40.1-10.36-2.03-1.69,2.69-5.12,0-6.14-2.68-1.01-4.43,1.36-10.49,5.47-6.05,4.11-5.77,16.94-5.77,16.94l3.76-8.44s-1.77,28,16.03,37.57c46.79,25.19,63.06-9,63.06-9,0,0-6.36,2.19-9.39-.85-3.02-3.04-2.29-15.37.25-17.25,5.05-3.72,15.19-10.47,22.65-18.97,7.47-8.5,6.39-26.45,6.39-26.45" fill="#e6b499" fill-rule="evenodd"/><path d="M338.52,421.19c-7.93-4.53-15.29-7.42-21.03-7.85l8.47,9.33c.3,1.73-13.59,1.05-21.26,4.95,3.74,1.44,7.18,3.75,10.62,5.92-9.38,2.06-19.53,6.49-24.13,9.67,3.45.86,6.9-.58,10.77,1.3-3.72,3.89-45.48,29.08-13.07,84.24l-.43.29c-6.89-3.6-16.51-6.21-24.13-3.18-5.46,2.74-7.9,8.52-7.9,14.29.72,10.53,13.62,30.36,34.47,26.25,6.6-1.59,7.76-9.09,8.9-14.85,13.25,24.92,30.45,33.17,38.35,38.08-29.84-36.01-8.19-63.32-5.61-67.22-14.22-7.93-31.88-21.78-32.74-40.1-.29-11.69,7.04-21.63,16.66-27.7,12.07-7.64,29.73-7.07,41.94,0-.86-6.49,3.31-13.13,9.05-17.03,26.39-10.15,37.92,10.1,40.65,20.2l2.73,16.88c6.04.28,11.5,2.01,16.95,3.89-1.43-8.36-5.74-16.3-10.05-23.94-13.21-18.32-32.17-28.41-51.99-33.61l7.9-10.39c-8.47,1.44-21.61,7.85-25.57,12.11-1.96-8.78-7.9-15.14-7.9-15.14l-1.66,13.62Z" fill="#98874e"/><path d="M288.47,529.02c-6.89-3.61-16.51-6.21-24.13-3.18-5.46,2.74-7.9,8.52-7.9,14.29.72,10.53,13.62,30.36,34.48,26.25,1.46-.35,2.65-.98,3.63-1.83,1.29-1.59,2.38-3.25,3.26-4.99.98-2.58,1.5-5.47,2.01-8.03,0,0-.61-15.42-11.35-22.5" fill="#f1c6a5"/><path d="M140.24,422.42c20.11-6.2,42.37-20.48,64.2-9.09,42.28,40.37-40.53,106.21-52.14,160.4-19.48,91.75,51.71,129.97,75.56,143.66,4.45.44,8.33-.57,11.63-2.88,2.15-2.16,3.3-5.33,2.87-8.23l-1.15-2.45c-24.7-10.52-95.38-52.44-65.5-135.3,17.95-35.33,52.14-64.04,68.66-100.39,22.45-58.57-38.05-114.23-96.81-90.72-26.74,7.55-33.17,50.31-7.33,45" fill="#b29e5a"/><polygon points="129.18 425.45 127.17 424.15 128.61 425.45 129.18 425.45" fill="#fff"/><path d="M425.07,460.79l2.3,5.63c4.03-7.99,12.07-6.93,13.5-4.18-8.04-2.14-10.34,5.05-10.05,7.64,1.29-1.58,4.16-1.44,5.6-.43,5.76,4.68,2.01,10.39-.43,11.83,2.73.58,5.61,3.32,8.33.28,4.88-3.31,6.32-9.09,5.46-14.56-1.73-5.91-6.75-10.96-13.07-11.69-4.74-.43-8.19,2.6-11.64,5.48" fill="#f1c6a5"/><path d="M375.08,467c-.57,3.03,1.72,10.69,8.91,7.64,2.3-1.88,2.15-4.91.72-8.22-3.17-6.09-9.33-3.36-9.63.58" fill="#1d1d1b"/><path d="M431.25,476.37c.86,1.15-.43,3.46,1.72,3.89,2-.71,3.17-1.62,4.17-4.62.43-2.3-1.15-3.03-2.87-4.04-3.16-.86-3.88,2.6-3.01,4.77" fill="#b6786d"/><path d="M343.63,480.84c.58,5.05,2.73,7.91,8.33,9.37,9.21-2.41,5.41-7.04,3.74-9.66-2.73-3.32-9.91-4.91-12.06.29" fill="#1d1d1b"/><path d="M320.03,717.36c-3.35,4.48-5.84,8.98-6.99,13.18.66,0,1.38-.28,2.07-.49,1.9-3.9,3.67-7.68,4.92-12.69" fill="#b29e5a"/><path d="M406.11,547.34c-20.68,7.36-45.82,3.17-60.76-12.41,1.44-2.3,4.31-2.74,6.9-2.74l.71-1.15c-1.01-1.88-4.16-2.16-5.89-1.01-12.68,4.17-10.62,21.78-10.62,21.78.86-4.75,1.72-11.25,6.47-15.14-2.49,26.8,7.34,38.83,22.84,47.45,38.06,11.83,50.27-9.81,50.27-9.81l-7.61,4.61c-2.58-3.89-6.32-7.78-5.74-12.55,2.15-5.34,2.3-11.54,5.17-16.59,28.31-8.92,31.6-33.61,30.3-37.07-2.3,15.57-17.52,29.56-32.03,34.61" fill="#1d1d1b"/><path d="M268.8,536.95c-1.29,3.89-1.01,8.51,2.16,11.83.86.87,1.72,1.88,3.02,1.73-3.16-2.74-4.31-7.36-3.73-11.4,1.44-2.31,3.73-3.89,6.17-4.18,3.44,1.3,7.33,1.16,10.06,4.18-1.87,0-4.31,1.73-5.61,3.47-.86,3.17-.14,7.36,3.45,8.65,2.58.86,5.02-.29,6.89-1.74,2.16-1.73,2.16-5.19,1.15-7.35-2.87-6.21-9.62-8.52-15.22-9.39-2.74.44-6.32,1.74-8.33,4.19" fill="#1d1d1b"/><path d="M284.02,542.58c-1.01,1.3-1.01,3.89,0,5.19,1.01,1.45,2.87,1.45,4.17,1.01,3.01-1.16,1.87-4.75.72-6.63-1.3-.73-3.3-.73-4.89.43" fill="#b6786d"/><path d="M386.86,569.06c.15.43-29.49,2.85-41.51-25.18-.15,14.28,5.61,29.47,22.41,37.36,10.91,4.47,27.17,5.61,37.95-.87l-6.5-10.81,4.46-17.75c-17.67,4.19-40.5,2.6-55.16-9.22,4.12,15.17,22.69,25.03,38.35,26.48" fill="#fff"/><path d="M302.7,731.25c1,.58,2.3.58,3.45,0,2.59-2.01,3.16-5.33,2.3-8.36-1.87-.44-3.59-1.88-5.46-2.46l-.29,10.82Z" fill="#98874e"/><path d="M386.86,569.06c.15.43-29.49,2.85-41.51-25.18-.15,14.28,5.61,29.47,22.41,37.36,10.91,4.47,27.17,5.61,37.95-.87l-1.35-2.25c-18.74,6.84-29.64,2.12-35.97-.48-7.22-2.97-6.64-8.34,4.85-6.68,7.28,1.05,18.65-.37,26.02-1.57l.27-1.09-3.88.03c-23.8.24-36.37-14.74-36.37-14.74,0,0,12.3,3.44,25.69,4.16,5.41.28,11.86-.57,17.64-1.69l1.07-4.26c-17.67,4.19-40.5,2.6-55.16-9.22,4.12,15.17,22.69,25.03,38.35,26.48" fill="#d7e8ee"/><path d="M380.35,468.3c0-1.19-.74-2.14-1.66-2.14s-1.66.96-1.66,2.14.75,2.14,1.66,2.14,1.66-.96,1.66-2.14" fill="#fff"/><path d="M349.92,482.35c-.41-1.12-1.45-1.76-2.34-1.43-.89.32-1.28,1.49-.88,2.6.41,1.12,1.46,1.75,2.34,1.43.89-.33,1.28-1.49.88-2.6" fill="#fff"/><path d="M429.3,682.15c1.12-19.11-2.71-38.25-13.29-53.74-2.89-3.74-8.62-9.02-15.57-11.9-6.48,4.8-12.46,14.48-15.89,37.37-1.56,10.33-2.36,19.61-2.58,27.96,1.68.06,3.45.1,5.39.1h39.14c1.01,0,1.93.08,2.8.21" fill="#fddbbd"/><path d="M222.38,795.27c-.39.64-.88,1.23-1.41,1.76.43.58,3.01-.43,3.01-.43,1.87,1.73-.43,3.46-.57,5.19,3.87.58,6.46-3.89,9.91-2.02.14,2.45-2.74,3.61-3.02,5.91,4.46,1.74,8.62-3.02,13.79-2.45,1.44,1.15,0,2.74,0,4.18,4.59.87,4.74-9.95,8.62-3.47,0,1.3.57,2.31,1.29,3.47,1.72-2.16-.43-6.06,1.72-7.64,2.73.14,4.3,3.61,6.6,4.76-1.29-4.62.43-10.39,3.74-13.41.58.15,3.16,3.03,3.16,3.03,2.87-5.34,3.73-11.68,3.73-18.31,3.74-.73,3.02,4.32,5.61,5.92,2.16-6.21-1.29-12.84-1.15-19.04.72-1.87,4.31,1.73,5.17,2.45.43-9.95,9.34-28.56,10.06-27.69l3.73,4.76c7.52-13.7,1-26.83,3.88-29,2,0,3.02,2.31,4.45,3.46-.72-5.62-1.87-11.83-4.88-17.02,15.08-28.85,49.41-88.57,49.41-88.57,0,0-54.56,75.55-65.35,91.81-2.12,3.31-5.87,3.42-7.75,6.83,3.17-.47,5.04-.47,8.21,0-4.81,8.96-15.03,8.96-18.31,18.85,2.71-.35,4.12-1.29,6.81-1.65-2.46,7.08-3.17,12.15-8.68,16.98-5.17,4.48-10.1,6.13-12.92,12.49,4.7-.94,7.4-3.42,11.97-2.36-4.45,6.72-11.74,8.14-13.38,16.03h5.64c-3.29,6.13-7.51,8.6-9.5,15.43,2.1-1.63,6.79-.47,6.79-.47,0,0,0,3.05-2.36,9.18-2.34,6.13-13.84,7.77-13.84,7.77l1.41-9.65-10.08,4.72-.94-4.25-4.59,2.45Z" fill="#b29e5a"/><path d="M338.52,421.19c-7.93-4.53-15.29-7.42-21.03-7.85l8.47,9.33c.3,1.73-13.59,1.05-21.26,4.95,3.74,1.44,7.18,3.75,10.62,5.92-9.38,2.06-19.53,6.49-24.13,9.67.7.17,1.4.26,2.1.28,7.52-2.97,14.09-4.4,14.09-4.4l14.52-6.75-7.12-4.05s4.42-.74,11.16-.4c6.72.34,2.41-6.75,2.41-6.75,0,0,2.02,1.69,5.71,3.71,3.7,2.03,5.78-1.35,5.78-1.35,0,0-4,9.97-4.42,25.61,8.09-.28,16.35,1.64,22.99,5.49-.86-6.49,3.31-13.13,9.05-17.03,26.39-10.15,37.92,10.1,40.65,20.2l2.73,16.88c6.04.28,11.5,2.01,16.95,3.89-1.43-8.36-5.74-16.3-10.05-23.94-13.21-18.32-32.17-28.41-51.99-33.61l7.9-10.39c-8.47,1.44-21.61,7.85-25.57,12.11-1.96-8.78-7.9-15.14-7.9-15.14l-1.66,13.62Z" fill="#b29e5a"/><path d="M369.2,492.38c.29,2.17,1.73,4.76,4.17,5.19,1.87.15,3.16-1.44,3.44-3.17-.28-2.16-2.01-4.04-3.88-5.2-2.15-.57-3.44,1.44-3.73,3.18" fill="#1d1d1b"/><path d="M370.93,491.95c0,1.59.42,3.18,2,3.9l1.72-.43c0-1.74.43-3.9-1.72-4.47-.86-.15-2,0-2,1" fill="#b6786d"/><path d="M386.43,485.46c.29,1.73,1.72,4.04,3.74,5.19,1.43.58,2.3-.86,2.72-1.73-.14-2.16-.71-4.62-3.01-5.19-1.43-.15-3.44-.15-3.44,1.73" fill="#1d1d1b"/><path d="M388.16,485.03c-.57,1.73.72,2.45,1.72,3.46h1.01c1.16-2.02-.71-3.75-2.73-3.46" fill="#b6786d"/><path d="M391.53,481.02c0-1.03-1.2-1.86-2.69-1.86s-2.7.83-2.7,1.86,1.21,1.85,2.7,1.85,2.69-.83,2.69-1.85" fill="#fff"/><path d="M140.24,422.42c20.11-6.2,42.37-20.48,64.2-9.09,42.28,40.37-40.53,106.21-52.14,160.4-19.48,91.75,51.71,129.97,75.56,143.66,4.45.44,8.33-.57,11.63-2.88l.34-.36c-.38-.01-.76-.04-1.14-.08-23.84-13.7-95.03-51.92-75.55-143.67,11.6-54.19,94.41-120.04,52.13-160.41-21.83-11.4-38.81-11.42-58.92-5.22-15.92,3.28-19.59-11.7-13.82-25.44-22.42,11.07-26.43,48.04-2.29,43.07" fill="#98874e"/><path d="M287.64,528.6c-6.82-3.39-15.99-5.66-23.29-2.76-5.46,2.74-7.9,8.52-7.9,14.29.58,8.41,8.92,22.77,22.9,26.1-9.83-5.51-15.59-16.47-16.06-23.42,0-5.77,2.44-11.53,7.9-14.27,5.06-2.02,11.01-1.54,16.46.07" fill="#fddbbd"/><path d="M425.07,460.79l.33.8c1.74-.89,3.61-1.4,5.76-1.2.71.08,1.4.22,2.07.4,3.4-1.28,6.76-.22,7.64,1.45-1.78-.48-3.3-.48-4.56-.2,3.83,2.09,6.69,5.85,7.91,10.03.59,3.74.1,7.63-1.82,10.77.64-.18,1.28-.57,1.92-1.28,4.88-3.31,6.32-9.09,5.46-14.56-1.73-5.91-6.75-10.96-13.07-11.69-4.74-.43-8.19,2.6-11.64,5.48" fill="#fddbbd"/><path d="M398.17,740.24c9,.07,15.29,1,15.29,1,11.24-27.12,14.94-46.46,15.81-59.09,1.16-19.1-2.68-38.24-13.25-53.73-3.05-3.97-9.33-9.68-16.85-12.39-11.23,16.96-18,38.9-18,62.87s6.37,44.61,17,61.35" fill="#fddbbd"/><path d="M574.72,391.43c-3.01,9.55.16,20.05-4.12,29.13,5.55.63,11.09,1.9,16.32,4.13,6.18-9.55,13.95-21.49,8.09-33.27-5.07-4.3-17.44-11.61-20.29,0" fill="#f1c6a5"/><path d="M535.26,387.62c-5.71,10.34,4.6,19.26,7.92,28.33,2.22,6.52,1.43,14.96-3.81,19.41-1.27,1.91-.95,4.94-3.8,5.41-15.05-14.4-27.9-11.14-34.55-5.73-2.85,3.19-5.86,6.37-5.7,10.67,0,3.5,2.7,6.05,5.7,7.32,10.46,2.07,21.24.16,30.75,4.62,1.59,2.71,3.02,6.68,4.6,9.87,4.91,3.97,9.82,8.44,12.99,13.38.32-3.35,1.9-6.85,4.12-8.76,4.75,3.18,7.45,8.44,9.51,13.37,2.54-1.27,5.86-3.98,9.5-4.3,2.7,2.39.48,5.25,1.11,8.44,8.09-2.55,25.89,2.95,33.44-20.22,5.07-3.18,12.2-3.02,18.38-4.62,4.92-2.22,11.89-1.27,14.42-7.96,1.9-4.94,3.17-10.34-1.11-14.48-8.88.32-13.89,5.78-30.43,8.28-1.27,1.59-.1,3.75-.79,4.3-16.55-41.29-46.59-28.33-57.53-27.53,3.96-2.71,8.56-3.97,12.99-5.41,1.9-11.46-.47-24.03-9.51-32.47-4.6-4.29-13-5.89-18.23-1.9" fill="#fddbbd"/><path d="M595,430.11c4.43,4.77,8.72,9.55,11.41,15.28,8.25-3.35,19.66-12.26,20.13-22.6.79-5.09.47-10.83-2.7-14.8-1.58-3.02-4.92-3.18-7.92-3.5-6.5,8.76-10.94,19.74-20.92,25.63" fill="#f1c6a5"/><path d="M572.49,453.03c1.58,7.01-2.06,12.74-5.7,17.99,3.64-2.22,5.86-5.25,7.92-8.91.79-3.18.47-7.64-1.11-9.55-.15.48-.79.48-1.11.48" fill="#1d1d1b"/><path d="M535.26,387.62c-5.71,10.34,4.6,19.26,7.92,28.33,2.22,6.52,1.43,14.96-3.81,19.41-1.27,1.91-.95,4.94-3.8,5.41-.84,1.8-2.11,3.16-4.2,3.16-3.24,0-4.36-3-7.27-4.21-4.2-1.71-7.11-2.35-11.71-2.35-7.24,0-14.78,3.49-16.92,9.78.62,2.77,2.97,4.79,5.55,5.88,10.46,2.07,21.24.16,30.75,4.62,1.59,2.71,3.02,6.68,4.6,9.87,4.91,3.97,9.82,8.44,12.99,13.38.08-.78.21-1.55.41-2.32v-3.42c0-18.64,8.47-39.41,27.05-39.41h7.66c6.66,0,12.42,2.31,16.54,6.54-10.88-16.44-24.79-18.22-35.91-17.18-3.03,1.44-7.09.92-11.13,1.89-1.48.11-2.83.33-3.98.41,1.44-.98,2.95-1.77,4.52-2.45.64-2.72.74-4.88.74-8.09,0-12.5-3.49-26.93-13.22-31.52-2.45.1-4.84.8-6.78,2.28" fill="#e8b998"/><path d="M641.58,448.24c-.18-2.1-1-4.11-2.83-5.88-8.88.32-13.89,5.78-30.43,8.28-1.27,1.59-.1,3.75-.79,4.3-.29-.7-.57-1.39-.86-2.07-.03.29-.06.6-.06.95,0,.73.16,1.14.24,1.87,3.63,0,5.73.65,9.37.65,9.84,0,16.06-1.63,24.21-7.22.4-.28.79-.56,1.15-.87" fill="#e8b998"/><path d="M577.54,421.72c3.2.72,6.34,1.68,9.38,2.98,6.18-9.55,13.95-21.49,8.09-33.27-3.62-3.06-10.94-7.66-15.88-5.84,2.26,1.21,4.34,2.71,5.8,3.94,5.65,11.34-1.33,22.82-7.38,32.18" fill="#fddbbd"/><path d="M603.17,439.82c1.22,1.77,2.33,3.61,3.25,5.57,8.25-3.35,19.66-12.25,20.13-22.6.79-5.09.47-10.83-2.7-14.8-1.58-3.02-4.92-3.18-7.92-3.5-.56.76-1.1,1.53-1.65,2.31,2.69,3.93,2.93,9.29,2.18,14.11-.35,7.65-6.69,14.51-13.29,18.93" fill="#fddbbd"/><path d="M491.64,421.81s-32.36,15.64-4.89,38.42c0,0-14.96-21.39,4.89-38.42" fill="#b5bbbc"/><path d="M474.24,452.77c-11.81-11.8,2.04-20.8,2.04-20.8-21.35,10.16-2.04,20.8-2.04,20.8" fill="#b5bbbc"/><path d="M401.47,606.63c-3.9,15.52-26.21,22.72-32.5-2.35-5.66-1.45-14.24-3.61-20.3-6.29,0,.43-5.13-6.27-10.59-5.7-.1-.04-.72-.64-1.79-1.64-2.08-.9-4.44-2.04-7.12-3.47-1.78,1.96-3.31,4.34-4.92,6.29-11.33,14.95-23.08,30.61-35.26,45.12,11.8,28.58,37.47,34.7,42.11,32.18,3.11-5.71,4.09-12.48,7.64-18.18-.26,14.71-2.12,30.69-2.26,47.14,2.79,4.52,9.12,4.05,13.69,6.01,35.51,6.54,72.82.85,102.02-18.56,4.49-2.52,2.13-7.18.9-10.37-6.46-17.14-11.03-35.11-15.03-53.21,17.31-3.87,34.88-6.3,51.92-11.64,0,0-3.79-38.01-14.59-52.91-3.2,1.05-6.39,2.2-9.55,3.39-.87,1.51-1.82,2.93-2.85,4.24-9.1,15.31-23.6,34.62-61.52,39.96" fill="#1d1d1b"/><path d="M470.56,563.85c4.19,15.51,9.23,30.6,10.24,47.21,1.86.33,4.02.08,5.75-.48-1.14-17.19-5.02-33.27-11.51-48.39l-4.48,1.65Z" fill="#fff"/><path d="M409.79,605.17c-.22,9.1-4.37,17.82-12.47,23.19-25.96,9.16-34.83-12.63-37.03-26.72-2.93-1.02-5.9-2.18-8.92-3.53,0,.28-3.23-2.65-6.99-4.66-1.5-.35-3.43-.94-5.81-1.86-.23-.01-.46,0-.7.02-.06-.02-.36-.25-.86-.67-1.51-.63-3.19-1.4-5.03-2.32-12.12,14.61-23.09,29.89-34.74,44.89,7.09,13.25,19.24,25.15,34.42,28.3l7.77-16.89,3.33-26.49c.87,24.68-1.71,49.02-3.43,73.95,66.85,20.32,111.55-13.19,111.55-13.19-6.73-17.86-16.97-56.56-16.82-57.43,0,0,30.43-6.39,44.27-9.6.14-16.31-5.48-31.99-9.52-47.36l-5.75,1.74c-8.35,14.01-26.75,32.5-53.28,38.61" fill="#7a3979"/><path d="M362.39,602.35c1.63,9.81,6.01,18.96,14.99,24.21,19.35,6.87,29.45-8.97,30.51-20.98-1.52.31-3.08.59-4.65.81-2.01,14.13-11.96,15.84-18.62,17.27-7.57-1-15.49-6.47-18.4-20.14-1.27-.35-2.54-.75-3.82-1.17" fill="#fff"/><path d="M293.63,643.56c7.98,11.67,19.01,21.97,32.74,25.39,2.73.33,3.64-2.83,4.1-4.4-14.13-4.87-27.62-14.77-34.98-29.04-1.9,2.12-5.56,5.38-1.86,8.05" fill="#fff"/><path d="M339.27,695.14c-.59.85-.33,2.16-.35,3.17,20.38,9.45,48.69,8.79,70.62,3.69,15.01-4.06,30.16-8.13,42.41-18.31l-.4-2.16c-31.38,20.08-75.53,23.05-112.29,13.61" fill="#fff"/><path d="M379.91,629.79c-12.83-3.42-18-17.85-19.61-28.15-2.93-1.02-5.9-2.18-8.92-3.53,0,.28-3.23-2.65-6.99-4.66-1.51-.35-10.56-3.9-12.4-4.82-12.12,14.61-23.09,29.89-34.74,44.89,4.08,7.62,9.84,14.8,16.87,20.11,15.28-15.12,28.43-35.87,28.43-35.87l-3.19,27.33,3.4-26.65c.87,24.68-1.71,49.02-3.43,73.95,18.7,5.68,35.67,7.15,50.42,6.32-17.85-21.78-15.11-49.67-9.83-68.93M474.12,584.07c-1.69-6.48-3.63-12.89-5.3-19.25l-5.75,1.74c-5.35,8.97-14.82,19.78-27.91,28l38.95-10.49Z" fill="#591754"/><path d="M339.27,695.14c-.59.85-.33,2.16-.35,3.17,16.15,7.48,37.28,8.62,56.26,6.24-1.58-1.5-3.04-3.03-4.39-4.58-17.46,1.11-35.22-.64-51.53-4.83" fill="#d7e8ee"/><path d="M470.56,563.85c1.77,6.59,3.72,13.12,5.42,19.72l5.9-1.59c-1.81-6.78-4.09-13.37-6.84-19.78l-4.48,1.65Z" fill="#d7e8ee"/><path d="M293.63,643.56c4,5.85,8.76,11.35,14.23,15.8,1.57-1.31,3.14-2.72,4.68-4.19-6.94-5.13-12.95-11.72-17.05-19.66-1.9,2.12-5.56,5.38-1.86,8.05" fill="#d7e8ee"/><path d="M362.39,602.35c1.63,9.81,6.01,18.96,14.99,24.21,1.02.36,2,.65,2.96.9.44-1.48.93-2.94,1.45-4.39-6.64-1.9-13.03-7.58-15.58-19.55-1.27-.35-2.54-.75-3.82-1.17" fill="#d7e8ee"/></g></g></g></svg>