<?xml version="1.0" encoding="UTF-8"?>
<svg id="Layer_2" data-name="Layer 2" xmlns="http://www.w3.org/2000/svg" width="414.05" height="394" xmlns:xlink="http://www.w3.org/1999/xlink" viewBox="0 0 414.05 394">
  <defs>
    <clipPath id="clippath">
      <rect width="414.05" height="394" style="fill: none;"/>
    </clipPath>
    <filter id="drop-shadow-1" x="-148.92" y="19.98" width="598" height="553" filterUnits="userSpaceOnUse">
      <feOffset dx="23.95" dy="20.96"/>
      <feGaussianBlur result="blur" stdDeviation="11.97"/>
      <feFlood flood-color="#000" flood-opacity=".38"/>
      <feComposite in2="blur" operator="in"/>
      <feComposite in="SourceGraphic"/>
    </filter>
    <clipPath id="clippath-1">
      <rect x="-136.47" y="35.16" width="525.11" height="480.38" style="fill: none;"/>
    </clipPath>
  </defs>
  <g id="Layer_1-2" data-name="Layer 1">
    <g style="clip-path: url(#clippath);">
      <g style="filter: url(#drop-shadow-1);">
        <g style="clip-path: url(#clippath-1);">
          <path d="M80.66,359.57c-11.14,7.53-21.41,21.19-25.94,26.47-1.24-.39-2.38-.93-3.6-1.31,1.01-6.63-2-13.41-3.87-19.76,14.22-25.1,28.44-50.19,40.65-76.16-2.94,19.45-6.5,70.14-7.23,70.77M47.75,400.15c-.44,1.11-.88,2.26-1.31,3.44,1.01.62,4.32-.64,6.49-1.61-1.1,4.73-2.76,10.19-3.72,15.51,1.16.57,5.12-1.23,7.58-2.05-.18,2.44-1.61,5.91-.79,8.37,1.72-1.14,5.44-2.94,8.62-3.6,2.15,8.12,7.58,13.27,11.49,20.26-16.17,4.62-36.07-11.35-47.57,5.76-1.1,3.52-.61,6.09-.61,6.09-4.8,3.68-8.06,8.95-6.73,15.19,5.94,12.37,17.98,6.51,22.39,1.11,2.01-.11,4.19-1.23,6.18-.32-3.39,4.84-8.77,16.32,3.8,21.27,9.74-.27,14.59-4.37,18.73-11.07,6.47-13.03,16.13-19.48,27.37-21.45,2.37,4.23,5.14,10.19,10.44,11.01,11.24.38,12.95-9.3,11.3-14.08-8.17-13.14-16.17-11.97-23.1-18.3-2.85-9.14,5.87-15.04,11.69-19.55,18.04-13.7,76.12-10.85,66.93,17.47-2.05,7.08-7.52,2.9-11.15,5-4.19,1.66-8.69,4.04-10.21,8.77-.63,3.59.17,16.2,27,8.47,10.39,2.03,17.11,8.02,21.37,10.41,2.38,3.93,2.71,3.35,4.86,4.44,3.85,12.28,32.69,13.75,26.96-8.79-4.85-8.09-11.19-8.71-17.76-10.71l12.78-.06c2.05,6.39,9,3.05,11.49,8.43,3.58.93,8.01,2.02,11.35-.09,3.64-2.67,6.27-5.37,6.49-9.99-.34-4.76-2.42-9.56-7.11-12.23-.51-3.76-2.3-7.83-6-9.78-14.41-5.87-26.3,4.59-41.08,4.19l-1.8-.46c3.81-4.26,5.78-9.86,7.16-14.74,1.92.77,1.76,1.52,4.3,2.74,1.33-2.43,1.04-4.67,1.38-7.4,2.16-.25,4.68,3.11,7.15,1.41.21-3.44-2.32-6.66-3.27-10,3.01-.1,10.44,2.65,10.44,2.65-7.64-22.02-21.82-34.45-37.27-46.12.14-11.68-12.81-69.58-21.24-86.06,20.69-8.65,89.92-31.87,89.92-31.87,2.02.72.29,3.89,2.73,4.47,2.45.43,3.74-2.02,5.61-3.17,1.29,1.59,1.14,3.75,3.01,4.9,3.31-1.58,5.03-5.33,5.6-8.65,2.58-.72,6.03,4.47,7.9,1.01-.57-3.32-2.73-6.06-4.45-8.95,0,0,16.81-6.06,21.69-12.84-.15-2.31-6.04-4.03-6.17-4.47,6.03-2.59,13.79-4.03,17.24-10.38-1.73-3.32-6.47-2.74-9.63-2.74,5.89-3.47,13.93-6.35,16.51-13.86-.63-.8-1.44-1.2-2.34-1.37l.63-.25c4.36-2.29,6.48-5.43,7.25-6.84.48-6.84,11.57-17.35,11.89-18.31.32-2.22-3.33-3.34-5.07-4.93,9.2-2.55,16.19-11.15,18.41-19.75,3.9-.03,18.49-2.91,27.71-6.99,7.33-5.74,9.04-11.77,6.03-19.09-1.27-2.71-3.33-4.77-6.03-5.73-10.62,2.71-20.44,8.76-31.22,10.19v-.63c9.83-4.94,33.38-17.22,19.34-42.5-2.85-2.71-7.29-4.3-11.73-3.02-7.61,7.79-10.62,20.05-21.72,25.62-1.43.15-2.37-.95-3.32-1.91,7.28-10.19,14.73-24.35,8.24-37.08-4.28-4.93-12.34-8.29-15.85-7.32-4.44.16-7.29,3.82-9.2,7.32-3.48,10.67-.63,22.28-5.39,32.47h-1.1c1.58-14-.79-29.29-14.1-37.08-5.39-3.5-12.05-3.18-17.76-.32-12.84,15.28,9.03,25.78,7.61,41.22l-6.18,11.78c-7.61-6.36-17.91-11.46-28.85-8.75-5.71,1.59-10.14,5.72-13.31,10.34-1.11,4.14-2.85,8.44,0,12.25,9.03,8.92,24.08,3.35,35.02,7.64,3.33,4.3,4.29,9.71,7.61,14.16-.32,1.27.64,2.07.32,3.35,0,0-6.98-5.58-10.31-4.94-.95,2.23.32,5.57.48,8.44-.13,3.8-.81,7.54-1.57,11.31-.35,1.42-.72,2.72-1.08,4.04-2.59-2.16-3.58-6.49-7.17-5.92-2.01,4.91-.72,12.7.29,18.32-1.87,0-4.88-2.89-6.9-1.01-1.72,7.64.53,14.76,3.39,20.67-11.01-11.06-11.72-3.49-11.58-1.91,2.01,8.08,2.59,18.82,4.6,26.9,0,0-27.56,7.46-41.35,11.07,9.49-21.41,9.49-59.84-21.57-78.21,5.18-2.17,8.34-7.64,9.34-12.84.72-5.91-2.16-11.25-6.18-15.58-4.02-3.03-13.46-9.48-22.41,2.89-11.05-20.77-32.61-34.47-54.15-39.81,2.73-4.18,8.47-8.22,8.62-12.84,0,0-14.47.9-29.3,11.11-2.3-5.35-4.45-13.7-11.35-13.85-1.14,4.62-.58,9.67-1.72,13.42-6.47-3.61-14.08-6.78-22.41-6.93,0,0-6.66-2.14,7.61,11.39-7.76-.29-15.37,1.45-21.83,5.2,1.15,3.61,6.17,3.03,8.33,5.62-7.9,2.59-16.09,5.05-22.41,11.4,1.01,3.17,6.32,1.15,8.91,1.73-31.39,22.89-21.84,65.05-12.07,77.61-8.04-2.6-17.81-3.17-24.7,3.02-12.35,15.71,2.75,38.27,21.97,42.55,17.36,5.15,21.12-9.95,21.12-9.95,6.18,11.39,17.53,21.2,28.15,28.41-.86,1.01-3.38,1.83-2.73,2.74.43,1.59,2.73,1.59,2.73,3.47-3.59.29-7.04,5.48-4.74,6.92-2.73,1.16-6.04,3.04-7.33,5.92,1.72,1.73,4.6.58,6.6,1.73-11.38,24.56-47.97,71.27-47.97,71.27-6.04,3.17-12.5,5.77-17.53,11.39-.14.86,3.16,1.01,4.17,2.16l-11.35,10.96c-8.19-2.74-118.66-49.67-65.21-147.13C-47.71,181.77,2.14,149.75-5.47,97.1-21.01,23.8-98.91,28.73-122.97,45.76c-9.19,8.22-13.65,20.04-13.5,33.6,15.08,35.75,52.59-20.09,85.47,5.63,15.22,19.47,3.3,44.86-6.9,62.61-7.76,13.71-36.35,56.83-40.93,65.48-47.56,121.28,62.47,170.93,78.57,176.85-1.58,2.02-3.88,4.18-5.17,6.63,1.15.87,4.6.72,3.01,3.03-5.17,9.95-13.07,18.9-16.8,29.44.14,1,3.73,1.29,5.17,2.16-5.75,5.62-5.17,13.13-3.16,20.34-8.04,9.52-17.24,19.61-16.53,33.32,1.16,8.37-.57,19.62,9.34,24.23,6.47,4.04,13.5-5.78,18.23,3.03,4.6,1.44,9.92.72,13.51-2.45,4.74-1.87,6.03,5.48,10.91,2.89,4.32-.58,6.61-4.76,8.05-8.36,7.32,4.47,18.24,2.45,24.71-2.46,2.87-2.59,4.3-6.49,3.16-10.39-3.74-8.51-14.36-3.89-20.68-7.64-2.88-3.04-5.61-6.06-6.9-9.67,4.45-.86.15-4.62,1.01-7.21.43-2.02,1.44-3.75,2.16-5.62.58,2.3,1.01,2.88,3.44,3.46,3.16-4.9,4.74-10.54,5.46-16.59,1.66,0,1.95,3.33,3.77,3.53.75-1.41,1.63-2.76,2.59-4.1.68-3.97.07-8.6-.47-12.27,1.44,1.3,3.45,2.74,5.89,3.89-3.44-10.97,2.59-21.49,5.46-31.59,1.58,1.3,2.73,5.48,5.46,4.18,2.87-3.32,3.01-7.64,3.87-11.69l2.52.14Z" style="fill: #1d1d1b;"/>
          <path d="M307.22,188.85v-1.01c4.34-1.86,17.56-10.85,18.04-11.09-2.05-.64-3.79.89-5.55.17.82-.8,1.61-1.62,2.35-2.48,5.57-3.2,10.09-9.73,14.29-14.09-5.07-4.93-20.44-2.06-20.61-1.9-3.96-.64-.47-5.41-1.57-7.65-3.01.32-9.83,4.94-9.83,4.94-1.27-4.77-3.32-9.24-6.81-13.05-2.07,3.34-1.43,8.43-5.39,10.34-2.06-4.62-4.6-9.07-8.71-12.89-.64,2.07-3.49,7.64-3.49,7.64l-6.82-7c.09,8.9-2.26,17.47-3.9,26.24l.04.27c-.12.36-.25.73-.39,1.08-4.02-2.31-3.02-7.79-7.19-9.67-.28,7.36,1.44,13.99,3.74,20.34-3.87,2.46-5.31-4.76-9.19-4.47.29,7.51,1.73,14.57,4.02,21.21-4.45.72-7.47-5.35-11.64-5.63.58,9.52,4.6,19.19,3.02,29.86l-45.82,12.41c-13.4,22.52-53.45,57.15-111.6,31.44,0,.43-8.04-7.07-13.5-6.49-2.02-.87-4.17-1.3-6.61-1,.87,2.16,2.6,3.23,3.87,6.2-.71.29-9.62-1.01-12.49-.71,2.59,1.15,6.75,2.16,8.33,5.19-2.45,2.74-7.04.29-9.34,3.46,1,.3,4.88.58,6.6,2.46-14.36,25.67-31.6,50.19-49.7,74.43-5.03,2.17-10.34,4.48-14.51,7.94.72,1.44,4.17,1.16,3.16,3.47-7.04,6.92-14.07,11.67-19.97,19.32,2.01-.14,4.46-2.6,5.89-.28-10.5,7.77-13.21,12.83-16.95,17.59,1.01.72,2,1.15,2.73,2.16-3.44,11.1-13.65,19.62-17.24,30.73,2.16.73,4.17-1.44,5.61,1.16-1.01,4.17-5.32,7.06-6.32,11.39,2.58,5.33.86,11.69,2.87,16.59-.15,2.02-1.15,3.61-2.45,4.9.43.58,3.02-.43,3.02-.43,1.87,1.73-.43,3.46-.57,5.19,3.87.58,6.46-3.89,9.91-2.02.14,2.46-2.74,3.61-3.02,5.91,4.46,1.74,8.62-3.02,13.79-2.45,1.44,1.15,0,2.74,0,4.19,4.59.87,4.74-9.95,8.62-3.47,0,1.3.57,2.31,1.29,3.47,1.72-2.16-.43-6.06,1.72-7.65,2.73.14,4.3,3.61,6.6,4.76-1.29-4.62.43-10.38,3.74-13.41.58.15,3.16,3.03,3.16,3.03,2.88-5.34,3.73-11.68,3.73-18.32,3.74-.72,3.02,4.32,5.61,5.92,2.16-6.2-1.29-12.84-1.15-19.04.72-1.88,4.31,1.73,5.17,2.45.43-9.95,9.34-28.56,10.06-27.68l3.73,4.75c7.52-13.7,1-26.83,3.88-28.99,2.01,0,3.02,2.31,4.45,3.46-.71-5.62-1.87-11.83-4.88-17.02,15.08-28.85,49.41-88.57,49.41-88.57-2.35,19.14-4.29,38.49-6.03,58.18-1.46,7.53-1.6,18.05-2.68,23.53,3.02-.38,2.29-1.3,7.12-1.5-20.47,8.67-34.98,30.85-40.22,42.87,2.14.76,5.07-2.65,7.48-.88-2.1,5.01-4.48,9.88-5.44,15.49,2.59-.38,4.92-1.79,7.38-2.75-1.16,3.8-1.11,5.9-1.59,8.63,2.75-.82,5.21-2.22,7.95-2.6,1.44,8.25,8.64,15.29,12.1,23.15-.04,2.59-2.91,2.26-4.5,2.95-12.51.99-30.64-5.67-33.44-1.89,1.87.17,2.5,5.09,1.91,5.51,8.36-1.3,17.1.16,24.13.71-6.58.49-14.51.03-21.71,1.36-4.62,1.51-9.66,2.14-13.87,4.95,3.44.35,6.42,2.42,7.51,5.76.43,7.82-11.45,5.42-14.27,2.78-.92,2.59-.19,11.55,9.6,9.55,3.17-.52,8.63-3.91,7.66-11.26,2,1.05,1.09,3.77,1.63,5.51,1.87-.11,3.16-.82,3.51-3.4,1.14.74,1.12,1.75,1.09,2.9-.27.42,3.43.71,3.57.71,6.33-5.93,17.23-10.21,22.01-9.36-7.66,2.61-13.9,6.1-20.46,11.48,2.87-.1,7.31.99,8.82,4.63.95,3.63-5.96,11.9-13.58,4.24-.9,2.57,1.44,11.51,11.36,8.13,12.55-3.24,11.51-17.83,22.1-23.85,5.23-2.79,10.32-6.6,16.37-7.64.37-1.23-1.4-5.09-1.62-6.24,8.24,5.2,5.37,19.65,17.95,16.91,5.25-2,4.96-5.7,4.96-5.7-10.17,4.74-12.71-3.23-11.66-5.52,1.48-2.72,4.23-3.54,6.97-3.92-5.31-8.6-25.71-8.53-18.54-24.27,4.87-8,13.59-13.76,21.98-16.93-11.4-20.07-27.78-57.08-14.92-101.03,16.3-44.98,43.96-27.7,52-22.22,16.21,16.29,21.27,39.74,19.6,62.54,2.61.64,4.98,1.51,8.25,1.51h6.5c-1.44-20.71-13.55-63.71-19.2-75.9.28-4.47,66.15-25.22,94.59-35.17,1.43,1.15,1.43,3.03,1.29,4.76,3.44,0,1.29-4.9,4.88-4.76,2.44,1,2.44,3.74,3.74,5.47,1.87-2.02,1.57-5.05,2.15-7.64,2.3-1.15,4.17.73,6.17,1.44.29-2.31-5.74-7.21-.71-8.36,5.89-4.33,13.21-5.2,18.67-10.97-1.72-2.31-8.18-.87-6.61-5.63,6.04-2.59,12.64-4.04,17.95-8.22v-1.15c-3.01-.28-8.04,1.01-10.34-1.3,3.74-5.63,12.35-6.93,16.51-13.13h-11.34Z" style="fill: #98874e;"/>
          <path d="M199.54,241.29c-5.52,6.77-13.01,13.77-22.27,19.47-5.67,5.86-11.22,11.04-14.99,13.2-4.76,2.75-10.58,3.13-16.19,6.3,3.88,1.68,7.04,3.74,9.02,5.08,42.98,50.2,3.31,121.95,3.31,121.95,30.53,7.14,21.92,28.09,17.39,32.77-2.01-.32-4.61.36-6.33.6,1.26,1.76,3.25,3.38,2.33,5.96-6.41,4.83-11.51,1.38-12.77-.23-1.03,1.14-.79,3.45-.37,4.77,6.48,7.03,16.77,2.03,24.82,1.87,5.83,3.71,13.64,1.88,18.59,10.34-.13-.73.24-2.65.53-3.08,1.3,2.34,3.31,6.71,6.2,7.81,1.17-1.42-.19-3.87,2.4-5.93-1.3,7.59,2.94,12.17,8.37,14.29,12.58,3.18,16.8-8.92,13.29-12.47-5.2,6.2-11.83,5.59-15.08.03-.37-6.54,5.02-7.85,7.03-8.24l-22.19-6.34s17.44-1.25,26.48-.51l.06-3.47c2.52,3.51,3.36,7.61,7.75,8.51l-.65-3.48c3.04,3.3,8.54,10.37,15.63,7.18,2.46-1.4,5.57-3.92,5.08-8.26-5.08,4.57-10.95,1.54-12.34-1.23-.8-8.45,7.19-7.35,8.91-7.03,0,0-10.07-10.61-37.08.05,5.7-5.96,15.48-6.8,24.54-6.93-.97-3.37.81-5.18.81-5.18-13.17-2.97-25.4,6.49-37.72,4.54-4.99-2.54,2.29-7.62,2.64-11.65l2.31-8.62c1.87.03,3.43,1.21,5.13,2.11,1.48-2.29-1.57-6,1.86-7.61,1.43.6,3,1.06,4.42,1.81-.36-3.9-4-9.59-3.98-10.45,3.61-.8,6.58,1.55,10.02,2.33-6.98-18.9-32.93-39.82-40.02-45.13.14-.64,3.28.68,4.86.57-2.37-24.29-16.62-73.94-21.06-83.5.29-4.47,66.15-25.22,94.59-35.17,1.43,1.15,1.43,3.03,1.29,4.76,3.44,0,1.29-4.9,4.88-4.76,2.44,1.01,2.44,3.75,3.74,5.48,1.87-2.02,1.58-5.05,2.15-7.65,2.3-1.15,4.17.73,6.17,1.44.28-2.31-5.74-7.21-.71-8.36,5.89-4.33,13.21-5.2,18.67-10.97-1.72-2.31-8.18-.87-6.6-5.63,6.03-2.59,12.64-4.04,17.95-8.22v-1.15c-3.01-.28-8.04,1.01-10.34-1.3,3.74-5.63,12.36-6.93,16.51-13.13h-11.34s14.05-5.07,18.04-12.11c-2.05-.64-3.79.9-5.55.17.83-.81,1.61-1.63,2.35-2.48,5.57-3.2,10.1-9.73,14.29-14.09-5.07-4.93-20.44-2.06-20.61-1.9-3.96-.64-.47-5.41-1.57-7.64-3.01.32-9.83,4.94-9.83,4.94-1.27-4.77-3.33-9.24-6.81-13.05-2.07,3.34-1.43,8.43-5.39,10.34-2.06-4.62-4.6-9.07-8.71-12.89-.64,2.07,6.07,6.26-1.13,21.52,0,0,6.82-4.62,9.82-4.94,1.11,2.23.2,13.84-6.4,23.88-3.29-2.59-4.46-4.95-7.98-7.31-.59,1.19-1.77,2.01-1.77,3.42v16.39c-3.75,0-5.63-1.88-9.26-2.83v9.9c0,6.84.58,10.85,2.34,17.44-1.52-2.35-2.94-3.76-5.4-5.18-2.34,4.24.94,8.6-1.88,12.5-4.34,5.89-10.8,4.7-17.61,7.3-3.49,1.31-22.72,5.4-44.63,9.06" style="fill: #b29e5a;"/>
          <path d="M344.86,165.75s35.09,7.68,27.41-27.26c0,0-1.33,26.1-27.41,27.26" style="fill: #b5bbbc;"/>
          <path d="M377.55,152.11c2.07,16.6-14.36,15.12-14.36,15.12,23.06,5.19,14.36-15.12,14.36-15.12" style="fill: #b5bbbc;"/>
          <path d="M109,300.2c-9.62,16.91-8.9,43.91-8.91,45.89.75,20.53,8.99,43.28,19.98,61.1,18.66-3.3,36.65-.66,36.65-.66,11.24-27.12,14.94-46.47,15.81-59.09,1.15-19.1-2.68-38.24-13.25-53.73-7.32-9.52-33.12-28.95-50.26,6.49" style="fill: #f1c6a5;"/>
          <path d="M104.12,123.07c-24.46-13.6-47.25-2.6-55.16,11.4-14.21,24.85,17.67,45.86,29.01,50.19l11.36-9.67.28.29c-2.01,2.16-3.44,4.9-6.17,6.2-10.35,12.69-15.8,28.26-12.79,45.73,12.1,46.44,85.77,60.1,125.54,12.11,14.8-14.85,16.66-39.96,10.34-58.85-11.97-32.7-48.56-39.23-54.87-39.53-1.58-2.59-.96-33.59-21.25-37.64-9.19-2.31-26.72-1.17-26.29,19.76" style="fill: #f1c6a5;"/>
          <path d="M104.12,123.07c-8.93-4.96-17.63-6.65-25.47-6.11.01,28.27,11.35,38.13,47,42.09,36.49,4.05,51.91,48.09,42.27,74.7-5.05,13.9-16.88,32.19-50.83,33.92,26.22,5.52,57.61-2.41,79.11-28.34,14.8-14.85,16.66-39.96,10.34-58.85-11.97-32.7-48.56-39.23-54.87-39.53-1.58-2.59-.96-33.59-21.25-37.64-9.19-2.31-26.72-1.17-26.29,19.76" style="fill: #fddbbd;"/>
          <path d="M121.36,147.59c-3.31-1.01-7.91-.73-11.35.72-2.59,1.44-3.88,4.18-4.17,6.93-.37,8.7,6.17,11.4,6.89,10.67-3.3-2.6-5.61-7.21-4.17-12.12,1.72-3.31,10.06-8.17,16.66,0l-2.15-4.76c1.58-2.89,4.45-4.05,7.33-4.9,9.06-1.61,8.9,9.66,8.9,9.66.64-.68,5.15-10.56-7.9-12.4-3.87.72-8.19,2.16-10.05,6.2" style="fill: #1d1d1b;"/>
          <path d="M139.54,151.25c0-4.31-3.71-7.79-8.29-7.79-4.13,0-7.56,2.84-8.19,6.55-1.68-1.15-3.76-1.83-6.03-1.83-5.49,0-9.95,4.04-9.95,9.01s4.45,9,9.95,9c3.36,0,6.33-1.5,8.13-3.81,1.54-4.79,4.51-3.34,6.09-3.34,4.58,0,8.29-3.5,8.29-7.8" style="fill: #e6b499;"/>
          <path d="M130.75,134.95c0-4.51-3.34-8.16-7.46-8.16s-7.46,3.66-7.46,8.16,3.34,8.16,7.46,8.16,7.46-3.65,7.46-8.16" style="fill: #f1c6a5;"/>
          <path d="M100.82,144.47c-2.65-3.96-8.06-4.96-12.08-2.24-4.01,2.72-5.12,8.13-2.46,12.09,2.66,3.95,8.07,4.96,12.08,2.23,4.02-2.71,5.12-8.13,2.46-12.08" style="fill: #f1c6a5;"/>
          <path d="M182.76,174.36s-4.62,31.43-46.38,37.48c-19.79,2.87-38.08-8.67-40.1-10.36-2.03-1.69,2.69-5.12,0-6.14-2.68-1.01-4.43,1.36-10.49,5.47-6.05,4.11-5.77,16.94-5.77,16.94l3.76-8.44s-1.77,28,16.03,37.57c46.79,25.19,63.06-9,63.06-9,0,0-6.36,2.19-9.39-.85-3.02-3.04-2.29-15.37.25-17.25,5.05-3.72,15.19-10.47,22.65-18.97,7.47-8.5,6.39-26.45,6.39-26.45" style="fill: #e6b499; fill-rule: evenodd;"/>
          <path d="M81.78,86.49c-7.93-4.53-15.29-7.42-21.03-7.85l8.47,9.33c.3,1.73-13.59,1.05-21.26,4.95,3.74,1.44,7.18,3.75,10.62,5.92-9.38,2.06-19.53,6.49-24.13,9.67,3.45.86,6.9-.58,10.77,1.3-3.72,3.89-45.48,29.08-13.07,84.24l-.43.29c-6.89-3.6-16.51-6.21-24.13-3.18-5.46,2.74-7.9,8.52-7.9,14.29.72,10.53,13.62,30.36,34.47,26.25,6.6-1.59,7.76-9.09,8.9-14.85,13.25,24.92,30.45,33.17,38.35,38.08-29.84-36.01-8.19-63.32-5.61-67.22-14.22-7.93-31.88-21.78-32.74-40.1-.29-11.69,7.04-21.63,16.66-27.7,12.07-7.64,29.73-7.07,41.94,0-.86-6.49,3.31-13.13,9.05-17.03,26.39-10.15,37.92,10.1,40.65,20.2l2.73,16.88c6.04.28,11.5,2.01,16.95,3.89-1.43-8.36-5.74-16.3-10.05-23.94-13.21-18.32-32.17-28.41-51.99-33.61l7.9-10.39c-8.47,1.44-21.61,7.85-25.57,12.11-1.96-8.78-7.9-15.14-7.9-15.14l-1.66,13.62Z" style="fill: #98874e;"/>
          <path d="M31.72,194.33c-6.89-3.61-16.51-6.21-24.13-3.18-5.46,2.74-7.9,8.52-7.9,14.29.72,10.53,13.62,30.36,34.48,26.25,1.46-.35,2.65-.98,3.63-1.83,1.29-1.59,2.38-3.25,3.26-4.99.98-2.58,1.5-5.47,2.01-8.03,0,0-.61-15.42-11.35-22.5" style="fill: #f1c6a5;"/>
          <path d="M168.32,126.1l2.3,5.63c4.03-7.99,12.07-6.93,13.5-4.18-8.04-2.14-10.34,5.05-10.05,7.64,1.29-1.58,4.16-1.44,5.6-.43,5.76,4.68,2.01,10.39-.43,11.83,2.73.58,5.61,3.32,8.33.28,4.88-3.31,6.32-9.09,5.46-14.56-1.73-5.91-6.75-10.96-13.07-11.69-4.74-.43-8.19,2.6-11.64,5.48" style="fill: #f1c6a5;"/>
          <path d="M118.33,132.3c-.57,3.03,1.72,10.69,8.91,7.64,2.3-1.88,2.15-4.91.72-8.22-3.17-6.09-9.33-3.36-9.63.58" style="fill: #1d1d1b;"/>
          <path d="M174.5,141.68c.86,1.15-.43,3.46,1.72,3.89,2-.71,3.17-1.62,4.17-4.62.43-2.3-1.15-3.03-2.87-4.04-3.16-.86-3.88,2.6-3.01,4.77" style="fill: #b6786d;"/>
          <path d="M86.88,146.15c.58,5.05,2.73,7.91,8.33,9.37,9.21-2.41,5.41-7.04,3.74-9.66-2.73-3.32-9.91-4.91-12.06.29" style="fill: #1d1d1b;"/>
          <path d="M63.28,382.66c-3.35,4.48-5.84,8.98-6.99,13.18.66,0,1.38-.28,2.07-.49,1.9-3.9,3.67-7.68,4.92-12.69" style="fill: #b29e5a;"/>
          <path d="M149.36,212.64c-20.68,7.36-45.82,3.17-60.76-12.41,1.44-2.3,4.31-2.74,6.9-2.74l.71-1.15c-1.01-1.88-4.16-2.16-5.89-1.01-12.68,4.17-10.62,21.78-10.62,21.78.86-4.75,1.72-11.25,6.47-15.14-2.49,26.8,7.34,38.83,22.84,47.45,38.06,11.83,50.27-9.81,50.27-9.81l-7.61,4.61c-2.58-3.89-6.32-7.78-5.74-12.55,2.15-5.34,2.3-11.54,5.17-16.59,28.31-8.92,31.6-33.61,30.3-37.07-2.3,15.57-17.52,29.56-32.03,34.61" style="fill: #1d1d1b;"/>
          <path d="M12.05,202.26c-1.29,3.89-1.01,8.51,2.16,11.83.86.87,1.72,1.88,3.02,1.73-3.16-2.74-4.31-7.36-3.73-11.4,1.44-2.31,3.73-3.89,6.17-4.18,3.44,1.3,7.33,1.16,10.06,4.18-1.87,0-4.31,1.73-5.61,3.47-.86,3.17-.14,7.36,3.45,8.65,2.58.86,5.02-.29,6.89-1.74,2.16-1.73,2.16-5.19,1.15-7.35-2.87-6.21-9.62-8.52-15.22-9.39-2.74.44-6.32,1.74-8.33,4.19" style="fill: #1d1d1b;"/>
          <path d="M27.27,207.89c-1.01,1.3-1.01,3.89,0,5.19,1.01,1.45,2.87,1.45,4.17,1.01,3.01-1.16,1.87-4.75.72-6.63-1.3-.73-3.3-.73-4.89.43" style="fill: #b6786d;"/>
          <path d="M130.11,234.37c.15.43-29.49,2.85-41.51-25.18-.15,14.28,5.61,29.47,22.41,37.36,10.91,4.47,27.17,5.61,37.95-.87l-6.5-10.81,4.46-17.75c-17.67,4.19-40.5,2.6-55.16-9.22,4.12,15.17,22.69,25.03,38.35,26.48" style="fill: #fff;"/>
          <path d="M45.95,396.56c1,.58,2.3.58,3.45,0,2.59-2.01,3.16-5.33,2.3-8.36-1.87-.44-3.59-1.88-5.46-2.46l-.29,10.82Z" style="fill: #98874e;"/>
          <path d="M130.11,234.37c.15.43-29.49,2.85-41.51-25.18-.15,14.28,5.61,29.47,22.41,37.36,10.91,4.47,27.17,5.61,37.95-.87l-1.35-2.25c-18.74,6.84-29.64,2.12-35.97-.48-7.22-2.97-6.64-8.34,4.85-6.68,7.28,1.05,18.65-.37,26.02-1.57l.27-1.09-3.88.03c-23.8.24-36.37-14.74-36.37-14.74,0,0,12.3,3.44,25.69,4.16,5.41.28,11.86-.57,17.64-1.69l1.07-4.26c-17.67,4.19-40.5,2.6-55.16-9.22,4.12,15.17,22.69,25.03,38.35,26.48" style="fill: #d7e8ee;"/>
          <path d="M123.61,133.6c0-1.19-.74-2.14-1.66-2.14s-1.66.96-1.66,2.14.75,2.14,1.66,2.14,1.66-.96,1.66-2.14" style="fill: #fff;"/>
          <path d="M93.17,147.65c-.41-1.12-1.45-1.76-2.34-1.43-.89.32-1.28,1.49-.88,2.6.41,1.12,1.46,1.75,2.34,1.43.89-.33,1.28-1.49.88-2.6" style="fill: #fff;"/>
          <path d="M172.56,347.45c1.12-19.11-2.71-38.25-13.29-53.74-2.89-3.74-8.62-9.02-15.57-11.9-6.48,4.8-12.46,14.48-15.89,37.37-1.56,10.33-2.36,19.61-2.58,27.96,1.68.06,3.45.1,5.39.1h39.14c1.01,0,1.93.08,2.8.21" style="fill: #fddbbd;"/>
          <path d="M-34.37,460.57c-.39.64-.88,1.23-1.41,1.76.43.58,3.01-.43,3.01-.43,1.87,1.73-.43,3.46-.57,5.19,3.87.58,6.46-3.89,9.91-2.02.14,2.45-2.74,3.61-3.02,5.91,4.46,1.74,8.62-3.02,13.79-2.45,1.44,1.15,0,2.74,0,4.18,4.59.87,4.74-9.95,8.62-3.47,0,1.3.57,2.31,1.29,3.47,1.72-2.16-.43-6.06,1.72-7.64,2.73.14,4.3,3.61,6.6,4.76-1.29-4.62.43-10.39,3.74-13.41.58.15,3.16,3.03,3.16,3.03,2.87-5.34,3.73-11.68,3.73-18.31,3.74-.73,3.02,4.32,5.61,5.92,2.16-6.21-1.29-12.84-1.15-19.04.72-1.87,4.31,1.73,5.17,2.45.43-9.95,9.34-28.56,10.06-27.69l3.73,4.76c7.52-13.7,1-26.83,3.88-29,2,0,3.02,2.31,4.45,3.46-.72-5.62-1.87-11.83-4.88-17.02,15.08-28.85,49.41-88.57,49.41-88.57,0,0-54.56,75.55-65.35,91.81-2.12,3.31-5.87,3.42-7.75,6.83,3.17-.47,5.04-.47,8.21,0-4.81,8.96-15.03,8.96-18.31,18.85,2.71-.35,4.12-1.29,6.81-1.65-2.46,7.08-3.17,12.15-8.68,16.98-5.17,4.48-10.1,6.13-12.92,12.49,4.7-.94,7.4-3.42,11.97-2.36-4.45,6.72-11.74,8.14-13.38,16.03H-1.27c-3.29,6.13-7.51,8.6-9.5,15.43,2.1-1.63,6.79-.47,6.79-.47,0,0,0,3.05-2.36,9.18-2.34,6.13-13.84,7.77-13.84,7.77l1.41-9.65-10.08,4.72-.94-4.25-4.59,2.45Z" style="fill: #b29e5a;"/>
          <path d="M81.78,86.49c-7.93-4.53-15.29-7.42-21.03-7.85l8.47,9.33c.3,1.73-13.59,1.05-21.26,4.95,3.74,1.44,7.18,3.75,10.62,5.92-9.38,2.06-19.53,6.49-24.13,9.67.7.17,1.4.26,2.1.28,7.52-2.97,14.09-4.4,14.09-4.4l14.52-6.75-7.12-4.05s4.42-.74,11.16-.4c6.72.34,2.41-6.75,2.41-6.75,0,0,2.02,1.69,5.71,3.71,3.7,2.03,5.78-1.35,5.78-1.35,0,0-4,9.97-4.42,25.61,8.09-.28,16.35,1.64,22.99,5.49-.86-6.49,3.31-13.13,9.05-17.03,26.39-10.15,37.92,10.1,40.65,20.2l2.73,16.88c6.04.28,11.5,2.01,16.95,3.89-1.43-8.36-5.74-16.3-10.05-23.94-13.21-18.32-32.17-28.41-51.99-33.61l7.9-10.39c-8.47,1.44-21.61,7.85-25.57,12.11-1.96-8.78-7.9-15.14-7.9-15.14l-1.66,13.62Z" style="fill: #b29e5a;"/>
          <path d="M112.45,157.68c.29,2.17,1.73,4.76,4.17,5.19,1.87.15,3.16-1.44,3.44-3.17-.28-2.16-2.01-4.04-3.88-5.2-2.15-.57-3.44,1.44-3.73,3.18" style="fill: #1d1d1b;"/>
          <path d="M114.18,157.25c0,1.59.42,3.18,2,3.9l1.72-.43c0-1.74.43-3.9-1.72-4.47-.86-.15-2,0-2,1" style="fill: #b6786d;"/>
          <path d="M129.68,150.77c.29,1.73,1.72,4.04,3.74,5.19,1.43.58,2.3-.86,2.72-1.73-.14-2.16-.71-4.62-3.01-5.19-1.43-.15-3.44-.15-3.44,1.73" style="fill: #1d1d1b;"/>
          <path d="M131.41,150.33c-.57,1.73.72,2.45,1.72,3.46h1.01c1.16-2.02-.71-3.75-2.73-3.46" style="fill: #b6786d;"/>
          <path d="M134.78,146.33c0-1.03-1.2-1.86-2.69-1.86s-2.7.83-2.7,1.86,1.21,1.85,2.7,1.85,2.69-.83,2.69-1.85" style="fill: #fff;"/>
          <path d="M30.89,193.91c-6.82-3.39-15.99-5.66-23.29-2.76-5.46,2.74-7.9,8.52-7.9,14.29.58,8.41,8.92,22.77,22.9,26.1-9.83-5.51-15.59-16.47-16.06-23.42,0-5.77,2.44-11.53,7.9-14.27,5.06-2.02,11.01-1.54,16.46.07" style="fill: #fddbbd;"/>
          <path d="M168.32,126.1l.33.8c1.74-.89,3.61-1.4,5.76-1.2.71.08,1.4.22,2.07.4,3.4-1.28,6.76-.22,7.64,1.45-1.78-.48-3.3-.48-4.56-.2,3.83,2.09,6.69,5.85,7.91,10.03.59,3.74.1,7.63-1.82,10.77.64-.18,1.28-.57,1.92-1.28,4.88-3.31,6.32-9.09,5.46-14.56-1.73-5.91-6.75-10.96-13.07-11.69-4.74-.43-8.19,2.6-11.64,5.48" style="fill: #fddbbd;"/>
          <path d="M141.42,405.54c9,.07,15.29,1,15.29,1,11.24-27.12,14.94-46.46,15.81-59.09,1.16-19.1-2.68-38.24-13.25-53.73-3.05-3.97-9.33-9.68-16.85-12.39-11.23,16.96-18,38.9-18,62.87s6.37,44.61,17,61.35" style="fill: #fddbbd;"/>
          <path d="M317.97,56.74c-3.01,9.55.16,20.05-4.12,29.13,5.55.63,11.09,1.9,16.32,4.13,6.18-9.55,13.95-21.49,8.09-33.27-5.07-4.3-17.44-11.61-20.29,0" style="fill: #f1c6a5;"/>
          <path d="M278.51,52.92c-5.71,10.34,4.6,19.26,7.92,28.33,2.22,6.52,1.43,14.96-3.81,19.41-1.27,1.91-.95,4.94-3.8,5.41-15.05-14.4-27.9-11.14-34.55-5.73-2.85,3.19-5.86,6.37-5.7,10.67,0,3.5,2.7,6.05,5.7,7.32,10.46,2.07,21.24.16,30.75,4.62,1.59,2.71,3.02,6.68,4.6,9.87,4.91,3.97,9.82,8.44,12.99,13.38.32-3.35,1.9-6.85,4.12-8.76,4.75,3.18,7.45,8.44,9.51,13.37,2.54-1.27,5.86-3.98,9.5-4.3,2.7,2.39.48,5.25,1.11,8.44,8.09-2.55,25.89,2.95,33.44-20.22,5.07-3.18,12.2-3.02,18.38-4.62,4.92-2.22,11.89-1.27,14.42-7.96,1.9-4.94,3.17-10.34-1.11-14.48-8.88.32-13.89,5.78-30.43,8.28-1.27,1.59-.1,3.75-.79,4.3-16.55-41.29-46.59-28.33-57.53-27.53,3.96-2.71,8.56-3.97,12.99-5.41,1.9-11.46-.47-24.03-9.51-32.47-4.6-4.29-13-5.89-18.23-1.9" style="fill: #fddbbd;"/>
          <path d="M338.25,95.42c4.43,4.77,8.72,9.55,11.41,15.28,8.25-3.35,19.66-12.26,20.13-22.6.79-5.09.47-10.83-2.7-14.8-1.58-3.02-4.92-3.18-7.92-3.5-6.5,8.76-10.94,19.74-20.92,25.63" style="fill: #f1c6a5;"/>
          <path d="M315.75,118.33c1.58,7.01-2.06,12.74-5.7,17.99,3.64-2.22,5.86-5.25,7.92-8.91.79-3.18.47-7.64-1.11-9.55-.15.48-.79.48-1.11.48" style="fill: #1d1d1b;"/>
          <path d="M278.51,52.92c-5.71,10.34,4.6,19.26,7.92,28.33,2.22,6.52,1.43,14.96-3.81,19.41-1.27,1.91-.95,4.94-3.8,5.41-.84,1.8-2.11,3.16-4.2,3.16-3.24,0-4.36-3-7.27-4.21-4.2-1.71-7.11-2.35-11.71-2.35-7.24,0-14.78,3.49-16.92,9.78.62,2.77,2.97,4.79,5.55,5.88,10.46,2.07,21.24.16,30.75,4.62,1.59,2.71,3.02,6.68,4.6,9.87,4.91,3.97,9.82,8.44,12.99,13.38.08-.78.21-1.55.41-2.32v-3.42c0-18.64,8.47-39.41,27.05-39.41h7.66c6.66,0,12.42,2.31,16.54,6.54-10.88-16.44-24.79-18.22-35.91-17.18-3.03,1.44-7.09.92-11.13,1.89-1.48.11-2.83.33-3.98.41,1.44-.98,2.95-1.77,4.52-2.45.64-2.72.74-4.88.74-8.09,0-12.5-3.49-26.93-13.22-31.52-2.45.1-4.84.8-6.78,2.28" style="fill: #e8b998;"/>
          <path d="M384.83,113.55c-.18-2.1-1-4.11-2.83-5.88-8.88.32-13.89,5.78-30.43,8.28-1.27,1.59-.1,3.75-.79,4.3-.29-.7-.57-1.39-.86-2.07-.03.29-.06.6-.06.95,0,.73.16,1.14.24,1.87,3.63,0,5.73.65,9.37.65,9.84,0,16.06-1.63,24.21-7.22.4-.28.79-.56,1.15-.87" style="fill: #e8b998;"/>
          <path d="M320.79,87.02c3.2.72,6.34,1.68,9.38,2.98,6.18-9.55,13.95-21.49,8.09-33.27-3.62-3.06-10.94-7.66-15.88-5.84,2.26,1.21,4.34,2.71,5.8,3.94,5.65,11.34-1.33,22.82-7.38,32.18" style="fill: #fddbbd;"/>
          <path d="M346.42,105.13c1.22,1.77,2.33,3.61,3.25,5.57,8.25-3.35,19.66-12.25,20.13-22.6.79-5.09.47-10.83-2.7-14.8-1.58-3.02-4.92-3.18-7.92-3.5-.56.76-1.1,1.53-1.65,2.31,2.69,3.93,2.93,9.29,2.18,14.11-.35,7.65-6.69,14.51-13.29,18.93" style="fill: #fddbbd;"/>
          <path d="M234.9,87.11s-32.36,15.64-4.89,38.42c0,0-14.96-21.39,4.89-38.42" style="fill: #b5bbbc;"/>
          <path d="M217.49,118.07c-11.81-11.8,2.04-20.8,2.04-20.8-21.35,10.16-2.04,20.8-2.04,20.8" style="fill: #b5bbbc;"/>
          <path d="M144.72,271.93c-3.9,15.52-26.21,22.72-32.5-2.35-5.66-1.45-14.24-3.61-20.3-6.29,0,.43-5.13-6.27-10.59-5.7-.1-.04-.72-.64-1.79-1.64-2.08-.9-4.44-2.04-7.12-3.47-1.78,1.96-3.31,4.34-4.92,6.29-11.33,14.95-23.08,30.61-35.26,45.12,11.8,28.58,37.47,34.7,42.11,32.18,3.11-5.71,4.09-12.48,7.64-18.18-.26,14.71-2.12,30.69-2.26,47.14,2.79,4.52,9.12,4.05,13.69,6.01,35.51,6.54,72.82.85,102.02-18.56,4.49-2.52,2.13-7.18.9-10.37-6.46-17.14-11.03-35.11-15.03-53.21,17.31-3.87,34.88-6.3,51.92-11.64,0,0-3.79-38.01-14.59-52.91-3.2,1.05-6.39,2.2-9.55,3.39-.87,1.51-1.82,2.93-2.85,4.24-9.1,15.31-23.6,34.62-61.52,39.96" style="fill: #1d1d1b;"/>
          <path d="M213.82,229.15c4.19,15.51,9.23,30.6,10.24,47.21,1.86.33,4.02.08,5.75-.48-1.14-17.19-5.02-33.27-11.51-48.39l-4.48,1.65Z" style="fill: #fff;"/>
          <path d="M153.04,270.47c-.22,9.1-4.37,17.82-12.47,23.19-25.96,9.16-34.83-12.63-37.03-26.72-2.93-1.02-5.9-2.18-8.92-3.53,0,.28-3.23-2.65-6.99-4.66-1.5-.35-3.43-.94-5.81-1.86-.23-.01-.46,0-.7.02-.06-.02-.36-.25-.86-.67-1.51-.63-3.19-1.4-5.03-2.32-12.12,14.61-23.09,29.89-34.74,44.89,7.09,13.25,19.24,25.15,34.42,28.3l7.77-16.89,3.33-26.49c.87,24.68-1.71,49.02-3.43,73.95,66.85,20.32,111.55-13.19,111.55-13.19-6.73-17.86-16.97-56.56-16.82-57.43,0,0,30.43-6.39,44.27-9.6.14-16.31-5.48-31.99-9.52-47.36l-5.75,1.74c-8.35,14.01-26.75,32.5-53.28,38.61" style="fill: #7a3979;"/>
          <path d="M105.64,267.66c1.63,9.81,6.01,18.96,14.99,24.21,19.35,6.87,29.45-8.97,30.51-20.98-1.52.31-3.08.59-4.65.81-2.01,14.13-11.96,15.84-18.62,17.27-7.57-1-15.49-6.47-18.4-20.14-1.27-.35-2.54-.75-3.82-1.17" style="fill: #fff;"/>
          <path d="M36.88,308.87c7.98,11.67,19.01,21.97,32.74,25.39,2.73.33,3.64-2.83,4.1-4.4-14.13-4.87-27.62-14.77-34.98-29.04-1.9,2.12-5.56,5.38-1.86,8.05" style="fill: #fff;"/>
          <path d="M82.53,360.45c-.59.85-.33,2.16-.35,3.17,20.38,9.45,48.69,8.79,70.62,3.69,15.01-4.06,30.16-8.13,42.41-18.31l-.4-2.16c-31.38,20.08-75.53,23.05-112.29,13.61" style="fill: #fff;"/>
          <path d="M123.16,295.1c-12.83-3.42-18-17.85-19.61-28.15-2.93-1.02-5.9-2.18-8.92-3.53,0,.28-3.23-2.65-6.99-4.66-1.51-.35-10.56-3.9-12.4-4.82-12.12,14.61-23.09,29.89-34.74,44.89,4.08,7.62,9.84,14.8,16.87,20.11,15.28-15.12,28.43-35.87,28.43-35.87l-3.19,27.33,3.4-26.65c.87,24.68-1.71,49.02-3.43,73.95,18.7,5.68,35.67,7.15,50.42,6.32-17.85-21.78-15.11-49.67-9.83-68.93M217.37,249.38c-1.69-6.48-3.63-12.89-5.3-19.25l-5.75,1.74c-5.35,8.97-14.82,19.78-27.91,28l38.95-10.49Z" style="fill: #591754;"/>
          <path d="M82.53,360.45c-.59.85-.33,2.16-.35,3.17,16.15,7.48,37.28,8.62,56.26,6.24-1.58-1.5-3.04-3.03-4.39-4.58-17.46,1.11-35.22-.64-51.53-4.83" style="fill: #d7e8ee;"/>
          <path d="M213.82,229.15c1.77,6.59,3.72,13.12,5.42,19.72l5.9-1.59c-1.81-6.78-4.09-13.37-6.84-19.78l-4.48,1.65Z" style="fill: #d7e8ee;"/>
          <path d="M36.88,308.87c4,5.85,8.76,11.35,14.23,15.8,1.57-1.31,3.14-2.72,4.68-4.19-6.94-5.13-12.95-11.72-17.05-19.66-1.9,2.12-5.56,5.38-1.86,8.05" style="fill: #d7e8ee;"/>
          <path d="M105.64,267.66c1.63,9.81,6.01,18.96,14.99,24.21,1.02.36,2,.65,2.96.9.44-1.48.93-2.94,1.45-4.39-6.64-1.9-13.03-7.58-15.58-19.55-1.27-.35-2.54-.75-3.82-1.17" style="fill: #d7e8ee;"/>
        </g>
      </g>
    </g>
  </g>
</svg>