<?xml version="1.0" encoding="UTF-8"?>
<svg id="Layer_2" data-name="Layer 2" xmlns="http://www.w3.org/2000/svg" xmlns:xlink="http://www.w3.org/1999/xlink" viewBox="0 0 105.5 105.5">
  <defs>
    <clipPath id="clippath">
      <circle cx="52.75" cy="52.75" r="52.75" fill="none"/>
    </clipPath>
    <linearGradient id="linear-gradient" x1="52.75" y1="-3.46" x2="52.75" y2="108.96" gradientUnits="userSpaceOnUse">
      <stop offset="0" stop-color="#fff"/>
      <stop offset=".12" stop-color="#fbf9fc"/>
      <stop offset=".27" stop-color="#f1ebf4"/>
      <stop offset=".43" stop-color="#e1d2e7"/>
      <stop offset=".59" stop-color="#cab0d4"/>
      <stop offset=".77" stop-color="#ad84bd"/>
      <stop offset=".95" stop-color="#8a4fa1"/>
      <stop offset="1" stop-color="#7f3f98"/>
    </linearGradient>
  </defs>
  <g id="Layer_1-2" data-name="Layer 1">
    <g clip-path="url(#clippath)">
      <circle cx="52.75" cy="52.75" r="56.21" fill="url(#linear-gradient)"/>
      <g>
        <path d="M35.54,100.02c.29.08.49.36.62.84.34-.13.6-.08.77.13l.59.23c1.87.19,4.1.65,5.9,1.25,1.82.61,1.56,1.02.07.53l-.51.08c-1.81-.57-3.74-1.07-5.62-1.07s-.39.32.53.32c1.4.38,1.86,2.03,1.99,3.3-.02,1.39,0,2.77.08,4.15,1.94,1.16,2.36,3.13,2.62,5.24.16,1.3.2,2.71.1,3.99.54.03.92.22,1.13.58.09.06.07.1-.04.11l-20.12-6.92c-.09-.06-.07-.1.04-.11-.02-.36.45-.3.73-.24l3.25,1.07c.85.25,1.69.45,2.55.56l.31-.19c2.64.53,8.6-1.16,8.37-4.43-.07-1.03-.27-2.94-.53-3.88-.07-.25-1,1.08-.68,1.41v1.86c-.13,1.55-.97.63-.84-.45l.03-1.82c-.91.26-1,.49-1.14,1.34l-.24,2.55c-.09.73-.72.65-.74-.09.04-1.08.1-2.16.19-3.24-.69.22-1.39.4-2.09.55l-.06,2.4c.02.64-.36,1.36-.73.61,0-1-.05-1.98-.14-2.95l-1.59.11c-.09.83-.13,1.67-.12,2.51l-.24.16c.18.25-.32,1.87-.59,1.4.03-1.4,0-2.82-.07-4.24,0-.08-1.52-.19-1.59-.16-.11.66-.18,1.33-.19,2.02,0,.3-.12,1.39-.56,1.19-.52-.24-.36-2.7-.21-3.29-.29-.23-.64-.4-1.06-.5l-.07-.25c-.37.18-.53-.23-.22-.44.35-.08.72-.01,1.1.21,2.43,1.03,9.44.25,11.42-1.62,1.13-1.07-1.21-1.94-1.33-.92.88-.3,1.75.32.86,1.07-1.48,1.26-7.35,1.56-9.25,1.35-1-.11-4.09-.75-2.56-2.05-1.52.1-1.21.66-.3,1.52l-.11.26c-.2.41-1.2-.7-1.28-.9-.29-.77.8-1.65,1.48-1.49.94-.35,1.24.68.56,1.3,0,.34,2.54.74,2.9.78.15.02.45-.02.31-.17.09-.09.19-.19.32-.22.43-.08,1.91-.18,2.37-.17l.33.2c.19-.04.31-.14.37-.28.46-.05,3.03-.4,3.17-.68-.25-1.41-.6-2.8-1.03-4.17l.18-.21c-.09-.52.49-.48.63-.03Z" fill="#291115"/>
        <path d="M25.42,103.68c-.18.33-1.27.32-1.32,1.31,0,.06.63.74.74.85.12.13.32.17.38.22.28-.15.31-.1.18.19.05.06.05.37.22.44.1.2,0,.24-.15.07-.32.87-.72,1.31-.58.01-.01-.44-.56-.85-.96-.91l.21.27c-.2,2.2-.35,4.37-.46,6.53l-.04.11-4.95-1.7c-.09-.06-.07-.1.04-.11l.44-.1c1.01.26,2,.57,2.98.91.36-1.74.54-3.54.55-5.39.14-1.07.5-2.23,1.43-2.87.36-.25.97-.65,1.32-.32.36-.02.32.5-.04.48Z" fill="#272125"/>
        <path d="M77.87,7.72c.05.23.09.47.12.73.04.33.06.63.06.91,1.29.29,2.81.79,3.31,2.14-.01.07-.18.95-.38.95-.14,0-.26-.45-.33-1.08-.23-.17-.46-.35-.7-.54-.18-.14-.34-.28-.51-.42l-.63-.17c-.28.25-.48.03-.66-.2-.89-.04-1.27-.61-1.14-1.71-.44-1.11-3.75-1.18-4.79-.95-.48.07-1.42-.13-.9-.68.55-.23,1.58-.57,2.88-.48,1.91.13,3.2,1.11,3.66,1.49Z" fill="#191d22"/>
        <path d="M22.89,99.24c.05-.35.74-.06.53.23-.88,1.02-1.7,2.12-2.29,3.29-1.86,2.16-2.85,5.06-3.61,7.79.47-.08.88.06,1.21.42l-.04.11-4.84-1.66c.58.03,1.21.21,1.91.53.24.08.59.29.81.15l-.1-.23,1.35-2.86c.24-.84.63-1.67,1.23-2.33.25-.59.53-1.11,1.01-1.5.47-.76,1.01-1.57,1.53-2.3l-.06-.3,1.05-1.21.27-.02c-.09-.06-.07-.09.04-.11Z" fill="#151918"/>
        <path d="M19.17,50.36c.33.19.1,1.18-.34.99-.28.11-.63,0-1.07-.35-.18.85-.49,1.6-.94,2.24l.09.22c-.28.32-.51.87-.39,1.28l-1.85,4.52c-.66,1.66-.92,3.39-.88,5.18.12,2.5.15,5,.09,7.5-.04.45-.45.58-.67.2-.38-3.28-.7-6.9-.42-10.22.17-2.01.93-3.38,1.94-5.12.92-1.23.71-2.92-.93-3.1-.41-.04-.48.03-.64.41-1.5,3.84-3.03,7.82-4.23,11.69.17,1.31.56,2.6,1.18,3.86,1.08,3.94,2.09,7.92,3.03,11.92.99,3.62,1.7,5.52,4.48,8.02,2.16,1.86,4.55,3.44,6.91,4.96,1.19.76,1.44,1.97,1.7,3.26.44,2.23.72,4.67.48,6.9.13.35,1.93.57,2.35.61l.14.24c.51.1-.25.37-.33.36-.14-.02-.27-.19-.38-.19-.74-.05-1.48.04-2.23-.33-1.15-.55.1-.74-.1-1.33-.13-.37-.52-.14-.73-.42.08-.15.03-.45.04-.48-.19-1.63-.36-3.27-.51-4.91l-.75.83-.28-.02c-.32.36-1.08.01-1.21-.42-1.1-.11-2.66-.51-3.66-1.01-.43-.21-.53-.43-.15-.42l.1-.13c1.34.46,2.7.89,4.09,1.29.56-.45,1.14-.88,1.72-1.3.1-.26-.58-.93-.77-1.12-.37-.35-2.38-2.07-2.72-2.19-.07-.03-.25-.04-.33-.02l-3.87,2.44-.47.02c-.25.39-1.57.37-1.4-.23l-.03-.25,4.73-2.78c-.35-.22-.51-.44-.48-.68-1.9-1.52-4.86-3.57-5.81-5.81-1.49-3.51-2.27-8.61-3.43-12.41-.22-.72-.8-2.9-1.27-3.31-.64-.57-1.86-.98-2.02-2.04-.04-.29.76-2.1.89-2.62.07-.28.18-1.02.07-1.27.37-.16.27-.51.41-.84,1.41-3.32,2.44-6.75,3.84-10.05.2-.46-.08-.68.51-.99.72-.38,1.65-.15,2.29.3.44.03.65.27.62.7l.16-.13c.19-.96.46-1.87.82-2.73-.24-.21.1-1,.38-1.1.27-.62,1.63-.1,2.13.13l.08.26Z" fill="#151918"/>
        <path d="M92.7,115.82c-2.2-4.15-4.38-8.26-6.55-12.34-3.22-5.47-6.18-8-12.37-9.59-.66-.17-3.66-.93-3.99-.74-.3.18.73,1.36.93,1.54.05.04.17-.02.24-.07l.09.59c1.35,2.2,2.47,4.57,3.02,7.11l.34.5c.16.12.2.22.14.3l-.18.39.17,3.16.26.35c.1,1.15-.13,2.53-.62,3.6-.48.38-.72,1.06-.57,1.65-.34.78-.65,1.58-.94,2.38l-.36.22c-.74,1.65-1.53,3.27-2.63,4.67-.55.68-.54,1.07-.27,1.73-1.36-1.38-2.72-2.81-4.11-4.3-.84-.77-1.82-1.61-2.74-2.23-.15-.62-1.11-1.29-1.75-1.34-.18-.12-.32-.15-.21,0-.58-.56-1.46-1.05-2.28-.82-.19-.24-.43-.25-.54.03l-.5.03c-.45-.46-1.74-.81-2.23-.3-.23-.05-.5.03-.72.12-.32.58-.76,1.28-1.43,1.44.03.61-.16,1.04-.59,1.5-.04.4-.18.73-.4.98-.28.86-.4,1.76-.36,2.72-.23.67-.33,1.21-.2,1.91-.23.32-.35.63-.35.95l4.12,1.52c5.46,1.88,10.97,3.76,16.42,5.53.51.28,1.07.47,1.65.57.04.01.07.03.11.04l1.39.6c.07.03.15.05.22.08.31,0,.62.14.88.3.04.01.07.03.11.04.43-.17,2.14.76,2.35.68-.01-.85.33.03.42.02l1.28-1.03c.17-.19.38-.36.56-.55.4-.56.79-1.11,1.38-1.49.06-.06.12-.12.19-.18,1.07-1.11,2.17-2.2,3.23-3.32.05-.62-.02-1.25-.19-1.9-1.03-4.53-1.97-9.43-1.41-14.2-.1,1.19,0,2.31.32,3.36.09.46.28,1.13.68.47.4.46.55.96.45,1.5.64,1.02,1.2,2.14,1.66,3.33.31.82.77,1.38,1.39,1.69-.51.38-.28.97.34,1.02-1.08,1.03.42,1.2.83.09.64-.34,1.09-.82,1.36-1.42.9-.6,1.63-1.32,2.18-2.16l-.23-.75Z" fill="#d42a27"/>
        <g>
          <path d="M82.63,97.9c-.71-.7-1.56-1.43-2.59-2.12-3.01-2.03-6.02-2.73-7.99-3-.88-.14-1.77-.28-2.65-.43-.51-.41-1.02-.81-1.53-1.22,1.49-.18,3.31-.6,5.18-1.57,1.32-.68,3.61-1.89,5.11-4.47.43-.74.69-1.41.85-1.9.11-.27.23-.54.34-.81.36-.53.76-1.07,1.2-1.63.59-.74,1.17-1.4,1.74-1.98.15-.16.31-.32.46-.48,3.04-3.35,5.46-9.09,3.24-13.43-.42-1.1-.83-2.58-1.46-3.59l.05-.15c.27-.17.72-.4.94-.61,3.91-3.1,2.13-13.06-3.61-12.97-.41.04-.58.36-.48.6-.1-.01-.21-.03-.3-.09.48-1.63.8-3.49.74-5.53,0-.21-.02-.42-.03-.63.09-.5.18-1,.27-1.51.17-.43.36-1.11.37-1.96,0-1.04-.28-1.85-.48-2.31.29-.84.59-2.02.66-3.44.05-1.08-.05-2.01-.18-2.75,1.68-1,2.44-2.67,2.01-3.92-.08-.23-.33-.83-1.14-1.32,2.17-1.39,3.06-3.71,2.38-5.38-.45-1.1-1.47-1.65-1.94-1.87.17-.41.72-1.8.07-2.71-.22-.31-.54-.51-1.17-.92-.57-.36-1.07-.61-1.43-.77.04-.08.42-.92.08-1.57-.07-.14-.24-.47-.6-.59-.07-.02-.13-.03-.17-.04-.33.11-.33.45,0,1.03l-.41,1.18c.4.43.6.91,1.37,1.07l.04.31c1.68.86,1.71,1.48.8,3.06.1.29.2.74.62.58-.03.37.44.59.73.37.14.3.39.57.76.81.14.28.31.44.52.49-.26.19-.34.98-.01,1.1-.2.32-.36.67-.49,1.04h-.15c-.18.27-.32.58-.41.94-.11,0-.12.04-.04.11-.44.09-2.13,1.03-1.96,1.6,3.72,2.78-.46,3.34-.85,5.86.57,1.79.35,3.3-.24,5.08.09,2.66.57,5.04-.25,7.7.12,0-.24,4.46-.4,3.88-1.57-6.86-.94-14.13-2.69-20.93,1.26-1.98-2.81.65-3.76.13l-.18.25-.31.04c-.63-.32-.73.16-.17.29.31.73,2.57-.05,3.16,0,.24.44.4.91.5,1.41l.26.07c.44,3.49.88,7.14.69,10.65l-1.41-1.97c-.81-.37-1.32.6-.36.97-.03.67.65,1.32,1.12,1.77-.1.32-.25.63-.45.92.33.62.85,1.02,1.62,1.19.48,2.76.69,5.76,1.85,8.31.02,0,.03-.03.05-.04-.22.94-.1,2.05.45,2.55-.09.44-.11.86.19,1.2.19,1.33.63,2.7,1.42,3.78-.23.23-.18.3.14.3l-.05.48c8.06,12.42-.57,16.68-5.21,26.98-3.63,4.45-9.59,5.3-15.08,4.87-.15.12-.34.19-.57.2l-.4-.26c-5.62-.33-9.34-4.71-14.37-6.74-.87-7.08-5.11-14.14-8.57-20.23l-.27.05c-.06-.43-1.25-1.73-1.02-.6l-.1.29c1.41,2.69,3.17,5.3,4.12,8.2l.27.11c1.22,3.78,3.35,7.29,4.24,11.09l.25.17c-1.03,1.9-2.62,3.57-4.33,5.01-.39,3.17,3.77-1.73,4.01-2.66.28.02.52-.16.72-.54,1.44.84,2.93,1.61,4.45,2.31l-.18.19c.09.55.1,1.15-.13,1.67-3.09,0-6.97-.86-9.65.88-.41-.03-.72-.06-1.04.25-.15-.18-.24-.14-.15.07-.63.47-.77.88-.42,1.21l.3.07c3.01-2.38,7.39-1.61,10.98-1.39-.16.9-.28,1.78-.35,2.63l.15.04-.02.34c-.78.49-.11,1.42.56.71.66-1.9,1.03-3.89,1.09-5.95,1.38,1.63,2.85,3.11,4.74,4.19.14-.11.27-.13.4-.03.27.88,3.01,1.56,3.92,1.81-.06,2.1.04,4.31.16,6.36-1.05-.24.94,1.42.77-.1.28-.39.66-2.28.13-2.54.37-.25.13-1.01-.17-1.29.51-1.37.23-2.98.5-4.43,7.49-1.66,11.07,8.57,11.95,14.36l-.12.07c.13.68.13,1.34,0,1.96l.1.17c-.11.02-.13.06-.04.11-.61,2.42-4.02,13.97-5.37,8.11.77-.59-1.11-.6-.32.6l-.13.71c-.22.22-.28.57-.18,1.03-1.58-1.64-3.64-2.42-5.15-4.14.41,1.65,5.01,5.16,6.58,7.1,1.91-5.05,6.89-11.73,5.17-18.38.21-.17.16-.27-.14-.3-.73-3.54-2.23-6.81-4.58-9.57,13.32.63,17.62,13.38,23.09,23.32-.03.49.52-.29.63-.4-2.88-6.21-5.96-13.48-10.93-18.27ZM81.67,48.93l-.04-.32c.14.09.23.11.27.08v.02c4.83.39,5.83,8.92,2.42,11.5-1.2-3.5-4.36-7.61-2.64-11.28Z" fill="#1b1814"/>
          <path d="M38.28,18.08c.55-1.9,1.99-3.34,4.06-3.06l.48-.14c1.59-2.4,4.48-4.73,7.53-4.42,1.26-.82,2.59-1.56,3.99-2.13,1.69-.69,3.23-.95,4.4-1.08.26,0,.64,0,1.08.12.42.11.58.22.82.29.21.06.45.07.67.05.13.33.89.49,1.41.22,1.01-1,2.59-1.44,3.97-1.57,4.62.66,5.84.56,5.91.28.11-.44-2.32-1.8-4.95-1.69-1.51.07-2.7.6-3.45,1.03-.48.34-.89.47-1.19.52-.24.04-.5.07-.79.21-.9-.36-3.2-.59-5.38-.14-1.82.38-3.72,1.27-4.68,1.72-.48.23-.88.43-1.16.57-.37.24-.75.47-1.12.71-.65-.05-2.61-.12-4.58,1.14-1.68,1.07-2.46,2.53-2.75,3.15l-.48.05c-2.53-.16-3.97,1.55-4.8,3.73-.71-.02-1.42.12-2.07.43l-.25.36c-.16-.18-.27-.09-.3.14-.28-.13-.65-.07-1.1.17-2.75-.12-5.38,1.25-6.84,3.61h-.17s-.46.77-.46.77c-.89,1.96-3.8,3.71-3.63,5.93.08,1.01.81,1.37.18,2.48-.27.48-.85.85-1.1,1.3-.54.98-.57,1.72.05,2.63-.03.48,0,.53.44.52-.15.36.49.98.84.78.03.21.24.34.33.11.38.2.55.18.52-.07v-.27c-.85-.66-1.43-1.73-1.45-2.82.62-.95,1.19-1.92,1.73-2.91-.23-.71-.46-1.41-.68-2.11.6-1.03,1.29-2.01,2.08-2.94.46-.68,1.02-1.6,1.22-2.34.44.17.95-.56,1.04-.95,1.51-1.52,3.84-3.1,6.1-2.34.86-.62,1.75-1.13,2.69-1.54.92.2,1.53.04,1.85-.49Z" fill="#1b1814"/>
        </g>
        <path d="M71.33,6.7c.08.17,0,.24.12.36.27.27,2.68-.12,3.29-.01.46.08,1.43.4,1.86.61.31.15.49.33.59.53.29.55-.14.93.15,1.33.18.24.55.39,1.22.66,0,0,.01,0,.01,0,.9.36,1.25.26,1.6.46.56.32.64,1.12.65,1.26.06.75-.36,1.26-.44,1.36.18.44.57.73,1.17.89.48.33,1.69.96,1.73,1.58.03.45-.53,1.63-.77,2.07.06.28.25.33.51.3.23.12.55.26.73.37.3.36.53.75.68,1.18.25-.16.46-.16.59.12.07.31.04.78-.01,1.1-.33.66-.68,1.32-1.05,1.98-.02.03-.01.08-.04.11-.2.14-.41.22-.62.21-.27.39-.61.57-.95.16-.32.27-.58.13-.77-.42l-.78.15c-.86-.17-.92-.09-1.03.72-.37.16-.67.38-.9.67-.31-.15-.63-.14-.96.04l-2.18.16c-.03-.21-1.29-.92-1.35-.87,0,.35-.02.38-.31.5-.11.04-2.11-.45-2.29-.57l-.18.21c1.26.05.65.87-.13,1.18-.15.73-1.45.46-1.82.14l-.37-.72c-.36.4-.81.34-1.33-.18l-1.08-.49c-.49.06-1.02-.1-1.57-.46-.23.54-.56.95-.98,1.23-.13.38-.36.71-.68.99-.13,1.15-.83,1.3-2.09.45-.49.21-.7.15-1.07-.21-.54.11-.92-.08-1.1-.59l-.25-.14c-.78.1-1.45-.06-2.02-.47-.26.42-.66.34-1.2-.24-.61.31-1.18.34-1.72.1.26.76-.07.97-.98.64l-.77.1c-.08.32-.36.59-.85.8-.37.79-1.15,1.25-1.17-.02-.39.17-.75,0-1.07-.54-.48-.17-.85-.43-1.11-.79-.24.09-.48.13-.75.11-.09.23-.16.14-.22-.08l-.17.02c.27-.02,0,.33-.24.08h-.29c-.09-.37-.27-.51-.56-.41-.06.22-.25.3-.58.23.49.53.19,1.19-.51,1.2.03.35-.06.58-.4.4l-.09.03c.18.24.21.28-.1.42-.04.84-.79.66-.91-.09-.73-.54.03-.17.02-.03,0,.39-.48.3-.74.24l-.17.32c-.44.21-1.03-.57-1.31-.96-.21.4-.68.59-1.08.64-.12.01-1.27-.63-.88-.95-.52.09-.84-.02-.96-.33-.33-.07-.6-.29-.8-.65-.35.26-.19-.11-.17-.1.16.05.12.53-.16.48.42.33.57.75-.07.9.09.75-.45,1.12-.96.48-.36.45-.59.08-.77-.31l-.19-.07c-.11.24-.28.38-.56.32-.08.29-.24.44-.48.46-.02.81-1.82.71-1.32-.21-.11-.36-.32-.69-.62-1,.23-.09-.58-.55-.63-.53-.27.32-.6.34-.96.19-.43.34-.93.06-.58-.43-.48-.04-.65-.32-.2-.6l-.13-.14c-.95.66-1.44.28-.99-.77-.17-.28-.41-.3-.73-.06.28.47-.02.64-.48.67.3.89-.69.98-.68.08-.4-.21-.55-.47-.25-.85.68-.53.88-1.05,1.44-1.64.97-1.02,3.21-2.2,4.64-2.11.27.02.98.24,1.03.24.31-.05,1.71-1.38,2.62-1.54.24-.05,1.37.08,1.49-.01.34-.25.78-1.94,1.32-2.46.2-.19,1.62-1.07,1.9-1.11.38-.06,1.32.17,1.69-.11.15-.12.17-.43.28-.55,1.49-1.79,3.72-3.58,6.1-3.91.37-.05.93.11,1.17.05.19-.06.82-.57,1.08-.71.85-.45,1.52-.99,3.25-1.58.78-.26,2.36-.78,4.43-.69.71.03,1.29.13,1.71.21.2.03.39.05.59.08,1.38.67,1.15.03,2.05-.48.66-.38,1.22-.67,2.62-.91.51-.09,4.75-.79,5.34.53Z" fill="#451911"/>
        <path d="M16.83,53.25c.38-.41,1.17.54.34.72-.6-.13,0,.89.17,1.13l-.62,1.66c.03.44-.06.78-.25,1.02-.35,1.06-.72,2.11-1.11,3.14.47,1.3,1.08,2.55,1.82,3.73l.93,1.12c-.1.85-.27,1.71-.52,2.56-.34,1.54-.17,3.25.04,4.86l.16.18.25.14.2,1.36-.18-4.19c0-1.77.2-3.6,1.03-5.17l.32-.07c.61-.57.58.4.35.86.03.26.95,2.13,1.46,1.65.44.41.98.62,1.61.63-.08.62-.07.79,0,.5.21.49.3,1.05.25,1.68.44,2.58.89,5.16,1.35,7.75-.07.81.04,1.17.33,1.07l.29.06c.82,2.23,1.5,2.64,2.03,1.21l1.31-1.28c.95-1.46,1.84-2.93,2.66-4.41-.11-.26.02-.5.38-.73.03-.55.26-.92.56-1.4.14-.69.44-1.81,1.19-1.87.07-.06.18-.11.24-.05.72.65-.82,4.07-1.29,4.82-1.07,1.81-2.06,3.63-2.98,5.48l-.26.08c-.4.74-.77,1.74-1.1,2.65-1.08,2.96-.47,4.54,1.44,7.11l2.14,2.53c.4.48.39,1.16-.2,1.45-.24.84-.25,1.71-.03,2.61.05,2.37.12,4.52,1.2,6.66.5.52.47.81-.1.89-.96.1-2.04.25-3.02.19-.54-.03-2.49-.26-2.7-.74-.08-.19.09-1,.09-1.33,0-1.64-.47-6.3-1.18-7.66-.56-1.08-2.3-1.85-3.32-2.59-3.29-2.36-6.89-4.61-8.26-8.6-1.55-4.52-2.4-9.78-3.78-14.44-.34-1.16-1.27-2.93-1.36-4.09-.08-1.14.88-2.94,1.27-4,.89-2.4,1.7-5.12,2.68-7.45.1-.23.38-.86.51-1.03.5-.69,2.61.51,2.41,1.53-.4,1.98-1.86,3.45-2.34,5.35-.49,1.97-.17,8.91.16,11.09.03.21-.03.53.26.56.3-3.29-.3-6.66.04-9.95.29-2.74,2.25-6.21,3.16-9Z" fill="#9b7652"/>
        <path d="M43.49,103c1.18.13,2.14.56,3.22,1.04,4.83,2.16,9.69,5.48,13.8,8.8.08.06.13.15.18.25s.09.2.13.31c-.23.15-.12.24-.38.05-.11-.09-.8-.89-.65-.28-.35-.28-.7-.45-1.17-.43-.16,0-.46.23-.56.08-.03-.04.18-.24-.04-.26-.07.56-.61.01-.98.52-.11-.09.1-.23,0-.39-.15-.22-1.42-.42-1.65-.37-.2.04-.05.42-.33.44-.23-.54-.19-.17-.3-.14-.12.03-.24-.06-.3-.05-.02,0,0,.21-.07.3-.19.23-.9,1.16-1.06,1.19-.07.01-.19-.14-.2-.12-.11.09.03.4,0,.55-.04.24-.42.37-.03.61-.64.09-.79.73-.56,1.28-.05.12-.28-.09-.34-.05-.05.03-.35.99-.35,1.05,0,.45.02,1.14-.06,1.76-.03.25-.26.81-.28,1.05-.02.28.14.53.08.86-.07.38-.46.53-.35.95l3.9,1.48c-3.79-1.31-7.56-2.53-11.33-3.9-.43-.16-.88-.28-1.3-.46-.01-2.3.03-6.45-1.56-8.25-.27-.31-1.12-.82-1.19-.97-.21-.49-.03-3.42-.11-4.25-.11-1.13-.55-2.77-1.81-3.1-.35-.09-1.7.06-1.63-.53.05-.4,2.13-.21,2.47-.18,1.6.17,3.29.63,4.82,1.15Z" fill="#b52525"/>
        <path d="M49.99,92.33c.09.24-.03.4-.23.53-.05.45-.18.62-.4.5-1.27-.46-2.83-.99-4.15-.71.14.45-.37.38-.46-.05-1.15-.69-2.29-.46-3.49-.07s-2.36.93-3.4,1.4l.13.19c.69.04,1.26.09,1.89.47.95,0,1.9.2,2.83.62,1.15.2,2.26.55,3.34,1.05.11.18.07.39-.1.51.52-.46.83-.46.93,0,.57.02.99.19,1.24.52.47.03,1.81.33,1.59,1.01.23,0,.4.1.48.26.01.68.54.66,1.08.52.17.03.27.15.35.31.47-.04,1.12.36,1.23.81.48-.15.69.15.48.59.32-.09.44.02.54.34.61.02.58.56.05.75l.15.33c.4-.12.79.21.84.62.41-.19.67,0,.79.6,1.13.07.58.62-.05.99-.13.08.68-.01.79-.17.42-.11.66.17.58.59.41.02.63.29.63.69.39.06.52.28.43.64.5.21.75.51.74.89.44.17.65.42.61.77,1.71,2.03,3.34,4.14,4.88,6.35l1.45,1.63c2.34,2.56,1.87,1.01,1.24-.93l.12-.38c-.63-.39-.93-2.03.03-1.91.08.08.16.16.22.25.4.57.82,3.17.94,4.04.03.21-.05.42-.14.62.07.54,0,1.12.17,1.66-.86-.8-1.77-1.58-2.63-2.38-.31-.11-.56-.31-.81-.52-6.4-5.76-13.43-11.18-21.6-13.94-2.15-.72-3.73-.94-5.94-1.13-.16-.01-.29-.1-.4-.2-.33.02-.65.08-.97.14-.04-.37-.33-.82-.41-1.11-.33-.14-.4-.35-.07-.52-.39-.49-.66-1.4-.53-2.03-.35-.03-.44-.66-.1-.77-.32-.37-.4-.85-.24-1.44-.36-.28-.17-1.47.11-1.81,1.33-.81,2.64-1.64,3.95-2.5h.25c1.19-.8,1.55-1.26,3.06-1.5,2.69-.43,5.74-.36,8.42-.02.19.29-.38,2.38-.39,2.89Z" fill="#e3ebf6"/>
        <path d="M50.87,27.94l-.26.34c-1.29.46-2.64.75-4.01.73-.08,2.02-1.4,3.39-3.24,4-.04.89-.1,1.78-.18,2.66.28.5.42,1.08.5,1.65.08.64.17,1.76-.33,2.17-.12.69-.35,1.36-.68,1.98l.12.3c-.54.95-1.13,1.86-1.78,2.73.44,1.4.71,2.94-.1,4.23.2.38-.82,2.09-1.06,2.23-.06.03-.13.04-.21.04.12.32.04.46-.26.4.2.27-.05.54-.26.74.64,1.57,1.08,3.27,1.16,4.97.02.52.03,2.14-.19,2.5-.08.13-.17.22-.31.28-.1.61-.29,1.22-.61,1.76.28.36-.56,1.42-.91,1.62-.13.07-.25.07-.39.03-.06-.06-.25-.1-.38-.22-.2-.2-.45-1.15-.64-.38l-.32-.25c-2.68-4.43-5.58-8.91-8.96-12.72-.48-.54-1-1.1-1.59-1.52-.57-.4-1.48-.54-2.07-.13,5.47,5.19,9.97,11.77,13.5,18.49.07.14.11.29.15.45s.06.33.08.49c.26.25.52.51.69.83,2.23,4.09,4.05,9.15,5.29,13.65.07.26-.01.54-.32.51l-.1.41c-2.5,3.01-5.49,5.67-8.74,7.91l.47,1.54c.88-.46,1.79-.99,2.6-1.57l.36-.06,1.19-1.03c.09-.07.17-.04.25.05l.09.09c-.34.21-.55.73-.51,1.12-.54.37-1.04.8-1.58,1.16-.44.29-2.37,1.32-2.54,1.57-.13.19-.13,1.2-.19,1.57-.14.57-.06,1.04.24,1.44.04.22.04.49.1.77-.13.69.15,1.46.53,2.03.03.13.01.31.07.52-.28,0-.39-.26-.63.03l-.28-.14c-.53-1.37-1.12-3.42-1.11-4.88.52-2.24.08-4.06-1.5-5.81l-1.98-2.44c-1.05-1.41-2.16-3.64-1.16-5.28.1-.43.39-.91.59-1.31,1.05-2.09,4.09-6.46,3.86-8.69-.02-.18-.14-.27-.16-.33l-.27-.11c-.17-.64-.49-1.37-1.18-1.57l-6.71,10.1h-.27c-.11.18-.27.43-.52.43.13-3.71-1.65-7.23-1.4-10.94-.11-.26-.11-.5,0-.72l1.72-3.71c.83-2.05,1.16-4.6-.66-6.18-.87,1.88-1.84,3.7-2.92,5.45l-1.2,1.43c-.14-.05-.26-.02-.35.09-.61.9-.91,2.38-1.04,3.48-.26,2.26.21,4.56.07,6.83-.19.13-.27-.18-.32-.3-.19-.55-.27-1.47-.34-2.08-.22-.42-.23-1.13-.24-1.62-.21-.82-.28-1.71-.05-2.53-.1-.46-.05-.89.22-1.29l.06-.6c.11-.47.21-.95.3-1.42.05-3.05.7-5.9,1.44-8.8.32-1.79.67-3.99-.68-5.43v-.32c.27-.22.2-.73.33-.99-.19-.15-.12-.34.19-.56l2.36-1.77c.26-.37.54-.6.83-.69.09-.36.25-.71.47-1.04-.99-2.21-1.82-4.98-.68-7.31.51-.71.79-1.42.86-2.13l.52-.07c.37-.5,1.32.17.9.82-1.6,1.99-2.04,4.63-1.12,7.07.45.68.7,1.39.75,2.14.53,0,1.09,0,1.36.54.83-.67,1.27.09,1.62.8,4.19,4.07,7.44,9.17,10.38,14.11.21.51.93-.81,1.04-1.07,1.18-2.78.63-6.09-.78-8.67l-.02-.33c1.62-2.07,3-4.96,2.01-7.59-.1-.59.05-1.01.63-1.21,1.82-1.91,2.82-5.15,1.39-7.49.22-1.04.26-2.12.12-3.23.39-.45.96-.78,1.71-1.01,1.48-.84,1.82-1.77,2.1-3.36.41-.04.82-.03,1.23.04.13-.03.21-.11.25-.24.51-.11,1.52-.23,1.92,0,.43-.33.88-.49,1.37-.48.39-.29.67.04.29.31Z" fill="#131414"/>
        <path d="M34.91,100.05c.17.66,1.22,4.1,1.05,4.48-.21.46-3.15.8-3.75.86l.33-.25c-.47-.4-.65-.98-.87-1.54-.79-1.96-.66-3.59-.78-5.66-.07-1.17-.41-1.63.11-2.98.03-.07.23.06.31-.14.16-.39.08-.65-.18-.94-1.41-1.62-3.53-3.85-4-6.09-.33-1.63-.13-2.29.42-3.73.3-.8.69-1.57.92-2.39l.4-.17c-1,4.34,3.33,6.52,4.74,9.81.8,1.87-.01,2.83.15,4.5.11,1.13.83,3.04,1.14,4.25Z" fill="#b09373"/>
        <path d="M30.22,114.06l-1.21-.16c.06-.67.23-1.33.5-1.96.39-.24.51-.95.45-1.41.05-.44,0-2.73.19-2.89l2.09-.14c.03.97-.02,1.98.06,2.94.01.15-.06.34.13.44.3-1.12.14-2.34.22-3.49.73.16,1.82-.53,2.46-.5.24.01.12.09.12.2.02.87-.25,1.83-.23,2.77,0,.29-.04.74.16.97.42-.91.09-3.49.79-4.1.22-.19.84-.33,1.11-.53.25.08-.22,2.91.28,3.29.39-.91-.16-3.07.4-3.76.18-.23.64-.45.91-.58-.07,1.15.28,2.25.4,3.37.16,1.47.27,1.92-.73,3.07-1.82,2.1-5.41,2.88-8.09,2.46Z" fill="#ce2927"/>
        <path d="M65.68,116.79c-.2-.05-.37-.02-.56-.14-.62-.37-1.45-1.33-2.07-1.83-.1-.08-.46-.48-.49-.08-.54-.48-1.19-.88-1.75-1.34-4.73-3.88-11.51-8.41-17.33-10.39l1.17.16c-1.61-.66-3.22-.97-4.9-1.32-.38-.08-.76-.27-1.17-.35-.5-.1-1.56.18-1.67-.5,5.85-.34,14.65,4.62,19.4,7.96,3.4,2.4,6.34,5.01,9.36,7.83Z" fill="#332126"/>
        <path d="M25.4,106.25s-.13-.13-.18-.19c-.14-.34-.92-.89-.9-1.26.05-.95,2.11-.91,1.68-.44-.17.18-1.09.35-.28.96,1.92,1.44,7.86.81,10.12.09.3-.1,1.54-.55,1.64-.74.5-1.01-.98-.36-1.13-.56-.11-.95.58-.96,1.32-.77s1.03.79.6,1.43c-.63.95-3.98,1.85-5.12,2.07-2.56.49-5.36.6-7.75-.6Z" fill="#cb2d27"/>
        <path d="M23.92,99.1c.12-.14,1-1.38,1.22-1.05.07.1.16,2,.2,2.33.06.47.47,2.48.35,2.73-.04.1-.23.08-.24.1-3.9.89-1.92,6.17-3.17,8.87-1.15-.48-2.38-.7-3.56-1.1-.4-.14-.81-.28-1.21-.42.96-4.2,3.24-7.77,5.89-11.07.01-.23.18-.35.51-.38Z" fill="#e6eff6"/>
        <path d="M23.92,99.1c-1.57,1.81-3.34,4.43-4.44,6.56-.8,1.56-1.23,3.28-1.96,4.88l-.08-.1c.4-1.42.67-2.85,1.33-4.19.39-.8,1.42-2.71,1.93-3.36.16-.2.35-.12.38-.18.12-.3-.11-.5.45-.7.2-1.04,1.18-1.84,1.81-2.69l-.46-.09s-.37-.17-.18-.55c.41.15.74.47,1.21.42Z" fill="#272125"/>
        <path d="M18.83,51.35c2.48,2.09.47,7.23-.05,9.86-.31,1.54-.29,2.97-.47,4.44-.12.97-.53,1.88-.66,2.88-.18,1.4-.05,3.42.12,4.83-.07.18-.28-.09-.29-.16-.01-.09.14-.5.05-.78-.06-.22-.28-.34-.29-.36,0-.04.19-.18.2-.32.02-.19-.24-.45-.29-.68-.03-.16-.01-1.25,0-1.48,0-.17.35-.13.18-.55-.1-.26-.46-.17.08-.41-.5-.48.18-.52.19-.56.05-.13.18-.86-.09-.82l.04-.11c.62.2-.39-.75.3-.51l.04-.11c-.37-.07-.05-.19-.06-.25-.02-.07-.31-.26-.32-.44l.44.15c-.31-.47-.72-.84-1.06-1.31-.74-1.02-1.1-2.02-1.49-3.16-.05-.15-.25-.21-.3-.54-.09-.6,1.23-2.68,1.11-3.52l.35.06c-.57-.51.63-2.3.52-2.59h-.37s.06-.72.06-.72l-.31.38c.09-.16.29-.97.34-.99.1-.05.49.36.52-.07l-.51-.3c.28-.85.49-1.71.76-2.57.06-.03,1.1.56,1.24.67Z" fill="#b09373"/>
        <path d="M74.42,102.82c.41.22.12-.24.22-.29.07-.04.36.11.4.11.12,0,.06-.25.23-.14-.09.18-.41.77-.7.62,0-.03-.12-.15-.14-.3Z" fill="#ce2627"/>
        <path d="M75.85,103.31c-.04.51-.77.51-.53.12.05-.08.48-.23.53-.12Z" fill="#ce2627"/>
        <path d="M68.46,114.79c.2-.34.16-.45-.01-.9.02-1.64.13-3.29.31-4.94-.36-.14-.32-.42.1-.82-.11-1.43-.07-2.86.09-4.27-.16,0-.26-.08-.29-.23.26-.65.25-1.33-.37-1.71.15-.39.14-.49.04-.89l.11-.14c-.35-.25-.29-.5.05-.71-.41-1.53-1.04-3.03-2.21-4.17-.32.26-1.05-.32-1.04-.7-1.19-.49-.67-3.59.37-3.96.83-.29,3.7,2.76,3.89,3.67l1.31,1.72c.64.76.84,1.62.92,2.57.79.3,1.08.76.95,1.6.58.64.82,1.49.7,2.53.27.52.31.97.11,1.36.32.31.34.7.07,1.16.16,1.07.2,2.03-.06,3.07l.08.27c-.35,1.53-.91,3.02-1.49,4.47-.2.51-1.8,3.93-2.35,4.26-.24.14-.46.17-.62-.1-.07-.65-.25-1.23-.55-1.75-.02-.14.02-.28,0-.37-.38-.15-.44-.78-.14-1.03Z" fill="#fff"/>
        <path d="M74.02,105.76c-.12.07-.09,1.86-.05,1.98.03.07.03.15.03.23-.01.04-.02.07-.04.11-.01.5-.16.81-.45.95-.22-.41.03-.91.03-1.34,0-.51-.18-1.17-.17-1.65,0-.27.17-.51.17-.73s-.28-.3-.28-.51c0-.12.17-.25.17-.44,0-.21-.23-.58-.27-.88-.1-.83.11-1.35-.34-2.13-.08-.14-.29-.23-.34-.34-.09-.19.06-.63-.08-.92-.19-.42-.72-.45-.89-.67-.05-.07-.09-1.23-.38-1.74-.54-.96-1.08-1.49-1.71-2.37-.72-.99-.93-1.87-1.96-2.7-.27-.22-1.57-1.14-1.79-1.06-.83.3-1.08,2.55-.69,3.29.13.25.34.14.45.31.08.13.04.37.05.39.03.03.29-.04.4.01.09.04-.02.24-.01.25.17.25.29-.15.35-.13.08.02.42.31.49.4.46.52,1.22,1.84,1.53,2.45.17.32.16.93.28,1.3.04.13.25.28.25.36-.01.15-.46.26-.39.42.02.03.61-.08.35.43-.48-.05-.22.28.16.24l-.45.58c.26.3.35-.54.55-.18.07.12-.17.45-.15.53,0,.04.16.1.16.17.02.5.12.9-.21,1.32l.24-.16c.32.27-.04,1.19-.05,1.58-.02.75.24,2.8.02,3.38-.03.09-.34-.12-.32.2h.37c-.07.18-.11.37-.11.56,0,.43-.03.7-.07,1.13-.05.63-.39,3.19-.27,3.52.09.25.42.21.1.45.31,0,.4.05.49.36l-.75.05-.31-.38c-.44-2.56-1.18-5.03-2.14-7.37.06-3.82-.86-8.58-4.26-10.87l-.17-.35c-.03-1.55.17-3.15.27-4.7,1.05.22,2.85-.27,3.78-.05,2.18.5,5.22,4.78,6.29,6.7,1.38,2.47,2,5.19,2.11,7.98Z" fill="#e7edf7"/>
        <path d="M81.63,48.61s.17-.07.19-.18c.05.08,1.44.32,1.84.52,3.3,1.65,4.12,9.68.56,11.62-1.05-2.54-2.42-5.07-3.02-7.76-.37-1.62-.7-2.83.44-4.19Z" fill="#a38058"/>
        <path d="M37.61,67.53c-3.61-6.85-7.4-12.62-12.79-18.24-.4-.41-.82-.86-1.33-1.13.45-.64,1.37-.62,2.05-.4,1.04.33,2.69,2.45,3.44,3.35,2.92,3.5,5.67,7.72,7.83,11.6,1.1,1.98,3.78,6.65,4.29,8.61.32.62.31.93.09,1.51-.53.3-.81-.36-.51-.82-.28-.3-.41-.74-.41-1.13-.3-.07-.37-.3-.19-.71l-.75-.87c-.1-.89-.58-1.52-1.49-1.59l-.24-.17Z" fill="#dee3e0"/>
        <path d="M68.46,114.79c.07.34.08.69.14,1.03-.62.37-.06.74-.1,1.01-.03.19-.15.61-.36.68-.22-1.65-.63-3.29-1.02-4.9l-.34-.43c-1.29-7.1-5.18-11.33-11.17-14.87-3-1.77-6.28-3.57-9.66-4.41-.37.03-.62-.05-.74-.26-.22-.35.08-.19.22-.2.99-.09,1.93.05,2.89.29.23.06,1.2.46,1.26.43.04-.02.28-.71.41-.84,0,.03.24.17.09.46-.02.05-.22-.02-.27.05-.29.41.12.54.49.71l.48-.04c1.75.7,3.44,1.52,5.06,2.47l.24.43c.1,0,.2,0,.3.01.37.06,3.73,2.42,4.32,2.89.19.15.31.3.12.46,0,.02-.11.03-.15.07.42.3.73.39.92-.17.31-.02.34.31.3.57,1.24,1.31,2.5,2.65,3.43,4.2-.38-2.73-1.62-5.4-3.6-7.3,0-.28-.16-.84-.17-1.29,1.96,1.07,2.91,2.75,3.65,4.76.58,1.57.91,3.14,1.03,4.81.03.47-.12,1.07-.04,1.48.12.62.8,2,1.04,2.79.47,1.58.89,3.51,1.21,5.13Z" fill="#2c2526"/>
        <path d="M69.23,87.88c1.14-.23,3.08-.55,4.04-1.18.2-.13.29-.38.32-.39.04-.02.21.16.72-.12.68-.37,1.09-.83,1.58-1.25.36-.3.78-.56,1.12-.9-.12.3.39.28.42.39.06.2-.57.68-.34.99-3.12,5.05-10.24,5.44-15.64,5.07-.25-.24.29-.08.39-.13.02-.01-.01-.2.1-.26.33-.19.41.18.44-.52l-.84-.05c.15-.14.22-.46.48-.33l.04-.11c-.44-.05-.34-.54-.43-.89,1.03.19,1.71.22,2.76.21.16-.39.72-.28.99-.03.36-.02.3.14.77-.1.52-.16,1.26-.37,1.8-.39.19,0,.52.08.63.12.23-.04.44-.1.66-.14Z" fill="#a6805e"/>
        <path d="M56.76,91.58c1.24.71,2.74,1.28,4.09,1.7,0,1.99.15,3.98.16,5.97,0,.16.06.47-.18.5.02-.05.03-.09-.02-.13-1.66-.95-3.13-2.2-4.73-3.23.06-.39-.16-.97-.59-1.07-.21-.7-.36-1.4-.46-2.08l.14-.17c-.34-1.22.46-1.9,1.58-1.49Z" fill="#b09373"/>
        <path d="M56.76,91.58c-.32-.22-.23.32-.37.36-.05.02-.38-.58-.87,0-.43.51.05,1.29-.1,1.38-.04.03-.24-.18-.26.04.58.12.15.21.17.43s.28.82.33,1.1c.02.08-.11.19-.11.2.05.06.29.08.41.21.11.12.67,1.14.12,1.09-2.02-1.29-3.63-1.89-5.78-2.85.78-2.12.97-4.41,1.06-6.65.91.69,1.51,1.71,2.35,2.47.87.79,2.03,1.64,3.05,2.22Z" fill="#a27b5c"/>
        <path d="M37.61,67.53c.54-.24,1.26.26,1.6.63.26.29.18.8.38,1.1.27.39,1.13.75.53,1.34.61.09.32.25.39.49.13.39.17.82.62.85-.33.36-.59.53-.04.84-.25-.42.16-.5.21-.73,0-.04-.17-.63-.2-.74.98,2.05,1.99,4.14,2.83,6.26.33.85,1.67,4.35,1.66,5-.42.27-.91.31-1.46.14-.45.68-1.26.68-.85-.2,0-.12.15-.29.09-.45-1.44-5.09-3.3-9.86-5.76-14.53Z" fill="#edefef"/>
        <path d="M45.6,82.58c0,.32.01.4-.13.76-.48,1.18-3.12,3.57-4.15,4.53-.2.73-1.18,1.45-1.86,1.82-.05.02-.1.05-.15.07-.34.16-1.07.73-1.44.98l-.08-.26,2.43-2.58c0-.05-.86-.4-1-.35-.16.06-2.34,2.31-2.3,2.47.35.23.67.47.94.72-.07.05-.18.24-.33.34-.9.6-1.83,1.12-2.76,1.67l-.6-1.97c2.33-1.72,4.68-3.51,6.7-5.6.83-.86,1.51-1.87,2.41-2.66-.01.18.08.56.33.48.11-.03.12-.61.78-.52.15.02.25.16.36.18.04,0,.51-.28.85-.08Z" fill="#b8babb"/>
        <path d="M61.75,97.11c.18-.19.36.07.48.18,1.82,1.66,3.4,5.4,3.4,7.86,0,.6-.5-.62-.52-.66-.89-1.57-2.2-2.83-3.39-4.18.02-.2-.1-.53-.1-.66-.02-.78.15-1.71.13-2.54Z" fill="#a92527"/>
        <path d="M41.53,88.68s-.02.09-.04.11c-.04.05-.85.83-.91.86-.18.08-.75-.07-1.12.04.53-.7,1.23-1.23,1.86-1.82.42.13.15.33.14.54,0,.09.08.21.07.27Z" fill="#131414"/>
        <path d="M82.21,57.66c.03.08.1.18.14.3-.62.09-.2.8-.92.54.17-.22.36-.97.78-.84Z" fill="#b69878"/>
        <path d="M85.88,67.9c-.21-3.73-2.17-6.61-3.52-9.95-.22-.1-.26-.2-.14-.3-.64-1.62-1.19-3.29-1.61-4.98-.21-.84-.31-1.68-.49-2.51-.61-2.79-1.29-5.59-1.67-8.43-.57-.25-1.09-.57-1.66-.84l-.21-.35c-2.17-.98-4.62-1.84-7.03-1.51-1.01.14-2.56.5-3.05,1.39-.1.75-1.13-.05-.16.06.08-.19.11-.39.09-.58.12-.32-.23-.38-.47-.41l.35-.13c.91-1.93,1.68-3.17,3.51-4.33.33-.21.7-.38,1.08-.24l.28.19c1.7-.18,3.26.75,4.44,1.91h.34c.81.87,1.28,1.84,1.97,2.66.07.08.12.29.26.15-.39-1.37-.13-2.74-.18-4.12-.09-2.42-.24-4.95-.94-7.27-.59-.31-.51.56-.28.94-.61.38-1.31.61-2.1.68-.37.28-.49.34-.96.31-.3.2-.54.23-.72.08-1.62.5-3.18,1.15-4.7,1.93-1.53.29-3.1.34-4.72.17-.39.07-.98.25-.96.65-.28-.2-.59,0-.48.33l-.27-.12c-.72.5-1.44.67-2.31.44l-1.68-.39c-.43-.09-1.35-.18-1.36.35l-.34-.14c-.61.26-1.24.42-1.9.53-.33-.47-.7-.53-.9.06-.67.01-1.34.08-2.01.21-.51-.36-.65-.2-1,.21-.5.6-1.32,2.62-1.59,3.43-.02.07.09.16.16.21.3.16.68.2,1.14.13.56.14,1.07.15,1.5.05.4.01.61.14.62.38.69.23,2.77,1.65,2.83,2.33-.09.13-.12.26-.1.41l-.26-.13c-1.39.25-6.07,1.81-6.56,2.79-.04.08-.07.17-.09.26-.27.05-.62.25-.67.51-.33-.2-.98.53-.78.84l-.29,4.08.68-.75c.26-.64.62-.85,1.06-1.19.63-.48,1.19-.95,2.01-.95l.09.27.28-.27.05.38c.24-.59.4-.28.66-.29.07,0,.11-.18.18-.16.12.03.61.38.6.53l-.46.63c.2.27.68.22.66-.14l.24.26c1.04.17,1.98.69,2.77,1.38h.36c.12.01.18.07.18.19l.02.36c1.77,2.04,2.95,5.09,2.12,7.7-1.83.25-3.68.58-5.4,1.28-.26.11-.64.27-.52.56-.29.4-.61.82-.95,1.26l-.78,1.17c-.3.35-.46.67-.46.95-2.51,3.61-2.53,7.86-1.47,12.02.25.99.55,2.01,1.24,2.78-.1.24-.09.34,0,.57.81,1.99,3.04,4.65,4.62,6.13,1.03.96,2.11,1.85,3.33,2.34.68.21,1.23.46,1.78.89.74.2,1.48.42,2.22.65l.19-.2c.26.31.68.44,1.25.4.62.13,1.13.07,1.51-.19.17-.08.32-.28.45-.6.23-.8.37-1.17.7-.16-.8-.2-.99.56-.16.73.08.42.88.34.77-.1.65-.02.77-.39.91-.94.2.11.41.05.59-.07.07.5.18.82.75.71.03-.17.09-.16.18.03.24.29.56.22.66-.14l.23.19c1.31-.14,3.27-.6,4.23-1.49.42.02.78-.2,1.12-.43l2.1-1.71.22.1c-.42.54-.43.83-.05.88.93-1.5,1.41-3.34,2.24-4.7.26-.43.99-.95,1.35-1.37,2.85-3.28,5.47-6.85,5.21-11.45ZM60.4,67.57c.3.14.74.23.75-.18l.2-.18c-.06-1.16,1.17-2,2.15-2.37l-1.2,1.12c-.53.37-.45,1.49.21,1.41.34-.18.72-.35,1.13-.51.3.29.55.33.75.11,1.09.52,2.47.52,3.67.42l4.41-.78c.19-.07.36-.19.51-.35.11.23.38.28.82.15-.18.4-.13.59.15.58.66,0,1.35-1.11,1.67-1.7.91-1.66.92-2.86-1.1-3.32-.71.04-3.44-1.01-1.21-.75,1.05.12,2.12.5,2.82,1.32l.32.04-.1.27c.63,1.24-.17,2.68-.94,3.68l.08.27c-.37.49-.36.82.03.99-.27.41-.33.64.19.78-.31,0-.41.29-.46.58-.39.24-.59.5-.59.8-.12-.05-.19,0-.21.07-.16-.3-.48-.52-.77-.22-.72,1.4-2.49,1.8-3.95,2.02-1.15.02-2.24.17-3.27.45-.63-.33-1.33-.43-2.09-.31-.33-.11-.62-.14-.88-.07-.28-.35-.71-.37-1.31-.07-.11-.44-.21-.73-.74-.59-1.4-.82-1.61-2.22-1.04-3.66ZM55.61,81.35c-4.35-3.07-5.82-8.03-4.49-13.09,3.93,5.64,11.79,7.9,18.27,5.92-1.38.48-2.76.91-4.14,1.28l-.2.3c-.47,2.18-2.5,2.99-4.54,3.29l-.54.21c-.44.76-1.08,2.76-.42,3.47.44.47,2.48.44,3.76.34-3,.35-4.87.27-7.69-1.71ZM64.15,82.97s0,0,0,0h0s0,0,0,0Z" fill="#b09373"/>
        <path d="M75.93,36.93c-.61.92-.13.49.22.92.11.14-.01.35.07.5.1.17.59.76.77,1.04.08.12.29.19.31.25.11.28-.41.98-.53,1.27-3.32-1.55-6.99-2.66-10.29-.47-.1-.02-.17-.04-.17-.05.1-.55.38-1.14.63-1.64l-.12-.32c.52-1.13,1.24-2.21,2.27-2.94.47-.33,1.24-.85,1.79-.67,1.91-.37,3.79.78,5.05,2.11Z" fill="#3f1e13"/>
        <path d="M49.21,28.11l.52-.44c-.48-.14-.6-.66-1.1-.75l.04.26c-.33-.09-.57-.36-.79-.03-.3-.6-.57-.44.03-.97l.29.59c.8-.84-1.07-1,.11-1.56l-.15.25c.31.82.68.41,1.07.59.04.02.63.46.65.5.16.23-.17.69-.14.75.02.04.74.28.81.29.06,0,.78-.71,1.05-.69l-.09-.46.47.41c.2-.24-.37-.59-.25-.7.01-.01.34-.13.36-.12.14.04.26.26.45.28-.12-.41.66-.26.8-.71.06.14.18.28.2.44.02.18-.34.19.32.36-.5.51.01.43.05.75.05.39-.3.61.31,1.04.33.23.63-.1.89-.26-.34,1.31.56.64.99.74.71.16,1.95.15,2.71,0,.51-.1,1.92-1.07,2.44-1.1.63-.03,1.29.37,1.92.18.17.22.07.28-.1.46.48.27.81.22,1.31.19.3-.02.52.01.75,0,1.03-.05,3.11-.48,4.03-.93.64-.32,1.58-1.8,2.21-1.84.8-.05.69.61.78.65.07.03.3-.06.44-.02.32.08.65.27,1.01.3-.01,0-.09.11-.26.13-.21.02-.4-.25-.44.12l-1.58-.42c-.22.11-.61.65-.91.86-1.34.92-4,1.63-5.62,1.69-.73-.05-1.42-.2-2.06-.46l-.27.15c-1.45-.11-2.92.14-4.41.75-2.2.49-4.49-.11-6.19-1.56-.45.24-.78.29-1,.14-.04-.23-.03-.38-.34-.22s-.95.32-1.32.39Z" fill="#311512"/>
        <path d="M85.04,19.77h-.5c.12.08.12.9-.15.64-.16-.16-.05-.53-.13-.63-.06-.08-.25-.08-.29-.13-.01-.01.16-.18.13-.35-.06-.28-.63-.42-.34-.82.56.35,1.11.6,1.27,1.3Z" fill="#3e1b12"/>
        <path d="M83.98,22.85c.02-.19-.08-.52-.02-.68.04-.12.28.11.29-.09-.17-.13-.51-.2-.32-.48l.51.3.27-.77.33-.25c-.13.83-.5,1.33-1.05,1.98Z" fill="#3e1b12"/>
        <path d="M81.56,14.15c-.5-.22-1.29-.19-1.17-.89.29.42.75.61,1.17.89Z" fill="#3e1b12"/>
        <path d="M72.91,26.79l.22.08c-.62-.09-1.2-.24-1.8-.5.27-.13,1.21.29,1.58.42Z" fill="#3e1b12"/>
        <path d="M83.03,18.1c-.23.31-.44-.03-.7-.12,0-.13.18-.16.19-.18.15.14.34.2.51.3Z" fill="#3e1b12"/>
        <path d="M82.17,24.5c.09-.48,1.34-1.07,1.77-1.54-.75.23-.79-.53-1.5-.64l.69.85c-.44.48-.48-.05-.74-.14-.09-.03-.24.29-.34.26-.07-.02-.15-.54-.38-.6-.19-.05-.61.13-.85.15-.21.01-.53-.13-.57-.12-.03,0-.58.27-.6.3-.05.11.09.42-.01.6-.14.24-.6.19-.66.25-.07.06.07.37-.21.39l-.56-.68c.03.33.48.32.05.57-.45.26-1,.1-1.49.14-.22.02-.7.24-.81.22-.2-.04-.17-.29-.27-.38-.09-.08-.32-.04-.47-.14-.28-.17-1.05-.58-1.24-.76-.13-.12.1-.29,0-.38-.56.22-.74-.02-.91.67.64.4,1.11-.3,1.13.64-.66-.5-1.44-.24-2.16-.5-.07-.14.8-1.07.27-1.14.08.36-1.04,1.41-1.01,1.5.12.34.97-.01.86.36-.01.04-.51.46-.59.47-.08,0,.04-.47-.27-.46-.09.05.18.65-.15.93-.31.26-.71-.23-1.18-.05l-.52-1.03-.16-.06c-.4.85-.77.18-1.17-.03-.21-.11-1.23-.59-1.36-.6-.09,0-.14.19-.22.17-.37-.07-.8-.6-1.21-.54,0-.02.24-.62-.11-.41-.03.02-.02.41-.11.6-.09.19-.5.8-.64.96-.11.12-.3.04-.33.11-.05.12.02.37-.02.4-.06.05-.76-.04-.23.36-.62.23-.5.83-.65,1.13-.17.34-1.34-.44-1.6-.48-.25-.04-.45.18-.55.15-.03,0-.5-.38-.52-.41-.02-.02.23-.34-.09-.51l-.08.59c-.81-.02-.59-.36-.82-.57-.5-.46-1.04-.04-1.76-.32-.52-.2-.71-.74-1,.02l-1.11-.88-.04.48c-.32-.25-.67.13-.74.12-.03,0-.56-.18-.57-.21-.09-.16.2-.52.18-.55-.02-.04-.61-.29-.73-.37.16.53.44.86.02,1.36l.25-.04-.04.48c-.33-.38-1.27-.33-1.68-.15-.18.08-.07.3-.15.42-.09.12-.29.05-.4.16-.31.3-.62.75-.98,1.04-.16-.14-.04-.44-.13-.69-.05-.16-.23-.27-.28-.44-.31.86-.5,0-.92-.28-.24-.17-.57-.22-.82-.42-.12-.1-.24-.5-.58-.59.03.59-.05.23-.35.31-.15.04-.18.22-.21.23-.07.06-.14.04-.22-.08,0,0,0-.16-.06-.14-.02,0-.24.18-.35.24l-.3-.07c-.09-.28-.25-.49-.54-.34-.05,0-.48,0-.55,0-.24-.01-.85-.4-.91-.38-.07.74.93.45.91,1.25,0,.23-.19.08-.24.11-.05.04.02.21,0,.22-.03.01-.51-.04-.62.04-.05.04.3.55-.08.58-.19-.22-.14-.49-.59-.45l-.04.48.35-.13.2.32-.48-.04c.44.73-.28.77-.25.22,0-.06.11-.14.11-.15-.07-.09-.61-.17-.77-.26l.22.44c-.48-.08-.78-.28-.85.32-.46-.07.05-.32,0-.37-.22-.26-.44.1-.46.09-.23-.14-.53-.97-.89-.79-.06.03-.36,1.06-.78.1l.24.02c-.14-.13-.13-.5-.2-.59-.12-.14-.74-.42-.77-.46-.05-.07,0-.33-.08-.36-.02-.01-.47.11-.5.19.3.19,1,.67,1.15.95.1.19-.19.33-.14.51.05.16.51.22.27.33l-.97-.58h.37s-.29-.22-.29-.22h.37c.02-.27-.27-.35-.47-.4-.15.55-.14.19-.35.17-.14-.02-.28.1-.3.1-.05-.01-.15-.31-.05-.38.02-.02.56.05.44-.22-.11-.24-.41.37-.59-.08l-.06.35c-.54-.15-.5-.65-1-.84.02-.2.18-.01.24-.06.03-.02-.03-.18,0-.2.05-.04.27.15.27-.17-.4-.04-.43.3-.88.07-.02.14.39.4.43.52.07.17-.37-.06-.31.2l.16.24c-.83-.26-.41-.32-.48-.72-.04-.26-.18-.54-.3-.78-.43.11.05.5.07.7-.89.09.68,1.27.74,1.42.14.35-.36,0-.42.16-.08.14.17,1.16-.42.76-.32-.22-.09-.82-.65.04-.15-.27-.15-.55-.49-.64-.4-.1-.35.21-.46.28-.36.23-.56-.6-.97-.67.16-.17.41.09.21-.38-.3-.71-.37-.06-.92-.05,0,.25.93.97,1.22,1.1l-.3.14.29.22c-.61.46-1.02-.7-1.54-.9-.02.35,1.14,1.34,1.11,1.42-.26.14-.64.1-.96.1-.02,0-.07-.31-.07-.33.02-.08.38.01.42-.16-.61-.1-.37-.52-.41-.57-.15-.17-.51-.22-.55-.56l.79-.16c-.42-.06-1.13-.68-.99.03-.2-.47-.47-.43-.89-.62-.38.14.11.18.03.26-.3.29-.56.03-.79.05-.07,0-.34.32-.48.07-.05-.08.56-.21.52-.43l-.94-.14c.28-.08.58-.16.76-.41-.39.08-.74-.38-.79-.39-.26-.08-.18.41-.21.42-.06.03-.38-.51-.5.2-.43-.36.14-1.14.1-1.19-.03-.04-.27-.05-.36-.13-.09-.08-.03-.21-.13-.33-.09-.1-.38-.2-.39-.22-.01-.02.34-.35.1-.45-.02,0-.43,0-.45.03-.3.4.19.56.46.83-.13.2-.69.11-.62.4,0,.02.25.09.23.39-.55-.02-.74.11-.49.69-.51.28-.31-.67-.19-.87-.26-.03-.18.11-.22.23-.09.24-.55-.38-.4-.57-.35.27-1.15,1.85-1.53,2.4-.51.74-1.77,2.04-1.99,2.84-.16.58.83,1.73.67,2.2l-1.7,2.8c-.12,1.05.77,2.65,1.67,3.16.17.1.92.02.75.58-.09.28-.75,1.08-.96,1.51-.85,1.73-.94,4.01-.25,5.82.29.75,1.03,1.49.63,2.35.32-.01.97-.04,1.24.09.21.1.26.42.45.5.04.02.49-.43.72-.32.51.24.47.61.69.91.42.56,1.33,1.27,1.83,1.87,2.12,2.51,4.31,5.41,6.12,8.16.62.94,1.95,3.65,2.57,4.24.09.09.32.24.41.2.12-.05.97-1.41,1.07-1.65,1.07-2.57.4-5.62-.55-8.06-.1-.27-.43-.4-.36-.75.06-.3.8-.95,1-1.3.53-.94,1.45-3.47,1.41-4.53-.03-.75-.64-1.96-.33-2.55.07-.13.38-.17.53-.33,1.5-1.56,2.24-3.68,2.06-5.91-.07-.9-.21-.85-.55-1.47-.27-.49.12-.79.16-1.36.04-.51-.26-1.77-.11-2.14.12-.31.93-.43,1.25-.6,1.52-.8,2.36-1.71,2.4-3.55.12-.23.61.34,1.14-.16.69-.01,1.5-.11,2.17-.24.3-.09.54-.25.7-.47.31.03.61.05.9.05l.94-.69c.59.09.5-.36.36-.63.19.08.44.14.53.06-.03-.17.63-.45.65-.41.04.37.1.86.39,1.15-.22.84.27,1.42,1.13,1.32.12.48.53.62,1.21.41,1.73.39,3.38-.18,4.89-.98.22-.17,1.95.04,2.01.12-.1.31.38.52.67.54,2.64.1,5.64-.18,7.37-2.47.34-.34.89-.4.95.17.57.21,1.13.35,1.71.27.6-.07,1.29,0,1.89-.16.28-.08,2.1-1.03,2.24-.75-.04.23-.29.23-.4.42-.24.48.46,1.99.58,2.55.56,2.54.57,5.45.76,8.05.26,3.57.52,6.83,1.29,10.35.03.14-.03.34.18.37.33-.09.45-.28.52-.61.22-1.09.06-2.62.22-3.77.23-1.64.67-2.58.51-4.37-.06-.73-.42-1.77-.37-2.47.08-1.13.68-2.28.71-3.55.02-.77-.51-2.17-.39-2.74.14-.68.67-.66,1.12-1.01,1.98-1.55,1.5-2.94-.29-4.34Z" fill="#311512"/>
        <path d="M76.82,17.19c-.13.15-.36.13-.71-.06-.19.28-.37.45-.54.49-.58.58-1.87.99-2.68.81-.25-.06-.84-.38-1.11-.51-.28-.18-.51-.1-.7.25-.11.21-.23.41-.34.62-.15.26-.31.42-.63.4-.99.49-2.24.41-3.31.2-.68.8-1.95,1.6-3,1.69.02.23-.14.21-.48-.04-.29,0-.64-.15-.96-.08-.17-.05-.33-.19-.47-.41,0-.07-.07-.25-.04-.26l.35.06-.23-.39c.2.13.59.04.74.12.1.05,0,.3.14.41.67.54,3.07-.53,3.41-1.33.1-.23-.16-.33-.16-.46,0-.37.31-1.2.5-.5.15.57-.03.54.69.77,1.26.4,3.22.1,3.5-1.44.05-.26-.11-.54.03-.79.63.38,1.12,1.01,1.85,1.25.68.23,2.11-.26,2.66-.75-.47-.28.17-.18.3-.51.08-.22-.13-.46,0-.68,2.4,1.63,2.76-.52,1.79-2.34.66.09.79.49.91,1.06.2.98-.24,2.55-1.5,2.42Z" fill="#150e0e"/>
        <path d="M77.53,18.64c-.07.02-.29-.05-.32-.08-.18-.27.41-.11.33-.25-.16-.28-.47-.52-.78-.58.69-.53,1.51.75.77.91Z" fill="#3e1b12"/>
        <path d="M76.82,17.19c-.04.65-.63.03-.77.1-.11.05.02.65-.48.33.15-.15.28-.6.46-.65.23-.07.57.2.79.22Z" fill="#3e1b12"/>
        <path d="M46.89,24.85c-.17.11-.18.43-.5.2-.13-.1.17-.62-.34-.61.02,0,.15-.19.34-.13.22.07.35.38.5.54Z" fill="#311512"/>
        <path d="M79.99,20.5c-.46-.12-.32-.46-.32-.85l.48.04c-.19.26-.21.49-.15.81Z" fill="#3e1b12"/>
        <path d="M62.37,20.95c.03.11.07.43-.1.46-.07-.49-.34-.37-.38-.87.22-.11.43.23.47.41Z" fill="#3e1b12"/>
        <path d="M63.71,23.51c.23-.04.55.53.53.61-.13.41-.65-.34-.53-.61Z" fill="#3e1b12"/>
        <path d="M34.81,25.97c-.08.03-.72-.13-.47-.39.25.23.41-.18.57-.05.17.14-.01.42-.1.44Z" fill="#311512"/>
        <path d="M36.22,25.48c-.05.29-.11.19-.33.16-.77-.09-.15-.6.33-.16Z" fill="#311512"/>
        <path d="M63.8,21.08l.14.66-.62-.7c.15,0,.44.04.48.04Z" fill="#3e1b12"/>
        <path d="M65.2,21.31s-.33.34-.43.34c-.57.03-.02-.62.43-.34Z" fill="#3e1b12"/>
        <path d="M35.67,24.93l-.37.36c-.56-.29-.12-.65.37-.36Z" fill="#311512"/>
        <path d="M47.51,24.82l-.17.68-.05-.75c.05.02.21.08.22.08Z" fill="#311512"/>
        <path d="M71.78,17.92c-.29-.1-.46.14-.7.25.08-.15.07-.38.28-.47.29-.09.36.18.43.22Z" fill="#3e1b12"/>
        <path d="M78.89,20.12c.07.2-.37.35-.55.18l.31-.38c.01.13.23.19.24.2Z" fill="#3e1b12"/>
        <path d="M70.11,19.19c.2-.1.4-.32.63-.4-.12.24.06.62-.63.4Z" fill="#3e1b12"/>
        <path d="M38.72,24.63c.07.19-.52.57-.63.4-.06-.09.54-.65.63-.4Z" fill="#311512"/>
        <path d="M80.5,18.23s-.15.32-.12.43c-.63-.38-.05-.89.12-.43Z" fill="#3e1b12"/>
        <path d="M33.17,71.17l-.78,1.02c.08.44-.39.89-.06,1.09-.64.04-.25.27-.44.58-.05.09-.24-.02-.25,0-.04.03.28.5-.21.94-.11.1-.23,0-.24,0-.06.05.13.24.07.42-.07.22-.41.53-.47.72-.03.09.34.11.13.36l-.29-.22c.13.46-.74,1.05-.27,1.14l-.04.11c-.08-.04-.17-.07-.24,0-.35.35-.88,1.61-1.25,2.09-.4.52-1.2,1.13-1.58,1.59-.36.42-.44,1.46-1.31.71-.7-.6-.81-1.35-1.19-2.12l6.91-10.4c.96.33,1.3,1.09,1.52,1.99Z" fill="#b09373"/>
        <path d="M22.82,69.08c-.05.13-.08.49-.26.4.02-.15.25-.61.23-.66-.02-.04-.82-.28-.77.1l.18.18c-.91.07-.16-.32-.22-.44-.42.04-.51-.38-.86-.54l-.17.31c-.21-.02-.01-.2-.05-.25-.03-.04-.28.04-.39-.04-.09-.06-.96-1.64-.99-1.81-.04-.2.37-.75.03-.97l-.15.07c.55-.81,1.34-1.49,1.9-2.4.96-1.57,1.55-3.36,2.48-4.95.93.67,1.58,1.82,1.65,2.99.16,2.72-1.25,4.81-2.31,7.17-.12.26-.18.55-.28.82Z" fill="#b09373"/>
        <path d="M67.12,112.61c-.57.31-.4,1-.14,1.49.08.15.34.28.35.33.03.13-.17.4-.15.67.03.36,1.37,2.87-.21,2.12-.19-.09-.54-.42-.72-.57-2.63-2.29-4.52-5.84-6.8-8.5-.83-.32-.19-.25-.25-.45-.08-.25-.57-.43-.83-.43.62-.58-.3-.63-.53-.98-.09-.14.04-.36,0-.41-.06-.11-.46-.1-.52-.21-.02-.04.23-.5-.34-.6-.14-.03-.23.35-.46.22-.34-.19.54-.58.15-.81s-.31.53-.56.55c.14-.88-.5-.18-.55-.19-.21-.06-.26-.37-.12-.57.06-.09.62-.07.58-.62-.36-.23-.62.52-.73.49-.41-.19-.53-.29-.3-.72l.44.15-.18-.55c-.19-.29-.49.52-.82.42-.06-.02-.75-.67-.26-.67.27,0,.03.3.14.29.6-.08.22-.58-.13-.66-.12-.03-.27.39-.51.2.34-.38-.13-.61-.12-.72.01-.23.52-.2.54-.49-1.16-.04-.43-.29-.47-.41-1.14.25-.41-.46-.44-.52-.15-.29-.98.45-1.07.25l.56-.54c-.14-.02-.23-.22-.34-.23-.25-.03-.26.51-.49.31-.12-.1-.11-.31-.04-.44.06-.1.27.12.28-.09-.2-.14-.58-.04-.74-.13-.07-.04,0-.26-.04-.27-.18-.05-.54.17-.85.05-.69-.26-.46-.75-.51-.77-.38-.14-.52.17-.82.09,0-.3.25-.37.35-.5.21-.27-.58-.44-.75-.5l-.13.2c-.06-.69-.32-.32-.83-.28l.11-.33c-.05-.1-1.14-.27-1.3-.32-.11-.04.04-.25.06-.35-.24.02-.55.46-.82.42-.42-.07-.16-.42.12-.53-.04-.07-1.39-.59-1.59-.64-.36-.08-.57.22-.52-.21-1.13-.03-2.04-.51-3.04-.79-.34-.09-.77.03-1-.02-.27-.07-.55-.31-.94-.4-.57-.13-1.06.25-1.24-.52.39-.59,1.15-.59,1.69-.82,1.83-.78,3.73-1.82,5.63-.62.07.05-.04.2.04.24.11.11.17-.05.2-.06,2.38-.33,10.64,4.38,12.86,5.94,5.72,3.99,7.46,7.41,9.05,14.02Z" fill="#fff"/>
        <path d="M35.47,99.51l-.42-.2c.01-.55-.64-1.45-.11-1.82.13.61.37,1.39.53,2.03Z" fill="#291115"/>
        <path d="M34.83,96.71c-.87-.34-.33-.97-.24-1.44.06.48.15.96.24,1.44Z" fill="#291115"/>
        <path d="M24.04,50.18c.1.22.57.19.77.3.26.14,1.06,1,1.33,1.28,3.02,3.11,5.6,6.93,7.82,10.64,3.67,6.13,6.47,12.68,8.6,19.5.07.61-1.39,1.8-1.82,2.28-.53.59-1,1.27-1.57,1.82-1.63,1.57-3.76,2.73-5.41,4.31-.48-.09-.09-.21-.11-.27l-2.29-2.77c-.41-1.29-1.83-2.79-1.85-4.13-.03-2.88,2.06-5.51,3.41-7.87.29-.5.7-1.51.99-2.18.03-.07.17-1.28.18-1.42.02-.89-.54-2.03-1.22-2.6-.13-.11-1.15-.82-1.23-.84-.34-.08-.91,1.17-1.1,1.43-1.11,1.52-2.28,3.04-3.32,4.62-.8,1.22-1.35,2.72-2.5,3.7-.06-.83-.33-1.62-.48-2.42-.07-.37-.06-.58-.15-1.02-.35-1.77-1.14-4.02-.46-5.72.32-.8,1.48-3.35,1.91-4.03.04-.06.22.03.23-.03.03-.14-.12-.52,0-.73.05-.09.28.06.27-.04-.08-.86.2-1.67.16-2.46-.02-.46-.53-2.56-.81-2.82s-.14.11-.48-.39c-.17-.24-.62-.69-.89-.75-.08-.02-.16.16-.28.2s-.25-.02-.37.03c-.1.05-1.17,1.44-1.21,1.53-.45,1.16-.88,2.49-1.64,3.65-.2.3-1.17,1.7-1.41.82-.04-.15.48-2.7.57-3.11.59-2.68,1.61-5.13.86-7.92-.12-.46-.7-1.24-.73-1.57,0-.06.27-1.09.32-1.11.03-.01.19.12.36.04.36-.17,1.12-1.17,1.54-1.31.09-.03.9-.07.99-.05.24.04.94.68,1.07.9.18.32-.05.49-.04.52Z" fill="#242333"/>
        <path d="M62.52,89.46c-.06-.08-.23-.12-.34-.13.1-.3,0-.39-.22-.53-.01-.33-.13-.53-.34-.59-.91-.17-.93-.23-1.73-.56-.2-.08-.49-.03-.68-.14-.13-.08.24-.41-.16-.43l-.06.35c-.25.02-.06-.24-.14-.28-.59-.28-1.57-.44-2.02-.96-.2.36-.31-.04-.61-.25-2.48-1.72-4.58-4.13-6.02-6.76-.11-.21-.59-.98-.6-1.04-.02-.08.17-.19.15-.3-.02-.12-.51-.66-.62-.89-.79-1.64-1.35-4.9-1.37-6.74-.02-1.57.46-3.71,1.04-5.18.23-.56,1.07-1.68,1.16-2.05.02-.11-.16-.31-.09-.34.5.25.25-.06.45-.39.12-.2.93-1.42,1.03-1.53.22-.22.4.18.23-.56l.44.15-.14-.66c-.17-.3-.53-.27-1.07.09l.07-.3c-.62-.68-1.03-1.48-1.37-2.34l-.29-.08c-.42-1.32-.7-2.67-.84-4.05-.06-1.38.43-2.89,1.46-3.74.19-.17.33-.36.42-.58.27.19,1.15-.25,1.18-.58,1.43-.62.19-1.67-.89-1.23-1.62-.37-3.16,1.12-3.99,2.35l.24-3.32-.23-.09-.35.03c-.8.79-1.5,1.66-2.09,2.62l.06.35c-.38-.11-.65.31-.45.58-.1.26-.39-.15-.14-.3.17-.16.13-.24-.07-.15-.12-.36-.23-.72-.33-1.08.11-.28.2-.58.27-.91l.25-.23c.43-3.15,1.88-6.88,5.01-8.17l.19-.3,1.16-2.78c.12-.22.58-1,.77-1.06.13-.04.28.18.46.2.18.03.79-.12,1.04-.14.35-.02.44-.06.63-.08.2-.02.65.08.83,0,.15-.06-.42-.29-.11-.4.31-.11.23.37.41.37.23,0,.98-.18,1.26-.25.31-.07.77-.3,1.13-.39.19-.05.56-.2.68-.2,1.2.04,2.75.85,3.89.48.25-.08.79-.41,1.06-.55-.17-.56,0-.67.48-.33,1.12-.58.94-.42,2.13-.38.27,0,.38.03.63.04,3.59.22,3.51-.78,6.47-1.83.46-.16.91-.02,1.13-.41.27.58.34.07.78-.02.24-.05.57.04.62.02.13-.04.11-.23.2-.28.29-.15,1.15-.21,1.53-.34.16-.05.9-.4.92-.52.04-.18-.51-.84.02-1.04-.11-.35-.36-1.59-.7-1.71-.14-.05-1.75.29-2.14.31-.39.02-.7,0-1.08-.06l-1.8-.5-.27-.1c-1.48,1.71-3.92,2.13-6.07,2.4l-.2.24c-.16-.15-.5-.21-.52.07-.09-.22-.31-.28-.65-.17l-.88-.36c-1.6-.61-3.24.41-4.83.7-2.05.37-3.39.03-5.18-.98-.26-.14-.6-.55-.81-.61-.18-.05-.79.28-1.04.37-1.47.52-2.83.89-4.41.81-.15.11-.31,1.46-.4,1.77-.26.8-1.55,1.7-2.27,2.11-.18.11-.52.09-.63.23-.22.3-.01,2.32-.21,2.82.59,1.23.64,2.46.39,3.79-.12.69-.35,1.36-.68,1.98-.18.42-.36.74-.59,1.13-.27.45-1.19,1.5-1.29,1.85-.09.33.4,1.27.42,1.81.03.76-.17,1.72-.3,2.48.18.2.35,1.2-.24.95-.28.45-.56.91-.84,1.36l-.19-.04c-.08.14-.18.27-.26.4-.16.25-.34.47-.48.73.89,2.37,1.56,5.27.87,7.77-.1.61-.29,1.22-.61,1.76-.22.4-.56.98-.88,1.31-.18.2-.37.08-.43.34.71.71,1.77,2.87,2.3,3.87,2.21,4.19,4.59,9.39,6.03,13.89.26.81.57,1.69.2,2.51.9.46,1.72,1.05,2.63,1.51,1.07.55,2.78,1.06,3.68,1.68.64.44,1.28,1.19,2.01,1.67,2.09,1.39,4.32,1.88,6.77,2.05.19,0,1.6-.33,1.08-1.02Z" fill="#9b7652"/>
        <path d="M40.88,48.73c.31-.58.31-.25.55-.27.14-.01.27-.08.4-.14l-.21.42.31.17-.21.24s-.47-.87-.6-.39c-.01.05.17.25.18.38s-.14.23-.13.3c0,.03.18.08.16.15,0,.03-.27.42-.29.43-.13.05-.41-.26-.47-.02l.4.26c-.8-.07-.56.35-.71.66-.03.07-.2,0-.22.02-.03.02-.2.85-.43.07.51-.82.82-1.43,1.27-2.27Z" fill="#9d754c"/>
        <path d="M42.65,41.47c.27-.64.42-1.34.68-1.98-.01.06.04.21,0,.41-.12.47-.36,1.19-.67,1.57Z" fill="#311512"/>
        <path d="M39.14,61.66c.17-.59.44-1.17.61-1.76.03.43-.21,1.14-.4,1.53-.07.15-.19.2-.21.22Z" fill="#311512"/>
        <path d="M70.8,73.66c-1.15.59-2.36,1.13-3.61,1.51-.35.11-1.54.26-1.73.39-.31.21-.45,1.13-.7,1.56-.32.54-1.46,1.36-2.05,1.6-.84.34-1.79.37-2.59.69-.31.62-.98,2.64-.37,3.17.06.05,1.43.3,1.62.31.88.07,1.91-.15,2.81-.06.32.03.32.06.07.25-.06-.05-1.21.27-1.45.3-2.67.36-4.41-.08-6.73-1.48-5.09-3.08-6.56-8.64-5.09-14.21l1.47,1.8c3.91,4.57,10.86,5.97,16.56,4.67.6-.14,1.26-.55,1.81-.51Z" fill="#271c14"/>
        <path d="M75.5,66.79c0,.32-.31.82.14.66-.01.1-.12.26-.11.33.11.13.06.22-.13.25.21.24-.2.6-.46.4.21.37.09.61-.26.77.09.18.05.31-.13.4.26.03.29.13.13.34-.17.21-.1.31-.11.33-.25,0-.14-.28-.21-.32-.57-.33-.54.26-.82.55-1.53,1.56-4.35,1.65-6.37,1.75-.31.02-.66.29-.69.28-.25-.09-.46-.31-.83-.36-.62-.08-1.41.21-1.97-.23l.07.51c-.22-.04-.57-.71-.62-.7-.02,0-.04.15-.08.16-.07.02-.2-.08-.35-.04-.18.05-.48.28-.62.25-.04,0-.19-.62-.25-.7l-.16-.04c0,.42-.82-.34-.99-.51-.12-.12-.34-.3-.4-.37-.05-.05-.4-1.3-.41-1.4-.01-.12.32-1.57.39-1.65.09-.12.2-.2.34-.25-.07.36.32.26.6.21.24.08.44.29.59.62,3.78,3.31,9.95,2.33,13.38-1.15l.38-.07Z" fill="#a0784f"/>
        <path d="M76.46,62.57c.92,1.26-.08,3.2-.96,4.22-2.05,2.38-5.97,3.81-9.07,3.44-1.55-.18-4.83-1.13-5.28-2.84-.27-1.05.78-1.99,1.59-2.46.18-.1,1.55-.75,1.13-.13-.33.47-1.49,1.26-1.66,1.68-.13.32.13.65.31.89l.33.05c2.74,2.79,7.94,1.62,10.8-.45l.31.04c.95-.85,1.86-2.13,2.03-3.41.2-1.5-2.62-1.44-3.46-1.88-1.17-.61.36-.8,1.02-.69,1.11.18,2.23.63,2.91,1.56Z" fill="#241710"/>
        <path d="M62.51,67.37l.04-.48c.33.19,1.09-.33,1.15-.32.11.02.37.38.42.36.05-.02.13-.26.27-.24.08.01.24.2.41.24,2.21.5,3.41.27,5.52-.19.4-.09,2-.28,2.22-.39.1-.05.43-.53.47-.54.58,1.26.34-.09.4-.11.52-.11.01.48.44.52-.15-.32,1.01-1.22,1.1-1.22.26,0,.34.17.18.37-.02.03-.32,0-.55.39-.11.18-.12.49-.15.51-.05.04-.23-.04-.36.1-.03.03-.23.55-.12.62-2.54,2.28-9.2,3.53-11.44.37Z" fill="#a58056"/>
        <path d="M70.55,46.52c.31-.19.42.11.32.42-.39.46-.41.68-.07.65.24-.49,1.9-.31,1.59.37-.76.39.02,1.34.26.34-.35-.81.23-.65.76-.22.64.51.86,1.23.74,2.02-.07.45-.3,1.42-.78,1.46-.3.43-.81.96-1.37.76-.66.08-1.24-.03-1.73-.35-.38.04-.52.24-.41.59l-.22.17c-.05.59.14,1.22.59,1.86.03.35-.2.42-.42.16-1.59-2.45-1.2-6.07.74-8.23Z" fill="#161514"/>
        <path d="M55.48,49.57c.19-.15.27-.05.18.19,1.38,1.39,2.45,3.67,2.61,5.63.04.52.08,2.42-.38,2.64-1.89.25-3.61.59-5.39,1.27-.23.09-.44.27-.61.35-.04.02-.22-.03-.39.04-1.04.45-2.01,1.08-3.08,1.47.01-.52,2.35-1.5,2.29-1.67-.75-.59-1.09-1.63-1.48-2.48l-.08-.43c-.44-.79-.43-1.19.02-1.19l.43.43c.47,1.07,1.03,2.11,1.69,3.07l1.12-.5.22.16.2-.3c1.51-.46,3.05-.8,4.61-1.01,0-2.47-.62-5.54-2.73-7.17l-.04-.28c-1.69-1.05-3.46-1.52-4.73.39l-.35.08c-.55-.28-.46-.62.26-1.04l.41-.57c.41-.28.67-.41,1.18-.58.17-.06.44-.08.66-.14,1.29.13,2.44.79,3.37,1.65Z" fill="#2c2118"/>
        <path d="M70.55,46.52c1.49-1.65,3.56-1.43,5.12.02,1.92,1.78,2.23,5.77.87,7.95,1.07.27,2.13.55,3.23.62-1.51.56-3.26.21-4.83.32-1.22.09-2.31.54-3.5.73-.74-.2-1.24-.79-1.64-1.4.37-.05.26-.06.17-.31-.18-.53-.62-.87-.6-1.45,0-.31,0-.18.27-.27l.26.09.65,1.52c.31.99.87,1.24,1.68.77l.22.18.04-.24,3.1-.59c1.7-3.03,1-8.46-3.34-8.1-.58.34-1.06.76-1.46,1.24-.08,0-.21.13-.37,0-.07-.42.49-.75.12-1.07Z" fill="#2c2317"/>
        <path d="M70.88,34.83c-1.98.38-3.22,2.19-3.94,3.93-.2.39-.37.78-.53,1.17-.23-.2-.41-.02-.47-.41.54-.84.95-1.89,1.57-2.69.66-.85,1.51-1.59,2.51-1.99.35-.14.36-.48.86-.02Z" fill="#c4b39d"/>
        <path d="M73.56,64.13c-.28.14-1.15-.18-1.29-.47-.37-.77.99-1.57,1.57-.76.22.31.05,1.07-.28,1.24Z" fill="#f9f8f3"/>
        <path d="M66.49,40.45c.04.12.18.06.2.09.22.47-.54.28-.61.75.68-.41.58-.28.25.33-.05.03-.26-.24-.29-.23-.03.01-.31.65-.48.33-.14-.26.27-.16.3-.2.02-.03.08-.78-.07-.82-.03.18-.52.44-.54.49-.02.09.49.41.1.41-.03,0-.58-.15-.63-.17-.08-.03.07-.24-.03-.24-.86,0-.47.42-.61.53l-.18-.19-.19.55c-.1-.14-.32-.44-.17-.55.02-.01.15.07.19.04s-.09-.39.54-.52c.2-.04.35.13.53-.01-.41-.35-.25-.64.25-.71l-.1.46c.3-.05.12-.57.45-.58.1,0-.03.21.03.26.37.28.24-.12.26-.14.05-.04.21.02.29-.04.06-.05.02-.23.03-.24.32-.13.07.33.25.33.06-.14.1-.29.15-.44.14-.38.22-.95.53-1.17-.15.37-.56,1.39-.46,1.69Z" fill="#b09373"/>
        <path d="M60.54,46.64s-.26-.26-.37,0l.36.37c-.27-.21-1.11-.18-.96.29-.22-.01-.19-.22-.32-.3-.08-.05-.26,0-.34-.04-.17-.09.27-.5-.43-.03.45-.59.14-.3-.09-.64s-.12-.76.36-.5c-.01.2-.24-.02-.26.08,0,.03-.01.44.02.45l1.19-.08c-.01.2-.24-.03-.28.09-.02.05-.04.53,0,.55.24-.09.21-.52.47-.59.27-.07.99.04.66.36Z" fill="#b09373"/>
        <path d="M59.85,50.09s-.1.32-.11.33c-.04.02-.22-.12-.32-.1-.05,0-.49.82-.5.87-.03.14.17.27.04.44-.02.01-.34-.32-.33-.43.02-.18.55-.36.25-.58-.11-.08-.07.26-.21.28-.25.04-.73-.63-.74-.92.3-.15.16.18.25.26.54.49.55.05.72-.09.09-.07.43,0,.45-.36.05.3.5.27.51.3Z" fill="#b09373"/>
        <path d="M57.85,46.66c.12.12.73.05.47.7l-.32-.48c-.17.36-.64.77-.98.39-.15-.17.27-.96.83-.81.05.01-.01.19,0,.21Z" fill="#b09373"/>
        <path d="M58.77,47.51l.66-.14-.19.55.31.17-.99.18c-.28-.41-.02-.89.25-1.24l-.04.48Z" fill="#b09373"/>
        <path d="M59.92,49.87l-.2-.31c-.05.33-.61-.02-.64-.1-.13-.27.3-.14.33-.21.07-.15-.04-.36.05-.52.45.32.94.62.46,1.14Z" fill="#b09373"/>
        <path d="M55.48,49.57c.14-.15.57-.57.61-.71.07-.23-.31-.77.29-.82.08.26-.72,1.27.53.43.2.24-.07.61-.32.57-.1-.02-.29-.29-.46.08-.02.05.34.11-.02.42-.25-.35-.21.04-.44.22-.06-.06-.12-.13-.18-.19Z" fill="#b09373"/>
        <path d="M58.98,44.39c-.43.22.02.78-.14.94-.29.29-.19-.65-.49-.54-.09.03-.18.45-.55.18l.45-.58.09.28c.19-.02.37-.45.65-.27Z" fill="#b09373"/>
        <path d="M57.16,50.03c-.06.36-.16.13-.33.13s.01.21-.04.23c-.22.1-.2-.75-.44-.15-.2-.01-.02-.17-.07-.23-.04-.05-.26,0-.28-.2.05-.3.25-.08.39,0,.29.14.25.36.4-.15l.36.37Z" fill="#b09373"/>
        <path d="M65,41.91c.27-.21.58.05.44.15-.03.02-.38-.15-.41.48l-.14-.29-.26.4.38-1.1v.37Z" fill="#b09373"/>
        <path d="M57.97,47.99s-.07.18,0,.21c.32.13.84.02.38.52-.2-.02,0-.19-.09-.26-.07-.05-.67-.12-.71-.27s.31-.37.42-.2Z" fill="#b09373"/>
        <path d="M64.27,40.26s.15.28,0,.53c-.55-.13-.22-.15-.18-.37.05-.3-.08-.67.16-.99.16.16.02.58.01.83Z" fill="#b09373"/>
        <path d="M61.9,42.69l-.29.14c1.14.47-.31.74-.16-.24l.46.1Z" fill="#b09373"/>
        <path d="M57.98,45.88c-.44-.41-.22-.02-.61.16l.02-.6.58.45Z" fill="#b09373"/>
        <path d="M58.26,49.04s.52.01.45.42c-.48-.13-1.03-.2-.51-.66.2.02.01.17.06.25Z" fill="#b09373"/>
        <path d="M63.63,42.66l.22-.29c-.1.64-.47.51-.75.05.37-.4.4-.06.53.24Z" fill="#b09373"/>
        <path d="M58.85,48.75s.58.23.19.45c-.05.03-.37-.29-.51-.3l.3-.51c.22.04-.03.24.02.36Z" fill="#b09373"/>
        <path d="M59.99,44.95s-.19-.05-.21,0c-.02.08.11.39-.09.41-.34-.45.01-.54.25-.9.16,0,.06.47.05.49Z" fill="#b09373"/>
        <path d="M57.36,48.38h-.73c-.18-.56.62-.4.73,0Z" fill="#b09373"/>
        <path d="M57.55,50.25s-.32.15-.39.14l.37-.73c.19.08.1.47.01.59Z" fill="#b09373"/>
        <path d="M53.62,47.09l.15-.44c.44.15.28.59-.15.44Z" fill="#b09373"/>
        <path d="M75.53,67.79s.24.24.14.29c-.05.03-.23-.18-.26.03.42.38.32.19.73,0-.17.15-.18.49-.25.6-.11.18-.5-.08-.3.26.2.08.98.2.79.57-.4-.34-.72.26-.76.23-.3-.22.28-.48.24-.53-.17-.07-.54-.24-.56.05,0,.14.13.25-.1.46l-.14-.29c0,.29-.38.44-.41.47l-.02-.09-.41-.06c-.04-.34.39-.5.45-.58.3-.14.39-.39.26-.77.24-.21.42-.38.59-.66Z" fill="#b69878"/>
        <path d="M82.6,59.03c.18.44-.79,0-.88.07-.17-.35.86-.11.88-.07Z" fill="#b69878"/>
        <path d="M76.05,70.54c-.07.04-.61-.07-.51-.29l.5-.2.02.49Z" fill="#b69878"/>
        <path d="M50.26,48.64c.11.21-.23.7-.37.82-.16.14-.43.11-.47.18-.15.22.35.35.16.61.03.1.1.19.18.16.57-.32,2-.92,1.95.08l.06.29c-.72.91.62,1.07.67.08l.2-.18c-.09-.2-.01-.24.15-.07.52-.11.94.79,1.14,1.24.51,1.2.39,2.75-.71,3.58-.37.28-1.11.73-1.47.36-.04.41-.99.32-1.33.25-.44-.1-.92-.32-1.24-.64-.62.54.32.94.06,1.62-1.29-2.76-1.92-6.39,1.04-8.37Z" fill="#181614"/>
        <path d="M67.31,103.82l.85-.23c.16-.11.42.11.38.22-.09.22-1.03.17-1.23,0Z" fill="#fff"/>
        <path d="M62.93,89.03c-.06.72-.14.75-.74.36.12-.3.41-.56.74-.36Z" fill="#9d754c"/>
        <path d="M63.21,90.36c-.36,0-.13-.78.06-.71.18.06-.1.57-.06.71Z" fill="#9d754c"/>
        <path d="M37.87,90.74c-.24.16-1.23-.53-1.21-.73.02-.19,2.36-2.68,2.54-2.72.16-.04,1.34.45,1.38.58l-2.71,2.88Z" fill="#1c1f1f"/>
        <path d="M54.93,41.51c-.06-.09-.31-.16-.45-.13-3.68.99-7.6,2.52-9.68,5.86-.56,1.42-1.02.63-.89-.54.18-1.69,1.08-3.86,1.95-5.33,1-1.68,3.7-3.51,5.73-2.81v-.18c.94.07,2.15.93,2.85,1.58.45.42,1.29,1.16.49,1.54Z" fill="#391811"/>
        <path d="M51.57,38.39c.22.06.81.14.58.45-.83-.15-2.01-.28-2.81-.04-.33.1-2.46,1.53-2.68,1.8-1.1,1.35-2.16,4.04-2.5,5.75-.03.17-.11,1.22-.07,1.27.34.43.33-.13.4-.29.69-1.64,3.23-3.49,4.8-4.31,1.58-.83,3.46-1.21,5.13-1.86.19,0,.7,0,.49.35-.63.3-1.48.35-2.15.56-1.72.55-3.32,1.25-4.75,2.35-.28.07-.59.22-.67.51-.36.31-.5.56-.78.84-1.08,1.1-1.59,1.68-2.38,2.99-.18.3-.38.32-.45.58-.23.41-.39-.05-.14-.3,0-.05-.07-.11-.07-.15-.38-.56-.35-1.41-.05-1.99.2-3.05,2.21-7.84,5.45-8.7.86-.23,1.8-.08,2.65.17Z" fill="#0f0c0d"/>
        <path d="M62.14,33.42c-.49-.22-.33-.9.19-.73.03,0,.48.24.29.41-.15.08-.29.23-.48.33Z" fill="#947042"/>
        <path d="M48.02,44.43c-.2.15-.5.36-.67.51l-.09-.1c.15-.26.43-.5.75-.41Z" fill="#391811"/>
        <path d="M48.55,27.52c.2.45-.43-.03-.46-.03-.04,0-.51.42-.57.53-.64-.65-.26-.46.28-.66.19,0,.67-.04.76.16Z" fill="#311512"/>
        <path d="M46.72,25.76s.37.6.52.57c-.89.85-.5-.23-.62-.44-.08-.15-.75-.18.24-.43.13.09-.14.21-.14.3Z" fill="#311512"/>
        <path d="M46.25,25.98c-.84-.24-.22-1.2-.03-.44.02.07-.05.3.03.44Z" fill="#311512"/>
        <path d="M64.79,28.92c-.15,0-.32.08-.52.07-.79-.05-.96-.31-1.54-.53.3.06.63.28.91.31.09,0,.15-.15.23-.15.35,0,.75-.07.91.3Z" fill="#3e1b12"/>
        <path d="M63.49,31.3l.25-.04c-.05.33-.18.45-.43.16-.34-.38.33-1.22.17-.13Z" fill="#947042"/>
        <path d="M60.84,31.96s.37.19.1.3c-.02,0-.34-.11-.48-.04l.34-.62c.24.12.03.26.04.36Z" fill="#947042"/>
        <path d="M59.32,32.96s-.16.26-.1.37c-.05.16-.48-.14-.38-.31,0-.02.35.19.22-.29.06.07.25.21.26.23Z" fill="#947042"/>
        <path d="M53.12,27.12c-1.45-.22.05-.67.08-.59l-.08.59Z" fill="#3e1b12"/>
        <path d="M29.34,32.96c-.32.59-1.48.63-1.89,1.1-.46.53-.69,1.69-.34,2.32.43.78,1.04,1.09,1.85,1.33.27.08.66-.1.75.23l-1.32.84c-.22.33-.71.77-.83,1.12-.08.23-.1,1.49-.08,1.78.06.79.28,1.17.53,1.87.02.04.3.16-.01.26-1.35-1.69-1.49-4.66.59-5.82-2.52-.35-2.8-3.88-.54-4.86-1.11-.12-1.36-1.6-.97-2.46.02-.03.4-.58.43-.6.26-.19,1.05-.14.58-.67-.19-.21-.5-.28-.72-.56-1.03-1.34,1.46-3.23,2.77-2.86-.03.25-.2.21-.37.27-.85.3-1.88.47-2.21,1.49-.06.19-.01.82.08.93.17.2.51-.07.64,0,.09.05.11.28.25.39.2.15,1,.1.95.59-.1.86-1.78.83-2.09,1.28-.18.26-.1,1.33.14,1.41l1.81.62Z" fill="#130e0f"/>
        <path d="M54.83,101.86c.13.23-.43.14-.38.39l-.35-.03c0-.25.59-.61.74-.36Z" fill="#e3ebf6"/>
        <path d="M23.88,53.46s.12.11-.12.2c-.16.06-.77.17-.91.13-.28-.08-.95-.65-.94-.97,0-.19.6-1.25.67-1.28.03-.01.24.26.29.22.03-.02.03-.23.13-.29.23-.14.91.02,1.12.23-.02.13-.18.11-.29.14.02.26-.1.29-.33.33.27.29.36.64.22,1.05l.17.24Z" fill="#111216"/>
        <path d="M23.88,53.46c-.76.04-.34-.13-.34-.61,0-.69-.59-.46-.98-.21.29-.59.72-.65,1.26-.8.98.47.76,1.03.06,1.62Z" fill="#bbbfc3"/>
        <path d="M43.6,49.05c.01.1-.2.25.14.3,0,.01.1.11.07.2-.02.04-.71-.07.22.4-.04.22-.24-.02-.37,0-.02,0-.11.3-.1.31.07.11.45,0,.24.34l-.31-.17-.02.42c-.34-.36-.55.12-.95-.08-.04-.07.56-.1.08-.59h.37c-.36-.19-.22-.56.15-.64.13-.03.28.06.3.06.03,0-.11-.54.19-.55Z" fill="#9d754c"/>
        <path d="M43.53,48.91l-.55-.19c.52-.54.05-.55,0-.85-.02-.11.1-.61.31-.39.11-.18-.15-.13-.17-.19-.01-.03.26-.32.36-.36-.04.66-.01,1.33.05,1.99Z" fill="#9d754c"/>
        <path d="M42.49,50.15c-.25.17-.34-.08-.26.4l-1.03-.23c.06-.24.36.07.48.04.03,0,.11-.53.02-.61l-.39.23.56-.54c.18.07.05.3.19.49.06.07.32.13.42.22Z" fill="#9d754c"/>
        <path d="M41.37,51.24c-.66.43-.83.28-.8-.52l.8.52Z" fill="#9d754c"/>
        <path d="M43.8,51.7c.21-.17.63-.51.75-.05l-.75.05Z" fill="#9d754c"/>
        <path d="M51.54,72.45c.06-.55.91-.84,1.05-.05,2.23,1.93,5.12,3.13,7.98,3.81,1.19.28,1.71.31,2.76-.38.63-.11.93.04.5.61-.39.55-.68,1.02-1.32,1.33-3.35,1.66-9.63-2.1-10.97-5.31Z" fill="#fdfeff"/>
        <path d="M56.99,81.45c-1.91-.89-3.8-3.14-4.66-5.05-.13-.29-.73-1.84-.47-2.01,1.66,2.5,4.9,3.67,7.6,4.71-.39.95-.62,1.92-.76,2.94-.53-.23-1.19-.34-1.7-.59Z" fill="#91351e"/>
        <path d="M51.54,72.45c-.33-.79-.54-1.83-.14-2.63,3.09,3.74,8.09,5.72,12.89,5.79.04.32-.31.6-.47.83.1-.25.21-.38-.16-.42-.44-.05-.98.56-1.61.63-.98.11-4.12-.94-5.15-1.36-1.13-.47-3.71-1.85-4.5-2.74-.13-.14-.13-.45-.18-.47-.04-.01-.51.38-.68.38Z" fill="#d6e3ef"/>
        <path d="M74.67,69.21s-.02-.21.03-.3c.06-.11.28-.15.26-.21-.04-.11-.37.04-.03-.26.38.54.42.65-.25.9l-.02-.13Z" fill="#bb9d7f"/>
        <path d="M70.79,47.59c-.39-.1-.14-.12,0-.28,1.14-1.31,1.74-1.63,3.42-.88,3.02,1.34,2.94,5.7,1.54,8.19-.12.15-2.87.6-3.3.68-.44-.42-.67-1.37-.45-2.01-.46-.53-.18-.91.83-1.14l.54-.59c.78-1.47.98-2.8-.7-3.68.11.34.32.27.13.72-.46,1.09-1.66-.33-.46-.84-.49-.25-1.02-.18-1.54-.16Z" fill="#fdfeff"/>
        <path d="M73.37,51.55c-.27.52-.16.72-.87.93-.27.08-.42-.14-.48.14s.2.44.22.63c.02.23-.12.44-.11.69.02.3.38.93.33,1.35-.36.07-1.08.46-1.42.2-.4-.3-1.28-2.25-1.38-2.77-.02-.13-.03-1.07.01-1.1.18.19.37.26.62.34.49.31,1.07.43,1.73.35.54-.16.91-.45,1.37-.76Z" fill="#dbe5eb"/>
        <path d="M72,52.31c-.45.13-1.51.3-1.73-.35.53.16,1.19.18,1.73.35Z" fill="#9ea2a3"/>
        <path d="M54.66,49.79c1.99.97,3.35,5.53,2.9,7.62-.73.14-1.49.25-2.21.44-.84.21-1.91.46-2.72.72l-.23-.13c-.36-.81-.66-1.65-.91-2.49l.24-.14c2.72-.43,2.84-3.47,1.04-5.18-.26-.32-.59-.43-.99-.33-.35-.14-.22-.43-.1-.69.48-1.02,1.4-.61,2.17-.25.28.13.54.28.81.44Z" fill="#fff"/>
        <path d="M51.74,55.79c-.14,1.01.98,1.83.89,2.77-.24.08-1.32.67-1.48.59-.78-1.18-1.46-2.43-1.99-3.75.18-.16.8.3,1.15.38.4.1,1.01.08,1.43.01Z" fill="#d6e1ec"/>
        <path d="M54.66,49.79c-.43-.21-1.95-.76-2.33-.56-.18.09-.53.56-.55.73-.03.25.53.22.77.36.16.09.17.25.23.3l-.15.07c-.29-.09-.6-.16-.92-.19-.44-.82-1.81.18-2.41.4-.1-.25.16-.47.28-.64,1.55-2.16,3.02-2.07,5.08-.47Z" fill="#e1e6eb"/>
        <g>
          <path d="M68.35,87.94c-.47-.09-.52-.62-.4-1-.5-.04-.58.54-.99.03-.32.61-.15.97-.82,1.32.32.04.64.03.95,0,.45-.06.98-.19,1.47-.27.06-.48-.3-.67-.22-.08Z" fill="#b09373"/>
          <path d="M65.73,87.55s-.2-.64-.39-.75c-.16-.09-.36.18-.55.05-.04-.08.61-.61.02-.6-.48,0,.02.76.01.8,0,.04-.23.72-.24.77-.03.08-.3-.1-.34.26,0,.05.29.16.13.35.36,0,.63,0,.99-.03.02-.18-.4-.37-.34-.43.27-.29.45-.03.6-.02.03,0,.06-.29.49.08.06-.79-.01-.34-.37-.49Z" fill="#b09373"/>
          <path d="M65.67,86.42s-.39.94.54.6l-.49-.35.56-.54c-.28-.29-.52.18-.61.16-.02,0-.27-.34-.28-.37-.03-.16.17-.34.07-.44-1.27.32-.07.61.22.95Z" fill="#b09373"/>
          <path d="M65.15,84.38c-.15.39-.83,0-1.11.35l.4.26.12-.33c.09.09.42.34.51.3.03-.01.28-.58.08-.59Z" fill="#b09373"/>
          <path d="M64.92,85.04c-.12-.26-.72.39-.67.51l.61.02c-.42-.18.08-.48.06-.53Z" fill="#b09373"/>
        </g>
        <path d="M52.63,50.69c.17.43-.27,1.19-.81,1.08-.78-.16-.54-.82-.11-1.27.32-.33.75-.24.92.19Z" fill="#fff"/>
        <path d="M39.81,87.96c.07.12-1.8,1.63-1.95,1.91-.01.13-.28.29-.35.12-.05-.13,1.66-1.84,1.89-2.02.15-.12.34-.14.41-.01Z" fill="#c9cecb"/>
      </g>
    </g>
  </g>
</svg>