<?xml version="1.0" encoding="UTF-8"?>
<svg id="Layer_2" data-name="Layer 2" xmlns="http://www.w3.org/2000/svg" width="1190.56" height="648.78" xmlns:xlink="http://www.w3.org/1999/xlink" viewBox="0 0 1190.56 648.78">
  <defs>
    <clipPath id="clippath">
      <rect width="1190.56" height="648.78" fill="none"/>
    </clipPath>
    <linearGradient id="linear-gradient" x1="595.28" y1="648.78" x2="595.28" y2="0" gradientUnits="userSpaceOnUse">
      <stop offset=".54" stop-color="#e0d5ef"/>
      <stop offset=".93" stop-color="#fff"/>
    </linearGradient>
    <clipPath id="clippath-1">
      <rect x="30.11" y="37.4" width="274.25" height="46.99" fill="none"/>
    </clipPath>
    <clipPath id="clippath-2">
      <rect x="-143.65" y="287.16" width="527.35" height="480.38" fill="none"/>
    </clipPath>
  </defs>
  <g id="Layer_1-2" data-name="Layer 1">
    <g clip-path="url(#clippath)">
      <rect width="1190.56" height="648.78" fill="url(#linear-gradient)"/>
      <rect x="1152.11" y="186.8" width="38.45" height="87.83" fill="#caa3d3"/>
      <g>
        <path d="M1160.75,192.35h2.7c2.12,0,3.06,1.2,3.06,2.5,0,.92-.45,1.71-1.25,2.07v.03c1.16.27,1.89,1.21,1.89,2.4,0,1.57-1.17,2.88-3.44,2.88h-2.97v-9.88ZM1163.25,196.55c1.11,0,1.69-.57,1.69-1.46,0-.83-.51-1.44-1.69-1.44h-.93v2.9h.93ZM1163.58,200.93c1.23,0,1.96-.45,1.96-1.56,0-.95-.71-1.52-1.8-1.52h-1.43v3.07h1.26Z" fill="#fff"/>
        <path d="M1173.22,194.95c0-.98-.76-1.35-1.62-1.35-.99,0-1.83.35-2.5.67l-.44-1.21c.75-.39,1.88-.79,3.15-.79,2.07,0,3.06,1.1,3.06,2.55,0,2.86-3.91,3.19-4.51,6.09h4.57v1.33h-6.6c.42-5.05,4.89-5.08,4.89-7.29Z" fill="#fff"/>
      </g>
      <rect x="1152.11" y="280.19" width="38.45" height="87.83" fill="#caa3d3"/>
      <g>
        <path d="M1160.75,285.75h2.7c2.12,0,3.06,1.2,3.06,2.5,0,.92-.45,1.71-1.25,2.07v.03c1.16.27,1.89,1.21,1.89,2.4,0,1.58-1.17,2.88-3.44,2.88h-2.97v-9.88ZM1163.25,289.95c1.11,0,1.69-.57,1.69-1.46,0-.83-.51-1.44-1.69-1.44h-.93v2.9h.93ZM1163.58,294.33c1.23,0,1.96-.45,1.96-1.56,0-.94-.71-1.51-1.8-1.51h-1.43v3.08h1.26Z" fill="#fff"/>
        <path d="M1171.17,287.31l-2.29,1.08-.54-1.23,3.17-1.49h1.21v9.96h-1.54v-8.32Z" fill="#fff"/>
      </g>
      <rect x="1152.11" width="38.45" height="87.83" fill="#caa3d3"/>
      <g>
        <path d="M1168.21,14.84c-1.04.57-2.06.75-3.02.75-3.13,0-4.9-2.08-4.9-4.98s2.04-5.15,5.13-5.15c1.06,0,1.96.23,2.54.5v1.47c-.74-.39-1.53-.63-2.5-.63-2.22,0-3.48,1.71-3.48,3.76,0,2.18,1.3,3.69,3.4,3.69.96,0,1.71-.27,2.4-.66l.44,1.24Z" fill="#fff"/>
        <path d="M1174.11,8.15c0-.98-.76-1.35-1.62-1.35-.99,0-1.83.35-2.5.67l-.44-1.21c.75-.39,1.88-.79,3.15-.79,2.07,0,3.06,1.09,3.06,2.55,0,2.87-3.91,3.19-4.51,6.09h4.57v1.33h-6.6c.42-5.05,4.89-5.08,4.89-7.29Z" fill="#fff"/>
      </g>
      <rect x="1152.11" y="93.4" width="38.45" height="87.83" fill="#caa3d3"/>
      <g>
        <path d="M1168.21,108.24c-1.04.57-2.06.75-3.02.75-3.13,0-4.9-2.08-4.9-4.98s2.04-5.15,5.13-5.15c1.06,0,1.96.23,2.54.5v1.47c-.74-.39-1.53-.63-2.5-.63-2.22,0-3.48,1.71-3.48,3.76,0,2.18,1.3,3.69,3.4,3.69.96,0,1.71-.27,2.4-.66l.44,1.24Z" fill="#fff"/>
        <path d="M1172.05,100.52l-2.29,1.08-.54-1.23,3.17-1.48h1.21v9.96h-1.54v-8.32Z" fill="#fff"/>
      </g>
      <rect x="1091.35" y="373.59" width="99.21" height="87.83" fill="#702283"/>
      <g>
        <path d="M1163.48,379.1h1.21l3.92,9.93h-1.7l-.97-2.54h-3.66l-.94,2.54h-1.65l3.79-9.93ZM1165.46,385.21l-.81-2.25c-.27-.81-.42-1.26-.52-1.59h-.03c-.09.35-.24.79-.54,1.59l-.81,2.25h2.71Z" fill="#fff"/>
        <path d="M1174.14,381.74c0-.97-.76-1.35-1.62-1.35-.99,0-1.83.34-2.5.67l-.44-1.21c.75-.39,1.88-.79,3.15-.79,2.07,0,3.06,1.09,3.06,2.55,0,2.87-3.91,3.2-4.51,6.09h4.57v1.33h-6.6c.42-5.05,4.89-5.08,4.89-7.29Z" fill="#fff"/>
      </g>
      <rect x="1091.35" y="560.39" width="99.21" height="87.83" fill="#702283"/>
      <g>
        <g>
          <path d="M1158.5,562.44h1.76c.76,0,1.31.11,1.76.35.78.41,1.23,1.16,1.23,2.21,0,.92-.4,1.83-1.45,2.28-.42.18-.95.29-1.65.29h-.4v2.78h-1.26v-7.9ZM1160.24,566.53c.43,0,.76-.07,1-.2.48-.23.71-.7.71-1.33,0-.56-.22-1.03-.66-1.3-.25-.14-.59-.23-1.06-.23h-.47v3.06h.48Z" fill="#fff"/>
          <path d="M1164.59,564.67h1.04l.14.66c.55-.56,1.03-.8,1.57-.8.25,0,.54.07.74.2l-.44,1.07c-.22-.12-.42-.16-.6-.16-.38,0-.72.18-1.21.64v4.07h-1.25v-5.67Z" fill="#fff"/>
          <path d="M1169.59,567.81c.02.97.66,1.65,1.69,1.65.56,0,1.02-.16,1.43-.38l.37.85c-.55.36-1.26.53-1.93.53-1.98,0-2.83-1.4-2.83-2.97,0-1.71.95-2.96,2.48-2.96s2.43,1.15,2.43,2.99v.3h-3.65ZM1171.96,566.93c-.02-.72-.37-1.43-1.18-1.43-.76,0-1.2.66-1.21,1.43h2.39Z" fill="#fff"/>
        </g>
        <g>
          <path d="M1161.48,574.41h1.21l3.92,9.93h-1.7l-.97-2.54h-3.66l-.94,2.54h-1.65l3.79-9.93ZM1163.46,580.51l-.81-2.25c-.27-.81-.42-1.26-.52-1.59h-.03c-.09.35-.24.79-.54,1.59l-.81,2.25h2.71Z" fill="#fff"/>
          <path d="M1170.09,576.01l-2.29,1.08-.54-1.23,3.17-1.49h1.21v9.96h-1.54v-8.32Z" fill="#fff"/>
        </g>
      </g>
      <rect x="1091.35" y="466.99" width="99.21" height="87.83" fill="#702283"/>
      <g>
        <path d="M1163.48,472.5h1.21l3.92,9.93h-1.7l-.97-2.54h-3.66l-.94,2.54h-1.65l3.79-9.93ZM1165.46,478.61l-.81-2.25c-.27-.81-.42-1.26-.52-1.59h-.03c-.09.35-.24.79-.54,1.59l-.81,2.25h2.71Z" fill="#fff"/>
        <path d="M1172.09,474.11l-2.29,1.08-.54-1.23,3.17-1.49h1.21v9.96h-1.54v-8.32Z" fill="#fff"/>
      </g>
      <path d="M370.1,539.26C177.61,464.93,2.51,462.07-89.78,466.24c1.17,64.78,2.35,129.56,3.52,194.34,42.24,3.45,84.49,6.77,126.76,9.97,205.1,15.54,410.49,28.21,616.19,38.02-57.71-49.21-151.89-117.29-286.59-169.3Z" fill="#90559e"/>
      <g clip-path="url(#clippath-1)">
        <path d="M196.09,38.76h-2.34l-6.22,16.14h3.05l1.51-4.02h5.73l1.56,4.02h3.17l-6.46-16.14ZM192.94,48.49l1.17-3.17c.44-1.24.68-1.95.83-2.51h.05c.15.54.37,1.27.81,2.49l1.12,3.19h-3.97Z" fill="#1d1d1b"/>
        <path d="M227.04,43.07c-3.29,0-5.19,2.61-5.19,6.07,0,3.12,1.71,6,5.9,6,1.41,0,2.85-.32,4.07-1.07l-.88-2c-.83.46-1.76.78-2.9.78-1.93,0-3.19-1.14-3.27-2.92h7.39v-.68c0-3.83-1.88-6.17-5.12-6.17M224.74,47.9c.02-1.39.8-2.61,2.24-2.61,1.54,0,2.19,1.29,2.22,2.61h-4.46Z" fill="#1d1d1b"/>
        <path d="M277.37,43.07c-3.29,0-5.19,2.61-5.19,6.07,0,3.12,1.71,6,5.9,6,1.41,0,2.85-.32,4.07-1.07l-.88-2c-.83.46-1.76.78-2.9.78-1.93,0-3.2-1.14-3.27-2.92h7.39v-.68c0-3.83-1.88-6.17-5.12-6.17M275.08,47.9c.02-1.39.8-2.61,2.24-2.61,1.54,0,2.2,1.29,2.22,2.61h-4.46Z" fill="#1d1d1b"/>
        <path d="M300.61,39.83l-2.9.85v2.68h-2.07v2.27h2.07v6.41c0,1.93,1.24,3.1,3.29,3.1,1.15,0,2.54-.34,3.37-.9l-.88-2c-.44.29-1.07.56-1.76.56-.76,0-1.12-.39-1.12-1.46v-5.71h.12s.94,0,.94,0c1.3,0,1.67-.68,1.85-1.01l.57-1.14.02-.04-.02-.05h-3.36v-.02h-.12v-3.54Z" fill="#1d1d1b"/>
        <path d="M216.68,43.07c-2.71,0-4.37,1.44-4.37,3.49,0,3.85,5.41,3.12,5.41,5.07,0,.88-.85,1.22-2.02,1.22s-2.27-.39-3.15-.95l-.13.31-.51,1.96c.95.53,2.33.98,3.98.98,2.49,0,4.68-1.05,4.68-3.58,0-4.02-5.41-3.32-5.41-5.14,0-.76.66-1.05,1.63-1.05s1.9.22,2.73.52l.54-2.07v-.19c-.95-.34-2.1-.56-3.39-.56" fill="#1d1d1b"/>
        <path d="M237.91,43.07c-2.71,0-4.37,1.44-4.37,3.49,0,3.85,5.41,3.12,5.41,5.07,0,.88-.85,1.22-2.02,1.22s-2.17-.36-3.03-.88l-.6,2.29c.94.48,2.26.89,3.82.89,2.49,0,4.68-1.05,4.68-3.58,0-4.02-5.41-3.32-5.41-5.14,0-.76.66-1.05,1.63-1.05s1.88.21,2.71.52l.56-2.13v-.11c-.95-.34-2.1-.56-3.39-.56" fill="#1d1d1b"/>
        <path d="M247.54,43.07c-2.71,0-4.37,1.44-4.37,3.49,0,3.85,5.41,3.12,5.41,5.07,0,.88-.85,1.22-2.02,1.22s-2.2-.37-3.06-.9l-.6,2.29c.95.49,2.28.9,3.85.9,2.49,0,4.68-1.05,4.68-3.58,0-4.02-5.41-3.32-5.41-5.14,0-.76.66-1.05,1.63-1.05s1.87.21,2.69.51l.57-2.2v-.05c-.95-.34-2.1-.56-3.39-.56" fill="#1d1d1b"/>
        <path d="M207.1,43.07c-2.71,0-4.36,1.44-4.36,3.49,0,3.85,5.41,3.12,5.41,5.07,0,.88-.85,1.22-2.02,1.22s-2.27-.39-3.15-.95h0s1.11,2.95,1.11,2.95c.67.18,1.42.29,2.24.29,2.49,0,4.68-1.05,4.68-3.58,0-4.02-5.41-3.32-5.41-5.14,0-.76.66-1.05,1.63-1.05s1.88.21,2.7.51l.56-2.15v-.1c-.95-.34-2.1-.56-3.39-.56" fill="#1d1d1b"/>
        <path d="M253.01,42.87l-.06.03v12h2.9v-8.14c.85-.68,1.83-1.15,2.76-1.15,1.49,0,1.71,1.12,1.71,2.46v6.83h2.93v-7.71l-.02-.44c.83-.68,1.8-1.15,2.73-1.15,1.49,0,1.76,1.07,1.76,2.44v6.85h2.9v-7.66c0-3.05-1.8-4.17-3.83-4.17-1.29,0-2.76.61-4.15,1.78-.56-1.15-1.66-1.78-3.07-1.78s-2.73.68-3.88,1.58h-.11c-.29-.61-.76-.87-1.03-1.02l-1.48-.74-.06-.03Z" fill="#1d1d1b"/>
        <path d="M284.15,42.87l-.06.03v12h2.9v-8.07c.85-.71,1.88-1.22,2.83-1.22,1.49,0,1.78,1.15,1.78,2.56v6.73h2.93v-7.63c0-3.29-1.88-4.19-3.71-4.19-1.44,0-2.73.63-3.95,1.58h-.16c-.29-.61-.76-.87-1.03-1.02l-1.48-.74-.06-.03Z" fill="#1d1d1b"/>
        <path d="M83.65,38.57c-5.17,0-8.49,3.71-8.49,8.36s2.85,8.1,8.12,8.1c1.57,0,3.23-.28,4.96-1.2-.43-.66-.67-1.46-.68-2.38-1.15.66-2.36,1.12-3.95,1.12-3.29,0-5.34-2.34-5.34-5.71,0-3.15,1.88-5.83,5.44-5.83,1.56,0,2.9.39,4.14,1.05v-2.73c-1-.44-2.46-.78-4.22-.78" fill="#1d1d1b"/>
        <path d="M123.26,37.4h-2.9v16.7c.97.51,2.29.8,3.78.8,3.93,0,6.9-2.34,6.9-6.39,0-3.66-2.46-5.68-5.54-5.68-.9,0-1.58.15-2.24.34v-5.78ZM124.61,52.5c-.42,0-.88-.05-1.34-.2v-6.68c.37-.15.88-.37,1.75-.37,1.9,0,3.02,1.41,3.02,3.44,0,2.27-1.34,3.8-3.44,3.8" fill="#1d1d1b"/>
        <path d="M157.29,37.53h-2.92v5.58c-.46-.1-1.12-.15-1.56-.15-3.66,0-6.32,2.51-6.32,6.17s2.8,5.9,6.56,5.9c1.41,0,3.1-.29,4.24-.85v-16.65ZM153,52.62c-2.1,0-3.54-1.29-3.54-3.53,0-2.37,1.49-3.73,3.51-3.73.59,0,.95.07,1.39.17v6.9c-.39.15-.98.19-1.37.19" fill="#1d1d1b"/>
        <path d="M175.48,42.96c-3.29,0-5.19,2.61-5.19,6.07,0,3.12,1.71,6,5.9,6,1.41,0,2.85-.32,4.07-1.07l-.88-2c-.83.46-1.76.78-2.9.78-1.93,0-3.19-1.15-3.27-2.93h7.39v-.68c0-3.83-1.88-6.17-5.12-6.17M173.19,47.79c.02-1.39.8-2.61,2.24-2.61,1.54,0,2.19,1.29,2.22,2.61h-4.46Z" fill="#1d1d1b"/>
        <path d="M93.86,42.96c-1.61,0-3.1.39-4.46,1.15l.95,1.88c.83-.44,1.88-.81,3.02-.81,1.34,0,2.22.59,2.22,1.93v.37l-1.98.07c-1.17.05-2.17.24-2.97.66-1.19.61-1.95,1.58-1.95,3.15,0,2.22,1.63,3.68,3.83,3.68,1.44,0,2.49-.59,3.32-1.34h.24c.27.33.59.51.8.62l1.52.76.06.03.06-.03v-6.79h-.02v-1.13c0-2.78-1.54-4.19-4.63-4.19M93.35,52.74c-1.05,0-1.71-.58-1.71-1.58,0-.59.22-1.05.71-1.32.39-.22.93-.34,1.68-.36l1.49-.05v2.51c-.4.32-1.15.81-2.17.81" fill="#1d1d1b"/>
        <path d="M100.68,42.71l-.06.03v12h2.9v-8.14c.85-.68,1.83-1.15,2.75-1.15,1.49,0,1.71,1.12,1.71,2.46v6.83h2.93v-7.71l-.02-.44c.83-.68,1.8-1.15,2.73-1.15,1.49,0,1.76,1.07,1.76,2.44v6.85h2.9v-7.66c0-3.05-1.8-4.17-3.83-4.17-1.29,0-2.75.61-4.15,1.78-.56-1.15-1.66-1.78-3.07-1.78s-2.73.68-3.88,1.58h-.11c-.3-.61-.76-.87-1.03-1.02l-1.48-.74-.06-.03Z" fill="#1d1d1b"/>
        <path d="M138.7,43.02c-1.32,0-2.47.71-3.17,1.53l-.32-1.29h-2.46v11.53h2.9v-8.14c.89-1.1,1.78-1.42,2.51-1.42,1.05,0,1.78.67,1.78.67v-2.65c-.42-.15-.84-.22-1.25-.22" fill="#1d1d1b"/>
        <path d="M143.15,37.89c-1.02,0-1.78.78-1.78,1.76s.76,1.73,1.78,1.73,1.8-.78,1.8-1.73c0-1-.78-1.76-1.8-1.76M144.61,43.26h-2.93v11.53h2.93v-11.53Z" fill="#1d1d1b"/>
        <path d="M170.18,42.52h-4.52s-1.77,0-1.77,0c-3.15,0-4.71,2.12-4.71,4.24,0,1.54.71,2.88,1.93,3.58-.95.66-1.39,1.49-1.39,2.17,0,.61.27,1.15.76,1.44-1.19.51-2.07,1.51-2.07,2.78,0,2,1.97,3.39,5.36,3.39,4,0,6.1-1.71,6.1-3.8,0-4.32-7.58-2.39-7.58-4.46,0-.24.07-.49.29-.85.39.12.88.2,1.41.2,2.8,0,4.78-1.68,4.78-4.27,0-.9-.28-1.76-.81-2.45h.33v-.02c.95-.08,1.25-.61,1.39-.88l.5-1,.02-.04-.02-.04ZM163.96,49.01c-1.29,0-2.02-1-2.02-2.15,0-1.39.85-2.15,2-2.15,1.29,0,2.07,1.03,2.07,2.17,0,1.39-.88,2.12-2.05,2.12M164.16,58.08c-1.93,0-3.15-.71-3.15-1.85,0-.76.56-1.24.93-1.51,1.56.61,5.14.27,5.14,1.92,0,.85-1.17,1.44-2.93,1.44" fill="#1d1d1b"/>
        <polygon points="75.86 62.61 83.96 62.61 83.3 64.46 78.03 64.46 78.03 69.54 83.25 69.54 83.25 71.39 78.03 71.39 78.03 76.78 84.06 76.78 84.06 78.63 75.86 78.63 75.86 62.61" fill="#1d1d1b"/>
        <path d="M86.51,67.13h1.8l.27,1.41c1.24-1.02,2.53-1.7,3.99-1.7,1.82,0,3.5,1.07,3.5,4.08v7.71h-2.14v-7c0-1.63-.39-2.89-1.97-2.89-1.17,0-2.29.68-3.31,1.56v8.34h-2.14v-11.5Z" fill="#1d1d1b"/>
        <path d="M97.52,81.06c0-1.19.73-2.26,2.12-2.89-.51-.29-.8-.83-.8-1.43s.29-1.41,1.29-2.24c-1.14-.7-1.85-1.97-1.85-3.5,0-2.26,1.7-4.13,4.38-4.13,1.02,0,1.75.22,2.21.44.12.07.17.07.27-.02.56-.56,1.31-.95,2.5-.95.27,0,.58.05.71.07l-.49,1.6c-.22-.05-.49-.07-.71-.07-.34,0-.73.07-1.02.27.78.78,1.19,1.82,1.19,2.89,0,2.5-1.85,4.18-4.55,4.18-.53,0-1.05-.07-1.46-.22-.39.44-.54.8-.54,1.17,0,2.21,7.58.22,7.58,4.52,0,2.14-2.09,3.65-5.71,3.65-3.14,0-5.13-1.26-5.13-3.33M106.25,80.96c0-1.97-3.45-1.58-5.4-2.21-.53.34-1.36.95-1.36,1.95,0,1.31,1.36,2.09,3.38,2.09,2.21,0,3.38-.8,3.38-1.82M105.2,71.07c0-1.43-.97-2.5-2.43-2.5s-2.41.92-2.41,2.48c0,1.43.9,2.53,2.43,2.53,1.36,0,2.41-.88,2.41-2.5" fill="#1d1d1b"/>
        <path d="M109.99,61.42h2.14v14.34c0,.88.27,1.14.85,1.14.19,0,.53-.07.73-.15l.44,1.68c-.53.22-1.22.34-1.77.34-1.6,0-2.38-.88-2.38-2.41v-14.95Z" fill="#1d1d1b"/>
        <path d="M115.51,63.39c0-.75.56-1.36,1.36-1.36s1.41.58,1.41,1.36-.61,1.39-1.41,1.39-1.36-.61-1.36-1.39M115.8,67.13h2.14v11.5h-2.14v-11.5Z" fill="#1d1d1b"/>
        <path d="M120.47,76.25c.73.44,1.73.88,2.97.88s2.33-.46,2.33-1.65c0-2.33-5.4-1.56-5.4-5.37,0-1.82,1.43-3.26,4.04-3.26,1.14,0,2.19.24,3.01.56v1.85c-.83-.36-1.78-.66-2.92-.66-1.07,0-2.02.32-2.02,1.41,0,2.33,5.4,1.51,5.4,5.45,0,2.36-1.99,3.43-4.38,3.43-1.6,0-2.92-.51-3.72-1.02l.68-1.6Z" fill="#1d1d1b"/>
        <path d="M129.9,61.42h2.14v7.1c1.14-.97,2.43-1.68,3.91-1.68,1.8,0,3.5,1.07,3.5,4.08v7.71h-2.14v-7c0-1.63-.41-2.89-1.99-2.89-1.17,0-2.29.68-3.28,1.56v8.34h-2.14v-17.21Z" fill="#1d1d1b"/>
        <path d="M66.27,61.42c-.08,1.98-.37,3.78-.87,5.35-.48,1.52-1.16,2.88-2.04,4.04-1.63,2.15-3.6,3.22-4.91,3.94-.11.06-.89.46-4.62,2.32v-15.64h12.43" fill="none" stroke="#fd0" stroke-miterlimit="10" stroke-width=".08"/>
        <path d="M44.3,61.42v15.64c-3.73-1.86-4.51-2.25-4.62-2.32-1.31-.71-3.28-1.79-4.91-3.94-.87-1.15-1.56-2.51-2.04-4.04-.5-1.57-.78-3.37-.87-5.35h12.43" fill="none" stroke="#fd0" stroke-miterlimit="10" stroke-width=".08"/>
        <rect x="53.83" y="39.13" width="12.46" height="12.75" fill="none" stroke="#171614" stroke-miterlimit="10" stroke-width=".08"/>
        <rect x="31.84" y="39.13" width="12.46" height="12.75" fill="none" stroke="#171614" stroke-miterlimit="10" stroke-width=".08"/>
        <path d="M49.06,81.37l-.38-.2c-.56-.28-9.32-4.63-9.84-4.91-2.84-1.54-8.74-4.75-8.74-15.99v-22.86h37.91v22.86c0,11.24-5.9,14.45-8.74,15.99-.52.28-9.33,4.66-9.84,4.91l-.38.2Z" fill="#1d1d1b"/>
        <path d="M52.92,52.79v-14.57h-7.71v14.57h-14.28v7.47c0,.08,0,.16,0,.24h14.28v18.02c2.06,1.03,3.86,1.92,3.86,1.92h0s1.8-.89,3.86-1.92v-18.02h14.28c0-.08,0-.16,0-.24v-7.47h-14.28Z" fill="#fff"/>
        <rect x="30.93" y="38.22" width="14.28" height="14.57" fill="#e63329"/>
        <rect x="52.92" y="38.22" width="14.28" height="14.57" fill="#e63329"/>
        <path d="M45.21,60.51h-14.28c.08,10.45,5.44,13.47,8.31,15.03.29.16,3.34,1.68,5.97,2.99v-18.02Z" fill="#e63329"/>
        <path d="M52.92,60.51v18.02c2.62-1.31,5.67-2.83,5.97-2.99,2.87-1.56,8.23-4.59,8.31-15.03h-14.28Z" fill="#e63329"/>
        <path d="M57.83,56.76l.29-.35-.37-.44-.37.44.29.35c0,.18.01,1.72-.89,2.27,0,0,.3.06.71-.02,0,0,.07.4.26.86.19-.46.26-.86.26-.86.41.08.71.02.71.02-.91-.55-.9-2.1-.9-2.27" fill="#1d1d1b"/>
        <path d="M60.15,54.14l.29-.35-.37-.44-.37.44.29.35c0,.18.01,1.72-.9,2.27,0,0,.3.06.71-.02,0,0,.07.4.26.86.19-.46.26-.86.26-.86.41.08.71.02.71.02-.91-.55-.9-2.1-.89-2.27" fill="#1d1d1b"/>
        <path d="M62.48,56.76l.29-.35-.37-.44-.37.44.29.35c0,.18.01,1.72-.9,2.27,0,0,.3.06.71-.02,0,0,.07.4.26.86.19-.46.26-.86.26-.86.41.08.71.02.71.02-.91-.55-.9-2.1-.89-2.27" fill="#1d1d1b"/>
        <path d="M64.8,54.14l.29-.35-.37-.44-.37.44.29.35c0,.18.01,1.72-.9,2.27,0,0,.3.06.71-.02,0,0,.07.4.26.86.19-.46.26-.86.26-.86.41.08.71.02.71.02-.91-.55-.9-2.1-.89-2.27" fill="#1d1d1b"/>
        <path d="M55.5,54.14l.29-.35-.37-.44-.37.44.29.35c0,.18.01,1.72-.9,2.27,0,0,.3.06.71-.02,0,0,.07.4.26.86.19-.46.26-.86.26-.86.41.08.71.02.71.02-.91-.55-.9-2.1-.9-2.27" fill="#1d1d1b"/>
        <path d="M35.81,56.76l.29-.35-.37-.44-.37.44.29.35c0,.18.01,1.72-.9,2.27,0,0,.3.06.71-.02,0,0,.07.4.26.86.19-.46.26-.86.26-.86.41.08.71.02.71.02-.91-.55-.9-2.1-.89-2.27" fill="#1d1d1b"/>
        <path d="M38.13,54.14l.29-.35-.37-.44-.37.44.29.35c0,.18.02,1.72-.9,2.27,0,0,.3.06.71-.02,0,0,.07.4.26.86.19-.46.26-.86.26-.86.41.08.71.02.71.02-.91-.55-.9-2.1-.89-2.27" fill="#1d1d1b"/>
        <path d="M40.46,56.76l.29-.35-.37-.44-.37.44.29.35c0,.18.01,1.72-.9,2.27,0,0,.3.06.71-.02,0,0,.07.4.26.86.19-.46.26-.86.26-.86.41.08.71.02.71.02-.91-.55-.9-2.1-.89-2.27" fill="#1d1d1b"/>
        <path d="M42.78,54.14l.29-.35-.37-.44-.37.44.29.35c0,.18.02,1.72-.9,2.27,0,0,.3.06.71-.02,0,0,.07.4.26.86.19-.46.26-.86.26-.86.41.08.71.02.71.02-.91-.55-.9-2.1-.9-2.27" fill="#1d1d1b"/>
        <path d="M33.48,54.14l.3-.35-.37-.44-.37.44.29.35c0,.18.02,1.72-.9,2.27,0,0,.3.06.71-.02,0,0,.07.4.26.86.19-.46.26-.86.26-.86.41.08.71.02.71.02-.91-.55-.9-2.1-.9-2.27" fill="#1d1d1b"/>
        <path d="M49.16,62.68l.29-.35-.37-.44-.37.44.3.35c0,.18.01,1.72-.9,2.27,0,0,.3.06.71-.02,0,0,.07.4.26.86.19-.46.26-.86.26-.86.41.08.71.02.71.02-.91-.55-.9-2.1-.9-2.27" fill="#1d1d1b"/>
        <path d="M49.16,70.58l.29-.35-.37-.44-.37.44.3.35c0,.18.01,1.72-.9,2.27,0,0,.3.06.71-.02,0,0,.07.4.26.86.19-.46.26-.86.26-.86.41.08.71.02.71.02-.91-.55-.9-2.1-.9-2.27" fill="#1d1d1b"/>
        <path d="M51.32,66.63l.3-.35-.37-.44-.37.44.29.35c0,.18.02,1.72-.9,2.28,0,0,.3.06.71-.02,0,0,.07.4.26.86.19-.46.26-.86.26-.86.41.08.71.02.71.02-.91-.55-.9-2.1-.9-2.28" fill="#1d1d1b"/>
        <path d="M46.98,66.63l.3-.35-.37-.44-.37.44.29.35c0,.18.02,1.72-.9,2.28,0,0,.3.06.71-.02,0,0,.07.4.26.86.19-.46.26-.86.26-.86.41.08.71.02.71.02-.91-.55-.9-2.1-.9-2.28" fill="#1d1d1b"/>
        <path d="M51.32,74.52l.3-.35-.37-.44-.37.44.29.35c0,.18.02,1.72-.9,2.28,0,0,.3.06.71-.02,0,0,.07.4.26.86.19-.46.26-.86.26-.86.41.08.71.02.71.02-.91-.55-.9-2.1-.9-2.28" fill="#1d1d1b"/>
        <path d="M46.98,74.52l.3-.35-.37-.44-.37.44.29.35c0,.18.02,1.72-.9,2.28,0,0,.3.06.71-.02,0,0,.07.4.26.86.19-.46.26-.86.26-.86.41.08.71.02.71.02-.91-.55-.9-2.1-.9-2.28" fill="#1d1d1b"/>
        <path d="M49.16,44.7l.29-.35-.37-.44-.37.44.3.35c0,.18.01,1.72-.9,2.27,0,0,.3.06.71-.02,0,0,.07.4.26.86.19-.46.26-.86.26-.86.41.08.71.02.71.02-.91-.55-.9-2.1-.9-2.27" fill="#1d1d1b"/>
        <path d="M51.32,40.75l.3-.35-.37-.44-.37.44.29.35c0,.18.02,1.72-.9,2.27,0,0,.3.06.71-.02,0,0,.07.4.26.86.19-.46.26-.86.26-.86.41.08.71.02.71.02-.91-.55-.9-2.1-.9-2.27" fill="#1d1d1b"/>
        <path d="M46.98,40.75l.3-.35-.37-.44-.37.44.29.35c0,.18.02,1.72-.9,2.27,0,0,.3.06.71-.02,0,0,.07.4.26.86.19-.46.26-.86.26-.86.41.08.71.02.71.02-.91-.55-.9-2.1-.9-2.27" fill="#1d1d1b"/>
        <path d="M51.32,48.65l.3-.35-.37-.44-.37.44.29.35c0,.18.02,1.72-.9,2.27,0,0,.3.06.71-.02,0,0,.07.4.26.86.19-.46.26-.86.26-.86.41.08.71.02.71.02-.91-.55-.9-2.1-.9-2.27" fill="#1d1d1b"/>
        <path d="M46.98,48.65l.3-.35-.37-.44-.37.44.29.35c0,.18.02,1.72-.9,2.27,0,0,.3.06.71-.02,0,0,.07.4.26.86.19-.46.26-.86.26-.86.41.08.71.02.71.02-.91-.55-.9-2.1-.9-2.27" fill="#1d1d1b"/>
        <path d="M42.12,45.42l.05.18c.04.16.08.29.1.39.15.69.28.87.62.87.19,0,.35-.11.4-.27l.07-.24c.02-.06.06-.09.12-.09.13,0,.19.14.2.44,0,.09.03.29.08.59.03.18.05.36.05.53,0,.16-.01.22-.07.38.04.24.07.56.07.74,0,.3-.06.58-.15.72.05.2.06.28.06.46,0,.13-.01.27-.04.4-.05.29-.06.36-.06.42s.01.11.03.16c.02.07.04.12.04.14,0,.03-.02.06-.04.06l-.24-.1-.27-.15c-.08-.05-.15-.09-.28-.22-.24.21-.31.24-.92.41-.12.03-.21.07-.27.11-.08.05-.13.08-.16.08-.1,0-.15-.17-.15-.51,0-.26.03-.49.07-.67-.18-.07-.33-.11-.43-.11-.02,0-.08,0-.19.02h-.04s-.07-.05-.07-.11c0-.05.03-.16.08-.26l.12-.29c.04-.1.14-.23.29-.35.12-.1.23-.16.32-.18l.44-.08c.26-.05.41-.19.41-.37s-.12-.29-.38-.38l-.52-.18c-.13-.05-.29-.12-.47-.23-.29-.17-.34-.19-.41-.19-.1,0-.16.08-.16.22,0,.22.14.37.34.37.04,0,.08,0,.12-.02.06-.02.1-.04.12-.04.05,0,.08.03.08.09v.05s-.03.21-.03.21c-.02.18-.13.39-.39.73l-.11.15c-.1.39-.34.74-.65.96-.08.05-.12.09-.13.1,0,.01-.04.07-.1.17-.02.05-.11.14-.24.29-.1.11-.2.2-.3.28-.14.1-.22.18-.24.22l-.12.21s-.06.06-.1.06c-.11,0-.21-.11-.27-.3-.04-.14-.08-.18-.17-.18-.05,0-.12.01-.21.04l-.17.02h-.44c-.22,0-.53.06-.67.12-.06.03-.1.04-.12.04-.03,0-.05-.02-.08-.07-.02-.04-.03-.06-.03-.1,0-.22.16-.64.37-.97.13-.21.17-.26.33-.39-.05-.21-.18-.37-.34-.41l-.21-.06s-.05-.03-.05-.06c0-.06.1-.15.28-.24.24-.12.47-.19.66-.19.2,0,.4.08.62.26.33.26.42.3.58.3.26,0,.51-.24.51-.49,0-.17-.09-.34-.32-.64-.34-.44-.44-.66-.44-.98,0-.2.06-.45.14-.57l.12-.18s.04-.08.04-.12c0-.08-.09-.14-.22-.14-.19,0-.56.14-.85.32-.14.09-.24.19-.24.26,0,.04.02.07.05.09l.13.09s.03.03.03.05c0,.02-.02.06-.05.09l-.24.32c-.12.16-.32.36-.51.53-.06.06-.1.1-.12.12,0,0-.03.06-.1.18-.09.16-.32.39-.53.54-.09.06-.15.11-.17.13-.02.02-.05.08-.1.17-.03.06-.08.14-.16.25-.12.18-.22.3-.29.38l-.34.34c-.1.1-.19.31-.34.75-.08.27-.16.43-.21.43-.02,0-.05-.03-.09-.07-.24-.27-.45-.44-.56-.44-.03,0-.07.02-.14.06-.09.05-.2.1-.33.12l-.45.08c-.34.06-.47.14-.67.36-.05.05-.08.08-.1.08-.04,0-.06-.06-.06-.14v-.11s.07-.33.07-.33c.06-.35.15-.61.24-.79l.21-.38c.04-.07.06-.14.06-.2,0-.28-.29-.53-.64-.57-.09,0-.12-.03-.12-.08,0-.06.1-.18.23-.28.24-.18.56-.32.76-.32.12,0,.31.05.54.15l.27.11c.1.04.19.06.27.06.28,0,.56-.26.89-.83.15-.26.22-.45.22-.62,0-.3-.15-.49-.39-.49-.18,0-.38.09-.52.23-.12.12-.19.25-.19.38v.13s0,.03,0,.03c0,.11-.04.18-.1.18-.12,0-.28-.16-.76-.74-.35-.43-.43-.61-.45-1.04-.41-.52-.51-.74-.51-1.12l.02-.25c-.28-.34-.36-.53-.36-.84,0-.11.02-.18.09-.32-.15-.21-.19-.31-.23-.47l-.06-.26c-.04-.17-.11-.32-.19-.45-.11-.16-.12-.18-.12-.23,0-.14.1-.2.52-.3-.02-.12-.03-.21-.03-.27,0-.07,0-.14.04-.29l.08-.45c.03-.18.05-.31.05-.39,0-.08-.01-.14-.09-.39-.04-.14-.08-.23-.11-.28-.04-.06-.07-.14-.07-.17,0-.04.03-.07.08-.07.12,0,.44.19.76.46.7.58.84.81.93,1.5,0,.05.02.13.04.24.33.25.51.54.51.86,0,.25-.09.54-.24.78l-.24.38c-.07.11-.11.25-.11.4,0,.23.07.44.23.73.19.33.34.46.54.46.32,0,.6-.56.6-1.19v-.3c0-.12,0-.24.02-.4.02-.19.03-.31.04-.35v-.29s.02-.19.02-.19c0-.07-.04-.14-.13-.23l-.27-.29c-.38-.42-.6-.81-.6-1.11,0-.37.26-.64.62-.64.07,0,.13.01.26.05v-.08c0-.53.11-.93.26-.93l.06.02.22.19.26.17.07.07c0-.15,0-.17.16-.34.04-.04.09-.12.17-.23.06-.09.1-.15.12-.18.02-.03.04-.07.06-.11.03-.06.06-.09.1-.09s.06.04.11.18c.03.08.05.1.26.29.07.07.12.12.14.16.02.03.05.11.1.24,0,.02.02.05.04.1.09-.11.13-.15.24-.22l.18-.11c.07-.04.12-.06.13-.06.02,0,.04.03.06.07.02.04.05.1.1.18.13.22.17.33.17.44v.12s0,.15,0,.15c.4.12.55.33.55.76,0,.31-.16.66-.47,1.03-.21.25-.23.3-.23.47,0,.9.62,1.41,1.72,1.43h.81c.52.02.83.07,1.32.23.58.19.74.23.91.23.06,0,.11-.02.16-.05.05-.03.07-.07.07-.11,0-.17-.3-.31-1.27-.58-2-.57-2.84-1.37-2.84-2.69,0-1.02.85-1.81,1.95-1.81.35,0,.9.09,1.21.21l.5.18c.09.03.18.05.26.05.17,0,.25-.14.26-.43,0-.15.04-.21.14-.21.14,0,.36.17.55.45.2.28.33.59.33.79,0,.28-.13.47-.42.63-.27.41-.61.6-1.06.6-.35,0-.85-.2-1.67-.66-.29-.16-.43-.22-.58-.22-.21,0-.35.12-.35.31,0,.18.14.29.49.41.52.18.65.26.86.47.62.11.88.21,1.27.51,1.06.34,1.72,1.06,1.72,1.89s-.55,1.39-1.31,1.39c-.18,0-.29-.01-.57-.07" fill="#1d1d1b"/>
        <path d="M43.32,50.72c-.03-.15-.05-.22-.05-.29v-.09s.05-.19.05-.19v-.16c.01-.17-.02-.29-.07-.36l-.15-.19c-.05-.06-.09-.14-.12-.23-.02-.04-.03-.08-.03-.1,0-.05.03-.09.09-.09.03,0,.05,0,.15.07.05.03.09.04.12.04.07,0,.11-.12.11-.32,0-.23-.02-.36-.07-.42l-.18-.21-.16-.13s-.06-.07-.06-.11c0-.05.04-.09.1-.09.06,0,.17.03.27.06h.05c.05.01.07-.02.07-.09v-.04s-.04-.25-.04-.25l-.07-.27c-.02-.09-.04-.1-.09-.1h-.03s-.3.06-.3.06h-.05c-.4,0-.82-.33-.94-.75l-.24-.79c-.07-.24-.25-.47-.58-.74-.1-.08-.18-.13-.24-.13l-.22-.02s-.07-.03-.07-.06c0-.05.05-.07.15-.07l.4.04c.15.01.37.07.65.17.36.12.61.18.81.18.6,0,.97-.33.97-.88,0-.38-.2-.8-.5-1.07-.17-.15-.34-.27-.4-.27-.03,0-.06.03-.06.06v.15s.01.01.01.01c0,.06-.04.11-.08.11-.06,0-.13-.08-.21-.24-.23-.48-.59-.76-.97-.76-.06,0-.11.03-.11.06,0,.03.02.08.06.17l.1.22c.03.06.04.1.04.11,0,.01-.02.03-.05.03-.06,0-.14-.05-.21-.11l-.18-.19-.16-.24c-.13-.19-.23-.28-.5-.42-.15-.08-.25-.13-.29-.16-.06-.03-.11-.05-.15-.05s-.06.02-.06.06c0,.04.02.09.05.13.09.14.12.21.12.24,0,.04-.03.07-.06.07-.09,0-.29-.19-.46-.45-.14-.21-.22-.45-.22-.68,0-.52.38-.91.89-.91.27,0,.6.11.91.3l.57.35c.2.12.49.22.66.22.08,0,.24-.03.35-.06.05-.02.1-.03.15-.06.03-.02.06-.05.06-.07,0-.02-.01-.05-.03-.05l-.07-.02-.27-.05c-.07-.01-.18-.05-.33-.12-.32-.15-.52-.25-.61-.3-.2-.13-.33-.21-.4-.23-.1-.03-.16-.08-.16-.11s.02-.05.05-.05c.03,0,.08.02.13.05.18.11.33.17.45.17l.52.18c.26.09.63.17.8.17.22,0,.4-.18.4-.4,0-.14-.09-.35-.21-.53-.03-.04-.06-.06-.08-.06-.05,0-.08.04-.08.1v.1s.03.14.03.14c0,.16-.11.28-.24.28-.05,0-.11-.01-.19-.04l-.79-.25c-.66-.21-.97-.28-1.29-.28-.94,0-1.66.65-1.66,1.5,0,.96.68,1.58,2.35,2.16,1.65.57,1.88.7,1.88,1.13,0,.24-.25.46-.52.46-.11,0-.21,0-.29-.02-.06-.01-.33-.08-.82-.19-.5-.12-.95-.17-1.51-.17-1.19,0-1.85.21-2.42.76-.14.14-.19.16-.35.16h-.08s-.17-.02-.17-.02h-.02c-.14,0-.25.07-.34.22-.13.21-.2.31-.21.33-.03.05-.08.07-.14.07-.11,0-.17-.08-.3-.38-.06-.14-.15-.27-.25-.36l-.24-.22s-.06-.07-.06-.09c0-.03.02-.07.05-.11.12-.17.16-.24.17-.32.03-.16.04-.17.1-.17.08,0,.1.07.1.35,0,.08.03.19.1.33l.13.29s.06.06.11.06c.12,0,.28-.29.33-.61.03-.26.06-.34.12-.34.02,0,.04.01.05.03.01.02.05.09.11.22.03.07.08.13.16.18.07.05.12.08.15.08h.01c.1,0,.13-.06.15-.29v-.12s-.01-.17-.01-.17l-.02-.12c0-.08.03-.12.07-.12.03,0,.06.02.09.05l.12.12c.08.08.16.12.24.12.1,0,.16-.04.16-.11,0-.06-.02-.12-.11-.28l-.08-.16c-.1-.18-.17-.26-.27-.26h-.12s-.14.07-.14.07c-.05.02-.08.03-.1.03-.02,0-.04-.02-.04-.05,0-.11.07-.28.21-.49.1-.15.16-.48.19-.95.04-.63.13-1.04.21-1.04.06,0,.08.05.08.19v.17s-.01.12-.01.12c0,.11.03.2.06.2.1,0,.23-.15.32-.41.04-.1.06-.19.06-.25v-.06s-.26-.45-.26-.45l-.24-.07s-.08-.03-.08-.05v-.3l-.02-.15-.05-.12-.06-.13c-.27.14-.39.24-.49.36-.1.13-.15.18-.19.18-.03,0-.06-.03-.06-.06,0-.03.01-.09.04-.2v-.07c0-.26-.15-.52-.41-.68l-.07.1-.09.12-.14.17c-.05.05-.09.14-.12.24-.02.05-.02.1-.02.14v.02s0,.04,0,.04c0,.1-.01.13-.06.13h-.03s-.09-.13-.09-.13l-.13-.15-.2-.13-.11-.08s-.04.08-.05.11c-.04.08-.06.15-.06.19v.19s-.02.21-.02.21v.04c0,.11-.03.15-.09.15-.02,0-.08-.03-.14-.06-.05-.03-.12-.05-.17-.05-.19,0-.31.13-.31.33,0,.24.07.47.19.64l.16.2c.04.06.12.1.13.07l.03-.25-.04-.21v-.09c0-.08.02-.13.06-.13.07,0,.11.08.15.28l.1.45.1.57c.03.15.08.32.15.48.1.23.17.37.21.42.13.17.15.2.15.23,0,.03-.02.06-.05.06s-.06-.01-.11-.04c-.04-.02-.09-.04-.15-.05h-.09c-.19-.01-.23.15-.23.96,0,.49.1,1.16.23,1.48l.25.64c.04.1.06.2.06.3,0,.88-1.17,2.27-2.46,2.91-.48.24-.63.46-.67.99v.16c.18-.1.26-.13.4-.17.36-.09.43-.14.49-.32l.05-.16c.02-.06.05-.08.33-.23.1-.05.16-.1.19-.16.06-.1.11-.16.14-.16.03,0,.05.01.05.04v.04s-.13.35-.13.35v.08c-.01.26.13.46.39.6.04-.28.07-.38.16-.51l.22-.34c.08-.13.12-.28.12-.52,0-.14-.01-.27-.03-.38v-.1c0-.06.02-.1.08-.1.04,0,.08.01.08.03l.05.23s.06.09.12.09c.12,0,.27-.15.43-.42.06-.1.09-.21.09-.32l-.02-.16-.04-.18v-.04c0-.08.04-.14.1-.14.03,0,.05.01.05.02l.07.28c.03.09.09.16.16.16.08,0,.22-.14.3-.3.07-.14.11-.31.11-.5,0-.26.03-.33.12-.33.03,0,.06.01.06.03l.05.16c.02.06.05.1.09.1.05,0,.19-.15.28-.3.02-.04.04-.08.04-.11,0-.05-.03-.1-.11-.17-.13-.1-.13-.12-.13-.28s.02-.23.13-.42c.06-.1.11-.2.16-.29.15-.3.21-.38.26-.38.05,0,.09.05.09.11,0,.03,0,.07-.02.1-.03.07-.05.12-.05.14,0,.05.04.09.09.09.05,0,.13-.03.21-.07.03-.02.15-.06.34-.13l.4-.15c.07-.02.15-.04.24-.04.07,0,.15,0,.22.02.14.03.24.05.28.05.11,0,.21-.09.21-.2,0-.08-.08-.24-.19-.37-.04-.05-.06-.08-.06-.11v-.05s.05-.05.08-.05c.08,0,.27.2.44.47,1.04,1.64,1.42,2.04,2.12,2.25.71.22.9.38.9.81,0,.23-.12.5-.38.86-.53.74-.65,1.03-.65,1.52v.09c.06-.03.1-.05.13-.06.1-.05.16-.08.19-.08l.3-.06c.09-.02.17-.14.17-.25v-.03s-.04-.27-.04-.27v-.04c0-.09.04-.2.11-.26.02-.01.04-.03.06-.03.03,0,.07.03.1.08l.19.41c.08.17.17.25.42.36" fill="#fd0"/>
        <path d="M33.56,41.94c-.09,0-.13.08-.14.24l-.02.23c-.03.21-.03.24-.03.29,0,.17.05.3.12.3.08,0,.2-.15.26-.32.04-.1.06-.19.06-.28,0-.08-.02-.18-.06-.27-.04-.12-.11-.19-.18-.19" fill="#fd0"/>
        <path d="M32.56,40.18l.17.17c.28.28.41.73.41,1.39,0,.14,0,.24-.04.62-.01.2-.02.37-.02.5,0,1.5.49,2.64,1.13,2.64.2,0,.33-.1.53-.39.03-.05.08-.09.11-.09.04,0,.06.03.06.1l.02.27.03.23.02.25.04.23v.03c0,.07-.03.1-.08.11l-.22.04c-.11.02-.22.06-.34.13-.18.11-.29.19-.31.24l-.13.28s-.05.06-.08.06c-.07,0-.18-.12-.31-.34-.11-.18-.18-.33-.18-.4,0-.04.03-.05.11-.05h.18s.1,0,.1,0h.11s.07-.05.07-.1c0-.03-.02-.06-.05-.07l-.54-.23c-.17-.07-.31-.21-.41-.4-.15-.29-.22-.46-.22-.54,0-.08.04-.12.1-.12.02,0,.05,0,.08.03.05.03.12.05.15.05.05,0,.09-.04.09-.08,0-.03-.04-.09-.1-.13-.46-.33-.72-.71-.72-1.04,0-.09.02-.13.07-.13h.09s.16.03.16.03h0c.06,0,.1-.04.1-.09,0-.03-.04-.08-.1-.11-.11-.06-.17-.1-.19-.11-.07-.04-.12-.1-.17-.17-.02-.03-.09-.16-.2-.39l-.17-.33c-.06-.12-.1-.19-.11-.21-.01-.02-.03-.05-.07-.1.16-.08.24-.1.38-.1.17,0,.27.11.39.4.07.19.15.31.2.31.02,0,.03-.04.03-.14,0-.12-.02-.24-.05-.36-.03-.11-.04-.2-.04-.27l-.02-.17-.14-.07s-.07-.06-.11-.12c-.07-.11-.1-.19-.1-.28,0-.05.01-.14.04-.22.12-.46.16-.64.16-.79v-.1s.11.12.11.12Z" fill="#fd0"/>
        <path d="M34.01,48.9c-.17-.02-.25-.04-.35-.08-.03-.01-.1-.04-.23-.1-.19-.08-.34-.12-.46-.12-.18,0-.33.06-.5.21l.11.08.24.17.23.18c.06.05.13.07.2.07.24,0,.44-.11.77-.41" fill="#fd0"/>
        <path d="M38.67,51.1c.07-.15.1-.19.24-.31.34-.29.5-.51.5-.68v-.27c0-.15.03-.21.11-.21.04,0,.07.01.08.04l.06.14s.05.06.1.06.12-.05.18-.14l.12-.17c.06-.08.09-.16.09-.24,0-.05-.01-.09-.03-.14-.01-.02-.04-.09-.08-.19-.03-.06-.05-.15-.05-.19,0-.08.04-.13.11-.13.04,0,.07.01.09.04l.1.12s.06.04.09.04c.04,0,.1-.04.13-.1l.1-.19s.04-.09.04-.11c0-.04-.04-.08-.11-.11l-.16-.07c-.21-.1-.36-.43-.36-.78,0-.05,0-.09.03-.13l.08-.21c.03-.06.04-.12.04-.19,0-.13-.04-.25-.12-.38-.1-.15-.15-.23-.16-.26-.07-.19-.11-.24-.17-.24h-.06s-.08.06-.08.06l-.13.07-.16.19-.17.08c-.1.05-.2.27-.2.45,0,.31.04.4.45,1.12.16.28.25.51.25.69,0,.5-.44.85-1.34,1.06l-.56.13c-.41.1-.65.38-.74.86.17-.09.24-.1.54-.1h.18s.03,0,.03,0c.16,0,.18-.01.28-.16.12-.17.24-.27.4-.34l.19-.09.16-.09h.05s.07,0,.07.04c0,.05-.04.13-.12.2-.14.16-.19.29-.19.47,0,.12.03.18.13.32" fill="#fd0"/>
        <path d="M37.15,49.23c.14.09.28.21.36.33.11.16.13.17.25.17.05,0,.11,0,.18-.03l.11-.02c.2-.04.27-.07.27-.12,0-.03-.02-.07-.06-.1l-.13-.12-.13-.12c-.09-.08-.26-.14-.4-.14s-.23.03-.44.15" fill="#fd0"/>
        <path d="M41.07,49.88h.07s.11-.02.11-.02h.11s.05.02.05.02c.27,0,.53-.23.53-.47,0-.08-.08-.13-.21-.13-.33,0-.53.19-.66.61" fill="#fd0"/>
        <path d="M36.56,41.52c.01.11.07.21.13.21.05,0,.11-.13.24-.35.17-.29.33-.57.33-.73,0-.05-.02-.09-.06-.09h-.01s-.13.12-.13.12c-.1.09-.17.13-.41.22-.14.05-.19.11-.19.21l.02.1.06.17.02.15Z" fill="#1d1d1b"/>
        <path d="M35.82,40.89l.2.11c.06.03.09.07.09.12v.08c-.04.1-.02.22-.02.26-.01.22-.17.21-.24.21-.04,0-.02-.03-.11-.14l-.27-.3c-.08-.09-.15-.3-.18-.54v-.03c0-.07.02-.09.07-.09.03,0,.09.03.13.06l.33.26Z" fill="#1d1d1b"/>
        <path d="M36.29,42.16h-.21s-.05-.04-.15-.1c-.05-.03-.11-.05-.17-.05-.11,0-.18.06-.18.15,0,.1.05.27.16.54l.16.39c.14.34.27.48.45.48.16,0,.18-.16.29-.42.24-.61.38-.7.38-.91,0-.15-.03-.19-.17-.19l-.11-.03-.19.12h-.25Z" fill="#1d1d1b"/>
        <path d="M36.28,42.5h-.16s-.05.01-.06.04l-.02.06.06.29.05.25c.03.14.08.19.18.19.12,0,.19-.08.21-.23l.02-.27c.02-.18.02-.27.02-.28,0-.03-.01-.05-.04-.07-.02-.02-.04-.03-.06-.03h-.01s-.19.04-.19.04Z" fill="#fd0"/>
        <path d="M64.71,45.42l.05.18c.04.16.08.29.1.39.15.69.28.87.62.87.19,0,.35-.11.4-.27l.07-.24c.02-.06.06-.09.12-.09.13,0,.2.14.21.44,0,.11.03.31.07.59.03.2.05.39.05.56,0,.12-.01.19-.07.35l.02.15c.04.24.05.33.05.44,0,.52-.03.67-.15.87.05.2.06.29.06.43,0,.09-.01.22-.04.43l-.05.36v.22c.05.08.06.13.06.14,0,.03-.02.06-.05.06l-.24-.1-.27-.15c-.09-.05-.15-.09-.28-.22-.24.21-.27.23-.55.3-.4.11-.55.16-.63.22-.08.05-.14.08-.17.08-.09,0-.16-.18-.16-.45,0-.39.02-.59.08-.74-.24-.08-.36-.11-.44-.11-.03,0-.05,0-.18.02h-.05s-.06-.04-.06-.11c0-.12.08-.36.19-.55.15-.27.4-.49.59-.53l.44-.08c.26-.05.41-.19.41-.37s-.11-.29-.38-.38l-.51-.18c-.17-.06-.33-.14-.48-.23-.13-.08-.22-.13-.27-.16-.04-.02-.09-.04-.13-.04-.11,0-.17.08-.17.21,0,.21.16.37.35.37.04,0,.08,0,.12-.02.06-.02.09-.04.11-.04.06,0,.09.05.09.13,0,.22-.13.59-.28.77l-.15.18-.11.15c-.04.31-.35.76-.65.96-.07.05-.12.08-.13.1,0,.01-.04.07-.1.17-.03.05-.11.14-.24.29-.1.11-.2.2-.3.28-.13.1-.22.18-.24.22l-.12.21s-.06.06-.1.06c-.11,0-.21-.11-.27-.3-.04-.14-.08-.18-.18-.18-.05,0-.12.01-.21.04l-.17.02h-.43c-.23,0-.53.05-.68.12-.05.03-.1.04-.12.04-.06,0-.1-.06-.1-.18,0-.38.3-.97.68-1.34-.06-.22-.17-.37-.33-.41-.14-.04-.21-.06-.22-.06-.02-.01-.04-.03-.04-.06,0-.08.09-.15.28-.25.34-.16.44-.19.64-.19.22,0,.4.08.63.26.33.26.42.3.58.3.26,0,.51-.24.51-.48,0-.17-.09-.35-.32-.64-.32-.41-.44-.68-.44-1.03,0-.23.05-.36.25-.7.03-.05.05-.1.05-.13,0-.07-.11-.13-.23-.13-.13,0-.29.05-.51.15-.36.17-.58.32-.58.42,0,.04.02.08.06.1l.12.09s.03.03.03.05-.02.06-.05.09c-.02.03-.1.13-.24.32-.17.22-.33.39-.51.53-.06.05-.11.09-.12.12l-.1.18c-.08.15-.32.4-.52.54-.09.07-.15.11-.17.13-.03.03-.06.08-.11.17-.12.22-.32.49-.45.63l-.33.34c-.09.1-.23.38-.35.75-.1.29-.16.43-.21.43-.02,0-.05-.03-.09-.07-.24-.27-.45-.44-.55-.44-.03,0-.07.02-.14.06-.09.05-.2.1-.32.12l-.44.08c-.37.07-.51.15-.68.36-.04.05-.08.08-.1.08-.04,0-.07-.06-.07-.15v-.11s.04-.12.07-.33c.06-.34.15-.63.24-.79l.22-.38c.04-.07.06-.14.06-.2,0-.28-.26-.51-.65-.57-.08-.01-.12-.04-.12-.09,0-.06.1-.16.24-.28.26-.19.54-.32.74-.32.13,0,.31.05.55.15l.27.11c.1.04.19.06.27.06.28,0,.55-.26.89-.83.15-.26.22-.45.22-.62,0-.31-.14-.49-.38-.49-.19,0-.37.08-.51.23-.13.13-.2.27-.2.39v.12s.01.07.01.07c0,.1-.03.14-.11.14-.09,0-.2-.09-.41-.34-.09-.1-.2-.24-.34-.4-.37-.43-.44-.6-.46-1.04-.41-.52-.51-.81-.51-1.12l.02-.25c-.29-.35-.35-.49-.35-.84,0-.16,0-.2.07-.32-.15-.21-.19-.31-.23-.47l-.06-.26c-.04-.17-.11-.32-.19-.45-.11-.16-.12-.18-.12-.22,0-.13.12-.21.42-.28l.1-.02c-.02-.12-.02-.21-.02-.27,0-.07,0-.14.04-.29l.08-.45c.03-.17.05-.31.05-.4,0-.1-.02-.19-.07-.38-.04-.12-.08-.22-.12-.28-.05-.07-.07-.12-.07-.16,0-.04.04-.07.1-.07.03,0,.08.02.12.04.41.22.85.58,1.17.93.27.3.36.56.42,1.23.37.28.51.53.51.92,0,.23-.08.46-.24.72-.15.23-.23.35-.24.38-.07.12-.11.26-.11.41,0,.22.07.42.23.72.18.32.34.46.53.46.32,0,.61-.55.61-1.15v-.12s0-.33,0-.33l.04-.29.02-.35.02-.29v-.16c0-.12-.01-.15-.39-.55-.41-.44-.61-.81-.61-1.16,0-.33.28-.6.62-.6.07,0,.13.01.26.05v-.4s.08-.31.08-.31c.06-.25.08-.3.17-.3l.06.02.22.19.26.17.07.07c.02-.15.03-.18.16-.34.06-.08.12-.16.17-.23l.12-.18.07-.11c.05-.07.07-.09.1-.09.03,0,.06.04.09.18.02.05.05.11.11.16l.16.13c.13.11.21.27.26.5.1-.12.14-.16.24-.22l.19-.11c.07-.04.11-.06.13-.06.01,0,.03.03.05.07.03.06.06.12.1.18.15.25.17.29.17.46v.1s0,.15,0,.15c.39.11.55.32.55.75,0,.33-.15.66-.46,1.04-.21.25-.24.33-.24.51,0,.85.64,1.37,1.73,1.39h.8c.52.02.84.07,1.32.23.56.18.74.23.91.23.12,0,.22-.07.22-.15,0-.17-.29-.31-1.27-.59-1.99-.56-2.84-1.37-2.84-2.69,0-1.02.85-1.81,1.96-1.81.35,0,.89.09,1.2.21l.5.18c.09.03.18.05.26.05.17,0,.24-.11.26-.43.01-.14.06-.21.15-.21.13,0,.38.2.55.45.18.26.31.59.31.81,0,.26-.13.45-.42.62-.27.41-.61.6-1.05.6-.35,0-.93-.23-1.67-.66-.29-.17-.42-.22-.58-.22-.22,0-.36.12-.36.31,0,.18.13.28.49.41.57.21.7.27.86.47.62.11.88.21,1.27.51,1.1.35,1.72,1.04,1.72,1.91,0,.8-.54,1.37-1.29,1.37-.2,0-.3-.01-.59-.07" fill="#1d1d1b"/>
        <path d="M65.9,50.72c-.03-.11-.04-.16-.04-.22v-.16c.04-.23.05-.34.05-.47,0-.09-.03-.16-.09-.24l-.14-.19c-.1-.13-.13-.22-.13-.33,0-.07.02-.09.07-.09h.06s.04.04.11.07c.05.03.09.04.12.04.07,0,.11-.11.11-.34,0-.32-.06-.47-.24-.61l-.17-.13s-.05-.06-.05-.1c0-.06.03-.1.09-.1.03,0,.08,0,.14.03l.13.04h.05s.06-.02.06-.09v-.04s-.04-.25-.04-.25c-.04-.26-.08-.36-.16-.36h-.02s-.31.06-.31.06h-.05c-.38,0-.82-.35-.94-.75l-.23-.79c-.07-.23-.27-.49-.58-.74-.1-.08-.19-.12-.25-.13l-.22-.02s-.07-.03-.07-.06c0-.05.04-.07.13-.07.31,0,.63.06,1.07.2.4.13.61.18.81.18.61,0,.97-.32.97-.84,0-.26-.1-.59-.23-.8-.12-.18-.32-.37-.57-.53-.04-.03-.07-.04-.09-.04-.03,0-.06.03-.06.06v.16s.01.01.01.01c0,.06-.03.11-.08.11-.07,0-.14-.08-.21-.24-.22-.47-.58-.76-.95-.76-.08,0-.13.03-.13.08,0,.04.02.09.06.16.04.06.07.14.11.22.02.05.03.08.03.1,0,.02-.02.03-.06.03-.05,0-.14-.05-.2-.11-.12-.13-.18-.19-.18-.19l-.16-.24c-.12-.19-.26-.3-.48-.42l-.3-.16c-.06-.03-.11-.05-.15-.05-.04,0-.06.02-.06.06s.02.09.06.14c.06.09.11.2.11.24,0,.04-.03.07-.06.07-.09,0-.24-.15-.45-.45-.15-.21-.23-.44-.23-.68,0-.51.39-.91.9-.91.26,0,.58.11.9.3l.58.35c.21.13.49.22.66.22.1,0,.12,0,.34-.06.06-.02.11-.04.16-.06.03-.02.04-.04.04-.07,0-.05-.03-.07-.11-.07-.27-.02-.83-.24-1.2-.47-.21-.14-.35-.21-.4-.23-.1-.04-.17-.09-.17-.13,0-.02.02-.03.05-.03h.07s.53.21.53.21l.51.18c.25.09.64.17.81.17.23,0,.39-.16.39-.39,0-.12-.03-.25-.08-.34-.07-.14-.17-.27-.21-.27-.05,0-.07.05-.07.13v.06s.02.16.02.16c0,.16-.09.27-.23.27-.05,0-.12-.01-.2-.04l-.79-.25c-.68-.22-.95-.28-1.29-.28-.95,0-1.67.64-1.67,1.5,0,.96.66,1.57,2.36,2.16,1.65.57,1.86.7,1.86,1.14,0,.25-.23.45-.53.45-.11,0-.2,0-.28-.02-.07-.01-.35-.08-.82-.19-.51-.12-.93-.17-1.51-.17-1.2,0-1.78.18-2.4.76-.14.14-.2.16-.36.16h-.08s-.19-.02-.19-.02c-.14,0-.25.07-.34.22l-.19.33s-.08.07-.14.07c-.12,0-.19-.08-.31-.38-.06-.16-.14-.28-.24-.36l-.25-.22s-.06-.06-.06-.09.02-.07.06-.12c.04-.05.07-.11.11-.17.04-.07.06-.12.06-.15v-.11s.06-.06.1-.06c.08,0,.09.05.1.35,0,.08.03.19.1.33l.13.29s.06.06.11.06c.13,0,.29-.29.33-.61.03-.26.06-.34.11-.34.05,0,.07.03.18.24.03.07.08.13.15.18.06.05.11.08.14.08h.01c.1,0,.13-.06.16-.29v-.12s-.01-.17-.01-.17l-.02-.12c0-.08.03-.12.07-.12.03,0,.06.02.09.05l.12.12c.08.08.16.12.24.12.1,0,.17-.05.17-.12,0-.06-.01-.09-.12-.27-.01-.02-.04-.07-.08-.16-.11-.2-.16-.26-.25-.26h-.12s-.16.07-.16.07c-.05.02-.08.03-.1.03-.02,0-.04-.02-.04-.05,0-.11.07-.28.21-.49.08-.13.15-.46.2-.95l.06-.57c.04-.35.07-.47.14-.47.03,0,.05.01.05.03l.03.18v.15c0,.18.02.32.04.32.05,0,.13-.06.2-.16.05-.07.09-.15.12-.24.04-.13.06-.24.06-.32,0-.28-.12-.4-.5-.51-.04-.01-.06-.02-.07-.04v-.11s-.01-.2-.01-.2l-.03-.15-.05-.12-.06-.13-.1.06c-.25.16-.31.2-.39.3-.11.14-.15.17-.19.17-.03,0-.06-.02-.06-.05l.05-.21v-.03c0-.27-.15-.52-.41-.71l-.08.1-.08.12-.14.17c-.08.1-.14.23-.14.36v.04s0,.04,0,.04c0,.1-.01.13-.06.13h-.03s-.1-.13-.1-.13l-.12-.15-.22-.13-.11-.08c-.12.25-.12.28-.12.61v.1c0,.11-.04.18-.09.18-.03,0-.08-.02-.15-.06-.06-.03-.12-.05-.18-.05-.18,0-.31.15-.31.35,0,.22.05.37.19.62.1.16.22.28.28.28,0,0,.02-.11.04-.26l-.04-.21v-.09c0-.08.02-.13.06-.13.07,0,.11.08.15.28l.1.45.1.57c.03.15.08.32.15.48.09.23.16.37.2.42.13.17.15.2.15.23,0,.03-.02.06-.05.06-.03,0-.06-.01-.11-.04-.04-.02-.09-.04-.15-.05h-.09c-.2-.01-.24.15-.24.95,0,.5.1,1.17.23,1.49l.25.64c.04.1.06.2.06.3,0,.89-1.2,2.3-2.46,2.91-.49.23-.64.48-.68,1.15.21-.1.29-.13.42-.17.36-.1.43-.15.48-.32l.05-.16c.02-.07.07-.1.32-.23.09-.05.16-.1.19-.16.06-.1.11-.16.14-.16.04,0,.05.02.05.06v.02s-.14.35-.14.35v.08c-.01.25.13.47.39.6.02-.06.03-.11.04-.15.04-.18.08-.31.12-.36l.23-.34c.08-.12.1-.2.1-.52v-.38s-.02-.1-.02-.1c0-.06.03-.1.08-.1.04,0,.08.02.08.04l.04.23s.06.09.12.09c.12,0,.27-.15.43-.42.06-.11.09-.19.09-.29,0-.08-.02-.25-.04-.38v-.07c0-.06.03-.1.09-.1.03,0,.05,0,.06.02l.08.28c.03.09.09.16.16.16.19,0,.38-.38.4-.79.01-.26.04-.34.12-.34.03,0,.05.01.06.03l.05.16c.02.06.05.1.09.1.03,0,.09-.05.17-.14.04-.05.08-.1.11-.16.02-.04.03-.09.03-.13,0-.06-.01-.08-.11-.15-.09-.07-.13-.15-.13-.25,0-.18.07-.36.29-.74.2-.34.22-.38.27-.38.04,0,.08.04.08.1,0,.04,0,.07-.03.11-.03.07-.05.12-.05.15,0,.05.04.09.1.09.06,0,.13-.03.22-.07.05-.03.16-.07.33-.13.22-.08.36-.13.41-.15.08-.02.16-.04.25-.04.07,0,.14,0,.21.02.14.03.23.05.28.05.11,0,.19-.08.19-.19,0-.05-.03-.14-.07-.21-.06-.1-.1-.16-.11-.17-.05-.06-.07-.09-.07-.11v-.05s.05-.05.08-.05c.1,0,.28.2.45.47.95,1.55,1.41,2.04,2.11,2.25.73.22.9.37.9.81,0,.23-.12.51-.38.86-.48.67-.65,1.07-.65,1.51v.1c.06-.03.1-.05.13-.06.1-.05.16-.08.19-.08l.3-.06c.1-.02.17-.13.17-.25v-.02s-.03-.27-.03-.27v-.04c0-.15.07-.27.16-.27.03,0,.07.03.09.07l.19.41c.08.17.17.25.42.36" fill="#fd0"/>
        <path d="M55.98,42.41v.19s-.02.12-.02.12c0,.2.03.28.11.28.08,0,.21-.15.26-.32.03-.1.06-.24.06-.33,0-.06-.02-.11-.06-.23-.05-.13-.11-.19-.18-.19-.1,0-.15.13-.17.47" fill="#fd0"/>
        <path d="M55.15,40.18l.17.17c.25.25.42.75.42,1.24v.2s-.04.57-.04.57v.48c-.01,1.58.45,2.66,1.12,2.66.17,0,.38-.16.52-.39.03-.05.07-.09.1-.09.04,0,.06.03.06.1l.02.27.02.23c.01.11.02.19.04.25.02.12.04.2.04.24,0,.12-.03.14-.31.17-.11.01-.22.06-.34.13-.19.12-.3.2-.31.24l-.13.28s-.05.06-.08.06c-.07,0-.16-.11-.3-.34-.12-.21-.18-.34-.18-.39,0-.04.03-.06.11-.06h.17s.11,0,.11,0h.1s.07-.06.07-.1c0-.03-.02-.06-.05-.07l-.54-.23c-.13-.05-.27-.2-.4-.4-.14-.22-.22-.42-.22-.53,0-.09.04-.14.09-.14.02,0,.06,0,.09.03.06.03.12.05.14.05.02,0,.04,0,.06-.03.02-.02.04-.04.04-.06,0-.04-.04-.08-.1-.12-.45-.32-.73-.71-.73-1.03,0-.1.02-.14.07-.14h.09c.07.02.14.03.17.03.07,0,.11-.04.11-.09,0-.04-.05-.08-.11-.11-.3-.15-.38-.24-.57-.67-.15-.33-.22-.47-.35-.63.16-.08.24-.1.38-.1.17,0,.27.11.39.4.07.19.15.31.2.31.02,0,.03-.04.03-.14,0-.12-.02-.24-.05-.36-.03-.11-.04-.2-.04-.27l-.02-.17-.13-.07c-.12-.07-.21-.23-.21-.4,0-.08,0-.15.02-.22,0-.01.03-.11.07-.28.05-.2.08-.4.08-.51v-.1s.11.12.11.12Z" fill="#fd0"/>
        <path d="M56.6,48.9c-.26-.04-.29-.06-.58-.18-.2-.09-.33-.12-.46-.12-.19,0-.34.06-.51.21l.11.08.24.17.23.18c.06.05.13.07.2.07.24,0,.44-.11.76-.41" fill="#fd0"/>
        <path d="M61.26,51.1c.07-.15.1-.19.24-.31.34-.29.5-.51.5-.68v-.27c0-.15.03-.21.11-.21.04,0,.07.01.08.04l.06.14s.05.05.1.05c.09,0,.15-.06.3-.31.06-.1.09-.17.09-.24,0-.04,0-.09-.03-.14,0-.02-.04-.09-.08-.19-.03-.06-.05-.15-.05-.19,0-.08.04-.13.11-.13.04,0,.07.01.09.04l.09.12s.03.04.06.04c.04,0,.12-.04.15-.1l.1-.19s.04-.09.04-.11c0-.04-.04-.08-.1-.11l-.17-.07c-.2-.08-.36-.43-.36-.75,0-.04.01-.09.04-.16l.07-.21c.03-.07.04-.14.04-.2,0-.12-.04-.23-.12-.37-.08-.14-.13-.22-.15-.26-.07-.18-.11-.24-.17-.24-.04,0-.08.01-.15.06l-.12.07-.17.19-.17.08c-.1.05-.2.27-.2.45,0,.26.06.4.45,1.11.17.3.25.52.25.69,0,.49-.5.9-1.32,1.07-.98.2-1.19.36-1.31.99.17-.09.24-.1.54-.1h.18s.03,0,.03,0c.16,0,.18-.01.29-.16.12-.17.24-.27.4-.34l.19-.09.16-.09h.05s.07,0,.07.04c0,.04-.04.11-.12.2-.12.14-.18.29-.18.4,0,.16.03.24.12.39" fill="#fd0"/>
        <path d="M59.73,49.23c.14.09.28.21.36.33.12.16.13.17.25.17.05,0,.11,0,.18-.03l.11-.02c.21-.04.27-.07.27-.12,0-.03-.02-.07-.05-.09l-.15-.12-.13-.12c-.08-.07-.25-.13-.38-.13-.15,0-.27.04-.45.15" fill="#fd0"/>
        <path d="M63.65,49.88h.07s.12-.02.12-.02h.1s.07.02.07.02c.12,0,.19-.01.24-.05.08-.06.15-.15.23-.28.03-.05.05-.1.05-.14,0-.08-.07-.13-.21-.13-.33,0-.54.18-.66.61" fill="#fd0"/>
        <path d="M59.14,41.52c.01.11.07.21.13.21.05,0,.13-.17.26-.39.17-.29.31-.53.31-.69,0-.05-.03-.09-.06-.09h-.01s-.13.13-.13.13c-.08.07-.24.16-.4.22-.15.05-.2.1-.2.21l.02.1.1.21-.02.11Z" fill="#1d1d1b"/>
        <path d="M58.07,40.62s-.1-.06-.14-.06c-.05,0-.07.03-.07.09v.03c.01.07.03.13.05.2.06.19.13.31.16.34l.18.31c.08.1.21.15.26.17h0s.06-.02.06-.05l.04-.24.06-.22v-.05c0-.06-.03-.11-.08-.14l-.21-.11-.33-.27Z" fill="#1d1d1b"/>
        <path d="M58.87,42.16h-.21s-.05-.04-.15-.1c-.05-.03-.11-.05-.17-.05-.11,0-.18.07-.18.18,0,.09.06.27.15.51.04.1.1.23.16.39.13.34.27.48.45.48.16,0,.28-.13.38-.39l.13-.55c.06-.17.22-.24.22-.36,0-.14-.16-.27-.29-.27h-.07s-.18.14-.18.14h-.27Z" fill="#1d1d1b"/>
        <path d="M58.86,42.5h-.15s-.04.01-.06.04c-.02.03-.04.06-.04.06l.06.29.05.25c.03.14.05.19.15.19.12,0,.22-.08.23-.23l.03-.27c.02-.18.02-.27.02-.28,0-.03-.01-.05-.03-.07-.02-.02-.04-.03-.06-.03h-.01s-.19.04-.19.04Z" fill="#fd0"/>
        <path d="M42.35,68.26c.11.27.14.4.16.57l.02.51c.02.51.19.76.51.76.12,0,.21-.03.27-.09l.13-.13h.05c.08-.01.13.04.13.14v.2c-.02.09,0,.28.03.56.02.16.04.33.04.49,0,.26-.02.36-.11.59.08.24.13.51.13.73,0,.26-.04.44-.15.59.05.21.06.29.06.41s-.02.27-.05.46c-.04.25-.06.45-.05.58v.03c0,.08-.02.11-.07.11s-.1-.04-.15-.1c-.07-.1-.12-.13-.18-.13-.08,0-.11.04-.23.41-.04.11-.14.26-.29.45-.12.14-.19.26-.22.35-.04.15-.06.23-.07.26-.01.03-.04.06-.07.06h-.01c-.2,0-.43-.43-.66-1.23-.07-.23-.15-.33-.27-.33-.09,0-.18.06-.21.14l-.07.17s-.04.05-.06.05c-.1,0-.24-.18-.33-.4-.08-.18-.12-.39-.12-.56,0-.38.28-.66,1.12-1.14.37-.21.51-.47.51-.94,0-.38-.11-.59-.44-.84-.25-.19-.4-.27-.54-.27-.11,0-.21.08-.21.17,0,.11.07.18.23.24.18.07.27.13.27.22,0,.08-.08.24-.21.44-.14.21-.2.27-.39.4-.06.33-.21.55-.58.79-.07.21-.11.28-.24.45l-.25.33c-.08.1-.17.29-.18.38-.03.18-.04.22-.11.22-.1,0-.29-.17-.49-.42-.12-.15-.15-.22-.16-.4-.13.1-.17.11-.41.14-.15.02-.26.05-.33.09-.19.1-.25.12-.28.12-.05,0-.07-.03-.07-.11v-.27c-.01-.36.13-.79.35-1.08-.21-.18-.42-.3-.59-.32-.07,0-.09-.02-.09-.04,0-.04.05-.14.11-.22.09-.11.16-.19.22-.24.17-.15.47-.26.7-.26.16,0,.39.06.69.17.11.04.21.06.29.06.13,0,.21-.09.21-.24,0-.22-.11-.56-.35-1.12-.17-.37-.24-.62-.24-.8,0-.42.2-.85.44-.98-.12-.06-.17-.07-.27-.07-.12,0-.22.03-.37.12-.18.1-.28.2-.28.26,0,.02.04.06.1.1.09.07.11.09.11.18,0,.3-.25.7-.59.96-.08.42-.27.68-.65.86-.05.23-.08.3-.27.56-.32.44-.39.58-.45.83-.03.13-.06.18-.1.18-.05,0-.16-.08-.28-.21-.1-.11-.17-.19-.19-.23-.05-.08-.08-.16-.13-.39-.09.02-.11.03-.17.03h-.18s-.12,0-.12,0c-.26,0-.55.06-.69.15-.05.03-.09.05-.1.05-.08,0-.14-.16-.14-.37,0-.44.12-.8.4-1.19-.1-.09-.14-.12-.23-.22-.04-.04-.07-.07-.1-.08l-.13-.07s-.07-.05-.07-.08c0-.06.18-.23.39-.37.23-.15.42-.22.59-.22.2,0,.3.05.55.27.17.15.29.22.37.22.06,0,.12-.04.17-.11.04-.06.06-.12.06-.18,0-.23-.28-.62-.58-.82-.23-.15-.48-.23-.72-.23-.34,0-.63.17-.76.44l-.13.28c-.03.07-.07.1-.11.1-.08,0-.12-.03-.39-.35l-.31-.36c-.1-.11-.16-.22-.19-.31-.03-.09-.05-.14-.06-.16-.01-.02-.05-.05-.12-.1-.24-.17-.42-.51-.52-1,0-.03-.02-.09-.04-.16-.3-.36-.47-.81-.47-1.2,0-.05,0-.08.03-.17-.17-.17-.19-.21-.33-.68-.1-.33-.16-.47-.28-.63-.03-.04-.05-.08-.05-.09,0-.07.1-.12.28-.15.17-.03.18-.03.24-.03l.24.02v-.33c-.01-.19,0-.32.05-.55.02-.12.04-.2.04-.25,0-.02,0-.09-.03-.21-.01-.09-.02-.15-.04-.18-.02-.05-.03-.08-.03-.1,0-.04.03-.06.07-.06.03,0,.08.02.16.05.21.1.38.21.52.32.42.33.74.83.74,1.14v.09c-.02.11-.03.17-.03.18,0,.05.03.12.08.2l.13.18c.12.16.19.35.19.47,0,.11-.02.16-.22.45-.15.21-.21.37-.21.54,0,.22.09.49.24.77.14.25.31.39.46.39.27,0,.39-.24.43-.89.02-.34.06-.64.1-.92v-.16c.01-.08-.01-.12-.11-.24l-.36-.42c-.35-.4-.45-.61-.45-.9,0-.33.22-.56.53-.56h.15s0-.08,0-.08c0-.08.02-.19.06-.33.08-.26.17-.46.22-.46.02,0,.06.02.12.06.02.01.09.04.22.08.07.02.11.05.24.12.06-.21.1-.3.19-.42.16-.2.33-.36.4-.36.04,0,.11.05.2.15l.23.24s.08.12.13.23l.05.11c.06-.04.11-.07.15-.08.09-.06.16-.09.19-.11.15-.07.22-.11.23-.11.06-.04.1-.06.12-.06.04,0,.06.07.15.47.06.27.07.33.08.53.39.05.57.27.57.69,0,.39-.19.78-.6,1.22-.11.12-.14.18-.14.29,0,1.07.37,1.41,1.71,1.55.82.09,1.07.14,2.06.44.52.16.82.22,1.01.22.23,0,.36-.08.36-.23,0-.23-.16-.3-1.13-.5-2.24-.47-3.12-1.24-3.12-2.72,0-1.06.79-1.85,1.84-1.85.46,0,.88.14,1.53.52.61.35.74.41.87.41.16,0,.23-.1.23-.37,0-.17.05-.25.16-.25.1,0,.24.1.38.26.2.24.28.36.28.69,0,.44-.23.72-.69.85-.05.05-.08.09-.11.12-.25.28-.47.38-.86.38-.35,0-.78-.14-1.07-.35l-.58-.41c-.25-.18-.43-.25-.61-.25-.25,0-.4.15-.4.4s.16.44.42.52l.55.17c.19.06.28.1.52.22.13-.02.2-.03.27-.03.34,0,.7.09,1.02.26.1.05.17.08.22.1l.3.09c.69.19,1.25.96,1.25,1.71,0,.86-.56,1.39-1.45,1.39h-.28Z" fill="#1d1d1b"/>
        <path d="M42.15,75.45l.07-.15.17-.18c.14-.15.22-.37.22-.62,0-.12-.02-.26-.06-.39-.03-.1-.05-.18-.05-.21,0-.08.06-.15.12-.15.02,0,.06.02.09.06l.18.21c.11.13.15.15.29.18v-.17s.02-.2.02-.2c0-.29-.11-.61-.27-.82-.1-.12-.14-.2-.14-.24s.03-.09.07-.09c.01,0,.03,0,.05.02.12.09.18.12.21.12.06,0,.11-.15.11-.31,0-.23-.1-.49-.25-.68-.08-.09-.13-.15-.15-.18-.02-.02-.02-.05-.02-.07,0-.05.04-.09.11-.09.04,0,.07.01.15.06.04.02.07.04.09.04.09,0,.13-.13.13-.49v-.15s-.02-.22-.02-.22c-.01-.26-.04-.3-.15-.3h-.1c-.59,0-.87-.37-1.02-1.38-.11-.73-.38-1.24-.71-1.36-.2-.07-.27-.11-.27-.16,0-.03.05-.07.11-.07.04,0,.15.03.23.06.48.2.89.29,1.24.29.58,0,1.04-.43,1.04-.97,0-.41-.2-.83-.55-1.17-.1-.09-.2-.16-.3-.18h-.02s-.06.02-.06.02l.02.18.05.12v.05s-.01.05-.04.05c-.03,0-.07-.02-.09-.05l-.22-.33c-.17-.26-.55-.47-.83-.47-.1,0-.16.04-.16.11,0,.03.03.1.07.14.06.07.11.15.11.19v.05s-.04.05-.06.05h-.01c-.06,0-.09-.03-.35-.33-.22-.25-.66-.49-.89-.49-.03,0-.06.02-.09.04-.01.02-.02.03-.02.05,0,.04.03.09.08.14.08.07.14.15.14.19,0,.02-.03.04-.07.04-.07,0-.23-.1-.51-.33-.45-.35-.65-.69-.65-1.08,0-.47.33-.84.76-.84.25,0,.58.12.81.29l.59.45c.27.21.6.32.95.32.07,0,.15-.02.21-.05.05-.03.08-.06.08-.08,0-.02-.04-.04-.11-.05-.21-.05-.39-.12-.51-.22l-.61-.46c-.22-.17-.38-.28-.47-.33-.32-.17-.38-.21-.38-.24,0-.02.03-.03.07-.03.03,0,.07,0,.11.02l.32.13c.1.04.27.14.51.3.65.43.98.57,1.36.57s.63-.26.63-.61c0-.07-.02-.15-.05-.21l-.06-.12s-.06-.08-.07-.06l-.04.05-.04.26s-.01.04-.04.09c-.02.05-.05.09-.08.12-.07.07-.12.09-.22.09-.19,0-.4-.1-.96-.46-.57-.36-1.09-.56-1.5-.56-.87,0-1.57.7-1.57,1.57,0,1.21.74,1.76,3.06,2.26.88.19,1.27.45,1.27.84,0,.36-.29.58-.75.58-.14,0-.25,0-.33-.02-.08-.02-.49-.13-1.25-.34-.52-.14-1.1-.22-1.62-.22-.91,0-1.52.27-1.94.85-.05.07-.1.11-.13.11-.02,0-.06-.02-.1-.05l-.17-.13c-.12-.09-.31-.17-.43-.17-.09,0-.18.04-.26.11-.06.05-.1.08-.12.08-.07,0-.19-.15-.29-.35-.14-.28-.21-.57-.21-.82,0-.12.04-.21.09-.21.04,0,.07.03.09.1l.1.35c.05.2.16.35.25.35.04,0,.1-.05.18-.14.05-.05.08-.11.1-.17.07-.22.09-.25.15-.25.07,0,.11.04.15.27,0,.04.02.1.08.21.05.09.1.17.15.22.03.04.08.06.12.06.11,0,.21-.18.21-.37v-.05s-.02-.22-.02-.22c0-.09.01-.11.06-.11.03,0,.05.02.08.06.05.07.12.12.21.17.07.04.13.06.17.06.03,0,.08-.02.12-.06.03-.03.05-.07.05-.1,0-.04-.04-.09-.17-.22-.07-.07-.15-.24-.24-.48-.03-.09-.08-.16-.11-.16,0,0-.04,0-.08.03l-.16.06-.11.05h-.04c-.05,0-.09-.03-.09-.08s.11-.18.24-.29c.1-.08.15-.2.16-.33,0-.2.04-.36.08-.36l.04-.42c.02-.21.1-.61.18-.83.01-.04.03-.07.05-.07.03,0,.07.09.07.19v.06s-.01.12-.01.12c0,.15.03.23.07.23.05,0,.11-.08.17-.21l.11-.28c.03-.08.05-.16.05-.23,0-.24-.14-.41-.34-.41l-.09.02s-.08.02-.09.02c-.06,0-.12-.07-.12-.15v-.17s0-.24,0-.24l-.05-.25v-.12s-.12.06-.12.06l-.13.11-.19.16-.16.13s-.06.04-.09.04c-.09,0-.1-.02-.1-.21v-.05c0-.15-.07-.27-.31-.56-.01-.02-.03-.04-.06-.07l-.05.09-.13.22-.13.34-.03.22c0,.06-.03.11-.05.11s-.07-.03-.11-.09c-.19-.21-.24-.25-.52-.35l-.02.09c-.04.14-.07.23-.07.26v.23s-.01.1-.01.1v.08c0,.07-.02.11-.06.11h0s-.03-.02-.07-.06c-.03-.03-.08-.04-.15-.04-.22,0-.37.12-.37.32,0,.15.05.25.27.59.1.15.21.27.26.27.03,0,.05-.08.05-.17l-.02-.15c-.02-.07-.03-.13-.03-.18,0-.07.02-.1.06-.1.11,0,.22.31.27.75l.05.45c.02.16.07.32.15.48.11.23.22.38.31.45.12.08.19.16.19.21,0,.04-.03.07-.06.07,0,0-.09-.03-.24-.09h-.1c-.24-.01-.32.12-.32.54,0,.5.34,1.23.72,1.53l.56.45c.28.23.5.6.5.87,0,.35-.39.7-1.05.94l-.4.14c-.31.11-.43.31-.56.9.16-.05.23-.06.33-.06h.05s.18,0,.18,0c.16,0,.28-.1.28-.23v-.11s.04-.08.11-.11c.11-.05.17-.08.17-.08l.13-.11s.05-.03.07-.03c.04,0,.07.03.07.07,0,.03,0,.07-.03.11-.04.11-.06.25-.06.42,0,.3.05.46.2.67.01-.08.03-.13.04-.16.03-.06.09-.17.21-.33.18-.26.32-.57.32-.74v-.05s-.04-.28-.04-.28c0-.05.02-.1.06-.13.03-.02.06-.04.08-.04.05,0,.08.03.12.12.03.07.06.11.09.11.04,0,.13-.11.18-.24.04-.1.06-.18.06-.26,0-.04-.01-.1-.04-.16-.02-.06-.04-.11-.04-.14s0-.05.05-.08c.02-.02.04-.03.06-.03.02,0,.05.01.07.03l.11.07s.07.04.1.04c.05,0,.12-.05.17-.14.1-.16.17-.29.17-.34,0-.03-.02-.05-.09-.1-.24-.17-.4-.43-.4-.65,0-.05.01-.11.04-.17l.12-.33c.06-.16.09-.25.1-.26h.04s.07.02.07.08c0,.04,0,.09-.03.14-.03.08-.05.18-.05.23,0,.09.04.13.13.13.06,0,.13-.02.2-.05.37-.16.65-.24.83-.24.16,0,.27.04.44.16.05.03.08.05.11.05.02,0,.05-.02.07-.05.01-.02.02-.04.02-.06,0-.04-.03-.1-.07-.16-.06-.08-.09-.12-.09-.17,0-.04.02-.06.06-.06.19,0,.49.6.77,1.55.22.75.28.83,1,1.23.61.34.84.68.84,1.24s-.15,1.24-.46,2.15c-.1.29-.14.48-.14.64,0,.13.03.25.12.58.04.15.07.25.08.28.01.04.05.1.1.18" fill="#fd0"/>
        <path d="M39.34,73.76c.07-.17.09-.21.23-.41.2-.3.27-.45.27-.59v-.2c0-.18.03-.27.1-.27.03,0,.05.01.06.04l.06.1s.05.05.08.05c.04,0,.1-.05.14-.1.09-.13.14-.3.14-.43v-.13s-.02-.14-.02-.14c0-.07.03-.1.1-.1.05,0,.07.02.11.11.03.06.06.1.09.1.03,0,.07-.03.1-.07l.1-.14.07-.11.02-.06s-.03-.07-.09-.11c-.22-.16-.32-.41-.34-.86-.01-.34-.03-.56-.06-.67,0-.02-.08-.2-.22-.52-.05-.13-.1-.27-.15-.44-.03-.11-.06-.15-.15-.15-.33,0-.58.28-.58.65,0,.22.09.56.26.98.23.59.29.8.29,1,0,.45-.18.64-.79.86-.69.25-1.02.61-1.14,1.25.05-.02.09-.04.12-.05.08-.03.13-.05.17-.06l.19-.05c.17-.04.3-.13.33-.23l.05-.17s.04-.07.07-.09l.11-.05.11-.05.02.05-.05.16c-.02.05-.02.15-.02.28,0,.27.05.42.21.61" fill="#fd0"/>
        <path d="M32.84,62.56c.02.07.02.11.02.14,0,.04-.02.14-.05.31l-.02.25c0,.22.04.45.11.64.06.17.08.23.08.28v.05s-.03.09-.05.09c-.02,0-.07-.03-.12-.08-.14-.12-.29-.18-.45-.18-.05,0-.12,0-.21.02l.06.13.18.45.26.39.26.18s.05.04.07.07c.02.03.04.06.04.08,0,.02-.02.04-.05.04h-.24s-.07.04-.07.06c0,.04.04.16.1.36l.12.35.21.19.22.16c.06.05.1.1.1.14,0,.03-.02.07-.04.07h-.12s-.06.05-.06.11c0,.09.08.25.24.47.19.26.32.34.53.34h.18c.09,0,.14.04.14.11,0,.06-.04.09-.12.11-.17.04-.22.07-.22.15,0,.03.02.08.06.13l.1.13c.08.11.17.18.23.18.03,0,.11-.03.18-.11.11-.12.23-.23.39-.27.42-.11.51-.15.51-.25,0-.03-.02-.08-.05-.14-.13-.24-.18-.39-.18-.59,0-.15-.04-.26-.09-.26-.02,0-.06.04-.1.1-.1.15-.27.26-.42.26-.42,0-.92-.66-1.17-1.53-.06-.2-.09-.43-.09-.65s.03-.48.09-.74c.08-.35.12-.55.13-.59v-.16c.01-.3-.26-.69-.69-.99" fill="#fd0"/>
        <path d="M33.71,64.25c-.09.17-.17.55-.17.79,0,.14.05.25.11.25.02,0,.04-.02.07-.06l.13-.24s.04-.08.09-.15c.05-.07.08-.14.08-.18,0-.14-.13-.32-.3-.41" fill="#fd0"/>
        <path d="M35.04,69.71s.05.05.06.06c.05.05.09.08.1.1.24.24.27.27.39.27.1,0,.32-.06.45-.12.05-.03.08-.06.08-.08,0-.02-.04-.07-.12-.13l-.13-.12c-.1-.09-.25-.18-.32-.18-.14,0-.28.06-.5.21" fill="#fd0"/>
        <path d="M37.85,71.9c.13.05.17.08.24.12.11.07.17.11.19.12.04.02.1.02.19.02.06,0,.11,0,.15-.02l.26-.1.24-.08c.06-.02.11-.06.11-.09,0-.02-.06-.04-.13-.06-.05-.01-.12-.03-.18-.06-.3-.12-.34-.14-.45-.14-.24,0-.48.11-.62.29" fill="#fd0"/>
        <path d="M40.91,74.33c.08-.19.14-.23.41-.24.31-.02.61-.57.61-.95,0-.04-.01-.07-.03-.07-.01,0-.04.01-.08.04-.09.06-.15.09-.18.11l-.35.16c-.24.1-.44.42-.44.66,0,.08.02.15.07.29" fill="#fd0"/>
        <path d="M35.69,63.81l.12.17s.24.19.26.19c.04,0,.06-.03.08-.1l.05-.18v-.2c.01-.16-.06-.22-.39-.31-.08-.02-.12-.02-.17-.06-.05-.04-.12-.07-.14-.07s-.05.01-.05.03v.05s.07.18.07.18l.17.3Z" fill="#1d1d1b"/>
        <path d="M36.98,63.81l-.16.28s-.06.07-.06.07h-.01c-.06,0-.13-.14-.13-.3l-.02-.24c.02-.1.08-.14.23-.17.12-.02.21-.04.24-.07.11-.08.18-.13.19-.13h.02s.06.02.06.06v.02s-.09.21-.09.21l-.27.29Z" fill="#1d1d1b"/>
        <path d="M36.67,64.63l.19-.1s.07-.03.09-.03c.09,0,.16.07.16.2,0,.14-.11.32-.26.59-.16.29-.28.48-.4.48-.17,0-.42-.28-.66-.74-.06-.11-.09-.24-.09-.34,0-.15.07-.23.19-.23.05,0,.1.01.14.04l.11.07c.09.06.2.1.31.1.08,0,.15-.02.21-.05" fill="#1d1d1b"/>
        <path d="M36.39,64.92l-.13-.02h-.02c-.08,0-.11.04-.11.13,0,.12.09.35.22.52.02.03.06.05.09.05.08,0,.13-.15.17-.39l.04-.18v-.04c0-.08-.02-.1-.08-.1h-.03" fill="#fd0"/>
        <path d="M63.41,68.08c.21.28.51.46.75.46.08,0,.21-.02.33-.05.07-.02.12-.02.16-.02.06,0,.08.02.08.08,0,.04-.03.14-.06.23-.04.09-.06.16-.07.22l-.05.25-.12.22-.17.16-.05.05v.16c0,.3-.09.46-.33.62-.02.01-.05.03-.08.06l-.02.1c-.05.22-.09.37-.12.42-.03.06-.11.18-.23.34-.15.19-.24.35-.3.5-.05.12-.09.16-.17.16-.12,0-.24-.15-.26-.33-.03.04-.05.06-.06.07l-.14.1-.23.16c-.1.07-.17.12-.19.15l-.13.13s-.05.04-.07.04c-.06,0-.12-.1-.18-.3l-.12-.4c-.03-.11-.05-.24-.05-.39,0-.2.01-.27.08-.43-.24.03-.31.04-.44.09-.04.01-.08.02-.1.02-.04,0-.06-.03-.06-.07,0-.03.02-.11.05-.18l.16-.41c.12-.32.51-.61.83-.61.07,0,.18.02.31.07.08.03.14.04.18.04.14,0,.25-.1.25-.23,0-.06-.04-.13-.1-.16-.02-.01-.17-.06-.43-.13-.2-.06-.31-.14-.53-.4-.17-.19-.23-.25-.29-.25-.05,0-.07.03-.07.09v.16s.02.08.02.08c0,.34-.1.66-.34,1.1l-.34.62c-.16.29-.23.52-.23.74,0,.24.11.46.24.5l.18.05s.04.02.06.04c.02.02.04.05.04.07,0,.03-.02.07-.06.11-.02.02-.09.12-.22.28-.21.27-.34.37-.59.45-.15.36-.39.56-.81.7l-.05.08c-.14.26-.46.48-.67.48h-.05c-.03.22-.19.45-.42.62-.16.11-.26.18-.28.2-.01.02-.04.05-.06.11-.05.12-.1.17-.17.17-.13,0-.24-.12-.31-.35-.05.03-.08.05-.11.07-.14.1-.21.15-.23.16-.06.03-.2.07-.42.12-.3.07-.55.2-.62.3l-.11.18-.05.02c-.06,0-.13-.08-.16-.19-.07-.25-.11-.51-.11-.68,0-.43.14-.71.58-1.15v-.1c0-.67.51-1.12,1.26-1.12h.12s.41.03.41.03h.04c.22,0,.43-.08.65-.27.3-.24.38-.39.38-.66,0-.09-.02-.18-.12-.49-.06-.2-.09-.39-.09-.57,0-.5.37-1.12.86-1.46.13-.09.22-.21.22-.27,0-.03-.01-.05-.03-.05-.03,0-.09.03-.15.09-.06.05-.16.12-.29.18l-.19.1-.22.08c-.07.03-.1.06-.1.11,0,.03.01.07.03.11.01.04.02.07.02.09,0,.03-.02.08-.06.14l-.17.28c-.17.27-.29.39-.5.48-.14.4-.33.6-.62.64-.23.46-.43.62-.84.67-.06.18-.15.32-.36.56-.09.09-.14.16-.16.19-.1.17-.1.18-.15.18-.06,0-.18-.08-.28-.18-.04-.05-.08-.09-.11-.15l-.11-.19c-.03-.06-.07-.09-.12-.09h-.08s-.27.04-.27.04c-.17.02-.4.16-.48.28l-.14.22s-.04.03-.06.03c-.11,0-.17-.24-.17-.63,0-.35.05-.58.17-.74l.34-.47c.05-.07.07-.13.07-.18s-.02-.11-.06-.16c-.07-.09-.14-.14-.19-.15l-.26-.03s-.06-.02-.06-.04c0-.02.01-.05.04-.08.08-.11.19-.2.3-.27.3-.18.5-.26.7-.26s.43.07.63.21l.35.23s.11.05.17.05c.16,0,.29-.1.4-.32.11-.21.16-.38.16-.56,0-.45-.32-.78-.78-.78-.21,0-.42.08-.63.24-.06.05-.1.09-.12.13l-.1.22c-.02.05-.06.08-.09.08-.06,0-.2-.17-.31-.4-.06-.12-.12-.26-.17-.44-.07-.24-.1-.41-.1-.6l.02-.33c-.16-.26-.22-.44-.22-.75,0-.11.02-.2.09-.43-.1-.17-.13-.29-.13-.54v-.15s.05-.17.05-.17l.02-.14c-.12-.15-.15-.26-.27-.79-.06-.3-.1-.43-.16-.51-.02-.03-.04-.06-.04-.07,0-.07.17-.13.36-.13h.17c-.04-.1-.05-.14-.05-.23,0-.15.03-.32.09-.48.06-.18.08-.24.08-.3,0-.14-.02-.29-.05-.37l-.1-.24c-.02-.05-.03-.09-.03-.12,0-.02.02-.03.06-.03.24,0,.69.26,1.05.59.35.34.47.6.47,1.1l-.02.26c.33.29.47.53.47.79,0,.19-.06.32-.24.5-.33.32-.4.49-.4.91,0,.64.19.99.55.99.31,0,.55-.34.59-.83l.04-.46c.01-.12.03-.26.06-.43.02-.11.04-.26.04-.32,0-.16-.11-.37-.42-.74-.34-.4-.45-.61-.45-.92,0-.37.26-.64.61-.64.09,0,.13.01.23.07,0-.21.02-.25.13-.54.1-.23.19-.4.24-.4.01,0,.04.02.07.05.05.05.11.1.16.13.07.05.11.08.12.09.03.02.06.06.11.11.07-.27.15-.4.38-.62.17-.17.23-.22.26-.22.03,0,.06.02.09.06l.14.19.21.23c.08.09.11.16.15.38l.12-.07.19-.11s.08-.05.15-.1c.03-.02.06-.04.08-.04.02,0,.04.03.06.09l.07.28.16.32c.05.09.06.17.06.31v.08s.08,0,.08,0c.24,0,.44.28.44.61,0,.43-.34.99-.79,1.28-.04.14-.05.2-.05.32,0,.96.25,1.16,1.73,1.39.37.06.7.12.99.2.05.01.37.12.96.32.33.11.55.16.72.16.18,0,.28-.05.28-.15,0-.17-.24-.31-.98-.6l-1.05-.41c-1.07-.42-1.58-1.07-1.58-2.03,0-1.12.84-1.96,1.96-1.96.42,0,.83.09,1.43.3.76.28.8.29.89.29.15,0,.23-.1.25-.31.02-.18.07-.26.17-.26.15,0,.31.14.43.36.1.2.16.43.16.63,0,.4-.21.66-.59.74-.26.33-.58.5-.98.5-.48,0-.72-.1-1.54-.61-.29-.18-.42-.23-.64-.23-.29,0-.5.18-.5.42,0,.22.18.37.58.47.24.06.27.08.4.21.1-.02.14-.03.2-.03.39,0,.88.21,1.29.56.75.23,1.41,1.04,1.41,1.71,0,.75-.65,1.41-1.37,1.41-.19,0-.58-.06-.93-.15" fill="#1d1d1b"/>
        <path d="M62.98,71.44l.05-.13.05-.17s.05-.1.13-.2c.12-.16.18-.36.18-.6,0-.08-.02-.14-.06-.23-.02-.05-.04-.08-.04-.11,0-.02.01-.04.03-.06.01-.02.03-.03.05-.04h0s.08.03.12.08c.05.06.1.1.12.1.06,0,.11-.09.14-.23.02-.07.02-.11.02-.12,0-.06-.05-.21-.11-.34-.02-.05-.03-.09-.03-.12,0-.04.03-.08.07-.08.04,0,.09.04.16.1.03.03.07.05.09.05.08,0,.13-.08.19-.27.04-.12.05-.17.05-.19,0-.04-.02-.06-.04-.06h-.04s-.14.02-.14.02c-.22,0-.53-.15-.68-.33l-.34-.41c-.13-.16-.31-.4-.3-.4l-.28-.18s-.07-.07-.07-.1c0-.04.04-.08.11-.08.06,0,.26.07.62.22.35.15.9.27,1.23.27.58,0,1.06-.47,1.06-1.04,0-.31-.14-.6-.48-1-.06-.08-.17-.15-.22-.15-.04,0-.07.03-.07.07,0,.03.01.08.04.14.02.04.02.08.02.11,0,.06-.02.09-.06.09-.08,0-.15-.12-.22-.34-.08-.27-.24-.43-.61-.62-.14-.07-.32-.14-.38-.14-.02,0-.04.02-.04.05,0,.05.02.1.05.14.05.08.09.16.1.23h0c0,.06-.02.08-.07.08-.08,0-.1-.02-.27-.29-.09-.14-.33-.32-.54-.41-.07-.03-.14-.04-.21-.05h0s-.08.02-.08.05c0,0,.02.05.05.11l.02.07s-.03.07-.06.07c-.07,0-.3-.18-.47-.39-.19-.22-.32-.5-.32-.72,0-.46.44-.87.94-.87.12,0,.23.02.31.06l.42.22.5.33c.29.19.68.33.91.33.09,0,.15-.01.38-.08.12-.03.19-.08.19-.12h0s-.04-.03-.04-.03l-.27-.02c-.15-.01-.48-.17-.75-.34l-.56-.36-.5-.21s-.06-.04-.06-.06.03-.05.06-.05c0,0,.05.01.14.03l.46.13c.12.03.3.12.56.25.5.27.83.39,1.07.39.28,0,.49-.19.49-.45,0-.09-.02-.23-.05-.35-.01-.06-.04-.11-.07-.16-.02-.03-.04-.05-.06-.05-.03,0-.06.04-.06.1v.08s.01.07.01.07c0,.22-.09.3-.33.3-.2,0-.47-.08-1.09-.33-.58-.23-.94-.32-1.3-.32-.91,0-1.71.74-1.71,1.59,0,.73.49,1.29,1.48,1.7l1.03.42c.85.35,1.16.6,1.16.93,0,.28-.26.45-.66.45-.17,0-.39-.05-.78-.18-.96-.31-1.59-.43-2.14-.43-.9,0-1.54.25-2.05.78-.07.07-.11.09-.17.09-.04,0-.08-.02-.17-.07-.09-.05-.19-.09-.26-.09-.09,0-.23.08-.29.16l-.12.16s-.07.07-.11.07c-.09,0-.24-.15-.34-.33-.06-.11-.1-.21-.12-.32-.01-.08-.03-.2-.03-.33v-.22s.05-.24.05-.24c.02-.12.03-.19.04-.21,0-.03.03-.05.06-.05.06,0,.09.06.09.19v.08s0,.05,0,.05c0,.34.14.66.29.66.12,0,.22-.21.31-.63.02-.08.05-.13.09-.13.05,0,.08.06.11.24.02.12.1.28.18.39.05.06.1.1.14.1.1,0,.16-.15.21-.5.02-.14.06-.22.11-.22.02,0,.04.01.05.03,0,.01.04.05.08.13.03.05.08.09.13.12.06.03.11.05.14.05.04,0,.08-.02.11-.05.05-.05.08-.08.08-.1,0-.02-.03-.06-.07-.11-.08-.08-.14-.2-.22-.4-.05-.13-.09-.22-.11-.28-.02-.04-.04-.07-.06-.08h-.04s-.07,0-.07,0c-.01,0-.1.03-.25.07h-.08s-.06-.01-.06-.05c0-.03.04-.09.1-.14.31-.24.49-.65.56-1.25.04-.36.09-.5.24-.71.03-.05.06-.07.07-.07.05,0,.07.04.07.11,0,.05-.01.1-.04.17-.02.05-.03.1-.03.15v.05s.03.07.03.07l.13-.05.15-.17c.09-.1.16-.33.16-.5,0-.12-.03-.2-.1-.28-.08-.09-.13-.13-.18-.13h-.08s-.09.01-.09.01c-.08,0-.12-.02-.12-.07l.02-.09v-.13s-.06-.3-.06-.3l-.06-.15-.04-.12-.09.06-.18.11s-.1.07-.14.13c-.17.21-.18.22-.25.22-.04,0-.07-.02-.07-.05v-.05c.03-.11.04-.19.04-.25,0-.21-.15-.53-.34-.7-.25.24-.39.51-.39.76v.15c0,.05-.02.08-.06.08h0s-.06-.03-.09-.06l-.14-.19s-.08-.07-.19-.16c-.02-.02-.06-.05-.1-.08l-.05.1c-.12.24-.16.38-.17.58,0,.16-.02.21-.06.21-.02,0-.04,0-.08-.03-.18-.1-.2-.11-.28-.11-.22,0-.37.16-.37.39,0,.09.05.23.15.4.11.2.28.38.35.38.02,0,.03-.02.03-.08v-.02s-.01-.21-.01-.21l-.03-.16v-.02s.02-.07.05-.07c.11,0,.21.32.29.96.07.56.23.95.47,1.17.06.06.1.1.1.13,0,.02-.02.04-.05.04-.04,0-.09-.02-.16-.06-.04-.03-.09-.04-.13-.04-.12,0-.26.14-.28.29l-.11.69-.08.97c-.02.18,0,.43.07.73.06.26.09.45.09.57,0,.72-.45,1.3-1.2,1.52l-.77.23c-.48.14-.72.46-.79,1.05.12-.1.16-.11.35-.14l.23-.04c.1-.02.17-.04.21-.06.02-.01.07-.06.13-.13l.21-.23c.08-.09.15-.14.19-.14.03,0,.05.03.05.07,0,.04-.03.12-.09.2-.06.09-.09.2-.09.31,0,.15.04.25.2.48.02-.07.04-.12.05-.15.02-.04.08-.12.18-.25.17-.22.29-.44.29-.55,0-.19.02-.25.07-.25.04,0,.05.01.07.12,0,.03.02.05.04.07.03.03.06.05.07.05.01,0,.05-.02.1-.05.08-.06.15-.11.19-.17.05-.06.09-.14.12-.22.04-.11.06-.18.06-.23v-.16s.01-.08.04-.08c.03,0,.09.06.13.13.03.05.04.06.08.06h0s.08-.02.11-.05c.15-.14.24-.32.24-.45v-.22s-.06-.18-.06-.18v-.02s.03-.07.06-.07c.05,0,.11.08.2.26.04.08.07.12.11.12.06,0,.1-.04.22-.21l.11-.16s.04-.08.04-.12c0-.04-.01-.08-.04-.12l-.1-.15s-.02-.07-.02-.12c0-.17.06-.35.18-.57.09-.16.14-.26.16-.3.02-.05.04-.07.07-.07.02,0,.04.03.04.06v.13s-.01.1-.01.1v.1s.05.06.1.06c.04,0,.08,0,.13-.02l.3-.11c.07-.03.17-.07.28-.13.47-.26.62-.32.85-.32.14,0,.32.05.57.17.05.02.09.04.12.04.04,0,.07-.02.11-.06.02-.03.04-.06.04-.09,0-.04-.02-.1-.05-.15-.04-.07-.07-.15-.07-.18,0-.03.02-.05.06-.05.03,0,.07.03.09.06.04.06.13.22.28.48.22.4.52.68.77.74l.53.12c.17.04.21.1.21.31,0,.38-.18.71-.49.9l-.44.28c-.16.1-.29.38-.29.61,0,.15.04.41.08.62l.09-.08.21-.12.18-.18.1-.27.1-.24c.05-.12.1-.19.14-.19.04,0,.07.07.07.18v.03s0,.05,0,.05c0,.17.02.25.16.51" fill="#fd0"/>
        <path d="M55.81,74.89c0-.58.21-.83,1.04-1.25,1.64-.83,2.53-1.6,2.53-2.18,0-.12-.04-.29-.15-.65-.07-.22-.1-.41-.1-.53,0-.27.22-.67.5-.93l.23-.21c.13-.11.22-.28.22-.38v-.05s0-.07,0-.07c0-.12.05-.16.17-.17h.11c.06-.03.09-.04.09-.04.04,0,.08.02.1.06l.06.1.08.1s.06.05.08.05c.01,0,.05-.01.09-.04.06-.03.1-.05.15-.05.06,0,.09.03.09.1,0,.24-.16.59-.44.97-.46.63-.62.97-.62,1.37,0,.31.09.59.27.82.03.04.05.07.05.09,0,.03-.03.09-.08.15-.02.02-.05.06-.07.1-.1.14-.16.19-.22.19-.05,0-.09-.04-.11-.1l-.05-.13s-.04-.06-.07-.06c0,0-.03.02-.05.05-.03.04-.05.09-.05.13v.21c0,.08-.03.17-.08.24-.05.06-.1.12-.17.18-.05.04-.08.06-.09.06-.04,0-.07-.04-.09-.1l-.07-.24s-.03-.06-.06-.06c-.04,0-.08.07-.08.17-.03.27-.07.44-.14.51l-.17.16c-.05.05-.12.09-.15.09s-.07-.01-.08-.04l-.08-.18s-.03-.04-.05-.04c-.05,0-.09.1-.1.28-.04.43-.14.63-.38.8-.19.13-.23.18-.3.34-.11-.15-.15-.29-.15-.48,0-.1.02-.17.05-.23.05-.09.08-.16.08-.2,0-.03-.02-.05-.04-.05-.01,0-.03.02-.06.05-.03.04-.09.08-.16.12-.22.13-.25.17-.3.41-.07.33-.22.48-.56.54-.41.08-.43.09-.58.23v-.22Z" fill="#fd0"/>
        <path d="M55.02,62.41v.3c0,.07,0,.11-.02.2-.04.17-.05.23-.05.27,0,.23.03.35.17.59.08.13.12.29.12.41,0,.05-.02.08-.05.08-.02,0-.04-.01-.06-.04l-.1-.13c-.08-.11-.15-.13-.35-.13h-.21c.08.22.11.3.15.44.1.4.11.42.33.62.22.2.24.22.24.29,0,.06-.04.1-.08.1h-.08s-.05-.02-.05-.02c-.07,0-.13.12-.13.26,0,.08.03.2.08.31.03.07.06.12.08.15l.12.12s.05.08.05.12c0,.06-.03.11-.07.11-.03,0-.06-.01-.11-.04-.03-.02-.06-.02-.09-.02-.05,0-.08.03-.08.1l.02.18.07.31c.02.07.06.15.13.23.06.07.12.12.18.15.15.07.23.1.24.11.02.02.04.05.04.1s-.04.08-.08.08c-.01,0-.06,0-.12-.02h-.12c-.12-.01-.13,0-.13.09,0,.06,0,.12.02.19l.05.19c.05.21.12.32.19.32.02,0,.05-.02.09-.05.17-.13.53-.25.75-.25s.49.03.58.06c.06.02.1.03.12.03.03,0,.04-.03.04-.14l.03-.22.05-.38.04-.28v-.16s-.08.06-.1.08c-.21.19-.33.25-.55.25-.56,0-.88-.62-.88-1.72,0-.45.07-1.09.19-1.82.03-.15.04-.26.04-.33,0-.4-.25-.79-.69-1.07" fill="#fd0"/>
        <path d="M55.85,65.12l.11-.11.11-.1c.09-.08.16-.25.16-.37,0-.06-.01-.11-.04-.17-.04-.09-.12-.17-.17-.17-.04,0-.08.1-.09.26l-.03.18-.04.18v.18s-.01.12-.01.12Z" fill="#fd0"/>
        <path d="M54.78,70.07c.12.05.15.07.28.22.17.2.26.24.48.24.06,0,.12,0,.17-.02l.16-.05.12-.04c.06-.02.1-.04.1-.06,0-.03-.1-.11-.24-.2-.1-.07-.19-.12-.29-.17-.1-.05-.19-.08-.28-.08-.17,0-.33.05-.5.16" fill="#fd0"/>
        <path d="M56.42,73.47c0-.39.38-.71.85-.71.23,0,.37.05.37.13,0,.06-.1.15-.33.27-.02.01-.14.07-.35.19-.24.13-.32.17-.53.27v-.14Z" fill="#fd0"/>
        <path d="M61.34,70.54c.17-.03.23-.08.31-.08h.22s.08-.03.14-.09c.04-.03.1-.07.17-.12.24-.16.26-.18.26-.23,0-.07-.1-.1-.3-.1-.38,0-.61.18-.8.62" fill="#fd0"/>
        <path d="M57.69,63.17l.17.11c.1.06.18.11.24.13.19.08.26.1.26.18,0,.03,0,.09-.03.14-.02.05-.03.11-.04.17-.02.16-.12.21-.18.21-.08,0-.17-.13-.3-.36-.06-.11-.15-.32-.19-.48v-.05s.01-.05.05-.05" fill="#1d1d1b"/>
        <path d="M59.32,63.59l-.28.28c-.1.13-.1.24-.12.27-.02.02-.05.03-.08.04h-.02c-.07,0-.12-.05-.13-.12v-.21s-.02-.21-.02-.21h0c0-.09.04-.13.11-.15l.26-.07.26-.13c.08-.04.1-.05.11-.05.03,0,.06.03.06.07,0,.02,0,.04-.03.08l-.12.2Z" fill="#1d1d1b"/>
        <path d="M58.1,64.42l.18.13s.1.04.16.04c.07,0,.18-.03.29-.08l.16-.07s.07-.03.09-.03c.1,0,.17.1.17.23,0,.18-.13.36-.32.63l-.13.28c-.11.15-.18.21-.26.21-.14,0-.21-.08-.43-.51-.15-.3-.22-.49-.22-.64,0-.13.07-.22.16-.22.04,0,.09-.01.14.02" fill="#1d1d1b"/>
        <path d="M58.26,65.08v.23c.02.1.1.21.19.21.11,0,.19-.17.23-.43.02-.12.03-.14.03-.17,0-.09-.03-.11-.14-.11h-.06s-.08,0-.08,0h-.05c-.08,0-.11.06-.11.21" fill="#fd0"/>
        <path d="M44.63,59.6h1.18v2.43h1.39v-2.4h3.51v2.4h1.39v-2.4h1.18v-6.27h-1.35l-.05-.07c-.16-.24-.38-.37-.65-.37s-.49.16-.64.44h-.98c-.09-.26-.37-.44-.65-.44-.31,0-.56.16-.69.44h-1.05c-.17-.31-.37-.44-.67-.44s-.5.13-.65.44h-1.28v6.25Z" fill="#1d1d1b"/>
        <rect x="45.13" y="53.87" width="7.7" height="5.27" fill="#e63329"/>
        <path d="M45.93,55.08c-.2,0-.37.17-.37.37s.16.37.37.37.37-.17.37-.37-.16-.37-.37-.37" fill="#fd0"/>
        <path d="M45.93,55.86c-.23,0-.42-.19-.42-.42s.19-.42.42-.42.42.19.42.42-.19.42-.42.42M45.93,55.13c-.17,0-.32.14-.32.32s.14.32.32.32.32-.14.32-.32-.14-.32-.32-.32" fill="#1d1d1b"/>
        <path d="M51.98,55.08c-.2,0-.37.17-.37.37s.16.37.37.37.37-.17.37-.37-.16-.37-.37-.37" fill="#fd0"/>
        <path d="M51.98,55.86c-.23,0-.42-.19-.42-.42s.19-.42.42-.42.42.19.42.42-.19.42-.42.42M51.98,55.13c-.18,0-.32.14-.32.32s.14.32.32.32.32-.14.32-.32-.14-.32-.32-.32" fill="#1d1d1b"/>
        <path d="M45.93,57.94c-.2,0-.37.16-.37.37s.17.37.38.37c.19,0,.35-.16.35-.37s-.16-.37-.37-.37" fill="#fd0"/>
        <path d="M45.95,58.73c-.24,0-.43-.19-.43-.42s.19-.42.42-.42.42.19.42.42-.18.42-.4.42M45.93,57.99c-.17,0-.32.14-.32.32s.15.32.33.32c.17,0,.31-.14.31-.32s-.14-.32-.32-.32" fill="#1d1d1b"/>
        <path d="M51.98,57.94c-.2,0-.37.16-.37.37s.16.37.37.37.37-.16.37-.37-.16-.37-.37-.37" fill="#fd0"/>
        <path d="M51.98,58.73c-.23,0-.42-.19-.42-.42s.19-.42.42-.42.42.19.42.42-.19.42-.42.42M51.98,57.99c-.18,0-.32.14-.32.32s.14.32.32.32.32-.14.32-.32-.14-.32-.32-.32" fill="#1d1d1b"/>
        <path d="M47.08,56.83c.5.62,1.12.93,1.9.93.72,0,1.21-.26,1.79-.93-.58-.59-1.12-.84-1.83-.84-.74,0-1.42.3-1.86.84" fill="#fd0"/>
        <path d="M47.45,56.83c.51-.4.94-.56,1.48-.56s.94.16,1.47.57c-.46.45-.86.62-1.47.62-.55,0-1.04-.22-1.47-.64" fill="#1d1d1b"/>
        <path d="M48.07,56.71c.31.19.55.27.83.27.33,0,.62-.08.89-.27-.29-.14-.58-.21-.87-.21s-.59.07-.85.21" fill="#fd0"/>
        <rect x="45.03" y="54.14" width="7.91" height=".27" fill="#1d1d1b"/>
        <path d="M52.95,54.42h-7.94v-.3h7.94v.3ZM45.04,54.39h7.88v-.24h-7.88v.24Z" fill="#1d1d1b"/>
        <path d="M46.24,53.79v.76c0,.18.14.32.32.32.21,0,.34-.11.34-.32v-.74c0-.29-.12-.46-.31-.46-.04,0-.1.01-.15.04-.04.02-.07.04-.08.05-.03.02-.05.06-.07.1-.03.07-.05.11-.05.14" fill="#fd0"/>
        <path d="M48.62,54.42v.13c0,.18.14.32.32.32.21,0,.33-.11.33-.32v-.74c0-.28-.12-.47-.3-.47-.22,0-.36.18-.36.46" fill="#fd0"/>
        <path d="M50.93,53.79v.76c0,.18.14.32.32.32.21,0,.34-.11.34-.32v-.74c0-.29-.12-.46-.31-.46-.04,0-.1.01-.15.04-.04.02-.07.04-.09.05-.03.02-.05.06-.07.1-.03.07-.05.11-.05.14" fill="#fd0"/>
        <rect x="46.07" y="60.18" width=".72" height=".93" fill="#fd0"/>
        <rect x="46.07" y="61.31" width=".72" height=".29" fill="#fd0"/>
        <rect x="50.98" y="60.18" width=".72" height=".93" fill="#fd0"/>
        <rect x="50.98" y="61.31" width=".72" height=".29" fill="#fd0"/>
      </g>
      <g clip-path="url(#clippath-2)">
        <path d="M74.4,611.57c-11.19,7.53-21.5,21.19-26.05,26.47-1.24-.39-2.39-.93-3.62-1.31,1.01-6.63-2.01-13.41-3.89-19.76,14.28-25.1,28.56-50.19,40.82-76.16-2.95,19.45-6.53,70.14-7.26,70.77M41.35,652.15c-.44,1.11-.88,2.26-1.32,3.44,1.02.62,4.33-.64,6.52-1.61-1.1,4.73-2.78,10.19-3.74,15.51,1.16.57,5.15-1.23,7.61-2.05-.18,2.44-1.62,5.91-.8,8.37,1.72-1.14,5.46-2.94,8.65-3.6,2.16,8.12,7.62,13.27,11.54,20.26-16.24,4.62-36.22-11.35-47.78,5.76-1.11,3.52-.62,6.09-.62,6.09-4.82,3.68-8.09,8.95-6.75,15.19,5.97,12.37,18.06,6.51,22.49,1.11,2.02-.11,4.21-1.23,6.2-.32-3.4,4.84-8.81,16.32,3.81,21.27,9.78-.27,14.65-4.37,18.81-11.07,6.5-13.03,16.2-19.48,27.49-21.45,2.38,4.23,5.16,10.19,10.49,11.01,11.28.38,13.01-9.3,11.35-14.08-8.2-13.14-16.24-11.97-23.2-18.3-2.86-9.14,5.9-15.04,11.74-19.55,18.11-13.7,76.44-10.85,67.21,17.47-2.06,7.08-7.56,2.9-11.2,5-4.21,1.66-8.72,4.04-10.26,8.77-.63,3.59.17,16.2,27.12,8.47,10.44,2.03,17.18,8.02,21.46,10.41,2.39,3.93,2.73,3.35,4.88,4.44,3.87,12.28,32.82,13.75,27.07-8.79-4.87-8.09-11.24-8.71-17.84-10.71l12.83-.06c2.06,6.39,9.04,3.05,11.54,8.43,3.59.93,8.04,2.02,11.4-.09,3.66-2.67,6.3-5.37,6.52-9.99-.35-4.76-2.43-9.56-7.14-12.23-.51-3.76-2.31-7.83-6.03-9.78-14.47-5.87-26.41,4.59-41.26,4.19l-1.81-.46c3.82-4.26,5.8-9.86,7.19-14.74,1.93.77,1.76,1.52,4.32,2.74,1.34-2.43,1.05-4.67,1.39-7.4,2.17-.25,4.7,3.11,7.18,1.41.21-3.44-2.33-6.66-3.29-10,3.03-.1,10.49,2.65,10.49,2.65-7.67-22.02-21.91-34.45-37.43-46.12.14-11.68-12.87-69.58-21.33-86.06,20.78-8.65,90.3-31.87,90.3-31.87,2.03.72.29,3.89,2.74,4.47,2.46.43,3.75-2.02,5.63-3.17,1.3,1.59,1.15,3.75,3.03,4.9,3.32-1.58,5.05-5.33,5.63-8.65,2.59-.72,6.05,4.47,7.93,1.01-.57-3.32-2.74-6.06-4.47-8.95,0,0,16.88-6.06,21.78-12.84-.15-2.31-6.06-4.03-6.2-4.47,6.05-2.59,13.84-4.03,17.31-10.38-1.74-3.32-6.49-2.74-9.67-2.74,5.91-3.47,13.99-6.35,16.59-13.86-.63-.8-1.44-1.2-2.35-1.37l.63-.25c4.38-2.29,6.51-5.43,7.28-6.84.49-6.84,11.62-17.35,11.94-18.31.32-2.22-3.35-3.34-5.09-4.93,9.24-2.55,16.26-11.15,18.49-19.75,3.92-.03,18.56-2.91,27.83-6.99,7.36-5.74,9.08-11.77,6.05-19.09-1.28-2.71-3.35-4.77-6.05-5.73-10.66,2.71-20.53,8.76-31.36,10.19v-.63c9.87-4.94,33.52-17.22,19.42-42.5-2.86-2.71-7.32-4.3-11.78-3.02-7.64,7.79-10.66,20.05-21.81,25.62-1.43.15-2.38-.95-3.33-1.91,7.31-10.19,14.79-24.35,8.27-37.08-4.3-4.93-12.39-8.29-15.92-7.32-4.45.16-7.32,3.82-9.24,7.32-3.49,10.67-.63,22.28-5.41,32.47h-1.11c1.59-14-.8-29.29-14.16-37.08-5.41-3.5-12.1-3.18-17.83-.32-12.89,15.28,9.07,25.78,7.64,41.22l-6.21,11.78c-7.64-6.36-17.99-11.46-28.97-8.75-5.73,1.59-10.19,5.72-13.37,10.34-1.12,4.14-2.86,8.44,0,12.25,9.07,8.92,24.19,3.35,35.17,7.64,3.35,4.3,4.3,9.71,7.64,14.16-.32,1.27.64,2.07.32,3.35,0,0-7.01-5.58-10.35-4.94-.95,2.23.32,5.57.49,8.44-.13,3.8-.81,7.54-1.57,11.31-.35,1.42-.73,2.72-1.09,4.04-2.6-2.16-3.6-6.49-7.21-5.92-2.02,4.91-.73,12.7.29,18.32-1.88,0-4.9-2.89-6.93-1.01-1.73,7.64.53,14.76,3.41,20.67-11.06-11.06-11.77-3.49-11.63-1.91,2.02,8.08,2.6,18.82,4.62,26.9,0,0-27.68,7.46-41.53,11.07,9.53-21.41,9.53-59.84-21.66-78.21,5.2-2.17,8.37-7.64,9.38-12.84.72-5.91-2.17-11.25-6.21-15.58-4.04-3.03-13.52-9.48-22.5,2.89-11.1-20.77-32.75-34.47-54.38-39.81,2.74-4.18,8.51-8.22,8.66-12.84,0,0-14.53.9-29.43,11.11-2.31-5.35-4.47-13.7-11.4-13.85-1.15,4.62-.58,9.67-1.73,13.42-6.49-3.61-14.14-6.78-22.5-6.93,0,0-6.69-2.14,7.64,11.39-7.79-.29-15.43,1.45-21.93,5.2,1.15,3.61,6.2,3.03,8.36,5.62-7.93,2.59-16.16,5.05-22.5,11.4,1.01,3.17,6.34,1.15,8.95,1.73C-.06,386.13,9.54,428.29,19.35,440.85c-8.08-2.6-17.88-3.17-24.81,3.02-12.4,15.71,2.76,38.27,22.06,42.55,17.43,5.15,21.21-9.95,21.21-9.95,6.2,11.39,17.6,21.2,28.27,28.41-.87,1.01-3.39,1.83-2.74,2.74.43,1.59,2.74,1.59,2.74,3.47-3.61.29-7.07,5.48-4.76,6.92-2.74,1.16-6.06,3.04-7.36,5.92,1.73,1.73,4.62.58,6.63,1.73-11.43,24.56-48.17,71.27-48.17,71.27-6.06,3.17-12.56,5.77-17.6,11.39-.14.86,3.17,1.01,4.18,2.16l-11.39,10.96c-8.22-2.74-119.17-49.67-65.49-147.13,23.36-40.54,73.42-72.56,65.78-125.21-15.6-73.3-93.84-68.37-118-51.35-9.23,8.22-13.7,20.04-13.56,33.6,15.15,35.75,52.82-20.09,85.83,5.63,15.29,19.47,3.31,44.86-6.93,62.61-7.79,13.71-36.5,56.83-41.11,65.48-47.77,121.28,62.74,170.93,78.9,176.85-1.59,2.02-3.9,4.18-5.2,6.63,1.16.87,4.62.72,3.03,3.03-5.19,9.95-13.13,18.9-16.87,29.44.14,1,3.74,1.29,5.19,2.16-5.77,5.62-5.19,13.13-3.18,20.34-8.08,9.52-17.31,19.61-16.6,33.32,1.16,8.37-.57,19.62,9.38,24.23,6.49,4.04,13.56-5.78,18.31,3.03,4.62,1.44,9.96.72,13.57-2.45,4.76-1.87,6.05,5.48,10.96,2.89,4.34-.58,6.64-4.76,8.09-8.36,7.35,4.47,18.31,2.45,24.81-2.46,2.88-2.59,4.32-6.49,3.17-10.39-3.75-8.51-14.43-3.89-20.77-7.64-2.89-3.04-5.63-6.06-6.93-9.67,4.47-.86.15-4.62,1.01-7.21.43-2.02,1.45-3.75,2.17-5.62.58,2.3,1.01,2.88,3.46,3.46,3.17-4.9,4.76-10.54,5.48-16.59,1.67,0,1.95,3.33,3.79,3.53.76-1.41,1.63-2.76,2.6-4.1.69-3.97.07-8.6-.48-12.27,1.44,1.3,3.47,2.74,5.91,3.89-3.46-10.97,2.6-21.49,5.49-31.59,1.59,1.3,2.74,5.48,5.48,4.18,2.88-3.32,3.02-7.64,3.89-11.69l2.53.14Z" fill="#1d1d1b"/>
        <path d="M301.93,440.85v-1.01c4.36-1.86,17.63-10.85,18.12-11.09-2.06-.64-3.81.89-5.58.17.83-.8,1.62-1.62,2.36-2.48,5.6-3.2,10.13-9.73,14.36-14.09-5.09-4.93-20.53-2.06-20.69-1.9-3.98-.64-.48-5.41-1.58-7.65-3.03.32-9.88,4.94-9.88,4.94-1.27-4.77-3.34-9.24-6.84-13.05-2.07,3.34-1.44,8.43-5.41,10.34-2.07-4.62-4.62-9.07-8.75-12.89-.64,2.07-3.5,7.64-3.5,7.64l-6.85-7c.09,8.9-2.27,17.47-3.92,26.24l.04.27c-.12.36-.25.73-.39,1.08-4.04-2.31-3.04-7.79-7.22-9.67-.28,7.36,1.44,13.99,3.75,20.34-3.89,2.46-5.33-4.76-9.23-4.47.29,7.51,1.73,14.57,4.04,21.21-4.47.72-7.51-5.35-11.69-5.63.58,9.52,4.62,19.19,3.04,29.86l-46.02,12.41c-13.45,22.52-53.67,57.15-112.07,31.44,0,.43-8.08-7.07-13.56-6.49-2.03-.87-4.19-1.3-6.64-1,.88,2.16,2.61,3.23,3.89,6.2-.72.29-9.66-1.01-12.55-.71,2.6,1.15,6.78,2.16,8.37,5.19-2.46,2.74-7.07.29-9.38,3.46,1.01.3,4.9.58,6.63,2.46-14.42,25.67-31.73,50.19-49.91,74.43-5.05,2.17-10.39,4.48-14.57,7.94.73,1.44,4.19,1.16,3.18,3.47-7.07,6.92-14.13,11.67-20.05,19.32,2.02-.14,4.48-2.6,5.92-.28-10.54,7.77-13.27,12.83-17.02,17.59,1.01.72,2.01,1.15,2.74,2.16-3.46,11.1-13.71,19.62-17.31,30.73,2.17.73,4.18-1.44,5.63,1.16-1.01,4.17-5.34,7.06-6.35,11.39,2.59,5.33.86,11.69,2.89,16.59-.15,2.02-1.16,3.61-2.46,4.9.43.58,3.03-.43,3.03-.43,1.88,1.73-.43,3.46-.57,5.19,3.89.58,6.49-3.89,9.95-2.02.14,2.46-2.75,3.61-3.03,5.91,4.48,1.74,8.66-3.02,13.85-2.45,1.44,1.15,0,2.74,0,4.19,4.61.87,4.76-9.95,8.65-3.47,0,1.3.57,2.31,1.3,3.47,1.73-2.16-.43-6.06,1.73-7.65,2.74.14,4.32,3.61,6.63,4.76-1.3-4.62.43-10.38,3.75-13.41.58.15,3.17,3.03,3.17,3.03,2.89-5.34,3.75-11.68,3.75-18.32,3.75-.72,3.04,4.32,5.63,5.92,2.17-6.2-1.3-12.84-1.15-19.04.72-1.88,4.32,1.73,5.19,2.45.43-9.95,9.38-28.56,10.1-27.68l3.75,4.75c7.55-13.7,1-26.83,3.89-28.99,2.02,0,3.04,2.31,4.47,3.46-.72-5.62-1.88-11.83-4.9-17.02,15.15-28.85,49.62-88.57,49.62-88.57-2.36,19.14-4.31,38.49-6.05,58.18-1.46,7.53-1.61,18.05-2.69,23.53,3.03-.38,2.3-1.3,7.15-1.5-20.55,8.67-35.13,30.85-40.39,42.87,2.15.76,5.09-2.65,7.52-.88-2.11,5.01-4.5,9.88-5.47,15.49,2.6-.38,4.94-1.79,7.41-2.75-1.16,3.8-1.12,5.9-1.6,8.63,2.76-.82,5.23-2.22,7.98-2.6,1.44,8.25,8.68,15.29,12.15,23.15-.04,2.59-2.92,2.26-4.52,2.95-12.56.99-30.77-5.67-33.59-1.89,1.88.17,2.51,5.09,1.92,5.51,8.4-1.3,17.17.16,24.23.71-6.6.49-14.57.03-21.81,1.36-4.64,1.51-9.7,2.14-13.93,4.95,3.45.35,6.44,2.42,7.54,5.76.43,7.82-11.49,5.42-14.33,2.78-.92,2.59-.19,11.55,9.64,9.55,3.18-.52,8.66-3.91,7.7-11.26,2.01,1.05,1.09,3.77,1.64,5.51,1.87-.11,3.17-.82,3.53-3.4,1.14.74,1.12,1.75,1.1,2.9-.27.42,3.44.71,3.59.71,6.36-5.93,17.3-10.21,22.1-9.36-7.7,2.61-13.96,6.1-20.55,11.48,2.89-.1,7.34.99,8.86,4.63.95,3.63-5.98,11.9-13.63,4.24-.91,2.57,1.44,11.51,11.41,8.13,12.61-3.24,11.56-17.83,22.2-23.85,5.25-2.79,10.36-6.6,16.44-7.64.37-1.23-1.4-5.09-1.63-6.24,8.28,5.2,5.39,19.65,18.03,16.91,5.28-2,4.98-5.7,4.98-5.7-10.22,4.74-12.76-3.23-11.71-5.52,1.49-2.72,4.25-3.54,7-3.92-5.34-8.6-25.82-8.53-18.62-24.27,4.89-8,13.65-13.76,22.07-16.93-11.45-20.07-27.9-57.08-14.99-101.03,16.37-44.98,44.15-27.7,52.22-22.22,16.28,16.29,21.36,39.74,19.68,62.54,2.62.64,5,1.51,8.29,1.51h6.53c-1.44-20.71-13.6-63.71-19.28-75.9.28-4.47,66.43-25.22,94.99-35.17,1.44,1.15,1.44,3.03,1.3,4.76,3.46,0,1.3-4.9,4.9-4.76,2.45,1,2.45,3.74,3.75,5.47,1.88-2.02,1.58-5.05,2.16-7.64,2.31-1.15,4.18.73,6.2,1.44.29-2.31-5.77-7.21-.72-8.36,5.92-4.33,13.27-5.2,18.75-10.97-1.73-2.31-8.22-.87-6.63-5.63,6.06-2.59,12.69-4.04,18.03-8.22v-1.15c-3.03-.28-8.08,1.01-10.38-1.3,3.75-5.63,12.41-6.93,16.58-13.13h-11.39Z" fill="#98874e"/>
        <path d="M193.79,493.29c-5.54,6.77-13.06,13.77-22.37,19.47-5.7,5.86-11.27,11.04-15.05,13.2-4.79,2.75-10.62,3.13-16.26,6.3,3.9,1.68,7.07,3.74,9.06,5.08,43.16,50.2,3.33,121.95,3.33,121.95,30.66,7.14,22.02,28.09,17.46,32.77-2.02-.32-4.63.36-6.36.6,1.26,1.76,3.26,3.38,2.34,5.96-6.44,4.83-11.56,1.38-12.83-.23-1.03,1.14-.79,3.45-.38,4.77,6.51,7.03,16.85,2.03,24.92,1.87,5.85,3.71,13.7,1.88,18.67,10.34-.13-.73.24-2.65.53-3.08,1.31,2.34,3.33,6.71,6.22,7.81,1.18-1.42-.19-3.87,2.41-5.93-1.3,7.59,2.96,12.17,8.41,14.29,12.63,3.18,16.87-8.92,13.34-12.47-5.22,6.2-11.88,5.59-15.14.03-.37-6.54,5.04-7.85,7.06-8.24l-22.28-6.34s17.51-1.25,26.59-.51l.06-3.47c2.53,3.51,3.37,7.61,7.78,8.51l-.66-3.48c3.05,3.3,8.57,10.37,15.69,7.18,2.47-1.4,5.6-3.92,5.1-8.26-5.1,4.57-11,1.54-12.39-1.23-.8-8.45,7.22-7.35,8.95-7.03,0,0-10.12-10.61-37.24.05,5.72-5.96,15.55-6.8,24.64-6.93-.97-3.37.81-5.18.81-5.18-13.22-2.97-25.51,6.49-37.88,4.54-5.01-2.54,2.3-7.62,2.66-11.65l2.32-8.62c1.88.03,3.44,1.21,5.15,2.11,1.49-2.29-1.58-6,1.87-7.61,1.44.6,3.01,1.06,4.44,1.81-.36-3.9-4.02-9.59-4-10.45,3.63-.8,6.61,1.55,10.06,2.33-7.01-18.9-33.07-39.82-40.19-45.13.14-.64,3.29.68,4.88.57-2.38-24.29-16.7-73.94-21.15-83.5.29-4.47,66.44-25.22,95-35.17,1.43,1.15,1.43,3.03,1.3,4.76,3.46,0,1.3-4.9,4.9-4.76,2.45,1.01,2.45,3.75,3.75,5.48,1.88-2.02,1.58-5.05,2.16-7.65,2.31-1.15,4.18.73,6.2,1.44.28-2.31-5.77-7.21-.72-8.36,5.92-4.33,13.26-5.2,18.75-10.97-1.73-2.31-8.22-.87-6.63-5.63,6.06-2.59,12.69-4.04,18.03-8.22v-1.15c-3.03-.28-8.08,1.01-10.39-1.3,3.75-5.63,12.41-6.93,16.59-13.13h-11.39s14.11-5.07,18.12-12.11c-2.06-.64-3.8.9-5.58.17.83-.81,1.62-1.63,2.36-2.48,5.59-3.2,10.14-9.73,14.35-14.09-5.09-4.93-20.53-2.06-20.69-1.9-3.97-.64-.48-5.41-1.58-7.64-3.03.32-9.87,4.94-9.87,4.94-1.27-4.77-3.34-9.24-6.84-13.05-2.08,3.34-1.44,8.43-5.41,10.34-2.07-4.62-4.62-9.07-8.75-12.89-.64,2.07,6.09,6.26-1.13,21.52,0,0,6.85-4.62,9.87-4.94,1.12,2.23.2,13.84-6.42,23.88-3.3-2.59-4.48-4.95-8.02-7.31-.59,1.19-1.77,2.01-1.77,3.42v16.39c-3.77,0-5.65-1.88-9.3-2.83v9.9c0,6.84.59,10.85,2.35,17.44-1.53-2.35-2.95-3.76-5.42-5.18-2.35,4.24.94,8.6-1.89,12.5-4.36,5.89-10.84,4.7-17.68,7.3-3.5,1.31-22.81,5.4-44.82,9.06" fill="#b29e5a"/>
        <path d="M339.73,417.75s35.24,7.68,27.52-27.26c0,0-1.33,26.1-27.52,27.26" fill="#b5bbbc"/>
        <path d="M372.56,404.11c2.08,16.6-14.42,15.12-14.42,15.12,23.16,5.19,14.42-15.12,14.42-15.12" fill="#b5bbbc"/>
        <path d="M102.87,552.2c-9.66,16.91-8.93,43.91-8.95,45.89.75,20.53,9.03,43.28,20.06,61.1,18.74-3.3,36.8-.66,36.8-.66,11.29-27.12,15-46.47,15.88-59.09,1.16-19.1-2.69-38.24-13.31-53.73-7.35-9.52-33.26-28.95-50.48,6.49" fill="#f1c6a5"/>
        <path d="M97.96,375.07c-24.57-13.6-47.45-2.6-55.39,11.4-14.28,24.85,17.74,45.86,29.13,50.19l11.41-9.67.28.29c-2.02,2.16-3.46,4.9-6.2,6.2-10.39,12.69-15.87,28.26-12.84,45.73,12.15,46.44,86.13,60.1,126.07,12.11,14.86-14.85,16.73-39.96,10.39-58.85-12.02-32.7-48.76-39.23-55.11-39.53-1.58-2.59-.96-33.59-21.34-37.64-9.23-2.31-26.83-1.17-26.4,19.76" fill="#f1c6a5"/>
        <path d="M97.96,375.07c-8.97-4.96-17.71-6.65-25.58-6.11.01,28.27,11.4,38.13,47.2,42.09,36.64,4.05,52.13,48.09,42.45,74.7-5.07,13.9-16.95,32.19-51.05,33.92,26.33,5.52,57.86-2.41,79.45-28.34,14.86-14.85,16.73-39.96,10.39-58.85-12.02-32.7-48.76-39.23-55.11-39.53-1.58-2.59-.96-33.59-21.34-37.64-9.23-2.31-26.83-1.17-26.4,19.76" fill="#fddbbd"/>
        <path d="M115.28,399.59c-3.32-1.01-7.94-.73-11.4.72-2.6,1.44-3.9,4.18-4.18,6.93-.37,8.7,6.2,11.4,6.92,10.67-3.32-2.6-5.63-7.21-4.18-12.12,1.73-3.31,10.1-8.17,16.73,0l-2.16-4.76c1.58-2.89,4.47-4.05,7.36-4.9,9.1-1.61,8.93,9.66,8.93,9.66.65-.68,5.17-10.56-7.93-12.4-3.89.72-8.22,2.16-10.09,6.2" fill="#1d1d1b"/>
        <path d="M133.54,403.25c0-4.31-3.73-7.79-8.33-7.79-4.15,0-7.59,2.84-8.22,6.55-1.69-1.15-3.78-1.83-6.05-1.83-5.52,0-9.99,4.04-9.99,9.01s4.47,9,9.99,9c3.37,0,6.35-1.5,8.16-3.81,1.55-4.79,4.53-3.34,6.11-3.34,4.6,0,8.33-3.5,8.33-7.8" fill="#e6b499"/>
        <path d="M124.71,386.95c0-4.51-3.36-8.16-7.5-8.16s-7.49,3.66-7.49,8.16,3.36,8.16,7.49,8.16,7.5-3.65,7.5-8.16" fill="#f1c6a5"/>
        <path d="M94.65,396.47c-2.66-3.96-8.1-4.96-12.13-2.24-4.03,2.72-5.14,8.13-2.47,12.09,2.67,3.95,8.1,4.96,12.13,2.23,4.04-2.71,5.15-8.13,2.48-12.08" fill="#f1c6a5"/>
        <path d="M176.94,426.36s-4.64,31.43-46.58,37.48c-19.88,2.87-38.25-8.67-40.27-10.36-2.03-1.69,2.7-5.12,0-6.14-2.7-1.01-4.45,1.36-10.53,5.47-6.08,4.11-5.79,16.94-5.79,16.94l3.77-8.44s-1.78,28,16.1,37.57c46.99,25.19,63.33-9,63.33-9,0,0-6.39,2.19-9.43-.85-3.04-3.04-2.3-15.37.25-17.25,5.07-3.72,15.26-10.47,22.74-18.97,7.5-8.5,6.42-26.45,6.42-26.45" fill="#e6b499" fill-rule="evenodd"/>
        <path d="M75.52,338.49c-7.96-4.53-15.36-7.42-21.12-7.85l8.51,9.33c.3,1.73-13.65,1.05-21.35,4.95,3.75,1.44,7.21,3.75,10.67,5.92-9.42,2.06-19.61,6.49-24.23,9.67,3.47.86,6.93-.58,10.82,1.3-3.74,3.89-45.67,29.08-13.13,84.24l-.43.29c-6.92-3.6-16.59-6.21-24.23-3.18-5.48,2.74-7.94,8.52-7.94,14.29.72,10.53,13.68,30.36,34.62,26.25,6.63-1.59,7.79-9.09,8.94-14.85,13.31,24.92,30.58,33.17,38.51,38.08-29.97-36.01-8.23-63.32-5.63-67.22-14.28-7.93-32.02-21.78-32.88-40.1-.29-11.69,7.07-21.63,16.73-27.7,12.12-7.64,29.86-7.07,42.12,0-.86-6.49,3.32-13.13,9.09-17.03,26.5-10.15,38.08,10.1,40.82,20.2l2.74,16.88c6.06.28,11.55,2.01,17.02,3.89-1.43-8.36-5.77-16.3-10.09-23.94-13.27-18.32-32.31-28.41-52.22-33.61l7.93-10.39c-8.51,1.44-21.7,7.85-25.67,12.11-1.97-8.78-7.93-15.14-7.93-15.14l-1.67,13.62Z" fill="#98874e"/>
        <path d="M25.26,446.33c-6.92-3.61-16.59-6.21-24.23-3.18-5.48,2.74-7.94,8.52-7.94,14.29.72,10.53,13.68,30.36,34.62,26.25,1.46-.35,2.66-.98,3.65-1.83,1.3-1.59,2.39-3.25,3.28-4.99.98-2.58,1.5-5.47,2.02-8.03,0,0-.62-15.42-11.4-22.5" fill="#f1c6a5"/>
        <path d="M162.44,378.1l2.31,5.63c4.04-7.99,12.12-6.93,13.56-4.18-8.08-2.14-10.39,5.05-10.09,7.64,1.29-1.58,4.17-1.44,5.62-.43,5.78,4.68,2.02,10.39-.43,11.83,2.74.58,5.63,3.32,8.37.28,4.9-3.31,6.35-9.09,5.48-14.56-1.74-5.91-6.78-10.96-13.13-11.69-4.76-.43-8.22,2.6-11.69,5.48" fill="#f1c6a5"/>
        <path d="M112.24,384.3c-.57,3.03,1.72,10.69,8.95,7.64,2.31-1.88,2.16-4.91.72-8.22-3.18-6.09-9.37-3.36-9.67.58" fill="#1d1d1b"/>
        <path d="M168.64,393.68c.86,1.15-.43,3.46,1.73,3.89,2.01-.71,3.19-1.62,4.18-4.62.43-2.3-1.16-3.03-2.89-4.04-3.18-.86-3.89,2.6-3.03,4.77" fill="#b6786d"/>
        <path d="M80.65,398.15c.58,5.05,2.74,7.91,8.36,9.37,9.25-2.41,5.44-7.04,3.75-9.66-2.74-3.32-9.95-4.91-12.11.29" fill="#1d1d1b"/>
        <path d="M56.95,634.66c-3.36,4.48-5.86,8.98-7.02,13.18.67,0,1.38-.28,2.08-.49,1.91-3.9,3.69-7.68,4.94-12.69" fill="#b29e5a"/>
        <path d="M143.4,464.64c-20.77,7.36-46.01,3.17-61.01-12.41,1.45-2.3,4.33-2.74,6.93-2.74l.72-1.15c-1.01-1.88-4.18-2.16-5.92-1.01-12.74,4.17-10.67,21.78-10.67,21.78.87-4.75,1.73-11.25,6.49-15.14-2.5,26.8,7.37,38.83,22.93,47.45,38.22,11.83,50.48-9.81,50.48-9.81l-7.64,4.61c-2.59-3.89-6.35-7.78-5.77-12.55,2.16-5.34,2.31-11.54,5.19-16.59,28.43-8.92,31.74-33.61,30.43-37.07-2.31,15.57-17.6,29.56-32.17,34.61" fill="#1d1d1b"/>
        <path d="M5.5,454.26c-1.3,3.89-1.01,8.51,2.17,11.83.86.87,1.73,1.88,3.03,1.73-3.17-2.74-4.33-7.36-3.75-11.4,1.44-2.31,3.75-3.89,6.2-4.18,3.46,1.3,7.36,1.16,10.1,4.18-1.88,0-4.33,1.73-5.63,3.47-.87,3.17-.14,7.36,3.47,8.65,2.59.86,5.04-.29,6.92-1.74,2.17-1.73,2.17-5.19,1.16-7.35-2.88-6.21-9.66-8.52-15.29-9.39-2.75.44-6.35,1.74-8.37,4.19" fill="#1d1d1b"/>
        <path d="M20.79,459.89c-1.01,1.3-1.01,3.89,0,5.19,1.01,1.45,2.89,1.45,4.19,1.01,3.02-1.16,1.88-4.75.72-6.63-1.3-.73-3.32-.73-4.91.43" fill="#b6786d"/>
        <path d="M124.07,486.37c.15.43-29.62,2.85-41.69-25.18-.15,14.28,5.64,29.47,22.51,37.36,10.96,4.47,27.28,5.61,38.11-.87l-6.53-10.81,4.48-17.75c-17.74,4.19-40.67,2.6-55.39-9.22,4.13,15.17,22.79,25.03,38.51,26.48" fill="#fff"/>
        <path d="M39.54,648.56c1.01.58,2.31.58,3.46,0,2.6-2.01,3.17-5.33,2.31-8.36-1.88-.44-3.61-1.88-5.48-2.46l-.29,10.82Z" fill="#98874e"/>
        <path d="M124.07,486.37c.15.43-29.62,2.85-41.69-25.18-.15,14.28,5.64,29.47,22.51,37.36,10.96,4.47,27.28,5.61,38.11-.87l-1.36-2.25c-18.82,6.84-29.76,2.12-36.12-.48-7.25-2.97-6.67-8.34,4.87-6.68,7.31,1.05,18.73-.37,26.13-1.57l.28-1.09-3.9.03c-23.9.24-36.53-14.74-36.53-14.74,0,0,12.35,3.44,25.79,4.16,5.44.28,11.91-.57,17.72-1.69l1.07-4.26c-17.74,4.19-40.67,2.6-55.39-9.22,4.13,15.17,22.79,25.03,38.51,26.48" fill="#d7e8ee"/>
        <path d="M117.53,385.6c0-1.19-.74-2.14-1.67-2.14s-1.67.96-1.67,2.14.75,2.14,1.67,2.14,1.67-.96,1.67-2.14" fill="#fff"/>
        <path d="M86.96,399.65c-.41-1.12-1.46-1.76-2.35-1.43-.89.32-1.29,1.49-.88,2.6.41,1.12,1.46,1.75,2.35,1.43.89-.33,1.29-1.49.88-2.6" fill="#fff"/>
        <path d="M166.69,599.45c1.12-19.11-2.73-38.25-13.34-53.74-2.9-3.74-8.66-9.02-15.63-11.9-6.51,4.8-12.51,14.48-15.96,37.37-1.57,10.33-2.37,19.61-2.59,27.96,1.69.06,3.47.1,5.41.1h39.31c1.01,0,1.93.08,2.81.21" fill="#fddbbd"/>
        <path d="M-41.12,712.57c-.4.64-.88,1.23-1.42,1.76.43.58,3.03-.43,3.03-.43,1.88,1.73-.43,3.46-.57,5.19,3.89.58,6.49-3.89,9.95-2.02.14,2.45-2.75,3.61-3.03,5.91,4.48,1.74,8.66-3.02,13.85-2.45,1.45,1.15,0,2.74,0,4.18,4.61.87,4.76-9.95,8.65-3.47,0,1.3.57,2.31,1.3,3.47,1.73-2.16-.43-6.06,1.73-7.64,2.74.14,4.32,3.61,6.63,4.76-1.3-4.62.43-10.39,3.75-13.41.58.15,3.18,3.03,3.18,3.03,2.89-5.34,3.74-11.68,3.74-18.31,3.75-.73,3.04,4.32,5.63,5.92,2.17-6.21-1.3-12.84-1.15-19.04.72-1.87,4.32,1.73,5.19,2.45.43-9.95,9.38-28.56,10.1-27.69l3.75,4.76c7.55-13.7,1-26.83,3.89-29,2.01,0,3.04,2.31,4.47,3.46-.72-5.62-1.88-11.83-4.9-17.02,15.15-28.85,49.62-88.57,49.62-88.57,0,0-54.8,75.55-65.63,91.81-2.13,3.31-5.9,3.42-7.78,6.83,3.18-.47,5.07-.47,8.25,0-4.83,8.96-15.09,8.96-18.39,18.85,2.72-.35,4.13-1.29,6.84-1.65-2.48,7.08-3.18,12.15-8.72,16.98-5.19,4.48-10.15,6.13-12.97,12.49,4.72-.94,7.43-3.42,12.02-2.36-4.47,6.72-11.78,8.14-13.44,16.03h5.66c-3.3,6.13-7.54,8.6-9.54,15.43,2.11-1.63,6.82-.47,6.82-.47,0,0,0,3.05-2.37,9.18-2.35,6.13-13.9,7.77-13.9,7.77l1.42-9.65-10.12,4.72-.94-4.25-4.61,2.45Z" fill="#b29e5a"/>
        <path d="M75.52,338.49c-7.96-4.53-15.36-7.42-21.12-7.85l8.51,9.33c.3,1.73-13.65,1.05-21.35,4.95,3.75,1.44,7.21,3.75,10.67,5.92-9.42,2.06-19.61,6.49-24.23,9.67.7.17,1.41.26,2.11.28,7.55-2.97,14.15-4.4,14.15-4.4l14.58-6.75-7.15-4.05s4.44-.74,11.21-.4c6.75.34,2.42-6.75,2.42-6.75,0,0,2.03,1.69,5.73,3.71,3.72,2.03,5.8-1.35,5.8-1.35,0,0-4.02,9.97-4.44,25.61,8.13-.28,16.42,1.64,23.09,5.49-.86-6.49,3.32-13.13,9.09-17.03,26.5-10.15,38.08,10.1,40.82,20.2l2.74,16.88c6.06.28,11.55,2.01,17.02,3.89-1.43-8.36-5.77-16.3-10.09-23.94-13.27-18.32-32.31-28.41-52.22-33.61l7.93-10.39c-8.51,1.44-21.7,7.85-25.67,12.11-1.97-8.78-7.93-15.14-7.93-15.14l-1.67,13.62Z" fill="#b29e5a"/>
        <path d="M106.33,409.68c.29,2.17,1.74,4.76,4.18,5.19,1.88.15,3.18-1.44,3.46-3.17-.28-2.16-2.02-4.04-3.89-5.2-2.16-.57-3.46,1.44-3.75,3.18" fill="#1d1d1b"/>
        <path d="M108.06,409.25c0,1.59.42,3.18,2.01,3.9l1.73-.43c0-1.74.43-3.9-1.73-4.47-.86-.15-2.01,0-2.01,1" fill="#b6786d"/>
        <path d="M123.64,402.77c.29,1.73,1.73,4.04,3.76,5.19,1.44.58,2.31-.86,2.73-1.73-.14-2.16-.72-4.62-3.03-5.19-1.44-.15-3.46-.15-3.46,1.73" fill="#1d1d1b"/>
        <path d="M125.37,402.33c-.57,1.73.73,2.45,1.73,3.46h1.01c1.16-2.02-.71-3.75-2.74-3.46" fill="#b6786d"/>
        <path d="M128.76,398.33c0-1.03-1.21-1.86-2.7-1.86s-2.71.83-2.71,1.86,1.21,1.85,2.71,1.85,2.7-.83,2.7-1.85" fill="#fff"/>
        <path d="M24.42,445.91c-6.85-3.39-16.06-5.66-23.39-2.76-5.48,2.74-7.94,8.52-7.94,14.29.58,8.41,8.96,22.77,22.99,26.1C6.21,478.02.42,467.06-.04,460.11c0-5.77,2.45-11.53,7.93-14.27,5.08-2.02,11.06-1.54,16.53.07" fill="#fddbbd"/>
        <path d="M162.44,378.1l.33.8c1.75-.89,3.63-1.4,5.78-1.2.71.08,1.41.22,2.08.4,3.42-1.28,6.79-.22,7.67,1.45-1.79-.48-3.31-.48-4.58-.2,3.84,2.09,6.72,5.85,7.95,10.03.59,3.74.1,7.63-1.83,10.77.65-.18,1.29-.57,1.93-1.28,4.9-3.31,6.35-9.09,5.48-14.56-1.74-5.91-6.78-10.96-13.13-11.69-4.76-.43-8.22,2.6-11.69,5.48" fill="#fddbbd"/>
        <path d="M135.42,657.54c9.04.07,15.35,1,15.35,1,11.29-27.12,15-46.46,15.88-59.09,1.16-19.1-2.69-38.24-13.31-53.73-3.07-3.97-9.37-9.68-16.92-12.39-11.28,16.96-18.07,38.9-18.07,62.87s6.4,44.61,17.07,61.35" fill="#fddbbd"/>
        <path d="M312.72,308.74c-3.02,9.55.16,20.05-4.13,29.13,5.57.63,11.14,1.9,16.39,4.13,6.21-9.55,14.01-21.49,8.12-33.27-5.09-4.3-17.51-11.61-20.37,0" fill="#f1c6a5"/>
        <path d="M273.09,304.92c-5.73,10.34,4.62,19.26,7.95,28.33,2.23,6.52,1.44,14.96-3.82,19.41-1.27,1.91-.95,4.94-3.81,5.41-15.12-14.4-28.02-11.14-34.7-5.73-2.86,3.19-5.89,6.37-5.72,10.67,0,3.5,2.71,6.05,5.72,7.32,10.51,2.07,21.33.16,30.88,4.62,1.6,2.71,3.03,6.68,4.62,9.87,4.93,3.97,9.87,8.44,13.05,13.38.32-3.35,1.91-6.85,4.14-8.76,4.77,3.18,7.48,8.44,9.55,13.37,2.55-1.27,5.89-3.98,9.55-4.3,2.71,2.39.48,5.25,1.12,8.44,8.12-2.55,26,2.95,33.59-20.22,5.09-3.18,12.25-3.02,18.46-4.62,4.94-2.22,11.94-1.27,14.49-7.96,1.91-4.94,3.18-10.34-1.12-14.48-8.92.32-13.95,5.78-30.56,8.28-1.27,1.59-.1,3.75-.8,4.3-16.62-41.29-46.79-28.33-57.77-27.53,3.98-2.71,8.59-3.97,13.05-5.41,1.91-11.46-.48-24.03-9.55-32.47-4.62-4.29-13.06-5.89-18.31-1.9" fill="#fddbbd"/>
        <path d="M333.09,347.42c4.45,4.77,8.76,9.55,11.46,15.28,8.28-3.35,19.74-12.26,20.22-22.6.8-5.09.48-10.83-2.71-14.8-1.59-3.02-4.94-3.18-7.95-3.5-6.53,8.76-10.98,19.74-21.01,25.63" fill="#f1c6a5"/>
        <path d="M310.49,370.33c1.59,7.01-2.07,12.74-5.72,17.99,3.66-2.22,5.89-5.25,7.95-8.91.8-3.18.48-7.64-1.12-9.55-.15.48-.79.48-1.12.48" fill="#1d1d1b"/>
        <path d="M273.09,304.92c-5.73,10.34,4.62,19.26,7.95,28.33,2.23,6.52,1.44,14.96-3.82,19.41-1.27,1.91-.95,4.94-3.81,5.41-.84,1.8-2.12,3.16-4.22,3.16-3.25,0-4.38-3-7.3-4.21-4.22-1.71-7.14-2.35-11.76-2.35-7.28,0-14.85,3.49-16.99,9.78.63,2.77,2.99,4.79,5.57,5.88,10.51,2.07,21.33.16,30.88,4.62,1.6,2.71,3.03,6.68,4.62,9.87,4.93,3.97,9.87,8.44,13.05,13.38.08-.78.21-1.55.41-2.32v-3.42c0-18.64,8.51-39.41,27.16-39.41h7.7c6.68,0,12.47,2.31,16.61,6.54-10.93-16.44-24.9-18.22-36.07-17.18-3.05,1.44-7.12.92-11.18,1.89-1.49.11-2.85.33-4,.41,1.44-.98,2.97-1.77,4.54-2.45.64-2.72.74-4.88.74-8.09,0-12.5-3.5-26.93-13.28-31.52-2.46.1-4.86.8-6.8,2.28" fill="#e8b998"/>
        <path d="M379.87,365.55c-.18-2.1-1-4.11-2.84-5.88-8.92.32-13.95,5.78-30.56,8.28-1.27,1.59-.1,3.75-.8,4.3-.29-.7-.57-1.39-.87-2.07-.03.29-.06.6-.06.95,0,.73.16,1.14.24,1.87,3.65,0,5.76.65,9.41.65,9.88,0,16.13-1.63,24.32-7.22.41-.28.8-.56,1.16-.87" fill="#e8b998"/>
        <path d="M315.56,339.02c3.21.72,6.37,1.68,9.42,2.98,6.21-9.55,14.01-21.49,8.12-33.27-3.63-3.06-10.99-7.66-15.94-5.84,2.27,1.21,4.36,2.71,5.82,3.94,5.67,11.34-1.34,22.82-7.41,32.18" fill="#fddbbd"/>
        <path d="M341.29,357.13c1.23,1.77,2.34,3.61,3.26,5.57,8.28-3.35,19.74-12.25,20.22-22.6.8-5.09.48-10.83-2.71-14.8-1.59-3.02-4.94-3.18-7.95-3.5-.56.76-1.11,1.53-1.65,2.31,2.7,3.93,2.94,9.29,2.19,14.11-.35,7.65-6.72,14.51-13.35,18.93" fill="#fddbbd"/>
        <path d="M229.3,339.11s-32.5,15.64-4.91,38.42c0,0-15.02-21.39,4.91-38.42" fill="#b5bbbc"/>
        <path d="M211.82,370.07c-11.86-11.8,2.05-20.8,2.05-20.8-21.44,10.16-2.05,20.8-2.05,20.8" fill="#b5bbbc"/>
        <path d="M138.73,523.93c-3.92,15.52-26.32,22.72-32.64-2.35-5.68-1.45-14.3-3.61-20.39-6.29,0,.43-5.16-6.27-10.64-5.7-.1-.04-.73-.64-1.8-1.64-2.09-.9-4.46-2.04-7.15-3.47-1.79,1.96-3.32,4.34-4.94,6.29-11.37,14.95-23.18,30.61-35.41,45.12,11.85,28.58,37.62,34.7,42.29,32.18,3.12-5.71,4.11-12.48,7.67-18.18-.26,14.71-2.13,30.69-2.27,47.14,2.8,4.52,9.16,4.05,13.75,6.01,35.66,6.54,73.13.85,102.46-18.56,4.51-2.52,2.14-7.18.91-10.37-6.49-17.14-11.08-35.11-15.09-53.21,17.38-3.87,35.03-6.3,52.14-11.64,0,0-3.8-38.01-14.65-52.91-3.22,1.05-6.42,2.2-9.59,3.39-.88,1.51-1.83,2.93-2.86,4.24-9.14,15.31-23.7,34.62-61.78,39.96" fill="#1d1d1b"/>
        <path d="M208.13,481.15c4.2,15.51,9.27,30.6,10.28,47.21,1.87.33,4.04.08,5.78-.48-1.14-17.19-5.04-33.27-11.56-48.39l-4.5,1.65Z" fill="#fff"/>
        <path d="M147.1,522.47c-.22,9.1-4.39,17.82-12.52,23.19-26.08,9.16-34.98-12.63-37.18-26.72-2.94-1.02-5.92-2.18-8.96-3.53,0,.28-3.24-2.65-7.02-4.66-1.51-.35-3.44-.94-5.84-1.86-.24-.01-.47,0-.7.02-.06-.02-.36-.25-.86-.67-1.52-.63-3.2-1.4-5.05-2.32-12.17,14.61-23.19,29.89-34.89,44.89,7.12,13.25,19.33,25.15,34.56,28.3l7.8-16.89,3.35-26.49c.87,24.68-1.72,49.02-3.45,73.95,67.14,20.32,112.03-13.19,112.03-13.19-6.75-17.86-17.04-56.56-16.89-57.43,0,0,30.56-6.39,44.46-9.6.14-16.31-5.5-31.99-9.56-47.36l-5.77,1.74c-8.39,14.01-26.87,32.5-53.51,38.61" fill="#702283"/>
        <path d="M99.5,519.66c1.64,9.81,6.03,18.96,15.05,24.21,19.43,6.87,29.57-8.97,30.64-20.98-1.53.31-3.09.59-4.67.81-2.02,14.13-12.01,15.84-18.7,17.27-7.6-1-15.56-6.47-18.48-20.14-1.27-.35-2.55-.75-3.84-1.17" fill="#fff"/>
        <path d="M30.44,560.87c8.02,11.67,19.09,21.97,32.88,25.39,2.74.33,3.66-2.83,4.12-4.4-14.19-4.87-27.74-14.77-35.13-29.04-1.91,2.12-5.58,5.38-1.87,8.05" fill="#fff"/>
        <path d="M76.28,612.45c-.59.85-.33,2.16-.35,3.17,20.47,9.45,48.9,8.79,70.92,3.69,15.07-4.06,30.29-8.13,42.59-18.31l-.4-2.16c-31.51,20.08-75.85,23.05-112.77,13.61" fill="#fff"/>
        <path d="M117.09,547.1c-12.88-3.42-18.08-17.85-19.7-28.15-2.94-1.02-5.92-2.18-8.96-3.53,0,.28-3.25-2.65-7.02-4.66-1.51-.35-10.6-3.9-12.45-4.82-12.17,14.61-23.19,29.89-34.89,44.89,4.1,7.62,9.88,14.8,16.95,20.11,15.34-15.12,28.55-35.87,28.55-35.87l-3.2,27.33,3.42-26.65c.87,24.68-1.72,49.02-3.45,73.95,18.78,5.68,35.82,7.15,50.64,6.32-17.93-21.78-15.18-49.67-9.88-68.93M211.7,501.38c-1.69-6.48-3.65-12.89-5.32-19.25l-5.77,1.74c-5.37,8.97-14.88,19.78-28.02,28l39.12-10.49Z" fill="#601c70"/>
        <path d="M76.28,612.45c-.59.85-.33,2.16-.35,3.17,16.22,7.48,37.44,8.62,56.5,6.24-1.58-1.5-3.05-3.03-4.41-4.58-17.54,1.11-35.37-.64-51.74-4.83" fill="#d7e8ee"/>
        <path d="M208.13,481.15c1.78,6.59,3.74,13.12,5.45,19.72l5.92-1.59c-1.81-6.78-4.11-13.37-6.87-19.78l-4.5,1.65Z" fill="#d7e8ee"/>
        <path d="M30.44,560.87c4.01,5.85,8.8,11.35,14.29,15.8,1.57-1.31,3.15-2.72,4.7-4.19-6.97-5.13-13-11.72-17.12-19.66-1.91,2.12-5.58,5.38-1.87,8.05" fill="#d7e8ee"/>
        <path d="M99.5,519.66c1.64,9.81,6.03,18.96,15.05,24.21,1.02.36,2,.65,2.98.9.44-1.48.93-2.94,1.45-4.39-6.67-1.9-13.08-7.58-15.65-19.55-1.27-.35-2.55-.75-3.84-1.17" fill="#d7e8ee"/>
      </g>
    </g>
  </g>
</svg>