<?xml version="1.0" encoding="UTF-8"?>
<svg id="b" data-name="Layer 2" xmlns="http://www.w3.org/2000/svg" xmlns:xlink="http://www.w3.org/1999/xlink" viewBox="0 0 99.83 99.83">
  <defs>
    <linearGradient id="d" x1="49.91" y1="99.83" x2="49.91" y2="0" gradientUnits="userSpaceOnUse">
      <stop offset="0" stop-color="#681eff"/>
      <stop offset="1" stop-color="#b858ff"/>
    </linearGradient>
  </defs>
  <g id="c" data-name="Layer 1">
    <g>
      <path d="M49.91,99.83C22.39,99.83,0,77.44,0,49.91S22.39,0,49.91,0s49.92,22.39,49.92,49.91-22.39,49.91-49.92,49.91ZM41.24,76.23c2.78.92,5.71,1.4,8.68,1.4,15.28,0,27.72-12.43,27.72-27.72,0-4-.87-7.95-2.52-11.55l-33.87,37.87ZM49.91,22.2c-15.28,0-27.72,12.43-27.72,27.72,0,4.21.97,8.35,2.8,12.1L59.19,23.79c-2.95-1.05-6.08-1.59-9.27-1.59Z" fill="url(#d)"/>
      <path d="M49.91,5.95C25.64,5.95,5.95,25.63,5.95,49.91s19.68,43.96,43.96,43.96,43.96-19.68,43.96-43.96S74.19,5.95,49.91,5.95ZM16.25,49.91c0-18.6,15.07-33.67,33.67-33.67,6.98,0,13.47,2.13,18.85,5.77l-44.47,49.72c-5.01-5.88-8.05-13.48-8.05-21.81ZM49.91,83.58c-6.78,0-13.07-2.02-18.35-5.46l44.36-49.59c4.79,5.82,7.66,13.26,7.66,21.38,0,18.6-15.07,33.67-33.67,33.67Z" fill="#212121"/>
    </g>
  </g>
</svg>