<?xml version="1.0" encoding="UTF-8"?>
<svg id="Layer_2" data-name="Layer 2" xmlns="http://www.w3.org/2000/svg" width="183.04" height="124.83" xmlns:xlink="http://www.w3.org/1999/xlink" viewBox="0 0 183.04 124.83">
  <defs>
    <linearGradient id="linear-gradient" x1="91.52" y1="0" x2="91.52" y2="124.83" gradientUnits="userSpaceOnUse">
      <stop offset="0" stop-color="#fff"/>
      <stop offset="1" stop-color="#a6d6f2"/>
    </linearGradient>
  </defs>
  <g id="Layer_2-2" data-name="Layer 2">
    <rect width="183.04" height="124.83" fill="url(#linear-gradient)"/>
    <g id="Layer_1-2" data-name="Layer 1-2">
      <g>
        <path d="M163.05,76.42c-7.66,3.62-94.87,35.89-110.72,42.03-2.95-5.26-26.09-62.04-29.2-67.08,15.77-5.29,109.49-41.06,111.2-42.42,1.58-1.24,25.12,56.16,28.71,67.47" fill="#87bcdd"/>
        <path d="M159.42,75.21c-7.65,3.62-94.87,35.89-110.72,42.03-2.95-5.26-26.09-62.04-29.2-67.08,15.77-5.3,109.49-41.08,111.2-42.43,1.58-1.24,25.12,56.16,28.71,67.47"/>
        <path d="M130.84,9.06c2.82,3.83,22.72,53.76,26.85,65.69-15.91,6.35-102.06,38.7-108.02,41.05-7.96-14.9-26.26-59.93-28.08-65.18,7.59-2.51,103.57-39.36,109.25-41.56" fill="#fff"/>
        <path d="M154.21,65.34c1.53,4,2.75,7.3,3.48,9.4-15.91,6.35-102.06,38.7-108.02,41.05-7.96-14.9-26.26-59.93-28.08-65.18,1.44-.49,6.07-2.2,12.67-4.68-.16,15.84,1.75,44.67,17.42,50.1,16.5,5.72,74.96-17.47,102.54-30.7" fill="#dadbe7"/>
        <path d="M95.59,47.27c1.31.5.57,3.07,1.96,3.48.25.57-.09,1.16.3,1.75.67-.63.68-1.92,1.73-2.19.73,1.46,1.44,2.89,2.51,4-1.37.06-2.52-1.24-2.64-2.92-1.07.52-.66,2.46-1.29,3.4-.92-.57-.88-2.11-1.42-3.08-.26,1.29.56,3.62-.88,4.07-1.44-.49-1.94-1.95-2.77-3.06.17-1.01-1.36-3.79-.35-4.32.67.92.49,2.71,1.16,3.63.83-.12,1.19-.71,2.03-.85.12-1.44-.9-2.91-.34-3.9M94.32,53.09c.35.8.77,1.5,1.67,1.73.09-.72.44-2.69-.32-2.96-.16.68-1.26.47-1.33,1.24"/>
        <path d="M83.98,52.61c-.71.26-.88-1.59-1.93-1.73-1.31-.16-2.13,1.21-2.26,2.74.66,1.24,2.47.57,3.69,1.02,1.7.62,3.56,3.72.9,4.44-1.44.4-5.06-.88-3.57-2.24.4,1.33,3.57,2.15,4.37.6-.4-1.17-.83-2-2.08-2.4-1.42-.45-3.25.21-3.82-.88-.45-.86.17-2.41.5-2.85,1.31-1.74,4.18-.88,4.24,1.28"/>
        <path d="M77.44,51.5c.04,1.07-2.19,1.39-3.08,2.35.9,2.3,3.18,5.4,1.49,7.95-1.46.39-2.82-.11-3.42-1.02-.01-.51.32-.66.52-.96.45.07.2.51.15.81.61.55,1.78.75,2.72.22.17-2.97-1.16-4.4-2.01-6.32-.97.14-1.22,1.49-2.43.98.34-1.22,1.8-1.69,2.81-2.35,1.01-.66,2.04-1.69,3.23-1.68"/>
        <path d="M90.9,51.26c.46-.06.77.02.68.52-.4,0-.77-.04-.68-.52"/>
        <path d="M91.89,53.68h.41c.12.82.91,1.59.86,2.15-.96.37-1.58-1.19-1.26-2.14"/>
        <path d="M91.52,56.25c-.82,1.09-1.31-.81-1.93-1.18-.58.2-.39,1.13-.93,1.37-.49.26-.82-.67-1.5-.65-.52.82.52,1.19.45,2.01-1.12-.17-1.47-1.83-.99-2.82.86-.05,1.34.26,1.78.65.32-.61.75-1.14,1.19-1.64,1.12.27,1.02,1.79,1.94,2.26"/>
        <path d="M68.54,54.76c.3.36-.4.61-.52.96-.26.86.1,2.31-.77,2.57-.5-1.13-.12-3.4,1.29-3.53"/>
        <path d="M65.7,56.16c.11.07.22.14.41.12.66,1.73.81,4.04,1.46,5.78.26.71.86,1.28.16,1.89-.88-1.11-1.06-2.95-1.57-4.43-.5.67-.42,1.89-.91,2.59-1.26-.31-1.74-1.42-2.62-2.11-.01,2.06,1.9,4.07.92,5.8-.99-2.41-1.41-5.42-2.05-8.21,1.68.61,1.73,2.9,3.32,3.59.91-1.18.49-3.66.86-5.01"/>
        <path d="M110.49,60.24c.36,1.5,2.64.4,3.67.2-.56,1.29-3.77,1.84-4.48.35-.3,2.46,2.75,5.4,1.08,7.81-.86,1.24-2.9.78-3.81-.34-.86-1.04-1.17-2.43-1.42-3.48,1.13,1.19,1.55,3.68,3.33,3.86,3.07.3.6-5.66.01-7.03-.66.49-1.65,1.17-2.85.72-.42-.55-.37-1.84-.04-2.43.66-.52,1.68-.7,2.7-.86.16.39.3.8.56,1.07.49-.62-.01-1.23.51-2.04.75-1.14,2.52-1.22,2.72-.05.21,1.37-1.36,1.38-2,2.2M110.34,59.43c.61-.26,1.23-.5,1.48-1.11-.34-.83-1.68.16-1.48,1.11M106.57,61.8c.55.27,1.06-.07,1.49-.3.09-.55.41-1.08.11-1.63-1.29-.12-2.01.83-1.59,1.92"/>
        <path d="M96.32,58.33c1.11.92,1.08,3.01,1.7,4.43,2.38.02,2.86-1.77,4.99-1.98.88,1.29,1.62,3.15,3.84,1.96-.55.71-2.47,1.14-3.26.46-.65.88-3.32,1.7-3.27-.35-.78.05-1.43.21-1.75.71.17,1.16,1.6,1.72,1.28,2.95-1.18-.49-1.34-2-2.23-2.8-.6.14-.83.61-1.34.83.14.72.66,1.06.98,1.6-1.47.76-.92-1.57-2.46-1.17,1.04-1.63-1.57-3.63-.77-5.38,1.07.91,1.04,2.96,1.84,4.15.61-.07.85-.51,1.48-.57-.25-1.63-1.33-3.12-1.03-4.85M102.22,61.6c-.34.34.29.29.15.81-.31,0-.63,0-.96.01-.22.42-.29.72.02,1.08,1.28.07,1.74-.62,1.59-1.92-.29-.29-.39.07-.81.01"/>
        <path d="M89.73,62.09c-.85-.34-.7-1.36-1.65-1.32-.78.02-1.63,1.64-1.73,2.46-.24,1.96.98,4.61,2.66,4.81,1.24.15,2.05-.56,3.66-1.01-.81,1.18-2.44,1.55-4.45,1.57-3.11-.44-3.49-8.87-.15-8.64.91.06,1.54.96,1.67,2.13"/>
        <path d="M91.16,66.39c-.35-.5-.55-1.28-.31-2.01.77-.21,1.32-.92,2.44-.58,2.39.72.27,4.29-2.13,2.6M91.55,65.3c-.02,1.08,1.72.91,2.18.36.17-1.52-1.89-1.43-2.18-.36"/>
        <path d="M80.13,64.96c1.64,1.16,1.94,3.68,3.62,4.8-.77.31-1.32-.49-1.92-.77-.36.99-1.11,1.89-2.28,1.79-2.47-.2-.9-4.41,1.58-2.72-.21-1.08-1.38-1.85-1.01-3.08M79.41,70.1c1.26.1,1.7-.57,1.74-1.65-1.34-.37-2.56.46-1.74,1.65"/>
        <path d="M111.65,65.09h.41c.73,1.14.78,2.64,1.29,3.89.56,1.41,1.8,2.4,1.96,3.74-1.06.46-.85-1.12-1.65-1.32-.24.3-.1.97-.25,1.36-1.98,1.88-5.57.17-4.25-2.23.49-.88,2.15-1.27,3.52-.73-.3-1.53-1.41-2.93-1.03-4.71M109.73,71.61c-.02,1.36,1.69,1.73,3.01.9.16-.55.22-1.19.24-1.89-1.24-.87-3.21-.29-3.25,1.01"/>
        <path d="M70.45,70.8c1.36.98,4.02.63,5.2,1.8-1.83.16-3.54-.65-5.31-.72-.3.55,1.16,1.84.17,2.29-.87-.71-.61-2.57-1.82-2.93.58-1.49-.72-2.89-1.57-3.76,1.14-1.67,6.34-1.62,6.39.56.04,1.44-1.92,2.1-3.08,2.75M68.49,67.32c.3,1.16.9,2,1.14,3.22,1.46-.55,2.9-1.11,3.21-2.76-.65-.92-3.12-1.02-4.35-.46"/>
        <path d="M102.41,72.54c.17-2.01-.85-4.95-2.4-4.69-2.03.34-.57,5.02-.02,6.62,1.46-.06,2.34-.67,2.96-1.54,2.11-.36,3.97.95,3.57,2.38-.29,1.04-2.5,1.37-3.92,1.14-.32-.4-.77-1.26-.44-1.89-.81.11-1.23.58-1.89.85.17.68.45,1.28.45,2.15-.12-.07-.25-.16-.27,0-.76-.1-.53-1.19-.85-1.74-.31-.15-.76.34-1.22-.11.9,3.18,1.68,6.22,1.12,9.44-2.04.39-3.99-.2-4.51-1.82,1.26.45,2.06,1.36,3.83,1.28.6-2.33-.1-5.17-.81-7.28-.67.32-1.89.4-2.71.19-1.03-.46-.75-2.34-1.41-2.81-2.33.35-.8,3.12-1.02,4.2-1.11-.65-1.01-2.54-2.5-2.8-.77.98.05,2.2.06,3.51-1.06.86-1.85,2.21-3.63,1.82-.75-.16-1.28-1.42-2.19-1.04-.16-.6.41-.5.67-.68-.4-1.19-.25-2.55.77-2.85,1.03-.3,2.54.86,2.47,1.72-.06.91-1.26.99-2.01,1.52.51,1.31,2.57.65,2.98-.32-.65-1.47-.14-2.69.06-4.33,1.06-.39,1.62.52,2.06,1.18.17-1.89,1.73-3.13,3.49-2.35-.39,1.65.45,3.16,2.09,2.66,1.18-1.17-.75-3.36-.07-4.45,1.04.26,1.03,1.59,1.13,2.81.41.32.51-.5,1.08-.42-.41-2.05-1.85-5.05-.67-7.01,1.63-2.7,5.71,2.64,3.76,4.66M103.38,73.46c-.01.53-1.01,1.75-.09,2.44.8.15,1.94-.29,2.57-.72-.22-1.19-1.09-1.72-2.47-1.72M85.96,79.58c.78-.22,1.63-.37,1.88-1.11-.6-1.48-2.67-.71-1.88,1.11"/>
        <path d="M77.22,69.2c-.06.99-1.34.83-1.74,1.52.93.67,2.33.52,3.27.62-1.47.78-3.72.37-4.63-.6.07-1.43,2.01-2.67,3.1-1.54"/>
        <path d="M107.96,71.63c-.39.25-1.12.17-1.21.7.11,1.07.77,1.59.86,2.69-1.5.36-2.52-5.01.35-3.38"/>
        <path d="M76.04,79.48c-.41-.98.2-2.59-1.01-3.22-3.07,2.72,1.58,11.44,4.86,6.27-.11-1.87-1.26-3.37-1.31-4.84,1.59.83,1.46,3.44,2.26,5.1.95-.75,1.23-2.31,1.57-3.27.87.25,1.03,1.23,1.67,1.73.52.29,1.79-.2,1.92.51-1.34.4-2.69.04-3.27-.75-.61.92-1.02,2.03-1.85,2.74-.35.35-.46-.34-.82-.39-.9.57-1.9,1.39-2.96,1.41-3.2,0-5.11-7.06-2.61-9.41,1.74.19,2.7,2.66,1.57,4.17"/>
        <path d="M104.8,46.82c-.27.04-.5.26-.75.53-.14.15-.26.29-.39.41-.14.12-.29.24-.46.27l-.19-.11c-.06-.29.04-.51.12-.7l.11-.26c.02-.07.04-.15.04-.24-.04-.09-.09-.11-.2-.11-.15,0-.32.04-.47.04h-.25l.12-.22c.4-.68.29-1.44-.47-1.49-.17-.21-.15-.31-.09-.4l.24-.2c-.06-.3-.22-.42-.44-.49-.11-.04-.24-.06-.36-.1-.12-.04-.26-.09-.39-.17-.09-.22-.06-.34,0-.44l.19-.21c.15-.17.16-.22.15-.27-.04-.19-.12-.25-.22-.3-.06-.02-.12-.05-.19-.07-.07-.02-.15-.06-.22-.11l-.04-.21c.49-.62.5-1.48-.3-1.64-.14-.35-.09-.52-.04-.68l.06-.22s.02-.12.02-.19c-.06-.1-.16-.14-.31-.14h-.29c-.1,0-.21,0-.32-.05l-.19-.07c.63-.82.27-1.53-.53-1.48-.19-.29-.16-.42-.11-.52l.16-.26c.11-.14.16-.21.11-.36-.05-.16-.14-.2-.27-.22l-.29-.04c-.11-.02-.24-.05-.36-.1-.05-.32.01-.44.09-.53l.22-.24c.14-.14.2-.22.16-.39-.04-.15-.12-.21-.26-.26l-.27-.07c-.11-.04-.22-.07-.34-.12-.1-.25-.06-.36,0-.46l.2-.21.15-.16c-.05-.34-.2-.39-.41-.42-.12-.02-.25-.04-.36-.06-.12-.04-.26-.09-.37-.2l.02-.22c.66-.47.31-1.16-.49-.85l-.2-.09c-.06-.16,0-.32.07-.45.04-.06.09-.12.14-.19l.15-.17c.22-.25.36-.45.31-.66-.06-.12-.16-.15-.36-.12l-.34.04c-.11,0-.25,0-.37-.05-.09-.26-.05-.37,0-.46.04-.07.1-.15.15-.22.1-.14.15-.22.1-.37l-.25-.06c-.27.04-.41.06-.53.02-.15-.02-.26-.12-.34-.3l.07-.19c.37-.19.85-.51.9-.92l-.15-.21c-.11-.09-.22-.19-.25-.46v-.19l.17.02c.3.05.68-.01.95-.16.24-.14.34-.32.16-.6l.07-.22c.35-.14.58.01.76.15l.22.19s.11.06.17.06c.25-.15.26-.42.22-.81.22-.19.32-.19.42-.15l.22.11c.11.07.17.11.26.09.11-.07.16-.17.2-.31.04-.15.05-.32.07-.49.41-.16.61-.02.76.11l.21.2c.36-.1.44-.37.49-.71.44-.24.67-.02.82.11l.2.19.21-.26.09-.32c.05-.11.12-.22.24-.31.19-.05.3-.02.39.02l.2.16c.17.14.2.15.22.15.06-.09.1-.19.12-.32.02-.16.04-.35.06-.51.29-.1.37-.06.46-.02l.24.11c.12.06.24.12.35.15.06-.11.12-.22.17-.34.06-.15.12-.31.19-.47.34-.19.51-.09.65,0,.19.11.22.11.26.11.14-.07.22-.17.29-.3.04-.06.07-.12.1-.2l.09-.22c.34-.12.5-.05.62.02l.17.11c.22.02.24-.02.24-.1,0-.05,0-.12-.01-.2,0-.09-.02-.17-.02-.25l.29-.21c.15.04.25.09.32.15l.22.17c.12.1.24.17.36.17.14-.06.19-.15.21-.29l.04-.26c.01-.09.04-.2.09-.3.37-.12.49-.01.53.15.05.19.07.22.1.24.1.11.27.12.58.02.3-.1.63-.26.93-.36l.19.09c.17.47.12.67-.06,1.02.05.11.14.14.26.12.2-.01.42-.09.62-.1.2.29.17.44.14.57-.04.12-.09.24-.14.35-.09.19-.15.36-.04.62.02,0,.09.02.2,0,.14-.04.3-.12.44-.16l.17.06c.09.15.07.3.02.44-.02.06-.06.12-.1.19l-.12.17-.11.16c-.14.25-.15.34-.15.42.09.11.22.15.41.16h.34c.11,0,.24.02.36.07l.22.09-.17.16c-.22.21-.34.6-.29.88.05.24.21.42.68.26l.46-.16-.29.39c-.19.26-.39.73-.39,1.08,0,.27.12.51.71.36l.2-.05v.21c-.02.14-.06.26-.1.37l-.12.32c-.07.2-.14.37-.09.6.27.1.41.09.52.1.09.52,0,.9-.26,1.19.14.49.35.61.68.49l.2.1c.07.3-.02.53-.11.71-.04.09-.09.16-.11.26-.02.07-.04.15-.04.22.05.11.12.15.24.19.07.02.15.04.22.06.09.02.17.07.25.16-.31.68.1,1.57.61,1.44l.24-.06-.06.24c-.1.39-.2.77-.22,1.19.07.1.16.15.27.19.06.02.14.02.21.04h.25l.19.02-.05.17c-.17.65.16,1.31.68,1.57-.29,1.94.15,2.45,1.06,2.7l.04.27.1.22c-.3.09-.45.11-.6.11h-.26c.14.19.17.26.19.34l.06.29-.27-.12.2.31-.34-.06c-.12-.02-.25-.06-.35-.11l-.3-.15c-.17-.09-.32-.16-.5-.17-.06.09-.1.2-.12.32-.04.16-.04.34-.07.5-.22.15-.32.14-.41.1l-.2-.12c-.11-.07-.16-.11-.25-.09-.32.09-.44.26-.5.47-.04.11-.06.24-.09.36-.02.12-.06.27-.12.4l-.09.2c-.76-.8-1.47-.67-1.53.12l-.02.27-.22-.16c-.49-.37-1.09-.02-1.19.62l-.05.3-.21-.22c-.5-.52-1.43-.16-1.24.61l.05.22-.22-.05c-.12-.02-.24-.06-.35-.11l-.3-.12c-.17-.07-.35-.12-.55-.12-.2.22-.32.45-.29.73l.04.35-.27-.21c-.65-.5-1.68-.37-1.7.55v.26l-.22-.14c-.3-.2-.65-.29-1.09-.19-.09.05-.12.12-.15.26-.01.07-.04.16-.06.24-.04.09-.09.17-.17.25-.15.06-.3.07-.39-.04l-.06-.25v-.14h.04Z"/>
        <path d="M97.25,27.62c1.7,5.22,4.54,11.57,6.81,17.82,4.24-1.47,9.38-3.62,12.6-4.73-2.24-6.03-4.48-12.21-6.83-18.07-4.51,1.55-8.59,3.31-12.6,4.97" fill="#fff"/>
        <path d="M105.09,23.12c-.07.34-.21.66-.53.88-.81-.27-.8-.05-1.31.58-.32.02-.47-.27-.77-.3.02.77-.91.8-1.33.51-.14.31-.32.6-.73.78-.3-.04-.42-.46-.8-.37.06.32-.12.53-.34.72-.31.17-.4-.09-.67,0-.19.22-.14.56-.51.7-.34.21-.39-.2-.7-.07-.15.34-.67.58-1.03.65.2.56-.22.81-.34,1.22.61.07.45.75.41,1.19,1.16-.25.91,1.07.46,1.59.9-.21.85.81.63,1.37.8-.1.99.8.73,1.41.61.06.97.95.49,1.42.63.29.85,1.09.49,1.67.76,0,1.09.86.83,1.46.27.11.61.09.8.37.02.36-.04.7-.06,1.03.66.12,1.13,1.34.44,1.78.36.39.57.39.63.86.04.29-.25.53-.2.66.17.39.83.1.97.65-.14.86.96,1.07.63,2.11.27.1.46.4.65.68.93-.45,1.72-.8,2.69-.68.1-.83,1.37-1.02,1.88-.63-.02-.88,1.17-.75,1.65-.55-.16-.67,1.02-1.14,1.48-.82.24-.44.93-.85,1.46-.63.02-.35.4-.52.66-.76.46-.2.63.37.99.21.19-.07.58-1.47,1.43-.97-.05-.3.21-.45.26-.7-4.58,1.84-7.54,2.89-12.65,4.83-1.55-4.6-3.66-9.76-5.38-14.31-.49-1.27-1.62-3.43-1.33-4.39,4.37-1.73,8.92-3.61,12.95-5.2,2.5,6.02,4.75,12.72,7.23,18.5-.14.25-.5.4-.71.61.47-.17.77,0,1.12.09-.06-.21.02-.37.27-.45-1.33-1.68-.25-1.77-.6-2.47-.21-.42-1.02-.68-.76-1.48-.75.01-1.03-1.06-.73-1.67-.58-.09-.78-1.01-.71-1.59-.66-.12-.85-.95-.61-1.54-.65-.14-.67-1.21-.49-1.67-.14-.21-.39-.21-.5-.49,0-.37.04-.73.14-1.07-.83-.09-.95-1.11-.58-1.72-.63,0-.72-.93-.56-1.39-.72.07-1.11-.81-.73-1.41-.63-.09-.58-1.02-.51-1.49-.25-.07-.57.02-.75-.22-.19-.34-.06-.53-.11-.81-.53.14-1.07.3-1.46.14-.15.16-.3.32-.51.45-.34.02-.56-.19-.9-.16.09.25-.11.36-.35.47-.29,0-.53-.06-.75-.22-.12.49-.93.96-1.38.61" fill="#b7dae1"/>
        <path d="M115.83,40.32c-3.07,1.09-7.52,2.92-11.37,4.29-2.15-5.82-4.74-11.68-6.4-16.61,3.64-1.52,7.36-3.1,11.42-4.53,2.18,5.47,4.28,11.22,6.35,16.85" fill="#c75333"/>
        <path d="M101.98,29.56c.19,0,.52-.29.76-.41-.07-.35-.3-.39-.42-.63.2-.22.62-.49.91-.52.15.29.17.52.16.73.14.16.56-.15.87-.15.1-.21-.19-.39-.22-.58.26-.14.68-.3.97-.37.1.25.06.45.14.68.16.07.37.04.57.02.15-.2.07-.5.07-.76.27-.09.4.16.63.19.2.3-.06.39.06.65,2.19-.57,4.13.25,4.6,2.84-.4.7.02,1.31.15,2.15.67,0,.96,1.12,1.07,1.8-.31.8-1.75,1.58-2.66,1.26-.09.32.41.82.55,1.26.58.06,1.5-.17,1.78.3.2.32-.07.87-.3,1.16-.52.65-1.59,1.14-2.2,1.64-1.02.83-1.04,1.77-1.75,2.33.01-1.67.49-3.12,1.16-4.49-.21-.39-.42-.78-.67-1.09-.52.36-.78.93-1.34.99-.88.1-1.74-1.03-2.72-.98-.15-.35.02-.55-.1-.88-.62.04-1.33.25-1.64-.41.51-.45,1.09-.75.93-1.41-.12-.56-.83-1.04-.71-1.69-.71.12-1.48.24-1.73-.32-.3-.68.55-1.39.99-1.9-.1-.3-.26-.49-.4-.71-.06-.01-.27.11-.45.11-.2-.11-.4-.45-.46-.56,0-.2.14-.32.25-.46-.16-.44-.56-.35-.66-.91.21-.41.75-.95,1.22-.52.35.7.34.92.58,1.68"/>
        <path d="M101.43,32.94s.78.2,1.5-.22c.73-.42,1.29-1.13,1.29-1.13,0,0,.4.76.93.83s2.13,0,2.13,0l.96.45s.36,1.83,1.12,2.35.93.71,1.41.45c.47-.25.75-1.36.62-1.69-.12-.32-.4-.34-.4-.34,0,0,.06-.37-.1-.78-.15-.4-.4-.65-.4-.65,0,0,.41-1.02-.45-1.7-.86-.68-2.39-.52-3.2-.32s-3.44.63-3.83.8c-.4.17-.5.11-.82.55-.32.45-.77,1.39-.77,1.39" fill="#ae482a" fill-rule="evenodd"/>
        <path d="M107.84,35.97c.17-.02.17-.12.3-.17-.02-.12-.09-.2-.16-.25-.17.09-.17.25-.15.42" fill="#fbc0aa"/>
        <path d="M107.89,35.28c-.09-.15-.21-.2-.37-.16.02.27.26.37.37.16" fill="#e7855d"/>
        <path d="M102.89,33.02c-.1.78.68,1.29.8,1.9.12.67-.5.88-.81,1.41.36.25.92.06,1.42,0,.12.36-.04.61.14.99.85.1,1.24-.9,1.67-1.12-.12.51-.49.91-.92,1.27.53.39,1.13.65,1.78.78.58-.31.76-.81,1.36-1.13.45.44.71.97.98,1.58-.82.9-.87,2.13-1.14,3.26.39-.39.61-.93,1.14-1.36.93-.76,2.43-1.22,2.39-2.44-.41-.2-.87-.31-1.46-.11-.42-.31-.91-1.22-.93-1.79-.42-.17-.67-.75-1.07-1.01.5.34-.2,1.29-.7.76-.01-.9-.5-1.38-.92-2.54-1.17.3-1.79-.66-2.46-1.44-.27.37-.76.67-1.23.96" fill="#f3a982"/>
        <path d="M102.75,32.21c.34.16.7-.42.95-.42.02.45-.9.49-.87.95.85-.41,1.5-.9,1.65-1.62-.65-.22-1.48.53-1.73,1.09" fill="#e7855d"/>
        <path d="M110.54,31.94c.3-.17.07-1.43-.22-2-.72-1.39-2.7-1.77-3.72-1.16.2.63,1.67.37.91,1.07-.8.1-2.69.19-3.71.62-.51.21-1.23.29-1.6.49-.55.31-1.31,1.24-1.03,1.8.22.46.82.37,1.47.11,0-.3.05-.44-.2-.66.37-.68,1.29-1.55,2.2-1.33.17.44-.09.67-.25.96.7,1.48,2.14,1.77,3.64,1.12-.17.29-.86.36-1.12.61.36.92.87,1.5,1.67,1.44.55,1.52,2.49,1.55,3.38.3-.04-.46-.15-1.09-.47-1.53-.83-.58-1.98,1.22-.76,1.39.22-.21-.22-.45-.15-.56,1.38.46-.61,1.54-.75-.02-.05-.53.67-.95,1.13-1.23-.04-.65-.58-1.47-1.16-1.39-1.14.15-1.04,1.89.12,1.43-.04-.3-.34-.51-.3-.62.42,0,.72.6.44.81-.76.57-1.92-.56-1.16-1.39-1.04,1.08-2.6-.83-1.11-1.42-.12.37-.53.52-.45.91.21.98,2.08.61,1.7-.52-.42.02-.5.3-.57.58-.07.02-.14.05-.21.09-.02-.07-.07-.11-.11-.14.05-1.16,1.92-.67,1.03.29.42-.57,1.11.12,1.34-.02" fill="#f3a982"/>
        <path d="M105.42,28.93c.21-.05.2-.21.24-.34-.16.07-.24-.07-.42.04.02.17.15.12.17.3" fill="#e7855d"/>
        <path d="M102.3,29.94c.26.29.65-.15.51-.44-.11,0-.62.2-.51.44" fill="#e7855d"/>
        <path d="M104.24,28.89c-.17-.12-.47.07-.75.16.09.75,1.02.39.75-.16" fill="#e7855d"/>
        <path d="M101.35,30c-.09-.14-.19-.25-.27-.39l-.16.06c.07.27.22.36.44.32" fill="#e7855d"/>
        <path d="M101.35,28.89c-.04.15-.25.21-.22.39.39.4.67,1.03,1.04,1.44,1.65-.61,3.15-.92,4.86-1.12.04-.21-.37-.2-.6-.45-.35-.36-.4-.81-.35-1.22-.26.41,0,1.07-.67,1.29-.35-.07-.6-.81-.66-1.22-.5.06-.3.44-.2.75,0,1.38-1.47,1.22-1.54-.32-.53.07-.07.51-.02.75.11.44.06.86-.42,1.14-.67.06-.9-1.03-1.23-1.43" fill="#f3a982"/>
        <path d="M100.79,28.87c.63-.07.63-.73.21-.88-.51.2-.68.6-.21.88" fill="#e7855d"/>
        <path d="M104.79,33.33c-.4.19-.99,0-1.44.25.11-.5,1.18-.63,1.44-.25"/>
        <path d="M105.1,34.14c-.01.06-.37.09-.57.1-.1.1.11.35.12.5-.29.19-.45-.1-.57-.52-.11-.05-.36.24-.46-.07.47-.49,1.13-.39,1.48,0"/>
        <path d="M102.89,33.02c.47-.29.96-.58,1.23-.96.68.8,1.29,1.74,2.46,1.44.42,1.16.91,1.63.92,2.54.49.53,1.19-.42.7-.76.39.26.65.82,1.07,1.01.04.57.51,1.48.93,1.79.6-.2,1.04-.09,1.46.11.05,1.22-1.44,1.69-2.39,2.44-.52.42-.75.97-1.14,1.36.27-1.13.32-2.36,1.14-3.26-.27-.61-.53-1.16-.98-1.58-.35.19-.56.44-.78.68.72-.95-.87-1.55-1.31-2.15-.53-.75-.29-1.21-.91-1.9-.63-.71-1.96-.52-1.96-.52l-.42.11c.11.61.7,1.04.78,1.57.12.67-.5.88-.81,1.41.24-.02.52-.1.77-.19.46-.17.87-.4.87-.4,0,0,.34.65-.16,1.12,0-.16.01-.32-.05-.52-.5.06-1.04.24-1.41,0,.3-.55.92-.75.8-1.42-.1-.52-.68-.97-.78-1.57-.02-.1-.02-.21,0-.34" fill="#e7855d"/>
        <path d="M102.53,32.3c.15.17.1.31.11.57-.4.16-.8.26-1.08.19.06-.11.19-.22.41-.29.26-.07.44-.26.55-.47M104.54,32.11c-.05-.09-.1-.19-.15-.29.16-.29.42-.52.25-.96-.73-.19-1.48.35-1.93.93.09-.3.14-.58.25-.7.26-.25,1.47-.7,1.95-.53s.1.63,0,.96c-.06.24-.35.37-.39.58M108.04,32.96c-.14.06-.29.11-.42.16-.17,0-1.32-.09-1.75-.27-.47-.21-.42-.92-.42-.92,0,0,.44.57.9.85s1.18-.14,1.18-.14c0,0-1.02-1.08-.35-2.01s1.8-.09,1.68-.42c-.1-.25-1.48-.98-2.21-1.36v-.04c.99-.61,2.97-.24,3.69,1.16.3.57.51,1.83.21,2-.22.14-.86-.49-1.28-.05.71-.91-1.06-1.33-1.09-.2.05.04.09.06.11.14l.21-.09c.07-.29.16-.56.57-.58.37,1.14-1.49,1.5-1.7.52-.09-.39.32-.53.45-.91-1.49.58.06,2.5,1.11,1.42-.76.83.4,1.96,1.16,1.39.29-.21-.01-.82-.44-.81-.04.11.27.32.3.62-1.16.47-1.27-1.28-.12-1.43.57-.07,1.11.75,1.16,1.39-.46.29-1.18.7-1.13,1.23.14,1.57,2.13.49.75.02-.07.11.37.35.15.56-1.22-.16-.09-1.96.76-1.39.32.44.42,1.08.47,1.53-.36.51-.9.81-1.44.87-.25-.07-.53-.19-.8-.4-.81-.63-.27-1.16-.27-1.16,0,0-.83.14-1.64-.68-.31-.31-.41-.51-.41-.63.26-.1.53-.19.65-.36" fill="#e7855d"/>
        <path d="M109.66,25.22c-.05-.12-.12-.16-.22-.12-.09.04-.19.12-.3.25.02.1.05.21.1.35l.11.35c.14-.09.24-.21.3-.36.06-.15.06-.3,0-.45M109.88,25.15c.09.21.07.41-.02.63-.09.19-.22.35-.42.49l.16.41c.07.2.07.32-.02.36-.06.02-.11-.02-.16-.16-.02-.05-.15-.42-.39-1.13l-.1-.26c-.04-.1-.05-.19-.06-.27-.01-.1,0-.15.05-.17.05-.02.1,0,.15.04.09-.1.19-.16.31-.21.24-.09.41,0,.51.27M108.04,25.32l-.17.56c.07-.04.17-.09.31-.16-.01-.05-.04-.12-.06-.2-.04-.1-.06-.16-.07-.2M108.67,25.58s0,.11-.05.16c-.02.01-.07.05-.16.09l.26.66v.11s-.04.07-.06.09c-.06.02-.15-.09-.24-.32l-.04-.12-.04-.12-.07-.17-.31.14c-.12.06-.22.1-.31.14-.05.02-.09.01-.1-.02v-.11s.05-.14.11-.35l.25-.72c.04-.11.07-.17.12-.19s.09.02.12.12c.02.07.07.19.12.34l.12.34c.06-.04.11-.06.14-.07.07-.02.12-.01.15.05M107.65,26.93s0,.06-.05.1c-.04.02-.07.05-.11.06-.04,0-.09.02-.15.04s-.12.02-.15.04c-.14.05-.25.1-.35.16-.07.05-.12.07-.14.09-.07.02-.12.02-.14-.01-.02-.06,0-.2.07-.44.12-.36.19-.58.2-.66.06-.26.06-.46.01-.58-.05-.14-.15-.16-.31-.1-.11.04-.19.11-.24.2-.02.05-.05.12-.07.24-.02.09-.05.12-.09.14-.05.01-.07,0-.1-.07-.05-.14-.02-.29.1-.45.1-.14.24-.25.39-.3.1-.04.21-.04.32.01.11.05.19.12.22.22.07.19.07.44,0,.73l-.22.73c.16-.09.27-.12.31-.15.07-.02.16-.05.26-.06.14-.02.21,0,.24.04" fill="#fff" fill-rule="evenodd"/>
        <path d="M123.11,39.3c-.27.04-.5.26-.75.53-.14.15-.26.29-.39.41-.14.12-.29.24-.46.27l-.19-.11c-.06-.29.04-.51.12-.7l.11-.26c.02-.07.04-.15.04-.24-.04-.09-.09-.11-.2-.11-.15,0-.32.04-.47.04h-.25l.12-.22c.39-.68.29-1.44-.47-1.49-.17-.21-.15-.31-.09-.4l.24-.2c-.06-.3-.22-.42-.44-.49-.11-.04-.24-.06-.36-.1s-.26-.09-.39-.17c-.09-.22-.06-.34,0-.44l.19-.21c.15-.17.16-.22.15-.27-.04-.19-.12-.25-.22-.3-.06-.02-.12-.05-.19-.07-.07-.02-.15-.06-.22-.11l-.04-.21c.49-.62.5-1.48-.3-1.64-.14-.35-.09-.52-.04-.68l.06-.22s.02-.12.02-.19c-.06-.1-.16-.14-.31-.14h-.29c-.1,0-.21,0-.32-.05l-.19-.07c.63-.82.27-1.53-.53-1.48-.19-.29-.16-.41-.11-.52l.16-.26c.1-.14.16-.21.11-.36-.05-.16-.14-.2-.27-.22l-.29-.04c-.11-.02-.24-.05-.36-.11-.05-.31.01-.44.09-.53l.22-.24c.14-.14.2-.21.16-.39-.04-.15-.12-.21-.26-.26l-.27-.07c-.11-.04-.22-.07-.34-.12-.1-.25-.06-.36,0-.46l.2-.21.15-.16c-.05-.34-.2-.39-.41-.42-.12-.02-.25-.04-.36-.06-.12-.04-.26-.09-.37-.2l.02-.22c.67-.47.31-1.16-.49-.85l-.19-.09c-.06-.16,0-.32.07-.45.04-.06.09-.12.14-.19l.15-.17c.21-.25.36-.45.31-.66-.06-.12-.16-.15-.36-.12l-.34.04c-.11,0-.25,0-.37-.05-.09-.26-.05-.37,0-.46.05-.07.1-.15.16-.22.1-.14.15-.22.1-.37l-.25-.06c-.27.04-.41.06-.53.02-.15-.04-.26-.12-.34-.3l.07-.19c.37-.2.85-.51.9-.92l-.15-.21c-.11-.09-.22-.2-.25-.46v-.19l.17.02c.3.05.68-.01.95-.16.24-.14.34-.32.16-.6l.07-.22c.35-.14.57.01.76.15l.22.19s.11.06.17.06c.25-.15.26-.42.22-.81.22-.19.32-.19.42-.15l.22.11c.11.07.17.11.26.09.11-.07.16-.17.2-.3.04-.15.05-.32.07-.49.41-.16.61-.02.76.11l.21.2c.36-.1.44-.37.49-.71.44-.24.67-.02.82.11l.2.19.21-.26.09-.32c.05-.11.12-.22.24-.31.19-.05.3-.02.39.02l.2.16c.17.14.2.15.22.15.06-.09.1-.19.12-.32.02-.16.04-.35.06-.51.27-.1.37-.06.46-.02l.24.11c.12.06.24.12.35.15.06-.11.12-.22.17-.34.06-.15.12-.31.19-.47.34-.19.51-.1.65,0,.19.11.22.11.26.11.14-.07.22-.17.29-.3.04-.06.06-.12.1-.2l.09-.22c.34-.12.5-.05.62.02l.17.11c.22.02.24-.02.24-.1,0-.05,0-.12-.01-.2,0-.09-.02-.17-.02-.25l.29-.21c.15.04.25.09.32.15l.22.17c.12.1.24.17.36.17.14-.06.19-.16.21-.29l.04-.26c.01-.09.04-.2.09-.3.37-.12.49-.01.53.15.05.19.07.22.1.24.1.11.27.12.58.02.3-.1.63-.26.92-.35l.19.09c.17.47.12.67-.06,1.02.05.11.14.14.26.12.2-.01.42-.09.62-.1.2.29.17.44.14.57-.04.12-.09.24-.14.35-.09.2-.15.36-.04.62.02,0,.09.02.2,0,.14-.04.3-.12.44-.16l.17.06c.09.15.07.3.02.44-.02.06-.06.12-.1.19l-.12.17-.11.16c-.14.25-.15.34-.15.42.09.11.22.15.41.16h.32c.11,0,.24.02.36.07l.22.09-.17.16c-.22.21-.34.6-.29.88.05.24.21.42.68.26l.46-.16-.29.39c-.19.26-.39.73-.39,1.08,0,.27.12.51.71.36l.2-.05v.21c-.02.14-.06.26-.1.37l-.12.32c-.07.2-.14.37-.09.6.27.1.41.07.52.1.09.52,0,.9-.26,1.19.14.49.35.61.68.49l.2.1c.07.3-.02.52-.11.71-.04.09-.09.16-.11.26-.02.07-.04.15-.04.22.05.11.12.15.24.19.07.02.15.04.22.06.09.02.17.07.25.16-.31.68.1,1.57.61,1.44l.24-.06-.06.24c-.1.39-.2.78-.22,1.19.07.1.16.15.27.19.06.02.14.04.21.04h.25l.19.02-.05.17c-.19.65.16,1.31.68,1.57-.29,1.94.15,2.45,1.06,2.7l.04.27.1.22c-.3.09-.45.11-.6.11h-.26c.14.19.17.26.2.34l.06.29-.27-.12.2.31-.35-.06c-.12-.02-.25-.06-.35-.11l-.3-.15c-.17-.09-.32-.16-.5-.17-.06.09-.1.2-.12.32-.04.16-.04.34-.07.5-.22.15-.32.14-.41.1l-.2-.12c-.1-.07-.16-.11-.25-.09-.32.09-.44.26-.51.47-.04.11-.06.24-.09.36s-.06.27-.12.4l-.09.2c-.76-.78-1.47-.67-1.53.12l-.02.27-.22-.16c-.5-.37-1.09-.02-1.19.62l-.05.3-.21-.22c-.5-.52-1.43-.16-1.24.61l.05.22-.24-.05c-.12-.02-.24-.06-.35-.11l-.3-.12c-.19-.07-.35-.12-.55-.12-.2.22-.32.45-.29.73l.04.35-.27-.21c-.65-.5-1.68-.37-1.7.55v.26l-.22-.14c-.3-.2-.65-.29-1.09-.19-.09.05-.12.12-.15.26-.01.07-.04.16-.06.24-.04.09-.09.17-.17.25-.15.06-.3.07-.39-.04l-.06-.25v-.14h.06Z"/>
        <path d="M115.57,20.11c1.7,5.22,4.54,11.57,6.83,17.81,4.24-1.47,9.38-3.62,12.6-4.73-2.23-6.03-4.48-12.21-6.83-18.07-4.5,1.55-8.59,3.31-12.6,4.97" fill="#fff"/>
        <path d="M123.41,15.6c-.07.34-.21.66-.53.88-.81-.27-.8-.05-1.31.58-.31.02-.47-.27-.77-.3.02.77-.91.8-1.33.51-.14.31-.32.6-.73.78-.3-.04-.42-.46-.8-.37.06.32-.12.53-.34.72-.31.17-.4-.09-.67,0-.19.22-.14.56-.51.7-.34.21-.39-.2-.7-.07-.15.34-.67.58-1.03.65.2.56-.22.81-.34,1.22.61.07.45.75.41,1.19,1.14-.25.91,1.07.46,1.59.9-.21.86.81.63,1.37.8-.1.99.8.73,1.41.61.06.97.95.49,1.42.63.29.85,1.09.49,1.67.76,0,1.09.86.83,1.46.27.1.61.09.8.37.02.36-.04.7-.06,1.03.66.12,1.13,1.34.44,1.78.36.39.57.39.63.86.04.29-.25.53-.19.66.17.39.83.1.97.65-.14.86.96,1.07.63,2.11.27.1.46.4.65.68.93-.45,1.72-.8,2.7-.68.1-.83,1.37-1.02,1.88-.63-.02-.88,1.17-.75,1.65-.55-.16-.66,1.02-1.14,1.48-.82.24-.44.93-.85,1.46-.63.02-.35.4-.52.66-.76.46-.2.63.37.99.21.19-.07.58-1.47,1.43-.97-.05-.3.21-.45.26-.7-4.58,1.84-7.54,2.89-12.65,4.83-1.55-4.6-3.64-9.76-5.37-14.31-.49-1.27-1.62-3.43-1.33-4.39,4.37-1.73,8.92-3.61,12.95-5.2,2.5,6.02,4.75,12.72,7.23,18.5-.14.25-.5.4-.71.61.47-.17.77,0,1.12.09-.06-.21.02-.37.27-.44-1.33-1.68-.25-1.77-.6-2.47-.21-.42-1.02-.68-.76-1.48-.75.01-1.02-1.06-.73-1.67-.58-.09-.77-1.01-.71-1.59-.66-.12-.85-.95-.61-1.54-.65-.14-.67-1.21-.49-1.67-.14-.21-.39-.21-.5-.49,0-.37.04-.73.14-1.07-.83-.09-.95-1.11-.58-1.72-.63,0-.72-.93-.56-1.39-.72.07-1.11-.81-.73-1.41-.63-.09-.58-1.02-.51-1.49-.25-.07-.57.02-.75-.22-.19-.34-.06-.53-.1-.81-.53.14-1.07.3-1.46.14-.15.16-.3.32-.51.45-.34.02-.56-.19-.9-.16.09.25-.11.36-.35.47-.29,0-.53-.06-.75-.22-.12.49-.93.96-1.38.61" fill="#b7dae1"/>
        <path d="M134.15,32.8c-3.07,1.09-7.52,2.92-11.37,4.29-2.16-5.82-4.74-11.68-6.4-16.61,3.64-1.52,7.35-3.1,11.42-4.53,2.18,5.47,4.28,11.22,6.35,16.85" fill="#c75333"/>
        <path d="M120.3,22.05c.19,0,.52-.29.76-.41-.07-.35-.3-.39-.42-.63.2-.22.62-.49.91-.52.15.29.16.52.16.73.14.16.56-.15.87-.15.1-.21-.19-.39-.22-.58.26-.14.68-.3.97-.37.1.25.06.45.14.68.16.07.37.04.56.02.15-.2.07-.5.07-.77.27-.09.4.16.62.19.2.3-.06.39.06.65,2.19-.57,4.13.25,4.61,2.84-.4.7.02,1.31.15,2.15.67,0,.96,1.12,1.07,1.8-.31.8-1.75,1.58-2.66,1.26-.09.32.41.82.55,1.26.58.06,1.5-.17,1.78.3.2.32-.06.87-.3,1.16-.52.65-1.59,1.14-2.2,1.64-1.02.83-1.04,1.77-1.75,2.33.01-1.67.49-3.12,1.16-4.49-.21-.39-.42-.78-.67-1.09-.52.36-.78.93-1.34.99-.88.1-1.74-1.03-2.72-.98-.15-.35.02-.55-.1-.88-.62.04-1.33.25-1.64-.41.51-.45,1.09-.75.93-1.41-.12-.56-.83-1.04-.71-1.69-.71.12-1.48.24-1.73-.32-.3-.68.55-1.39.99-1.9-.1-.3-.26-.49-.4-.71-.06-.01-.27.11-.45.11-.2-.11-.4-.45-.46-.56,0-.2.14-.32.25-.46-.16-.45-.56-.35-.66-.91.21-.41.75-.95,1.22-.52.35.7.34.92.58,1.68"/>
        <path d="M119.75,25.42s.78.2,1.5-.22c.73-.42,1.29-1.13,1.29-1.13,0,0,.4.76.93.83s2.13,0,2.13,0l.96.45s.36,1.83,1.12,2.35.93.71,1.41.45c.47-.25.75-1.36.62-1.69-.12-.32-.4-.34-.4-.34,0,0,.06-.37-.1-.78-.15-.4-.4-.65-.4-.65,0,0,.41-1.02-.45-1.7-.86-.68-2.39-.52-3.2-.32s-3.44.62-3.83.8c-.4.17-.5.11-.82.55s-.77,1.39-.77,1.39" fill="#ae482a" fill-rule="evenodd"/>
        <path d="M126.15,28.44c.17-.02.17-.12.3-.17-.02-.12-.09-.2-.16-.25-.17.09-.17.25-.15.42" fill="#fbc0aa"/>
        <path d="M126.19,27.76c-.09-.15-.21-.2-.37-.16.02.27.26.37.37.16" fill="#e7855d"/>
        <path d="M121.19,25.5c-.1.78.68,1.29.8,1.9.12.67-.5.88-.81,1.41.36.25.92.06,1.42,0,.12.36-.04.61.14.99.85.1,1.24-.9,1.67-1.12-.12.51-.49.91-.92,1.27.53.39,1.13.65,1.78.78.58-.31.76-.81,1.36-1.13.45.44.71.97.98,1.58-.82.9-.87,2.13-1.14,3.26.39-.39.61-.93,1.14-1.36.93-.76,2.43-1.22,2.39-2.44-.41-.2-.87-.31-1.47-.11-.42-.31-.91-1.22-.93-1.79-.42-.17-.67-.75-1.07-1.01.5.34-.2,1.29-.7.76-.01-.9-.5-1.38-.92-2.52-1.17.3-1.79-.66-2.46-1.44-.27.39-.76.67-1.23.96" fill="#f3a982"/>
        <path d="M121.07,24.69c.34.16.7-.42.95-.42.02.45-.9.49-.87.95.85-.41,1.5-.9,1.65-1.62-.65-.22-1.48.53-1.73,1.09" fill="#e7855d"/>
        <path d="M128.85,24.41c.3-.17.07-1.43-.22-2-.72-1.39-2.7-1.77-3.72-1.16.19.65,1.67.37.91,1.07-.8.1-2.69.19-3.71.62-.51.21-1.23.29-1.6.49-.55.31-1.31,1.24-1.03,1.8.22.46.82.37,1.47.11,0-.3.04-.44-.2-.66.37-.68,1.29-1.55,2.2-1.33.17.44-.09.67-.25.96.7,1.48,2.14,1.77,3.64,1.12-.17.29-.86.36-1.12.61.36.92.87,1.5,1.67,1.44.55,1.52,2.49,1.55,3.38.3-.04-.46-.15-1.09-.47-1.54-.83-.58-1.98,1.23-.76,1.39.22-.21-.22-.45-.15-.56,1.38.46-.61,1.54-.75-.02-.05-.53.67-.95,1.13-1.23-.04-.65-.58-1.47-1.16-1.39-1.14.15-1.03,1.89.12,1.43-.04-.3-.34-.51-.3-.62.42,0,.72.6.44.81-.76.57-1.92-.56-1.16-1.39-1.04,1.08-2.6-.83-1.11-1.42-.12.37-.53.52-.45.91.21.98,2.08.61,1.7-.52-.41.02-.5.3-.57.58-.07.02-.15.05-.21.09-.02-.07-.07-.11-.11-.14.05-1.16,1.92-.67,1.03.29.44-.58,1.11.12,1.34-.02" fill="#f3a982"/>
        <path d="M123.74,21.4c.21-.05.2-.21.24-.34-.16.07-.24-.07-.42.04.02.17.15.12.17.3" fill="#e7855d"/>
        <path d="M120.62,22.41c.26.29.65-.15.51-.44-.11,0-.62.2-.51.44" fill="#e7855d"/>
        <path d="M122.56,21.37c-.17-.12-.47.07-.73.16.07.75,1.02.39.73-.16" fill="#e7855d"/>
        <path d="M119.66,22.47c-.09-.14-.19-.25-.27-.39-.05.02-.11.04-.16.06.07.27.22.36.44.32" fill="#e7855d"/>
        <path d="M119.66,21.37c-.04.15-.25.21-.22.39.39.4.67,1.03,1.04,1.44,1.65-.61,3.15-.92,4.86-1.12.04-.21-.36-.2-.6-.45-.36-.36-.4-.81-.35-1.22-.26.41,0,1.07-.67,1.29-.35-.07-.6-.81-.66-1.22-.5.06-.3.44-.2.75,0,1.38-1.47,1.22-1.54-.32-.53.07-.09.51-.02.75.11.44.06.86-.42,1.14-.67.06-.9-1.03-1.23-1.43" fill="#f3a982"/>
        <path d="M119.09,21.34c.63-.07.63-.73.21-.87-.51.2-.68.58-.21.87" fill="#e7855d"/>
        <path d="M123.11,25.82c-.4.19-.99,0-1.44.25.11-.5,1.18-.63,1.44-.25"/>
        <path d="M123.42,26.61c-.01.06-.39.09-.57.1-.1.1.11.35.12.5-.29.19-.45-.1-.57-.52-.11-.05-.36.24-.46-.07.46-.49,1.13-.39,1.48,0"/>
        <path d="M121.19,25.5c.47-.29.96-.58,1.23-.96.68.8,1.29,1.75,2.46,1.44.42,1.16.91,1.63.92,2.52.49.53,1.19-.42.7-.76.39.26.65.82,1.07,1.01.04.57.51,1.48.93,1.79.6-.2,1.04-.09,1.47.11.04,1.22-1.44,1.69-2.39,2.44-.52.42-.75.97-1.14,1.36.27-1.13.32-2.36,1.14-3.26-.27-.61-.55-1.16-.98-1.58-.35.19-.56.44-.78.68.72-.95-.87-1.55-1.31-2.15-.53-.73-.29-1.19-.91-1.9-.63-.71-1.96-.52-1.96-.52l-.42.11c.11.61.7,1.04.78,1.57.12.67-.5.88-.81,1.41.24-.02.52-.1.77-.19.46-.17.87-.4.87-.4,0,0,.32.65-.16,1.12,0-.16.02-.32-.05-.52-.5.05-1.04.24-1.41,0,.3-.53.92-.75.8-1.42-.1-.52-.68-.97-.78-1.57-.02-.1-.02-.21,0-.34" fill="#e7855d"/>
        <path d="M120.84,24.77c.15.17.1.31.11.57-.4.16-.8.26-1.08.19.06-.11.19-.22.41-.29.26-.07.44-.26.55-.47M122.86,24.6c-.05-.09-.1-.19-.15-.29.16-.29.42-.52.25-.96-.73-.19-1.48.35-1.93.93.09-.3.14-.58.25-.7.26-.25,1.47-.7,1.95-.53s.1.63,0,.96c-.07.25-.35.37-.39.58M126.35,25.43c-.14.06-.29.11-.42.16-.17,0-1.32-.09-1.75-.27-.47-.21-.42-.92-.42-.92,0,0,.44.57.9.85.46.29,1.18-.14,1.18-.14,0,0-1.02-1.08-.35-2.01s1.8-.09,1.68-.42c-.1-.25-1.48-.98-2.21-1.36v-.05c.99-.61,2.97-.24,3.69,1.16.3.57.51,1.83.21,2-.22.14-.86-.49-1.28-.05.72-.91-1.06-1.33-1.09-.2.05.04.09.06.11.14l.21-.09c.07-.29.16-.56.57-.58.37,1.14-1.49,1.5-1.7.52-.09-.39.32-.53.45-.91-1.49.58.06,2.5,1.11,1.42-.76.83.4,1.96,1.16,1.39.29-.21-.01-.82-.44-.81-.04.11.27.32.3.62-1.16.47-1.27-1.28-.12-1.43.57-.07,1.12.75,1.16,1.39-.46.29-1.17.7-1.13,1.23.14,1.57,2.13.49.75.02-.07.11.37.35.15.56-1.22-.16-.09-1.96.76-1.39.32.45.42,1.08.47,1.54-.36.51-.9.81-1.44.87-.25-.07-.53-.19-.8-.4-.81-.63-.27-1.16-.27-1.16,0,0-.83.14-1.64-.68-.31-.31-.41-.51-.41-.63.26-.1.53-.19.65-.36" fill="#e7855d"/>
        <path d="M127.98,17.7c-.05-.12-.12-.16-.22-.12-.09.04-.19.12-.3.25.02.1.05.21.1.35l.11.35c.14-.09.24-.21.3-.36.06-.15.06-.3,0-.45M128.19,17.62c.09.21.07.41-.02.63-.09.19-.22.36-.42.5l.16.41c.07.2.07.32-.02.36-.06.02-.11-.02-.16-.16-.02-.05-.15-.42-.39-1.13l-.1-.26c-.04-.1-.05-.19-.06-.27-.01-.1,0-.15.05-.17s.1,0,.15.04c.09-.1.19-.16.31-.21.24-.09.41,0,.51.27M126.35,17.81l-.17.56c.07-.04.17-.09.31-.16-.01-.05-.04-.12-.06-.2-.04-.1-.06-.16-.07-.2M126.99,18.07s0,.11-.05.16c-.02.01-.07.05-.16.09l.26.66v.11s-.04.07-.06.09c-.06.02-.15-.09-.24-.32l-.05-.12-.04-.12-.07-.17-.31.14c-.12.06-.22.1-.31.14-.05.02-.09.01-.1-.02v-.11s.05-.14.12-.35l.25-.72c.04-.11.07-.17.12-.19.05-.01.09.02.12.12.02.07.07.19.12.34l.12.34c.06-.04.11-.07.14-.07.07-.02.12-.01.15.05M125.96,19.41s0,.06-.04.1c-.04.02-.07.05-.11.06-.04,0-.09.02-.15.04-.06.01-.12.02-.15.04-.14.05-.25.1-.35.16-.07.05-.12.07-.14.09-.07.02-.12.02-.14-.02-.02-.06,0-.2.07-.44.12-.36.19-.58.2-.66.06-.26.07-.46.02-.58s-.16-.16-.31-.1c-.11.04-.19.11-.24.2-.02.05-.05.12-.07.24-.01.09-.05.12-.07.14-.05.01-.07,0-.1-.07-.05-.14-.02-.3.1-.45.1-.14.24-.25.39-.3.1-.04.21-.04.32.01.11.05.19.12.22.22.07.19.07.44,0,.73l-.22.73c.16-.07.27-.12.31-.15.07-.02.16-.05.26-.06.14-.02.21,0,.22.04" fill="#fff" fill-rule="evenodd"/>
        <path d="M100.28,27.46c-.01.32-.35.3-.66.27-.67.39-1.37.57-2,1.03-1.03.75-1.74,2.09-2.95,2.25.92-1.01,2.24-2.64,3.56-3.37.44-.24,1.55-.83,2.05-.17" fill="#64696c"/>
        <path d="M102.63,27.52c0,.42-.85.4-.63-.15.24-.02.6-.2.63.15" fill="#64696c"/>
        <path d="M101.76,29.16c-1.21.04-1.9.66-2.86.97-.32-.65,2.49-2.05,2.86-.97" fill="#64696c"/>
        <path d="M104.34,29.03c.04.47-.82.58-.65-.05.25-.01.46-.17.65.05" fill="#64696c"/>
        <path d="M103.96,31.45c-.31.27-.98.42-1.41.22.06-.61,1.36-.95,1.41-.22" fill="#64696c"/>
        <path d="M97.54,31.22c-.11.44-.29.82-.81.8-.25-.46.25-.9.81-.8" fill="#64696c"/>
        <path d="M101.02,32.1c-1.38.49-2.34,1.46-3.58,2.1.21-1.37,2.09-1.8,3.18-2.55.15.14.47.12.4.45" fill="#64696c"/>
        <path d="M93.67,31.37c.02.26-.21.21-.15.52-.25-.05-.5-.1-.4-.45.12-.09.3-.12.55-.07" fill="#64696c"/>
        <path d="M105.27,32.5c.26,0,.52.01.52.25-.06.27-.3.34-.56.39-.14-.15-.11-.51.04-.63" fill="#64696c"/>
        <path d="M92.33,32.24c-.72.47-2.16.44-3.56.29-.61-.06-1.32-.17-1.79-.45-.01-.17.11-.17.12-.31,1.29.3,4.08.21,5.22.47" fill="#64696c"/>
        <path d="M85.5,31.65c.22-.02.27.09.42.14.07.35-.29.2-.35.4-.27-.02-.22-.41-.07-.53" fill="#64696c"/>
        <path d="M84.95,31.83c-.55.58-1.27.42-1.88.72-1.08.55-1.21,1.78-2.2,2.4.5-1.95,1.85-3.53,4.08-3.12" fill="#64696c"/>
        <path d="M96.16,32.51c-.68.98-2.04,1.78-3.23,1.8.81-.91,2.04-1.34,3.23-1.8" fill="#64696c"/>
        <path d="M103.4,33.33c-.92.47-1.8.98-2.77,1.41-.06-.98,2.1-2.01,2.77-1.41" fill="#64696c"/>
        <path d="M106.98,34.21c-.17.68-1.02.53-1.75.62-1.29.15-2.35,1.09-3.3,1.16.27-.97,2.34-1.53,3.88-1.75.42-.06.8-.4,1.18-.02" fill="#64696c"/>
        <path d="M90.45,34.45c-2.18.9-4.91-.95-6.78.39-.72.51-.72,1.34-1.63,1.8.06-1.04.83-1.89,1.55-2.34,1.8-1.12,4.46-.21,6.85.16" fill="#64696c"/>
        <path d="M91.63,34.42c0,.46-.63.52-.53-.04.15-.12.4-.11.53.04" fill="#64696c"/>
        <path d="M96.21,34.96c.12.49-.39.25-.36.61-.3.06-.2-.22-.41-.25.02-.39.35-.45.77-.37" fill="#64696c"/>
        <path d="M99.72,35.31c-.95.6-1.49,1.65-2.81,1.83.17-.36,1.53-1.89,2.06-1.99.24-.04.51.02.73.16" fill="#64696c"/>
        <path d="M93.55,36.27c.36-1.04.99.52,0,0" fill="#64696c"/>
        <path d="M100.7,36.65c0,.11-.01.21-.02.32-.15.14-.51.11-.65-.05,0-.36.44-.52.66-.27" fill="#64696c"/>
        <path d="M92.44,36.61c-.76.68-2.65.44-3.64.06-.01-.17.11-.17.12-.31.86.16,2.49-.11,3.52.25" fill="#64696c"/>
        <path d="M87.53,36.49c-.52.42-1.23.39-1.87.62-1.09.4-2.09.9-2.71,1.94-.67-.68.55-1.58,1.21-1.94.91-.5,2.44-1.19,3.37-.62" fill="#64696c"/>
        <path d="M99.01,37.82c-.14.19-.16.5-.56.39-.07-.1-.1-.25-.07-.44.21-.2.4,0,.63.05" fill="#64696c"/>
        <path d="M95.15,37.76c.22-.02.27.09.42.14,0,.35-.16.5-.46.5-.15-.3-.22-.42.05-.63" fill="#64696c"/>
        <path d="M93.47,38.72c-.36.12-.58.27-.62-.26.24-.15.75-.34.62.26" fill="#64696c"/>
        <path d="M97.66,38.68c.14.6-.76,1.08-1.28,1.41-.99.62-1.99,1.21-3.52,1.24-1.84.05-3.99-.39-5.57.04-1.26.32-1.95,1.17-3,1.39.5-.77,1.41-1.41,2.38-1.75,2.2-.8,4.44.09,6.99-.26,1.6-.22,2.59-1.53,3.89-2.08h.11" fill="#64696c"/>
        <path d="M91.87,38.7c-.68,1.12-2.51.27-3.56.29-.97.01-2.5.4-3.27.83-.53.3-.81.96-1.47.97,1.31-2.71,5.46-2.3,8.29-2.09" fill="#64696c"/>
        <path d="M133.17,36.04c-1.95-.71-4.76-1.73-7.15-1.64.61-.92,3.11-.46,4.66,0,1.07.31,2.34.82,2.49,1.64" fill="#64696c"/>
        <path d="M124.61,34.2c-2.26.71-5.05,1.34-6.43,3.35-.45.66-.12,2.18-1.47,2.11.62-3.78,4.28-5.65,7.9-5.47" fill="#64696c"/>
        <path d="M129.21,35.61c-1.42-.26-2.82.22-4.43.15.32-.44,1.38-.78,2.33-.83.66-.04,2.08-.15,2.1.68" fill="#64696c"/>
        <path d="M130.96,36.12c.52,0,.77.17.7.61-.34.22-.96-.04-.7-.61" fill="#64696c"/>
        <path d="M134.35,36.85c.21.02.42.06.63.09.02.49-.29.52-.71.41.02-.17.05-.34.07-.51" fill="#64696c"/>
        <path d="M122.95,35.89c.21.12-.01.24-.05.37-3.12,1.19-4.78,5.35-4.44,9.43-2.09-3.86,1.11-9.09,4.5-9.81" fill="#64696c"/>
        <path d="M132.16,37.7c-.87.66-2.38,1.24-3.52,1.06.76-.76,2.54-1.57,3.52-1.06" fill="#64696c"/>
        <path d="M135.61,38.06c.36.06.58.25.42.71-.21-.02-.42-.06-.63-.09,0-.3.09-.49.21-.61" fill="#64696c"/>
        <path d="M132.5,38.9c-.02.87-.85.68-1.42.83-.77.41-1.94,1.01-2.72.91.8-1.34,2.69-1.26,4.14-1.74" fill="#64696c"/>
        <path d="M126.91,39.03c-.02.31-.06.61-.35.6-.34,0-.29-.31-.31-.56.16-.09.36-.12.65-.04" fill="#64696c"/>
        <path d="M137.34,40.48c.34,1.49.15,3.94-.27,5.63-.97-1.5,0-3.78-.5-5.61.17-.12.47-.09.78-.02" fill="#64696c"/>
        <path d="M133.7,40.49c-.29.75-1.22.91-1.98,1.14-.77.24-1.57.62-2.16.6.81-1.24,2.84-1.65,4.14-1.74" fill="#64696c"/>
        <path d="M125.53,39.61c-.61.76-1.74.75-2.61,1.06-.93.32-1.78.78-2.72.91,1.02-1.5,3.26-1.39,4.84-2.16.27-.01.32.14.49.2" fill="#64696c"/>
        <path d="M127.04,40.84c-.02.41-.29.52-.6.56-.09-.12-.1-.3-.05-.52.16-.09.36-.12.65-.04" fill="#64696c"/>
        <path d="M125.04,41.34c.12.02.25.04.39.05-.06.37-.15.71-.6.56,0-.3.09-.49.21-.61" fill="#64696c"/>
        <path d="M117.26,40.38c.1.57-.36.41-.49.71-.24-.12-.29-.39-.29-.68.17-.12.47-.09.78-.02" fill="#64696c"/>
        <path d="M124.6,41.66c-1.43,1.06-3.47,1.32-5.2,1.98.3-.92,1.47-1.08,2.26-1.36.83-.3,1.75-.55,2.57-.8.09.09.19.16.36.19" fill="#64696c"/>
        <path d="M127.29,42.82c.27-.01.32.14.49.2-.07.35-.3.51-.71.41,0-.3.09-.49.21-.61" fill="#64696c"/>
        <path d="M125.99,43.66c-.07.35-.3.51-.71.41-.07-.57.47-.71.71-.41" fill="#64696c"/>
        <path d="M116.55,42.61c.37-.05.3.22.62.21,0,.41-.25.47-.36.72-.39-.09-.63-.62-.26-.93" fill="#64696c"/>
        <path d="M124.65,43.99c-1.08.97-2.87,1.01-4.24,1.59.83-1.31,2.65-1.31,4.24-1.59" fill="#64696c"/>
        <path d="M124.87,45.18c.3.72-1.64,1.02-2.5,1.19.25-1.17,1.72-.73,2.5-1.19" fill="#64696c"/>
        <path d="M136.07,46.75c.21,0,.2.15.36.17-.36.76-.01.46.42.71-.02.16-.05.34-.07.51-.3,0-.58.19-.62-.21-.67.56-1.21,1.93-2.61,1.95.93-.92,1.77-1.96,2.51-3.12" fill="#64696c"/>
        <path d="M124.04,51.11c-.78-.73-2.24-.96-2.41-2.14,1.73,1.14,3.82,2.04,6.38,2.56-.92.8-2.5-.42-3.83-.41,3.58,1.65,8.74.88,11.07-1.28.46-.44.5-1.18,1.32-1.11-.24,1.23-1.73,2.41-2.89,2.95-3.32,1.55-9.02,1.22-12.05-.91-.2-.14-.12-.4-.31-.56-1.18-.99-3.57-1.84-3.74-3.74.77-.22,1.16.71,1.53,1.12,1.27,1.37,2.93,2.67,4.95,3.52" fill="#64696c"/>
        <path d="M118.82,46.79c.3.1.31-.2.65-.04-.05.22.12.29.06.52-.2-.01-.47-.12-.52.05-.22-.06-.26-.26-.19-.53" fill="#64696c"/>
        <path d="M132.55,50.5c.02.49-.29.53-.71.41.01-.12.04-.25.05-.37.16-.09.36-.12.66-.04" fill="#64696c"/>
        <path d="M129.99,51.18c-.06.41-.42.44-.83.4.04-.14,0-.22-.09-.27.21-.34.58-.35.92-.12" fill="#64696c"/>
      </g>
    </g>
  </g>
</svg>