<?xml version="1.0" encoding="UTF-8"?>
<svg id="Layer_2" data-name="Layer 2" xmlns="http://www.w3.org/2000/svg" width="92.86" height="92.86" xmlns:xlink="http://www.w3.org/1999/xlink" viewBox="0 0 92.86 92.86">
  <defs>
    <clipPath id="clippath">
      <rect width="92.86" height="92.86" fill="none"/>
    </clipPath>
    <clipPath id="clippath-1">
      <path d="M15.03,44.47c0,16.26,13.18,29.44,29.44,29.44s29.44-13.18,29.44-29.44-13.18-29.44-29.44-29.44-29.44,13.18-29.44,29.44" fill="none"/>
    </clipPath>
    <clipPath id="clippath-2">
      <rect width="92.86" height="92.86" fill="none"/>
    </clipPath>
  </defs>
  <g id="Layer_1-2" data-name="Layer 1">
    <g clip-path="url(#clippath)">
      <path d="M48.4,88.62c-22.22,0-40.23-18.01-40.23-40.23S26.18,8.16,48.4,8.16s40.23,18.01,40.23,40.23-18.01,40.23-40.23,40.23" fill="#e5d7ea"/>
      <path d="M44.58,43.87l-.07.29.07-.29Z" fill="#fff"/>
      <path d="M44.47,84.7c-22.22,0-40.23-18.01-40.23-40.23S22.25,4.24,44.47,4.24s40.23,18.01,40.23,40.23-18.01,40.23-40.23,40.23" fill="#231f20"/>
      <path d="M44.47,83.66c-21.65,0-39.19-17.55-39.19-39.19S22.82,5.28,44.47,5.28s39.19,17.55,39.19,39.19-17.54,39.19-39.19,39.19" fill="#ce181e"/>
      <path d="M80.82,44.47c0,20.07-16.27,36.35-36.35,36.35S8.12,64.54,8.12,44.47,24.4,8.12,44.47,8.12s36.35,16.27,36.35,36.35" fill="#ed2124"/>
      <path d="M43.55,43.78l.97-.09-.97.09-35.33,3.37c-.07-.89-.1-1.78-.1-2.68,0-1.22.06-2.42.18-3.61l35.25,2.92ZM44.58,43.87l-.08.29.08-.29ZM80.82,44.47c0,.8-.03,1.6-.08,2.39l-36.03-2.98,3.61,36.74c-1.26.13-2.55.2-3.85.2-.47,0-.93,0-1.4-.03l1.43-36.63-8.98,35.54c-8.35-2.11-15.54-7.12-20.46-13.88l29.3-21.97-.8-.07-35.33,3.37c-.07-.89-.1-1.78-.1-2.68,0-1.22.06-2.42.18-3.61l35.25,2.92.97-.09.05-1.22-3.36-34.2c1.08-.1,2.17-.15,3.27-.15.48,0,.96.01,1.43.03l-1.34,34.32.1,1.03,8.67-34.29c8.01,2.01,14.96,6.67,19.87,13l-28.53,21.4,35.9-3.35c.16,1.39.24,2.79.24,4.22" fill="#f58466"/>
      <path d="M44.47,78.62c-18.87,0-34.16-15.29-34.16-34.16S25.6,10.31,44.47,10.31s34.16,15.29,34.16,34.16-15.29,34.16-34.16,34.16" fill="#231f20"/>
      <path d="M44.47,77.59c-18.29,0-33.12-14.83-33.12-33.12S26.18,11.35,44.47,11.35s33.12,14.83,33.12,33.12-14.83,33.12-33.12,33.12" fill="#d5e9f0"/>
      <path d="M43.55,43.78l.97-.09-.97.09-32.11,3.06c-.06-.79-.08-1.58-.08-2.38,0-1.13.06-2.24.17-3.34l32.03,2.65ZM44.58,43.87l-.08.3.08-.3ZM44.47,77.59c-.43,0-.85,0-1.27-.02l1.3-33.4-8.19,32.41c-7.62-1.93-14.19-6.51-18.67-12.69l26.71-20.04-.8-.07-32.11,3.06c-.06-.79-.08-1.58-.08-2.38,0-1.13.06-2.24.17-3.34l32.03,2.65.97-.09.05-1.22-3.05-30.99c.97-.09,1.96-.13,2.95-.13.44,0,.88,0,1.31.03l-1.21,31.09.1,1.03,7.88-31.16c7.28,1.82,13.61,6.06,18.08,11.8l-25.94,19.46,32.68-3.04c.15,1.28.23,2.59.23,3.91,0,.71-.02,1.42-.07,2.12l-32.82-2.72,3.3,33.52c-1.16.12-2.34.19-3.53.19" fill="#fff"/>
      <path d="M42.81,70.87c0-.59.48-1.07,1.07-1.07s1.07.48,1.07,1.07v4.04c0,.59-.48,1.07-1.07,1.07s-1.07-.48-1.07-1.07v-4.04ZM42.81,13.79c0-.59.48-1.07,1.07-1.07s1.07.48,1.07,1.07v4.03c0,.59-.48,1.07-1.07,1.07s-1.07-.48-1.07-1.07v-4.03Z" fill="#231f20" fill-rule="evenodd"/>
      <path d="M56.21,67.85c-.3-.51-.12-1.16.39-1.46.51-.29,1.17-.12,1.46.39l2.02,3.49c.29.51.12,1.17-.39,1.46-.51.29-1.16.12-1.46-.39l-2.02-3.49ZM27.67,18.42c-.3-.51-.12-1.16.39-1.46.51-.3,1.16-.12,1.46.39l2.02,3.49c.3.51.12,1.16-.39,1.46-.51.3-1.16.12-1.46-.39l-2.02-3.49Z" fill="#231f20" fill-rule="evenodd"/>
      <path d="M66.31,58.53c-.51-.3-.69-.95-.39-1.46.3-.51.95-.69,1.46-.39l3.49,2.02c.51.29.69.95.39,1.46-.3.51-.95.69-1.46.39l-3.49-2.02ZM16.87,29.99c-.51-.29-.69-.95-.39-1.46.3-.51.95-.69,1.46-.39l3.49,2.02c.51.3.69.95.39,1.46-.29.51-.95.69-1.46.39l-3.49-2.02Z" fill="#231f20" fill-rule="evenodd"/>
      <path d="M70.39,45.41c-.59,0-1.07-.48-1.07-1.07s.48-1.07,1.07-1.07h4.03c.59,0,1.07.48,1.07,1.07s-.48,1.07-1.07,1.07h-4.03ZM13.31,45.41c-.59,0-1.07-.48-1.07-1.07s.48-1.07,1.07-1.07h4.03c.59,0,1.07.48,1.07,1.07s-.48,1.07-1.07,1.07h-4.03Z" fill="#231f20" fill-rule="evenodd"/>
      <path d="M67.37,32.01c-.51.3-1.16.12-1.46-.39-.29-.51-.12-1.16.39-1.46l3.49-2.02c.51-.3,1.17-.12,1.46.39.3.51.12,1.16-.39,1.46l-3.49,2.02ZM17.93,60.55c-.51.3-1.16.12-1.46-.39-.3-.51-.12-1.16.39-1.46l3.49-2.02c.51-.29,1.16-.12,1.46.39.3.51.12,1.16-.39,1.46l-3.49,2.02Z" fill="#231f20" fill-rule="evenodd"/>
      <path d="M58.05,21.92c-.3.51-.95.68-1.46.39-.51-.3-.69-.95-.39-1.46l2.02-3.49c.3-.51.95-.68,1.46-.39.51.3.69.95.39,1.46l-2.02,3.49ZM29.51,71.35c-.3.51-.95.69-1.46.39-.51-.29-.69-.95-.39-1.46l2.02-3.49c.3-.51.95-.69,1.46-.39.51.29.69.95.39,1.46l-2.02,3.49Z" fill="#231f20" fill-rule="evenodd"/>
      <path d="M47.62,71.75l.39,4.01c.03.34-.22.65-.56.68-.34.03-.65-.22-.68-.56l-.39-4.01c-.03-.34.22-.65.56-.68.35-.04.65.22.68.56M41.53,12.81l.39,4.01c.03.34-.22.65-.56.68-.35.03-.65-.22-.68-.56l-.39-4.01c-.03-.34.22-.65.56-.68.34-.03.65.22.69.56" fill="#231f20" fill-rule="evenodd"/>
      <path d="M50.46,71.23l.81,3.95c.07.34-.15.67-.49.74-.34.07-.67-.15-.74-.49l-.81-3.95c-.07-.34.15-.67.49-.74.34-.07.67.15.74.49M38.24,13.26l.81,3.95c.07.34-.15.67-.49.74-.34.07-.67-.15-.74-.49l-.81-3.95c-.07-.34.15-.67.49-.74.34-.07.67.15.74.49" fill="#231f20" fill-rule="evenodd"/>
      <path d="M53.24,70.43l1.22,3.84c.11.33-.08.68-.41.79-.33.11-.68-.08-.79-.41l-1.22-3.84c-.1-.33.08-.68.41-.79.33-.1.68.08.79.41M35.03,14.04l1.22,3.84c.1.33-.08.68-.41.79-.33.1-.68-.08-.79-.41l-1.22-3.84c-.11-.33.08-.68.41-.79.33-.1.68.08.79.41" fill="#231f20" fill-rule="evenodd"/>
      <path d="M55.91,69.33l1.61,3.7c.14.32,0,.69-.32.82-.32.14-.69,0-.82-.32l-1.62-3.7c-.14-.32,0-.69.32-.82.32-.14.69,0,.82.32M31.91,15.16l1.61,3.7c.14.32,0,.69-.32.83-.32.14-.69,0-.83-.32l-1.61-3.7c-.14-.32,0-.69.32-.83.32-.14.69,0,.83.32" fill="#231f20" fill-rule="evenodd"/>
      <path d="M60.85,66.34l2.35,3.28c.2.28.14.67-.14.88-.28.2-.67.14-.87-.15l-2.35-3.28c-.2-.28-.14-.67.14-.88.28-.2.67-.14.88.15M26.11,18.34l2.35,3.28c.2.28.14.67-.15.87-.28.2-.67.14-.87-.15l-2.35-3.28c-.2-.28-.14-.67.14-.88.28-.2.67-.14.87.14" fill="#231f20" fill-rule="evenodd"/>
      <path d="M63.05,64.47l2.68,3.02c.23.26.21.65-.05.88-.26.23-.65.21-.88-.05l-2.68-3.02c-.23-.26-.21-.66.05-.88.26-.23.65-.21.88.05M23.49,20.37l2.68,3.02c.23.26.21.65-.05.88-.26.23-.66.21-.88-.05l-2.68-3.02c-.23-.26-.21-.65.05-.88.26-.23.65-.21.89.05" fill="#231f20" fill-rule="evenodd"/>
      <path d="M65.06,62.39l2.98,2.72c.26.23.27.63.04.89-.23.25-.63.27-.88.04l-2.98-2.72c-.26-.23-.27-.63-.04-.89.23-.26.63-.27.89-.04M21.09,22.66l2.98,2.72c.26.23.27.63.04.89-.23.26-.63.27-.88.04l-2.98-2.72c-.26-.23-.27-.63-.04-.89.23-.26.63-.27.89-.04" fill="#231f20" fill-rule="evenodd"/>
      <path d="M66.83,60.1l3.25,2.39c.28.21.34.6.13.88-.2.28-.6.34-.88.13l-3.25-2.39c-.28-.2-.34-.6-.13-.88.21-.28.6-.34.88-.13M18.95,25.19l3.25,2.39c.28.21.34.6.13.88-.21.28-.6.34-.88.13l-3.25-2.39c-.28-.21-.34-.6-.13-.88.21-.28.6-.34.88-.13" fill="#231f20" fill-rule="evenodd"/>
      <path d="M69.6,55.04l3.67,1.67c.32.14.45.51.31.83-.14.32-.51.46-.83.31l-3.67-1.67c-.32-.14-.45-.51-.31-.83.14-.32.52-.45.83-.31M15.52,30.84l3.67,1.67c.31.14.45.52.31.83-.14.31-.52.45-.83.31l-3.67-1.67c-.32-.14-.45-.51-.31-.83.14-.32.52-.45.83-.31" fill="#231f20" fill-rule="evenodd"/>
      <path d="M70.58,52.32l3.83,1.27c.33.11.51.46.4.79-.11.33-.46.51-.79.4l-3.83-1.27c-.33-.11-.51-.46-.4-.79.11-.33.46-.51.79-.4M14.27,33.91l3.83,1.27c.33.11.51.46.4.79-.11.33-.46.51-.79.4l-3.83-1.27c-.33-.11-.51-.46-.4-.79.11-.33.46-.51.79-.4" fill="#231f20" fill-rule="evenodd"/>
      <path d="M71.27,49.51l3.94.87c.34.07.55.41.48.75-.07.34-.41.55-.75.48l-3.94-.87c-.34-.08-.55-.41-.48-.75.08-.34.41-.55.75-.48M13.34,37.09l3.94.87c.34.07.55.41.48.75-.08.34-.41.55-.75.48l-3.94-.87c-.34-.07-.55-.41-.48-.75.07-.34.41-.55.75-.48" fill="#231f20" fill-rule="evenodd"/>
      <path d="M71.66,46.65l4.01.45c.34.04.59.35.55.69s-.35.59-.69.55l-4.01-.45c-.34-.04-.59-.35-.55-.69.04-.34.35-.59.69-.55M12.75,40.35l4.01.45c.34.04.59.35.55.69-.04.34-.35.59-.69.55l-4.01-.45c-.34-.04-.59-.35-.55-.69.04-.34.35-.59.69-.55" fill="#231f20" fill-rule="evenodd"/>
      <path d="M71.54,40.87l4.01-.39c.34-.04.65.22.68.56.03.34-.22.65-.56.68l-4.01.39c-.34.03-.65-.22-.68-.56-.03-.35.22-.65.56-.68M12.6,46.96l4.01-.39c.34-.03.65.22.68.56.03.34-.22.65-.56.68l-4.01.39c-.34.03-.65-.22-.68-.56-.04-.35.22-.65.56-.69" fill="#231f20" fill-rule="evenodd"/>
      <path d="M71.02,38.03l3.95-.81c.34-.07.67.15.74.49.07.34-.15.67-.49.74l-3.95.81c-.34.07-.67-.15-.74-.49-.07-.34.15-.67.49-.74M13.05,50.25l3.95-.81c.34-.07.67.15.74.49.07.34-.15.67-.49.74l-3.95.81c-.34.07-.67-.15-.74-.49-.07-.34.15-.67.49-.74" fill="#231f20" fill-rule="evenodd"/>
      <path d="M70.22,35.25l3.84-1.22c.33-.11.68.08.79.41.1.33-.08.68-.41.79l-3.85,1.22c-.33.1-.68-.08-.79-.41-.1-.33.08-.68.41-.79M13.83,53.46l3.84-1.22c.33-.1.68.08.79.41.11.33-.08.68-.41.79l-3.84,1.22c-.33.11-.68-.08-.79-.41-.1-.33.08-.68.41-.79" fill="#231f20" fill-rule="evenodd"/>
      <path d="M69.12,32.58l3.7-1.61c.32-.14.69,0,.82.32.14.32,0,.69-.32.82l-3.7,1.62c-.32.14-.69,0-.83-.32-.14-.32,0-.69.32-.82M14.95,56.58l3.7-1.61c.32-.14.69,0,.83.32.14.32,0,.69-.32.83l-3.7,1.61c-.32.14-.69,0-.83-.32-.14-.32,0-.69.32-.83" fill="#231f20" fill-rule="evenodd"/>
      <path d="M66.13,27.64l3.28-2.35c.28-.2.67-.14.87.14.2.28.14.67-.15.88l-3.28,2.35c-.28.2-.67.14-.88-.14-.2-.28-.14-.67.14-.88M18.13,62.38l3.28-2.35c.28-.2.67-.14.87.15.2.28.14.67-.14.87l-3.28,2.35c-.28.2-.67.14-.88-.15-.2-.28-.14-.67.15-.87" fill="#231f20" fill-rule="evenodd"/>
      <path d="M64.26,25.43l3.02-2.68c.26-.23.65-.21.88.05.23.26.21.65-.05.89l-3.02,2.68c-.26.23-.65.21-.88-.05-.23-.26-.21-.65.05-.88M20.16,65l3.02-2.68c.26-.23.65-.21.88.05.23.26.21.66-.05.88l-3.02,2.68c-.26.23-.65.21-.88-.05-.23-.26-.21-.65.05-.89" fill="#231f20" fill-rule="evenodd"/>
      <path d="M62.17,23.43l2.72-2.98c.23-.26.63-.27.89-.04.26.23.27.63.04.89l-2.72,2.98c-.23.26-.63.27-.89.04-.26-.23-.27-.63-.04-.89M22.45,67.4l2.72-2.98c.23-.26.63-.27.89-.04.26.23.27.63.04.88l-2.72,2.98c-.23.26-.63.27-.89.04-.26-.23-.27-.63-.04-.89" fill="#231f20" fill-rule="evenodd"/>
      <path d="M59.89,21.66l2.39-3.25c.2-.28.6-.34.88-.13.28.21.34.6.13.88l-2.39,3.25c-.21.28-.6.34-.88.13-.28-.21-.34-.6-.13-.88M24.98,69.54l2.39-3.25c.21-.28.6-.34.88-.13.28.21.34.6.13.88l-2.39,3.25c-.21.28-.6.34-.88.13-.28-.21-.34-.6-.13-.88" fill="#231f20" fill-rule="evenodd"/>
      <path d="M54.83,18.88l1.67-3.67c.14-.32.51-.46.83-.31.32.14.46.52.31.83l-1.67,3.67c-.14.31-.51.45-.83.31-.32-.14-.46-.51-.31-.83M30.63,72.97l1.67-3.67c.14-.32.52-.46.83-.31.32.14.45.51.31.83l-1.67,3.67c-.14.32-.52.45-.83.31-.32-.14-.45-.51-.31-.83" fill="#231f20" fill-rule="evenodd"/>
      <path d="M52.11,17.91l1.27-3.83c.11-.33.46-.51.79-.4.33.11.51.46.4.79l-1.27,3.83c-.11.33-.46.51-.79.4-.33-.11-.51-.46-.4-.79M33.7,74.22l1.27-3.83c.11-.33.46-.51.79-.4.33.11.51.46.4.79l-1.27,3.83c-.11.33-.46.51-.79.4-.33-.11-.51-.46-.4-.79" fill="#231f20" fill-rule="evenodd"/>
      <path d="M49.3,17.22l.87-3.94c.07-.34.41-.55.75-.48.34.08.55.41.48.75l-.87,3.94c-.08.34-.41.55-.75.48-.34-.08-.55-.41-.48-.75M36.88,75.15l.87-3.94c.07-.34.41-.55.75-.48.34.07.55.41.48.75l-.87,3.94c-.07.34-.41.55-.74.48-.34-.07-.55-.41-.48-.75" fill="#231f20" fill-rule="evenodd"/>
      <path d="M46.44,16.83l.45-4.01c.04-.34.35-.59.69-.55.34.04.59.35.55.69l-.45,4.01c-.04.34-.35.59-.69.55-.34-.04-.59-.35-.55-.69M40.14,75.74l.45-4.01c.04-.34.35-.59.69-.55.34.04.59.35.55.69l-.45,4.01c-.04.34-.35.59-.69.55-.34-.04-.59-.35-.55-.69" fill="#231f20" fill-rule="evenodd"/>
    </g>
    <g clip-path="url(#clippath-1)">
      <path d="M43.3,70.87c0-.59.48-1.07,1.07-1.07s1.07.48,1.07,1.07v4.04c0,.59-.48,1.07-1.07,1.07s-1.07-.48-1.07-1.07v-4.04ZM42.81,13.79c0-.59.48-1.07,1.07-1.07s1.07.48,1.07,1.07v4.03c0,.59-.48,1.07-1.07,1.07s-1.07-.48-1.07-1.07v-4.03Z" fill="#d85935" fill-rule="evenodd"/>
      <path d="M56.21,67.85c-.3-.51-.12-1.16.39-1.46.51-.29,1.17-.12,1.46.39l2.02,3.49c.29.51.12,1.17-.39,1.46-.51.29-1.16.12-1.46-.39l-2.02-3.49ZM27.67,18.42c-.3-.51-.12-1.16.39-1.46.51-.3,1.16-.12,1.46.39l2.02,3.49c.3.51.12,1.16-.39,1.46-.51.3-1.16.12-1.46-.39l-2.02-3.49Z" fill="#d85935" fill-rule="evenodd"/>
      <path d="M66.31,58.53c-.51-.3-.69-.95-.39-1.46.3-.51.95-.69,1.46-.39l3.49,2.02c.51.29.69.95.39,1.46-.3.51-.95.69-1.46.39l-3.49-2.02ZM16.87,29.99c-.51-.29-.69-.95-.39-1.46.3-.51.95-.69,1.46-.39l3.49,2.02c.51.3.69.95.39,1.46-.29.51-.95.69-1.46.39l-3.49-2.02Z" fill="#d85935" fill-rule="evenodd"/>
      <path d="M70.39,45.41c-.59,0-1.07-.48-1.07-1.07s.48-1.07,1.07-1.07h4.03c.59,0,1.07.48,1.07,1.07s-.48,1.07-1.07,1.07h-4.03ZM13.31,45.41c-.59,0-1.07-.48-1.07-1.07s.48-1.07,1.07-1.07h4.03c.59,0,1.07.48,1.07,1.07s-.48,1.07-1.07,1.07h-4.03Z" fill="#d85935" fill-rule="evenodd"/>
      <path d="M67.37,32.01c-.51.3-1.16.12-1.46-.39-.29-.51-.12-1.16.39-1.46l3.49-2.02c.51-.3,1.17-.12,1.46.39.3.51.12,1.16-.39,1.46l-3.49,2.02ZM17.93,60.55c-.51.3-1.16.12-1.46-.39-.3-.51-.12-1.16.39-1.46l3.49-2.02c.51-.29,1.16-.12,1.46.39.3.51.12,1.16-.39,1.46l-3.49,2.02Z" fill="#d85935" fill-rule="evenodd"/>
      <path d="M58.05,21.92c-.3.51-.95.68-1.46.39-.51-.3-.69-.95-.39-1.46l2.02-3.49c.3-.51.95-.68,1.46-.39.51.3.69.95.39,1.46l-2.02,3.49ZM29.51,71.35c-.3.51-.95.69-1.46.39-.51-.29-.69-.95-.39-1.46l2.02-3.49c.3-.51.95-.69,1.46-.39.51.29.69.95.39,1.46l-2.02,3.49Z" fill="#d85935" fill-rule="evenodd"/>
      <path d="M47.62,71.75l.39,4.01c.03.34-.22.65-.56.68-.34.03-.65-.22-.68-.56l-.39-4.01c-.03-.34.22-.65.56-.68.35-.04.65.22.68.56M41.53,12.81l.39,4.01c.03.34-.22.65-.56.68-.35.03-.65-.22-.68-.56l-.39-4.01c-.03-.34.22-.65.56-.68.34-.03.65.22.69.56" fill="#939598" fill-rule="evenodd"/>
      <path d="M50.46,71.23l.81,3.95c.07.34-.15.67-.49.74-.34.07-.67-.15-.74-.49l-.81-3.95c-.07-.34.15-.67.49-.74.34-.07.67.15.74.49M38.24,13.26l.81,3.95c.07.34-.15.67-.49.74-.34.07-.67-.15-.74-.49l-.81-3.95c-.07-.34.15-.67.49-.74.34-.07.67.15.74.49" fill="#939598" fill-rule="evenodd"/>
      <path d="M53.24,70.43l1.22,3.84c.11.33-.08.68-.41.79-.33.11-.68-.08-.79-.41l-1.22-3.84c-.1-.33.08-.68.41-.79.33-.1.68.08.79.41M35.03,14.04l1.22,3.84c.1.33-.08.68-.41.79-.33.1-.68-.08-.79-.41l-1.22-3.84c-.11-.33.08-.68.41-.79.33-.1.68.08.79.41" fill="#939598" fill-rule="evenodd"/>
      <path d="M55.91,69.33l1.61,3.7c.14.32,0,.69-.32.82-.32.14-.69,0-.82-.32l-1.62-3.7c-.14-.32,0-.69.32-.82.32-.14.69,0,.82.32M31.91,15.16l1.61,3.7c.14.32,0,.69-.32.83-.32.14-.69,0-.83-.32l-1.61-3.7c-.14-.32,0-.69.32-.83.32-.14.69,0,.83.32" fill="#939598" fill-rule="evenodd"/>
      <path d="M60.85,66.34l2.35,3.28c.2.28.14.67-.14.88-.28.2-.67.14-.87-.15l-2.35-3.28c-.2-.28-.14-.67.14-.88.28-.2.67-.14.88.15M26.11,18.34l2.35,3.28c.2.28.14.67-.15.87-.28.2-.67.14-.87-.15l-2.35-3.28c-.2-.28-.14-.67.14-.88.28-.2.67-.14.87.14" fill="#939598" fill-rule="evenodd"/>
      <path d="M63.05,64.47l2.68,3.02c.23.26.21.65-.05.88-.26.23-.65.21-.88-.05l-2.68-3.02c-.23-.26-.21-.66.05-.88.26-.23.65-.21.88.05M23.49,20.37l2.68,3.02c.23.26.21.65-.05.88-.26.23-.66.21-.88-.05l-2.68-3.02c-.23-.26-.21-.65.05-.88.26-.23.65-.21.89.05" fill="#939598" fill-rule="evenodd"/>
      <path d="M65.06,62.39l2.98,2.72c.26.23.27.63.04.89-.23.25-.63.27-.88.04l-2.98-2.72c-.26-.23-.27-.63-.04-.89.23-.26.63-.27.89-.04M21.09,22.66l2.98,2.72c.26.23.27.63.04.89-.23.26-.63.27-.88.04l-2.98-2.72c-.26-.23-.27-.63-.04-.89.23-.26.63-.27.89-.04" fill="#939598" fill-rule="evenodd"/>
      <path d="M66.83,60.1l3.25,2.39c.28.21.34.6.13.88-.2.28-.6.34-.88.13l-3.25-2.39c-.28-.2-.34-.6-.13-.88.21-.28.6-.34.88-.13M18.95,25.19l3.25,2.39c.28.21.34.6.13.88-.21.28-.6.34-.88.13l-3.25-2.39c-.28-.21-.34-.6-.13-.88.21-.28.6-.34.88-.13" fill="#939598" fill-rule="evenodd"/>
      <path d="M69.6,55.04l3.67,1.67c.32.14.45.51.31.83-.14.32-.51.46-.83.31l-3.67-1.67c-.32-.14-.45-.51-.31-.83.14-.32.52-.45.83-.31M15.52,30.84l3.67,1.67c.31.14.45.52.31.83-.14.31-.52.45-.83.31l-3.67-1.67c-.32-.14-.45-.51-.31-.83.14-.32.52-.45.83-.31" fill="#939598" fill-rule="evenodd"/>
      <path d="M70.58,52.32l3.83,1.27c.33.11.51.46.4.79-.11.33-.46.51-.79.4l-3.83-1.27c-.33-.11-.51-.46-.4-.79.11-.33.46-.51.79-.4M14.27,33.91l3.83,1.27c.33.11.51.46.4.79-.11.33-.46.51-.79.4l-3.83-1.27c-.33-.11-.51-.46-.4-.79.11-.33.46-.51.79-.4" fill="#939598" fill-rule="evenodd"/>
      <path d="M71.27,49.51l3.94.87c.34.07.55.41.48.75-.07.34-.41.55-.75.48l-3.94-.87c-.34-.08-.55-.41-.48-.75.08-.34.41-.55.75-.48M13.34,37.09l3.94.87c.34.07.55.41.48.75-.08.34-.41.55-.75.48l-3.94-.87c-.34-.07-.55-.41-.48-.75.07-.34.41-.55.75-.48" fill="#939598" fill-rule="evenodd"/>
      <path d="M71.66,46.65l4.01.45c.34.04.59.35.55.69s-.35.59-.69.55l-4.01-.45c-.34-.04-.59-.35-.55-.69.04-.34.35-.59.69-.55M12.75,40.35l4.01.45c.34.04.59.35.55.69-.04.34-.35.59-.69.55l-4.01-.45c-.34-.04-.59-.35-.55-.69.04-.34.35-.59.69-.55" fill="#939598" fill-rule="evenodd"/>
      <path d="M71.54,40.87l4.01-.39c.34-.04.65.22.68.56.03.34-.22.65-.56.68l-4.01.39c-.34.03-.65-.22-.68-.56-.03-.35.22-.65.56-.68M12.6,46.96l4.01-.39c.34-.03.65.22.68.56.03.34-.22.65-.56.68l-4.01.39c-.34.03-.65-.22-.68-.56-.04-.35.22-.65.56-.69" fill="#939598" fill-rule="evenodd"/>
      <path d="M71.02,38.03l3.95-.81c.34-.07.67.15.74.49.07.34-.15.67-.49.74l-3.95.81c-.34.07-.67-.15-.74-.49-.07-.34.15-.67.49-.74M13.05,50.25l3.95-.81c.34-.07.67.15.74.49.07.34-.15.67-.49.74l-3.95.81c-.34.07-.67-.15-.74-.49-.07-.34.15-.67.49-.74" fill="#939598" fill-rule="evenodd"/>
      <path d="M70.22,35.25l3.84-1.22c.33-.11.68.08.79.41.1.33-.08.68-.41.79l-3.85,1.22c-.33.1-.68-.08-.79-.41-.1-.33.08-.68.41-.79M13.83,53.46l3.84-1.22c.33-.1.68.08.79.41.11.33-.08.68-.41.79l-3.84,1.22c-.33.11-.68-.08-.79-.41-.1-.33.08-.68.41-.79" fill="#939598" fill-rule="evenodd"/>
      <path d="M69.12,32.58l3.7-1.61c.32-.14.69,0,.82.32.14.32,0,.69-.32.82l-3.7,1.62c-.32.14-.69,0-.83-.32-.14-.32,0-.69.32-.82M14.95,56.58l3.7-1.61c.32-.14.69,0,.83.32.14.32,0,.69-.32.83l-3.7,1.61c-.32.14-.69,0-.83-.32-.14-.32,0-.69.32-.83" fill="#939598" fill-rule="evenodd"/>
      <path d="M66.13,27.64l3.28-2.35c.28-.2.67-.14.87.14.2.28.14.67-.15.88l-3.28,2.35c-.28.2-.67.14-.88-.14-.2-.28-.14-.67.14-.88M18.13,62.38l3.28-2.35c.28-.2.67-.14.87.15.2.28.14.67-.14.87l-3.28,2.35c-.28.2-.67.14-.88-.15-.2-.28-.14-.67.15-.87" fill="#939598" fill-rule="evenodd"/>
      <path d="M64.26,25.43l3.02-2.68c.26-.23.65-.21.88.05.23.26.21.65-.05.89l-3.02,2.68c-.26.23-.65.21-.88-.05-.23-.26-.21-.65.05-.88M20.16,65l3.02-2.68c.26-.23.65-.21.88.05.23.26.21.66-.05.88l-3.02,2.68c-.26.23-.65.21-.88-.05-.23-.26-.21-.65.05-.89" fill="#939598" fill-rule="evenodd"/>
      <path d="M62.17,23.43l2.72-2.98c.23-.26.63-.27.89-.04.26.23.27.63.04.89l-2.72,2.98c-.23.26-.63.27-.89.04-.26-.23-.27-.63-.04-.89M22.45,67.4l2.72-2.98c.23-.26.63-.27.89-.04.26.23.27.63.04.88l-2.72,2.98c-.23.26-.63.27-.89.04-.26-.23-.27-.63-.04-.89" fill="#939598" fill-rule="evenodd"/>
      <path d="M59.89,21.66l2.39-3.25c.2-.28.6-.34.88-.13.28.21.34.6.13.88l-2.39,3.25c-.21.28-.6.34-.88.13-.28-.21-.34-.6-.13-.88M24.98,69.54l2.39-3.25c.21-.28.6-.34.88-.13.28.21.34.6.13.88l-2.39,3.25c-.21.28-.6.34-.88.13-.28-.21-.34-.6-.13-.88" fill="#939598" fill-rule="evenodd"/>
      <path d="M54.83,18.88l1.67-3.67c.14-.32.51-.46.83-.31.32.14.46.52.31.83l-1.67,3.67c-.14.31-.51.45-.83.31-.32-.14-.46-.51-.31-.83M30.63,72.97l1.67-3.67c.14-.32.52-.46.83-.31.32.14.45.51.31.83l-1.67,3.67c-.14.32-.52.45-.83.31-.32-.14-.45-.51-.31-.83" fill="#939598" fill-rule="evenodd"/>
      <path d="M52.11,17.91l1.27-3.83c.11-.33.46-.51.79-.4.33.11.51.46.4.79l-1.27,3.83c-.11.33-.46.51-.79.4-.33-.11-.51-.46-.4-.79M33.7,74.22l1.27-3.83c.11-.33.46-.51.79-.4.33.11.51.46.4.79l-1.27,3.83c-.11.33-.46.51-.79.4-.33-.11-.51-.46-.4-.79" fill="#939598" fill-rule="evenodd"/>
      <path d="M49.3,17.22l.87-3.94c.07-.34.41-.55.75-.48.34.08.55.41.48.75l-.87,3.94c-.08.34-.41.55-.75.48-.34-.08-.55-.41-.48-.75M36.88,75.15l.87-3.94c.07-.34.41-.55.75-.48.34.07.55.41.48.75l-.87,3.94c-.07.34-.41.55-.74.48-.34-.07-.55-.41-.48-.75" fill="#939598" fill-rule="evenodd"/>
      <path d="M46.44,16.83l.45-4.01c.04-.34.35-.59.69-.55.34.04.59.35.55.69l-.45,4.01c-.04.34-.35.59-.69.55-.34-.04-.59-.35-.55-.69M40.14,75.74l.45-4.01c.04-.34.35-.59.69-.55.34.04.59.35.55.69l-.45,4.01c-.04.34-.35.59-.69.55-.34-.04-.59-.35-.55-.69" fill="#939598" fill-rule="evenodd"/>
    </g>
    <g clip-path="url(#clippath-2)">
      <path d="M43.44,40.33s2.11-1.25,3.18.02c.29.71-1.55,33.78-1.55,33.78-.68.78-1.35-.03-1.35-.03l-.28-33.78Z" fill="#231f20" fill-rule="evenodd"/>
      <polygon points="44.46 40.87 45.93 40.89 44.49 72.83 44.46 40.87" fill="#6d6e71" fill-rule="evenodd"/>
      <path d="M42.6,47.33s-1.79-1.09-1.25-3.57c.58-.51,18.04-5.01,18.04-5.01.96.39.65,1.84.65,1.84l-17.44,6.74Z" fill="#231f20" fill-rule="evenodd"/>
      <polygon points="42.46 46.06 42.11 44.62 59.45 39.51 42.46 46.06" fill="#808285" fill-rule="evenodd"/>
      <path d="M44.76,41.95c1.38,0,2.52,1.17,2.52,2.65s-1.14,2.65-2.52,2.65-2.53-1.18-2.53-2.65,1.14-2.65,2.53-2.65" fill="#231f20"/>
      <path d="M43.17,44.47c0-.89.69-1.62,1.55-1.62s1.55.73,1.55,1.62-.69,1.62-1.55,1.62-1.55-.73-1.55-1.62" fill="#a7a9ac"/>
      <path d="M55.8,28.1h-.7v-3.52l-.68.29v-.61c.26-.08.48-.21.68-.38h.69v4.22Z" fill="#231f20" fill-rule="evenodd"/>
      <path d="M64.3,34.48h-4.29c.05-1.05.63-1.74,1.76-2.09.02,0,.28-.08.76-.21.27-.07.47-.15.6-.22.2-.11.3-.26.3-.45s-.1-.36-.3-.48c-.2-.12-.48-.19-.83-.19-.61,0-1.16.2-1.65.59l-.44-.47c.64-.5,1.35-.75,2.11-.75.55,0,1.01.13,1.36.38.35.25.52.57.52.96,0,.56-.37.94-1.11,1.15-.28.06-.68.17-1.22.32-.51.17-.85.45-1.02.83h3.46v.63Z" fill="#231f20" fill-rule="evenodd"/>
      <path d="M66.78,44.25c.57.19.86.54.86,1.04,0,.39-.19.69-.57.91-.39.23-.95.34-1.66.34-.47,0-.87-.07-1.21-.2-.35-.14-.67-.35-.96-.66l.47-.47c.51.46,1.1.69,1.78.69.95,0,1.42-.24,1.42-.71,0-.42-.56-.63-1.68-.63-.14,0-.26,0-.33,0v-.57h.64c.79,0,1.18-.21,1.18-.62,0-.37-.38-.55-1.15-.55-.58,0-1.12.16-1.61.47l-.4-.43c.64-.45,1.32-.67,2.01-.67.59,0,1.05.1,1.38.31.33.21.5.48.5.83,0,.41-.22.71-.65.9" fill="#231f20" fill-rule="evenodd"/>
      <path d="M64.4,57.64h-.97v.83h-.7v-.83h-2.78v-.64l2.79-2.76h.69v2.76h.97v.64ZM62.73,57.01v-2.02l-2.03,2.02h2.03Z" fill="#231f20" fill-rule="evenodd"/>
      <path d="M53.46,62.81c.49-.2.97-.3,1.45-.3.65,0,1.17.13,1.56.38.37.25.56.57.56.98s-.19.76-.56,1.03c-.37.26-.87.4-1.49.4-1,0-1.78-.29-2.34-.86l.55-.37c.45.41,1.04.62,1.79.62.42,0,.74-.07.99-.22.24-.15.36-.35.36-.59s-.13-.42-.39-.56c-.25-.14-.61-.22-1.07-.22-.53,0-1.04.13-1.53.38l-.6-.33.66-2.14h3.32v.63h-2.85l-.4,1.16Z" fill="#231f20" fill-rule="evenodd"/>
      <path d="M42.73,66.36c.56-.49,1.13-.73,1.72-.73s1.05.13,1.41.38c.36.25.55.57.55.96,0,.42-.18.76-.52,1.01-.35.25-.83.37-1.46.37-.76,0-1.36-.19-1.79-.57-.42-.39-.64-.91-.64-1.59,0-.48.13-.9.4-1.27.46-.62,1.12-.93,1.97-.93.78,0,1.4.26,1.85.77l-.51.41c-.32-.36-.77-.54-1.34-.54-.35,0-.66.08-.92.24-.5.3-.75.71-.75,1.22,0,.07,0,.16.03.26M42.89,67c.25.47.76.71,1.52.71.39,0,.7-.07.93-.2.23-.14.35-.31.35-.52,0-.22-.12-.4-.35-.55-.23-.15-.54-.22-.92-.22-.64,0-1.16.26-1.54.78" fill="#231f20" fill-rule="evenodd"/>
      <polygon points="36.15 62.23 33.4 65.82 32.59 65.82 35.34 62.23 31.92 62.23 31.92 61.6 36.15 61.6 36.15 62.23" fill="#231f20" fill-rule="evenodd"/>
      <path d="M26.88,55.59c.33.09.59.23.77.41.18.18.27.39.27.62,0,.39-.19.69-.58.92-.39.22-.95.33-1.67.33s-1.28-.11-1.67-.33c-.39-.22-.58-.53-.58-.92,0-.23.09-.44.27-.62.18-.18.44-.32.77-.41-.5-.16-.75-.45-.75-.87,0-.37.17-.65.51-.86.34-.21.82-.32,1.44-.32s1.11.11,1.45.32c.35.21.52.5.52.86,0,.42-.25.71-.75.87M26.92,54.73c0-.37-.42-.56-1.26-.56s-1.26.19-1.26.56c0,.19.11.34.33.45.22.11.53.16.94.16s.72-.05.93-.16c.22-.11.33-.26.33-.45M27.19,56.57c0-.45-.51-.67-1.52-.67s-1.53.22-1.53.67.51.67,1.53.67,1.52-.22,1.52-.67" fill="#231f20" fill-rule="evenodd"/>
      <path d="M22.75,43.69c-.43.5-1.02.75-1.77.75-.59,0-1.05-.12-1.4-.36-.34-.24-.51-.55-.51-.95,0-.43.18-.77.54-1.02.36-.26.86-.39,1.49-.39.73,0,1.32.2,1.76.6.44.4.66.93.66,1.6s-.23,1.16-.7,1.57c-.44.39-.98.58-1.64.58-.78,0-1.41-.24-1.89-.72l.47-.45c.3.35.76.53,1.38.53.25,0,.48-.04.71-.13.29-.11.52-.29.69-.54.17-.25.26-.53.26-.84,0-.09-.01-.17-.04-.23M22.59,43.04c-.28-.46-.8-.69-1.56-.69-.39,0-.7.07-.92.2-.22.13-.33.31-.33.52,0,.23.11.41.33.55.22.14.52.2.9.2.68,0,1.21-.26,1.58-.79" fill="#231f20" fill-rule="evenodd"/>
      <path d="M46.98,24.07h-4.29c.05-1.05.63-1.74,1.76-2.09l.76-.21c.27-.08.47-.15.6-.22.2-.11.3-.26.3-.45s-.1-.36-.3-.48c-.2-.12-.48-.19-.83-.19-.61,0-1.16.2-1.65.59l-.44-.47c.65-.5,1.35-.75,2.11-.75.56,0,1.01.13,1.36.38.35.25.53.57.53.96,0,.56-.37.94-1.11,1.15-.28.06-.68.17-1.22.32-.51.17-.85.45-1.02.83h3.46v.63ZM41.86,24.07h-.7v-3.52l-.68.29v-.61c.26-.08.48-.21.68-.38h.69v4.22Z" fill="#231f20" fill-rule="evenodd"/>
      <path d="M35.5,27.46h-.7v-3.52l-.68.29v-.61c.26-.08.48-.21.68-.38h.69v4.22ZM33.17,27.46h-.7v-3.52l-.68.29v-.61c.26-.08.48-.21.68-.38h.69v4.22Z" fill="#231f20" fill-rule="evenodd"/>
      <path d="M29.48,32.69c0-.45-.14-.82-.43-1.1-.28-.29-.64-.43-1.08-.43s-.81.14-1.09.43c-.28.28-.42.65-.42,1.1s.14.81.43,1.1c.28.29.64.43,1.08.43s.8-.14,1.08-.43c.28-.29.43-.65.43-1.1M30.18,32.69c0,.6-.22,1.11-.65,1.53-.44.42-.96.64-1.56.64s-1.13-.21-1.56-.63c-.44-.43-.66-.95-.66-1.54s.22-1.1.67-1.53c.43-.42.94-.62,1.55-.62s1.13.21,1.56.62c.44.43.66.94.66,1.53M24.62,34.8h-.7v-3.52l-.68.29v-.61c.26-.08.48-.21.68-.38h.69v4.22Z" fill="#231f20" fill-rule="evenodd"/>
    </g>
  </g>
</svg>