<?xml version="1.0" encoding="UTF-8"?>
<svg id="Layer_2" data-name="Layer 2" xmlns="http://www.w3.org/2000/svg" width="92.86" height="92.86" xmlns:xlink="http://www.w3.org/1999/xlink" viewBox="0 0 92.86 92.86">
  <defs>
    <clipPath id="clippath">
      <rect x="0" width="92.86" height="92.86" fill="none"/>
    </clipPath>
    <linearGradient id="linear-gradient" x1="-445.8" y1="312.95" x2="-444.8" y2="312.95" gradientTransform="translate(29107.46 -41305.77) rotate(-90) scale(92.86 -92.86)" gradientUnits="userSpaceOnUse">
      <stop offset="0" stop-color="#f4cb00"/>
      <stop offset="1" stop-color="#fff"/>
    </linearGradient>
    <clipPath id="clippath-1">
      <rect width="92.86" height="92.86" fill="none"/>
    </clipPath>
  </defs>
  <g id="Layer_1-2" data-name="Layer 1">
    <g clip-path="url(#clippath)">
      <rect x="0" width="92.86" height="92.86" fill="url(#linear-gradient)"/>
    </g>
    <g clip-path="url(#clippath-1)">
      <path d="M73.29,47.99c6.44,1.29,3.27,13.49-.77,14.83-.81.27-2.03.06-2.84.13-.02,1.07,1.26,1.91,1.42,3.22-1.14.78-2.53-.35-4.13-.26-.47.95-1.66,2.98-2.84,4.13,4.24-1.3,9.01-1.15,11.22,1.42,3.58,4.16,4.36,12.36,4,18.96-.08,1.47-.37,2.84-.26,4,.08.85.58,1.23-.13,1.81-2.58-.29-7.6-.02-10.45.26-10.47,1.02-21.67,1.77-32.25,2.19-.5.1-.12,1.08-.77,1.03-.21-.22-.06-.8-.39-.9-4.6-.16-9.08.54-14.71.51.65-3.48,1.74-6.99,2.84-10.45,1.79-5.62,4.18-10.41,9.8-12.12-5.73-3.84-11.33-8.71-10.71-18.19.28-4.28,1.94-8.19,2.71-11.87.67-3.23,1.1-6.67.77-10.58-2.49,1.07-4.92,2.03-6.97,3.48-1.72,1.22-3.99,3.33-4.51,4.26-.65-.66-.46-1.58-.39-2.32.59-6.08,4.81-11.25,9.8-13.42-2.92-.77-5.32-2.3-7.22-4.13-1.17-1.12-2.36-2.69-2.71-4.51,4.05-.81,8.64,1,13.03,1.42-.69-.47-4.66-2.47-5.03-4.77.65-.35,1.39.21,2.19.13-.82-.53-4.36-4.48-3.61-5.68,6.33,2.14,13.88-.04,21.15.13,1.23.03,2.53.29,3.74.13,1.26-.16,2.5-.83,3.74-1.03,4.81-.77,10.64-.79,14.58,1.03,3.43,1.59,7.88,5.22,9.42,8.77,2.09,4.84,2.47,10.87,2.06,17.16-.22,3.44-1,7.55-1.81,11.22" fill="#231f20"/>
      <path d="M26.46,35.61c.23,3.78.11,6.01-.26,9.67-.47,4.7-2.92,9.37-3.1,13.8-.37,9.21,5.6,14.92,12.64,17.67,1.27.5,2.77,1.19,4.13,1.55,9.45,2.52,16.67-2.94,22.06-7.35,1.75-1.44,4.95-5.33,5.93-9.03-.24-.46-.99-1.29-.52-1.68,1.12.82,1.19,1.68,2.32,1.93,3.7.83,5.86-3.67,6.32-5.8.43-1.99.21-5.73-1.29-6.84-1.9-1.41-4.43.47-5.42,1.68-.82,1-1.28,2.55-2.45,2.97-.18-.74.34-.78.26-1.42-5.65-3.9-7.04-12.82-6.45-21.54-2.43.51-11.86,1.44-16.77,5.55-.53-1.4,1.69-5.55,1.55-5.8-7.12.75-13.06,2.68-18.96,4.64" fill="#f1cab2"/>
      <path d="M26.46,35.61c5.9-1.97,11.84-3.89,18.96-4.64.14.26-2.07,4.41-1.55,5.8,4.91-4.1,14.33-5.03,16.77-5.55-.59,8.72.8,17.64,6.45,21.54.08.64-.43.68-.26,1.42,1.17-.42,1.63-1.97,2.45-2.97.99-1.2,3.52-3.08,5.42-1.68,1.5,1.11,1.72,4.85,1.29,6.84-.46,2.13-2.62,6.63-6.32,5.8-1.13-.25-1.2-1.12-2.32-1.93-.47.38.28,1.21.52,1.68-.98,3.7-4.18,7.59-5.93,9.03-5.38,4.41-12.61,9.87-22.06,7.35-.77-.2-1.58-.51-2.38-.84l1.28.28c8.55,1.83,22.6-6.31,22.29-19.34-.3-13.03-8.65-19.24-8.65-19.24,0,0-9.57,1.53-9.97,1.33-.41-.2.31-1.94.31-1.94,0,0-3.97.1-7.94.92-2.43.5-5.96,1.76-8.34,2.66.14-2.09.15-3.95-.01-6.53" fill="#dfb096"/>
      <path d="M46.46,79.85c1.64,4.49,8.32,1.43,7.61-2.45-2.16,1.19-4.82,1.89-7.61,2.45" fill="#dfb096"/>
      <path d="M77.93,78.69c-.46-2.53-1.82-5.09-3.23-6.71-1.61-1.85-5.97-2.46-9.03-1.68-2.92.75-4.38,2.24-6.58,3.87-1.37,1.01-2.76,1.85-4.13,2.84-.14,2.31-1.61,5.36-4.13,5.8-2.61.46-4.7-.75-5.29-2.97-4.85.07-7.95-1.6-11.61-2.71-3.59.97-5.69,3.43-7.74,5.93-1.72,2.68-3.73,9.85-5.03,15.35,4.48.4,9.46-.5,14.32-.39.48-3.19.93-11.93,1.93-12.38.07,1.9-1.02,10.3-1.16,12.38,9.54-.39,19.84-1.21,28.89-1.94.13-2.95.48-12.19,1.29-12.64.28,4.03-1.06,8.71-.52,12.51,4.21-.37,8.21-.64,12.25-.9.44-2.32.32-5.21.39-7.35-.45.29.33-3.65-.64-9.03" fill="#ed2124"/>
      <path d="M67.35,65.28c.94.09,1.82.24,2.71.39-.38-1.17-1.1-2-1.8-2.84-.26.85-.64,1.59-.9,2.45" fill="#9a623b"/>
      <path d="M30.08,21.94c-5.45-.12-9.62-2.42-15.09-1.93.35,1.89,2.02,3.22,3.35,4.39,2.13,1.86,4.67,3.29,8.13,3.61-4.2.56-7.48,4.53-8.38,5.8-1.76,2.48-3.26,4.86-3.23,8.26,7.14-6.83,18.8-10.27,31.6-11.87.77-.82,1.88-2.4,3.23-1.81-3.11,2.32-4.3,5.15-5.03,6.96,4.74-2.74,10.7-4.38,17.03-4.9-.75,6.87-.03,14.82,3.74,19.61.86.47,1.11,1.56,2.19,1.81-1.71-4.4-2.94-11.15-1.03-15.48-.57,4.8-.51,10.59,1.55,14.32,1.62-3.11,2.26-7.2,2.97-11.22.64,3.87-1.29,8.07-2.07,10.96,1.06-.83,1.76-2.03,3.48-2.19.7-1.61.43-3.06.64-4.77.32-2.59.98-4.73,1.16-7.22.17-2.28.36-4.91.13-7.48-.88-9.93-6.42-16.39-15.35-18.45-3.64-.84-8.14-.1-12.13.9,3.8,1.06,6.69,3.03,9.29,5.29-3.91-2.04-7.26-4.63-12.12-4.9-8.82-.49-15.1,1.65-22.83.13,1.57,2.38,3.69,4.22,5.93,5.93-1.22.7-2.57-1.22-4.26-.77,1.76,2.41,3.46,3.12,7.09,5.03" fill="#9a623b"/>
      <path d="M72.13,52.64c.39.43.77.87.64,1.81-.79.1-.5-.87-1.03-1.03-1.15.45-1.67,1.51-2.06,2.71.75.25,1.86.64,1.55,1.55-.74-.04-.86-.69-1.68-.65-.61.34-.26,2.32-1.03,2.06-.72-2.29,1.22-4.98,2.58-6.45h1.03Z" fill="#231f20"/>
      <path d="M37.24,85.85c-.87,1.39-1.3,9.21-1.74,12.19-.96-.02-1.93,0-2.9.03,1.54-5.66,4.67-12.49,4.67-12.49l-.03.27ZM77.93,78.69c.98,5.38.19,9.32.64,9.03-.07,2.14.05,5.03-.39,7.35l-3.38.22c-.12-7.99-.82-16.93-3.35-17.04-3.43-.15-2.92,11.57-2.45,17.47-1.02.08-2.04.17-3.08.26-.55-3.8.79-8.48.52-12.51-.81.45-1.16,9.69-1.29,12.64-2.4.19-4.89.39-7.43.59.83-5.92.5-12.13.5-12.13,0,0-7.23,1.22-15.17-.3-6.3-1.21-11.19-4.09-12.94-5.23,1.08-.82,2.32-1.48,3.82-1.89,3.66,1.11,6.76,2.78,11.61,2.71.59,2.21,2.68,3.42,5.29,2.97,2.52-.44,3.99-3.5,4.13-5.8,1.37-.99,2.76-1.83,4.13-2.84,2.2-1.63,3.66-3.12,6.58-3.87,3.06-.79,7.42-.17,9.03,1.68,1.41,1.62,2.77,4.18,3.23,6.71" fill="#ce181e"/>
      <path d="M65.11,12.66c5.38,3.15,8.67,8.65,9.33,16.11.23,2.57.04,5.2-.13,7.48-.18,2.5-.84,4.64-1.16,7.22-.21,1.71.06,3.16-.64,4.77-1.73.17-2.42,1.36-3.48,2.19.77-2.89,2.7-7.09,2.06-10.96-.71,4.02-1.35,8.11-2.97,11.22-2.05-3.72-2.11-9.52-1.55-14.32-1.91,4.33-.68,11.08,1.03,15.48-1.09-.24-1.33-1.34-2.19-1.81-3.77-4.79-4.49-12.74-3.74-19.61-6.32.52-12.29,2.16-17.03,4.9.72-1.81,1.92-4.64,5.03-6.96-1.34-.59-2.46.99-3.23,1.81-12.8,1.6-24.46,5.04-31.6,11.87-.03-3.4,1.47-5.78,3.23-8.26.9-1.27,4.19-5.24,8.38-5.8-3.45-.33-6-1.75-8.13-3.61-.88-.77-1.9-1.6-2.59-2.62,5.53,3.35,21.43,3.44,26.91,2.54,6.82-1.12,13.03-1.22,13.03-1.22,0,0-.92.81-2.24,2.34-1.32,1.52-3.15,4.58-3.15,4.58,0,0,16.49-8.35,15.67-14.76-.13-1.02-.43-1.87-.85-2.59" fill="#875531"/>
      <path d="M45.24,62.49c-.17-1.15-2.82-1.91-5-1.62-2.18.29-4.98.17-4.8,1.32.17,1.15,3.25,3.12,5.43,2.83,2.18-.29,4.55-1.38,4.38-2.52" fill="#dfb096" fill-rule="evenodd"/>
      <path d="M42.65,75.99c-.02-1.76,2.32-2.45,4.01-2.93.01.18-.87.7-1.47.98.12.47.3.87.29,1.46-.6.02-.55-.62-.68-1.07-1.13.11-1.29,1.19-2.15,1.56" fill="#c6876d"/>
      <path d="M35.41,45.8c2.51,1.27,3.84,4.23,3.23,8.31.74-1.17,1.44-2.77,1.37-4.4-.07-1.64-.09-2.58-1.17-4.5,3.25,3.36,1.86,8.54-1.76,12.41-.75.8-2.54,1.71-2.54,2.74,0,1.06,2.18,2.61,3.42,2.83,1.15.21,2-.15,3.03-.29-2.31,2.03-6.26.11-7.04-2.05-.66-1.85,2.31-2.9,3.03-4.2-2.73-1-5.97.34-8.31.59.5-.51,1.28-.74,2.15-.88-2.26-3.46-1.5-10.18,2.93-10.75-1.95-1.08-3.15-4.44-6.35-4.01-1.09.15-1.6.89-2.54,1.37.08-1.56,2.19-4.74,4.3-4.98,3.24-.37,3.64,2.92,4.69,4.3.93,1.22,2.32,2.6,4.01,1.95-.38.89-1.36,1.69-2.44,1.56" fill="#231f20"/>
      <path d="M44.7,44.72c.38-.55,1.1-.78,1.66-.98,4.36-1.52,4.7-6.81,8.4-7.92,3.32-.99,4.16,2.81,3.71,5.77-.18-.66-.87-1.74-1.66-1.86-1.83-.28-3.46,2.41-4.69,3.42-1.03.84-2.6,1.75-4.3,1.96-.76.09-2.41.27-3.13-.39" fill="#231f20"/>
      <path d="M37.86,72.57h-.2c.13-.47.53-.88.78-1.37,1.42-2.75,4.17-5.9,7.53-6.74,4.15-1.04,4.75,4.49,4.3,7.72-3.39-.82-8.94-.97-12.31.49-.08.02-.09-.04-.1-.1" fill="#231f20"/>
      <path d="M49.49,68.08c-.12-1.51-.66-2.68-1.76-3.03-2.88-.91-6.79,3.19-8.01,4.89-.02.12-.15.2.1.19,2.02-1.75,6.23-2.99,9.67-2.05" fill="#fff"/>
      <path d="M49.98,71.6c.02-.19-.18-1.82-.39-2.93-3.95-1.37-9.01.34-10.85,2.93.02.08,0,.19.1.2,3.2-.86,7.82-1.15,11.14-.2" fill="#fff"/>
      <path d="M27.5,41.01c4.48-.46,5.44,5.79,9.19,3.81-1.77-.28-2.66-1.44-3.62-2.54-.9-1.7-1.19-4.02-4.1-3.71-1.32.74-2.66,1.96-3.13,3.23.54-.4.98-.71,1.66-.78" fill="#9a623b"/>
      <path d="M38.35,51.47c-.25-2.84-2.4-5.76-4.89-5.28-3.53.69-4.27,7.11-2.05,9.87,2.03-.36,4.03-.58,6.06,0,.77-1.08,1.02-3,.88-4.59" fill="#fff"/>
      <path d="M47.43,44.63c2.98-.33,4.41-2.32,6.25-4.01.62-.57,2.07-1.61,3.03-1.56.62.03,1.02.7,1.27.59-.1-2.11-1.02-3.57-2.83-3.22-.78.15-2.13,1.05-2.64,1.86-2.85,4.51-4.83,5.63-6.65,6.35.63-.09,1.11.05,1.56,0" fill="#9a623b"/>
      <path d="M46.15,52.53c-.19-2.78.5-5.72,1.87-6.93,2.91-2.56,7.49.07,8.5,2.93.79,2.22.31,4.96-.1,7.52.56.42,1.44.51,1.85,1.07-1.82-.34-4.37-1.29-7.33-1.07-1.25.09-3.77.66-3.77.66,0,0-.86-1.91-1.03-4.2" fill="#231f20"/>
      <path d="M55.94,55.86c.76-3.46.61-6.88-1.27-8.89-1.39-1.49-4.16-2.67-6.25-.88-1.7,1.45-1.85,4.76-1.54,7.61,0,0,.39,1.8.67,2.42,2.5-.8,5.81-.93,8.4-.26" fill="#fff"/>
      <path d="M38.35,51.47c.14,1.59-.11,3.51-.88,4.59-.64-.18-1.28-.29-1.92-.33.44-1.09.57-2.56.46-3.82-.21-2.36-1.74-4.79-3.68-5.25.34-.23.72-.39,1.13-.47,2.49-.49,4.64,2.44,4.89,5.28" fill="#c4e0e7"/>
      <path d="M55.94,55.86c-.68-.18-1.42-.3-2.18-.37.57-3.18.3-6.23-1.43-8.08-.79-.85-2.02-1.59-3.32-1.75,2-1.14,4.39-.05,5.65,1.3,1.88,2.01,2.03,5.43,1.27,8.89" fill="#c4e0e7"/>
      <path d="M32.32,51.98c0-1.35,1.1-2.45,2.45-2.45s2.45,1.1,2.45,2.45-1.1,2.45-2.45,2.45-2.45-1.1-2.45-2.45" fill="#231f20"/>
      <path d="M32.41,50.71c0-.35.28-.64.64-.64s.64.29.64.64-.29.64-.64.64-.64-.29-.64-.64" fill="#fff"/>
      <path d="M50.52,50.87c0-1.53,1.24-2.77,2.77-2.77s2.77,1.24,2.77,2.77-1.24,2.77-2.77,2.77-2.77-1.24-2.77-2.77" fill="#231f20"/>
      <path d="M50.62,49.43c0-.4.32-.72.72-.72s.72.32.72.72-.32.72-.72.72-.72-.32-.72-.72" fill="#fff"/>
      <path d="M35.23,59.86c0-.39.32-.71.71-.71s.71.32.71.71-.32.71-.71.71-.71-.32-.71-.71" fill="#fff"/>
      <path d="M49.49,68.08c-.74-.2-1.52-.3-2.3-.32-.13-.56-.34-1.14-.64-1.65-.34-.56-1.04-.7-1.82-.62,1.02-.5,2.06-.73,3-.44,1.1.35,1.63,1.52,1.76,3.03" fill="#c4e0e7"/>
      <path d="M49.98,71.6c-3.32-.96-7.94-.67-11.14.2,3.93-1.65,8.6-1.61,8.6-1.61,0,0,.04-.9-.16-1.98.79.06,1.56.2,2.3.46.21,1.12.41,2.74.39,2.93" fill="#c4e0e7"/>
    </g>
  </g>
</svg>