<?xml version="1.0" encoding="UTF-8"?>
<svg id="Layer_2" data-name="Layer 2" xmlns="http://www.w3.org/2000/svg" width="92.86" height="92.86" xmlns:xlink="http://www.w3.org/1999/xlink" viewBox="0 0 92.86 92.86">
  <defs>
    <clipPath id="clippath">
      <rect width="92.86" height="92.86" fill="none"/>
    </clipPath>
    <linearGradient id="linear-gradient" x1="-274.59" y1="206.65" x2="-273.59" y2="206.65" gradientTransform="translate(19236.46 -25406.79) rotate(-90) scale(92.86 -92.86)" gradientUnits="userSpaceOnUse">
      <stop offset="0" stop-color="#75c9bd"/>
      <stop offset="1" stop-color="#fff"/>
    </linearGradient>
  </defs>
  <g id="Layer_1-2" data-name="Layer 1">
    <g clip-path="url(#clippath)">
      <rect y="0" width="92.86" height="92.86" fill="url(#linear-gradient)"/>
      <path d="M26.67,34.04c-6.77,2.15-4.1,12.19.1,13.95.49-.11,1.08-.04,1.77-.24-1.77,11.28,4.1,14.53,9.66,15.31.53,1.66,2.83,2.72,2.62,5.11-3.42.78-4.89,2.85-7.89,4.26-2.83,1.33-17.38,6.48-18.53,7.33-1.91,1.4-3.28,5.15-4.38,7.58-1.35,2.98-7.55,20.82-7.99,27.44,16.31-.54,33.54-.52,50.9-2.05.31.5-1.45,1.09-.67,1.67.98-.22,1.12-1.3,1.89-1.74,8.34-.65,15.96-2.15,24.31-1.98,3.22-.92,7.17-.82,10.12-1.68.22-.67-.5-.43-.47-.92-.47-5.93-6.42-21.77-7.78-24.34-1.04-1.98-2.25-5.86-4.19-6.67-.37-.15-.97-.1-1.33-.19-1.6-.39-10.08-4.24-12.5-5.63-2.39-1.37-4.54-3.52-8.19-3.85-.05-2.01.63-3.28.81-5.06,3.82-1.66,8.39-3.9,10.46-7.66,1.52-2.76,1.69-6.18.43-8.83.87-.17,1.4.81,2.38.67,4.75-.65,6.33-16.6-.51-12.3-.11.03-.15.14-.28.15,7.5-10.35,2.45-25.62-11.01-24.42-.89.08-2.09.7-3.02.58-.86-.11-1.08-1.01-1.63-1.53-2.57-2.45-7.73-4.6-12.74-4.4-4.37.18-8.99,3.54-11.44,6.37-5.02,5.79-4.71,17.44-.9,23.09" fill="#231f20"/>
      <path d="M51.02,19.73c.04-.11.13-.16.28-.15,1.12,1.74,3.2,2.53,4.82,3.78-2.2-.01-3.35,1.71-3.63,3.19,4.14.07,6.26,2.12,8.15,4.4.75-1.45-.06-3.72-.68-4.97,3.63,1.98,5.04,6.19,3.93,11.7,1.77-1.32,3.5-2.69,5.93-3.33,2.58,1.54,1.98,8-.42,10.32-1.13,1.09-1.94.74-2.99.31-1.3-.52-1.25-1.35-2.23-2.44.28,3.02,1.88,4.71,1.68,7.76-.35,5.28-5.6,8.76-10.28,10.5-.32-.11.16-1-.48-.79-1.74,4.22-6.98,6.58-12.48,5.89-2.79-.35-2.81-3.5-4.65-4.33.01.62-.16.24,0,.71-6.63-1.5-9.7-9.29-8.24-14.05.32-1.05.86-2.6.41-3.41-.53.61-.23,1.51-.99,2.23-.69-.07-1.44-.09-2.29,0-2.08-1.12-4.84-5.51-3.31-9.29.54-1.33,2.18-2.66,3.58-2.65,1.88,0,2.05,2.01,3.28,2.92-.7-4.92,1.85-9.91,4.37-10.83-.45,1.31-2.06,3.27-1.17,4.54,1.72-1.71,4.33-3.23,7.29-3.41.74-.05,1.37.35,2.03-.12.3-1.37-.64-2.06-.78-3.22,3.51-.91,6.99-2.68,8.88-5.25" fill="#f1cab2"/>
      <path d="M51.02,19.73c-1.89,2.58-5.37,4.35-8.88,5.25.09.72.49,1.26.7,1.89.87-.09,1.7-.19,2.46-.3,3.19-.46,4.52-2.67,4.52-2.67,0,0,11.19,15.41,6.84,26.94-4.35,11.53-7.01,12.63-12.19,12.5-5.18-.13-7.17-5.2-7.17-5.2v1.99s-5.31-1.29-6.68-6.25c-.65-2.37-.8-4.46-.77-6.1.31-1.01.67-2.27.27-2.98-.03-.22,0-.44,0-.6,0-1-1.36-7.62-3.19-6.55-1.83,1.07-1.83,3.59-1.83,3.59,0,0,2.49-2.75,2.66-1.26.12,1.1-.51,5.18-2.27,5.95.45.49.92.87,1.36,1.1.86-.09,1.6-.07,2.29,0,.73-.69.48-1.55.93-2.15.46.63.1,1.9-.21,2.9l-.13.43c-1.46,4.76-.71,12.09,8.24,14.05-.15-.47.02-.1,0-.71,1.84.83,1.86,3.98,4.65,4.33,5.49.69,10.74-1.67,12.48-5.89.64-.21.16.68.48.79,4.68-1.74,9.93-5.22,10.28-10.5.2-3.05-1.4-4.74-1.68-7.76.98,1.09.94,1.92,2.23,2.44,1.06.43,1.86.78,2.99-.31,2.4-2.32,3-8.79.42-10.32-2.44.64-4.16,2.01-5.93,3.33,1.12-5.5-.29-9.72-3.93-11.7.62,1.25,1.44,3.52.68,4.97-1.89-2.28-4.01-4.33-8.15-4.4.28-1.49,1.43-3.21,3.63-3.19-1.62-1.25-3.7-2.04-4.82-3.78-.16-.01-.25.04-.28.15" fill="#dfb096"/>
      <path d="M47.51,87.57c2.36,6.68,3.28,16.18,2.77,24.5-3.74.43-6.51.64-9.92.86.19-.77-.27-.9-.29-1.47.49-.03.14.79.76.63.55-9.13,2.44-15.76,3.69-24.34.04-.11.13-.17.28-.15.27,1.21,1.79.19,2.7-.02" fill="#ce181e"/>
      <path d="M46.52,83.02c1.04-1.04,2.36-1.8,4.21-2.01-.88,2.48-2.03,5.83-5.11,6.54-2.14-1.32-2.58-4.32-3.65-6.7,2.43-2.28,3.01,1.36,4.55,2.17" fill="#ce181e"/>
      <path d="M36.35,85.38c.76.16,4.03-3.49,5.04-3.96.72,2.18,1.54,4.25,2.62,6.08-1.99,8.79-2.94,16.32-4.06,23.82-3.31-6.24-5.88-27.03-4.68-32.66-.09,1.2.23,6.53,1.08,6.71" fill="#c4e0e7"/>
      <path d="M76.44,78.41c.71.62,1.46,2.5,2.12,3.81,1.51,2.96,2.75,5.08,3.8,8.18.5,1.48,4.25,13.78,4.81,15.84.2.74.53,1.38.37,2.15-2.08.62-5.81.92-8.46,1.18.64-12.33-2.1-29.4-3.1-30.58,1.37,6.83,3.01,27.11,2.28,30.63-8.38.56-16.09,1.59-23.52,2.2,3.17-4.22,13.06-18.88,13.07-20.15.01-1.1-2.08-2.31-2.87-2.95-1.26-1.03-2.31-1.71-3.01-2.94.92-.62,7.51-3.66,7.8-4.8.16-.63-4.2-6.29-5.31-7.82,3.04,1.36,11.33,4.67,11.99,5.26" fill="#6b79a2"/>
      <path d="M25.92,82.47c.24,1.63,4.32,1.57,5.34,2.4-.49,1.25-6.45,5.53-6.7,6.22-.4,1.1,13.35,21.14,12.97,21.87-9.74.39-18.35.51-27.74.96.24-6.2,5.57-31.87,5.41-32.3-.95.03-5.68,29.32-6.34,32.22-2.07.15-3.99.17-5.81.07.68-6.13,6.48-23.17,7.73-25.93,1.01-2.22,2.43-5.8,4.08-7.15,1.01-.82,9.76-4.5,16.44-6.53-1.31,1.65-5.49,7.42-5.37,8.18" fill="#6b79a2"/>
      <path d="M57.68,88.59c-1.32,7.72-3.83,14.71-6.5,20.58-.15-8.05-1.08-15.33-2.71-21.93.91-1.96,2.46-3.26,3.01-5.6,2.63.84,3.08,3.83,5.11,5.26.62-4.71,1.98-10.03,2.13-14.9.59,3.85-.07,10.87-1.05,16.6" fill="#c4e0e7"/>
      <path d="M35.33,72.7c-2.39,7.16-1.72,15.62,2.11,34.43.43,2.13,1.48,3.89,1.83,5.86-5.11-6.64-9.9-13.59-13.96-21.27,2.14-2.71,5.61-4.05,7.45-7.08-1.48-1.3-4.36-1.23-6.02-2.36,2.22-4.01,4.94-7.5,8.62-9.99-.01.14-.02.27-.03.41" fill="#4c4f80"/>
      <path d="M68.56,80.77c-2.52,1.63-6.04,3.94-7.67,4.79.93,2.53,4.34,3.67,5.86,6.02-.91,2.65-9.71,16.23-13.09,20.29-.86.05-1.72.1-2.57.15,4.71-11.84,11.01-29.19,7.94-42.07,3.92,2.87,7.62,5.96,9.53,10.82" fill="#6b79a2"/>
      <path d="M44.88,79.86c-.51-.21-.56-.87-1.13-1.02-3.04,1.05-4.89,3.32-7.16,5.17-.34-4.22-2.52-14.55,4.4-14.62-.05,1.15.08,2.53-.54,3.42-.03-.52-.08-1.01-.44-1.19-1.22,4.47,4.68,4.76,4.88,8.25" fill="#c4e0e7"/>
      <path d="M57.2,69.24c1.39,4.71.05,9.55-1.26,15.8-.6-.87-4.6-5.06-5.53-5.1-1.31-.04-2.41.95-3.76,1.44.32-.95.43-2.11.66-3.16,3.12-2.54,6.8-4.5,8.75-8.24-.4-.32-.72-1.38-1.55-.86-.2.79.81.37.58,1.18-.27.22-.26.72-.73.72-.1-.91-.15-1.86-.18-2.84,1.31.05,2.05.65,3.02,1.04" fill="#c4e0e7"/>
      <path d="M53.78,71.47c-1.84,2.53-4.71,4-7.09,5.98-.56,1.01-.33,2.87-.58,3.83-.2-3.99-3.35-5.07-5.07-7.56.88-1.77.89-3.81.58-5.59,3.46,2.1,9.08.5,11.85-4.13-.3,2.1-.13,5.79.29,7.48" fill="#dfb096"/>
      <path d="M36.03,26.71c1.95-.55,3.09-1.1,5.15-1.54.23.59,1.45,1.53.98,2.4-3.15-.17-5.97,1.08-7.9,2.64.37-1.39,1.15-2.35,1.76-3.49" fill="#744827"/>
      <path d="M54.85,24.25c3.42-.23,4.65,2.36,5.02,4.72-1.52-1.6-3.55-2.69-6.22-3.16.22-.71.7-1.15,1.2-1.56" fill="#744827"/>
      <path d="M57.59,20.29c-2.03-1.48-4-3.01-5.25-5.25-.49,1.11-2.8,5.3-3.58,6.04-4.51,4.27-14,3.09-18.4,7.46.75-2.61,3.76-4.68,6.91-5.42-3.7-.55-6.93,3.14-8.13,5.49.2-2.66,3.69-7.6,3.87-7.95-.59-.03-5.9,5.14-4.69,13.15-1.09-1.43-.85-4.19-1.55-6.01-.45,1.9.07,3.51.02,4.88-3.37-6.3-3.25-16.27,2.13-21.67,2.95-2.96,6.92-5.96,12.04-5.45,5.24.52,9.29,2.62,11.79,6.08,2.53-.65,5.11-1.11,7.22-.83,8.22,1.08,12.89,11.18,8.2,20.66.24-2.16.15-4.86-.86-6.18.33,2.77.68,6.01-.81,8.45-.07.44.19.56.05,1.08-.48.09-.77.39-1.13.61,1.54-2.6.9-6.81.04-8.95-.1,2.4.95,5.99-.66,8.31.41-3.38-.69-6-2.21-7.87-2.49-2.36-6.07-4.05-8.82-6.12-.88-.66-2.22-1.43-1.93-2.87,1.81,1.28,4.2,3.72,6.96,4.06-1.88-1.37-4.63-2.55-5.59-4.41,1.14,1.14,2.82,2.41,4.37,2.72" fill="#9a623b"/>
      <path d="M36.04,42.07c-.75.24-1.29.32-1.93.36.62.95,3.19-.05,4.28.41.7-.43,1.04-1.14,1.94-1.41,3.93-3.36.45-13.14-4.49-8.15-1.76,2.32-1.9,7.26.2,8.79" fill="#231f20"/>
      <path d="M57.82,42.15c.05-.51-.49-.43-.91-.49.43-.54.99-.94,1.46-1.44,1.88-3.54-.05-11.98-4.89-8.12-2.88,2.31-3.75,10.5.93,10.38,1.18-.03,2.39.17,3.4-.34" fill="#231f20"/>
      <path d="M26.65,39.47c.1-.34.03-1.08.64-1.26,1.47.19,1.56,1.73,2.07,2.86-.6.87-2.12,1.53-1.72,2.95.82-.19.79-1.24,1.47-1.58.52.46-.19,1.81.22,2.29,1.88-.67.17-6.44-.79-7-1.25-.73-2.7.51-1.89,1.74" fill="#231f20"/>
      <path d="M66.23,43.91c.7-.94-.34-2.23-.86-2.8.58-1.27,1.4-2.29,2.16-3.38.63.05.56.79,1.14.88.45-.82-.58-1.16-.81-1.71-1.79.72-2.24,2.81-3.43,4.13.33,1.23,1.55,1.57,1.8,2.88" fill="#231f20"/>
      <path d="M57.2,48.55c-1.11,5.26-6.41,8.52-11.67,7.05.28.78,1.58.9,2.56,1.22.56.92,1.09,1.86,2.21,2.41-.15-.08-.97-1.51-1.24-2.4,3.15-.03,7.08-2.71,8.28-5.91.28-.75.57-1.71.26-2.31-.13-.02-.27-.04-.4-.06" fill="#231f20"/>
      <path d="M39.1,32.77c3.19,1.16,3.31,8.75-1.88,9.16-2.67-1.4-3.11-8.72,1.88-9.16" fill="#fff"/>
      <path d="M57.57,40.13c-.65.88-2.13,1.78-3.5,1.56-3.76-.59-2.38-10.02,2.13-9.75,1.46.34,3.51,5.31,1.37,8.19" fill="#fff"/>
      <path d="M35.66,39.88c.34.93.88,1.69,1.57,2.05,4.74-.37,5.05-6.75,2.63-8.73.92,2.66-.07,6.65-3.79,6.95-.14-.07-.28-.17-.41-.27" fill="#c4e0e7"/>
      <path d="M57.57,40.13c1.89-2.55.5-6.75-.86-7.9.74,1.79,1.01,4.35-.3,6.12-.65.88-2.13,1.78-3.5,1.56-.3-.05-.57-.15-.81-.3.3,1.1.94,1.92,1.97,2.08,1.37.22,2.85-.68,3.5-1.56" fill="#c4e0e7"/>
      <path d="M57.59,20.29c-1.55-.32-3.23-1.59-4.37-2.72.95,1.87,3.71,3.04,5.59,4.41-2.76-.34-5.16-2.78-6.96-4.06-.29,1.44,1.05,2.21,1.93,2.87,2.75,2.07,6.33,3.76,8.82,6.12,1.51,1.86,2.62,4.49,2.21,7.87,1.61-2.31.56-5.91.66-8.31.87,2.13,1.5,6.34-.04,8.95.36-.22.64-.52,1.13-.61.15-.52-.11-.64-.05-1.08,1.48-2.44,1.14-5.68.81-8.45,1.01,1.32,1.1,4.03.86,6.18,4.66-9.44.06-19.49-8.1-20.64-2.21-.29-4.79.17-7.32.82-2.51-3.46-6.55-5.56-11.79-6.08-5.12-.51-9.09,2.5-12.04,5.45-2.32,2.32-3.65,5.49-4.16,8.85-.67,4.45.11,9.24,2.03,12.83.06-1.36-.47-2.98-.02-4.88.7,1.82.45,4.57,1.55,6.01-.33-2.22-.17-4.22.25-5.95-.02-1.38-.02-3.59.2-4.79.33-1.84.87-4.05.87-4.05,0,0-1.36,1.42-1.7,4.25-.33,2.84-.33,3.83-.33,3.83,0,0-.5-2.43-.5-4.46v-3.69s-1.16,1.08-1.16,4.4-.17,4.69-.17,4.69c0,0-1-3.85-1-7.67,0-.18-.01-.35-.03-.52.51-3.36,1.85-6.52,4.16-8.85,2.95-2.96,6.92-5.96,12.04-5.45,5.24.52,9.29,2.62,11.79,6.08,2.53-.65,5.11-1.11,7.22-.83,1.99,2.42,4.4,5.75,3.88,6.39-.83,1.03-6.18-2.25-6.18-2.25l4.02,3.5-5.35-1.78s5.98,4.29,3.65,3.88c-2.32-.41-8.17-7.39-8.17-7.39,0,0-1.03,1.9-4.19,2.69-3.15.79-9.5.2-9.5.2,0,0,3.69,1.52,6.18,1.59,2.49.07,3.49.03,3.49.03,0,0-2.99,1.11-8.01,1.31-5.02.2-6.68,2.62-6.68,2.62l6.71-.95c-.7.1-4.1.66-5.88,1.91-1.48,1.05-3.72,4.17-4.77,5.69-.02.13-.04.26-.05.38,1.2-2.35,4.43-6.04,8.13-5.49-3.15.74-10.48,4.72-7.56,12.91.46-13.9,13.6-9.57,19.05-14.94.77-.76,3.09-4.93,3.58-6.04,1.25,2.24,3.22,3.77,5.25,5.25" fill="#744827"/>
      <path d="M45.19,8.29c.46,1.98,2.69,2.2,3.62,3.72-2.13-.33-6.46-1.13-8.15.75,2.17-.84,5.99-.66,8.23.06.76.24,1.32.96,2.11.55-.83-2.02-3.08-2.65-4.39-4.21,2.71.72,4.21,2.63,6.15,4.11.28-.85-.64-1.85-1.29-2.36-1.51-1.2-4.45-2.75-6.27-2.61" fill="#563214"/>
      <path d="M38.9,46.77s.08,2.32,3.06,2.53c2.98.21,5.17.4,6.56-.74,1.39-1.14.93-1.98.93-1.98,0,0,4.23,1.75,2.39,5.21-1.84,3.46-7.18,3.05-9.43,1.7-2.26-1.36-2.71-2.89-2.71-2.89,0,0-.3-.67-.56-2-.26-1.33-.24-1.83-.24-1.83" fill="#dfb096" fill-rule="evenodd"/>
      <path d="M42.62,30.05c.99,2.44,1.78,3.77.62,7.57-1.07,3.51-4.29,7.07-4.71,9.91-.21,1.43.28,2.99,1.01,3.65,2.3,2.06,11.04,1.22,11.11-2.91.01-.72-.38-1.44-1.43-1.48,2.83,4.42-10.1,6.77-9.82,1.42.11-2.01,1.58-3.65,2.47-5.29,2.06-3.78,4.58-10.74.76-12.86" fill="#231f20"/>
      <path d="M40.24,47.05c.03-.5.46-.91.96-.9.5,0,.89.42.87.92-.03.5-.46.91-.96.9-.51,0-.89-.42-.87-.92" fill="#fff"/>
      <path d="M54.02,38.28c0-1.48,1.01-2.71,2.26-2.76,1.25-.05,2.26,1.11,2.26,2.59s-1.01,2.71-2.26,2.76c-1.25.05-2.26-1.11-2.26-2.59" fill="#231f20"/>
      <path d="M37.05,39.11c0-1.52.93-2.79,2.07-2.84,1.15-.04,2.08,1.15,2.08,2.68s-.93,2.79-2.08,2.84c-1.14.04-2.07-1.15-2.07-2.68" fill="#231f20"/>
      <path d="M54.39,36.59c0-.46.37-.84.83-.86.46-.02.83.34.83.8s-.37.85-.83.86c-.46.02-.83-.34-.83-.8" fill="#fff"/>
      <path d="M37.55,37.5c0-.46.37-.84.83-.86.46-.02.83.34.83.8s-.37.85-.83.86c-.46.02-.83-.34-.83-.8" fill="#fff"/>
      <path d="M45.71,88.15c-.44.07-.79-.04-.91-.56-.16-.01-.24.04-.28.15-1.26,8.57-3.14,15.21-3.69,24.34-.62.15-.26-.66-.76-.63.01.57.48.7.29,1.47,2.23-.14,4.18-.28,6.32-.48,1.1-6.96.29-18.83.13-21.12-.1-1.35-.65-2.48-1.09-3.18" fill="#ed2124"/>
      <path d="M50.68,81.14l.05-.14c-.81.09-1.52.29-2.15.57l2.1-.44ZM42.43,81.99c.74,1.99,1.3,4.14,2.85,5.32.46-.21,1.85-.98,1.85-2.51,0-1.82-2.49-2.39-3.65-2.88-.22-.09-.59-.06-1.05.06" fill="#ed2124"/>
      <path d="M76.44,78.41c-.67-.58-8.96-3.9-11.99-5.26,1.12,1.53,5.47,7.19,5.31,7.82-.29,1.14-6.88,4.18-7.8,4.8.69,1.24,1.75,1.91,3.01,2.94.78.64,2.88,1.85,2.87,2.95-.01,1.27-9.9,15.93-13.07,20.15,2.26-.18,4.55-.41,6.87-.65,2.47-3.68,6.99-10.76,8.06-14.87,1.49-5.74,1.66-6.41,1.66-6.41l-3.48-4.22,4.15-2.15-1.82-6.27s5.22.46,3.69,25.4c-.16,2.68-.27,5.12-.32,7.34,1.55-.14,3.12-.26,4.72-.37.73-3.52-.91-23.8-2.28-30.63,1,1.18,3.73,18.25,3.1,30.58,2.64-.26,6.38-.56,8.46-1.18.16-.76-.17-1.41-.37-2.15-.57-2.06-4.31-14.36-4.81-15.84-1.06-3.1-2.29-5.22-3.8-8.18-.67-1.31-1.41-3.18-2.12-3.81" fill="#4c4f80"/>
      <path d="M14.83,83.92c-1.19,6.52-4.85,24.88-5.04,29.99,1.39-.07,2.76-.12,4.13-.18-.28-8.39.63-24.93.92-29.81M7.77,113.9c.36-.02.72-.04,1.08-.07.4-1.76,2.29-13.19,3.93-21.94l-5.02,22.01ZM25.92,82.47c-.06-.39,1.01-2.09,2.24-3.87-1.9,2.32-3.87,4.67-4.04,5.28-.33,1.21,3.48,1.52,3.48,1.52l-5.18,4.56s.5,1.81,1.53,5.25c.82,2.74,8.36,13.7,11.83,17.81l1.75-.07c.39-.73-13.37-20.76-12.97-21.87.25-.69,6.21-4.97,6.7-6.22-1.02-.83-5.1-.77-5.34-2.4" fill="#4c4f80"/>
      <path d="M35.37,72.32c-3.68,2.47-6.41,5.96-8.62,9.97,1.66,1.13,4.54,1.05,6.02,2.36-1.83,3.02-5.3,4.37-7.45,7.08,3.85,7.3,8.37,13.94,13.2,20.28-.28-1.14-1.11-4.07-3.08-7.37-2.53-4.25-7.01-11.42-7.01-12.08s5.02-6.04,5.35-7.38c.33-1.34-3.82-2.88-3.82-2.88,0,0,0-.66,1.33-3.54.9-1.95,2.89-4.8,4.07-6.43" fill="#6b79a2"/>
      <path d="M53.36,111.89l.31-.02c3.38-4.06,12.18-17.64,13.09-20.29-1.46-2.26-4.65-3.4-5.73-5.71-.89,9.2-5.15,20.18-7.66,26.02M68.56,80.77c-1.9-4.86-5.6-7.95-9.53-10.82l.06.24c1.02,1.73,2.1,5.25,2.1,12.41,0,.93-.05,1.89-.13,2.87,1.69-.91,5.06-3.12,7.5-4.7" fill="#4c4f80"/>
      <path d="M37.88,70.5c-3.02,2.8-1.56,10.12-1.29,13.51.61-.5,1.19-1.03,1.77-1.55l3.42-5.11s-3.15-2.57-3.82-3.71c-.33-.56-.25-1.91-.09-3.14" fill="#fff"/>
      <path d="M55.85,70.37c-1.99,3.5-5.53,5.41-8.54,7.86-.23,1.04-.34,2.21-.66,3.15,1.35-.49,2.45-1.49,3.76-1.44.81.03,3.93,3.19,5.13,4.6-.35-.83-.84-2-1.23-3.03-.7-1.83-2.49-2.72-2.49-2.72,0,0,3.02-2.61,3.69-5.82.26-1.25.34-2.06.35-2.59M55.65,69.48l.14.19c-.05-.2-.12-.24-.12-.24l-.02.05Z" fill="#fff"/>
      <path d="M40.73,83.58l-1.09,1c-.55.51-1.1.99-1.56,1.34-.24.18-.51.37-.77.51-.15.08-.48.24-.9.26.39,6.05,1.53,13.86,3,19.26.83-5.71,1.73-11.61,3.2-18.19-.73-1.31-1.34-2.72-1.88-4.17" fill="#fff"/>
      <path d="M56.41,88.26c-.19-.05-.39-.14-.59-.28-.66-.46-1.16-1.03-1.57-1.58-.38-.51-.72-1.06-1.08-1.59-.34-.5-.65-.91-.99-1.23-.3.64-.64,1.19-.97,1.7-.28.43-.58.84-.86,1.28-.17.26-.33.52-.48.8,1.19,4.92,1.99,10.22,2.38,15.93,1.73-4.51,3.22-9.51,4.14-14.86l.03-.16Z" fill="#fff"/>
    </g>
  </g>
</svg>