<?xml version="1.0" encoding="UTF-8"?>
<svg id="Layer_2" data-name="Layer 2" xmlns="http://www.w3.org/2000/svg" width="143.08" height="101.54" xmlns:xlink="http://www.w3.org/1999/xlink" viewBox="0 0 143.08 101.54">
  <defs>
    <radialGradient id="radial-gradient" cx="-216.68" cy="589.42" fx="-216.68" fy="589.42" r="1.22" gradientTransform="translate(11099.21 29866.3) scale(50.89 -50.58)" gradientUnits="userSpaceOnUse">
      <stop offset="0" stop-color="#fff"/>
      <stop offset=".63" stop-color="#c0e5e0"/>
      <stop offset="1" stop-color="#a0d8d1"/>
    </radialGradient>
  </defs>
  <g id="Layer_1-2" data-name="Layer 1">
    <rect width="143.08" height="101.54" fill="url(#radial-gradient)"/>
    <rect x="3.53" y="2.5" width="136.02" height="96.53" fill="none"/>
    <g>
      <path d="M126.52,60.56c-6.16,2.91-76.29,28.86-89.03,33.8-2.37-4.23-20.98-49.89-23.48-53.94C26.69,36.17,102.05,7.4,103.43,6.31c1.27-1,20.2,45.16,23.09,54.25" fill="#6cc7bb"/>
      <path d="M123.6,59.59c-6.15,2.91-76.29,28.86-89.03,33.8-2.37-4.23-20.98-49.89-23.48-53.94C23.77,35.19,99.13,6.42,100.51,5.33c1.27-1,20.2,45.16,23.09,54.25"/>
      <path d="M100.62,6.39c2.27,3.08,18.27,43.23,21.59,52.82-12.79,5.11-82.07,31.12-86.86,33.01-6.4-11.98-21.12-48.19-22.58-52.41,6.1-2.02,83.28-31.65,87.85-33.42" fill="#fff"/>
      <path d="M119.41,51.65c1.23,3.22,2.21,5.87,2.8,7.56-12.79,5.11-82.07,31.12-86.86,33.01-6.4-11.98-21.12-48.19-22.58-52.41,1.16-.39,4.88-1.77,10.19-3.76-.13,12.74,1.41,35.92,14.01,40.29,13.27,4.6,60.28-14.05,82.45-24.69" fill="#dadbe7"/>
      <path d="M72.27,37.12c1.05.4.46,2.47,1.58,2.8.2.46-.07.93.24,1.41.54-.51.55-1.54,1.39-1.76.59,1.17,1.16,2.32,2.02,3.22-1.1.05-2.03-1-2.12-2.35-.86.42-.53,1.98-1.04,2.73-.74-.46-.71-1.7-1.14-2.48-.21,1.04.45,2.91-.71,3.27-1.16-.39-1.56-1.57-2.23-2.46.14-.81-1.09-3.05-.28-3.47.54.74.39,2.18.93,2.92.67-.1.96-.57,1.63-.68.1-1.16-.72-2.34-.27-3.14M71.25,41.8c.28.64.62,1.21,1.34,1.39.07-.58.35-2.16-.26-2.38-.13.55-1.01.38-1.07,1"/>
      <path d="M62.94,41.41c-.57.21-.71-1.28-1.55-1.39-1.05-.13-1.71.97-1.82,2.2.53,1,1.99.46,2.97.82,1.37.5,2.86,2.99.72,3.57-1.16.32-4.07-.71-2.87-1.8.32,1.07,2.87,1.73,3.51.48-.32-.94-.67-1.61-1.67-1.93-1.14-.36-2.61.17-3.07-.71-.36-.69.14-1.94.4-2.29,1.05-1.4,3.36-.71,3.41,1.03"/>
      <path d="M57.68,40.52c.03.86-1.76,1.12-2.48,1.89.72,1.85,2.56,4.34,1.2,6.39-1.17.31-2.27-.09-2.75-.82-.01-.41.26-.53.42-.77.36.06.16.41.12.65.49.44,1.43.6,2.19.18.14-2.39-.93-3.54-1.62-5.08-.78.11-.98,1.2-1.95.79.27-.98,1.45-1.36,2.26-1.89.81-.53,1.64-1.36,2.6-1.35"/>
      <path d="M68.5,40.33c.37-.05.62.02.55.42-.32,0-.62-.03-.55-.42"/>
      <path d="M69.3,42.27c.11,0,.22,0,.33,0,.1.66.73,1.28.69,1.73-.77.3-1.27-.96-1.01-1.72"/>
      <path d="M69,44.34c-.66.88-1.05-.65-1.55-.95-.47.16-.31.91-.75,1.1-.39.21-.66-.54-1.21-.52-.42.66.42.96.36,1.62-.9-.14-1.18-1.47-.8-2.27.69-.04,1.08.21,1.43.52.26-.49.6-.92.96-1.32.9.22.82,1.44,1.56,1.82"/>
      <path d="M50.52,43.14c.24.29-.32.49-.42.77-.21.69.08,1.86-.62,2.07-.4-.91-.1-2.73,1.04-2.84"/>
      <path d="M48.24,44.27c.09.06.18.11.33.1.53,1.39.65,3.25,1.17,4.65.21.57.69,1.03.13,1.52-.71-.89-.85-2.37-1.26-3.56-.4.54-.34,1.52-.73,2.08-1.01-.25-1.4-1.14-2.11-1.7-.01,1.66,1.53,3.27.74,4.66-.8-1.94-1.13-4.36-1.65-6.6,1.35.49,1.39,2.33,2.67,2.89.73-.95.39-2.94.69-4.03"/>
      <path d="M84.25,47.55c.29,1.21,2.12.32,2.95.16-.45,1.04-3.03,1.48-3.6.28-.24,1.98,2.21,4.34.87,6.28-.69,1-2.33.63-3.06-.27-.69-.84-.94-1.95-1.14-2.8.91.96,1.25,2.96,2.68,3.1,2.47.24.48-4.55.01-5.65-.53.39-1.33.94-2.29.58-.34-.44-.3-1.48-.03-1.95.53-.42,1.35-.56,2.17-.69.13.31.24.64.45.86.39-.5-.01-.99.41-1.64.6-.92,2.03-.98,2.19-.04.17,1.1-1.09,1.11-1.61,1.77M84.13,46.9c.49-.21.99-.4,1.19-.89-.27-.67-1.35.13-1.19.89M81.1,48.8c.44.22.85-.06,1.2-.24.07-.44.33-.87.09-1.31-1.04-.1-1.62.67-1.28,1.54"/>
      <path d="M72.86,46.01c.89.74.87,2.42,1.37,3.56,1.91.02,2.3-1.42,4.01-1.59.71,1.04,1.3,2.53,3.09,1.58-.44.57-1.99.92-2.62.37-.52.71-2.67,1.37-2.63-.28-.63.04-1.15.17-1.41.57.14.93,1.29,1.38,1.03,2.37-.95-.39-1.08-1.61-1.79-2.25-.48.11-.67.49-1.08.67.11.58.53.85.79,1.29-1.18.61-.74-1.26-1.98-.94.84-1.31-1.26-2.92-.62-4.33.86.73.84,2.38,1.48,3.34.49-.06.68-.41,1.19-.46-.2-1.31-1.07-2.51-.83-3.9M77.6,48.64c-.27.27.23.23.12.65-.25,0-.51,0-.77.01-.18.34-.23.58.02.87,1.03.06,1.4-.5,1.28-1.54-.23-.23-.31.06-.65.01"/>
      <path d="M67.56,49.04c-.68-.27-.56-1.09-1.33-1.06-.63.02-1.31,1.32-1.39,1.98-.19,1.58.79,3.71,2.14,3.87,1,.12,1.65-.45,2.94-.81-.65.95-1.96,1.25-3.58,1.26-2.5-.35-2.81-7.13-.12-6.95.73.05,1.24.77,1.34,1.71"/>
      <path d="M68.71,52.49c-.28-.4-.44-1.03-.25-1.62.62-.17,1.06-.74,1.96-.47,1.92.58.22,3.45-1.71,2.09M69.02,51.62c-.02.87,1.38.73,1.75.29.14-1.22-1.52-1.15-1.75-.29"/>
      <path d="M59.84,51.34c1.32.93,1.56,2.96,2.91,3.86-.62.25-1.06-.39-1.54-.62-.29.8-.89,1.52-1.83,1.44-1.99-.16-.72-3.55,1.27-2.19-.17-.87-1.11-1.49-.81-2.48M59.26,55.48c1.01.08,1.37-.46,1.4-1.33-1.08-.3-2.06.37-1.4,1.33"/>
      <path d="M85.19,51.45c.11,0,.22,0,.33,0,.59.92.63,2.12,1.04,3.13.45,1.13,1.45,1.93,1.58,3.01-.85.37-.68-.9-1.33-1.06-.19.24-.08.78-.2,1.09-1.59,1.51-4.48.14-3.42-1.79.39-.71,1.73-1.02,2.83-.59-.24-1.23-1.13-2.36-.83-3.79M83.64,56.69c-.02,1.09,1.36,1.39,2.42.72.13-.44.18-.96.19-1.52-1-.7-2.58-.23-2.61.81"/>
      <path d="M52.06,56.04c1.09.79,3.23.51,4.18,1.45-1.47.13-2.85-.52-4.27-.58-.24.44.93,1.48.14,1.84-.7-.57-.49-2.07-1.46-2.36.47-1.2-.58-2.32-1.26-3.02.92-1.34,5.1-1.3,5.14.45.03,1.16-1.54,1.69-2.48,2.21M50.48,53.24c.24.93.72,1.61.92,2.59,1.17-.44,2.33-.89,2.58-2.22-.52-.74-2.51-.82-3.5-.37"/>
      <path d="M77.76,57.44c.14-1.62-.68-3.98-1.93-3.77-1.63.27-.46,4.04-.02,5.32,1.17-.05,1.88-.54,2.38-1.24,1.7-.29,3.19.76,2.87,1.91-.23.84-2.01,1.1-3.15.92-.26-.32-.62-1.01-.35-1.52-.65.09-.99.47-1.52.68.14.55.36,1.03.36,1.73-.1-.06-.2-.13-.22,0-.61-.08-.43-.96-.68-1.4-.25-.12-.61.27-.98-.09.72,2.56,1.35,5,.9,7.59-1.64.31-3.21-.16-3.63-1.46,1.01.36,1.66,1.09,3.08,1.03.48-1.87-.08-4.16-.65-5.85-.54.26-1.52.32-2.18.15-.83-.37-.6-1.88-1.13-2.26-1.87.28-.64,2.51-.82,3.38-.89-.52-.81-2.04-2.01-2.25-.62.79.04,1.77.05,2.82-.85.69-1.49,1.78-2.92,1.46-.6-.13-1.03-1.14-1.76-.84-.13-.48.33-.4.54-.55-.32-.96-.2-2.05.62-2.29.83-.24,2.04.69,1.99,1.38-.05.73-1.01.8-1.62,1.22.41,1.05,2.07.52,2.4-.26-.52-1.18-.11-2.16.05-3.48.85-.31,1.3.42,1.66.95.14-1.52,1.39-2.52,2.81-1.89-.31,1.33.36,2.54,1.68,2.14.95-.94-.6-2.7-.06-3.58.84.21.83,1.28.91,2.26.33.26.41-.4.87-.34-.33-1.65-1.49-4.06-.54-5.64,1.31-2.17,4.59,2.12,3.02,3.75M78.54,58.18c-.01.43-.81,1.41-.07,1.96.64.12,1.56-.23,2.07-.58-.18-.96-.88-1.38-1.99-1.38M64.53,63.1c.63-.18,1.31-.3,1.51-.89-.48-1.19-2.15-.57-1.51.89"/>
      <path d="M57.5,54.75c-.05.8-1.08.67-1.4,1.22.75.54,1.87.42,2.63.5-1.18.63-2.99.3-3.72-.48.06-1.15,1.62-2.15,2.49-1.24"/>
      <path d="M82.22,56.71c-.31.2-.9.14-.97.56.09.86.62,1.28.69,2.16-1.21.29-2.03-4.03.28-2.72"/>
      <path d="M56.55,63.02c-.33-.79.16-2.08-.81-2.59-2.47,2.19,1.27,9.2,3.91,5.04-.09-1.5-1.01-2.71-1.05-3.89,1.28.67,1.17,2.77,1.82,4.1.76-.6.99-1.86,1.26-2.63.7.2.83.99,1.34,1.39.42.23,1.44-.16,1.54.41-1.08.32-2.16.03-2.63-.6-.49.74-.82,1.63-1.49,2.2-.28.28-.37-.27-.66-.31-.72.46-1.53,1.12-2.38,1.13-2.57,0-4.11-5.68-2.1-7.57,1.4.15,2.17,2.14,1.26,3.35"/>
      <path d="M79.68,36.76c-.22.03-.4.21-.6.43-.11.12-.21.23-.31.33-.11.1-.23.19-.37.22l-.15-.09c-.05-.23.03-.41.1-.56.03-.07.06-.14.09-.21.02-.06.03-.12.03-.19-.03-.07-.07-.09-.16-.09-.12,0-.26.03-.38.03h-.2s.1-.18.1-.18c.32-.55.23-1.16-.38-1.2-.14-.17-.12-.25-.07-.32l.19-.16c-.05-.24-.18-.34-.35-.39-.09-.03-.19-.05-.29-.08-.1-.03-.21-.07-.31-.14-.07-.18-.05-.27,0-.35l.15-.17c.12-.14.13-.18.12-.22-.03-.15-.1-.2-.18-.24-.05-.02-.1-.04-.15-.06-.06-.02-.12-.05-.18-.09l-.03-.17c.39-.5.4-1.19-.24-1.32-.11-.28-.07-.42-.03-.55l.05-.18s.02-.1.02-.15c-.05-.08-.13-.11-.25-.11h-.23c-.08,0-.17,0-.26-.04l-.15-.06c.51-.66.22-1.23-.43-1.19-.15-.23-.13-.34-.09-.42l.13-.21c.09-.11.13-.17.09-.29-.04-.13-.11-.16-.22-.18l-.23-.03c-.09-.02-.19-.04-.29-.08-.04-.26.01-.35.07-.43l.18-.19c.11-.11.16-.18.13-.31-.03-.12-.1-.17-.21-.21l-.22-.06c-.09-.03-.18-.06-.27-.1-.08-.2-.05-.29,0-.37l.16-.17.12-.13c-.04-.27-.16-.31-.33-.34-.1-.02-.2-.03-.29-.05-.1-.03-.21-.07-.3-.16l.02-.18c.53-.38.25-.93-.39-.68l-.16-.07c-.05-.13,0-.26.06-.36.03-.05.07-.1.11-.15l.12-.14c.18-.2.29-.36.25-.53-.05-.1-.13-.12-.29-.1l-.27.03c-.09,0-.2,0-.3-.04-.07-.21-.04-.3,0-.37.03-.06.08-.12.12-.18.08-.11.12-.18.08-.3l-.2-.05c-.22.03-.33.05-.43.02-.12-.02-.21-.1-.27-.24l.06-.15c.3-.15.68-.41.72-.74l-.12-.17c-.09-.07-.18-.15-.2-.37v-.15s.14.02.14.02c.24.04.55-.01.76-.13.19-.11.27-.26.13-.48l.06-.18c.28-.11.47.01.61.12l.18.15s.09.05.14.05c.2-.12.21-.34.18-.65.18-.15.26-.15.34-.12l.18.09c.09.06.14.09.21.07.09-.06.13-.14.16-.25.03-.12.04-.26.06-.39.33-.13.49-.02.61.09l.17.16c.29-.08.35-.3.39-.57.35-.19.54-.02.66.09l.16.15.17-.21.07-.26c.04-.09.1-.18.19-.25.15-.04.24-.02.31.02l.16.13c.14.11.16.12.18.12.05-.07.08-.15.1-.26.02-.13.03-.28.05-.41.23-.08.3-.05.37-.02l.19.09c.1.05.19.1.28.12.05-.09.1-.18.14-.27.05-.12.1-.25.15-.38.27-.15.41-.07.52,0,.15.09.18.09.21.09.11-.06.18-.14.23-.24.03-.05.06-.1.08-.16l.07-.18c.27-.1.4-.04.5.02l.14.09c.18.02.19-.02.19-.08,0-.04,0-.1-.01-.16,0-.07-.02-.14-.02-.2l.23-.17c.12.03.2.07.26.12l.18.14c.1.08.19.14.29.14.11-.05.15-.12.17-.23l.03-.21c.01-.07.03-.16.07-.24.3-.1.39-.01.43.12.04.15.06.18.08.19.08.09.22.1.47.02.24-.08.51-.21.75-.29l.15.07c.14.38.1.54-.05.82.04.09.11.11.21.1.16-.01.34-.07.5-.08.16.23.14.35.11.46-.03.1-.07.19-.11.28-.07.15-.12.29-.03.5.02,0,.07.02.16,0,.11-.03.24-.1.35-.13l.14.05c.07.12.06.24.02.35-.02.05-.05.1-.08.15l-.1.14-.09.13c-.11.2-.12.27-.12.34.07.09.18.12.33.13h.27c.09,0,.19.02.29.06l.18.07-.14.13c-.18.17-.27.48-.23.71.04.19.17.34.55.21l.37-.13-.23.31c-.15.21-.31.59-.31.87,0,.22.1.41.57.29l.16-.04v.17c-.02.11-.05.21-.08.3l-.1.26c-.06.16-.11.3-.07.48.22.08.33.07.42.08.07.42,0,.72-.21.96.11.39.28.49.55.39l.16.08c.06.24-.02.43-.09.57-.03.07-.07.13-.09.21-.02.06-.03.12-.03.18.04.09.1.12.19.15.06.02.12.03.18.05.07.02.14.06.2.13-.25.55.08,1.26.49,1.16l.19-.05-.05.19c-.08.31-.16.62-.18.96.06.08.13.12.22.15.05.02.11.02.17.03h.2s.15.02.15.02l-.04.14c-.14.52.13,1.05.55,1.26-.23,1.56.12,1.97.85,2.17l.03.22.08.18c-.24.07-.36.09-.48.09h-.21c.11.15.14.21.15.27l.05.23-.22-.1.16.25-.27-.05c-.1-.02-.2-.05-.28-.09l-.24-.12c-.14-.07-.26-.13-.4-.14-.05.07-.08.16-.1.26-.03.13-.03.27-.06.4-.18.12-.26.11-.33.08l-.16-.1c-.09-.06-.13-.09-.2-.07-.26.07-.35.21-.4.38-.03.09-.05.19-.07.29-.02.1-.05.22-.1.32l-.07.16c-.61-.64-1.18-.54-1.23.1l-.02.22-.18-.13c-.39-.3-.88-.02-.96.5l-.04.24-.17-.18c-.4-.42-1.15-.13-1,.49l.04.18-.18-.04c-.1-.02-.19-.05-.28-.09l-.24-.1c-.14-.06-.28-.1-.44-.1-.16.18-.26.36-.23.59l.03.28-.22-.17c-.52-.4-1.35-.3-1.37.44v.21s-.18-.11-.18-.11c-.24-.16-.52-.23-.88-.15-.07.04-.1.1-.12.21-.01.06-.03.13-.05.19-.03.07-.07.14-.14.2-.12.05-.24.06-.31-.03l-.05-.2v-.11Z"/>
      <path d="M73.61,21.32c1.37,4.2,3.65,9.3,5.48,14.33,3.41-1.18,7.54-2.91,10.13-3.8-1.8-4.85-3.6-9.82-5.49-14.53-3.63,1.25-6.91,2.66-10.13,4" fill="#fff"/>
      <path d="M79.91,17.7c-.06.27-.17.53-.43.71-.65-.22-.64-.04-1.05.47-.26.02-.38-.22-.62-.24.02.62-.73.64-1.07.41-.11.25-.26.48-.59.63-.24-.03-.34-.37-.64-.3.05.26-.1.43-.27.58-.25.14-.32-.07-.54,0-.15.18-.11.45-.41.56-.27.17-.31-.16-.56-.06-.12.27-.54.47-.83.52.16.45-.18.65-.27.98.49.06.36.6.33.96.93-.2.73.86.37,1.28.72-.17.68.65.51,1.1.64-.08.8.64.59,1.13.49.05.78.76.39,1.14.51.23.68.88.39,1.34.61,0,.88.69.67,1.17.22.09.49.07.64.3.02.29-.03.56-.05.83.53.1.91,1.08.35,1.43.29.31.46.31.51.69.03.23-.2.43-.16.53.14.31.67.08.78.52-.11.69.77.86.51,1.7.22.08.37.32.52.55.75-.36,1.38-.64,2.16-.55.08-.67,1.1-.82,1.51-.51-.02-.71.94-.6,1.33-.44-.13-.54.82-.92,1.19-.66.19-.35.75-.68,1.17-.51.02-.28.32-.42.53-.61.37-.16.51.3.8.17.15-.06.47-1.18,1.15-.78-.04-.24.17-.36.21-.56-3.68,1.48-6.06,2.32-10.17,3.88-1.25-3.7-2.94-7.85-4.33-11.51-.39-1.02-1.3-2.76-1.07-3.53,3.51-1.39,7.17-2.9,10.41-4.18,2.01,4.84,3.82,10.23,5.81,14.88-.11.2-.4.32-.57.49.38-.14.62,0,.9.07-.05-.17.02-.3.22-.36-1.07-1.35-.2-1.42-.48-1.99-.17-.34-.82-.55-.61-1.19-.6.01-.83-.85-.59-1.34-.47-.07-.63-.81-.57-1.28-.53-.1-.68-.76-.49-1.24-.52-.11-.54-.97-.39-1.34-.11-.17-.31-.17-.4-.39,0-.3.03-.59.11-.86-.67-.07-.76-.89-.47-1.38-.51,0-.58-.75-.45-1.12-.58.06-.89-.65-.59-1.13-.51-.07-.47-.82-.41-1.2-.2-.06-.46.02-.6-.18-.15-.27-.05-.43-.09-.65-.43.11-.86.24-1.17.11-.12.13-.24.26-.41.36-.27.02-.45-.15-.72-.13.07.2-.09.29-.28.38-.23,0-.43-.05-.6-.18-.1.39-.75.77-1.11.49" fill="#b7dae1"/>
      <path d="M88.55,31.53c-2.47.88-6.05,2.35-9.14,3.45-1.73-4.68-3.81-9.39-5.15-13.36,2.93-1.22,5.92-2.49,9.18-3.64,1.75,4.4,3.44,9.02,5.11,13.55" fill="#c75333"/>
      <path d="M77.41,22.88c.15,0,.42-.23.61-.33-.06-.28-.24-.31-.34-.51.16-.18.5-.39.73-.42.12.23.14.42.13.59.11.13.45-.12.7-.12.08-.17-.15-.31-.18-.47.21-.11.55-.24.78-.3.08.2.05.36.11.55.13.06.3.03.46.02.12-.16.06-.4.06-.61.22-.07.32.13.51.15.16.24-.05.31.05.52,1.76-.46,3.32.2,3.7,2.28-.32.56.02,1.05.12,1.73.54,0,.77.9.86,1.45-.25.64-1.41,1.27-2.14,1.01-.07.26.33.66.44,1.01.47.05,1.21-.14,1.43.24.16.26-.06.7-.24.93-.42.52-1.28.92-1.77,1.32-.82.67-.84,1.42-1.41,1.87.01-1.34.39-2.51.93-3.61-.17-.31-.34-.63-.54-.88-.42.29-.63.75-1.08.8-.71.08-1.4-.83-2.19-.79-.12-.28.02-.44-.08-.71-.5.03-1.07.2-1.32-.33.41-.36.88-.6.75-1.13-.1-.45-.67-.84-.57-1.36-.57.1-1.19.19-1.39-.26-.24-.55.44-1.12.8-1.53-.08-.24-.21-.39-.32-.57-.05-.01-.22.09-.36.09-.16-.09-.32-.36-.37-.45,0-.16.11-.26.2-.37-.13-.35-.45-.28-.53-.73.17-.33.6-.76.98-.42.28.56.27.74.47,1.35"/>
      <path d="M76.97,25.6s.63.16,1.21-.18c.59-.34,1.04-.91,1.04-.91,0,0,.32.61.75.67.43.06,1.71,0,1.71,0l.77.36s.29,1.47.9,1.89c.61.42.75.57,1.13.36.38-.2.6-1.09.5-1.36-.1-.26-.32-.27-.32-.27,0,0,.05-.3-.08-.63-.12-.32-.32-.52-.32-.52,0,0,.33-.82-.36-1.37-.69-.55-1.92-.42-2.57-.26-.65.16-2.77.51-3.08.64-.32.14-.4.09-.66.44-.26.36-.62,1.12-.62,1.12" fill="#ae482a" fill-rule="evenodd"/>
      <path d="M82.12,28.03c.14-.02.14-.1.24-.14-.02-.1-.07-.16-.13-.2-.14.07-.14.2-.12.34" fill="#fbc0aa"/>
      <path d="M82.16,27.48c-.07-.12-.17-.16-.3-.13.02.22.21.3.3.13" fill="#e7855d"/>
      <path d="M78.14,25.66c-.08.63.55,1.04.64,1.53.1.54-.4.71-.65,1.13.29.2.74.05,1.14,0,.1.29-.03.49.11.8.68.08,1-.72,1.34-.9-.1.41-.39.73-.74,1.02.43.31.91.52,1.43.63.47-.25.61-.65,1.09-.91.36.35.57.78.79,1.27-.66.72-.7,1.71-.92,2.62.31-.31.49-.75.92-1.09.75-.61,1.95-.98,1.92-1.96-.33-.16-.7-.25-1.17-.09-.34-.25-.73-.98-.75-1.44-.34-.14-.54-.6-.86-.81.4.27-.16,1.04-.56.61-.01-.72-.4-1.11-.74-2.04-.94.24-1.44-.53-1.98-1.16-.22.3-.61.54-.99.77" fill="#f3a982"/>
      <path d="M78.03,25.01c.27.13.56-.34.76-.34.02.36-.72.39-.7.76.68-.33,1.21-.72,1.33-1.3-.52-.18-1.19.43-1.39.88" fill="#e7855d"/>
      <path d="M84.29,24.79c.24-.14.06-1.15-.18-1.61-.58-1.12-2.17-1.42-2.99-.93.16.51,1.34.3.73.86-.64.08-2.16.15-2.98.5-.41.17-.99.23-1.29.39-.44.25-1.05,1-.83,1.45.18.37.66.3,1.18.09,0-.24.04-.35-.16-.53.3-.55,1.04-1.25,1.77-1.07.14.35-.07.54-.2.77.56,1.19,1.72,1.42,2.93.9-.14.23-.69.29-.9.49.29.74.7,1.21,1.34,1.16.44,1.22,2,1.25,2.72.24-.03-.37-.12-.88-.38-1.23-.67-.47-1.59.98-.61,1.12.18-.17-.18-.36-.12-.45,1.11.37-.49,1.24-.6-.02-.04-.43.54-.76.91-.99-.03-.52-.47-1.18-.93-1.12-.92.12-.84,1.52.1,1.15-.03-.24-.27-.41-.24-.5.34,0,.58.48.35.65-.61.46-1.54-.45-.93-1.12-.84.87-2.09-.67-.89-1.14-.1.3-.43.42-.36.73.17.79,1.67.49,1.37-.42-.34.02-.4.24-.46.47-.06.02-.11.04-.17.07-.02-.06-.06-.09-.09-.11.04-.93,1.54-.54.83.23.34-.46.89.1,1.08-.02" fill="#f3a982"/>
      <path d="M80.18,22.37c.17-.04.16-.17.19-.27-.13.06-.19-.06-.34.03.02.14.12.1.14.24" fill="#e7855d"/>
      <path d="M77.67,23.18c.21.23.52-.12.41-.35-.09,0-.5.16-.41.35" fill="#e7855d"/>
      <path d="M79.23,22.34c-.14-.1-.38.06-.6.13.07.6.82.31.6-.13" fill="#e7855d"/>
      <path d="M76.9,23.23c-.07-.11-.15-.2-.22-.31l-.13.05c.06.22.18.29.35.26" fill="#e7855d"/>
      <path d="M76.9,22.34c-.03.12-.2.17-.18.31.31.32.54.83.84,1.16,1.33-.49,2.53-.74,3.91-.9.03-.17-.3-.16-.48-.36-.28-.29-.32-.65-.28-.98-.21.33,0,.86-.54,1.04-.28-.06-.48-.65-.53-.98-.4.05-.24.35-.16.6,0,1.11-1.18.98-1.24-.26-.43.06-.06.41-.02.6.09.35.05.69-.34.92-.54.05-.72-.83-.99-1.15" fill="#f3a982"/>
      <path d="M76.45,22.32c.51-.06.51-.59.17-.71-.41.16-.55.48-.17.71" fill="#e7855d"/>
      <path d="M79.67,25.91c-.32.15-.8,0-1.16.2.09-.4.95-.51,1.16-.2"/>
      <path d="M79.92,26.56c-.01.05-.3.07-.46.08-.08.08.09.28.1.4-.23.15-.36-.08-.46-.42-.09-.04-.29.19-.37-.06.38-.39.91-.31,1.19,0"/>
      <path d="M78.14,25.66c.38-.23.77-.47.99-.77.55.64,1.04,1.4,1.98,1.16.34.93.73,1.31.74,2.04.39.43.96-.34.56-.61.31.21.52.66.86.81.03.46.41,1.19.75,1.44.48-.16.84-.07,1.17.09.04.98-1.16,1.36-1.92,1.96-.42.34-.6.78-.92,1.09.22-.91.26-1.9.92-2.62-.22-.49-.43-.93-.79-1.27-.28.15-.45.35-.63.55.58-.76-.7-1.25-1.05-1.73-.43-.6-.23-.97-.73-1.53-.51-.57-1.58-.42-1.58-.42l-.34.09c.09.49.56.84.63,1.26.1.54-.4.71-.65,1.13.19-.02.42-.08.62-.15.37-.14.7-.32.7-.32,0,0,.27.52-.13.9,0-.13.01-.26-.04-.42-.4.05-.84.19-1.13,0,.24-.44.74-.6.64-1.14-.08-.42-.55-.78-.63-1.26-.02-.08-.02-.17,0-.27" fill="#e7855d"/>
      <path d="M77.85,25.08c.12.14.08.25.09.46-.32.13-.64.21-.87.15.05-.09.15-.18.33-.23.21-.06.35-.21.44-.38M79.47,24.93c-.04-.07-.08-.15-.12-.23.13-.23.34-.42.2-.77-.59-.15-1.19.28-1.55.75.07-.24.11-.47.2-.56.21-.2,1.18-.56,1.57-.43.39.13.08.51,0,.77-.05.19-.28.3-.31.47M82.28,25.61c-.11.05-.23.09-.34.13-.14,0-1.06-.07-1.41-.22-.38-.17-.34-.74-.34-.74,0,0,.35.46.72.68s.95-.11.95-.11c0,0-.82-.87-.28-1.62.54-.75,1.45-.07,1.35-.34-.08-.2-1.19-.79-1.78-1.09v-.03c.8-.49,2.39-.19,2.97.93.24.46.41,1.47.17,1.61-.18.11-.69-.39-1.03-.04.57-.73-.85-1.07-.88-.16.04.03.07.05.09.11l.17-.07c.06-.23.13-.45.46-.47.3.92-1.2,1.21-1.37.42-.07-.31.26-.43.36-.73-1.2.47.05,2.01.89,1.14-.61.67.32,1.58.93,1.12.23-.17-.01-.66-.35-.65-.03.09.22.26.24.5-.93.38-1.02-1.03-.1-1.15.46-.06.89.6.93,1.12-.37.23-.95.56-.91.99.11,1.26,1.71.39.6.02-.06.09.3.28.12.45-.98-.13-.07-1.58.61-1.12.26.35.34.87.38,1.23-.29.41-.72.65-1.16.7-.2-.06-.43-.15-.64-.32-.65-.51-.22-.93-.22-.93,0,0-.67.11-1.32-.55-.25-.25-.33-.41-.33-.51.21-.08.43-.15.52-.29" fill="#e7855d"/>
      <path d="M83.59,19.39c-.04-.1-.1-.13-.18-.1-.07.03-.15.1-.24.2.02.08.04.17.08.28l.09.28c.11-.07.19-.17.24-.29.05-.12.05-.24,0-.36M83.76,19.33c.07.17.06.33-.02.51-.07.15-.18.28-.34.39l.13.33c.06.16.06.26-.02.29-.05.02-.09-.02-.13-.13-.02-.04-.12-.34-.31-.91l-.08-.21c-.03-.08-.04-.15-.05-.22-.01-.08,0-.12.04-.14.04-.02.08,0,.12.03.07-.08.15-.13.25-.17.19-.07.33,0,.41.22M82.28,19.47l-.14.45c.06-.03.14-.07.25-.13-.01-.04-.03-.1-.05-.16-.03-.08-.05-.13-.06-.16M82.79,19.68s0,.09-.04.13c-.02.01-.06.04-.13.07l.21.53s0,.05,0,.09c-.01.04-.03.06-.05.07-.05.02-.12-.07-.19-.26l-.03-.1-.03-.1-.06-.14-.25.11c-.1.05-.18.08-.25.11-.04.02-.07.01-.08-.02,0-.02,0-.05,0-.09,0-.02.04-.11.09-.28l.2-.58c.03-.09.06-.14.1-.15.04-.01.07.02.1.1.02.06.06.15.1.27l.1.27c.05-.03.09-.05.11-.06.06-.02.1-.01.12.04M81.97,20.76s0,.05-.04.08c-.03.02-.06.04-.09.05-.03,0-.07.02-.12.03-.05.01-.1.02-.12.03-.11.04-.2.08-.28.13-.06.04-.1.06-.11.07-.06.02-.1.02-.11-.01-.02-.05,0-.16.06-.35.1-.29.15-.47.16-.53.05-.21.05-.37.01-.47-.04-.11-.12-.13-.25-.08-.09.03-.15.09-.19.16-.02.04-.04.1-.06.19-.02.07-.04.1-.07.11-.04.01-.06,0-.08-.06-.04-.11-.02-.23.08-.36.08-.11.19-.2.31-.24.08-.03.17-.03.26.01.09.04.15.1.18.18.06.15.06.35,0,.59l-.18.59c.13-.07.22-.1.25-.12.06-.02.13-.04.21-.05.11-.02.17,0,.19.03" fill="#fff" fill-rule="evenodd"/>
      <path d="M94.4,30.71c-.22.03-.4.21-.6.43-.11.12-.21.23-.31.33-.11.1-.23.19-.37.22l-.15-.09c-.05-.23.03-.41.1-.56.03-.07.06-.14.09-.21.02-.06.03-.12.03-.19-.03-.07-.07-.09-.16-.09-.12,0-.26.03-.38.03h-.2s.1-.18.1-.18c.31-.55.23-1.16-.38-1.2-.14-.17-.12-.25-.07-.32l.19-.16c-.05-.24-.18-.34-.35-.39-.09-.03-.19-.05-.29-.08-.1-.03-.21-.07-.31-.14-.07-.18-.05-.27,0-.35l.15-.17c.12-.14.13-.18.12-.22-.03-.15-.1-.2-.18-.24-.05-.02-.1-.04-.15-.06-.06-.02-.12-.05-.18-.09l-.03-.17c.39-.5.4-1.19-.24-1.32-.11-.28-.07-.42-.03-.55l.05-.18s.02-.1.02-.15c-.05-.08-.13-.11-.25-.11h-.23c-.08,0-.17,0-.26-.04l-.15-.06c.51-.66.22-1.23-.43-1.19-.15-.23-.13-.33-.09-.42l.13-.21c.08-.11.13-.17.09-.29-.04-.13-.11-.16-.22-.18l-.23-.03c-.09-.02-.19-.04-.29-.09-.04-.25.01-.35.07-.43l.18-.19c.11-.11.16-.17.13-.31-.03-.12-.1-.17-.21-.21l-.22-.06c-.09-.03-.18-.06-.27-.1-.08-.2-.05-.29,0-.37l.16-.17.12-.13c-.04-.27-.16-.31-.33-.34-.1-.02-.2-.03-.29-.05-.1-.03-.21-.07-.3-.16l.02-.18c.54-.38.25-.93-.39-.68l-.15-.07c-.05-.13,0-.26.06-.36.03-.05.07-.1.11-.15l.12-.14c.17-.2.29-.36.25-.53-.05-.1-.13-.12-.29-.1l-.27.03c-.09,0-.2,0-.3-.04-.07-.21-.04-.3,0-.37.04-.06.08-.12.13-.18.08-.11.12-.18.08-.3l-.2-.05c-.22.03-.33.05-.43.02-.12-.03-.21-.1-.27-.24l.06-.15c.3-.16.68-.41.72-.74l-.12-.17c-.09-.07-.18-.16-.2-.37v-.15s.14.02.14.02c.24.04.55-.01.76-.13.19-.11.27-.26.13-.48l.06-.18c.28-.11.46.01.61.12l.18.15s.09.05.14.05c.2-.12.21-.34.18-.65.18-.15.26-.15.34-.12l.18.09c.09.06.14.09.21.07.09-.06.13-.14.16-.24.03-.12.04-.26.06-.39.33-.13.49-.02.61.09l.17.16c.29-.08.35-.3.39-.57.35-.19.54-.02.66.09l.16.15.17-.21.07-.26c.04-.09.1-.18.19-.25.15-.04.24-.02.31.02l.16.13c.14.11.16.12.18.12.05-.07.08-.15.1-.26.02-.13.03-.28.05-.41.22-.08.3-.05.37-.02l.19.09c.1.05.19.1.28.12.05-.09.1-.18.14-.27.05-.12.1-.25.15-.38.27-.15.41-.08.52,0,.15.09.18.09.21.09.11-.06.18-.14.23-.24.03-.05.05-.1.08-.16l.07-.18c.27-.1.4-.04.5.02l.14.09c.18.02.19-.02.19-.08,0-.04,0-.1-.01-.16,0-.07-.02-.14-.02-.2l.23-.17c.12.03.2.07.26.12l.18.14c.1.08.19.14.29.14.11-.05.15-.13.17-.23l.03-.21c.01-.07.03-.16.07-.24.3-.1.39-.01.43.12.04.15.06.18.08.19.08.09.22.1.47.02.24-.08.51-.21.74-.28l.15.07c.14.38.1.54-.05.82.04.09.11.11.21.1.16-.01.34-.07.5-.08.16.23.14.35.11.46-.03.1-.07.19-.11.28-.07.16-.12.29-.03.5.02,0,.07.02.16,0,.11-.03.24-.1.35-.13l.14.05c.07.12.06.24.02.35-.02.05-.05.1-.08.15l-.1.14-.09.13c-.11.2-.12.27-.12.34.07.09.18.12.33.13h.26c.09,0,.19.02.29.06l.18.07-.14.13c-.18.17-.27.48-.23.71.04.19.17.34.55.21l.37-.13-.23.31c-.15.21-.31.59-.31.87,0,.22.1.41.57.29l.16-.04v.17c-.02.11-.05.21-.08.3l-.1.26c-.06.16-.11.3-.07.48.22.08.33.06.42.08.07.42,0,.72-.21.96.11.39.28.49.55.39l.16.08c.06.24-.02.42-.09.57-.03.07-.07.13-.09.21-.02.06-.03.12-.03.18.04.09.1.12.19.15.06.02.12.03.18.05.07.02.14.06.2.13-.25.55.08,1.26.49,1.16l.19-.05-.05.19c-.08.31-.16.63-.18.96.06.08.13.12.22.15.05.02.11.03.17.03h.2s.15.02.15.02l-.04.14c-.15.52.13,1.05.55,1.26-.23,1.56.12,1.97.85,2.17l.03.22.08.18c-.24.07-.36.09-.48.09h-.21c.11.15.14.21.16.27l.05.23-.22-.1.16.25-.28-.05c-.1-.02-.2-.05-.28-.09l-.24-.12c-.14-.07-.26-.13-.4-.14-.05.07-.08.16-.1.26-.03.13-.03.27-.06.4-.18.12-.26.11-.33.08l-.16-.1c-.08-.06-.13-.09-.2-.07-.26.07-.35.21-.41.38-.03.09-.05.19-.07.29-.02.1-.05.22-.1.32l-.07.16c-.61-.63-1.18-.54-1.23.1l-.02.22-.18-.13c-.4-.3-.88-.02-.96.5l-.04.24-.17-.18c-.4-.42-1.15-.13-1,.49l.04.18-.19-.04c-.1-.02-.19-.05-.28-.09l-.24-.1c-.15-.06-.28-.1-.44-.1-.16.18-.26.36-.23.59l.03.28-.22-.17c-.52-.4-1.35-.3-1.37.44v.21s-.18-.11-.18-.11c-.24-.16-.52-.23-.88-.15-.07.04-.1.1-.12.21-.01.06-.03.13-.05.19-.03.07-.07.14-.14.2-.12.05-.24.06-.31-.03l-.05-.2v-.11Z"/>
      <path d="M88.34,15.28c1.37,4.2,3.65,9.3,5.49,14.32,3.41-1.18,7.54-2.91,10.13-3.8-1.79-4.85-3.6-9.82-5.49-14.53-3.62,1.25-6.91,2.66-10.13,4" fill="#fff"/>
      <path d="M94.64,11.65c-.06.27-.17.53-.43.71-.65-.22-.64-.04-1.05.47-.25.02-.38-.22-.62-.24.02.62-.73.64-1.07.41-.11.25-.26.48-.59.63-.24-.03-.34-.37-.64-.3.05.26-.1.43-.27.58-.25.14-.32-.07-.54,0-.15.18-.11.45-.41.56-.27.17-.31-.16-.56-.06-.12.27-.54.47-.83.52.16.45-.18.65-.27.98.49.06.36.6.33.96.92-.2.73.86.37,1.28.72-.17.69.65.51,1.1.64-.08.8.64.59,1.13.49.05.78.76.39,1.14.51.23.68.88.39,1.34.61,0,.88.69.67,1.17.22.08.49.07.64.3.02.29-.03.56-.05.83.53.1.91,1.08.35,1.43.29.31.46.31.51.69.03.23-.2.43-.15.53.14.31.67.08.78.52-.11.69.77.86.51,1.7.22.08.37.32.52.55.75-.36,1.38-.64,2.17-.55.08-.67,1.1-.82,1.51-.51-.02-.71.94-.6,1.33-.44-.13-.53.82-.92,1.19-.66.19-.35.75-.68,1.17-.51.02-.28.32-.42.53-.61.37-.16.51.3.8.17.15-.06.47-1.18,1.15-.78-.04-.24.17-.36.21-.56-3.68,1.48-6.06,2.32-10.17,3.88-1.25-3.7-2.93-7.85-4.32-11.51-.39-1.02-1.3-2.76-1.07-3.53,3.51-1.39,7.17-2.9,10.41-4.18,2.01,4.84,3.82,10.23,5.81,14.88-.11.2-.4.32-.57.49.38-.14.62,0,.9.07-.05-.17.02-.3.22-.35-1.07-1.35-.2-1.42-.48-1.99-.17-.34-.82-.55-.61-1.19-.6.01-.82-.85-.59-1.34-.47-.07-.62-.81-.57-1.28-.53-.1-.68-.76-.49-1.24-.52-.11-.54-.97-.39-1.34-.11-.17-.31-.17-.4-.39,0-.3.03-.59.11-.86-.67-.07-.76-.89-.47-1.38-.51,0-.58-.75-.45-1.12-.58.06-.89-.65-.59-1.13-.51-.07-.47-.82-.41-1.2-.2-.06-.46.02-.6-.18-.15-.27-.05-.43-.08-.65-.43.11-.86.24-1.17.11-.12.13-.24.26-.41.36-.27.02-.45-.15-.72-.13.07.2-.09.29-.28.38-.23,0-.43-.05-.6-.18-.1.39-.75.77-1.11.49" fill="#b7dae1"/>
      <path d="M103.28,25.48c-2.47.88-6.05,2.35-9.14,3.45-1.74-4.68-3.81-9.39-5.15-13.36,2.93-1.22,5.91-2.49,9.18-3.64,1.75,4.4,3.44,9.02,5.11,13.55" fill="#c75333"/>
      <path d="M92.14,16.84c.15,0,.42-.23.61-.33-.06-.28-.24-.31-.34-.51.16-.18.5-.39.73-.42.12.23.13.42.13.59.11.13.45-.12.7-.12.08-.17-.15-.31-.18-.47.21-.11.55-.24.78-.3.08.2.05.36.11.55.13.06.3.03.45.02.12-.16.06-.4.06-.62.22-.07.32.13.5.15.16.24-.05.31.05.52,1.76-.46,3.32.2,3.71,2.28-.32.56.02,1.05.12,1.73.54,0,.77.9.86,1.45-.25.64-1.41,1.27-2.14,1.01-.07.26.33.66.44,1.01.47.05,1.21-.14,1.43.24.16.26-.05.7-.24.93-.42.52-1.28.92-1.77,1.32-.82.67-.84,1.42-1.41,1.87.01-1.34.39-2.51.93-3.61-.17-.31-.34-.63-.54-.88-.42.29-.63.75-1.08.8-.71.08-1.4-.83-2.19-.79-.12-.28.02-.44-.08-.71-.5.03-1.07.2-1.32-.33.41-.36.88-.6.75-1.13-.1-.45-.67-.84-.57-1.36-.57.1-1.19.19-1.39-.26-.24-.55.44-1.12.8-1.53-.08-.24-.21-.39-.32-.57-.05-.01-.22.09-.36.09-.16-.09-.32-.36-.37-.45,0-.16.11-.26.2-.37-.13-.36-.45-.28-.53-.73.17-.33.6-.76.98-.42.28.56.27.74.47,1.35"/>
      <path d="M91.7,19.55s.63.16,1.21-.18c.59-.34,1.04-.91,1.04-.91,0,0,.32.61.75.67.43.06,1.71,0,1.71,0l.77.36s.29,1.47.9,1.89c.61.42.75.57,1.13.36.38-.2.6-1.09.5-1.36-.1-.26-.32-.27-.32-.27,0,0,.05-.3-.08-.63-.12-.32-.32-.52-.32-.52,0,0,.33-.82-.36-1.37-.69-.55-1.92-.42-2.57-.26-.65.16-2.77.5-3.08.64-.32.14-.4.09-.66.44-.26.35-.62,1.12-.62,1.12" fill="#ae482a" fill-rule="evenodd"/>
      <path d="M96.85,21.98c.14-.02.14-.1.24-.14-.02-.1-.07-.16-.13-.2-.14.07-.14.2-.12.34" fill="#fbc0aa"/>
      <path d="M96.88,21.43c-.07-.12-.17-.16-.3-.13.02.22.21.3.3.13" fill="#e7855d"/>
      <path d="M92.86,19.61c-.08.63.55,1.04.64,1.53.1.54-.4.71-.65,1.13.29.2.74.05,1.14,0,.1.29-.03.49.11.8.68.08,1-.72,1.34-.9-.1.41-.39.73-.74,1.02.43.31.91.52,1.43.63.47-.25.61-.65,1.09-.91.36.35.57.78.79,1.27-.66.72-.7,1.71-.92,2.62.31-.31.49-.75.92-1.09.75-.61,1.95-.98,1.92-1.96-.33-.16-.7-.25-1.18-.09-.34-.25-.73-.98-.75-1.44-.34-.14-.54-.6-.86-.81.4.27-.16,1.04-.56.61-.01-.72-.4-1.11-.74-2.03-.94.24-1.44-.53-1.98-1.16-.22.31-.61.54-.99.77" fill="#f3a982"/>
      <path d="M92.76,18.96c.27.13.56-.34.76-.34.02.36-.72.39-.7.76.68-.33,1.21-.72,1.33-1.3-.52-.18-1.19.43-1.39.88" fill="#e7855d"/>
      <path d="M99.02,18.74c.24-.14.06-1.15-.18-1.61-.58-1.12-2.17-1.42-2.99-.93.15.52,1.34.3.73.86-.64.08-2.16.15-2.98.5-.41.17-.99.23-1.29.39-.44.25-1.05,1-.83,1.45.18.37.66.3,1.18.09,0-.24.03-.35-.16-.53.3-.55,1.04-1.25,1.77-1.07.14.35-.07.54-.2.77.56,1.19,1.72,1.42,2.93.9-.14.23-.69.29-.9.49.29.74.7,1.21,1.34,1.16.44,1.22,2,1.25,2.72.24-.03-.37-.12-.88-.38-1.24-.67-.47-1.59.99-.61,1.12.18-.17-.18-.36-.12-.45,1.11.37-.49,1.24-.6-.02-.04-.43.54-.76.91-.99-.03-.52-.47-1.18-.93-1.12-.92.12-.83,1.52.1,1.15-.03-.24-.27-.41-.24-.5.34,0,.58.48.35.65-.61.46-1.54-.45-.93-1.12-.84.87-2.09-.67-.89-1.14-.1.3-.43.42-.36.73.17.79,1.67.49,1.37-.42-.33.02-.4.24-.46.47-.06.02-.12.04-.17.07-.02-.06-.06-.09-.09-.11.04-.93,1.54-.54.83.23.35-.47.89.1,1.08-.02" fill="#f3a982"/>
      <path d="M94.91,16.32c.17-.04.16-.17.19-.27-.13.06-.19-.06-.34.03.02.14.12.1.14.24" fill="#e7855d"/>
      <path d="M92.4,17.13c.21.23.52-.12.41-.35-.09,0-.5.16-.41.35" fill="#e7855d"/>
      <path d="M93.96,16.29c-.14-.1-.38.06-.59.13.06.6.82.31.59-.13" fill="#e7855d"/>
      <path d="M91.63,17.18c-.07-.11-.15-.2-.22-.31-.04.02-.09.03-.13.05.06.22.18.29.35.26" fill="#e7855d"/>
      <path d="M91.63,16.29c-.03.12-.2.17-.18.31.31.32.54.83.84,1.16,1.33-.49,2.53-.74,3.91-.9.03-.17-.29-.16-.48-.36-.29-.29-.32-.65-.28-.98-.21.33,0,.86-.54,1.04-.28-.06-.48-.65-.53-.98-.4.05-.24.35-.16.6,0,1.11-1.18.98-1.24-.26-.43.06-.07.41-.02.6.09.35.05.69-.34.92-.54.05-.72-.83-.99-1.15" fill="#f3a982"/>
      <path d="M91.17,16.27c.51-.06.51-.59.17-.7-.41.16-.55.47-.17.7" fill="#e7855d"/>
      <path d="M94.4,19.87c-.32.15-.8,0-1.16.2.09-.4.95-.51,1.16-.2"/>
      <path d="M94.65,20.51c-.01.05-.31.07-.46.08-.08.08.09.28.1.4-.23.15-.36-.08-.46-.42-.09-.04-.29.19-.37-.06.37-.39.91-.31,1.19,0"/>
      <path d="M92.86,19.61c.38-.23.77-.47.99-.77.55.64,1.04,1.41,1.98,1.16.34.93.73,1.31.74,2.03.39.43.96-.34.56-.61.31.21.52.66.86.81.03.46.41,1.19.75,1.44.48-.16.84-.07,1.18.09.03.98-1.16,1.36-1.92,1.96-.42.34-.6.78-.92,1.09.22-.91.26-1.9.92-2.62-.22-.49-.44-.93-.79-1.27-.28.15-.45.35-.63.55.58-.76-.7-1.25-1.05-1.73-.43-.59-.23-.96-.73-1.53-.51-.57-1.58-.42-1.58-.42l-.34.09c.09.49.56.84.63,1.26.1.54-.4.71-.65,1.13.19-.02.42-.08.62-.15.37-.14.7-.32.7-.32,0,0,.26.52-.13.9,0-.13.02-.26-.04-.42-.4.04-.84.19-1.13,0,.24-.43.74-.6.64-1.14-.08-.42-.55-.78-.63-1.26-.02-.08-.02-.17,0-.27" fill="#e7855d"/>
      <path d="M92.58,19.03c.12.14.08.25.09.46-.32.13-.64.21-.87.15.05-.09.15-.18.33-.23.21-.06.35-.21.44-.38M94.2,18.89c-.04-.07-.08-.15-.12-.23.13-.23.34-.42.2-.77-.59-.15-1.19.28-1.55.75.07-.24.11-.47.2-.56.21-.2,1.18-.56,1.57-.43.39.13.08.51,0,.77-.06.2-.28.3-.31.47M97.01,19.56c-.11.05-.23.09-.34.13-.14,0-1.06-.07-1.41-.22-.38-.17-.34-.74-.34-.74,0,0,.35.46.72.68.37.23.95-.11.95-.11,0,0-.82-.87-.28-1.62.54-.75,1.45-.07,1.35-.34-.08-.2-1.19-.79-1.78-1.09v-.04c.8-.49,2.39-.19,2.97.93.24.46.41,1.47.17,1.61-.18.11-.69-.39-1.03-.04.58-.73-.85-1.07-.88-.16.04.03.07.05.09.11l.17-.07c.06-.23.13-.45.46-.47.3.92-1.2,1.21-1.37.42-.07-.31.26-.43.36-.73-1.2.47.05,2.01.89,1.14-.61.67.32,1.58.93,1.12.23-.17-.01-.66-.35-.65-.03.09.22.26.24.5-.93.38-1.02-1.03-.1-1.15.46-.06.9.6.93,1.12-.37.23-.94.56-.91.99.11,1.26,1.71.39.6.02-.06.09.3.28.12.45-.98-.13-.07-1.58.61-1.12.26.36.34.87.38,1.24-.29.41-.72.65-1.16.7-.2-.06-.43-.15-.64-.32-.65-.51-.22-.93-.22-.93,0,0-.67.11-1.32-.55-.25-.25-.33-.41-.33-.51.21-.08.43-.15.52-.29" fill="#e7855d"/>
      <path d="M98.32,13.34c-.04-.1-.1-.13-.18-.1-.07.03-.15.1-.24.2.02.08.04.17.08.28l.09.28c.11-.07.19-.17.24-.29.05-.12.05-.24,0-.36M98.49,13.28c.07.17.06.33-.02.51-.07.15-.18.29-.34.4l.13.33c.06.16.06.26-.02.29-.05.02-.09-.02-.13-.13-.02-.04-.12-.34-.31-.91l-.08-.21c-.03-.08-.04-.15-.05-.22-.01-.08,0-.12.04-.14.04-.02.08,0,.12.03.07-.08.15-.13.25-.17.19-.07.33,0,.41.22M97.01,13.43l-.14.45c.06-.03.14-.07.25-.13-.01-.04-.03-.1-.05-.16-.03-.08-.05-.13-.06-.16M97.52,13.64s0,.09-.04.13c-.02.01-.06.04-.13.07l.21.53s0,.05,0,.09c-.01.04-.03.06-.05.07-.05.02-.12-.07-.19-.26l-.04-.1-.03-.1-.06-.14-.25.11c-.1.05-.18.08-.25.11-.04.02-.07.01-.08-.02,0-.02,0-.05,0-.09,0-.02.04-.11.1-.28l.2-.58c.03-.09.06-.14.1-.15.04-.01.07.02.1.1.02.06.06.15.1.27l.1.27c.05-.03.09-.06.11-.06.06-.02.1-.01.12.04M96.69,14.72s0,.05-.03.08c-.03.02-.06.04-.09.05-.03,0-.07.02-.12.03-.05.01-.1.02-.12.03-.11.04-.2.08-.28.13-.06.04-.1.06-.11.07-.06.02-.1.02-.11-.02-.02-.05,0-.16.06-.35.1-.29.15-.47.16-.53.05-.21.06-.37.02-.47-.04-.1-.13-.13-.25-.08-.09.03-.15.09-.19.16-.02.04-.04.1-.06.19-.01.07-.04.1-.06.11-.04.01-.06,0-.08-.06-.04-.11-.02-.24.08-.36.08-.11.19-.2.31-.24.08-.03.17-.03.26.01.09.04.15.1.18.18.06.15.06.35,0,.59l-.18.59c.13-.06.22-.1.25-.12.06-.02.13-.04.21-.05.11-.02.17,0,.18.03" fill="#fff" fill-rule="evenodd"/>
      <path d="M76.04,21.19c-.01.26-.28.24-.53.22-.54.31-1.1.46-1.61.83-.83.6-1.4,1.68-2.37,1.81.74-.81,1.8-2.12,2.86-2.71.35-.19,1.25-.67,1.65-.14" fill="#64696c"/>
      <path d="M77.93,21.24c0,.34-.68.32-.51-.12.19-.02.48-.16.51.12" fill="#64696c"/>
      <path d="M77.23,22.56c-.97.03-1.53.53-2.3.78-.26-.52,2-1.65,2.3-.78" fill="#64696c"/>
      <path d="M79.31,22.45c.03.38-.66.47-.52-.04.2-.01.37-.14.52.04" fill="#64696c"/>
      <path d="M79,24.4c-.25.22-.79.34-1.13.18.05-.49,1.09-.76,1.13-.18" fill="#64696c"/>
      <path d="M73.84,24.21c-.09.35-.23.66-.65.64-.2-.37.2-.72.65-.64" fill="#64696c"/>
      <path d="M76.64,24.92c-1.11.39-1.88,1.17-2.88,1.69.17-1.1,1.68-1.45,2.56-2.05.12.11.38.1.32.36" fill="#64696c"/>
      <path d="M70.73,24.33c.02.21-.17.17-.12.42-.2-.04-.4-.08-.32-.36.1-.07.24-.1.44-.06" fill="#64696c"/>
      <path d="M80.06,25.24c.21,0,.42.01.42.2-.05.22-.24.27-.45.31-.11-.12-.09-.41.03-.51" fill="#64696c"/>
      <path d="M69.65,25.03c-.58.38-1.74.35-2.86.23-.49-.05-1.06-.14-1.44-.36-.01-.14.09-.14.1-.25,1.04.24,3.28.17,4.2.38" fill="#64696c"/>
      <path d="M64.16,24.56c.18-.02.22.07.34.11.06.28-.23.16-.28.32-.22-.02-.18-.33-.06-.43" fill="#64696c"/>
      <path d="M63.72,24.7c-.44.47-1.02.34-1.51.58-.87.44-.97,1.43-1.77,1.93.4-1.57,1.49-2.84,3.28-2.51" fill="#64696c"/>
      <path d="M72.73,25.25c-.55.79-1.64,1.43-2.6,1.45.65-.73,1.64-1.08,2.6-1.45" fill="#64696c"/>
      <path d="M78.55,25.91c-.74.38-1.45.79-2.23,1.13-.05-.79,1.69-1.62,2.23-1.13" fill="#64696c"/>
      <path d="M81.43,26.62c-.14.55-.82.43-1.41.5-1.04.12-1.89.88-2.65.93.22-.78,1.88-1.23,3.12-1.41.34-.05.64-.32.95-.02" fill="#64696c"/>
      <path d="M68.14,26.81c-1.75.72-3.95-.76-5.45.31-.58.41-.58,1.08-1.31,1.45.05-.84.67-1.52,1.25-1.88,1.45-.9,3.59-.17,5.51.13" fill="#64696c"/>
      <path d="M69.09,26.79c0,.37-.51.42-.43-.03.12-.1.32-.09.43.03" fill="#64696c"/>
      <path d="M72.77,27.22c.1.39-.31.2-.29.49-.24.05-.16-.18-.33-.2.02-.31.28-.36.62-.3" fill="#64696c"/>
      <path d="M75.59,27.5c-.76.48-1.2,1.33-2.26,1.47.14-.29,1.23-1.52,1.66-1.6.19-.03.41.02.59.13" fill="#64696c"/>
      <path d="M70.63,28.27c.29-.84.8.42,0,0" fill="#64696c"/>
      <path d="M76.38,28.58c0,.09-.01.17-.02.26-.12.11-.41.09-.52-.04,0-.29.35-.42.53-.22" fill="#64696c"/>
      <path d="M69.74,28.55c-.61.55-2.13.35-2.93.05-.01-.14.09-.14.1-.25.69.13,2-.09,2.83.2" fill="#64696c"/>
      <path d="M65.79,28.45c-.42.34-.99.31-1.5.5-.88.32-1.68.72-2.18,1.56-.54-.55.44-1.27.97-1.56.73-.4,1.96-.96,2.71-.5" fill="#64696c"/>
      <path d="M75.02,29.52c-.11.15-.13.4-.45.31-.06-.08-.08-.2-.06-.35.17-.16.32,0,.51.04" fill="#64696c"/>
      <path d="M71.92,29.47c.18-.02.22.07.34.11,0,.28-.13.4-.37.4-.12-.24-.18-.34.04-.51" fill="#64696c"/>
      <path d="M70.57,30.24c-.29.1-.47.22-.5-.21.19-.12.6-.27.5.21" fill="#64696c"/>
      <path d="M73.94,30.21c.11.48-.61.87-1.03,1.13-.8.5-1.6.97-2.83,1-1.48.04-3.21-.31-4.48.03-1.01.26-1.57.94-2.41,1.12.4-.62,1.13-1.13,1.91-1.41,1.77-.64,3.57.07,5.62-.21,1.29-.18,2.08-1.23,3.13-1.67.03,0,.06,0,.09,0" fill="#64696c"/>
      <path d="M69.28,30.23c-.55.9-2.02.22-2.86.23-.78.01-2.01.32-2.63.67-.43.24-.65.77-1.18.78,1.05-2.18,4.39-1.85,6.67-1.68" fill="#64696c"/>
      <path d="M102.49,28.09c-1.57-.57-3.83-1.39-5.75-1.32.49-.74,2.5-.37,3.75,0,.86.25,1.88.66,2,1.32" fill="#64696c"/>
      <path d="M95.61,26.61c-1.82.57-4.06,1.08-5.17,2.69-.36.53-.1,1.75-1.18,1.7.5-3.04,3.44-4.54,6.35-4.4" fill="#64696c"/>
      <path d="M99.31,27.74c-1.14-.21-2.27.18-3.56.12.26-.35,1.11-.63,1.87-.67.53-.03,1.67-.12,1.69.55" fill="#64696c"/>
      <path d="M100.71,28.15c.42,0,.62.14.56.49-.27.18-.77-.03-.56-.49" fill="#64696c"/>
      <path d="M103.44,28.74c.17.02.34.05.51.07.02.39-.23.42-.57.33.02-.14.04-.27.06-.41" fill="#64696c"/>
      <path d="M94.27,27.97c.17.1-.01.19-.04.3-2.51.96-3.84,4.3-3.57,7.58-1.68-3.1.89-7.31,3.62-7.89" fill="#64696c"/>
      <path d="M101.68,29.42c-.7.53-1.91,1-2.83.85.61-.61,2.04-1.26,2.83-.85" fill="#64696c"/>
      <path d="M104.45,29.71c.29.05.47.2.34.57-.17-.02-.34-.05-.51-.07,0-.24.07-.39.17-.49" fill="#64696c"/>
      <path d="M101.95,30.39c-.02.7-.68.55-1.14.67-.62.33-1.56.81-2.19.73.64-1.08,2.16-1.01,3.33-1.4" fill="#64696c"/>
      <path d="M97.46,30.49c-.02.25-.05.49-.28.48-.27,0-.23-.25-.25-.45.13-.07.29-.1.52-.03" fill="#64696c"/>
      <path d="M105.84,31.66c.27,1.2.12,3.17-.22,4.53-.78-1.21,0-3.04-.4-4.51.14-.1.38-.07.63-.02" fill="#64696c"/>
      <path d="M102.92,31.67c-.23.6-.98.73-1.59.92-.62.19-1.26.5-1.74.48.65-1,2.28-1.33,3.33-1.4" fill="#64696c"/>
      <path d="M96.35,30.96c-.49.61-1.4.6-2.1.85-.75.26-1.43.63-2.19.73.82-1.21,2.62-1.12,3.89-1.74.22-.01.26.11.39.16" fill="#64696c"/>
      <path d="M97.56,31.95c-.02.33-.23.42-.48.45-.07-.1-.08-.24-.04-.42.13-.07.29-.1.52-.03" fill="#64696c"/>
      <path d="M95.95,32.35c.1.02.2.03.31.04-.05.3-.12.57-.48.45,0-.24.07-.39.17-.49" fill="#64696c"/>
      <path d="M89.7,31.58c.08.46-.29.33-.39.57-.19-.1-.23-.31-.23-.55.14-.1.38-.07.63-.02" fill="#64696c"/>
      <path d="M95.6,32.61c-1.15.85-2.79,1.06-4.18,1.59.24-.74,1.18-.87,1.82-1.09.67-.24,1.41-.44,2.07-.64.07.07.15.13.29.15" fill="#64696c"/>
      <path d="M97.76,33.54c.22-.01.26.11.39.16-.06.28-.24.41-.57.33,0-.24.07-.39.17-.49" fill="#64696c"/>
      <path d="M96.72,34.22c-.06.28-.24.41-.57.33-.06-.46.38-.57.57-.33" fill="#64696c"/>
      <path d="M89.13,33.37c.3-.04.24.18.5.17,0,.33-.2.38-.29.58-.31-.07-.51-.5-.21-.75" fill="#64696c"/>
      <path d="M95.64,34.48c-.87.78-2.31.81-3.41,1.28.67-1.05,2.13-1.05,3.41-1.28" fill="#64696c"/>
      <path d="M95.82,35.44c.24.58-1.32.82-2.01.96.2-.94,1.38-.59,2.01-.96" fill="#64696c"/>
      <path d="M104.82,36.7c.17,0,.16.12.29.14-.29.61-.01.37.34.57-.02.13-.04.27-.06.41-.24,0-.47.15-.5-.17-.54.45-.97,1.55-2.1,1.57.75-.74,1.42-1.58,2.02-2.51" fill="#64696c"/>
      <path d="M95.15,40.21c-.63-.59-1.8-.77-1.94-1.72,1.39.92,3.07,1.64,5.13,2.06-.74.64-2.01-.34-3.08-.33,2.88,1.33,7.03.71,8.9-1.03.37-.35.4-.95,1.06-.89-.19.99-1.39,1.94-2.32,2.37-2.67,1.25-7.25.98-9.69-.73-.16-.11-.1-.32-.25-.45-.95-.8-2.87-1.48-3.01-3.01.62-.18.93.57,1.23.9,1.02,1.1,2.36,2.15,3.98,2.83" fill="#64696c"/>
      <path d="M90.95,36.73c.24.08.25-.16.52-.03-.04.18.1.23.05.42-.16-.01-.38-.1-.42.04-.18-.05-.21-.21-.15-.43" fill="#64696c"/>
      <path d="M101.99,39.72c.02.39-.23.43-.57.33.01-.1.03-.2.04-.3.13-.07.29-.1.53-.03" fill="#64696c"/>
      <path d="M99.93,40.26c-.05.33-.34.35-.67.32.03-.11,0-.18-.07-.22.17-.27.47-.28.74-.1" fill="#64696c"/>
    </g>
  </g>
</svg>