<?xml version="1.0" encoding="UTF-8"?>
<svg id="Layer_2" data-name="Layer 2" xmlns="http://www.w3.org/2000/svg" width="193.02" height="133.18" xmlns:xlink="http://www.w3.org/1999/xlink" viewBox="0 0 193.02 133.18">
  <defs>
    <linearGradient id="linear-gradient" x1="96.51" y1="0" x2="96.51" y2="133.18" gradientUnits="userSpaceOnUse">
      <stop offset="0" stop-color="#fff"/>
      <stop offset="1" stop-color="#a6d6f2"/>
    </linearGradient>
    <clipPath id="clippath">
      <rect x="26.63" y="8.88" width="139.77" height="115.41" fill="none"/>
    </clipPath>
    <clipPath id="clippath-1">
      <path d="M77.5,60.13c0-2.49,2.02-4.51,4.51-4.51s4.51,2.02,4.51,4.51-2.02,4.51-4.51,4.51-4.51-2.02-4.51-4.51M75.36,60.13c0,3.67,2.98,6.65,6.64,6.65s6.65-2.98,6.65-6.65-2.98-6.65-6.65-6.65-6.64,2.97-6.64,6.65" fill="none"/>
    </clipPath>
    <clipPath id="clippath-2">
      <rect x="26.63" y="8.88" width="139.77" height="115.41" fill="none"/>
    </clipPath>
  </defs>
  <g id="Layer_1-2" data-name="Layer 1">
    <rect width="193.02" height="133.18" fill="url(#linear-gradient)"/>
    <g clip-path="url(#clippath)">
      <path d="M99.74,112.42c-1.78,4.92-6.5,8.45-12.03,8.45-5.85,0-10.79-3.93-12.31-9.29-1.88,1.09-4.06,1.71-6.39,1.71-6.05,0-11.12-4.2-12.45-9.85-6.71,0-11.95-5.24-11.95-11.71,0-1.53.3-3,.83-4.34-5.17-1.33-8.98-6.02-8.98-11.61,0-1.57.3-3.07.85-4.44-2.92-2.07-4.83-5.48-4.83-9.34,0-3.33,1.43-6.33,3.7-8.42-1.78-1.83-2.88-4.33-2.88-7.09,0-3.81,2.1-7.12,5.2-8.86-.75-1.41-1.17-3.02-1.17-4.73,0-4.94,3.53-9.06,8.2-9.96.56-4.82,4.65-8.57,9.62-8.57,1.22,0,2.39.23,3.47.64.8-1.31,2.27-2.52,3.88-2.18.42.09.81.19,1.16.31l.4-.15c2.78-.99,6.69-1.9,10.6-1.09,8.28,1.72,14.61,9.64,12.31,27.08-.75,5.68-.52,10.83.37,15.21l.51-.02c2.21,0,4.21.88,5.68,2.3,3.8-1.8,7.45-3.33,10.9-5.22,3.91-2.15,7.5-4.76,10.72-8.8,1.55-1.95,3.13-4.19,4.76-6.38,1.65-2.2,3.4-4.4,5.26-6.19,6.35-6.09,19.06-5.38,25.94-.47.49-.11,1.02-.15,1.62-.11,2.09.55,3.66,2.39,3.66,4.59l-.03.5c4.85.53,8.62,4.64,8.62,9.63,0,2.51-.96,4.8-2.52,6.52,2.38,1.85,3.91,4.75,3.91,8s-1.4,5.9-3.61,7.76c1.8,2.02,2.89,4.68,2.89,7.6,0,5.96-4.56,10.86-10.39,11.39.22.91.34,1.86.34,2.84,0,6.62-5.37,11.98-11.98,11.98-1.55,0-3.02-.29-4.38-.82-.06,6.41-5.28,11.59-11.71,11.59-1.88,0-3.66-.45-5.24-1.24-1.8,4.87-6.49,8.35-12,8.35-4.4,0-8.28-2.22-10.58-5.6M81.32,97c1.88-1.09,4.06-1.71,6.39-1.71,4.39,0,8.28,2.22,10.58,5.6,1.78-4.93,6.49-8.45,12.03-8.45,2.42,0,4.69.68,6.62,1.84,1.16-2.5,3.04-4.2,4.77-5.23,1.72-1,3.72-1.57,5.85-1.57,1.44,0,2.83.26,4.1.74,0-6.48,5.03-11.72,11.36-12.04-.15-.74-.23-1.49-.23-2.27,0-3.99,2.04-7.51,5.14-9.55-1.15-1.65-1.83-3.65-1.83-5.81,0-2.78,1.12-5.31,2.94-7.14-2.09-1.78-3.42-4.43-3.42-7.39,0-2.74,1.13-5.21,2.96-6.97-.79-.82-1.28-1.94-1.28-3.16,0-.29.1-.78.32-1.34-5.49-3.28-14.97-3.51-19.28.62-1.62,1.56-3.26,3.61-4.89,5.79-1.64,2.19-3.23,4.45-4.72,6.33-3.57,4.49-7.55,7.4-11.77,9.75-3.52,1.96-7.26,3.56-11.15,5.4.15.61.22,1.24.22,1.9,0,1.92-.66,3.69-1.78,5.09,1.15.92,2.37,1.54,3.61,1.81,1.13.25,2.94.58,4.76.7,1.81.12,3.4,0,4.39-.43,1.09-.82,2.4-.68,3.21.1.83.79,1.06,2.24-.05,3.26-2.03,1.41-4.71,1.68-7.08,1.62-2.4-.06-4.76-.48-6.22-.8-2.45-.54-4.65-1.78-6.56-3.57-.78.25-1.61.38-2.47.38-1.23,0-2.4-.27-3.45-.76-.7,1.24-1.17,2.54-1.29,3.84.15,1.8-.95,2.7-1.99,2.83-1.06.14-2.35-.46-2.54-1.96,0,0-.08-.44,0-1.29.22-2.31,1.09-4.49,2.36-6.48-.79-1.25-1.25-2.74-1.25-4.33,0-2.71,1.32-5.11,3.35-6.59-1.15-5.27-1.39-11.25-.59-17.35,2.13-16.16-3.71-20.98-8.72-22.02-2.08-.44-4.64-.15-7.07.56.08.57.13,1.22.14,1.97-.4,1.14-1.23,2.07-2.3,2.59.23.82.35,1.69.35,2.58,0,4.51-3.08,8.29-7.24,9.38-.19,3.58-2.23,6.67-5.19,8.32.75,1.41,1.17,3.02,1.17,4.73,0,2.53-.93,4.85-2.46,6.62,2.58,2.1,4.23,5.3,4.23,8.89,0,1.26-.2,2.48-.58,3.62,3.39,2.12,5.64,5.88,5.64,10.17,0,1.66-.33,3.23-.94,4.67,2.82.79,5.22,2.62,6.75,5.04.27.66.5,1.44.7,2.38.68-.11,1.37-.17,2.08-.17,5.85,0,10.78,3.93,12.3,9.29" fill="#87bcdd"/>
      <path d="M143.19,31.34c-5.11-4.19-16-4.9-20.71-.38-1.62,1.55-3.26,3.61-4.89,5.79-1.64,2.2-3.23,4.45-4.72,6.33-3.57,4.49-7.54,7.4-11.77,9.75-4.15,2.31-8.58,4.11-13.22,6.41-4.68,2.33-10.13,7.18-10.6,12.14.15,1.8-.95,2.69-1.99,2.83-1.06.13-2.36-.46-2.55-1.96,0,0-.08-.44,0-1.29.66-7.1,7.52-13.02,13.11-15.79,4.46-2.21,8.74-3.92,12.74-6.11,3.91-2.15,7.5-4.76,10.72-8.8,1.55-1.95,3.13-4.19,4.76-6.38,1.65-2.2,3.4-4.4,5.26-6.19,6.61-6.34,20.11-5.31,26.75.15.78.64,1.15,1.07,1.15,1.07,1,1.13.59,2.51-.21,3.21-.8.7-2.21.93-3.21-.2,0,0-.21-.22-.62-.56"/>
      <path d="M144.71,31.09s-.25-.28-.76-.69c-5.45-4.48-17.05-5.36-22.32-.32-3.39,3.26-6.75,8.5-9.72,12.24-6.9,8.67-15.35,11.24-24.59,15.83-4.77,2.36-10.74,7.48-11.27,13.11-.03.35-.02.55-.02.55.18,1.41-1.94,1.68-2.12.27,0,0-.06-.36,0-1.01.61-6.45,6.97-12.11,12.44-14.82,8.95-4.44,17.18-6.84,23.86-15.25,3.12-3.92,6.33-9.01,9.92-12.45,6.07-5.82,18.86-4.95,25.15.21.68.55,1,.93,1,.93.94,1.07-.66,2.48-1.6,1.41" fill="#adadad"/>
      <path d="M144.65,29.46c-5.62-4.62-17.58-5.6-23.12-.29-1.74,1.67-3.45,3.83-5.08,6.01-1.63,2.18-3.21,4.42-4.69,6.28-3.39,4.26-7.16,7.02-11.24,9.29-4.12,2.29-8.53,4.08-13.15,6.37-4.81,2.39-11.04,7.64-11.6,13.59-.04.43-.01.67-.01.67.04.31-.13.49-.4.53-.27.03-.48-.1-.52-.41,0,0-.04-.31.01-.87.58-6.13,6.69-11.65,12.11-14.34,4.48-2.22,8.78-3.94,12.8-6.15,4.06-2.23,7.86-4.98,11.27-9.26,1.56-1.96,3.15-4.22,4.79-6.42,1.64-2.19,3.31-4.29,5.07-5.97,5.8-5.56,18.24-4.78,24.35.24.63.51.93.86.93.86.21.23.16.48-.04.65-.2.18-.45.19-.65-.05,0,0-.27-.31-.82-.76" fill="#fff"/>
      <path d="M82,53.48c3.67,0,6.65,2.98,6.65,6.65s-2.98,6.65-6.65,6.65-6.65-2.98-6.65-6.65,2.98-6.65,6.65-6.65M82,55.62c-2.49,0-4.51,2.02-4.51,4.51s2.02,4.51,4.51,4.51,4.51-2.02,4.51-4.51-2.02-4.51-4.51-4.51" fill="#bfbfbf"/>
      <path d="M90.16,60.13c0,4.51-3.65,8.16-8.16,8.16s-8.16-3.65-8.16-8.16,3.65-8.16,8.16-8.16,8.16,3.65,8.16,8.16M79.01,60.13c0,1.66,1.34,3,3,3s3-1.34,3-3-1.34-3-3-3-3,1.34-3,3"/>
      <path d="M82,53.48c3.67,0,6.65,2.98,6.65,6.65s-2.98,6.65-6.65,6.65-6.65-2.98-6.65-6.65,2.98-6.65,6.65-6.65M82,55.62c-2.49,0-4.51,2.02-4.51,4.51s2.02,4.51,4.51,4.51,4.51-2.02,4.51-4.51-2.02-4.51-4.51-4.51" fill="#fff"/>
    </g>
    <g clip-path="url(#clippath-1)">
      <path d="M81.07,54.1c3.67,0,6.65,2.97,6.65,6.65s-2.98,6.65-6.65,6.65-6.65-2.98-6.65-6.65,2.98-6.65,6.65-6.65M81.07,56.24c-2.49,0-4.51,2.02-4.51,4.51s2.02,4.51,4.51,4.51,4.51-2.02,4.51-4.51-2.02-4.51-4.51-4.51" fill="#bfbfbf"/>
    </g>
    <g clip-path="url(#clippath-2)">
      <path d="M58.21,10.79c2.78-.99,6.68-1.9,10.6-1.09,8.28,1.72,14.61,9.64,12.31,27.08-2.2,16.68,3.99,28.74,10.88,30.25,1.13.25,2.94.58,4.76.7,1.8.12,3.4,0,4.39-.43,1.09-.82,2.4-.68,3.21.1.83.79,1.06,2.24-.05,3.26-2.03,1.41-4.72,1.68-7.08,1.62-2.4-.06-4.76-.48-6.22-.8-10.83-2.37-16.65-18.39-14.42-35.29,2.13-16.16-3.71-20.98-8.72-22.02-3.66-.76-8.77.69-12.09,2.75-1.28.8-2.58.17-3.14-.73-.56-.9-.55-2.34.73-3.14,0,0,1.95-1.22,4.83-2.25"/>
      <path d="M54.03,14.07s1.86-1.16,4.59-2.14c2.69-.96,6.35-1.79,9.95-1.04,7.41,1.54,13.61,8.63,11.36,25.73-2.21,16.75,3.89,29.85,11.82,31.59,2.35.52,7.47,1.38,10.06.12,1.31-1.11,2.75.47,1.7,1.43-3.13,2.16-9.4,1.15-12.22.53-9.78-2.14-15.7-17.1-13.48-33.95,2.17-16.5-3.8-22.14-9.68-23.37-4.06-.85-9.49.74-12.97,2.91-1.21.75-2.33-1.06-1.13-1.81" fill="#adadad"/>
      <path d="M59.14,12.02c2.64-.95,6.18-1.74,9.62-1.02,6.97,1.45,13.11,8.13,10.88,25.06-2.21,16.78,3.84,30.41,12.29,32.26,2.29.5,7.64,1.44,10.45.08.55-.44.89-.33,1.06-.17.17.16.18.4-.02.61-2.89,1.95-8.81,1.02-11.68.39-9.25-2.02-15.23-16.46-13.01-33.28,2.2-16.67-3.84-22.72-10.15-24.03-4.27-.89-9.85.77-13.42,2.98-.27.17-.5.08-.64-.15-.14-.23-.12-.47.15-.64,0,0,1.81-1.13,4.48-2.08" fill="#fff"/>
      <path d="M115.85,86.84c1.72-.99,3.72-1.56,5.85-1.56,1.44,0,2.83.26,4.1.74,0-6.48,5.03-11.72,11.35-12.04-.15-.73-.22-1.49-.22-2.27,0-3.99,2.04-7.5,5.14-9.55-1.15-1.65-1.83-3.65-1.83-5.81,0-2.78,1.12-5.3,2.94-7.14-2.09-1.78-3.42-4.43-3.42-7.39,0-2.74,1.13-5.21,2.96-6.97-.79-.82-1.28-1.94-1.28-3.16,0-1.06,1.3-4.88,5.45-4.59,2.09.55,3.66,2.39,3.66,4.59l-.03.5c4.85.53,8.62,4.64,8.62,9.63,0,2.51-.95,4.8-2.52,6.52,2.38,1.86,3.91,4.75,3.91,8s-1.41,5.9-3.61,7.76c1.8,2.02,2.89,4.68,2.89,7.6,0,5.97-4.56,10.86-10.39,11.4.23.91.34,1.86.34,2.84,0,6.62-5.37,11.98-11.98,11.98-1.54,0-3.02-.29-4.38-.82-.06,6.41-5.28,11.59-11.71,11.59-2.62,0-5.04-.86-6.99-2.31l-.24,1.29c-2.05-1.76-4.34-4.82-4.49-9.8-.18-5.9,3.04-9.33,5.87-11.03"/>
      <path d="M53.63,78.24c2.82.79,5.21,2.62,6.74,5.04.53,1.32.97,3.16,1.14,5.73.28,4.26-2.66,8.12-5.69,10.91-1.61.83-3.43,1.3-5.36,1.3-6.46,0-11.71-5.24-11.71-11.71,0-1.53.3-3,.83-4.34-5.17-1.33-8.98-6.02-8.98-11.61,0-1.57.3-3.07.85-4.44-2.92-2.07-4.82-5.48-4.82-9.34,0-3.33,1.43-6.33,3.7-8.43-1.78-1.83-2.88-4.33-2.88-7.09,0-3.81,2.1-7.12,5.2-8.86-.75-1.41-1.17-3.02-1.17-4.73,0-4.94,3.53-9.06,8.21-9.96.56-4.82,4.65-8.57,9.62-8.57,1.22,0,2.39.23,3.46.64.8-1.31,2.28-2.52,3.88-2.18,3.11.67,4.23,1.82,4.3,6.06-.4,1.14-1.23,2.07-2.3,2.59.23.82.35,1.69.35,2.58,0,4.51-3.08,8.29-7.24,9.38-.19,3.58-2.23,6.67-5.18,8.32.75,1.41,1.16,3.03,1.16,4.73,0,2.53-.92,4.85-2.46,6.62,2.58,2.1,4.24,5.3,4.24,8.89,0,1.26-.21,2.48-.58,3.62,3.39,2.12,5.64,5.88,5.64,10.16,0,1.66-.33,3.23-.94,4.67"/>
      <path d="M56.66,12.34c1.57,0,2.84,1.27,2.84,2.84,0,1.06-.58,1.99-1.45,2.48-.82-1.7-2.12-3.13-3.72-4.1.51-.74,1.37-1.22,2.33-1.22" fill="#bfbfbf"/>
      <path d="M49.31,13.88c4.41,0,7.98,3.57,7.98,7.98,0,3.57-2.35,6.6-5.59,7.62-.6-5.03-4.88-8.93-10.07-8.93h-.19c.62-3.78,3.91-6.67,7.87-6.67" fill="#82537b"/>
      <path d="M41.62,22.26c4.66,0,8.44,3.78,8.44,8.44,0,3.2-1.79,5.99-4.41,7.42-1.86-2.42-4.78-3.98-8.06-3.98-1.19,0-2.32.21-3.39.58-.65-1.2-1.02-2.56-1.02-4.02,0-4.66,3.78-8.44,8.44-8.44" fill="#ce171e"/>
      <path d="M37.59,35.85c4.66,0,8.44,3.78,8.44,8.44,0,2.17-.82,4.15-2.16,5.64-1.7-1-3.68-1.57-5.79-1.57-2.37,0-4.57.72-6.4,1.95-1.56-1.53-2.52-3.66-2.52-6.02,0-4.66,3.78-8.44,8.44-8.44" fill="#cce5f7"/>
      <path d="M38.07,50.06c5.38,0,9.73,4.36,9.73,9.73,0,.97-.14,1.91-.41,2.8-1.47-.65-3.1-1.01-4.81-1.01-4.43,0-8.3,2.4-10.37,5.98-2.35-1.78-3.88-4.6-3.88-7.77,0-5.37,4.36-9.73,9.73-9.73" fill="#82537b"/>
      <path d="M145.99,28.83c1.57,0,2.84,1.27,2.84,2.84,0,.16-.01.31-.04.46-1.75.12-3.37.7-4.74,1.62-.56-.52-.91-1.26-.91-2.08,0-1.57,1.27-2.84,2.84-2.84" fill="#bfbfbf"/>
      <path d="M149.45,33.83c4.41,0,7.98,3.57,7.98,7.98,0,2.17-.86,4.13-2.26,5.57-1.42-.76-3.05-1.19-4.78-1.19-2.19,0-4.23.7-5.89,1.88-1.85-1.46-3.03-3.72-3.03-6.26,0-4.41,3.57-7.98,7.98-7.98" fill="#ce171e"/>
      <path d="M150.38,47.9c4.66,0,8.44,3.78,8.44,8.44,0,2.65-1.22,5.02-3.14,6.57-1.98-1.65-4.53-2.64-7.32-2.64-1.71,0-3.34.38-4.8,1.05-1.02-1.4-1.62-3.11-1.62-4.97,0-4.66,3.78-8.44,8.44-8.44" fill="#82537b"/>
      <path d="M148.37,61.97c5.37,0,9.73,4.36,9.73,9.73s-4.08,9.45-9.22,9.72c-1.65-4.05-5.45-6.99-9.97-7.41-.18-.74-.28-1.51-.28-2.3,0-5.37,4.36-9.73,9.73-9.73" fill="#cce5f7"/>
      <path d="M137.78,75.66c5.67,0,10.27,4.6,10.27,10.27s-4.6,10.27-10.27,10.27c-1.62,0-3.16-.38-4.52-1.04-.56-3.56-2.72-6.59-5.72-8.33-.02-.3-.04-.6-.04-.9,0-5.68,4.6-10.27,10.27-10.27" fill="#ce171e"/>
      <path d="M42.58,63.3c5.67,0,10.27,4.6,10.27,10.27,0,1.54-.34,3.01-.95,4.32-.47-.06-.96-.09-1.45-.09-4.31,0-8.07,2.33-10.11,5.8-4.6-1.02-8.04-5.12-8.04-10.03,0-5.68,4.6-10.27,10.27-10.27" fill="#ce171e"/>
      <path d="M50.46,79.52c3.96,0,7.39,2.31,9.01,5.65-1.05,2.33-1.67,5.17-2.18,9.07-.12.92-.23,1.89-.33,2.88-1.74,1.49-4.01,2.39-6.49,2.39-5.52,0-10-4.48-10-10s4.48-10,10-10" fill="#cce5f7"/>
      <path d="M121.69,86.98c-5.52,0-10,4.48-10,10s4.48,10,10,10,10-4.47,10-10-4.48-10-10-10" fill="#82537b"/>
      <path d="M56.76,13.93c0-.53.43-.97.97-.97s.97.43.97.97-.43.97-.97.97-.97-.43-.97-.97" fill="#fff"/>
      <path d="M145.39,30.25c0-.59.47-1.07,1.07-1.07s1.07.48,1.07,1.07-.48,1.07-1.07,1.07-1.07-.48-1.07-1.07" fill="#fff"/>
      <path d="M147.32,38.95c0-1.84,1.49-3.33,3.34-3.33s3.34,1.49,3.34,3.33-1.49,3.34-3.34,3.34-3.34-1.49-3.34-3.34" fill="#ed2124"/>
      <path d="M148.74,54.57c0-2.31,1.88-4.18,4.18-4.18s4.18,1.87,4.18,4.18-1.87,4.18-4.18,4.18-4.18-1.87-4.18-4.18" fill="#ab80a4"/>
      <path d="M147.56,70.54c0-2.17,1.75-3.93,3.93-3.93s3.93,1.76,3.93,3.93-1.76,3.93-3.93,3.93-3.93-1.76-3.93-3.93" fill="#fff"/>
      <path d="M136.11,85.66c0-2.76,2.24-4.99,5-4.99s4.99,2.23,4.99,4.99-2.23,4.99-4.99,4.99-5-2.23-5-4.99" fill="#ed2124"/>
      <path d="M118.94,95.07c0-2.57,2.09-4.66,4.66-4.66s4.66,2.09,4.66,4.66-2.09,4.66-4.66,4.66-4.66-2.08-4.66-4.66" fill="#ab80a4"/>
      <path d="M47.21,85.66c0-2.76,2.23-4.99,4.99-4.99s4.99,2.23,4.99,4.99-2.24,4.99-4.99,4.99-4.99-2.23-4.99-4.99" fill="#fff"/>
      <path d="M41.01,69.33c0-2.57,2.09-4.66,4.66-4.66s4.66,2.09,4.66,4.66-2.09,4.66-4.66,4.66-4.66-2.09-4.66-4.66" fill="#ed2124"/>
      <path d="M36.24,54.79c0-1.91,1.55-3.45,3.46-3.45s3.45,1.55,3.45,3.45-1.55,3.45-3.45,3.45-3.46-1.55-3.46-3.45" fill="#ab80a4"/>
      <path d="M35.76,41.32c0-2.1,1.71-3.81,3.81-3.81s3.81,1.71,3.81,3.81-1.7,3.81-3.81,3.81-3.81-1.71-3.81-3.81" fill="#fff"/>
      <path d="M40.78,27.86c0-2.04,1.65-3.69,3.69-3.69s3.69,1.65,3.69,3.69-1.65,3.69-3.69,3.69-3.69-1.65-3.69-3.69" fill="#ed2124"/>
      <path d="M48.4,19.77c0-1.91,1.55-3.45,3.45-3.45s3.45,1.55,3.45,3.45-1.55,3.45-3.45,3.45-3.45-1.55-3.45-3.45" fill="#ab80a4"/>
      <path d="M50.36,98.28c0-7.06,5.73-12.79,12.79-12.79s12.79,5.72,12.79,12.79-5.72,12.79-12.79,12.79-12.79-5.72-12.79-12.79" fill="#82537b"/>
      <path d="M50.36,98.28c0-7.06,5.73-12.79,12.79-12.79s12.79,5.72,12.79,12.79-5.72,12.79-12.79,12.79-12.79-5.72-12.79-12.79Z" fill="none" stroke="#000" stroke-miterlimit="3.86" stroke-width="1.81"/>
      <path d="M91.67,103.02c0-7.06,5.73-12.79,12.79-12.79s12.79,5.72,12.79,12.79-5.72,12.79-12.79,12.79-12.79-5.72-12.79-12.79" fill="#cce5f7"/>
      <circle cx="104.45" cy="103.02" r="12.79" transform="translate(-30.7 160.1) rotate(-67.5)" fill="none" stroke="#000" stroke-miterlimit="3.86" stroke-width="1.81"/>
      <path d="M69.06,105.86c0-7.06,5.73-12.79,12.79-12.79s12.79,5.72,12.79,12.79-5.73,12.79-12.79,12.79-12.79-5.72-12.79-12.79" fill="#ce171e"/>
      <path d="M69.06,105.86c0-7.06,5.73-12.79,12.79-12.79s12.79,5.72,12.79,12.79-5.73,12.79-12.79,12.79-12.79-5.72-12.79-12.79Z" fill="none" stroke="#000" stroke-miterlimit="3.86" stroke-width="1.81"/>
      <path d="M59.22,93.81c0-2.63,2.13-4.76,4.76-4.76s4.76,2.13,4.76,4.76-2.13,4.76-4.76,4.76-4.76-2.13-4.76-4.76" fill="#ab80a4"/>
      <path d="M63.26,93.09c0-1.31,1.06-2.37,2.37-2.37s2.37,1.06,2.37,2.37-1.06,2.37-2.37,2.37-2.37-1.06-2.37-2.37" fill="#e5bde1"/>
      <path d="M102.53,98.64c0-2.63,2.13-4.76,4.76-4.76s4.76,2.13,4.76,4.76-2.13,4.76-4.76,4.76-4.76-2.13-4.76-4.76" fill="#fff"/>
      <path d="M77.36,102.88c0-3.31,2.69-6,6-6s6,2.69,6,6-2.68,6-6,6-6-2.69-6-6" fill="#ed2124"/>
      <path d="M82.92,101.35c0-1.31,1.06-2.37,2.37-2.37s2.37,1.06,2.37,2.37-1.06,2.37-2.37,2.37-2.37-1.06-2.37-2.37" fill="#ffa1a6"/>
      <path d="M140.22,84.53c0-1.31,1.06-2.37,2.37-2.37s2.37,1.06,2.37,2.37-1.06,2.37-2.37,2.37-2.37-1.06-2.37-2.37" fill="#ffa1a6"/>
      <path d="M140.22,84.53c0-1.31,1.06-2.37,2.37-2.37s2.37,1.06,2.37,2.37-1.06,2.37-2.37,2.37-2.37-1.06-2.37-2.37" fill="#ffa1a6"/>
      <path d="M149.7,38.65c0-.88.71-1.6,1.59-1.6s1.6.71,1.6,1.6-.71,1.6-1.6,1.6-1.59-.71-1.59-1.6" fill="#ffa1a6"/>
      <path d="M44.57,68.41c0-1.31,1.06-2.37,2.37-2.37s2.37,1.06,2.37,2.37-1.06,2.37-2.37,2.37-2.37-1.06-2.37-2.37" fill="#ffa1a6"/>
      <path d="M43.1,27.71c0-1.08.88-1.96,1.96-1.96s1.96.88,1.96,1.96-.88,1.96-1.96,1.96-1.96-.88-1.96-1.96" fill="#ffa1a6"/>
      <path d="M37.98,54.65c0-1.31,1.06-2.37,2.37-2.37s2.37,1.06,2.37,2.37-1.06,2.37-2.37,2.37-2.37-1.06-2.37-2.37" fill="#e5bde1"/>
      <path d="M50.98,19.59c0-1.08.88-1.96,1.96-1.96s1.96.88,1.96,1.96-.88,1.96-1.96,1.96-1.96-.88-1.96-1.96" fill="#e5bde1"/>
      <path d="M123.57,94.29c0-1.08.88-1.96,1.96-1.96s1.96.88,1.96,1.96-.88,1.96-1.96,1.96-1.96-.88-1.96-1.96" fill="#e5bde1"/>
      <path d="M152.62,53.65c0-1.08.88-1.96,1.96-1.96s1.96.88,1.96,1.96-.88,1.96-1.96,1.96-1.96-.88-1.96-1.96" fill="#e5bde1"/>
    </g>
  </g>
</svg>