<?xml version="1.0" encoding="UTF-8"?>
<svg id="Layer_2" data-name="Layer 2" xmlns="http://www.w3.org/2000/svg" width="92.52" height="92.52" xmlns:xlink="http://www.w3.org/1999/xlink" viewBox="0 0 92.52 92.52">
  <defs>
    <clipPath id="clippath">
      <path d="M0,0v37.29c.06.05.1.13.12.19l.07.24.04-.05.07-.08.08-.09c.11-.11.25-.2.47-.2l.07.03c.07.09.09.2.08.3l-.03.14s.06,0,.1,0c.18,0,.38.04.53.13.02-.29.11-.57.27-.82.14-.23.43-.57.72-.63.06-.01.11-.02.17-.02.2,0,.37.08.52.18.09.06.18.14.25.21l.1.09c.09-.72.34-1.31.86-1.64h.09c.29.23.46.56.57.93l.13-.15c.09-.1.18-.19.28-.28.2-.17.44-.31.73-.31h.04l.07.05c.09.21.06.41,0,.59-.04.1-.08.2-.13.29.26-.09.55-.14.84-.14.07,0,.14,0,.21,0,.71.06,1.12.5,1.36,1.04.11-.09.25-.14.4-.14.22,0,.43.12.49.41l.08-.05c.07-.04.15-.08.26-.08h.02c.11,0,.19.06.25.11l.09.08.05-.1.13-.21c.1-.13.23-.25.42-.25h0c.2,0,.39.27.46.42.21.46.06,1.1-.14,1.49.05,0,.1,0,.15,0,.41,0,.74.21.95.43l.07-.08.15-.13c.11-.06.23-.09.35-.09.13,0,.25.03.37.08l.13-7.27-8.02-4.69-.09-.14-.23-1.15.08-.2,20.75-15.57.09-.04c6.24-1.05,12.16-1.5,17.72-1.5,23.79,0,41,8.27,48.87,12.98V0H0Z" fill="none"/>
    </clipPath>
    <linearGradient id="linear-gradient" x1="-103.38" y1="312.63" x2="-102.38" y2="312.63" gradientTransform="translate(16061.5 -5249.28) rotate(-90) scale(51.23 -51.23)" gradientUnits="userSpaceOnUse">
      <stop offset="0" stop-color="#fff"/>
      <stop offset="1" stop-color="#00a3e3"/>
    </linearGradient>
    <clipPath id="clippath-1">
      <rect width="92.52" height="92.52" fill="none"/>
    </clipPath>
    <clipPath id="clippath-2">
      <path d="M13.17,50.02s22,9.68,23.22,9.68c.93,0,38.13-2.36,56.13-3.5v-12.73l-79.35,6.55Z" fill="none"/>
    </clipPath>
    <clipPath id="clippath-3">
      <rect width="92.52" height="92.52" fill="none"/>
    </clipPath>
    <clipPath id="clippath-4">
      <polygon points="25.79 67.43 8.35 79.45 0 84.49 0 92.52 92.52 92.52 92.52 67.11 25.79 67.43" fill="none"/>
    </clipPath>
    <clipPath id="clippath-5">
      <rect width="92.52" height="92.52" fill="none"/>
    </clipPath>
    <clipPath id="clippath-6">
      <polygon points="27.79 64.27 0 82.11 0 88.31 28.29 67.58 92.52 67.48 92.52 64.08 27.79 64.27" fill="none"/>
    </clipPath>
    <clipPath id="clippath-7">
      <rect width="92.52" height="92.52" fill="none"/>
    </clipPath>
    <clipPath id="clippath-8">
      <path d="M43.65,8.79c-5.55,0-11.46.45-17.69,1.5L5.21,25.87l.23,1.15,8.12,4.75-.15,8.48,4.68,8.13,26.75,7.38,47.68-7.37v-26.59c-7.8-4.68-25.01-13.01-48.85-13.02h-.02" fill="none"/>
    </clipPath>
    <clipPath id="clippath-9">
      <path d="M43.65,8.79c-5.55,0-11.46.45-17.69,1.5L5.21,25.87l.23,1.15,8.12,4.75-.02.97,20.77-11.06c25.69-4.14,48.26,2.03,58.21,5.5v-5.37c-7.8-4.69-25.02-13.02-48.86-13.02h0Z" fill="none"/>
    </clipPath>
    <clipPath id="clippath-10">
      <path d="M43.65,8.79c-5.55,0-11.46.45-17.69,1.5L5.21,25.87l.23,1.15,8.12,4.75-.15,8.48,4.68,8.13,26.75,7.38,47.68-7.37v-26.59c-7.8-4.68-25.01-13.01-48.85-13.02h-.02" fill="none"/>
    </clipPath>
    <clipPath id="clippath-11">
      <path d="M43.65,8.79c-5.55,0-11.46.45-17.69,1.5L5.21,25.87l.23,1.15,8,4.68,20.93-11.15c25.66-4.14,48.2,2.33,58.15,5.96v-4.7c-7.8-4.69-25.02-13.02-48.86-13.02h0Z" fill="none"/>
    </clipPath>
    <clipPath id="clippath-12">
      <path d="M43.65,8.79c-5.55,0-11.46.45-17.69,1.5L5.21,25.87l.23,1.15,8.12,4.75-.15,8.48,4.68,8.13,26.75,7.38,47.68-7.37v-26.59c-7.8-4.68-25.01-13.01-48.85-13.02h-.02" fill="none"/>
    </clipPath>
    <clipPath id="clippath-13">
      <path d="M43.65,8.79c-5.55,0-11.46.45-17.69,1.5L5.21,25.87l.22,1.1,20.96-15.69c33.78-5.09,56.76,5.46,66.13,11.05v-.52c-7.8-4.69-25.02-13.02-48.86-13.02h0Z" fill="none"/>
    </clipPath>
    <clipPath id="clippath-14">
      <path d="M43.65,8.79c-5.55,0-11.46.45-17.69,1.5L5.21,25.87l.23,1.15,8.12,4.75-.15,8.48,4.68,8.13,26.75,7.38,47.68-7.37v-26.59c-7.8-4.68-25.01-13.01-48.85-13.02h-.02" fill="none"/>
    </clipPath>
    <clipPath id="clippath-15">
      <rect width="92.52" height="92.52" fill="none"/>
    </clipPath>
    <clipPath id="clippath-16">
      <path d="M60.92,47.55l.3.63.44-.73-.74.1ZM63.31,47.22l-1.52,2.18,1.03,2.17,3.11-.47.26-4.26-2.89.39ZM66.52,46.78l-.26,4.26,1.55-.24,2.24-4.5-3.52.48ZM70.58,46.23l-2.7,4.57,4.59-.7.29-4.16-2.18.3ZM73.08,45.89l-.29,4.16.82-.12.19-.09-.05-4.04-.66.09ZM63.56,46.86l2.66-.36.23-3.79-2.89,4.15ZM70.78,45.88l1.99-.27.24-3.51-2.24,3.78ZM73.38,41.48l-.28,4.08.64-.09-.06-4.5-.3.51ZM57.43,40.21l.26.54.38-.59-.63.05ZM60.2,39.99l-1.83,2.2,1.64,3.44.34-5.65h-.15ZM60.67,39.95l-.38,6.28.48,1.01,1.1-.15,4.63-7.6-5.83.46ZM68.82,39.31l-2.02,2.9-.26,4.25,3.68-.5,2.94-5.92.07-1.07-4.41.35ZM73.56,38.94l-.02.34.12-.25v-.1s-.1,0-.1,0ZM84.37,37.39h.61s.06-1.21.06-1.21l-.67,1.21ZM91.52,37.2l1-.08v-2.97l-.87-.03-.13,3.08ZM89.77,37.33h.09s1.33-.11,1.33-.11l.14-3.12-1.39-.05-.17,3.27ZM87.6,37.35l1.85-.02.17-3.29-1.86-.07-.17,3.38ZM85.39,35.55l-.09,1.83,1.98-.02.17-3.39-1.15-.04-.9,1.62ZM82.1,37.39l1.77-3.55-1.53-.06-.24,3.61ZM78.3,37.47l.99-.04,2.49-.03.24-3.64-3.5-.13-.22,3.83ZM75.7,37.57l2.28-.08.22-3.86h-.18s-2.33,3.94-2.33,3.94ZM73.65,37.64l.71-.02,2.01-4.05-2.44-.09-.29,4.17ZM69.06,38.97l3.91-.31-.03-1h.39s.29-4.2.29-4.2l-.7-.03-3.86,5.53ZM78.21,33.31h.01v-.02s-.01.02-.01.02ZM67.02,38.64l3.23-5.3-2.9-.11-.33,5.41ZM60.7,39.38v.24s5.97-.47,5.97-.47l.36-5.94-1.16-.04-5.17,6.21ZM60.93,35.64l1.65-2.59-1.49-.05-.16,2.64ZM55,35.01v.09s2.28,4.8,2.28,4.8l1-.08,2.3-3.62.19-3.21-4.23-.15-1.54,2.17ZM54.07,33.15l.27-.4-.46-.02.2.41ZM73.13,33.12l.51.02.06-.83-.57.81ZM66.13,32.87l.92.03.07-1.23-.99,1.19ZM86.47,33.61l.99.04.1-1.99-1.09,1.96ZM91.66,33.8l.86.03v-2.73l-.73-.09-.12,2.79ZM89.96,33.74l1.39.05.12-2.82-1.36-.16-.15,2.93ZM87.91,31.02l-.13,2.64,1.86.07.15-2.96-1.64-.2-.25.44ZM85.65,30.28h0s0,0,0,0h0ZM82.36,33.46l1.67.06,1.26-2.53.04-.76-2.73-.33-.24,3.56ZM78.58,32.68l-.04.64,3.5.13.24-3.59-1.9-.23-1.8,3.05ZM74.05,31.8l-.09,1.35,2.57.09,1.91-3.85-2.51-.3-1.88,2.7ZM67.47,31.26l-.1,1.65,3.07.11,2.6-4.28-3.16-.38-2.41,2.89ZM91.8,30.69l.72.09v-2.7c-.19-.06-.39-.12-.6-.19l-.12,2.8ZM90.13,30.49l1.35.16.13-2.86c-.41-.13-.86-.26-1.32-.4l-.16,3.09ZM61.11,32.68l1.67.06,3.09-4.86-4.44-.54-.32,5.34ZM88.32,30.27l1.49.18.17-3.14h0s-1.65,2.96-1.65,2.96ZM56.76,32.52l4.03.15.32-5.37-.61-.07-3.75,5.29ZM55.1,31.61l3.13-4.66-2.98-.36-.16,5.02ZM60.71,26.93l.41.05.04-.69-.46.64ZM85.66,29.95l.14.02,1.68-3.37c-.53-.15-1.07-.29-1.64-.44l-.19,3.8ZM53.72,32.41l.83.03.22-.33.18-5.56-4.26-.52,3.03,6.37ZM80.56,29.33l1.74.21.24-3.56-1.98,3.35ZM82.62,29.58l2.72.33.19-3.84c-.84-.22-1.72-.44-2.63-.66l-.28,4.17ZM76.15,28.8l2.32.28.23-3.94-2.55,3.66ZM79.05,24.63l-.23,4.02,1.87-3.76c-.52-.12-1.04-.23-1.57-.34l-.06.09ZM74.42,26.49l1.56-2.57c-.45-.08-.91-.17-1.37-.24l-.19,2.81ZM70.13,28.07l3.1.37.83-1.36.24-3.46c-.13-.02-.27-.05-.4-.07l-3.77,4.52ZM67.87,24.73l1.19-1.87c-.36-.04-.72-.08-1.07-.12l-.12,1.99ZM61.52,25.79l-.07,1.23,4.61.56,1.46-2.29.16-2.59c-1.3-.14-2.54-.25-3.73-.33l-2.42,3.42ZM50.89,22.29c-.97.07-1.62.14-1.9.18l1.54,3.23,4.43.54.13-4.13c-1.74.03-3.16.11-4.2.18M55.4,22.1l-.13,4.17,3.17.38,2.97-4.42v-.03c-1.74-.08-3.34-.12-4.76-.12-.43,0-.85,0-1.25,0" fill="none"/>
    </clipPath>
    <linearGradient id="linear-gradient-2" x1="-103.38" y1="313" x2="-102.38" y2="313" gradientTransform="translate(9371.52 -3020.26) rotate(-90) scale(29.71 -29.71)" gradientUnits="userSpaceOnUse">
      <stop offset="0" stop-color="#fff"/>
      <stop offset="1" stop-color="#00b0e7"/>
    </linearGradient>
    <clipPath id="clippath-17">
      <path d="M58.44,26.66l2.27.27.46-.64.24-4.05-2.97,4.42ZM61.52,25.79l2.42-3.42c-.76-.05-1.5-.1-2.21-.14l-.21,3.56Z" fill="none"/>
    </clipPath>
    <linearGradient id="linear-gradient-3" x1="-103.38" y1="313.32" x2="-102.38" y2="313.32" gradientTransform="translate(9371.52 -3020.26) rotate(-90) scale(29.71 -29.71)" gradientUnits="userSpaceOnUse">
      <stop offset="0" stop-color="#fff"/>
      <stop offset=".89" stop-color="#a6d6f3"/>
      <stop offset="1" stop-color="#9bd1f2"/>
    </linearGradient>
    <clipPath id="clippath-18">
      <path d="M67.87,24.73l-.19,3.04,2.44.29,3.77-4.52c-1.08-.18-2.18-.35-3.28-.49-.52-.07-1.04-.14-1.55-.2l-1.19,1.87Z" fill="none"/>
    </clipPath>
    <linearGradient id="linear-gradient-4" y1="313" y2="313" xlink:href="#linear-gradient-3"/>
    <clipPath id="clippath-19">
      <path d="M74.42,26.49l-.14,2.08,1.87.23,2.55-3.66.04-.67c-.9-.19-1.82-.37-2.75-.55l-1.56,2.57Z" fill="none"/>
    </clipPath>
    <linearGradient id="linear-gradient-5" y1="312.81" y2="312.81" xlink:href="#linear-gradient-3"/>
    <clipPath id="clippath-20">
      <path d="M79.05,24.63l.06-.09s-.04,0-.06-.01v.1Z" fill="none"/>
    </clipPath>
    <linearGradient id="linear-gradient-6" y1="312.72" y2="312.72" xlink:href="#linear-gradient-3"/>
    <clipPath id="clippath-21">
      <path d="M78.81,28.65l-.03.47,1.77.21,1.98-3.35.04-.65c-.62-.15-1.25-.3-1.9-.44l-1.87,3.76Z" fill="none"/>
    </clipPath>
    <linearGradient id="linear-gradient-7" y1="312.67" y2="312.67" xlink:href="#linear-gradient-3"/>
    <clipPath id="clippath-22">
      <polygon points="66.06 27.58 67.37 27.74 67.51 25.29 66.06 27.58" fill="none"/>
    </clipPath>
    <linearGradient id="linear-gradient-8" y1="313.13" y2="313.13" xlink:href="#linear-gradient-3"/>
    <clipPath id="clippath-23">
      <path d="M85.8,29.96l1.82.22.17-3.5c-.1-.03-.21-.06-.31-.09l-1.68,3.37Z" fill="none"/>
    </clipPath>
    <linearGradient id="linear-gradient-9" y1="312.46" y2="312.46" xlink:href="#linear-gradient-3"/>
    <clipPath id="clippath-24">
      <path d="M61.66,47.44l-.44.73.58,1.22,1.52-2.18-1.65.23ZM70.05,46.3l-2.24,4.5h.07s2.7-4.58,2.7-4.58l-.53.07ZM70.22,45.95l.56-.08,2.24-3.78.14-2.06-2.94,5.92ZM58.06,40.16l-.38.59.69,1.44,1.83-2.2-2.14.17ZM66.5,39.49l-4.63,7.6,1.69-.23,2.89-4.15.2-3.23h-.15ZM66.97,39.45l-.17,2.75,2.02-2.9-1.85.15ZM73.54,39.28l-.15,2.2.3-.51-.02-1.94-.12.25ZM58.27,39.82l2.09-.17.21-3.45-2.3,3.62ZM85.39,35.55l.9-1.62-.82-.03-.08,1.65ZM82.1,37.39v.02s2.26-.02,2.26-.02l.67-1.21.11-2.3-1.28-.05-1.77,3.55ZM74.36,37.61l1.33-.05,2.33-3.94-1.65-.06-2.01,4.05ZM67.02,38.64l-.03.49,2.07-.16,3.86-5.53-2.67-.1-3.23,5.3ZM60.93,35.64l-.23,3.74,5.17-6.21-3.3-.12-1.65,2.59ZM55,35.01l1.54-2.17-1.47-.05-.07,2.23ZM54.07,33.15l.62,1.31.05-1.69-.41-.02-.27.4ZM54.55,32.44h.21s.01-.33.01-.33l-.22.33ZM84.03,33.52l1.14.04.13-2.57-1.26,2.53ZM87.91,31.02l.25-.44-.22-.03-.02.47ZM85.65,30.28l-.16,3.3.98.04,1.09-1.96.06-1.15-1.96-.24h0ZM78.58,32.68l1.8-3.05-1.62-.2-.19,3.25ZM76.53,33.25l1.68.06v-.02s.24-3.89.24-3.89h0s-1.91,3.85-1.91,3.85ZM74.05,31.8l1.88-2.7-1.68-.2-.2,2.91ZM70.44,33.02l2.69.1.57-.81.24-3.46-.89-.11-2.6,4.28ZM67.47,31.26l2.41-2.89-2.22-.27-.19,3.16ZM62.77,32.74l3.36.12.99-1.19.22-3.62-1.48-.18-3.09,4.86ZM73.23,28.44l.73.09.1-1.45-.83,1.36ZM55.1,31.61l-.03.85,1.68.06,3.75-5.29-2.26-.27-3.13,4.66ZM87.95,30.22l.38.05,1.65-2.97c-.59-.17-1.21-.35-1.86-.53l-.17,3.45Z" fill="none"/>
    </clipPath>
    <linearGradient id="linear-gradient-10" y1="312.96" y2="312.96" xlink:href="#linear-gradient-3"/>
    <clipPath id="clippath-25">
      <path d="M48.81,22.37l13.95,29.32,10.87-1.65,18.89-8.65v-13.44c-4.51-1.42-12.99-3.83-21.9-5.02-5.55-.74-10.32-.95-13.97-.95-4.95,0-7.85.39-7.85.39" fill="none"/>
    </clipPath>
    <clipPath id="clippath-26">
      <rect width="92.52" height="92.52" fill="none"/>
    </clipPath>
    <clipPath id="clippath-27">
      <polygon points="79.29 37.44 72.94 37.66 72.98 38.82 73.66 38.8 73.82 51.77 79.61 52.05 92.52 50.88 92.52 37.31 79.29 37.44" fill="none"/>
    </clipPath>
    <clipPath id="clippath-28">
      <polygon points="79.29 37.44 72.94 37.66 72.98 38.71 92.52 38.31 92.52 37.31 79.29 37.44" fill="none"/>
    </clipPath>
    <clipPath id="clippath-29">
      <polygon points="79.29 37.44 72.94 37.66 72.98 38.82 73.66 38.8 73.82 51.77 79.61 52.05 92.52 50.88 92.52 37.31 79.29 37.44" fill="none"/>
    </clipPath>
    <clipPath id="clippath-30">
      <path d="M83.29,51.29v.43s0,0,0,0v-.43ZM88.04,51.29h0l1.17-.11-1.17.11ZM89.22,51.18l3.3-.3v-5.46l-3.3,5.76ZM83.22,42.15v1.46s.01.02.01.02v-1.48ZM83.2,39.95l.02,2.2,1.24-2.23-1.25.03ZM85.97,39.88l-2.73,4.68v-.93s.05,7.66.05,7.66l5.97-11.49-3.29.09ZM92.27,39.71l-8.3,11.94-.68.06.37-.03,4.38-.4,4.48-9.04v-2.54h-.25Z" fill="none"/>
    </clipPath>
    <linearGradient id="linear-gradient-11" y1="313.21" y2="313.21" gradientTransform="translate(4490.69 -1399.68) rotate(-90) scale(14.06 -14.06)" xlink:href="#linear-gradient-2"/>
    <clipPath id="clippath-31">
      <polygon points="89.26 39.79 83.29 51.29 83.29 51.72 83.98 51.66 92.27 39.71 89.26 39.79" fill="none"/>
    </clipPath>
    <linearGradient id="linear-gradient-12" y1="313.21" y2="313.21" gradientTransform="translate(4490.69 -1399.68) rotate(-90) scale(14.06 -14.06)" xlink:href="#linear-gradient-3"/>
    <clipPath id="clippath-32">
      <polygon points="84.45 39.92 83.22 42.15 83.23 43.61 83.24 44.56 85.97 39.88 84.45 39.92" fill="none"/>
    </clipPath>
    <linearGradient id="linear-gradient-13" y1="313.44" y2="313.44" gradientTransform="translate(4490.69 -1399.68) rotate(-90) scale(14.06 -14.06)" xlink:href="#linear-gradient-3"/>
    <clipPath id="clippath-33">
      <polygon points="88.04 51.29 89.22 51.18 92.52 45.43 92.52 42.24 88.04 51.29" fill="none"/>
    </clipPath>
    <linearGradient id="linear-gradient-14" y1="313.03" y2="313.03" gradientTransform="translate(4490.69 -1399.68) rotate(-90) scale(14.06 -14.06)" xlink:href="#linear-gradient-3"/>
    <clipPath id="clippath-34">
      <polygon points="83.2 39.95 83.29 51.72 92.52 50.88 92.52 39.71 83.2 39.95" fill="none"/>
    </clipPath>
    <clipPath id="clippath-35">
      <polygon points="79.29 37.44 72.94 37.66 72.98 38.82 73.66 38.8 73.82 51.77 79.61 52.05 92.52 50.88 92.52 37.31 79.29 37.44" fill="none"/>
    </clipPath>
    <clipPath id="clippath-36">
      <rect width="92.52" height="92.52" fill="none"/>
    </clipPath>
    <clipPath id="clippath-37">
      <path d="M31.9,44.17c-.59.45-1.19.89-1.89.89-.09,0-.19,0-.29-.02-.24-.04-.46-.12-.66-.23l3.22,5.92,5.79,1.45-4.99-8.76c-.41.17-.8.46-1.18.74M19.15,42.87c.66,1.16,1.38,2.41,2.08,3.65.76.42,1.72,1.03,2.16,1.67.07.11.15.23.22.38l2.67.67-4.34-7.99c-.96.52-1.88,1.27-2.79,1.62M22.3,41.06l4.51,8.31,4.94,1.24-3.51-6.46c-.8-.87-1.48-2.17-3.11-3.1-.46-.26-.9-.37-1.33-.37-.51,0-1.01.15-1.5.38M14.46,40.14l3.02,5.19c1.26.27,2.65.65,2.65.65,0,0,.17.07.44.2-.56-.99-1.12-1.98-1.65-2.91-.06-.1-.11-.19-.16-.29-.08.02-.16.04-.24.05-.11.02-.22.02-.32.02-1.83,0-2.52-2.51-2.52-2.51l1.44-.42c-.1-.17-.2-.34-.29-.49-.03-.05-.06-.11-.09-.16l-2.27.66ZM17.13,39.37c.12.2.25.42.38.65l3.25-.95-.35-.65-3.28.95ZM20.8,38.31l.35.65,3.67-1.07-.35-.64-3.68,1.07ZM24.87,37.12l.35.64,3.97-1.16-.36-.63-3.96,1.15ZM29.23,35.86l.36.63,3.11-.91s6.56,12.36,6.82,12.8c0,0-3.03-4.05-4.97-4.92-.27-.12-.52-.17-.76-.17-.1,0-.21.01-.31.03l5.13,9.01,3.94.99-9.73-18.49-3.59,1.04Z" fill="none"/>
    </clipPath>
    <linearGradient id="linear-gradient-15" x1="-103.38" y1="312.95" x2="-102.38" y2="312.95" gradientTransform="translate(5913.54 -1890.61) rotate(-90) scale(18.81 -18.81)" gradientUnits="userSpaceOnUse">
      <stop offset="0" stop-color="#fff"/>
      <stop offset="1" stop-color="#9cd1f1"/>
    </linearGradient>
    <clipPath id="clippath-38">
      <polygon points="14.29 40.07 18.57 47.43 42.77 53.48 32.87 34.68 14.29 40.07" fill="none"/>
    </clipPath>
    <clipPath id="clippath-39">
      <path d="M15.68,40.56s.7,2.51,2.52,2.51c.1,0,.21,0,.32-.02.08-.01.16-.03.24-.05-.61-1.07-1.18-2.05-1.65-2.86l-1.44.42ZM17.51,40.02c.16.28.34.59.53.91.34.6.72,1.25,1.11,1.94.91-.35,1.83-1.1,2.79-1.62l-1.18-2.17-3.25.95ZM21.15,38.95l1.15,2.11c.49-.23.98-.38,1.5-.38.43,0,.87.11,1.33.37,1.63.93,2.31,2.23,3.11,3.1l-3.41-6.27-3.67,1.07ZM25.22,37.77l3.84,7.05c.2.11.42.18.66.23.1.02.19.02.29.02.7,0,1.3-.44,1.89-.89.38-.29.77-.58,1.18-.74l-3.89-6.83-3.97,1.16ZM32.69,35.58l-3.11.91,3.89,6.82c.1-.02.2-.03.31-.03.24,0,.49.05.76.17,1.94.88,4.97,4.92,4.97,4.92-.26-.44-6.82-12.8-6.82-12.8Z" fill="none"/>
    </clipPath>
    <linearGradient id="linear-gradient-16" x1="-103.38" y1="313" x2="-102.38" y2="313" gradientTransform="translate(5913.54 -1890.61) rotate(-90) scale(18.81 -18.81)" gradientUnits="userSpaceOnUse">
      <stop offset="0" stop-color="#fff"/>
      <stop offset=".89" stop-color="#d1e8f7"/>
      <stop offset="1" stop-color="#cce6f7"/>
    </linearGradient>
    <clipPath id="clippath-40">
      <polygon points="29.76 35.58 15.68 39.66 15.68 42.45 18.57 47.43 22.39 48.38 39.51 48.38 39.51 47.28 33.35 35.58 29.76 35.58" fill="none"/>
    </clipPath>
    <clipPath id="clippath-41">
      <rect width="92.52" height="92.52" fill="none"/>
    </clipPath>
    <clipPath id="clippath-42">
      <rect x="7.62" y="44.17" width="17.67" height="9.92" fill="none"/>
    </clipPath>
    <clipPath id="clippath-43">
      <path d="M22.18,48.21l1.43.36c-.08-.14-.15-.27-.22-.38-.44-.65-1.4-1.26-2.16-1.67.32.57.64,1.14.96,1.69M18.65,47.32l3,.75c-.35-.62-.71-1.25-1.07-1.89-.27-.13-.44-.2-.44-.2,0,0-1.38-.37-2.65-.65l1.16,1.99Z" fill="none"/>
    </clipPath>
    <linearGradient id="linear-gradient-17" x1="-103.38" y1="313.37" x2="-102.38" y2="313.37" gradientTransform="translate(5913.54 -1890.61) rotate(-90) scale(18.81 -18.81)" gradientUnits="userSpaceOnUse">
      <stop offset="0" stop-color="#e2eec1"/>
      <stop offset="1" stop-color="#b5d7bd"/>
    </linearGradient>
    <clipPath id="clippath-44">
      <rect x="7.62" y="44.17" width="17.67" height="9.92" fill="none"/>
    </clipPath>
    <clipPath id="clippath-45">
      <rect width="92.52" height="92.52" fill="none"/>
    </clipPath>
  </defs>
  <g id="Layer_1-2" data-name="Layer 1">
    <rect width="92.52" height="92.52" fill="#fff"/>
    <g clip-path="url(#clippath)">
      <rect y="0" width="92.52" height="39.38" fill="url(#linear-gradient)"/>
    </g>
    <g clip-path="url(#clippath-1)">
      <path d="M-35.09,42.91c.65-.2,55.53-.63,55.53-.63l66.66,4.9,11.68-.61-1.91,57.17-105.91,1.75-26.06-62.57" fill="#80c342" fill-rule="evenodd"/>
      <path d="M-39.65,47.15l64.38-.97s5.13-2.88-.41-2.88-46.4.41-46.4.41l-17.58,3.44" fill="#4f9d3a" fill-rule="evenodd"/>
      <path d="M13.17,50.02s22,9.68,23.22,9.68,65.68-4.11,65.68-4.11l.41-12.94-89.31,7.37" fill="#4f9d3a" fill-rule="evenodd"/>
    </g>
    <g clip-path="url(#clippath-2)">
      <polygon points="81.98 51.65 113.37 56.63 113.66 51.65 88.14 49 83.74 50.77 81.98 51.65" fill="#d5cfa3" fill-rule="evenodd"/>
      <polygon points="81.98 51.65 82.01 51.43 113.15 56.37 113.42 51.86 88.17 49.23 83.84 50.97 82.08 51.86 81.98 51.65 82.01 51.43 81.98 51.65 81.88 51.45 83.65 50.56 88.11 48.77 113.9 51.45 113.58 56.9 81.24 51.77 81.88 51.45 81.98 51.65" fill="#8c8751"/>
    </g>
    <g clip-path="url(#clippath-3)">
      <path d="M3.56,24.13c.11.68.59,1.76.68,2.51.04.29,0,.48-.1.66h-.26c.08.33.09.56-.07.81.1.92.8,1.83.45,2.8-.17.04-.21-.1-.36-.09-.06.24.1.17.16.24.05.33.23.79.36,1.28.17.65.58,1.71-.1,1.71-.05.19.07.64-.07.81.29.84.5,1.79.55,2.99-.11.22-.29.33-.52.38.03.66-.1,1.08-.58,1-.14.49-.63,1.02-.94.57-.1.19-.16.43-.36.47.12,1.21-.99,1.45-.97.19-.32-.06-.51-.32-.65-.66-.26.65-.79.24-.84-.43-.19-.05-.21.36-.39.38-.25.02-.32-.4-.45-.71-.18.01-.24.19-.45.14-.4-.58-.04-1.69.13-2.47.15-.68.2-1.34.45-1.76l-.26-.19c-.21-1.07.44-2.86.74-3.7-.06-.16-.21,0-.29-.19-.17-1.45.73-2.44.94-3.79-.18,0-.25.15-.42.05-.14-1.38.7-2.13,1-3.18-.19.07-.37.06-.45-.14.36-1.77,1.09-2.98,1.85-4.17.47.51,1.5,2.54,1.33,3.6-.02.1.07.33.06.38-.02.2-.06.39-.19.52" fill="#064207"/>
      <path d="M3.4,23.62c-.02.16-.06.23-.09.27l-.1.3c.06.35.21.81.36,1.28.15.46.28.88.32,1.22.01.12.01.2,0,.27-.28.73-.29.84-.38.97l-.05.22c.03.25.1.51.18.76.07.23.16.46.23.69.1.32.16.6.13.88h-.11c-.12,0-.3.14-.33.26-.04.18-.04.44.22.57,0,.14.17.61.3,1.11l.15.54c.05.17.09.35.11.5.02.16,0,.23,0,.24-.38.35-.37.45-.37.52v.23s0,.16,0,.16c.23,1.11.43,2,.48,3.11-.05.06-.12.1-.24.13-.14.03-.28.21-.27.36.01.32-.02.51-.06.61l-.11.03c-.16-.03-.36.09-.4.25-.05.19-.17.37-.28.45-.68.14-.72.24-.76.32-.24.65-.28.82-.33.92l-.07.1c-.08-.06-.14-.19-.14-.46,0-.14-.14-.32-.28-.35-.14-.03-.27-.14-.39-.45-.15-.37-.5-.37-.65,0l-.04.08c-.05-.06-.11-.19-.13-.41,0-.1-.15-.28-.25-.31-.2-.06-.36.03-.46.13-.08-.05-.12-.16-.16-.26-.04-.1-.24-.21-.35-.21-.1,0-.18.04-.25.07l-.09.05c.07-.07.05-.36.1-.75.06-.44.19-.9.27-1.28.07-.34.13-.68.19-.98.06-.3.13-.52.22-.67.06-.1.04-.32-.04-.41l-.2-.16c-.05-.44.04-1.03.2-1.65.17-.67.41-1.32.55-1.73v-.24c-.07-.19-.17-.26-.29-.29-.03-.56.12-1.06.32-1.59.12-.3.24-.6.36-.91.12-.33.22-.67.28-1.03.03-.22-.12-.4-.34-.4h-.09c.01-.44.14-.81.32-1.17.11-.24.24-.47.36-.71.13-.26.25-.52.33-.8.1-.34-.12-.55-.46-.42.32-1.27.9-2.34,1.54-3.37.47.75,1.08,2.18.96,2.93v.2s.03.14.03.14l.03.1Z" fill="#00652e"/>
      <path d="M1.84,20.72c-.3,1.01-1.1,1.81-1.04,3.04.08-.17.21-.27.36-.33l.06.14c-.03.2-.19.6-.03.76.17-.1.17-.45.39-.47.03.14.07.28.1.43l.29.14c-.11.36-.42,0-.52-.1-.09.22-.32.35-.49.19-.35.7-.74,1.36-.88,2.37.24.05.26-.21.49-.19.06.26-.1.62-.03,1.09.24.04.25-.64.55-.66,0,.15.02.4.1.57.23-.09.25-.49.45-.62.03.17.09.29.1.48.07.1.14-.06.19.1l-.16.19c-.25-.44-.31.06-.58.19-.12-.08-.22-.19-.23-.43-.16.15-.21.45-.42.52-.11.03-.08-.17-.19-.14-.29.8-.76,1.6-.71,2.75.2-.03.27-.24.49-.24.07.23.04.58.07.76.2-.07.19-.45.45-.43.07.15-.02.53.13.57.09-.21.18-.43.36-.52.2.28-.28.5-.36.81-.19-.02-.2-.32-.32-.43-.08.14-.17.26-.29.33-.25,0-.08-.62-.23-.76-.21,1.15-.84,2.29-.75,3.75.2.12.24-.19.45-.19.12.35.05.62.1.95.18.05.25-.45.49-.47.15.05.06.45.23.47.2.07.33-.37.55-.43.12.21.13.38.23.57.2-.01.21-.3.39-.33-.08.28-.19.51-.39.62-.16-.1-.22-.34-.29-.57-.14.37-.66.64-.81.09-.13.17-.26.34-.45.43-.16-.13-.13-.54-.2-.81-.42,1.13-.92,2.76-.71,3.98.18,0,.23-.2.42-.19.22.17.19.75.39.76.14,0,.17-.51.39-.52.22.25.2.85.52.95.13-.15.18-.4.36-.47.17.26.26.62.52.76.27-.14.39-.51.65-.66.07.27.21.45.42.52.12-.17.25-.35.26-.57.34.49.84.07.88-.57.19-.04.22.15.42.09.16-.2.13-.62.1-.99.16-.07.5.02.58-.29-.02-.91-.33-1.78-.49-2.65-.13,0-.16-.15-.29-.14.05,1.13-1.02.53-.94-.09.2.18.41.68.75.38,0-.19-.09-.5,0-.66l.06-.05c.14.05.16.27.36.24.1-.35-.05-.69.03-.95.15-.04.21.07.36.05-.07-1-.34-1.71-.62-2.42-.03.39-.4.2-.52.05-.08.87-.79.74-.84-.1.2.08.18.49.45.48.18-.13.1-.64.33-.71.13.06.2.21.39.19.03-.27-.07-.73.06-.85.17.01.23.17.39.19.04-.96-.38-1.65-.55-2.47-.17-.14-.4-.17-.45-.48.22-.16.35.31.58.14.04-.23-.11-.56-.13-.85.15-.15.27.1.45.05-.09-1.22-.49-2-.74-2.99.06.54-.68.67-.65.1.1.1.37.16.45,0,.02-.19-.12-.57,0-.71.23,0,.21.36.45.33-.06-1.6-.57-2.95-1.23-3.84-.14.31-.28.61-.49.81" fill="#00ac5b"/>
      <path d="M2.01,20.53c.12-.18.22-.39.32-.61.66.89,1.17,2.24,1.23,3.84-.24.02-.22-.34-.46-.33-.12.14.02.52,0,.71-.08.16-.35.1-.45,0-.03.58.71.45.65-.1.25.99.65,1.76.74,2.99-.18.05-.3-.2-.45-.05.02.3.17.62.13.85-.23.16-.36-.3-.58-.14.05.31.29.34.45.47.17.81.59,1.51.55,2.47-.16-.02-.22-.18-.39-.19-.14.12-.03.58-.06.85-.19.02-.26-.13-.39-.19-.1.03-.14.15-.17.29l-.15-.39c-.03.39-.4.2-.52.05-.08.87-.79.74-.84-.09.2.08.18.49.45.47.18-.13.1-.65.32-.71.13.06.2.21.39.19.03-.27-.07-.74.06-.85.17,0,.23.17.39.19.04-.96-.38-1.65-.55-2.47-.17-.14-.4-.17-.45-.47.22-.16.35.31.58.14.04-.23-.11-.56-.13-.85.15-.15.27.1.45.05-.09-1.23-.49-2-.74-2.99.06.54-.68.67-.65.09.1.1.37.16.45,0,.02-.19-.12-.57,0-.71.23,0,.21.36.46.33-.04-1.08-.29-2.05-.65-2.84" fill="#009247"/>
      <path d="M1.77,40.97c.12,0,.24,0,.32-.05.01-.22.07-.47,0-.66-.11.08-.27.04-.39,0-.06.27-.02.48.07.71" fill="#aba236"/>
      <path d="M2.75,22.38c.18.24.21.73.06,1-.1.04-.04-.16-.16-.1-.09.15-.12.39-.26.48-.18-.05-.53-.66-.23-.81-.01.33.11.47.23.62.1-.12.12-.37.16-.57.1-.04.1.07.16.1.12-.09.02-.51.03-.71" fill="#007f3e"/>
      <path d="M2.84,26.36c.19.1.1.73-.07.76-.22-.14-.25,0-.45.05-.18-.05-.27-.44-.19-.71.12.1.08.45.22.52l.13-.28c.08.07.12.2.23.24.15-.03.07-.41.13-.57" fill="#00652e"/>
      <path d="M.9,28.88h.1c-.05.16-.08.64.06.66.19.05.13-.29.29-.28.06.12.1.27.19.33.11-.04.09-.28.19-.33.18.07.33.21.52.05.02.37-.64.14-.71.52-.14,0-.16-.17-.26-.24-.06.12-.2.11-.29.19-.22-.1-.24-.65-.1-.9" fill="#00652e"/>
      <path d="M.77,32.43c.15.23-.12.61.03.9.22-.03.18-.46.39-.52,0,.31.04.54.16.66.11-.16.17-.39.23-.62.16.1.15.45.32.52.18.02.14-.27.19-.43.11-.1.15.23.36.14-.04.22-.13.06-.26.14-.1.14-.12.4-.36.33-.14,0-.13-.22-.23-.28-.1.14-.16.33-.29.43-.13-.06-.22-.19-.23-.43-.13.08-.16.3-.36.28-.24-.28-.06-.81.03-1.14" fill="#00652e"/>
      <path d="M2,36.37c-.07.37-.16.61.03.9.11-.1.15-.32.23-.47.18,0,.15.32.23.47.14-.04.14-.26.19-.43.11.01.1.21.2.24.19-.06.19-.39.23-.66.15.22.03.82-.13.9-.12.03-.16-.06-.23-.09-.11.07-.09.32-.26.28-.14,0-.14-.21-.2-.33-.1.1-.17.25-.29.33-.25-.09-.36-1.1,0-1.14" fill="#00652e"/>
      <path d="M0,36.94h.1c-.01.17-.07.48.03.66.16-.03.16-.3.32-.33.06.16.11.31.23.38.15.03.09-.25.23-.24.1.04-.12.38-.19.47-.18,0-.19-.22-.32-.29-.13.02-.13.22-.29.19-.24-.04-.16-.62-.1-.85" fill="#00652e"/>
      <path d="M3.46,35.52c.23.05.44-.11.42-.62.14,0,.16.15.29.14.15.87.46,1.75.49,2.65-.08.31-.43.21-.58.28.03.37.06.79-.1,1-.2.06-.23-.14-.42-.1-.03.63-.54,1.07-.87.57,0,.22-.13.4-.26.57-.21-.07-.35-.25-.42-.52-.26.16-.38.52-.65.66-.25-.13-.35-.5-.52-.76.05-.1.14-.22.26-.29.07.28.21.46.42.52.12-.17.25-.35.26-.57.34.49.84.07.88-.57.19-.04.22.15.42.09.16-.2.13-.62.1-.99.16-.07.5.02.58-.29-.01-.61-.16-1.2-.3-1.79" fill="#009247"/>
      <path d="M3.27,31.8c.05-.09.08-.21.09-.36.11.15.49.35.52-.05.28.7.54,1.42.62,2.42-.15.03-.2-.08-.36-.05-.08.26.07.6-.03.95-.2.04-.22-.18-.36-.24l-.06.05c-.09.17,0,.47,0,.66-.11.1-.2.11-.29.08-.05-.2-.09-.41-.13-.61-.13,0-.16-.15-.29-.14,0,.12,0,.22-.02.31l-.02.08c-.19.57-.97.06-.9-.48.2.18.41.68.74.38,0-.19-.09-.5,0-.66l.07-.05c.14.05.16.27.36.24.1-.35-.05-.69.03-.95.15-.04.21.07.36.05-.05-.63-.17-1.15-.32-1.62" fill="#009247"/>
      <path d="M13.92,19.75c.15.91.8,2.37.92,3.39.05.39,0,.65-.13.9h-.35c.11.45.12.75-.09,1.09.14,1.24,1.08,2.47.61,3.77-.22.05-.29-.13-.48-.13-.07.32.14.22.22.32.07.45.31,1.06.48,1.73.23.88.78,2.3-.13,2.3-.06.26.1.86-.09,1.09.39,1.13.68,2.42.74,4.03-.15.3-.4.44-.7.51.04.89-.14,1.46-.79,1.34-.18.66-.85,1.38-1.27.77-.13.26-.22.57-.48.64.17,1.63-1.33,1.95-1.31.25-.44-.08-.69-.44-.87-.89-.35.88-1.06.33-1.14-.58-.25-.07-.27.49-.52.51-.34.03-.43-.53-.61-.96-.23.02-.32.26-.61.19-.54-.78-.05-2.28.17-3.32.2-.92.28-1.81.61-2.36-.1-.11-.24-.15-.35-.26-.28-1.44.6-3.85,1-4.99-.08-.21-.29,0-.39-.25-.23-1.95.99-3.29,1.27-5.11-.25,0-.34.2-.57.06-.18-1.86.94-2.87,1.35-4.28-.26.1-.5.08-.61-.19.48-2.39,1.47-4.02,2.49-5.62.64.69,2.02,3.42,1.79,4.86-.02.13.09.44.09.51-.03.27-.09.53-.26.7" fill="#064207"/>
      <path d="M13.71,19.06c-.03.22-.08.31-.12.36l-.13.4c.08.48.28,1.09.49,1.73.2.61.37,1.19.43,1.64.02.16.02.27,0,.37-.38.98-.4,1.13-.51,1.31l-.07.3c.04.34.13.68.24,1.02.1.31.22.62.31.93.13.43.21.81.18,1.18h-.15c-.17,0-.4.19-.44.35-.06.24-.05.59.29.76,0,.19.23.82.41,1.5l.21.73c.06.23.12.47.14.68.02.21,0,.3-.01.32-.5.47-.5.61-.5.71l.02.31v.22c.3,1.5.58,2.7.65,4.19-.07.08-.17.14-.33.18-.19.04-.37.29-.36.48.02.43-.02.69-.08.82l-.15.04c-.22-.04-.48.12-.54.34-.07.25-.23.5-.38.61-.92.19-.96.32-1.03.43-.32.87-.37,1.1-.44,1.24l-.1.13c-.11-.08-.19-.26-.19-.62,0-.19-.19-.43-.38-.47-.19-.04-.36-.19-.53-.61-.2-.5-.68-.5-.87,0l-.05.11c-.06-.07-.15-.25-.18-.55-.01-.14-.21-.38-.34-.42-.27-.08-.49.04-.62.17-.11-.07-.16-.22-.22-.36-.06-.13-.32-.29-.47-.28-.14.01-.25.06-.33.1l-.12.07c.1-.1.07-.48.14-1.01.08-.59.26-1.21.37-1.72.1-.46.17-.91.26-1.32.08-.4.17-.7.3-.9.08-.13.05-.44-.05-.55-.08-.09-.17-.15-.27-.21-.07-.6.05-1.4.27-2.23.23-.91.55-1.78.74-2.33v-.32c-.1-.25-.23-.35-.39-.39-.04-.76.16-1.43.43-2.14.16-.41.33-.81.48-1.22.16-.44.3-.9.37-1.39.04-.3-.16-.54-.46-.54h-.12c.02-.59.19-1.09.43-1.58.15-.33.33-.64.49-.96.17-.35.33-.7.44-1.08.14-.46-.17-.74-.61-.57.43-1.71,1.21-3.15,2.07-4.54.63,1.02,1.46,2.94,1.3,3.95-.02.11,0,.22,0,.28l.04.19.03.13Z" fill="#00652e"/>
      <path d="M11.6,15.15c-.41,1.37-1.48,2.44-1.4,4.09.11-.23.28-.36.48-.45.01.09.07.11.09.19-.04.26-.25.81-.04,1.02.23-.13.23-.6.52-.64.04.19.09.38.13.57.12.08.28.1.39.19-.14.49-.57,0-.7-.13-.12.29-.43.47-.66.26-.48.94-.99,1.83-1.18,3.2.32.06.36-.29.66-.26.08.35-.14.84-.04,1.47.32.05.34-.86.74-.89,0,.21.03.54.13.77.31-.12.33-.67.61-.83.04.22.11.39.13.64.1.14.19-.08.26.13-.09.07-.15.16-.22.26-.33-.59-.42.08-.79.26-.16-.11-.29-.26-.31-.58-.21.2-.28.61-.57.7-.15.04-.11-.23-.26-.19-.4,1.08-1.03,2.16-.96,3.71.27-.04.36-.33.65-.32.1.31.05.79.09,1.02.27-.1.26-.61.61-.58.1.2-.02.71.18.77.13-.28.24-.58.48-.7.27.38-.37.67-.48,1.09-.26-.02-.26-.43-.44-.58-.1.19-.23.35-.39.45-.34.01-.1-.83-.31-1.02-.28,1.55-1.13,3.09-1,5.05.27.16.33-.25.61-.26.16.47.07.84.13,1.28.25.07.34-.6.65-.64.21.06.08.6.31.64.27.09.45-.5.74-.57.17.29.18.51.31.77.26-.02.28-.4.52-.45-.11.37-.26.69-.52.83-.22-.13-.3-.46-.39-.77-.19.5-.89.87-1.09.13-.18.23-.35.46-.61.58-.21-.18-.18-.72-.26-1.09-.57,1.52-1.24,3.72-.96,5.37.25,0,.31-.27.57-.26.3.23.25,1.02.52,1.02.19,0,.23-.68.52-.7.29.34.27,1.14.7,1.28.17-.2.24-.54.48-.64.22.35.36.84.7,1.02.37-.19.52-.69.87-.9.1.37.28.61.57.7.17-.23.34-.47.35-.77.46.67,1.14.09,1.18-.77.26-.05.3.2.57.13.22-.27.17-.84.13-1.34.21-.1.68.03.79-.38-.03-1.22-.45-2.4-.66-3.58-.18,0-.21-.2-.39-.19.07,1.52-1.38.71-1.27-.13.27.25.55.92,1.01.51,0-.26-.12-.67,0-.9l.09-.06c.18.07.21.37.48.32.14-.47-.06-.93.04-1.28.21-.05.28.1.48.07-.1-1.35-.46-2.31-.83-3.26-.05.53-.55.27-.7.06-.11,1.18-1.07.99-1.14-.13.28.11.25.66.61.64.24-.18.13-.87.44-.96.18.08.27.29.52.26.04-.36-.09-.99.09-1.15.22.01.31.23.53.26.05-1.29-.51-2.23-.74-3.32-.22-.18-.54-.22-.61-.64.3-.22.47.41.79.19.06-.31-.15-.75-.18-1.15.21-.2.36.13.61.06-.12-1.65-.66-2.7-1-4.03.08.73-.91.9-.87.13.13.13.5.22.61,0,.03-.26-.16-.77,0-.96.31-.01.28.48.61.45-.08-2.16-.77-3.98-1.66-5.18-.18.41-.37.82-.65,1.09" fill="#00ac5b"/>
      <path d="M11.83,14.89c.17-.24.3-.53.43-.82.89,1.2,1.58,3.02,1.66,5.18-.33.03-.3-.46-.61-.45-.16.19.03.7,0,.96-.12.22-.48.13-.61,0-.04.78.96.6.87-.13.34,1.33.88,2.38,1,4.03-.25.07-.41-.27-.61-.06.03.4.23.84.17,1.15-.31.22-.49-.41-.79-.19.07.41.39.45.61.64.23,1.09.8,2.03.74,3.32-.22-.02-.3-.24-.52-.26-.18.16-.05.79-.09,1.15-.26.03-.35-.18-.53-.26-.14.04-.19.2-.23.39l-.2-.53c-.05.53-.55.27-.7.06-.11,1.18-1.07.99-1.14-.13.28.11.25.66.61.64.24-.18.13-.87.44-.96.18.08.27.29.53.26.04-.36-.09-.99.09-1.15.22.01.31.23.53.26.05-1.3-.51-2.23-.74-3.32-.22-.18-.55-.23-.61-.64.29-.21.47.41.78.19.06-.31-.15-.75-.17-1.15.2-.2.36.13.61.06-.12-1.65-.66-2.7-1.01-4.03.08.73-.91.91-.87.13.13.13.5.22.61,0,.03-.26-.16-.77,0-.96.31-.01.28.48.61.45-.06-1.46-.39-2.77-.87-3.83" fill="#009247"/>
      <path d="M11.51,42.44c.17.01.32,0,.44-.06.02-.29.09-.63,0-.89-.15.11-.36.05-.52,0-.09.37-.02.64.09.96" fill="#aba236"/>
      <path d="M12.82,17.39c.24.33.28.99.09,1.34-.14.05-.05-.22-.22-.13-.12.21-.17.52-.35.64-.24-.07-.71-.89-.31-1.09-.01.45.15.64.31.83.13-.17.16-.49.22-.77.14-.06.13.1.22.13.17-.12.03-.69.04-.96" fill="#007f3e"/>
      <path d="M12.96,22.75c.26.14.13.99-.09,1.02-.29-.19-.34,0-.61.06-.24-.07-.37-.59-.26-.96.17.13.11.61.31.7.08-.1.1-.28.18-.38.11.09.17.27.31.32.21-.04.09-.55.18-.77" fill="#00652e"/>
      <path d="M10.33,26.14h.13c-.07.21-.11.86.09.9.26.06.17-.39.39-.38.08.16.13.36.26.45.15-.05.12-.37.26-.45.25.09.44.29.7.06.03.49-.87.18-.96.7-.18,0-.22-.23-.35-.32-.08.16-.27.15-.39.26-.3-.13-.32-.87-.13-1.21" fill="#00652e"/>
      <path d="M10.16,30.94c.2.31-.17.82.04,1.21.3-.05.24-.62.52-.7,0,.42.06.73.22.89.15-.21.22-.53.31-.83.21.14.2.6.44.7.24.03.19-.36.26-.57.15-.14.2.31.48.19-.05.29-.17.08-.35.19-.13.19-.16.54-.48.45-.19,0-.17-.3-.31-.38-.13.19-.22.45-.39.58-.18-.08-.29-.26-.31-.58-.18.1-.22.41-.48.38-.33-.38-.08-1.09.04-1.53" fill="#00652e"/>
      <path d="M11.82,36.24c-.09.5-.22.82.04,1.21.15-.14.2-.43.31-.64.24.01.2.43.31.64.19-.05.19-.35.26-.58.15.02.13.28.26.32.25-.08.25-.52.31-.89.2.3.04,1.1-.17,1.21-.16.04-.21-.07-.31-.13-.14.09-.12.43-.35.38-.18,0-.18-.29-.26-.45-.14.14-.24.34-.39.45-.34-.12-.48-1.48,0-1.53" fill="#00652e"/>
      <path d="M9.11,37.01h.13c-.01.23-.1.64.04.9.22-.04.22-.41.44-.45.08.21.15.42.31.51.2.03.12-.34.31-.32.14.06-.16.51-.26.64-.24.01-.26-.3-.44-.38-.17.02-.17.3-.39.26-.32-.05-.22-.83-.13-1.15" fill="#00652e"/>
      <path d="M13.78,35.1c.31.06.6-.15.57-.84.18-.01.22.2.39.19.21,1.17.63,2.35.66,3.58-.11.41-.58.29-.79.38.04.5.09,1.07-.13,1.34-.27.08-.31-.18-.57-.13-.04.85-.72,1.43-1.18.77-.01.3-.18.54-.35.77-.29-.09-.47-.33-.57-.7-.35.21-.51.7-.87.9-.34-.18-.47-.67-.7-1.02.07-.13.19-.3.35-.39.1.37.28.61.57.7.17-.23.34-.47.35-.77.45.67,1.14.09,1.18-.77.26-.05.3.2.57.13.22-.27.17-.84.13-1.34.21-.1.68.03.79-.38-.02-.82-.21-1.62-.4-2.41" fill="#009247"/>
      <path d="M13.53,30.08c.06-.12.1-.29.12-.49.15.21.65.47.7-.06.37.95.73,1.91.83,3.26-.2.04-.27-.11-.48-.06-.11.35.09.8-.04,1.28-.27.05-.3-.25-.48-.32l-.09.06c-.12.22,0,.63,0,.9-.15.13-.28.15-.39.11-.06-.28-.12-.55-.17-.82-.18,0-.21-.2-.39-.19,0,.16,0,.3-.03.41l-.03.1c-.26.77-1.31.08-1.21-.64.27.25.55.92,1,.51,0-.26-.12-.67,0-.89l.09-.07c.18.07.21.37.48.32.14-.47-.06-.93.04-1.28.21-.05.28.1.48.06-.06-.85-.23-1.55-.44-2.18" fill="#009247"/>
      <path d="M22.96,39.38c.44.19.78.48,1.01.89l.05-.04.07-.06.09-.06c.67-.3,1.37.26,1.68.61.18-.16.39-.16.59-.1.16.05.32.13.45.22,0-.16,0-.33,0-.5.01-.23.04-.45.11-.63l.11-.04c.18.08.28.22.37.36.06.12.11.24.16.36l.13-.14.23-.24c.17-.15.37-.27.65-.27l.07.04c.1.16.06.33,0,.47l-.09.19c.2-.04.45-.04.65,0,.22.05.39.19.3.39.43-.09.95-.04,1.25.21.25-.46.97-.56,1.41-.3l.02-.07.06-.16c.05-.11.12-.22.28-.24.16-.01.25.08.32.16l.09.13c.21-.28.75-.31.92.04.28-.3.89-.62,1.24-.23.18.2.17.43.11.64-.04.17-.12.35-.17.52.29.05.49.21.53.52.18-.05.39.01.53.12.12-.25.32-.56.66-.57.34,0,.57.32.57.72.21,0,.43.09.57.23.25-.23.62-.41,1.12-.33.18.13.32.32.32.54l.13-.06c.1-.04.23-.07.37-.06.76.05,1.02.9.85,1.65l.07.18H-8.77l-.22-.2v-3.48l.05-.07c.09-.04.21-.08.34-.05.2-.38.59-.6,1.05-.65-.04-.33.07-1.01.42-1.05.2-.03.34.11.44.24l.13.21.03.05c.22-.43.89-.4,1.25-.16.12-.41.36-.89.71-1.11.51-.32,1.19-.03,1.44.4.3-.31.92-.2,1.28-.04.1-.55.87-1.07,1.45-.77,0-.09,0-.18.02-.27l.05-.18.14-.12c.18-.04.27.12.32.24l.07.24.04-.05.07-.08.08-.09c.11-.11.25-.2.47-.21l.07.03c.07.09.09.2.08.3l-.03.14c.21-.02.45.02.63.12.02-.29.11-.57.28-.82.14-.23.43-.57.72-.63.28-.06.5.03.68.16.09.06.18.13.25.2l.1.09c.09-.72.34-1.31.86-1.64h.09c.29.23.46.56.57.93l.13-.15c.09-.09.18-.19.28-.28.21-.18.46-.32.76-.31l.07.05c.09.21.06.41,0,.59-.04.1-.08.2-.13.29.32-.11.7-.16,1.05-.13.71.06,1.12.49,1.36,1.04.27-.23.79-.22.89.27l.08-.05c.07-.04.16-.08.28-.08.11,0,.19.06.25.11l.09.08.05-.1.13-.21c.1-.13.23-.25.43-.25.2,0,.39.27.46.42.21.46.06,1.1-.14,1.49.48-.06.86.17,1.1.43l.07-.08.16-.14c.4-.22.84.02,1.11.2.22-.75,1.15-1.33,1.9-.74l.14-.17.21-.24c.16-.15.36-.26.63-.2.31.07.51.33.63.6.39-.18,1-.09,1.29.14l.06-.16.15-.25c.38-.38,1.11-.26,1.53-.02.02-.1.04-.21.06-.31.03-.14.06-.28.12-.41l.09-.04c.2.07.31.22.38.39.03.08.06.17.09.27l.04.17.13-.09c.09-.07.19-.15.3-.22.21-.15.47-.29.72-.27.36.02.36.27.27.47-.05.12-.13.23-.21.32.19,0,.39.03.58.08.14.04.26.09.36.14.09.06.17.14.17.25,0,.14-.12.2-.21.25l-.1.04" fill="#064207"/>
      <path d="M20.16,38.47l.13.07c.1-.21.09-.53.17-.76.32.16.27.69.45.99.23-.3.62-.7,1.06-.77.09-.01.2-.02.26.04.03.38-.38.49-.5.78.08.02.18,0,.3-.01.09-.02.2-.03.3-.03.29.02.58.13.74.26-.1.24-.45.23-.67.35.12.13.3.09.43.13.54.15.84.58,1.1,1.04.16-.12.22-.3.45-.35.6-.13,1.2.45,1.5.77.31-.49.88-.02,1.18.21.06-.2,0-.54.02-.84,0-.17.03-.34.07-.47.22.25.37.57.48.91.13-.03.09-.16.13-.24.15-.32.5-.55.84-.67.06.39-.22.61-.32.91.18,0,.37-.19.61-.23.21-.02.39,0,.54.12-.1.29-.43.36-.58.61.14.07.22-.11.34-.17.25-.13.7-.23,1.08-.17.31.05.45.26.69.39,0-.68,1.01-.73,1.42-.34.05-.17.06-.49.26-.6.21.11.3.34.45.5.12-.07.07-.24.17-.34.1-.09.25-.1.34-.07.22.07.21.38.33.54.09-.15.09-.32.23-.45.32-.31,1.01-.36,1.01.25,0,.3-.23.5-.24.78.2.13.56.09.62.37v.37c.13-.04.13-.17.26-.18.19-.02.34.18.45.3.12-.28.27-.66.56-.71.29-.05.57.4.39.8.12.05.16-.07.26-.09.19-.03.36.13.48.26v.19c.13.01.1-.12.13-.21.17-.23.63-.48.97-.34.24.1.23.41.24.65.22-.1.33-.24.63-.22.67.04.81.8.74,1.47H-10.47l1.56-3.38c.11-.05.23-.09.37-.05.16-.45.67-.72,1.22-.67,0-.11-.08-.26-.08-.43,0-.26.13-.59.3-.59l.28.16c.15.16.24.46.37.62l.06-.32c.16-.54.99-.32,1.21.04.1-.5.26-.99.61-1.25.52-.38,1.26.01,1.42.52.22-.6,1.07-.35,1.48-.09.05-.15-.05-.27.02-.43.06-.14.32-.38.5-.47.13-.06.3-.08.41-.07.26,0,.34.18.54.34.04-.23-.13-.63.04-.82.2.16.2.52.3.77.11-.07.09-.22.15-.32.11-.19.28-.33.5-.39.07.26-.08.46-.13.67.14-.01.17-.14.3-.18.28-.09.61.1.77.3.11-.19.02-.37.06-.58.07-.44.42-.75.69-1.01.62-.16,1.01.32,1.29.67.08-.08.02-.29.04-.43.04-.61.31-1.17.69-1.46.36.27.54.79.54,1.4.15-.02.11-.32.15-.43.15-.36.65-.71,1.06-.82.09.49-.22.86-.39,1.21.14,0,.17-.12.24-.17.38-.25.99-.31,1.44-.2.61.13.91.7,1.1,1.19.16-.11.23-.36.45-.35.28,0,.28.38.43.6.12-.08.17-.27.36-.28.13,0,.25.09.3.15l.13.28c.09.01.07-.27.13-.39.05-.12.29-.4.45-.39.23.02.38.49.39.71.03.49-.22.9-.39,1.25.13.04.2-.06.32-.07.52-.08.86.23,1.09.5.22-.19.36-.42.71-.39.28.02.46.29.69.37.17-.07.14-.28.21-.43.15-.32.52-.7,1.04-.64.27.03.45.21.63.3.25-.2.33-.52.61-.63.43-.16.83.31.9.75.11-.05.11-.15.2-.2.37-.24,1.05.05,1.27.35.09-.14.03-.29.09-.43.22-.51,1.02-.46,1.53-.21" fill="#369184"/>
      <path d="M36.32,44.31h-1.02c-.09-.21-.41-.19-.6-.31,0-.28.24-.48.24-.78.01-.61-.68-.56-1.01-.24-.13.13-.13.3-.22.45-.12-.16-.12-.48-.34-.54-.08-.02-.23-.02-.33.07-.11.1-.05.27-.17.34-.15-.17-.24-.4-.45-.5-.21.11-.21.43-.26.6-.41-.39-1.42-.34-1.42.34-.25-.13-.38-.34-.69-.39-.38-.06-.83.04-1.08.17-.11.06-.19.24-.34.17.15-.25.48-.32.58-.61-.15-.11-.34-.14-.54-.11-.25.03-.44.24-.61.23.09-.3.37-.52.32-.91-.34.13-.69.35-.84.67-.04.08,0,.21-.13.24-.11-.35-.27-.67-.48-.91-.04.12-.07.3-.08.47-.01.3.04.64-.02.84-.3-.22-.87-.69-1.18-.2-.29-.31-.9-.9-1.5-.77-.22.05-.29.23-.45.35-.25-.46-.56-.89-1.1-1.05-.13-.03-.31,0-.43-.13.22-.12.57-.11.67-.35-.16-.13-.45-.25-.74-.26-.22-.01.03-.1-.13-.13.13-.29-.36-.68-.38-1.07-.07-.06-2.96.58-3.18,1.09-.06.13,0,.29-.09.42-.23-.3-.9-.59-1.27-.35-.09.06-.1.16-.21.2-.07-.43-.47-.9-.9-.74-.29.11-.37.43-.61.63-.18-.09-.37-.27-.64-.3-.52-.06-.9.31-1.04.64-.07.15-.04.35-.21.43-.23-.09-.41-.34-.69-.37-.35-.03-.49.2-.71.39-.22-.27-.57-.58-1.09-.5-.11.02-.18.11-.31.07.17-.35.42-.76.39-1.25-.02-.22-.16-.69-.39-.71-.16-.01-.39.27-.45.39-.06.12-.04.4-.13.39l-.13-.28c-.05-.06-.17-.16-.3-.15-.18.02-.23.21-.36.28-.15-.21-.15-.59-.43-.6-.22,0-.29.24-.45.36-.19-.49-.49-1.07-1.1-1.2-.45-.1-1.06-.05-1.44.21-.07.05-.11.17-.24.17.16-.35.48-.73.39-1.21-.42.11-.91.46-1.07.82-.04.11,0,.4-.15.43,0-.61-.19-1.13-.54-1.4-.38.29-.65.84-.69,1.46-.01.13.04.34-.04.43-.28-.35-.67-.83-1.29-.67-.27.25-.61.57-.69,1.01-.04.21.05.39-.06.58-.16-.2-.48-.39-.77-.3-.13.04-.15.18-.3.18.05-.2.2-.41.13-.67-.22.06-.4.2-.5.39-.06.1-.04.25-.15.32-.1-.25-.09-.61-.29-.77-.17.18,0,.59-.04.82-.2-.15-.28-.32-.54-.34-.11,0-.28.02-.41.07-.18.09-.45.33-.5.47-.07.16.03.28-.02.43-.41-.25-1.26-.51-1.48.09-.16-.51-.9-.9-1.42-.52-.35.26-.52.75-.61,1.25-.22-.36-1.05-.57-1.22-.04l-.05.32c-.13-.16-.22-.46-.37-.61l-.28-.17c-.17,0-.29.34-.3.6,0,.17.08.32.08.43-.55-.05-1.05.22-1.22.67-.04-.01.11-.66-.81-1.08-.5-.79.34-1.07.34-1.07.11-.05.42-.29.7-.2.16-.45.67-.72,1.22-.67,0-.11-.08-.26-.08-.43,0-.26.13-.58.3-.59l.28.16c.15.16.24.46.37.62l.05-.32c.17-.54.99-.32,1.22.04.09-.5.26-.99.61-1.25.52-.38,1.26.01,1.42.52.22-.6,1.06-.35,1.47-.09.05-.15-.05-.27.02-.43.06-.14.32-.38.5-.47.13-.06.3-.08.41-.07.26,0,.34.18.54.34.04-.23-.13-.64.04-.82.2.16.2.52.29.77.12-.07.1-.22.15-.32.11-.19.28-.33.5-.39.06.26-.08.46-.13.67.15-.01.17-.14.3-.18.29-.1.61.1.76.3.11-.19.02-.37.06-.58.07-.44.42-.75.69-1.01.62-.16,1.01.32,1.29.67.08-.08.02-.3.04-.43.04-.61.31-1.17.69-1.46.36.27.54.79.54,1.4.14-.02.1-.32.15-.43.15-.37.65-.71,1.07-.82.09.49-.22.86-.39,1.21.13,0,.17-.12.24-.17.38-.25.99-.31,1.44-.2.61.13.91.7,1.1,1.19.16-.11.23-.36.45-.35.28,0,.28.38.43.6.12-.08.17-.27.36-.28.13,0,.25.09.3.15l.13.28c.09.01.07-.27.13-.39.05-.12.29-.4.45-.39.23.02.38.49.39.71.02.49-.22.9-.39,1.25.13.04.2-.06.32-.07.52-.08.86.23,1.09.5.22-.19.36-.42.71-.39.28.02.46.29.69.37.17-.07.14-.28.21-.43.15-.32.52-.7,1.04-.64.27.03.46.21.64.3.25-.2.33-.52.61-.63.43-.16.83.31.9.74.11-.05.11-.15.2-.2.37-.24,1.04.05,1.27.35.09-.14.03-.29.09-.43.22-.51,1.02-.46,1.53-.21l.13.07c.1-.21.09-.53.17-.76.32.15.27.69.45.99.23-.3.62-.7,1.06-.77.09-.01.2-.02.26.04.03.38-.38.49-.5.78.08.02.18,0,.3-.01.1-.02.2-.03.3-.03.29.02.59.13.75.26-.1.24-.45.23-.67.35.12.13.3.09.43.13.54.15.85.58,1.1,1.04.16-.12.22-.3.45-.35.6-.13,1.2.45,1.5.77.31-.49.88-.02,1.18.2.06-.2,0-.54.02-.84,0-.17.03-.34.08-.47.22.25.37.57.48.91.13-.03.09-.16.13-.24.15-.32.5-.55.84-.67.06.39-.22.61-.32.91.18,0,.37-.19.62-.23.21-.02.39,0,.54.11-.1.29-.43.36-.58.61.14.07.22-.11.34-.17.25-.13.7-.23,1.08-.17.31.05.45.26.69.39,0-.68,1.01-.73,1.42-.33.05-.17.06-.49.26-.6.21.11.3.34.45.5.12-.07.07-.24.17-.34.1-.09.25-.1.34-.07.22.07.22.38.34.54.09-.15.09-.32.22-.45.32-.31,1.02-.37,1.01.25,0,.3-.23.5-.24.78.2.13.57.09.61.37v.37c.13-.03.14-.17.26-.18.19-.02.34.18.45.3.12-.28.27-.66.56-.71.29-.05.57.41.39.8.12.05.16-.07.26-.09.19-.03.36.13.48.26v.19c.13.01.1-.12.13-.2.17-.23.64-.48.97-.34.24.1.23.41.24.65.22-.1.34-.24.63-.22.67.04.82.8.74,1.47h-3.76c-.09-.11-.2-.18-.32-.16-.1.02-.19.07-.26.16" fill="#5ea69a"/>
      <path d="M6.57,41.3c.05-.28.52-.69.45-1.08-.08-.39-.58.06-.63.22-.04.12.02.31-.11.37-.08-.24-.08-.55-.28-.67-.29.11-.21.57-.15.8-.15.01-.25-.27-.45-.3-.54-.08-.22.55-.02.69-.24,0-.35-.35-.41-.6.13-.24.55-.21.73-.04-.17-.5.49-.96.58-.28.17-.21.37-.54.75-.41.27.52-.24.95-.45,1.29" fill="#007067"/>
      <path d="M25.65,41.42c.15.27-.03.6-.11.8.26-.07.76-.26.99-.02-.06.2-.25.27-.39.39.47.09.32.54-.04.64.06-.15.29-.19.26-.37-.03-.18-.35-.13-.5-.17.04-.12.18-.16.28-.22.11-.07.2-.13.28-.22-.09-.08-.25-.09-.36-.07-.27.02-.51.2-.71.28.03-.27.33-.52.25-.91-.38.12-.65.45-.66.82-.1.04-.15-.09-.19-.15-.14-.2-.34-.4-.56-.54.03.23.08.44.17.61.04.09.16.16.13.26-.14-.06-.25-.28-.3-.45-.06-.18-.12-.41-.09-.59.31.16.54.4.74.67.16-.36.38-.65.8-.75" fill="#007067"/>
      <path d="M31.66,41.55c.23.21.66.78.39,1.12.02-.39-.1-.73-.34-.92-.14.33.12.74.07,1.01-.16-.12-.23-.33-.41-.45-.17-.11-.39-.15-.6-.18-.02.48.45.65.69.93-.37-.24-.84-.4-.82-1.03.41-.04.73.18.97.37-.03-.28-.11-.65.04-.86" fill="#007067"/>
      <path d="M-29.87,39.38c-.44.19-.78.49-1.01.9l-.05-.04-.07-.06-.09-.06c-.67-.3-1.37.26-1.68.61-.18-.16-.4-.16-.59-.1-.16.05-.32.14-.45.22,0-.16,0-.33-.01-.5-.01-.23-.04-.46-.11-.63l-.1-.04c-.18.08-.28.22-.37.37-.06.11-.11.24-.17.36l-.14-.14-.23-.24c-.17-.15-.37-.27-.65-.27l-.07.04c-.1.17-.06.33,0,.47l.09.2c-.2-.04-.46-.04-.65,0-.22.05-.39.19-.29.39-.44-.08-.96-.05-1.25.2-.25-.46-.97-.56-1.41-.3l-.03-.07-.06-.16c-.04-.11-.12-.22-.28-.24-.16-.01-.25.07-.32.16l-.09.13c-.21-.28-.75-.3-.92.04-.28-.3-.89-.62-1.24-.23-.18.2-.17.43-.12.64.04.17.12.35.17.52-.29.05-.49.21-.53.52-.17-.05-.39.01-.53.12-.12-.25-.31-.56-.66-.56-.34,0-.56.32-.57.72-.21-.01-.43.09-.56.23-.25-.24-.62-.41-1.12-.33-.18.13-.32.32-.33.54l-.13-.06c-.1-.04-.23-.07-.38-.06-.76.05-1.02.91-.85,1.66l.16.14H2.08v-.16s0-3.48,0-3.48l-.05-.07c-.09-.04-.21-.08-.34-.06-.2-.38-.59-.6-1.05-.65.04-.33-.07-1.01-.42-1.05-.2-.02-.34.11-.44.24l-.13.21-.03.05c-.22-.43-.89-.4-1.25-.16-.12-.41-.36-.89-.71-1.11-.51-.32-1.19-.04-1.44.4-.3-.31-.92-.2-1.28-.04-.1-.55-.87-1.07-1.45-.77,0-.09,0-.18-.01-.27l-.05-.18-.14-.12c-.18-.04-.27.12-.32.24l-.07.24-.04-.05-.07-.08-.07-.08c-.11-.11-.25-.2-.47-.2l-.06.03c-.07.1-.09.2-.08.3l.03.14c-.22-.02-.45.02-.63.12-.02-.29-.11-.57-.27-.82-.15-.23-.43-.57-.72-.63-.28-.06-.5.03-.68.16-.09.06-.18.14-.25.21l-.1.09c-.09-.72-.34-1.31-.86-1.64h-.09c-.29.22-.46.55-.57.93l-.14-.15c-.09-.1-.18-.19-.28-.28-.21-.18-.46-.32-.76-.31l-.07.05c-.09.21-.06.41,0,.59.03.1.08.2.12.3-.32-.12-.69-.16-1.05-.13-.71.05-1.12.49-1.36,1.04-.27-.23-.79-.22-.89.27l-.08-.05c-.07-.04-.16-.08-.27-.08-.11,0-.19.05-.26.11l-.08.08-.06-.1-.13-.21c-.1-.13-.24-.25-.43-.25-.21,0-.39.27-.46.42-.21.45-.06,1.1.14,1.49-.48-.06-.86.17-1.1.42l-.07-.08-.15-.14c-.4-.22-.84.02-1.11.2-.22-.75-1.15-1.33-1.91-.75l-.14-.17-.21-.24c-.16-.15-.36-.26-.63-.2-.31.07-.51.33-.63.6-.38-.19-1-.09-1.3.14l-.06-.16-.16-.25c-.38-.38-1.11-.26-1.53-.02-.02-.1-.04-.21-.06-.31-.03-.14-.06-.28-.12-.41l-.1-.04c-.2.07-.31.22-.38.39-.04.08-.06.17-.09.27l-.04.17-.13-.1c-.09-.07-.19-.15-.3-.22-.21-.15-.47-.29-.72-.27-.36.02-.36.27-.27.48.05.11.13.23.21.32-.18,0-.39.03-.58.08-.14.04-.26.09-.35.15-.09.06-.17.14-.17.25,0,.14.12.21.21.25l.1.04" fill="#064207"/>
      <path d="M-27.08,38.47l-.13.07c-.1-.21-.09-.53-.17-.76-.32.16-.26.69-.45.99-.23-.3-.62-.7-1.07-.76-.09-.02-.19-.02-.26.04-.03.38.38.49.5.78-.16.03-.38-.05-.6-.04-.29.01-.59.13-.75.26.1.24.45.23.67.36-.12.12-.3.09-.43.13-.54.15-.85.58-1.1,1.05-.16-.12-.22-.3-.45-.35-.6-.13-1.21.46-1.49.77-.31-.49-.88-.02-1.18.2-.06-.2,0-.54-.02-.84,0-.17-.03-.34-.07-.47-.22.25-.37.56-.49.91-.13-.03-.09-.16-.13-.24-.15-.32-.49-.54-.84-.67-.06.4.22.61.32.91-.18.01-.37-.19-.61-.22-.21-.02-.4,0-.54.11.1.29.43.36.58.62-.14.07-.22-.11-.34-.17-.25-.13-.71-.23-1.08-.17-.31.05-.44.26-.69.39,0-.67-1.01-.73-1.42-.34-.05-.17-.06-.49-.26-.6-.21.11-.3.34-.45.5-.12-.07-.06-.24-.17-.33-.1-.1-.25-.1-.34-.08-.22.07-.22.38-.34.54-.09-.15-.09-.32-.22-.45-.32-.31-1.02-.36-1.01.24,0,.3.24.51.24.78-.2.13-.57.09-.62.37v.37c-.13-.04-.13-.17-.26-.19-.19-.02-.35.18-.45.3-.12-.28-.27-.66-.56-.71-.29-.05-.57.4-.39.8-.12.05-.16-.08-.26-.09-.19-.03-.36.14-.49.26v.19c-.12.01-.1-.12-.13-.2-.17-.23-.63-.48-.97-.34-.24.1-.23.41-.24.65-.21-.1-.33-.24-.63-.22-.67.04-.81.8-.74,1.47H3.56l-1.56-3.38c-.11-.05-.23-.09-.37-.05-.16-.45-.67-.72-1.21-.67,0-.11.08-.26.07-.43,0-.26-.13-.59-.3-.6l-.28.17c-.15.16-.24.45-.37.62l-.06-.32c-.16-.54-.99-.32-1.21.04-.1-.5-.26-.99-.62-1.25-.51-.38-1.26.01-1.42.52-.22-.6-1.06-.35-1.47-.09-.05-.15.05-.27-.02-.43-.06-.14-.32-.38-.51-.47-.12-.06-.3-.08-.41-.07-.26.01-.35.18-.54.34-.04-.23.13-.64-.04-.82-.2.15-.2.51-.3.77-.11-.07-.09-.22-.15-.32-.11-.19-.28-.33-.5-.39-.07.26.08.46.13.67-.15-.01-.17-.14-.3-.19-.28-.09-.61.1-.76.3-.1-.19-.02-.37-.06-.58-.07-.44-.43-.75-.69-1.01-.62-.16-1.01.32-1.29.67-.08-.08-.03-.3-.04-.43-.04-.61-.31-1.17-.69-1.46-.36.28-.54.79-.54,1.4-.14-.02-.1-.32-.15-.43-.15-.36-.65-.71-1.07-.82-.09.49.23.86.39,1.21-.13,0-.17-.12-.24-.17-.38-.25-.99-.3-1.44-.21-.61.13-.91.7-1.1,1.19-.16-.11-.23-.36-.45-.35-.28,0-.28.38-.43.6-.12-.08-.17-.27-.35-.28-.13-.01-.26.09-.3.15l-.13.28c-.09.01-.07-.26-.13-.39-.06-.12-.29-.4-.45-.39-.24.02-.38.49-.39.71-.03.49.22.9.39,1.25-.13.03-.2-.06-.32-.07-.52-.08-.86.23-1.08.5-.22-.19-.36-.42-.71-.39-.28.02-.46.29-.69.37-.17-.08-.14-.28-.21-.43-.15-.32-.52-.69-1.04-.64-.27.03-.46.21-.64.3-.25-.2-.33-.53-.62-.63-.43-.16-.83.31-.9.75-.11-.05-.12-.15-.21-.21-.37-.24-1.04.05-1.27.35-.09-.14-.03-.29-.09-.43-.22-.51-1.02-.47-1.53-.21" fill="#369184"/>
      <path d="M-43.23,44.31h1.02c.09-.21.41-.19.6-.31,0-.28-.24-.48-.24-.78,0-.61.68-.56,1.01-.24.13.13.13.3.22.45.12-.16.12-.48.34-.54.08-.03.23-.02.34.07.1.1.05.27.17.34.15-.17.24-.4.45-.5.2.11.21.43.26.6.41-.39,1.42-.34,1.42.34.25-.13.38-.34.69-.39.38-.06.83.04,1.08.17.11.06.19.24.34.17-.15-.25-.47-.32-.58-.62.15-.11.34-.14.54-.11.25.03.44.24.62.22-.09-.3-.38-.52-.32-.91.35.13.69.35.84.67.04.08,0,.21.13.24.12-.35.26-.67.49-.91.04.12.07.3.07.47.01.3-.04.64.02.84.29-.23.87-.69,1.18-.2.29-.31.9-.9,1.49-.77.23.05.29.23.45.35.26-.47.56-.89,1.1-1.04.13-.04.31,0,.43-.13-.22-.12-.57-.11-.67-.36.16-.13.45-.24.75-.26.22-.01-.03-.1.13-.13-.13-.29.36-.68.39-1.07.07-.06,2.96.58,3.18,1.08.06.14,0,.29.09.43.22-.3.9-.59,1.27-.35.09.06.1.16.21.2.07-.43.47-.91.9-.75.29.11.37.43.62.64.18-.09.37-.27.63-.3.53-.06.9.31,1.05.63.07.15.04.36.2.43.23-.09.41-.35.69-.37.35-.03.49.21.71.39.22-.27.57-.58,1.08-.51.12.02.18.11.32.08-.17-.35-.42-.76-.39-1.25.01-.22.16-.69.39-.71.16-.01.39.27.45.39.06.12.04.4.13.39l.13-.28c.04-.06.17-.16.3-.15.18.01.23.2.35.28.15-.21.15-.59.43-.6.22,0,.29.24.45.35.19-.49.49-1.06,1.1-1.2.45-.1,1.06-.05,1.44.21.07.05.11.17.24.17-.17-.35-.48-.73-.39-1.21.42.11.91.46,1.06.82.05.11,0,.4.15.43,0-.61.18-1.12.54-1.4.38.29.65.84.69,1.46.01.13-.05.35.04.43.28-.35.67-.83,1.29-.67.26.25.62.57.69,1.01.04.21-.05.39.06.58.15-.2.48-.39.77-.3.13.04.15.17.3.19-.05-.21-.19-.41-.13-.67.22.06.4.2.5.39.06.1.04.25.15.32.1-.25.1-.61.3-.77.16.18,0,.6.04.82.2-.15.28-.33.54-.34.11,0,.28.02.41.07.18.08.45.33.51.47.07.16-.03.28.02.43.41-.26,1.25-.51,1.47.09.16-.51.9-.9,1.42-.52.35.26.52.75.62,1.25.22-.36,1.05-.57,1.21-.04l.06.32c.13-.16.22-.46.37-.61l.28-.17c.17.01.29.34.3.6,0,.17-.08.32-.08.43.54-.05,1.05.22,1.21.67.05-.01-.11-.66.81-1.08.49-.79-.35-1.07-.35-1.07-.1-.05-.42-.29-.7-.2-.16-.45-.67-.72-1.21-.67,0-.11.08-.26.07-.43,0-.26-.13-.59-.3-.6l-.28.17c-.15.16-.24.45-.37.62l-.06-.32c-.17-.54-.99-.32-1.21.04-.1-.5-.26-.99-.61-1.25-.51-.38-1.26.01-1.42.52-.22-.6-1.06-.35-1.47-.09-.05-.15.05-.27-.02-.43-.06-.13-.32-.38-.5-.47-.12-.06-.3-.08-.41-.08-.26.01-.34.18-.54.34-.04-.23.13-.64-.04-.82-.2.15-.2.51-.3.77-.11-.07-.09-.22-.15-.32-.11-.19-.28-.33-.5-.39-.06.26.08.46.13.67-.14-.01-.17-.14-.3-.19-.28-.1-.61.1-.76.3-.11-.19-.02-.37-.06-.58-.07-.44-.43-.76-.69-1.01-.62-.16-1.01.32-1.29.67-.09-.08-.03-.3-.04-.43-.04-.61-.31-1.17-.69-1.46-.36.28-.54.79-.54,1.4-.14-.02-.1-.32-.15-.43-.15-.36-.65-.71-1.06-.82-.09.49.23.86.39,1.21-.13,0-.17-.12-.24-.17-.38-.25-.99-.31-1.44-.21-.61.13-.91.71-1.1,1.2-.16-.11-.23-.36-.45-.36-.28,0-.28.38-.43.6-.12-.08-.17-.27-.35-.28-.13-.01-.26.09-.3.15l-.13.28c-.09.01-.07-.27-.13-.39-.06-.12-.29-.4-.45-.39-.23.02-.38.49-.39.71-.03.49.22.9.39,1.25-.13.04-.2-.06-.32-.07-.52-.08-.86.23-1.08.5-.22-.19-.36-.42-.71-.39-.28.03-.46.29-.69.37-.17-.08-.14-.28-.21-.43-.15-.32-.52-.69-1.04-.63-.27.03-.45.21-.64.3-.25-.2-.33-.53-.61-.63-.43-.16-.83.31-.9.75-.11-.05-.11-.15-.21-.21-.37-.24-1.04.05-1.27.36-.09-.14-.04-.29-.09-.43-.22-.51-1.02-.46-1.53-.21l-.13.08c-.1-.21-.09-.53-.17-.77-.32.16-.26.69-.45.99-.23-.3-.62-.7-1.06-.77-.09-.01-.19-.02-.26.04-.03.38.38.49.5.78-.16.03-.38-.05-.6-.04-.29.02-.59.13-.75.26.1.24.45.23.67.36-.12.13-.3.09-.43.13-.54.15-.85.58-1.1,1.05-.16-.12-.22-.31-.45-.36-.59-.13-1.2.46-1.49.77-.31-.49-.88-.02-1.18.2-.06-.2,0-.54-.02-.84,0-.17-.03-.34-.07-.47-.22.25-.37.57-.49.92-.13-.03-.09-.16-.13-.24-.15-.32-.49-.54-.84-.67-.06.4.22.61.32.92-.18,0-.37-.19-.62-.22-.21-.03-.39,0-.54.11.1.3.43.36.58.62-.14.07-.22-.11-.33-.17-.26-.13-.71-.23-1.08-.17-.31.05-.44.26-.69.39,0-.67-1.01-.73-1.42-.34-.05-.17-.06-.49-.26-.6-.21.11-.3.34-.45.5-.12-.07-.06-.24-.17-.34-.1-.1-.25-.1-.34-.08-.22.07-.22.38-.34.54-.09-.15-.09-.32-.22-.45-.32-.31-1.02-.36-1.01.24,0,.3.24.51.24.78-.2.13-.57.09-.62.37v.37c-.13-.04-.13-.17-.26-.18-.19-.02-.34.18-.45.3-.12-.28-.27-.66-.56-.71-.29-.05-.57.4-.39.8-.12.05-.16-.08-.26-.09-.19-.03-.36.14-.49.26v.19c-.12.01-.1-.12-.13-.2-.17-.23-.63-.48-.97-.34-.24.1-.23.41-.24.65-.21-.1-.33-.24-.64-.22-.67.04-.81.8-.74,1.47h3.76c.08-.11.2-.18.32-.16.1.02.19.08.27.16" fill="#5ea69a"/>
      <path d="M-1.43,41.48c-.04-.22-.2-.6,0-.8.17.06.33.15.41.32.03.07,0,.19.09.23,0-.22.31-.71.47-.37.1.21-.12.53-.09.73.12,0,.55-.47.69-.21.07.14-.24.53-.26.67.12-.02.22-.23.28-.37.05-.12.08-.27.06-.37-.19-.17-.48-.03-.63.09.05-.29.13-.74-.17-.76-.17-.01-.27.16-.34.32-.16-.1-.31-.46-.58-.34-.25.12-.07.72.07.88" fill="#007067"/>
      <polygon points="8.35 79.45 -32.8 104.3 94.5 104.3 94.5 67.1 25.79 67.43 8.35 79.45" fill="#00ac5b" fill-rule="evenodd"/>
    </g>
    <g clip-path="url(#clippath-4)">
      <path d="M-30.48,49.71S35.72,126.85,33.75,128.13c-1.97,1.28-60.71.32-60.71.32l-3.52-78.74Z" fill="#45b97c" fill-rule="evenodd"/>
    </g>
    <g clip-path="url(#clippath-5)">
      <polygon points="-24.9 102.24 -15.18 102.09 25.82 71.18 94.5 71.55 94.5 67.02 28.66 67.19 -24.9 102.24" fill="#009247"/>
      <path d="M83.73,89.23l1.29,5.28H8.82l5.6-5.35,69.31.07ZM32.56,71.83l1.97-1.88h44.49l.47,1.91-46.93-.03ZM25.74,78.35l6.63-6.33h21.28s-7.78,16.79-7.78,16.79l-31.04-.03,10.65-10.17h3s.25-.25.25-.25h-2.98ZM81.15,78.64l2.49,10.2-36.99-.03,4.58-10.18,29.92.02ZM81.71,78.39l-1.64-6.34h14.43s0-.17,0-.17h-14.48s-.5-1.92-.5-1.92h14.98v-.16h-60.3l-27.31,25.47,87.61.06v-.82h-8.62l-1.37-5.28h9.99s0-.38,0-.38h-10.09s-2.64-10.21-2.64-10.21h12.73s0-.24,0-.24h-12.79ZM51.34,78.36l2.85-6.34,25.35.02,1.55,6.34-29.74-.02Z" fill="#fff"/>
      <polygon points="94.5 69.79 34.2 69.79 32.71 71.2 33.23 71.2 34.53 69.95 79.03 69.95 79.4 71.48 79.93 71.49 79.53 69.95 94.5 69.95 94.5 69.79" fill="#c4e0e7"/>
      <path d="M79.67,70.37s-4.58-.23-4.58.14,4.73,30.21,6.1,30.3c1.37.09,5.15-1.95,5.15-2.59s-.63-5.1-.63-5.1l-6.04-22.75Z" fill="#009247" fill-rule="evenodd"/>
      <polygon points="76.35 78.38 76.39 78.64 81.15 78.64 83.64 88.84 78.19 88.83 78.26 89.22 83.73 89.23 85.02 94.51 79.31 94.51 79.49 95.31 86.01 95.32 85.88 94.51 84.52 89.23 84.7 89.23 84.6 88.84 84.42 88.84 81.78 78.64 81.97 78.64 81.91 78.39 81.71 78.39 80.07 72.04 80.27 72.04 80.23 71.86 80.02 71.86 79.53 69.95 79.73 69.95 79.69 69.79 76.4 69.79 76.03 69.95 79.03 69.95 79.49 71.86 75.29 71.86 75.32 72.04 79.54 72.04 81.09 78.39 76.35 78.38" fill="#c4e0e7"/>
      <polygon points="94.5 64.08 27.79 64.27 -36.66 105.65 94.5 106.75 94.5 101.44 -17.17 100.89 28.29 67.58 94.5 67.48 94.5 64.08" fill="#d5cfa3" fill-rule="evenodd"/>
    </g>
    <g clip-path="url(#clippath-6)">
      <path d="M-30.48,49.71S28.31,117.83,26.34,119.11c-1.97,1.28-53.93.32-53.93.32l-2.88-69.72Z" fill="#e5e1c0" fill-rule="evenodd"/>
    </g>
    <g clip-path="url(#clippath-7)">
      <polygon points="94.5 64.08 27.79 64.27 -36.66 105.65 94.5 106.75 94.5 101.44 -17.17 100.89 28.29 67.58 94.5 67.48 94.5 64.08" fill="none" stroke="#8c8751" stroke-miterlimit="3.86" stroke-width=".25"/>
      <path d="M79.13,61.34c-.33,0-.6.24-.6.53,0,.17.09.32.24.42-.09.09-.15.22-.15.36v6.4c0,.29.24.35.5.35.12-.02.18-.04.24-.06.12-.05.25-.13.25-.29v-6.4c0-.14-.05-.26-.14-.35.15-.1.25-.25.25-.43,0-.29-.27-.53-.6-.53" fill="#231f20"/>
      <path d="M79.13,61.43c-.27,0-.49.19-.49.43,0,.15.09.29.23.36-.08.17-.14.28-.14.42v6.4c0,.2.14.25.38.25.05,0,.39-.06.39-.25v-6.4c0-.13-.06-.24-.14-.32.16-.17.25-.31.25-.46,0-.24-.22-.43-.49-.43" fill="#007f3e"/>
      <path d="M79.22,62.24c-.18.15-.22.22-.22.31v6.4c.04.09.09.1.2.1l.15-.04.08-6.46c0-.09-.04-.16-.09-.21l-.12-.11ZM79.54,61.78c0-.15-.14-.28-.32-.28s-.32.12-.32.28c0,.1.06.19.15.24l.16.09.17-.09c.09-.05.16-.14.16-.24" fill="#00ac5b"/>
      <polygon points="79.42 61.69 79.28 61.57 79.14 61.69 79.28 61.81 79.42 61.69" fill="#fff"/>
      <line x1="79.24" y1="64.2" x2="85.66" y2="87.39" fill="none" stroke="#ddeef2" stroke-linecap="round" stroke-linejoin="round" stroke-width=".08"/>
      <line x1="79.24" y1="65.13" x2="85.66" y2="88.41" fill="none" stroke="#ddeef2" stroke-linecap="round" stroke-linejoin="round" stroke-width=".08"/>
      <line x1="79.24" y1="66.15" x2="85.66" y2="89.53" fill="none" stroke="#ddeef2" stroke-linecap="round" stroke-linejoin="round" stroke-width=".08"/>
      <line x1="79.24" y1="67.08" x2="85.66" y2="90.55" fill="none" stroke="#ddeef2" stroke-linecap="round" stroke-linejoin="round" stroke-width=".08"/>
      <line x1="79.24" y1="67.91" x2="85.66" y2="91.47" fill="none" stroke="#ddeef2" stroke-linecap="round" stroke-linejoin="round" stroke-width=".08"/>
      <line x1="79.31" y1="63.63" x2="79.31" y2="68.94" fill="none" stroke="#ddeef2" stroke-linecap="round" stroke-linejoin="round" stroke-width=".08"/>
      <line x1="79.63" y1="64.56" x2="79.63" y2="69.87" fill="none" stroke="#ddeef2" stroke-linecap="round" stroke-linejoin="round" stroke-width=".08"/>
      <line x1="79.94" y1="65.76" x2="79.94" y2="71.07" fill="none" stroke="#ddeef2" stroke-linecap="round" stroke-linejoin="round" stroke-width=".08"/>
      <line x1="80.36" y1="67.25" x2="80.36" y2="72.56" fill="none" stroke="#ddeef2" stroke-linecap="round" stroke-linejoin="round" stroke-width=".08"/>
      <line x1="80.68" y1="68.45" x2="80.68" y2="73.76" fill="none" stroke="#ddeef2" stroke-linecap="round" stroke-linejoin="round" stroke-width=".08"/>
      <line x1="80.99" y1="69.66" x2="80.99" y2="74.96" fill="none" stroke="#ddeef2" stroke-linecap="round" stroke-linejoin="round" stroke-width=".08"/>
      <line x1="81.31" y1="70.95" x2="81.31" y2="76.26" fill="none" stroke="#ddeef2" stroke-linecap="round" stroke-linejoin="round" stroke-width=".08"/>
      <line x1="81.62" y1="71.97" x2="81.62" y2="77.28" fill="none" stroke="#ddeef2" stroke-linecap="round" stroke-linejoin="round" stroke-width=".08"/>
      <line x1="81.94" y1="73.27" x2="81.94" y2="78.58" fill="none" stroke="#ddeef2" stroke-linecap="round" stroke-linejoin="round" stroke-width=".08"/>
      <line x1="82.25" y1="74.2" x2="82.25" y2="79.5" fill="none" stroke="#ddeef2" stroke-linecap="round" stroke-linejoin="round" stroke-width=".08"/>
      <line x1="82.57" y1="75.49" x2="82.57" y2="80.8" fill="none" stroke="#ddeef2" stroke-linecap="round" stroke-linejoin="round" stroke-width=".08"/>
      <line x1="82.89" y1="76.61" x2="82.89" y2="81.91" fill="none" stroke="#ddeef2" stroke-linecap="round" stroke-linejoin="round" stroke-width=".08"/>
      <line x1="83.31" y1="78.09" x2="83.31" y2="83.4" fill="none" stroke="#ddeef2" stroke-linecap="round" stroke-linejoin="round" stroke-width=".08"/>
      <line x1="83.73" y1="79.11" x2="83.73" y2="85.25" fill="none" stroke="#ddeef2" stroke-linecap="round" stroke-linejoin="round" stroke-width=".08"/>
      <line x1="84.15" y1="80.5" x2="84.15" y2="86.64" fill="none" stroke="#ddeef2" stroke-linecap="round" stroke-linejoin="round" stroke-width=".08"/>
      <line x1="84.57" y1="81.98" x2="84.57" y2="88.12" fill="none" stroke="#ddeef2" stroke-linecap="round" stroke-linejoin="round" stroke-width=".08"/>
      <line x1="84.99" y1="83.56" x2="84.99" y2="89.7" fill="none" stroke="#ddeef2" stroke-linecap="round" stroke-linejoin="round" stroke-width=".08"/>
      <polygon points="86.18 88.39 86.36 88.43 86.61 87.08 79.26 62.12 79.08 62.08 79.01 63.21 86.18 88.39" fill="#231f20"/>
      <polygon points="79.19 63.2 86.29 88.11 86.43 87.08 79.19 62.51 79.19 63.2" fill="#fff"/>
      <polygon points="79.19 63.2 86.29 88.11 86.43 87.08 86.29 87.64 79.19 63.01 79.19 63.2" fill="#c4e0e7"/>
      <polygon points="85.91 95.72 86.09 95.77 86.33 94.41 79.31 67.97 79.12 67.94 79.06 69.06 85.91 95.72" fill="#231f20"/>
      <polygon points="79.24 69.05 86.01 95.44 86.16 94.41 79.24 68.36 79.24 69.05" fill="#fff"/>
      <polygon points="79.24 69.05 86.01 95.44 86.16 94.41 86.01 94.98 79.24 68.87 79.24 69.05" fill="#c4e0e7"/>
      <path d="M85.58,86.05c-.16.16-.26.39-.26.63v11.24c0,.51.43.61.88.61l.14-.02c.08-.02.18-.04.29-.08.21-.08.44-.23.44-.5v-11.24c0-.24-.09-.46-.25-.62.27-.17.44-.44.44-.75,0-.51-.47-.92-1.05-.92s-1.05.41-1.05.92c0,.3.17.57.42.74" fill="#231f20"/>
      <path d="M86.21,84.56c-.47,0-.85.34-.85.75,0,.27.16.51.4.64l.02.16c-.16.13-.26.33-.26.56v11.24c0,.35.24.43.67.44.08-.01.68-.11.68-.44v-11.24c0-.23-.1-.42-.25-.55l.02-.16c.25-.13.42-.37.42-.65,0-.42-.38-.75-.85-.75" fill="#007f3e"/>
      <path d="M86.37,85.98l-.22.18c-.09.08-.17.21-.17.37v11.24l.04.13s.12.04.31.04c.05,0,.17-.03.27-.07l.14-.1v-11.24c0-.16-.07-.29-.16-.37l-.21-.18ZM86.94,85.16c0-.27-.25-.49-.56-.49s-.56.22-.56.49c0,.18.1.33.26.42l.29.16.29-.15c.16-.09.27-.24.27-.42" fill="#00ac5b"/>
      <path d="M86.71,85.01c0-.12-.11-.21-.24-.21s-.24.1-.24.21.11.21.24.21.24-.1.24-.21" fill="#fff"/>
      <path d="M13.56,31.77l-8.12-4.75-.23-1.15,20.75-15.58c43.49-7.35,71.22,14.62,71.22,14.62l-2.08,23.09-50.26,7.76-26.75-7.38-4.68-8.13.15-8.48" fill="#fff" fill-rule="evenodd"/>
    </g>
    <g clip-path="url(#clippath-8)">
      <path d="M34.16,19.09c.39-.05-.42,15.39-.42,15.39l12.44,23.37s51.39-8.94,51.41-9.33c.02-.38,2.15-22.6,2.14-24.25-.01-1.64,5.95-5.06-18.49-12.79-14.65-4.64-28.8-.96-37.7,2.72-5.94,2.46-9.54,4.92-9.39,4.89" fill="#c4e0e7" fill-rule="evenodd"/>
      <path d="M12.94,33.06l21.38-11.38c34.64-5.59,63.6,7.58,63.6,7.58,0,0,2.12-7.21,1.77-8-.35-.79-7.6-9.61-19.57-12.37-11.97-2.76-18.35-7.98-44.58-6.96C9.31,2.95-1.19,3.56-4.48,10.99c-3.29,7.42-5.8,11.45-.86,14.59,4.94,3.14,10.9,6.71,12.15,6.88s6.14.61,6.14.61" fill="#d1d3d4" fill-rule="evenodd"/>
    </g>
    <g clip-path="url(#clippath-9)">
      <path d="M34.62,10.17l-.3,15.01,68.32,7.61,1.4-13.79s-15.22-7.72-25.6-11.26c-10.39-3.54-3.72-7.52-24.37-6.67-20.65.85-26.35,3.33-26.35,3.33l6.91,5.76" fill="#a7a9ac" fill-rule="evenodd"/>
    </g>
    <g clip-path="url(#clippath-10)">
      <path d="M12.94,33.06l-.06-.1,21.38-11.39h.04c6.07-.99,11.96-1.39,17.56-1.39,26.38,0,46.11,8.97,46.12,8.97l-.05.11-.12-.03s.46-1.54.9-3.28c.46-1.73.91-3.67.9-4.41,0-.12-.01-.2-.02-.23-.07-.16-.59-.88-1.5-1.85-2.74-2.93-9.05-8.4-18-10.46-10.96-2.53-17.19-7.08-38.14-7.08-1.99,0-4.12.04-6.41.13-13.11.51-22.29.92-28.6,2.12C.65,5.39-2.75,7.37-4.37,11.03c-1.96,4.42-3.63,7.64-3.63,10.13,0,1.69.75,3.05,2.72,4.31,2.46,1.57,5.19,3.25,7.45,4.55,2.25,1.3,4.08,2.24,4.65,2.31.62.08,2.15.24,3.53.37,1.38.13,2.6.24,2.6.24v.11s-.07-.1-.07-.1l.06.1v.12s-4.9-.45-6.15-.61c-.68-.1-2.46-1.03-4.73-2.34-2.26-1.31-4.99-2.99-7.46-4.56-2.02-1.28-2.84-2.75-2.83-4.51,0-2.59,1.69-5.81,3.65-10.22C-2.92,7.18.58,5.15,6.91,3.94c6.33-1.21,15.52-1.62,28.63-2.13,2.28-.09,4.42-.13,6.41-.13,20.99,0,27.29,4.58,38.19,7.09,6.01,1.38,10.83,4.28,14.19,6.94,1.68,1.33,3,2.6,3.92,3.58.92.99,1.43,1.67,1.54,1.91.04.09.05.19.05.33,0,.81-.46,2.73-.91,4.47-.46,1.74-.91,3.28-.91,3.28l-.06.07h-.1s-.31-.14-.9-.39c-4.12-1.71-22.09-8.57-45.12-8.57-5.58,0-11.46.4-17.52,1.38l-.02-.11.05.1-21.38,11.39h-.06s.01-.11.01-.11" fill="#231f20"/>
      <path d="M13,31.94l21.37-11.39c34.64-5.59,63.58,8.15,63.58,8.15,0,0,2.15-7.77,1.8-8.56-.34-.79-7.6-9.62-19.57-12.37C68.2,5.01,61.82-.21,35.6.81,9.37,1.83-1.13,2.44-4.42,9.86c-3.29,7.42-5.8,11.45-.86,14.59,4.94,3.14,10.89,6.72,12.14,6.88,1.25.16,6.14.61,6.14.61" fill="#ffd65a" fill-rule="evenodd"/>
    </g>
    <g clip-path="url(#clippath-11)">
      <path d="M5.35,27.37l20.6-14.19s3.72,1.82,4.19,5.1c.46,3.28-18.58,13.38-18.58,13.38l1.98,1.37,29.88-14.62s-13.84-9.56-14.55-9.53c-.72.03-12.56,3.65-13.01,4.12s-8.09,8.61-8.82,9.15c-.73.53-2.79,1.98-2.79,1.98l1.11,3.24Z" fill="#e8bd48" fill-rule="evenodd"/>
      <path d="M24.66,9.27l10.91,12.41,67.13,9.98,1.4-13.79s-15.22-7.72-25.6-11.26C68.11,3.07,74.78-.91,54.12-.06c-20.65.85-26.35,3.34-26.35,3.34l-3.12,6Z" fill="#d2a93b" fill-rule="evenodd"/>
    </g>
    <g clip-path="url(#clippath-12)">
      <path d="M13,31.94l-.05-.1,21.38-11.39h.04c5.86-.96,11.56-1.35,16.98-1.35,26.66,0,46.65,9.49,46.66,9.49l-.05.11-.12-.03s.46-1.66.92-3.53c.46-1.86.92-3.94.92-4.72,0-.12-.02-.21-.03-.24-.07-.16-.59-.87-1.5-1.85-2.74-2.93-9.04-8.4-17.99-10.46C69.19,5.35,62.96.8,42.01.8c-2,0-4.13.04-6.41.13-13.11.51-22.29.92-28.59,2.12C.7,4.26-2.69,6.25-4.32,9.91c-1.96,4.42-3.63,7.63-3.63,10.12,0,1.69.75,3.05,2.72,4.32,2.47,1.57,5.19,3.25,7.45,4.55,2.25,1.3,4.07,2.24,4.64,2.31.62.08,2.15.23,3.53.37,1.38.13,2.6.24,2.6.24v.12s-.06-.1-.06-.1l.05.1v.12s-4.89-.45-6.15-.61c-.68-.09-2.46-1.03-4.73-2.34-2.26-1.31-4.99-2.99-7.46-4.55-2.02-1.28-2.84-2.75-2.83-4.52,0-2.59,1.69-5.8,3.65-10.22C-2.86,6.05.64,4.02,6.97,2.82c6.33-1.21,15.51-1.62,28.63-2.13,2.28-.09,4.42-.13,6.42-.13,20.98,0,27.29,4.58,38.19,7.09,6.01,1.38,10.83,4.29,14.19,6.95,1.68,1.33,3,2.6,3.92,3.58.92.99,1.44,1.68,1.54,1.91.04.09.04.2.04.34,0,.84-.46,2.9-.92,4.77-.46,1.87-.92,3.53-.92,3.54l-.07.07h-.1s-.31-.15-.91-.41c-4.18-1.81-22.38-9.06-45.65-9.06-5.41,0-11.1.39-16.95,1.33l-.02-.12.06.11-21.38,11.38-.07.02v-.12" fill="#231f20"/>
      <path d="M5.24,27.11l21.15-15.82c45.01-6.78,70.85,14.21,70.85,14.21l.22-2.4S78.65,2.29,40.73,4.05C2.81,5.81-1.97,23.46-1.97,23.46l7.21,3.64" fill="#c4e0e7" fill-rule="evenodd"/>
    </g>
    <g clip-path="url(#clippath-13)">
      <path d="M25.75,8.76l.95,3.99L3.32,29.13s-.8-3.21-.75-4.18S25.75,8.76,25.75,8.76" fill="#fff" fill-rule="evenodd"/>
    </g>
    <g clip-path="url(#clippath-14)">
      <path d="M5.24,27.11l-.07-.09,21.15-15.83.05-.02c6.27-.95,12.16-1.35,17.67-1.35,34.08,0,53.26,15.58,53.28,15.59l-.08.09h-.12s.22-2.42.22-2.42h.12s-.09.09-.09.09c0,0-.27-.3-.81-.82-3.78-3.65-20.83-18.29-51.32-18.29-1.47,0-2.98.03-4.52.11-18.94.88-29.59,5.73-35.5,10.34-2.95,2.31-4.73,4.55-5.76,6.23-.52.84-.85,1.53-1.05,2.01-.1.24-.17.43-.21.56-.04.13-.06.19-.06.19l-.11-.03.05-.1,7.21,3.64-.05.11-.07-.09.07.09-.05.11-7.21-3.64-.06-.14S2.76,5.69,40.72,3.93c1.54-.07,3.05-.11,4.53-.11,34.94,0,52.29,19.17,52.3,19.18l.03.09-.23,2.41-.07.1-.12-.02s-.29-.24-.88-.66c-4.12-2.97-22.49-14.87-52.24-14.87-5.49,0-11.38.4-17.63,1.35l-.02-.12.07.09L5.32,27.2h-.13s.05-.09.05-.09" fill="#231f20"/>
    </g>
    <g clip-path="url(#clippath-15)">
      <path d="M13.56,31.77l-.1.17-8.12-4.76-.09-.14-.23-1.15.08-.2,20.75-15.58.09-.04c6.24-1.05,12.16-1.5,17.72-1.5,33.24,0,53.64,16.15,53.66,16.16l.07.18-2.08,23.09c0,.09-.08.17-.17.18l-50.26,7.77h-.08s-26.75-7.38-26.75-7.38l-.12-.09-4.68-8.13-.02-.1.15-8.48h.2s-.1.18-.1.18l.1-.17h.2s-.15,8.43-.15,8.43l4.61,8.01,26.63,7.34,50.06-7.74,2.07-22.93.2.02-.12.15s-.31-.25-.93-.69c-4.33-3.07-23.5-15.39-52.48-15.39-5.54,0-11.43.45-17.66,1.5l-.03-.2.12.16L5.43,25.95l.19.94,8.04,4.71.1.18h-.2" fill="#231f20"/>
    </g>
    <g clip-path="url(#clippath-16)">
      <rect x="48.99" y="22.1" width="43.53" height="29.47" fill="url(#linear-gradient-2)"/>
    </g>
    <g clip-path="url(#clippath-17)">
      <rect x="58.44" y="22.23" width="5.5" height="4.7" fill="url(#linear-gradient-3)"/>
    </g>
    <g clip-path="url(#clippath-18)">
      <rect x="67.69" y="22.86" width="6.21" height="5.21" fill="url(#linear-gradient-4)"/>
    </g>
    <g clip-path="url(#clippath-19)">
      <rect x="74.28" y="23.92" width="4.46" height="4.88" fill="url(#linear-gradient-5)"/>
    </g>
    <g clip-path="url(#clippath-20)">
      <rect x="79.05" y="24.53" width=".06" height=".1" fill="url(#linear-gradient-6)"/>
    </g>
    <g clip-path="url(#clippath-21)">
      <rect x="78.79" y="24.89" width="3.8" height="4.45" fill="url(#linear-gradient-7)"/>
    </g>
    <g clip-path="url(#clippath-22)">
      <rect x="66.06" y="25.29" width="1.45" height="2.44" fill="url(#linear-gradient-8)"/>
    </g>
    <g clip-path="url(#clippath-23)">
      <rect x="85.8" y="26.59" width="2" height="3.59" fill="url(#linear-gradient-9)"/>
    </g>
    <g clip-path="url(#clippath-24)">
      <rect x="54.07" y="26.77" width="35.91" height="24.04" fill="url(#linear-gradient-10)"/>
    </g>
    <g clip-path="url(#clippath-25)">
      <polygon points="55.53 18.2 54.79 41.61 59.54 53.31 61.73 16.98 61.81 16.85 61.97 16.85 68.06 20.07 68.15 20.22 66.11 53.52 72.22 53.66 74.6 19.3 74.68 19.17 74.83 19.16 79.15 21.13 79.24 21.29 77.29 54.78 80.62 54.87 82.9 20.51 82.96 20.39 83.1 20.36 85.97 20.9 86.1 21.06 84.73 49.02 86.7 49.2 88.06 21.27 88.12 21.15 88.23 21.11 90.34 21.22 90.49 21.37 90.55 22.42 90.55 22.43 89.36 45.08 90.81 45.87 91.82 23.08 91.87 22.97 91.98 22.93 93.35 23 93.5 23.17 92.48 46.02 93.72 45.86 94.68 22 94.81 21.85 107.62 19.71 107.75 19.75 107.81 19.86 108.46 29.71 108.32 29.88 97.63 31.71 97.59 31.71 46.02 25.48 49.07 32.24 98.05 34.04 98.17 34.09 98.2 34.21 97.97 36.88 97.82 37.03 51.7 40.66 53.07 48.29 103.42 41.43 103.6 41.57 103.46 41.75 52.96 48.63 52.78 48.5 51.36 40.54 51.39 40.41 51.5 40.35 97.66 36.72 97.87 34.35 48.96 32.56 48.82 32.46 45.61 25.35 45.63 25.19 45.78 25.13 97.6 31.39 108.12 29.59 107.5 20.06 94.99 22.14 94.03 46 93.89 46.16 92.33 46.36 92.2 46.32 92.15 46.2 93.18 23.31 92.13 23.26 91.12 46.14 91.04 46.27 90.89 46.28 89.12 45.31 89.04 45.16 90.23 22.42 90.18 21.54 88.38 21.44 87.01 49.39 86.95 49.5 86.84 49.54 84.55 49.32 84.4 49.16 85.77 21.19 83.21 20.71 80.93 55.05 80.77 55.19 77.12 55.1 77.01 55.05 76.96 54.93 78.91 21.38 74.9 19.55 72.53 53.83 72.37 53.98 65.94 53.84 65.82 53.78 65.78 53.67 67.82 20.3 62.04 17.25 59.82 54.03 59.69 54.18 59.51 54.08 54.48 41.7 54.46 41.64 55.21 18.19 55.37 18.03 55.53 18.2" fill="#fff"/>
    </g>
    <g clip-path="url(#clippath-26)">
      <path d="M73.63,50.04l.02.12-10.87,1.65-.12-.07-13.95-29.32v-.11s.09-.06.09-.06c0,0,2.9-.39,7.86-.39,3.65,0,8.43.21,13.99.96,13.11,1.75,25.29,6.14,25.29,6.14l.08.12-.97,11.22-.07.1-21.29,9.74h-.03s-.02-.11-.02-.11l-.05-.11,21.23-9.72.97-11.15h.12s-.04.12-.04.12c0,0-.76-.27-2.1-.71-4.03-1.32-13.34-4.11-23.15-5.42-5.54-.74-10.31-.96-13.95-.96-2.47,0-4.43.1-5.77.2-1.34.1-2.06.2-2.06.2l-.02-.11.11-.05,13.91,29.24,10.79-1.64.02.12-.05-.11.05.11" fill="#231f20"/>
      <polygon points="72.94 37.66 79.29 37.44 103.15 37.2 103.18 38.16 102.79 38.15 103.12 49.93 79.61 52.05 73.82 51.77 73.66 38.8 72.98 38.82 72.94 37.66" fill="#fff" fill-rule="evenodd"/>
    </g>
    <g clip-path="url(#clippath-27)">
      <path d="M79.66,53.42l-.22-18.79s26.6-.28,26.55.45c-.05.73-.28,16.92-.28,16.92l-26.05,1.42" fill="#c4e0e7" fill-rule="evenodd"/>
      <path d="M72.8,38.71l34.53-.69s-.91-3.11-1.79-3.15c-.88-.04-36.16.1-36.16.1l3.41,3.74Z" fill="#ffd65a" fill-rule="evenodd"/>
    </g>
    <g clip-path="url(#clippath-28)">
      <path d="M79.66,53.42l-.22-18.8s26.6-.28,26.55.46c-.05.73-.28,16.93-.28,16.93l-26.05,1.42Z" fill="#d2a93b" fill-rule="evenodd"/>
    </g>
    <g clip-path="url(#clippath-29)">
      <path d="M72.8,38.71l34.53-.69s-.91-3.11-1.79-3.15c-.88-.04-36.16.1-36.16.1l3.41,3.74Z" fill="none" stroke="#231f20" stroke-miterlimit="3.86" stroke-width=".32"/>
    </g>
    <g clip-path="url(#clippath-30)">
      <rect x="83.2" y="39.71" width="9.32" height="12.01" fill="url(#linear-gradient-11)"/>
    </g>
    <g clip-path="url(#clippath-31)">
      <rect x="83.29" y="39.71" width="8.98" height="12.01" fill="url(#linear-gradient-12)"/>
    </g>
    <g clip-path="url(#clippath-32)">
      <rect x="83.22" y="39.88" width="2.75" height="4.68" fill="url(#linear-gradient-13)"/>
    </g>
    <g clip-path="url(#clippath-33)">
      <rect x="88.04" y="42.25" width="4.48" height="9.04" fill="url(#linear-gradient-14)"/>
    </g>
    <g clip-path="url(#clippath-34)">
      <polyline points="88.15 54.51 88.19 36.64 96 37.17 96.02 54.3 101.97 53.58 101.99 41.5 81.19 42.94 80.76 55.78 92.42 53.55 92.54 42.25" fill="none" stroke="#fff" stroke-miterlimit="3.86" stroke-width=".32"/>
    </g>
    <g clip-path="url(#clippath-35)">
      <polygon points="83.31 53.58 83.2 39.95 99.66 39.52 99.84 50.89 83.31 53.58" fill="none" stroke="#231f20" stroke-linecap="round" stroke-linejoin="round" stroke-width=".32"/>
    </g>
    <g clip-path="url(#clippath-36)">
      <polygon points="72.94 37.66 79.29 37.44 103.15 37.2 103.18 38.16 102.79 38.15 103.12 49.93 79.61 52.05 73.82 51.77 73.66 38.8 72.98 38.82 72.94 37.66" fill="none" stroke="#231f20" stroke-linecap="round" stroke-linejoin="round" stroke-width=".4"/>
    </g>
    <g clip-path="url(#clippath-37)">
      <rect x="14.46" y="34.82" width="28.08" height="18.49" fill="url(#linear-gradient-15)"/>
    </g>
    <g clip-path="url(#clippath-38)">
      <path d="M16.13,37.8l.11.12c.23.31.9,1.45,1.8,3.01,2.71,4.69,7.42,13.11,7.42,13.11l-.18.1.03-.2,3.88.65-9.6-17.68v-.16s.1-.12.1-.12l3.9-1.49c.09-.04.2,0,.25.09l12.26,22.53,5.42.48-14.05-24.65c-.05-.1-.02-.22.07-.27.1-.05.22-.02.28.08l14.24,24.98v.21s-.19.09-.19.09l-5.91-.52-.16-.11-12.23-22.47-3.52,1.36,9.69,17.83v.21s-.21.08-.21.08l-4.28-.72-.14-.1s-.56-1-1.4-2.49c-1.26-2.25-3.17-5.62-4.78-8.46-.81-1.42-1.55-2.7-2.1-3.64-.28-.47-.5-.85-.67-1.12-.09-.13-.15-.24-.2-.32l-.06-.08h-.01s.08-.09.08-.09l-.06.09-.02-.02.08-.08-.06.09c-.09-.06-.12-.18-.05-.28.06-.09.18-.11.27-.05" fill="#fff"/>
    </g>
    <g clip-path="url(#clippath-39)">
      <rect x="15.68" y="35.58" width="23.83" height="12.8" fill="url(#linear-gradient-16)"/>
    </g>
    <g clip-path="url(#clippath-40)">
      <path d="M17.51,40.02l-.39.11c.47.8,1.03,1.79,1.65,2.86.13-.03.26-.07.39-.12-.39-.69-.77-1.34-1.11-1.94-.19-.32-.36-.62-.53-.91M21.15,38.96l-.39.11,1.18,2.17c.12-.06.24-.12.36-.18l-1.15-2.11M25.22,37.77l-.39.12,3.41,6.27c.25.27.51.5.82.67l-3.84-7.05M29.59,36.49l-.39.12,3.89,6.83c.13-.05.26-.09.39-.12l-3.89-6.83" fill="#fff"/>
    </g>
    <g clip-path="url(#clippath-41)">
      <polygon points="14.29 40.07 14.26 39.96 32.84 34.57 32.98 34.62 42.88 53.43 42.86 53.56 42.74 53.6 18.54 47.54 18.47 47.48 14.19 40.13 14.18 40.02 14.26 39.96 14.29 40.07 14.39 40.01 18.65 47.32 42.55 53.31 32.81 34.82 14.32 40.18 14.29 40.07 14.39 40.01 14.29 40.07" fill="#231f20"/>
      <path d="M42.24,29.87c1.63,1.18,1.99,3.46.8,5.09-1.18,1.63-3.46,1.99-5.09.81-1.63-1.18-1.99-3.46-.81-5.09,1.18-1.63,3.46-1.99,5.09-.81" fill="#58595b"/>
      <path d="M42.27,33.39c-.35-.17-.71-.41-1.03-.59-.19-.37-.45-1.36-.45-1.36.3-.19.61-.41.92-.56,0,0,.88.38,1.16.38.16.5.31,1.08.35,1.58-.3.22-.6.45-.96.55" fill="#fff"/>
      <path d="M40.67,31.38c-.52-.03-1.06-.09-1.59.05l-.41-.67c.15-.33.32-.69.5-.98.99-.34,1.88.12,2.08.17.1.24.41.73.36.84-.33.17-.65.43-.94.59" fill="#fff"/>
      <path d="M41.1,35.46c-.29-.18-.64-.44-.97-.61l.1-1.01c.36-.27.68-.63.97-.98.36.25.75.49,1.1.67.02.16.05.83.02.97-.33.36-.84.6-1.22.95" fill="#fff"/>
      <path d="M42.71,35c-.47.42-.97.83-1.56.98v-.39s1.19-.93,1.19-.93l.4.31-.03.04Z" fill="#fff"/>
      <path d="M37.85,33.52c-.35-.14-.71-.46-1.03-.72.06-.69.17-1.4.62-1.97.17.11.93.07,1.1.02.25.15.33.48.5.7-.11.47-.22.93-.22,1.42-.33.18-.64.4-.98.55" fill="#fff"/>
      <path d="M39.05,35.41c-.42-.16-.76-.54-1.12-.79l-.03-.9c.03-.09.45-.38.99-.67.38.25.82.54,1.25.77l-.08.95c-.26.22-.66.43-1,.65" fill="#fff"/>
      <path d="M43.51,32.87l-.18-.07c-.08-.55-.18-1.03-.35-1.52l.1-.14c.3.53.44,1.13.43,1.73" fill="#fff"/>
      <path d="M37.4,34.88c.16-.06.37-.15.5-.18.32.31.73.58,1.08.8-.04.17-.04.34-.02.52-.3-.11-.59-.26-.86-.46-.27-.2-.51-.43-.7-.68" fill="#fff"/>
      <path d="M41.36,29.64l-.18.18c-.63-.34-1.4-.32-2.08-.19l-.02-.08c.74-.23,1.54-.21,2.28.08" fill="#fff"/>
      <path d="M42.97,33.03c.09-.18.16-.37.21-.56.02.13.04.25.04.37l-.26.19" fill="#cce2e7"/>
      <path d="M41.1,35.46c-.29-.18-.64-.44-.97-.61l.05-.46c.77.13,1.55-.07,2.15-.56,0,.26.02.58,0,.68-.33.36-.84.6-1.22.95" fill="#c4e0e7"/>
      <path d="M42.71,35c-.47.42-.97.83-1.56.98v-.39s1.19-.93,1.19-.93l.4.31-.03.04Z" fill="#c4e0e7"/>
      <path d="M37.85,33.52c-.35-.14-.71-.46-1.03-.72.06-.69.17-1.4.62-1.97.07.05.25.07.44.07-.22.8-.06,1.67.46,2.36-.16.1-.32.19-.49.26" fill="#c4e0e7"/>
      <path d="M39.05,35.41c-.42-.16-.76-.54-1.12-.79l-.03-.9c.02-.06.21-.21.49-.38.16.2.35.39.57.54.35.25.74.42,1.13.49l-.03.39c-.26.22-.66.43-1,.65" fill="#c4e0e7"/>
      <path d="M43.51,32.87l-.18-.07c-.03-.19-.06-.38-.1-.56.04-.25.04-.5.01-.74.18.43.27.9.26,1.37" fill="#cce2e7"/>
      <path d="M37.4,34.88c.16-.06.37-.15.5-.18.32.31.73.58,1.08.8-.04.17-.04.34-.02.52-.3-.11-.59-.26-.86-.46-.27-.2-.51-.43-.7-.68" fill="#c4e0e7"/>
      <path d="M42.64,34.89l.09.07c-.5.45-.99.86-1.59,1.02v-.15c.57-.16,1.05-.54,1.5-.94" fill="#c4e0e7"/>
      <path d="M43.31,32.66l.18.07c0-.18,0-.35-.03-.52.04.22.06.44.05.67l-.18-.07-.02-.14Z" fill="#cce2e7"/>
      <path d="M42.98,31.28c.17.43.25.87.33,1.37-.08-.49-.17-.93-.33-1.37" fill="#c4e0e7"/>
      <path d="M45.56,31.72c.23.09.43.18.65.24.22.06.44.09.7.08.64-.04,1.21-.38,1.49-.69.11-.13.31-.47.35-.62.24-.83-.08-1.75-.52-2.23-.43-.46-.98-.73-1.63-.76-.22-.01-.51,0-.75.04-1.2.24-1.78,1.62-1.27,2.82.2.48.56.78.98,1.12M50.73,34.87l.08-.02h.07s.06.03.06.03c.09.07.17.16.23.26.07.1.13.2.21.29.28.35.58.66.9,1.05l.15.17.15.19c.09.14.15.29.07.45-.04.08-.27.35-.37.4l-.15.03h-.07s-.07.02-.07.02c-.26-.22-.49-.51-.71-.82-.23-.31-.45-.64-.67-.93l-.15-.19-.16-.23c-.08-.15-.11-.31.05-.41-.73-.99-1.42-2.06-2.17-3.01-.45.27-.91.37-1.4.4-.35.02-.81-.09-1.1-.21-.79-.35-1.65-1.31-1.77-2.35-.08-.67.06-1.35.39-1.79.39-.52,1.15-.93,1.97-.99.77-.06,1.58.26,2.12.7.63.51,1.06,1.69.86,2.74-.11.6-.44.93-.73,1.2.73,1.02,1.43,2.06,2.2,3.02" fill="#58595b"/>
      <path d="M44.55,30.61c.2.49.56.79.99,1.13.23.09.44.18.66.24.22.06.45.09.71.08.65-.04,1.22-.38,1.51-.7.11-.13.31-.47.35-.63.24-.84-.08-1.77-.53-2.25-.43-.47-.99-.74-1.65-.77-.23,0-.51,0-.75.05-1.22.25-1.8,1.64-1.29,2.86M49.22,30.19c-.08.61-.34,1.26-.83,1.62.74,1.08,1.47,2.13,2.27,3.14l-.19.14c-.44-.46-1.86-2.67-2.28-3.15-.15.16-.37.26-.58.32-.96.26-1.83.11-2.48-.41-.88-.69-1.42-2.05-.93-3.18.22-.51.84-1.08,1.55-1.24.83-.19,1.57-.03,2.13.28.19.1.43.28.55.41.48.49.76,1.23.79,2.07" fill="#00b0e7"/>
      <path d="M50.35,35.36c.02.13.11.32.22.41.07-.33.17-.54.35-.78-.27.03-.4.21-.57.37M50.94,35.05c-.17.22-.27.5-.32.81.13.13.23.3.35.45.04-.33.19-.57.32-.84-.12-.13-.2-.32-.35-.41M51.1,36.04c.19,0,.44.09.62-.01-.13-.17-.24-.37-.4-.49-.07.17-.18.31-.21.5M51.42,36.9c0-.25.14-.53.23-.76-.19,0-.35.01-.56-.03l-.08.27c.15.15.26.43.41.52M51.48,37.01c.04.17.24.26.33.42.08-.32.19-.63.33-.9-.13-.15-.23-.34-.38-.46-.08.24-.34.69-.27.95M52,37.04c.18-.03.35.01.48-.06-.09-.15-.17-.31-.32-.38-.04.16-.15.26-.16.44M51.96,37.11c-.02.15-.17.35,0,.47.38-.04.52-.26.59-.55-.2.05-.39.07-.58.07" fill="#c4e0e7" fill-rule="evenodd"/>
      <path d="M45.49,31.82c-.43-.34-.81-.66-1.03-1.18-.53-1.26.07-2.73,1.36-2.99.26-.05.55-.06.78-.05.68.03,1.27.31,1.71.8.47.51.8,1.47.55,2.35-.05.17-.25.53-.38.67-.3.33-.9.69-1.57.73-.55.03-.95-.14-1.43-.33M45.78,27.82l.09.07.16-.13c-.09.01-.21.01-.25.06M46.42,27.96c.09-.07.2-.12.25-.23-.09.01-.29-.03-.4.02l.16.21M45.9,27.97c.03.12.13.15.18.26.12-.05.17-.15.29-.2-.04-.12-.13-.18-.2-.27-.08.08-.21.11-.27.21M45.36,27.99l.15.19.26-.23c-.05-.21-.33-.05-.42.04M46.96,27.99c.09-.05.18-.1.22-.19-.12-.03-.23-.06-.38-.05.04.1.12.15.16.24M46.74,27.8c-.12.04-.16.14-.27.2l.21.23c.09-.05.15-.13.24-.18-.04-.11-.13-.15-.18-.26M45,28.23l.17.22c.11-.06.16-.16.27-.21-.03-.1-.11-.13-.14-.23-.13.05-.19.15-.3.22M45.84,28.01c-.12.07-.22.13-.3.23.08.08.12.19.22.23.07-.09.2-.14.27-.23l-.19-.24M47.24,27.86l-.22.19c.05.11.14.17.2.27.06-.1.23-.11.25-.24-.07-.08-.13-.17-.22-.22M47.51,28.05l.09-.06-.19-.11c.02.08.1.07.1.17M46.43,28.05c-.13.05-.19.14-.3.2.06.1.15.17.23.25.06-.1.19-.14.27-.23-.06-.07-.14-.13-.19-.22M44.93,28.3c-.06.1-.15.17-.2.27l.13.16c.07-.09.17-.16.27-.23-.06-.08-.11-.17-.2-.2M45.47,28.28c-.08.06-.15.14-.24.19.06.1.12.18.2.25.09-.08.22-.12.26-.23l-.22-.22M46.98,28.1c-.12.05-.2.11-.25.21.04.09.12.14.16.22.12-.03.17-.11.27-.16-.04-.11-.13-.17-.18-.27M47.57,28.13l.2.27.21-.16c-.1-.1-.3-.3-.41-.11M45.81,28.54c.06.08.11.17.2.2.1-.07.21-.13.28-.21l-.22-.22c-.11.06-.2.13-.26.23M47.49,28.15c-.07.08-.15.14-.25.2.06.1.14.15.18.27.12-.04.18-.13.29-.18-.06-.11-.12-.22-.21-.28M46.63,28.34c-.07.07-.16.14-.25.19.05.1.13.15.18.26.13-.04.19-.13.28-.2-.06-.1-.11-.21-.21-.25M45.19,28.55c-.12.07-.23.14-.3.25.08.05.11.17.21.2.09-.09.22-.14.28-.25l-.19-.21M44.56,28.98c.11-.06.17-.15.25-.23l-.13-.13c-.03.12-.17.22-.12.36M45.73,28.56l-.25.21c.05.1.13.15.18.24.1-.07.22-.13.28-.23l-.21-.22M47.99,28.28l-.2.14c.06.13.16.2.22.33l.23-.16c-.09-.1-.14-.25-.25-.31M47.21,28.41c-.11.04-.18.11-.27.16.05.11.12.21.21.27l.24-.18c-.05-.1-.1-.19-.18-.26M46.35,28.58c-.13.05-.2.14-.32.2.05.1.12.16.18.26.12-.06.22-.14.32-.22l-.18-.24M44.85,28.82c-.11.04-.17.12-.22.21.03.1.11.12.14.21.1-.05.16-.12.25-.18-.04-.1-.13-.15-.17-.24M47.76,28.48c-.12.05-.18.14-.29.2.07.1.14.2.2.32.12-.05.18-.15.3-.2-.06-.12-.16-.2-.22-.32M45.43,28.81c-.12.07-.25.15-.31.27l.19.21c.09-.08.19-.15.3-.22-.04-.11-.14-.15-.18-.26M46.9,28.65c-.11.05-.23.1-.27.21l.18.24c.08-.07.18-.13.27-.2-.04-.11-.13-.15-.18-.26M45.71,29.05c.04.1.12.15.16.26.12-.07.22-.15.31-.25l-.21-.22-.27.21M47.39,28.72c-.06.08-.18.11-.22.21.07.09.15.18.21.28.09-.06.2-.1.23-.21-.08-.09-.11-.24-.23-.28M44.49,29.47c.06-.09.19-.12.24-.21-.17-.38-.44.05-.24.21M48.09,28.79c.04.12.12.19.17.29.09-.05.18-.1.22-.19-.05-.1-.12-.18-.19-.25l-.19.15M46.58,28.88c-.13.05-.21.14-.32.2.05.1.12.18.21.24l.27-.2c-.06-.07-.11-.15-.16-.24M45.08,29.1c-.11.04-.19.11-.26.18.08.06.12.19.22.22l.19-.15c-.03-.11-.12-.14-.16-.24M45.67,29.11c-.13.06-.24.14-.33.24.07.06.13.13.17.22.13-.06.24-.15.33-.24l-.17-.22M47.13,28.95c-.12.05-.2.14-.3.2.07.11.15.21.22.32.11-.07.2-.14.3-.22-.06-.11-.14-.2-.22-.3M48,28.84c-.08.08-.22.12-.26.23.05.11.12.18.18.27.11-.06.17-.15.29-.2-.05-.12-.11-.24-.2-.3M44.74,29.3c-.05.1-.21.12-.23.24l.19.21c.08-.08.2-.12.27-.21-.08-.07-.13-.19-.22-.23M45.92,29.34c.05.1.12.2.21.25.1-.07.18-.15.28-.21-.06-.1-.13-.18-.21-.25-.09.07-.18.15-.28.21M45.05,29.58l.17.21c.1-.05.18-.11.26-.18-.08-.07-.12-.19-.23-.23-.05.08-.17.11-.2.21M46.79,29.2c-.12.04-.17.13-.27.18.06.13.15.21.23.31.1-.05.17-.13.25-.19-.06-.12-.14-.21-.22-.3M47.65,29.09l-.21.16c.05.11.1.23.2.28l.22-.17c-.08-.07-.11-.22-.21-.27M48.3,29.16c.08.08.12.2.21.27l.19-.19c-.06-.07-.12-.16-.16-.26l-.24.18M44.37,29.63c.02.12-.01.22.04.32.1-.03.14-.11.23-.14-.08-.08-.15-.32-.27-.18M45.85,29.4c-.09.09-.22.14-.3.23.08.08.15.16.21.25.12-.07.23-.15.31-.25-.08-.07-.12-.2-.22-.23M48.22,29.19c-.09.08-.2.13-.26.23.06.08.13.15.18.26.13-.04.18-.14.3-.18-.05-.12-.12-.23-.22-.3M44.98,29.6l-.25.19c.04.1.14.13.18.24.13-.03.17-.15.29-.2-.07-.08-.1-.2-.21-.23M46.47,29.42c-.13.06-.22.15-.31.23.08.1.15.21.23.31.09-.09.23-.15.31-.25-.08-.09-.16-.19-.23-.3M47.4,29.3c-.14.05-.23.14-.31.23.09.08.12.21.23.27.09-.11.19-.13.27-.23-.06-.09-.13-.17-.18-.27M45.26,29.83c.06.11.11.23.21.28.08-.07.21-.1.24-.21l-.21-.25-.24.18M47.88,29.44l-.21.15c.06.1.12.21.21.27l.21-.17c-.07-.09-.11-.2-.21-.25M48.71,29.34l-.18.17.18.24.1-.08c-.04-.12-.02-.31-.1-.33M44.47,30.01l.18.24.21-.15c-.03-.12-.11-.18-.19-.24l-.19.15M47.06,29.56c-.12.04-.2.11-.25.21.05.1.12.17.18.26.1-.05.15-.12.26-.16-.04-.13-.14-.18-.18-.3M46.1,29.69c-.09.08-.19.15-.28.23.05.12.15.19.21.28.11-.07.24-.12.3-.23-.08-.09-.12-.23-.23-.28M45.22,29.88c-.12.05-.19.13-.27.21l.21.27c.07-.09.2-.12.25-.23l-.19-.25M47.59,29.64l-.25.21c.06.11.12.21.2.29.08-.08.21-.14.28-.23-.09-.08-.12-.22-.23-.27M48.49,29.53c-.13.04-.16.15-.3.18.04.14.12.21.21.28.09-.05.16-.12.26-.18-.03-.12-.12-.18-.17-.29M44.48,30.35l.12-.1-.17-.19c.02.1.01.22.05.29M46.71,29.8c-.08.09-.23.13-.28.25l.18.25c.11-.09.25-.14.33-.25-.09-.07-.11-.22-.23-.25M45.77,29.98c-.13.03-.16.14-.27.18.06.12.13.23.23.3l.25-.21-.21-.27M44.88,30.12l-.21.19c.07.09.12.21.21.27l.22-.17c-.07-.11-.12-.23-.23-.28M48.11,29.77l-.19.19c.05.1.13.15.18.26l.24-.18c-.09-.07-.13-.21-.23-.27M47.02,30.08c.04.11.11.18.17.27.12-.04.18-.13.29-.18-.06-.1-.12-.2-.2-.29l-.26.2M46.38,30.05c-.13.05-.18.16-.32.2.06.11.15.19.21.28.1-.07.24-.12.28-.23-.05-.1-.14-.15-.18-.26M48.77,29.8l.08.14-.04-.17-.04.04M45.46,30.21c-.11.05-.21.11-.25.21.06.1.14.17.2.27.11-.04.16-.13.25-.18-.05-.13-.14-.19-.2-.3M44.61,30.72c.09-.02.12-.08.2-.11-.05-.12-.12-.2-.2-.28-.17.06-.06.27,0,.39M48.43,30.08l.18.24c.12-.04.18-.13.25-.21-.04-.1-.1-.17-.16-.24l-.27.21M47.83,29.98c-.07.09-.22.12-.27.23l.18.24c.11-.07.23-.13.32-.22-.07-.08-.11-.21-.23-.25M46.95,30.13l-.29.21c.07.09.1.22.21.25.08-.06.17-.13.27-.18-.06-.11-.1-.23-.2-.29M45.75,30.5c.04.12.11.21.2.27.12-.04.16-.14.27-.18-.05-.13-.14-.21-.22-.3-.07.08-.16.15-.25.21M45.16,30.44c-.11.03-.15.12-.26.16.03.15.14.2.19.32.11-.05.18-.12.27-.18-.05-.12-.15-.18-.2-.3M48.15,30.26c.03.13.13.17.18.27.09-.04.2-.08.22-.17l-.19-.25-.21.16M47.26,30.45l.14.24c.12-.04.19-.13.29-.2-.06-.1-.12-.2-.2-.27-.07.08-.19.12-.23.22M46.59,30.38c-.06.09-.21.12-.25.23l.16.23c.13-.05.21-.14.3-.22-.08-.07-.11-.2-.21-.24M44.66,30.78c.06.11.13.21.2.3.08-.02.09-.09.18-.11-.05-.14-.14-.23-.22-.33l-.16.13M45.68,30.56l-.24.19c.09.06.11.21.21.25l.24-.19c-.08-.07-.11-.21-.21-.25M47.79,30.51c.05.1.13.17.18.27.12-.06.2-.14.32-.2-.07-.1-.13-.22-.23-.28-.07.09-.18.14-.27.21M48.66,30.4l.15.16.04-.32-.19.15M47.2,30.45c-.12.06-.23.13-.32.22.09.07.13.21.23.27l.25-.19c-.04-.12-.11-.19-.17-.29M46.24,30.64c-.09.06-.16.13-.25.19.04.11.12.17.18.26.1-.06.19-.13.29-.2-.05-.1-.1-.22-.21-.25M45.14,30.97c.05.1.11.2.21.24l.23-.16c-.04-.1-.12-.16-.16-.26-.13.03-.17.13-.27.18M48.39,30.62l.2.25.17-.1c.06-.14-.1-.22-.14-.34-.08.06-.18.1-.22.19M47.72,30.55c-.06.09-.21.11-.25.23.05.08.12.14.16.24.11-.06.23-.12.3-.22-.07-.08-.11-.21-.21-.25M46.85,30.69c-.12.05-.23.11-.28.21.05.1.12.16.18.26.12-.04.19-.12.29-.18-.03-.13-.14-.17-.18-.29M45.69,31.08l.14.21c.12-.03.17-.12.27-.16-.07-.08-.1-.22-.21-.25-.06.07-.17.11-.2.2M45.1,31.02c-.09.02-.12.08-.18.12.05.1.13.17.22.22l.13-.11-.17-.22M48.03,30.82c.05.11.13.19.2.29.11-.05.19-.12.29-.18-.05-.12-.11-.22-.2-.29-.11.05-.18.13-.29.18M47.39,30.79c-.07.08-.19.12-.25.21.09.07.11.22.23.25.07-.05.13-.12.23-.16-.05-.12-.11-.23-.2-.3M46.51,30.93c-.12.04-.17.15-.3.18.03.13.15.16.18.29.13-.04.2-.14.32-.19-.04-.12-.14-.18-.2-.28M45.37,31.27l.19.22.22-.17-.17-.21c-.1.04-.16.1-.24.16M47.99,30.88c-.12.06-.23.12-.28.23l.19.22c.11-.04.16-.13.27-.16-.04-.13-.13-.18-.18-.29M46.82,31.25l.17.22c.1-.05.19-.1.27-.16-.04-.12-.12-.21-.2-.29-.07.08-.22.11-.25.23M46.16,31.17c-.12.04-.19.11-.27.18.08.1.1.17.21.25l.24-.14c-.04-.13-.14-.17-.18-.29M45.3,31.31l-.11.13c.09.04.14.14.25.17l.07-.07-.21-.22M48.28,31.17l.1.15c.11-.07.2-.21.21-.32-.12-.01-.21.11-.31.17M47.39,31.31c.04.11.11.17.18.24l.26-.18-.18-.24c-.11.04-.17.12-.26.18M46.73,31.26c-.08.07-.18.12-.27.18.02.13.13.15.16.26.14-.05.24-.12.33-.2-.09-.06-.11-.21-.22-.23M45.85,31.39c-.11.03-.17.1-.24.16.05.1.15.12.18.24.1-.03.15-.11.24-.14-.04-.11-.13-.16-.18-.26M47.92,31.39c.02.11.11.13.14.23.1-.08.21-.14.26-.26-.08-.25-.26-.05-.4.03M46.12,31.65c.06.09.12.18.21.24l.24-.16-.19-.24c-.07.06-.17.11-.26.16M47.06,31.55l.15.19c.1-.04.17-.11.28-.15l-.16-.23c-.12.04-.21.09-.27.18M45.49,31.67l.21.09c-.04-.06-.17-.25-.21-.09M47.59,31.61c.05.06.13.1.15.19.1-.03.17-.09.26-.13-.04-.09-.08-.18-.16-.22-.09.05-.18.1-.26.16M46.98,31.57c-.09.07-.23.11-.3.2.07.05.1.15.19.17.1-.05.19-.12.29-.17l-.17-.21M46.08,31.7c-.09.03-.17.08-.23.14.12.05.24.11.4.11-.04-.12-.13-.16-.18-.26M47.49,31.64c-.08.04-.13.1-.23.13.02.22.28.15.42.06-.06-.07-.09-.17-.19-.19M46.37,31.93c.04.13.29.1.4.08l-.17-.21c-.08.04-.13.1-.23.13M46.89,32.03c.13.03.32-.04.4-.06-.07-.25-.28-.01-.4.06" fill="#58595b"/>
      <path d="M44.38,30.68c.22.54.62.87,1.07,1.22.26.11.48.2.71.26.24.07.49.1.77.08.71-.04,1.32-.41,1.64-.76.13-.15.34-.52.4-.7.26-.91-.09-1.91-.57-2.44-.46-.51-1.07-.8-1.78-.83-.23-.01-.54,0-.8.05-1.36.27-1.97,1.82-1.43,3.12M48.33,31.73l-.02.13c.73,1.05,1.44,2.08,2.21,3.07l-.04.03c-.23-.27-.65-.88-1.09-1.5-.23-.34-.46-.67-.66-.95-.2-.28-.37-.51-.48-.63h-.14c-.13.14-.33.23-.54.29-.93.25-1.77.1-2.4-.4-.85-.67-1.37-1.99-.9-3.07.21-.48.81-1.03,1.48-1.18.81-.18,1.53-.03,2.07.27.18.1.41.27.53.39.46.47.73,1.18.76,2-.08.59-.34,1.21-.8,1.55" fill="#66bfec"/>
      <path d="M50.54,35.17c.07-.06.14-.12.24-.15l.06.08c-.06.09-.11.18-.15.28l-.15-.21ZM51.21,35.62c-.05.1-.1.19-.14.29l-.34-.47c.04-.1.08-.2.14-.29l.34.47ZM51.12,35.97c.03-.11.09-.2.13-.29l.29.4c-.12,0-.25-.02-.37-.03l-.06-.08ZM51.23,36.13c.12.01.24,0,.35,0l.04.06c-.04.1-.09.2-.12.31l-.27-.37ZM51.55,36.56c.04-.1.09-.21.13-.3l.35.49c-.04.1-.08.21-.12.32l-.36-.5ZM52,37.04c0-.09.03-.17.07-.23l.16.22h-.23M51.96,37.11c.11,0,.21,0,.31-.02l.16.23c-.05.08-.12.14-.21.19l-.27-.38v-.02Z" fill="#fff"/>
      <path d="M41.74,23.47c-1.23.04-2.49.98-2.24,2.43.12.71.47,2.21,2.59,1.87.99-.16,2.09-.72,2.16-1.61.13-1.61-.95-2.74-2.51-2.69" fill="#58595b"/>
      <path d="M42.07,26.27c.07-.59.88-.29,1.43-.42.23-.05.24-.22.44-.21.15,1.11-.62,1.42-1.38,1.74.04-.62-.56-.56-.49-1.1" fill="#fff200"/>
      <path d="M41.53,25.08c.09,1.07-1.29.66-1.71.26.14-.73.53-1.24,1.26-1.45-.28.47.41.74.45,1.2" fill="#fff200"/>
      <path d="M43.86,25.1c.02.29-.03.4-.24.43-.77.27-1.76-.03-1.76.81,0,.54.48.49.49,1.1-1.5.37-2.38-.39-2.53-1.73.64,0,.76.46,1.3.36.49-.08.71-.68.6-1.14-.11-.46-.82-.7-.35-1.11,1.28-.33,2.14.28,2.5,1.28" fill="#fff200"/>
      <path d="M42.11,26.56c.13.26.48.33.45.82.76-.31,1.53-.63,1.38-1.74-.2,0-.21.16-.44.21-.13.03-.29.04-.44.04-.22.32-.55.57-.95.67" fill="#f4cb00" fill-rule="evenodd"/>
      <path d="M40.31,25.81c-.13-.07-.29-.12-.51-.11.15,1.35,1.03,2.11,2.53,1.74,0-.49-.31-.56-.43-.84h-.05c-.64.06-1.23-.26-1.54-.78" fill="#f4cb00" fill-rule="evenodd"/>
      <path d="M43.86,25.1c-.17-.47-.45-.86-.83-1.1.17.24.29.52.31.83.02.28-.02.55-.13.79.14-.02.27-.05.4-.1.21-.03.26-.14.24-.43" fill="#f4cb00" fill-rule="evenodd"/>
      <path d="M40.13,24.55c-.15.22-.25.48-.31.78.09.08.22.17.37.24-.06-.14-.09-.3-.11-.46-.02-.19,0-.38.05-.56" fill="#f4cb00" fill-rule="evenodd"/>
      <path d="M45.27,56.69c0,.18.48.8.4.97-.06.13-.43.1-.81.13-1.57.13-2.99.58-4.8.46-1.23-.08-2.66-.36-3.83-.32-.28,0-.54.06-.81.08-.38.02-.76-.02-1.11,0-.66.04-1.31.23-2,.22-.43-.01-.87-.02-1.24-.13.27-.15.61-.24,1.02-.24.17-.4.63-.5,1.24-.46,0-.61.68-.79,1.27-.62.19-.39.94-.56,1.35-.27.1-.11.13-.29.24-.38.11,0,.17-.05.27,0-.08-.38-.17-.77,0-1.11.31-.01.56.27.78.43.05-.24.13-.44.32-.54.14.04.22.14.27.27.22-.2.56-.07.59.22.23-.14.56-.1.76.05.08-.55.49-.68,1.05-.51,0-.6.47-.8,1.11-.67.09-.72.67-1.44,1.48-1.02.16-.7,1.27-.79,1.67-.27.12-.21.45-.53.76-.3.14-.24.5-.57.7-.16.13-.13.19-.33.35-.43.4,0,.61.19.84.35.19-.21.31-.48.78-.4-.11-.14-.4-.57-.22-.92.38.05.57.28.86.4.06-.24.03-.57.22-.67.21.03.28.19.35.35.16-.32.97-.82.97-.03.25-.11.61-.09.73.14.25-.23.88-.27,1,.11.56-.38,1.33-.03,1.32.65.39.06.78.12,1.05.3.15-.13.44-.35.67-.16.14-.2.21-.46.4-.59.23.05.29.27.3.54.23-.28.98-.38.94.21.18,0,.49-.1.62.14.39-.45,1.42-.21,1.02.54.12.16.34.23.35.51.28.03.46.15.67.24.02-.36.54-.77.65-.21.23-.32.81-.23.62.32.35-.06.96-.02.89.51.34-.11.75.14.59.59.19-.02.68-.09.76.16.01.13-.01.22-.05.3.44.01.73.31.67.73h.27c.26.24.55.46.73.78-.26.22-.63.22-1.08.19-.35-.02-.69-.21-1.02-.19-.38.02-.75.26-1.05.3-.56.06-1.06-.15-1.59-.19-.42-.03-.82.11-1.21.13-.68.04-1.29-.08-1.89-.03-.12.02-.06-.14-.13-.16-.25.01-.32.2-.54.24-.09-.21-.04-.57-.05-.86-.39.18-.52.63-.76.97-.25-.18-.33-.51-.54-.73.05.19.12.43.05.65-.14.07-.3-.04-.43-.05-.63-.07-1.21.42-1.89.35-.15-.02-.3-.12-.46-.13-.59-.08-1.13.18-1.75.21-.32.02-.61-.12-.94-.16-.58-.06-1.1.09-1.62.22-.14-.26.08-.55.14-.78-.3.04-.47.43-.78.54.03-.45.12-.84.24-1.19-.17.09-.37.24-.51.43-.19.25-.2.6-.38.86-.26-.3-.5-.61-.81-.86l-.05-.03" fill="#231f20"/>
      <path d="M49.15,51.43c-.15-.11-.14-.39-.35-.43-.09.27-.04.48-.08.73-.36-.1-.54-.38-.92-.46-.09.53.3.58.41.92-.13.09-.45-.11-.7,0-.13.14-.17.37-.35.46-.17-.24-.44-.39-.78-.46-.21.13-.23.4-.38.54-.15-.06-.17-.24-.32-.3-.22.09-.24.39-.46.48-.06-.04-.03-.19-.14-.19-.31,0-.36.25-.51.4-.21-.12-.4-.31-.67-.35-.66-.09-.81.29-1,.67-.65-.61-1.54.22-1.35,1-.31-.09-.88-.15-1.08.08-.06.17-.04.45-.05.59-.28-.03-.48-.15-.81-.13-.23.11-.24.5-.32.67-.2-.11-.35-.29-.59-.24-.19.03-.23.28-.4.24.03-.2.01-.29-.05-.43-.3-.05-.32.17-.49.24-.1-.07.05-.37-.14-.4-.24.08-.17.48-.27.62-.3-.13-.4-.46-.78-.51-.12.4.03.76.13,1.13-.4-.22-.54.16-.65.4-.2-.26-.87-.29-1.16-.08-.07.09-.09.24-.19.3-.53-.28-1.31-.04-1.27.59-.54-.08-1.12-.02-1.21.43-.23-.05-.53,0-.7.08.89.17,1.8-.1,2.75-.16.55-.04,1.11-.04,1.67-.08.36-.02.83-.03,1.11-.03,1.21,0,2.37.31,3.53.35,1.86.07,3.14-.52,4.91-.49-.06-.24-.12-.46-.21-.67-.14-.3-.42-.54-.43-.86.49.32.83.79,1.27,1.16.08-.29.24-.55.43-.75.19-.2.43-.45.65-.51.06.41-.22.7-.22,1.13.22-.07.5-.45.81-.43.02.26-.21.5-.24.81.38-.03.69-.16,1.08-.16.36,0,.7.12,1.08.16.63.07,1.27-.23,1.89-.22.21,0,.41.11.62.13.79.09,1.39-.56,2.18-.3.04-.48-.25-.89-.19-1.21.38.28.42.9.78,1.19.24-.36.46-.75.86-.94.15.28.02.62.08.86.1-.01.28-.19.51-.16l.14.16c.41-.03.76.04,1.13.05.71.03,1.42-.2,2.05-.13.54.06.97.24,1.43.19.31-.03.59-.24.94-.3.62-.09,1.5.44,2,.08-.17-.1-.32-.51-.57-.57-.18-.04-.29.09-.46.08.31-.47-.12-.92-.62-.81-.06-.12.11-.22.11-.38-.2-.32-.61.03-.84,0,.06-.17.15-.49.03-.67-.28-.17-.39.12-.62.16-.02-.17.11-.25.08-.43-.05-.31-.46-.35-.78-.24-.08.04-.09.16-.24.13-.03-.18.31-.45.08-.67-.28-.02-.29.24-.43.35-.15-.08-.06-.4-.27-.43-.2.07-.18.36-.27.54-.28-.02-.61-.43-.97-.22.12-.37-.11-.53-.35-.62.12-.26.16-.63-.05-.73-.3-.13-.65.22-.84.35-.02-.11-.05-.21-.11-.27-.33-.14-.51.17-.67.19.07-.28.14-.73-.32-.65-.24.04-.3.4-.51.43-.06-.21.01-.55-.14-.67-.22.11-.27.4-.32.67-.26-.24-.63-.24-.73.11-.26-.27-.89-.39-1.27-.3.04-.47-.21-.76-.48-.86-.27-.1-.53.09-.78.24-.05-.31-.32-.48-.62-.38-.16.06-.17.28-.32.32l-.08-.24c-.22-.23-.6-.04-.75.11-.08-.15.07-.4-.05-.54-.4-.17-.57.32-.78.51" fill="#458e34"/>
      <path d="M49.15,51.43c.21-.19.38-.69.78-.51.12.13-.02.39.05.54.16-.15.54-.34.75-.11l.08.24c.15-.05.16-.27.32-.32.3-.11.57.07.62.38.25-.15.51-.34.78-.24.28.1.53.4.48.86.38-.09,1,.03,1.27.3.1-.35.47-.35.73-.11.05-.28.1-.56.32-.67.15.12.08.46.14.67.21-.03.27-.39.51-.43.46-.08.4.37.32.65.16-.02.34-.33.67-.19.06.06.09.17.11.27.19-.13.54-.48.84-.35.21.1.18.47.05.73.24.09.47.26.35.62.36-.22.69.2.97.22.09-.18.07-.47.27-.54.21.03.12.35.27.43.15-.11.15-.37.43-.35.23.22-.11.49-.08.67.16.03.16-.09.24-.13.33-.1.73-.07.78.24.03.18-.1.26-.08.43.23-.04.34-.33.62-.16.12.18.03.5-.03.67.23.03.63-.32.84,0,0,.15-.16.26-.11.38.5-.11.93.34.62.81.17,0,.27-.12.46-.08.24.05.39.46.57.57-.5.36-1.37-.17-2-.08-.14.02-.27.07-.39.11v-.11c-.03-.31-.43-.37-.76-.28-.08.04-.1.16-.25.12-.02-.18.33-.43.12-.67-.28-.04-.3.22-.45.33-.15-.09-.04-.41-.25-.44-.2.06-.2.34-.3.52-.28-.03-.59-.46-.96-.27.13-.36-.08-.54-.32-.64.14-.25.19-.62-.02-.73-.3-.15-.66.18-.85.31-.02-.11-.04-.21-.09-.27-.32-.16-.52.14-.68.15.09-.27.18-.71-.29-.66-.24.03-.32.39-.53.4-.05-.21.04-.55-.1-.68-.23.1-.29.38-.36.66-.24-.26-.62-.28-.73.07-.25-.28-.87-.43-1.25-.36.07-.46-.17-.77-.44-.89-.27-.11-.54.06-.79.2-.03-.31-.29-.5-.6-.41-.17.05-.18.27-.34.31l-.07-.25c-.21-.24-.6-.07-.76.07-.07-.16.09-.4-.03-.54-.39-.19-.59.29-.81.47-.14-.12-.12-.39-.33-.45-.11.26-.06.47-.12.72-.35-.12-.52-.4-.89-.51-.12.53.27.6.36.94-.14.08-.44-.13-.7-.04-.13.14-.19.36-.37.44-.16-.25-.42-.41-.76-.5-.22.12-.25.39-.41.52-.15-.07-.16-.25-.31-.31-.23.08-.26.38-.48.46-.06-.05-.02-.19-.12-.2-.31-.02-.37.23-.53.38-.2-.13-.38-.33-.65-.39-.65-.13-.82.25-1.03.62-.61-.64-1.55.14-1.4.93-.31-.11-.87-.2-1.08.02-.07.17-.07.45-.08.59-.28-.05-.47-.18-.8-.18-.24.09-.26.49-.36.66-.19-.12-.33-.3-.58-.27-.19.02-.24.27-.42.22.04-.19.03-.28-.03-.43-.29-.07-.32.15-.5.22-.1-.08.07-.37-.11-.41-.24.06-.2.47-.3.6-.3-.14-.38-.48-.76-.55-.14.4,0,.76.08,1.14-.31-.19-.47,0-.59.21h-.27c-.28-.13-.73-.13-.97.01l-.03.04c-.34.01-.68.03-1.01.05-.95.06-1.86.33-2.75.16.17-.09.47-.13.7-.08.09-.45.68-.51,1.21-.43-.04-.63.74-.87,1.27-.59.1-.06.11-.21.19-.3.29-.2.96-.18,1.16.08.1-.24.24-.62.65-.4-.1-.37-.25-.73-.13-1.13.38.05.48.38.78.51.1-.14.03-.55.27-.62.19.04.03.33.14.4.17-.07.19-.3.49-.24.07.15.08.24.05.43.18.04.21-.21.4-.24.25-.04.39.14.59.24.09-.17.09-.57.32-.67.33-.02.53.1.81.13,0-.15,0-.42.05-.59.2-.24.77-.18,1.08-.08-.2-.78.7-1.61,1.35-1,.19-.38.34-.77,1-.67.27.04.47.23.67.35.15-.15.21-.41.51-.4.11,0,.07.15.14.19.22-.09.24-.39.46-.48.15.05.17.24.32.3.15-.13.17-.41.38-.54.35.07.61.22.78.46.18-.09.22-.32.35-.46.25-.11.57.09.7,0-.11-.33-.5-.38-.41-.92.38.08.56.36.92.46.04-.25-.01-.46.08-.73.22.05.21.32.35.43" fill="#58ab40"/>
      <path d="M-49.24,57.65L3.1,50.57l5.92,1.38c-21.22,3.24-58.96,8.89-58.96,8.89l-.3.31-.9,3.14L14.29,53.19l5.89,1.38-72.96,15.47-2.39,8.35L24.85,55.65l7.44,1.74-89.56,28.35,2.1-7.35-1.35.38,3.16-8.62.58-.12,1.64-5.74-2.6.44,3.5-3.59,1-3.5" fill="#58ab40" fill-rule="evenodd"/>
      <polygon points="-46.71 54.19 1.44 50.21 33.25 57.21 -50.51 83.85 -50.56 82.84 30.97 57.36 1.42 50.59 -46.67 54.57 -46.71 54.19" fill="#fff"/>
      <polygon points="9.23 52.13 5.67 52.96 12.95 55.34 17.85 53.9 18.32 54.29 13.31 55.77 4.28 52.9 8.59 51.99 9.23 52.13" fill="#fff"/>
      <polygon points="5.24 51.56 -2.03 52.53 14.44 58.15 23.35 55.4 24.08 55.53 14.55 58.77 -3.45 52.49 5.28 51.19 5.24 51.56" fill="#fff"/>
    </g>
    <g clip-path="url(#clippath-42)">
      <path d="M20.97,53.42v.66s.9-.27.9-.27c-.3-.13-.6-.26-.9-.39M16.66,46.3l-8.99.14c.05,1.68.11,4.63.11,4.63l5.16-1.48,1.58.33,6.44-.53-2.92-.8-.12-.09-1.25-2.18" fill="#a5d062"/>
      <path d="M12.01,44.5h-4.23c-.19.25-.17.58-.15.8,0,.09.02.53.04,1.13l8.99-.14-.72-1.25c-.74-.1-2.36-.34-3.93-.55" fill="#8aba5b"/>
      <path d="M20.95,49.38l-6.44.53,6.5,1.35-.04,2.16c.3.13.6.26.9.39l3.42-1.02s-.39-1.22-.88-2.45l-3.46-.95" fill="#8aba5b"/>
      <path d="M10.41,44.31h-2.4c-.1.06-.18.12-.23.2h4.23c-.55-.07-1.1-.14-1.59-.2" fill="#628941"/>
      <path d="M8.66,44.17c-.13,0-.23,0-.29.02-.14.03-.25.07-.35.12h2.4c-.74-.08-1.38-.14-1.76-.14" fill="#7fb489"/>
      <path d="M16.44,45.13l1.77,3.09,6,1.65c-.15-.36-.31-.71-.46-1.02l-5.21-1.31-.07-.06-1.29-2.22c-.26-.05-.51-.1-.74-.14" fill="#e2eec1"/>
      <path d="M15.94,45.05l.72,1.25,1.26,2.18.12.09,2.92.8,3.46.95c-.06-.16-.12-.31-.19-.47l-6-1.65-1.78-3.09c-.13-.02-.25-.04-.36-.05-.04,0-.09-.01-.14-.02" fill="#838c74"/>
    </g>
    <g clip-path="url(#clippath-43)">
      <rect x="17.49" y="45.33" width="6.13" height="3.23" fill="url(#linear-gradient-17)"/>
    </g>
    <g clip-path="url(#clippath-44)">
      <path d="M20.58,46.19c.36.64.72,1.27,1.07,1.89l.54.13c-.31-.55-.63-1.12-.96-1.69-.24-.13-.47-.25-.65-.33" fill="#e2eec1"/>
      <path d="M17.18,45.27l1.29,2.22.07.06,5.21,1.3c-.05-.1-.1-.19-.14-.28l-1.43-.36-.54-.13-3-.75-1.16-1.99c-.1-.02-.21-.04-.31-.07" fill="#838c74"/>
    </g>
    <g clip-path="url(#clippath-45)">
      <path d="M20.41,45.63s1.86,1.16,2.72,1.76c.84.59,2.03,3.9,2.39,4.99.14.42-.49.63-.63.21,0,0-.35-1.05-.81-2.17-1.12-2.75-1.15-2.4-3.57-4.01-.37-.24-.47-1.03-.11-.79" fill="#c4e0e7"/>
      <path d="M20.41,45.63s1.86,1.16,2.72,1.76c.84.59,2.03,3.9,2.39,4.99.14.42-.49.63-.63.21,0,0-.35-1.05-.81-2.17-1.12-2.75-1.15-2.4-3.57-4.01-.37-.24-.47-1.03-.11-.79Z" fill="none" stroke="#231f20" stroke-miterlimit="3.86" stroke-width=".19"/>
      <path d="M9.01,43.77s1.17.78,1.89,1.28c.71.5,1.71,3.28,2.01,4.2.12.35-.41.53-.53.18,0,0-.3-.88-.68-1.82-.94-2.31-.96-2.02-3.01-3.37-.31-.21,0-.67.31-.47" fill="#c4e0e7"/>
      <path d="M9.01,43.77s1.17.78,1.89,1.28c.71.5,1.71,3.28,2.01,4.2.12.35-.41.53-.53.18,0,0-.3-.88-.68-1.82-.94-2.31-.96-2.02-3.01-3.37-.31-.21,0-.67.31-.47Z" fill="none" stroke="#231f20" stroke-miterlimit="3.86" stroke-width=".19"/>
      <path d="M7.1,50.76l-.05-5.42s-.1-1.82,1.16-1.93c.96-.09,9.54,1.61,11.76,2.07,0,0,.11.03.25.1.7.37,1.05,1.13,1.1,1.9.09,1.32.1,6.2.1,6.2,0,.62-.94.63-.94,0,0,0,0-4.83-.1-6.14-.03-.43-.2-.93-.6-1.14-.39-.1-2.79-.59-5.32-1.08-2.79-.54-5.4-1.03-5.98-.99-.5.04-.5.91-.5.91l.05,5.51c0,.62-.93.63-.93,0" fill="#fff"/>
      <path d="M7.1,50.76l-.05-5.42s-.1-1.82,1.16-1.93c.96-.09,9.54,1.61,11.76,2.07,0,0,.11.03.25.1.7.37,1.05,1.13,1.1,1.9.09,1.32.1,6.2.1,6.2,0,.62-.94.63-.94,0,0,0,0-4.83-.1-6.14-.03-.43-.2-.93-.6-1.14-.39-.1-2.79-.59-5.32-1.08-2.79-.54-5.4-1.03-5.98-.99-.5.04-.5.91-.5.91l.05,5.51c0,.62-.93.63-.93,0Z" fill="none" stroke="#231f20" stroke-miterlimit="3.86" stroke-width=".28"/>
    </g>
  </g>
</svg>