<?xml version="1.0" encoding="UTF-8"?>
<svg id="Layer_2" data-name="Layer 2" xmlns="http://www.w3.org/2000/svg" width="218.46" height="131.07" xmlns:xlink="http://www.w3.org/1999/xlink" viewBox="0 0 218.46 131.07">
  <defs>
    <clipPath id="clippath">
      <rect width="218.46" height="131.07" fill="none"/>
    </clipPath>
    <clipPath id="clippath-1">
      <rect x="-8.32" y="-15.19" width="247.23" height="123.45" fill="none"/>
    </clipPath>
    <linearGradient id="linear-gradient" x1="-943.93" y1="230.81" x2="-942.07" y2="230.81" gradientTransform="translate(15432.46 -62532.66) rotate(-90) scale(66.36 -66.36)" gradientUnits="userSpaceOnUse">
      <stop offset="0" stop-color="#fff"/>
      <stop offset="1" stop-color="#74ccd6"/>
    </linearGradient>
    <clipPath id="clippath-2">
      <path d="M-7.27,95.64v80.36c10.11.2,23.16-.19,39.72-1.74,52.95-4.96,100.97-2.64,123.85,0,22.89,2.64,39.49.99,72.25-1.32,3.55-.25,7-.43,10.36-.56v-76.74H-7.27Z" fill="none"/>
    </clipPath>
    <linearGradient id="linear-gradient-2" x1="-336.01" y1="235.73" x2="-334.17" y2="235.73" gradientTransform="translate(10416.54 -14506.64) rotate(-90) scale(43.7 -43.7)" gradientUnits="userSpaceOnUse">
      <stop offset="0" stop-color="#8ed0c6"/>
      <stop offset=".13" stop-color="#85cac5"/>
      <stop offset=".34" stop-color="#6dbdc5"/>
      <stop offset=".6" stop-color="#47a6c5"/>
      <stop offset=".91" stop-color="#1187c4"/>
      <stop offset="1" stop-color="#007dc4"/>
    </linearGradient>
    <clipPath id="clippath-3">
      <path d="M-7.04,175.42v.78c7.43.15,16.43-.04,27.22-.82-4.39-.1-8.62-.14-12.73-.14-4.97,0-9.77.06-14.49.18M220.51,169.11c-14.47.36-22.37,1.05-36.99,1.62-19.08.76-34.65,1.33-49.59,1.54,8.9.57,16.47,1.29,22.37,2.04l.64.08c8.35-.23,17.24-.55,27.05-.95,14.71-.58,22.68-1.24,37.24-1.6,6.16-.16,12.03-.23,17.67-.24v-2.73c-5.87,0-11.98.08-18.4.25M155.28,163.92c-15.87.77-24.86.99-40.83,1.57-41.78,1.57-66.1,3.33-106.9,2.77-5.36-.07-10.15-.22-14.6-.41v4.55c21.22-.82,40.78-1.06,63.74-.08,8.13-.5,16.06-.83,23.7-1.01-3.05-.15-6.19-.32-9.42-.5l-4.27-.23c14.31-.56,29.15-1.28,47.14-1.97,16.35-.61,25.44-.78,41.7-1.58,32.91-1.35,52.86-2.03,83.37.13v-3.15c-13.98-.96-25.73-1.34-37.55-1.34-14,0-28.09.53-46.08,1.26M-7.04,154.72v2.81c7.83-.05,16.04-.03,24.92.11,28.02.4,42.04,2.73,71.13,2.32,39.17-.59,61.37-3.05,99.58-2.65,19.69.2,33.92,1.3,49.89,1.96l-1.92.05c-17.29,1.37-27.65,1.33-45.6,1.79-21.77.58-38.19.41-55.04.24-14.37-.14-29.06-.29-47.64.03-36.97.62-62.98,2.79-95.33,3.88,32.29-.92,58.31-3.07,95.23-3.7,19.19-.33,34.15.13,48.9.59,16.41.51,32.58,1.02,54.07.44,18.37-.47,28.69-.23,46.39-1.65l1.35-.04v-3.95c-16-.68-30.18-1.84-49.86-2.04-37.9-.39-59.81,1.69-98.58,2.27-28.39.4-41.95-1.94-69.29-2.34-7.37-.11-14.25-.16-20.82-.16-2.51,0-4.97,0-7.4.02M142.34,144.12c-42.7-2.54-70.46-1.38-117.26,1.16-12.7.69-21.78,1.17-32.12,1.66v.28c10.29-.51,19.37-1.02,32-1.71,46.27-2.51,72.39-1.64,115.11.94,3.85.23,7.59.39,11.23.5-13.37.94-26.54,1.82-43.4,1.56-18.16-.28-28.26-.68-46.85-.32-15.25.32-23.63.36-39.31,1.01-1.32.04-2.26-.04-3.2-.12-.94-.08-1.88-.16-3.2-.12-2.58.08-3.6,1.3-1,1.22,2.71-.08,4.58-.73,7.28-.82,15.68-.65,23.95-.53,39.21-.85,18.59-.36,27.92.93,46.18,1.22,31.74.49,50.17-1.94,81.81-2.5,17.51-.31,27.07.84,44.82,1.75l3.89.19c-4.6-.11-9.49-.14-15.1-.03-15.82.29-24.48.92-40.47,1.46-40.12,1.37-62-.09-100.74-1.24-32.98-.97-55.04,1.43-88.25,1.63v.54c32.83-.21,54.66-2.36,87.47-1.4,39.22,1.16,60.98,3.4,101.79,1.99,16.02-.54,24.8-.9,40.69-1.19,5.97-.11,11.14,0,16.01.24v-4.75c-1.41-.06-2.86-.13-4.36-.2-10.17-.52-17.75-.92-25.6-1.13,9.44-.54,19.15-1.01,29.96-1.1v-1.71c-34.85.22-59.1,4.06-96.57,1.84M215.21,141.97c-3.22.11-5.05.23-8.29.3-8.28.6-12.75.79-21.04.79-3.18,0-4.83-.43-8.01-.43-2.49,0-2.71,1.17-.21,1.17,3.23,0,4.98-.59,8.19-.59,8.37,0,12.85-.04,21.21-.64,3.25-.07,5.02-.19,8.27-.3,8.77-.33,16.4-.63,23.57-.85v-.33c-7.2.24-14.86.56-23.7.89M45.32,137.84c-16.33.93-30.11,1.56-45.14,1.62,17.19-.82,31.46-1.38,45.14-1.62M70.79,138l2.48-.18c4.98.08,10.11.21,15.49.39-5.63-.09-11.53-.17-17.96-.2M137.41,137.38c-11.66-.23-18.28-.71-29.18-1.17l6.93-.3c16.33-.4,24.86-.14,40.61,1.02,1.56.21,3.03.41,4.44.58-3.12.06-6.16.1-9.34.1-4.11,0-8.45-.07-13.46-.24M115.5,134.21c-11.22.47-17.37.75-28.6,1.09l-1.49.07c-30.34-.83-54.01-.13-91.59,1.72l-.87.05v4.28c22.88.06,42.28-1.21,70.16-2.9,2.1-.12,3.98-.25,5.74-.37,18.53.11,32.56.78,47.71,1.25,5.81.29,11.29.54,18.87.69,16.25.56,25.53-.01,42.05-.42,5.17-.13,10.1-.3,14.85-.48,8.57.13,15.92-.13,23.15-.53,2.13.06,4.33.14,6.61.24,6.78.27,10.85,1.12,16.81,1.46v-1.71c-4.08-.17-7.31-.48-11.17-.75,3.56-.23,7.24-.45,11.17-.63v-2.44c-18.16.56-36.42,1.56-59.5,2.17-7.7-.19-13.53-.81-21.16-1.83-11.33-.82-19.4-1.17-28.94-1.17-4.18,0-8.65.07-13.8.19M234.74,124.56c1.23-.01,2.64-.02,4.17,0v-.18c-2.93.11-4.93.2-4.17.19M20.13,133.26l1.95-.03-3.93.08,1.98-.05ZM168.87,132.43c7.37.13,14.38.35,21.43.57-7.94-.03-14.91-.26-21.43-.57M50.37,133.56c-3.15-.06-5.89-.15-8.44-.26,28.08-.94,45.87-2.27,74.43-2.27,6.14,0,11.63.14,16.75.37-3.74.15-6.55.26-10.95.5-22.54,1.1-37.35,1.81-56.13,1.81-4.89,0-10.04-.05-15.67-.15M124.44,127.51c-4.16-.2-7.97-.29-11.6-.31,11.87-.27,24.32-.37,38.55.08,12.2.37,18.13,1.48,30.48,1.94,3.26.13,6.32.23,9.24.28-6.32.19-13.07.37-20.6.5-1.4.03-2.74.04-4.03.04-16.28,0-25.24-1.73-42.04-2.53M7.64,123.2c-5.58.19-10.21.38-14.68.55v2.25c3.84-.15,7.89-.32,12.59-.48,29.25-1.06,46.66-2.6,73.89-2.08,16.87.33,26.86,1.78,40.87,2.45-26.77.62-50.44,2.56-80.78,1.22-17.31-.76-31.48-.99-46.56-.72v.42c14.62-.13,28.43.22,45.44.98,17.62.78,33.06.56,48.14.15-4.66.19-9.61.39-15.16.51-23.36.53-37.15,1.48-59.76,1.17-6.95-.09-13.02-.25-18.66-.43v1.91c4.78.21,9.96.37,15.83.45,23.23.33,37.4-.65,61.41-1.2,20.53-.47,32.8-1.95,52.18-1.01,9.42.45,16.47,1.16,23.65,1.73l-1.03.02c-8.42-.46-17.32-.82-28.18-.82-30.74,0-49.09,1.71-81.22,2.63l-1.98.06c-3.84-.15-7.88-.23-13.09-.11-6.3.14-11.48.39-16.6.69-3.84.04-7.49.06-10.98.07v.96c2.22-.12,4.33-.24,6.4-.36,3.58-.02,7.32-.06,11.28-.12,8.86-.13,14.06-.25,22.51-.49,4.9.33,9.46.79,16.11.9,27.75.52,44,.15,72.99-1.27,5.45-.3,8.38-.39,13.77-.63,4.39-.12,8.56-.2,12.56-.24,13.28.97,25.96,2.14,43.69,2.14,3.89,0,6.06.07,9.95.07,14.06,0,25.68-.36,36.69-.77v-2.04c-19.17.39-34.65.01-50.14-.33,17.65-.6,31.72-1.38,50.14-1.3v-1.51c-1.99-.01-3.93-.02-5.83-.02l5.83-.24v-1.91c-21.67.81-33.89,2-55.96,1.12-8.95-.34-14.69-.83-21.86-1.21,31.01-.19,52.85-2.05,77.82-3.38v-1.88c-26.19,1.2-48.82,2.9-82.08,2.9-8.21,0-12.74-.12-20.94-.12-22.24,0-32.33-2.3-53.84-2.73-3.79-.07-7.38-.1-10.85-.1-21.66,0-38.17,1.26-63.56,2.17M177.06,115.03c-11.58.42-18.15.53-29.78.85-30.34.84-47.77,1.78-77.66,1.48-20.77-.19-30.64-1.63-51.97-1.21-9.07.19-17.09.44-24.69.73v1.64c7.06-.26,14.52-.49,22.85-.66,17.69-.36,27.45.58,42.13,1.02-11.42.44-23.6,1.02-37.96,1.54-10.4.38-19.02.41-27.02.34v.49c7.82.13,16.29.13,26.55-.24,38.01-1.39,60.19-2.66,95.47-1.18,32.07,1.33,50.72,1.23,83.69.27,10.63-.3,16.39-.65,26.95-.84,4.64-.09,9.05-.13,13.28-.13v-1.44c-4.41,0-9.01.04-13.85.13-10.54.19-16.27.56-26.87.86-32.16.93-50.48,1.33-81.84.04l-3.15-.13c10.32-.3,21.01-.67,34.04-1.04,11.86-.32,18.48-.42,30.28-.84,24.16-.73,38.79-1.1,61.39.09v-1.69c-10.48-.54-19.24-.75-28.05-.75-10.28,0-20.62.29-33.79.68M-5.9,110.56h-1.15v1.79c31.23-.04,50.66-1.11,81.72-.75,20.85.22,31.68,1.5,53.09,1.27,28.86-.33,45.05-1.67,73.41-1.45,14.61.11,25.17.71,36.99,1.07l-1.42.03c-12.75.75-20.4.73-33.62.98-15.99.32-28.12.23-40.56.13-10.61-.08-21.45-.15-35.11.02-34.69.43-55.5,2.22-90.39,2.22-4.67-.13-6.8-.42-11.62-.42-2.11,0-3.24-.12-5.35-.12-.6,0-.92.23-.32.23h5.54c4.81-.01,6.95.28,11.61.41,34.92,0,55.78-1.79,90.5-2.22,14.12-.18,25.19.07,36.11.32,12.13.28,24.08.55,39.82.24,13.5-.26,21.11-.12,34.13-.9l1.43-.03v-2.13c-12.06-.37-22.69-1.03-37.52-1.14-28.23-.22-44.31.93-72.99,1.25-20.98.22-31.51-1.07-51.93-1.28-5.55-.06-10.7-.09-15.62-.09-22.89,0-40.46.57-66.75.57M165.5,104.03c-32.68-1.46-53.52-.79-88.37.66-14.34.6-22.44.91-37.12,1.41-4.3.16-6.87.34-10.97.34-1.32,0-2.34.14-3.66.14-1.05,0-1.53-.07-2.62-.04-.9.02-1.24.34-.34.32,1.08-.02,1.79-.18,2.83-.18,1.31,0,2.23-.05,3.53-.05,4.14,0,6.74-.18,11.1-.34,14.72-.5,22.84-.86,37.21-1.46,34.44-1.44,54.36-.93,86.94.53,2.92.13,5.75.22,8.51.28-9.96.53-19.75,1.03-32.45.88-13.69-.16-21.34-.38-35.25-.18-11.39.18-17.67.21-29.3.57-.98.02-1.71-.02-2.43-.07-.72-.05-1.44-.09-2.43-.07-1.92.05-2.38.74-.45.69,2.01-.05,3.26-.41,5.26-.46,11.62-.36,17.85-.3,29.25-.48,13.9-.2,21.13.53,34.85.69,23.86.27,37.45-1.1,61.2-1.41,13.17-.18,20.39.47,33.74.99l2.92.11c-3.45-.06-7.13-.08-11.34-.02-11.86.16-18.33.52-30.28.82-29.9.77-46.44-.05-75.64-.69-26.04-.57-42.33.92-69.07.92-12.31,0-19.46.1-31.78.1-2.39,0-3.46-.21-5.84-.21-1.39,0-2.17.51-.77.51,2.4,0,4.09-.21,6.48-.21,12.33,0,19.21.1,31.55.1,26.73,0,42.93-1.36,68.98-.79,29.54.65,46.05,1.9,76.39,1.12,11.94-.31,18.5-.5,30.38-.67,4.65-.06,8.63,0,12.39.15v-2.68l-3.69-.13c-7.67-.29-13.4-.53-19.33-.64,7.23-.31,14.69-.59,23.02-.63v-.98c-26.6.1-44.81,2.33-73.4,1.06M220.54,102.8c-2.44.06-3.83.13-6.27.17-6.25.34-9.63.45-15.91.45-2.41,0-3.69-.25-6.09-.25-1.88,0-1.97.67-.08.67,2.44,0,3.72-.34,6.16-.34,6.33,0,9.72-.02,16.03-.37,2.46-.04,3.8-.11,6.26-.17,6.81-.19,12.71-.37,18.26-.49v-.2c-5.57.14-11.51.33-18.37.52M110.26,100.51c3.74-.21,6.97-.42,11.66-.57,8.69-.2,13.21-.37,21.89-.65,12.44-.24,19.01-.08,31.18.6,4.16.42,7.49.73,11,.92-3.6.1-7.43.18-11.62.22-3.98.04-7.7.06-11.23.06-19.11,0-32.77-.49-52.88-.57M143.84,98.29c-8.54.28-13.21.44-21.75.64-6.91.22-10.78.54-17.63.85-26.11,1.22-41.82,1.99-66.77,1.34-17.23-.44-30.29-.22-44.73-.21v1.09c13.6-.02,26.23-.18,42.63.24,25.75.67,41.99-.17,68.91-1.45,1.58-.07,2.98-.15,4.31-.22,24.7.11,39.31,1.22,65.51.96,8.51-.08,15.48-.31,22.18-.49h.36c9.32.3,16.64.13,23.8-.17,1.62.03,3.3.08,5.04.14,5.32.16,8.44.68,13.2.86v-.99c-3.29-.1-5.85-.29-8.91-.45,2.83-.14,5.77-.27,8.91-.38v-1c-14.79.5-24.95,1.43-41.64.9-8.16,0-13.28-.37-20.55-1.11-8.76-.48-14.99-.69-22.3-.69-3.22,0-6.64.04-10.58.11M48.61,96.43c3.83.13,7.97.23,12.65.28,11.01.12,19.28-.05,28.27-.28h-40.92ZM166.01,96.43c-2.17.03-4.41.07-6.73.12-4.14.13-6.46.19-10.64.37-21.63.82-33.89,1.28-54.92.98-9.06-.12-13.77-.59-23.09-.43-10.58.18-16.83.7-27.73,1.04-19.41.6-29.26.22-47.78.22l-2.17.12h1.95c18.59,0,28.31.51,47.81-.1,10.88-.34,17.12-.85,27.7-1.02,9.3-.16,13.58.59,22.65.71,21.38.3,33.78.09,55.81-.75,4.15-.18,6.39-.24,10.5-.37,16.39-.35,29.15-.05,41.94.26,11.59.28,23.21.55,37.58.34v-1.1c-14.93.24-26.96.02-39.01-.2l6.8-.19h-40.69Z" fill="none"/>
    </clipPath>
    <linearGradient id="linear-gradient-3" x1="-336.11" y1="235.68" x2="-334.27" y2="235.68" gradientTransform="translate(10338.87 -14403.21) rotate(-90) scale(43.38 -43.38)" gradientUnits="userSpaceOnUse">
      <stop offset="0" stop-color="#addcd5"/>
      <stop offset=".25" stop-color="#aadad4"/>
      <stop offset=".41" stop-color="#a2d5d3"/>
      <stop offset=".54" stop-color="#93ced2"/>
      <stop offset=".65" stop-color="#7fc2d0"/>
      <stop offset=".75" stop-color="#64b4cd"/>
      <stop offset=".85" stop-color="#44a2ca"/>
      <stop offset=".94" stop-color="#1e8dc6"/>
      <stop offset="1" stop-color="#007dc4"/>
    </linearGradient>
  </defs>
  <g id="Layer_1-2" data-name="Layer 1">
    <g clip-path="url(#clippath)">
      <g clip-path="url(#clippath-1)">
        <rect x="-8.32" y="-15.19" width="247.23" height="123.45" fill="url(#linear-gradient)"/>
      </g>
      <path d="M-8.32,78.41c18.96.31,37.51,1.91,61.78,4.74,20.95,2.36,32.47,7.2,53.42,7.2,9.89,0,15.75-.52,25.64-2.02,42.2,0,67.85-12.77,106.39-12.84v48.98l-2.71.09c-30.22.85-47.37.51-77.59,1.36-66.52,1.91-111.32.63-166.93-.14" fill="#85ae65"/>
      <path d="M237.91,76.77h1s0,16.45,0,16.45c-10.09-1.04-16.74-2.57-17.77-4.75-2.38-5.05,6.27-8.93,16.77-11.7M-8.32,79.69c18.96.31,37.51,1.91,61.78,4.74,20.28,2.29,31.72,6.9,51.44,7.19-27.71,5.54-63.37,11.45-90.38,9.76-8.36-.52-15.99-1.17-22.85-1.91v-19.78Z" fill="#b6cd95"/>
      <path d="M-.92,37.56c.28.08.55.17.82.29.8-2.68,3.34-4.71,6.13-4.24,2.32.38,3.52,2.82,3.34,5.22,1.4-.29,2.53.3,2.59.87.08.73-.04,1.38-.32,1.95,2.11-.31,2.01.95,2.16,1.62,2.41-.72,5.31-.68,5.55,1.57.04.45-.07.82-.26,1.13.35.18.65.41.88.71,4.26-1.06,12.97,1.3,10.92,3.16-.95.89-2.89.98-4.46.54-.36.56-.86,1-1.43,1.17-.67.19-1.46.06-2.13-.27-.45.3-.91.51-1.51.64l-1.08.03c-.57-.11-1.12-.41-1.55-.81-.75.23-1.46.27-2.4.13-.36-.05-.69-.23-.96-.49-.82.3-1.82.36-2.7.21-.5.91-1.26,1.61-2.18,1.65-.36.48-.84.86-1.5,1.19-.47.22-.86.35-1.35.46-1.6.21-2.86.17-4.14-.81-.15-.12-.28-.26-.38-.42-1.08.35-2.11.21-3.06-.5-.35-.25-.38-.82-.26-1.41-.23.06-.47.1-.71.12" fill="#fff"/>
      <path d="M31.11,48.95c.15.3.09.61-.23.9-.96.89-2.89.97-4.46.54-.36.56-.86,1-1.43,1.17-.67.19-1.46.06-2.13-.28-.45.3-.91.52-1.52.64l-1.08.04c-.57-.11-1.12-.41-1.55-.81-.75.23-1.46.27-2.4.13-.36-.05-.69-.23-.96-.49-.82.3-1.82.36-2.7.21-.5.91-1.26,1.61-2.18,1.65-.36.48-.84.86-1.5,1.18-.47.22-.85.35-1.35.47-1.6.21-2.86.17-4.14-.81-.15-.12-.28-.26-.38-.42-1.08.35-2.11.2-3.06-.5-.35-.25-.38-.82-.26-1.41-.23.06-.47.1-.71.12v-6.66c.74,0,1.08.33,1.12.98v.32c.65.19,1.23.73,1.85.33.69-.46.21-1.36.8-1.9.77-.69,2.06-.87,3.18-.63,1.7-1.74,5.44.14,5.26,2.36-.03.4-.11.75-.24,1.07.33.08.67.19,1.05.33.62-.2,1.22-.33,1.86-.33.59,0,1.06.07,1.52.21.4-.61,1.05-1.09,1.74-1.15,1.62-.16,3.57.75,3.7,2.26.28.17.51.38.68.62.61.03,1.3.32,1.88.72,1.26-1.14,3.12-1.65,4.54-.91.95-.19,2.09-.16,3.11.04" fill="#cbe2e7"/>
      <path d="M139.17,22.26c-.17-1.18-.93-2-.6-3.23.09-.33.32-.51.66-.51.42,0,.74-.05,1.05-.11-.88-2.6-.87-5.13,1.09-7.2,2.23-2.41,6.58-1.47,8.83,1.04.61-.5,1.37-.78,2.29-.78,1.71-.05,3,.12,4.32.69,1.03-3.45,4.32-6.08,7.92-5.47,3,.49,4.54,3.65,4.32,6.73,1.81-.38,3.26.38,3.34,1.12.1.94-.05,1.78-.42,2.52,2.73-.39,2.6,1.22,2.79,2.09,3.11-.92,6.86-.88,7.16,2.03.05.58-.08,1.06-.33,1.46.45.23.83.53,1.13.92,5.49-1.36,16.75,1.68,14.09,4.08-1.23,1.15-3.73,1.26-5.76.7-.46.72-1.11,1.3-1.84,1.51-.86.24-1.88.07-2.75-.36-.58.39-1.17.67-1.95.83l-1.4.04c-.74-.14-1.45-.53-2-1.05-.97.3-1.88.35-3.1.17-.47-.07-.89-.3-1.24-.63-1.06.39-2.35.47-3.49.27-.65,1.17-1.62,2.08-2.82,2.14-.46.61-1.08,1.11-1.93,1.53-.61.29-1.1.46-1.74.6-2.07.27-3.7.22-5.34-1.04-.19-.15-.36-.34-.5-.55-1.39.45-2.72.27-3.95-.65-.45-.33-.49-1.06-.33-1.82-.92.22-1.94.25-2.6-.07-.91.71-1.84,1.08-3.11.87-.23-.04-.43-.13-.6-.27-1.31.64-2.9.73-4.42.27-.53-.16-.95-.44-1.28-.81-.92.4-1.91.46-2.85-.01-1.69,1.13-3.44,1.25-5.31.31-.6-.3-1.08-.71-1.44-1.21-.98.39-1.88.61-2.94.45-1.05-.16-3.25-.52-3.09-1.85.28-2.36,3.9-3.84,6.83-3.58,0-.22.91-2.18,3.3-1.17" fill="#fff"/>
      <path d="M197.11,26.48c.19.39.12.78-.3,1.16-1.24,1.15-3.73,1.26-5.76.7-.46.72-1.11,1.3-1.84,1.51-.86.25-1.88.07-2.75-.36-.58.39-1.17.67-1.96.83l-1.4.04c-.74-.14-1.45-.53-2-1.05-.97.3-1.88.35-3.1.17-.47-.07-.89-.3-1.24-.63-1.06.39-2.35.47-3.49.27-.65,1.17-1.62,2.07-2.82,2.14-.46.61-1.08,1.1-1.93,1.53-.61.29-1.1.46-1.74.6-2.07.27-3.69.22-5.34-1.04-.19-.15-.36-.34-.5-.55-1.4.45-2.72.26-3.95-.65-.45-.33-.49-1.06-.33-1.82-.92.22-1.94.25-2.6-.07-.91.7-1.84,1.08-3.12.87-.23-.04-.43-.13-.6-.27-1.31.64-2.9.73-4.42.27-.53-.16-.95-.44-1.28-.81-.92.4-1.91.46-2.85-.01-1.69,1.12-3.43,1.25-5.31.31-.6-.3-1.08-.71-1.44-1.21-.98.39-1.88.61-2.94.45-1.05-.16-3.25-.52-3.09-1.85.05-.4.19-.77.41-1.11,1.6-.33,3.04-.43,5.03-.08.52.12,1.08.47,1.53.91.16-.1.34-.19.54-.27,2-.91,3.53-.6,5.57-.5.16-.7.48-1.36.93-1.87-1.03-2.15,2.02-6.15,4.83-6.45,2.15-.23,5.28,1.49,6.59,3.25.43-.03.87-.01,1.4-.01.84,0,1.29.42,1.33,1.26v.42c.84.24,1.59.95,2.38.43.9-.59.27-1.76,1.03-2.45,1-.89,2.66-1.13,4.1-.81,2.19-2.25,7.02.19,6.8,3.05-.04.51-.15.97-.31,1.38.43.1.86.24,1.35.43.81-.26,1.57-.42,2.4-.42.77,0,1.37.09,1.96.27.52-.79,1.36-1.41,2.25-1.49,2.1-.21,4.61.97,4.77,2.91.36.22.66.49.88.81.79.04,1.68.41,2.43.93,1.63-1.47,4.04-2.13,5.86-1.17,1.23-.24,2.7-.2,4.01.06" fill="#cbe2e7"/>
      <g clip-path="url(#clippath-2)">
        <rect x="-7.27" y="95.64" width="246.18" height="81.27" fill="url(#linear-gradient-2)"/>
      </g>
      <g clip-path="url(#clippath-3)">
        <rect x="-7.04" y="96.43" width="245.95" height="79.93" fill="url(#linear-gradient-3)"/>
      </g>
      <path d="M88.77,107.04c-.91,1.78-3.29,1.87-4.49.27-.68.82-3.07,1.49-3.36.14-.8,1.02-3.87,1.43-4.11-.24-.42,1.19-5.25,2.49-4.81.02-1.15.74-4.16,1.06-4.45-.81-1.07.67-3.99-.15-3.54-1.8-1.11.54-3.01-.22-3.72-1.22-.85.76-3.45,2.19-3.8.19-.7.86-2.56,1.21-3.6.85-1.01-.35-.84-.6-1.85-.13-.51.24-4.74,1.22-3.69-.53-1.63.26-3.49.76-5.13.3-.8-.23-1.17-.75-1.82-1.16-.73-.46-1.58-.44-1.48-1.58.8-1.13,3.22-.64,3.64-2.16,1.11-.25,1.86-.19,3.1-.13.23-.18-.18-.86.13-1.21.31-.37,1.01-.33,1.48-.54-.25-.52-.87-.66-.67-1.62.72-.68,1.75-1.03,3.23-.94,0-.98.94-1.04,2.02-.94.2-1.33,1.48-1.66,2.69-1.62-.16-2.75,2.59-1.81,3.1-.27-.5-8.01-1.45-15.81-2.42-23.45-.6-4.65-.8-9.33-1.75-13.88,1.87-.88,3.85-2.44,6.33-1.21.15-.41-.09-1.02,0-1.75.65-.16,1.24-.37,1.88-.54,0-2.76-.34-5.36-.13-8.08,1.31-.97,3.56-1.61,5.52-1.48.45.59.47,1.6.67,2.43,2.98-.45,3.43,2.3,5.79,2.02-.43,1.07-1.58.65-2.69.54-2.35-.24-4.61,1.22-5.8.41-.4-.27-.34-1-.54-1.48-.99-.09-1.71.09-2.43.27-.18,1.43.09,3.41.13,5.12.57.32,1.77-.41,2.29-.13,1.11,1,.9,3.33,1.35,4.99,1.21-.34.24-2.25.54-3.23.55-1.79,3.61-2.52,6.2-1.89.4,3.11-.13,6.9.27,9.7,1.17,0,2.17-.29,3.02-.13l-2.93-25.58c2.13-5.13,3.79-10.62,5.02-16.05.98-4.33,1.53-7.59,1.53-7.59,0,0,2.44,9.83,8.26,19.65l-.2-3.72c1.6-1.3,2.27-3.52,5.26-3.1-.5-2.84,1.61-3.06,2.83-4.18.83.25,1.77.39,2.29.94.2-.78-.04-.93,0-2.16,1.14-.69,2.21-2.07,3.91-1.75,1.04-2.5-.76-6.28.67-8.09,1.15-1.46,5.1-1.39,7.55-.94,0,.68.23,1.12.14,1.89,2.73.42,3.16,3.84,5.93,3.77-1.29,1.48-4.26-.73-6.6-.54-1.06.08-1.59.73-2.7.27.1-.73-.21-1.04-.14-1.75-1.32-.25-2.72.48-3.77.94-.06,1.42-.14,2.92-.27,4.58.48.69,1.71.62,2.29,1.21-.04.76.24,1.2.13,2.02,1.72-1.38,3.97-.65,5.93.14-.01.69.36,1.56,0,2.16.81.15,1.81-.6,2.56-.95,1.21.18,1.78,1,2.96,1.21.2.43.07,1.19.27,1.62,1.78-1.14,3.67.45,5.39.94-.13,4.05-.45,7.9-.67,11.86,1.63.08,2.32,1.09,3.23,1.89.22-.41.15-1.11.54-1.35,2.8-.46,5.38.21,6.2,2.16.54-.48-.12-.91.4-1.48.74-.02,1.45-.01,2.02.14.7-1.97.83-4.24.81-6.06,1.22-.24,4.12-.97,4.99.4.34-.74,1.25-.9,2.29-.94.77-2.06.53-5.13,1.21-7.28,3.23-1.74,5.99.63,7.68,2.02-.04,1.17-.39,1.28-.81,2.16,1.7.65,2.43,2.94,4.72,2.56-2.26.61-5.95-.07-8.22-.94-.32-.77-.25-1.72,0-2.56-.97-.24-1.8-.62-3.1-.54-.43,1.37-.57,3.02-.81,4.58.36.41.67.05,1.35.13.27.22,0,1,.27,1.21.72-1.31,2.63-1.04,4.31-.67.04,1.53-1.7,18.74-2.05,18.78.96.2,1.97.55,1.92,1.57,1.27-1.78,3.47-.42,5.39,0-1.64,11.75-3.74,22.12-5.93,33.28.72.03,1.95-1.26,3.23-.67.63-.84,3.29-1.46,2.96.67,2.8-1.44,3.73,2.73,1.48,3.5,1.28.11,2.27.52,2.96,1.21.08.44-.09.63-.13.94.99-.11,3.72,1.48,1.89,2.56,1.45.64,1.63,3.46,0,4.04,1.63.61,2.11,3.36-.4,3.37.52,0-.72,1.77-.92,1.9-.89.56-2.11.59-3.07.23.21.94.11,2.18-.97,2.59-1.07.4-1.99-.65-2.56-1.39-.22,1.98-2.76,2.39-3.81.83.18,1.04-.61,1.54-1.55,1.5-.52-.02-.96-.17-1.35-.5-.25-.21-.67-.92-.45-1.28-.35.56-1.12,1.03-1.78,1.11-.29.03-.64-.02-.9-.17-.09-.05-.65-.54-.5-.67-.7.59-.89,1.26-1.87,1.61-1.19.43-.91.03-1.56-.66-.43.61-.7,1.56-1.54,1.77-1.13.28-1.22-.69-1.44-1.49-.68.29-2.28,1.39-2.92.51-.25-.34-.14-.96.03-1.31-1.34.21-1.73,2.42-3.33,1.99-.07.31.03.58-.1.9-.18.46-.67.81-1.18.79-.64-.02-1.21-.28-1.69-.69-.2-.16-.69-.48-.66-.77-.57.39-.97,1.19-1.79,1.05-.66-.12-1.37-1.26-.89-1.86-.32.33-.61.74-1.09.77-.37.03-.8-.08-1.1-.3-.2-.14-.37-.31-.58-.44,0,.38.14.71.09,1.1-.1.79-.88,1.03-1.59,1.14-.68.11-1.99,0-2.37-.68-.7.83-2.5.75-2.98-.31-.84.97-2.25.52-3-.25-.71.75-1.81.79-2.68.32-.59.52-1.94,1.8-2.68.69-.06.27-.02.58-.1.86-.16.58-.45,1.07-.98,1.38-.48.28-1.4.43-1.84,0-.41.69-1.34.93-2.09,1-.45.04-.71-.05-1.11-.22-.08-.03-1.06-.59-.97-.64-.68.33-1.45.29-2.14-.02-.56-.26-1.47-.87-1.35-1.61-.9.43-1.88.4-2.86.32-.77-.05-1.71-.22-2.09-.99-.18-.35.39-.81.52-1.09-.55.22-1.15.43-1.7.09-.46-.28-.56-.86-.47-1.34.02-.13.05-.28.13-.41"/>
      <path d="M135.04,59.36c-.35.86-.23,2.19-.81,2.83-.96-.39-1.74.39-2.7,0-.38-.83-.39-2.03-.54-3.1-1.1.2-1.79.82-2.56,1.35-.04,8.75-1.33,32.33-1.62,33.01.49.36.94.76.94,1.62,1.03,0,2.02.05,2.42.67.47-1.56,2.56-1.82,3.5-.54.57-3.05,2.71-2.21,3.23.14.48-.33.73-.88,1.48-.94,1.17-12.07,3.65-22.32,4.85-34.09-.57-.28-1.22-.49-2.16-.4-.41.85-.29,2.23-.81,2.97-1,.01-1.56-.37-2.16-.41-.3-.87-.06-2.28-.14-3.37-1-.23-2.12-.03-2.96.27" fill="#b6bbc1"/>
      <path d="M135.04,59.36c.26-.09.54-.17.83-.23-.34,4.09-2.73,33.16-2.48,33.65.26.52,2.7-.35,4.09-.18.55.07.89.15,1.09.23l-.16,1.57c-.75.06-1,.61-1.48.94-.53-2.35-2.67-3.18-3.23-.14-.95-1.28-3.03-1.02-3.5.54-.41-.63-1.39-.67-2.42-.67,0-.85-.45-1.26-.94-1.62.29-.68,1.58-24.26,1.62-33.01.77-.53,1.46-1.15,2.56-1.35.15,1.07.15,2.27.54,3.1.96.39,1.74-.39,2.7,0,.57-.64.45-1.97.81-2.83" fill="#9c9fa9"/>
      <path d="M117.52,64.61c-.61.83-.49,2.38-1.21,3.1-.65-.23-2.48.35-3.1-.27v-2.7c-1.26,0-2.58-.07-3.37.4-.52.83-.54,2.16-1.21,2.83-.86-.38-2.05-.24-3.1-.14-.36-.9.11-2.2-.14-2.96-.82-.1-1.22.21-2.02.13-.64,8.17-.51,19.26-1.35,27.35,1.07-.87,3.54-1.04,3.64.81.78-.63,2-.83,2.83-.14.33-1.15.94-2.02,2.02-2.42.96.18,1.08.12,2.02-.41,1.75-.99,3.04.04,2.7,2.43,1.52-.51,2.42.35,2.43,1.75.45-.08.69-.38,1.35-.27.57.19.81.72,1.22,1.08.47-.56.91-1.01,1.75-1.21.41-.1,1.01.11,1.35,0,.67-.23,1.52-1.7,2.83-.81.93-9.69,1.1-18.44,1.48-28.3-1.13-.27-1.93-.11-3.37-.14-.67.81-.37,2.6-1.21,3.24-1.3,0-2.05.49-3.1.13.04-1.01.33-2.42,0-3.37-.76-.37-1.71.09-2.43-.13" fill="#9c9fa9"/>
      <path d="M123.04,67.98c.82-.62.56-2.33,1.16-3.16-.06,6.16-.81,25.15-1.17,26.04-.44,1.04,1.04.01-.18-.6-1.22-.61-3.06-.39-3.76-.83-.7-.43-5.55.12-8.51.21-2.96.09-3.02.21-3.63.29-.45.07-.91-14.48-1.19-22.11.99-.1,2.06-.2,2.86.16.68-.67.69-2,1.21-2.83.79-.47,2.11-.41,3.37-.4v2.69c.62.62,2.45.04,3.1.27.72-.72.61-2.27,1.21-3.1.72.23,1.66-.23,2.42.13.34.95.04,2.36,0,3.37,1.05.36,1.8-.14,3.1-.14" fill="#b6bbc1"/>
      <path d="M76.64,60.36l-2.93-25.53c1.61-1.68,4.08-2.98,6.14-3.47,2.19-.52,4.92-.53,8.17.65.37,6.38.82,12.59,1.34,18.86-1.69.19-2.91.86-4.04,1.62-.03,2.7.71,3.9.81,6.33-1.42.1-2.81.25-3.1,1.48-1.02-1.48-5.12-1.33-5.93.4-.14-.14-.29-.26-.45-.34" fill="#828692"/>
      <path d="M74.04,33.8c2.68-6.67,4.6-13.75,5.76-20.83,1.04,4.78,2.97,9.29,4.72,12.7,1.39,2.73,2.67,4.76,3.27,5.68-6.89-2.32-11.55.52-13.75,2.45" fill="#91603e"/>
      <path d="M72.65,87.65c-1.1.6-.89,2.53-1.75,3.37-.4-.54-.88-1-1.75-1.08-.03.1-.11.16-.27.14-.33.61-.26,1.63-.94,1.89-.61-.82-1.2-1.67-2.42-1.89-.24.39-.19,1.07-.4,1.48-.39.04-.41-.31-.81-.27-.39.88.47,2.03-.27,2.56-.26-.5-.97-.56-1.75-.54-.51.25-.63.9-1.08,1.21-.25-1.01-.75-1.76-1.35-2.42-1.67-.42-1.49,1.02-2.43,1.35.02-1.37-.64-2.05-1.62-2.43-.94.9.92,1.79.13,2.56-.72-.58-2.38-1-3.1-.13-.08.8.74.69.81,1.35-.25.02-1.95-.53-2.83-.13-.03.48.41.49.4.94-.28.04-2.98-.1-3.77.4.26,1,1.57.95,2.02,1.75-.5.95-2.23-.15-2.97.54-.03.84.81.81.81,1.62-.31-.04-2.85-.29-4.18-.13-.1.41.23.4.14.81-.92.52-2.5.38-3.37.94.53,1.57,2.69.73,4.04.94-.06.61-.75.6-1.08.94,1.01.15,4.01.12,5.25-.13,0,.32-.23.4-.13.81,1.5.75,3.09-.42,4.18-.94.87,1.94,3.77.41,4.72-.4.27,2.64,3.35.88,4.04-.27.12,1.92,2.48,2.44,4.18,1.62-.84,2.1,1.78,2.66,2.96,1.62-.1.41.14.49.14.81.63.79,2.16,1.22,3.37.67.42-.21.34-.91,1.08-.81-.13.69-.11.94.14,1.48,1.77.73,3.38-.41,4.45-1.21.31-.27.09-1.08.81-.94-.04.87-.26,1.52.27,2.02,1.87.3,2.1-1.04,2.96-1.75.34.36-.08.71,0,1.21.81,1.15,2.78.29,3.23-.54.31.93,1.75,1.45,2.83.81.1-.8.69-1.1,1.08-1.62-1.87.38-3.43-1.05-2.29-2.43-2.17.15-5.12-.05-4.04-2.29-2.19.31-3.45-2.4-1.62-3.37-1.6-1.66.7-3.79,2.7-3.1-.06-1.45.95-1.84,2.02-2.16-1.2-.88-.28-2.99,1.35-2.7-.06-.74-.31-1.31-1.08-1.35-.47.6-.84,1.32-1.48,1.75-.44-1-.75-2.12-1.75-2.56-1.27.43-.91,2.5-2.02,3.1-.6-.26-.67-1.04-1.48-1.08-.73.75.51,1.89-.54,2.16-.69-.48-1.79-1.47-2.83-1.35-.64.07-.74.8-1.35.67.22-.93-.21-3.09-1.35-3.5" fill="#59b351"/>
      <path d="M151.74,85.9c.05.77-.23,1.21-.81,1.35-.24-.54.16-.88-.14-1.35-4.76-.18-2.92,6.24-4.72,9.03-.03.48.26,1.16,0,1.21-.82-1.22-2.69-1.55-3.5-.14-.33-.34-.26-1.09-.54-1.48-.76-.39-2.58-.82-2.7.27.2.33.84.24.81.81-.42-.15-.33.21-.54.27-.59-.22-.84-.77-1.75-.67-.39.47-.32,1.38-.94,1.62-.61-.23-1.18-3.16-1.89-3.1-1.28.12.04,2.68-.94,2.97-.8-.71-1.47-1.98-2.56-1.75-.93.19-.75,1.54-1.62,2.02-.28-1-1.12-1.28-2.29-1.08-.21.19-.11.7-.54.67-.48-.42-.12-1.07-.13-1.75-.33-.84-1.83-1.48-2.83-.81-.49.67.42,1.52-.67,1.75-.5-.09-.33-.84-.54-1.21-2.07-.28-2.16,1.44-3.23,2.16-.16-.74-.37-1.42-.81-1.89-1.49-.3-1.81,1.22-2.7,1.08.17-.89,1.24-2.09.14-2.7-.9,0-1.33.47-2.02.67.1-1.37.64-3.21-.54-3.5-1.26-.32-1.71,1.44-2.69,2.02-.2-.3-.09-.9-.4-1.08-1.42.19-1.25,1.98-2.02,2.83-.52-.47-.99-.99-2.16-.81-.53.33-.31,1.39-1.21,1.35,0-.85-.35-1.35-.54-2.02-1.12-.94-1.96.33-2.83.81-.64-.58-.65-1.78-1.75-1.89-.74.2-.63,1.25-1.48,1.35.18-2.2-1.33-3.14-2.83-1.89.48-1.17.71-3.01-.41-3.23-1.35-.27-1.24,1.59-2.29,2.02-.3-.42-.28-1.16-.81-1.35-1.41.31-1.35,1.98-2.29,2.43-.54-.9-1.07-1.8-1.75-2.56-.32.22-.9.18-1.08.54.28.41.6,1.21.14,1.62-1.1-.3-2.09.09-2.16,1.21.3.73,1.1.96,1.48,1.62-.55.27-1.42-.16-2.29,0-1.15.52-.06,2.03,0,2.42-.69.05-1.23-.72-2.16-.67-1.42.07-2.22,1.53-1.34,2.42.47.16,1.23.02,1.48.41-.53.75-2.24.07-2.16,1.48.1,1.67,2.99.76,4.18,1.48-.39.6-1.67.3-1.89,1.08.8,1.54,3.63.63,5.26,1.08-.2.7-1.21.59-1.48,1.21.12,1.63,2.83.68,3.64,1.62-.46.53-1.49.49-1.62,1.35.02.38.09.76,0,.94.71.85,1.94-.11,2.56,0,.04.58-.41.67-.27,1.35.67,1.15,3.54.84,4.31.4.21.28.09.9.27,1.21.6.52,1.44.8,2.69.67.35-.23.25-.92.94-.81.44.47.06.73,0,1.35,1.05.42,2.31.14,3.1-.41-.09-.72.08-1.18.54-1.35.07.38.2.7.27,1.08,1.24.04,1.81-.4,2.02-1.35.14-.63-.59-1.61.27-1.89.53,1.48,2.35.69,2.96-.27.73,1.03,2.13.25,2.69-.4.33.83,1.45,1.86,2.56,1.08.38-.3,0-1.35.67-1.35.4.19.24.93.27,1.48.95,1.02,1.97-.14,2.56-.67.1,1.33,2.38,1.81,3.23.81.17-.76-.28-1.6,0-2.02.13,0,.16-.11.27-.13.54.35.66.89,1.21.94,1.02.11,1.32-1.16,2.29-1.35-.15.95-.6,1.5,0,2.29,1.24.5,1.58-.89,2.43-1.21.21,1.17,1.01,1.88,1.88,1.75,1.35-.2.7-1.93,1.75-2.43.26.24.1.89.67.81,1-.67,1.09-2.23,2.43-2.56-.12.84.16,1.28.27,1.89,1.71.8,1.7-1.01,2.7-1.35-.08,1.29.54,2.05,1.21,2.02,1.18-.04.89-2.07,1.88-2.43.11.34.18.72.14,1.21,1.75,1.84,1.86-1.31,2.83-1.75.27.18.3.6.4.94,1.54.92,2.62-.14,3.37-1.08-.28,1.21,1,2.13,2.43,1.62.48-.23.36-1.08.94-1.21.51.73,1.61.99,2.43.4.26-.37.08-1.18.67-1.21.59.77,2.17,1.48,3.37.81.56-1.04-1.08-2,0-2.7.27,2.15,3.88,1.36,4.18-.27-.18-.63-1.26-.36-1.21-1.21.8-.55,2.25.61,2.83-.4-.03-1.64-2.32-1.01-2.83-2.16.96-.54,2.83-.67,2.56-2.29-.15-.91-1.06-.88-1.89-1.35.08-.68,1.12-.41,1.21-1.08-.25-1.5-2.63-.96-3.64-1.35.19-.58.98-.54,1.21-1.08-.65-.93-2.26-.89-3.64-1.08.46-1.14,2.11-1.01,2.16-2.29.07-1.81-2.11-1.17-3.23-.4,1.07-1.57-.39-3.08-1.48-1.48" fill="#59b351"/>
      <path d="M69.95,64.21c.59-.04,1.1-.15,1.62-.27-.09-.5.17-1.34-.13-1.62.24.5-1.03-.19-1.62-.14-.32.56,0,1.48.14,2.02" fill="#b6bbc1"/>
      <path d="M75.48,63.4c.77.05,1.16-.28,1.89-.27.18-.49-.11-1.2-.13-1.89-.76.04-1.4-.04-1.89-.27-.16.52.15,1.62.14,2.43" fill="#b6bbc1"/>
      <path d="M81.67,60.7c.2.65.02,1.69.27,2.29.63.04.9-.27,1.48-.27.02-.56-.23-.84-.13-1.48-.52-.15-1.19-.72-1.62-.54" fill="#b6bbc1"/>
      <path d="M138.81,60.16c.07.7-.26,1-.27,1.62.5.13.75.51,1.48.41.1-.85.33-1.56.4-2.43-.71-.28-.93.31-1.62.4" fill="#828692"/>
      <path d="M83.96,60.3c-.13.94.21,2.36-.27,3.23-.68-.33-1.3.12-2.16,0-.52-.78-.23-2.37-.54-3.37-.96.21-2.1.24-2.97.54-.2.79-.23,2.08.14,2.7-.73.52-2.62.73-3.23.54.07-1.11-.4-1.67-.27-2.83-.95.08-1.82.25-2.43.67-.04.91-.28,1.85,0,2.7-1.18-.07-1.83.53-2.83.27-.36-.97-.26-1.87-.4-2.83-1.38.1-2.15.81-3.1,1.35.92,9.21,1.42,19.2,1.89,27.35.24-.77,1.9-2.04,3.1-.81.29-1.32.84-2.39,2.02-2.83,1.11.46,1.61,1.53,1.75,2.96,1.34-.29,2.06.33,3.1.67,0-1.03.62-1.44,1.35-1.75.57.11.63.72,1.21.81.38-2.8,3.15-3.58,4.04-.81.47-1.28,2.04-.61,2.96-.94-.33-9.91-.7-19.69-1.08-28.29-.74.25-1.63.35-2.29.67" fill="#828692"/>
      <path d="M131.8,61.38c.51.49,1.24.11,2.02.13.13-.36.28-.71.27-1.21-.84-.28-1.53-.72-2.43-.94.06.85.15.98.13,2.02" fill="#b6bbc1"/>
      <path d="M58.5,57.33c.68,0,1.11-.23,1.89-.14-.17-1.23-.06-2.3-.41-3.1-.31.22-1.2-.02-1.89-.13.18,1.37.13,2.25.41,3.37" fill="#b6bbc1"/>
      <path d="M148.37,53.56c.05.76-.28,1.16-.27,1.89.41-.1.49.14.81.13.46-.89.94-3.53-.54-2.02" fill="#828692"/>
      <path d="M142.04,54.91c.62,0,1.32-.06,1.75.14v-1.75c-.74-.12-.85-.85-1.62-.94-.26.87-.06,2.02-.13,2.56" fill="#b6bbc1"/>
      <path d="M90.57,55.45c.44.03.57-.24,1.08-.14.2-.64-.12-1.59,0-2.56-.38-.35-1.08-.36-1.62-.54-.01,1.27.34,2.18.54,3.24" fill="#b6bbc1"/>
      <path d="M67.26,55.31c.51.1.64-.17,1.08-.14-.08-1.15.19-2.68-.27-3.1-.88.47-.89,1.8-.81,3.23" fill="#828692"/>
      <path d="M97.44,55.85c.5,0,.85-.13,1.21-.27.21-1.13.36-2.44.14-3.64-1.26.49-1.53,1.98-1.35,3.91" fill="#828692"/>
      <path d="M139.35,51.95c-.81,1.7-.75,4.28-1.48,6.06.61.19,1.14.48,1.21,1.21,1.37-.83,3.89-.39,4.99.54-.93,11.17-3.55,22.5-4.72,33.82,1.57-.45,3.09.2,3.77,1.08.47-.42,1.81-.35,2.29,0,.46-2.28,2.86-12.73,3.37-15.9,1.36-8.51,3.46-17.48,4.31-25.2-.82-.44-1.78-.73-3.1-.68-.3,1.33.11,2.54-.81,3.23-.31.08-1.48.03-1.75,0-.24-1.11.55-2.31.4-3.77-.91-.13-1.94-.21-2.83,0-.85.93-.19,2.85-1.08,3.5-.48-.56-2.08,0-2.56-.54.29-1.2-.09-2.59.13-3.5-.7.06-1.67-.15-2.16.14" fill="#b6bbc1"/>
      <path d="M68.87,51.54c-.08,1.8.13,2.63.13,4.18-.89.68-2.28.86-3.5,1.21-.6-1.37-.09-4-1.21-5.39-1.11.46-2.69.46-3.64,1.08-.1,1.82.46,3.66.27,5.12-.79.25-2.04.02-2.83.27-.54-1.03-.48-2.66-.67-4.04-1.32.07-1.96.82-2.83,1.35,1.11,12.73,2.97,24.22,4.18,35.84,1.33.15,2.25.71,2.56,1.89.66-.19,1.46-.66,2.29-.27-.37-2.03,1.1-2.23,1.62-3.37.9-.18,1.22.22,1.75.4-.33-9.01-1.22-18.89-1.62-26.95,1.11-.63,2.21-2.05,3.64-2.02.96.02,1.56,1.04,2.7.94.93-2.34.43-7.54.54-10.37-1.41-.1-2.29.01-3.37.13" fill="#828692"/>
      <path d="M92.45,51.41c-.37,1.36-.57,3.56.4,4.18-.55.53-1.77.39-2.83.4-.58-1.41-.26-2.89-1.08-4.04-.99-.16-2.02.74-2.96,1.08,1.94,10.86,1.41,22.89,2.29,34.36.69.57,1.39,1.13,1.75,2.02.91-.44,1.26-1.44,2.43-1.61.68-.17.79.73,1.21.4.51-.66,1.15-1.19,2.43-1.08.69.52.9,1.53.94,2.7,1.66-.36,1.72.89,2.29,1.62.41-.65,1.37-.54,2.02-.13.72-12.44.93-27.17,1.89-38.67-1.17-.62-2.16-.59-3.64-.81-.32,1.43.11,3.61-.81,4.45-.84-.03-1.41.21-1.89.54-.31-1.62-.05-3.81-.13-5.66-1.83-.11-2.62-.2-4.31.27" fill="#b6bbc1"/>
      <path d="M65.64,46.02c.11-.43.69-.38.81-.81h-1.08c0,.36-.07.79.27.81" fill="#ab1e23"/>
      <path d="M66.31,46.56c1.87-.48,3.41-.54,4.99-.81-1-.48-1.61-1.35-3.37-1.08.11,1.2-1.84,1.01-1.62,1.89" fill="#ee3636"/>
      <path d="M62.14,43.46c-.24.5.32.8.14,1.62,1.96-.06,3.51-.71,5.12-.4-.1-.93-.27-1.8-.54-2.56-1.82.2-3.56.48-4.72,1.35" fill="#ee3636"/>
      <path d="M129.65,42.51c.62-.06,1.14-.2,1.89-.13.52-1.38-.49-2.58-1.75-2.97-.18.89-.13,2.02-.13,3.1" fill="#b6bbc1"/>
      <path d="M122.91,38.74c.45.85.01,1.85.13,3.1h1.89c-.08-.71.1-1.16.13-1.75-.99-.02-1.66-1.73-2.16-1.35" fill="#b6bbc1"/>
      <path d="M116.17,41.43c.28.21,1.21.21,1.48,0,0-1.06.04-1.26.13-2.16-.75-.06-1.06-.56-1.62-.81.33.95-.06,1.88,0,2.96" fill="#b6bbc1"/>
      <path d="M112.66,38.06c-.57,9.17-1.55,17.21-1.75,25.74,1.02.08,1.8-.09,2.7-.13.5.71.32,2.11.54,3.1h2.02c.2-1.1.28-2.32.81-3.1,1.72.27,2.82-.17,3.77.27-.1.76.36,2.18,0,3.23.59.31,1.56,0,2.16-.13.49-.9.18-2.6.94-3.23,1.55,0,2.33.05,3.77,0,.02-1.64-.15-3.47.4-4.58,1.39.19,2.18-1.18,3.77-1.21.64-6.76,1.46-12.52,2.43-18.86-.58.18-.86.06-1.48,0-.97.99-.14,3.03-1.08,3.91-1.02-.18-1.94.35-2.69,0,.25-1.65.04-2.92.27-4.31-1.25-.14-2.59-.61-3.5,0-.19,1.34.14,3.2-.67,3.91-.6-.34-1.98.09-2.56-.27-.07-1.04.2-3.37-.41-4.31-1.31.36-2.03.18-3.37.14-.68,1.26-.16,2.89-.81,4.18-.66-.33-2.12.15-2.43-.54.27-1.3.05-2.68,0-4.04-1.14-.11-1.93.14-2.83.27" fill="#828692"/>
      <path d="M144.33,35.91c1.31.22,1.04-1.91.81-2.43-.73.34-.85,1.3-.81,2.43" fill="#828692"/>
      <path d="M138.4,35.78c.05-.17.78.11,1.21,0,.16-.56.17-1.27.27-1.89-.34-.42-.87-.66-1.35-.94-.18.79-.58,2.24-.13,2.83" fill="#b6bbc1"/>
      <path d="M135.71,33.22c-.71,8.59-3.32,24.75-3.23,25.33.54.31,1.07.64,1.75.81-.14-1.62,1.96-1.01,3.1-1.35.41-2.08.81-5.37,1.62-7.14,2.59-.35,4.15.34,5.12,1.62,0-.98.89-1.09,1.75-1.21.61-6,1.74-12.19,2.16-17.92-.44-.27-1.36-.07-2.02-.13-.07,1.14-.09,2.34-.54,3.1-.3.2-1.52.18-1.62.14-.4-1.01-.12-2.38-.14-3.51-.97-.14-2.17-.24-2.96.14-.19,1.11-.31,2.3-.67,3.23-.86.12-1.63.11-2.43-.14-.13-1.23.33-2.52.14-3.37-.59.14-1.41,0-2.02.4" fill="#b6bbc1"/>
      <path d="M147.3,29.44c.6,1.44,2.75.58,4.18,1.08-.34-1.65-2.47-1.05-4.18-1.08" fill="#ee3636"/>
      <path d="M147.16,28.77h1.48c-.09-.63-.88-.55-1.35-.81-.16.16-.15.48-.13.81" fill="#ab1e23"/>
      <path d="M116.71,26.21c.65.02,1.43.48,1.89.27-.23-.53-.03-1.44-.13-1.75-1.09,0-1.64.52-1.75,1.48" fill="#828692"/>
      <path d="M91.65,26.88c.44-.37,1.02-.6,1.48-.94-.06-.46.05-.75.14-1.08-.46-.11-1-.16-1.89-.14-.22.62-.23,1.85.27,2.16" fill="#b6bbc1"/>
      <path d="M143.79,25c.02.55-.23.84-.13,1.48,2.69,0,4.31,1.07,6.2,1.89-.01-.69.28-1.07.27-1.75-1.19-1.43-3.81-2.76-6.33-1.62" fill="#ee3636"/>
      <path d="M111.45,23.38c.11.43-.12.51-.27.67.69.3,1.45.53,2.29.67.1-.82-.21-1.22-.14-2.02-.75.1-1.23.47-1.89.67" fill="#828692"/>
      <path d="M96.36,22.84c.71-.14,1-.71,1.89-.67.09-.53-.36-.54-.27-1.08-.86.19-.98-.37-1.75-.27-.25.59.04,1.38.13,2.02" fill="#b6bbc1"/>
      <path d="M105.25,21.22v1.35c.78,0,1.56.03,2.16-.14-.04-.82.15-1.85-.27-2.29-.8.18-1.31.66-1.89,1.08" fill="#828692"/>
      <path d="M101.75,51.14c.8.14,1.64.24,2.15.67.08,4.2-.5,8.33-.54,12.13,1.26.34,2.09-.28,2.96.27.05,1.3-.25,1.54,0,2.69.7.02,1.52-.08,2.02.14.48-1.12.28-2.72,1.62-3.23.58-9.24,1.33-18.31,1.89-26.68,1.36-.04,2.45-.34,3.77-.41.88.29,1.09,1.24,2.16,1.35.43-1.38,1.7-.7,3.1-.81,0-4.13.53-7,.67-11.32-.81-.36-1.65-.69-2.56-.94.14.64.31,1.85-.13,2.29-.95-.17-1.95-.29-2.83-.54.03-1.11.15-2.04,0-3.23-.53-.21-1.76-1.07-2.02-.67-.27.54.34,2.17-.27,2.69-1.01-.42-2.29-.58-3.23-1.08.12-.62-.04-2.44-.27-3.5-.84-.14-1.28-.7-2.29-.67.06.68.08,2.02-.13,2.83-1.08-.07-2.59.48-3.37-.14.06-1.51-.1-3.17-.14-4.18-.74-.42-1.62-.72-2.56-.94-.18,12.39-.25,21.74,0,33.28" fill="#b6bbc1"/>
      <path d="M100.94,17.72c-.85.32-1.62.72-2.16,1.35v3.37c-1.02.34-1.8.9-2.83,1.21-.4-.68-.16-2-.54-2.7-.33.66-1.33.7-1.62,1.62-.33,1.08.18,2.58,0,3.64-1.03.46-1.61,1.35-2.83,1.62.03-1-.28-1.35-.4-2.43-2.45.72-2.15,3.88-1.89,6.74.58,6.21,1.22,13.87,1.62,19.14.6-.02.83.33,1.35.4.08-.32-.17-.98.13-1.08,1.47-.79,3.66-.39,5.66-.4-.3.54.04.96,0,1.62.64-.34,1.96-1.7,3.5-.81,0-10.5.3-22.65,0-33.28" fill="#828692"/>
      <path d="M107.68,12.19c.43-.28,1.51.08,1.75-.4-.63-.44-.82-.55-1.75-.54-.19.18-.19.76,0,.94" fill="#ab1e23"/>
      <path d="M110.51,12.06c1.19-.07,1.73.52,2.83.54-.64-1.07-1.55-1.87-2.83-2.29-.37.5.15,1.05,0,1.75" fill="#ee3636"/>
      <path d="M103.1,9.23c-.03,1.07-.15,1.21-.13,2.29,1.81-1.08,4.85-1.53,6.87-.4-.18-.86-.14-1.92-.14-2.96-2.39-.36-5.34-.14-6.6,1.08" fill="#ee3636"/>
      <path d="M101.64,52.08c.54.1,1.04.24,1.59.54-.96,11.5-1.17,26.23-1.89,38.67-.44-.28-1.02-.42-1.48-.27.32-6.7,1.49-31.7,1.78-38.93" fill="#9c9fa9"/>
      <path d="M92.6,51.37l.18,4.15c-.88-.69-.68-2.8-.32-4.12l.14-.04Z" fill="#b6bbc1"/>
      <path d="M90.03,55.99c1.02-.01,2.17.11,2.75-.34.4,9.12,1.1,24.18,1.63,31.82-.29.19-.53.45-.74.72-.43.33-.53-.57-1.21-.4-1.17.18-1.52,1.18-2.43,1.62-.36-.89-1.06-1.45-1.75-2.02-.89-11.47-.35-23.5-2.29-34.36.94-.33,1.98-1.24,2.96-1.08.82,1.16.49,2.63,1.08,4.04" fill="#9c9fa9"/>
      <path d="M68.87,51.54c.69-.08,1.3-.16,2.01-.17.11,3.08.22,8.58-.35,8.58-.79,0-3.91.26-5.13,1.13-1.22.87-2,4.35-2,4.35l-1.32-13.34c.75-.17,1.56-.28,2.21-.55,1.12,1.39.62,4.02,1.21,5.39,1.22-.35,2.61-.53,3.5-1.21,0-1.55-.22-2.38-.13-4.18" fill="#b6bbc1"/>
      <path d="M112.66,38.06c.9-.13,1.69-.38,2.83-.27.05,1.36.27,2.74,0,4.04.3.68,1.77.21,2.43.54.65-1.28.13-2.91.81-4.18,1.34.04,2.05.23,3.37-.14.6.94.34,3.27.41,4.31.58.36,1.96-.07,2.56.27.82-.71.49-2.57.67-3.91.2-.13.41-.21.64-.26l1,18.86s-2-.26-2,1.13-.52,3.74-.52,3.74c0,0-2.26-.52-2.53.26-.26.78-.26-.17-1.65-.35-1.39-.18-3.48-.52-4.18.17-.69.7-.69.79-1.56.09-.64-.51-2.85-.56-3.96-.54.29-7.81,1.17-15.32,1.69-23.78" fill="#9c9fa9"/>
      <path d="M103.91,51.81c-.21-.18-.47-.29-.76-.38,2.21-3.59,8.07-12.95,8.69-13.93-.56,8.27-1.29,17.2-1.86,26.31-1.34.51-1.14,2.12-1.62,3.23-.5-.22-1.32-.11-2.02-.14-.25-1.16.05-1.39,0-2.69-.87-.55-1.7.07-2.96-.27.04-3.79.61-7.92.54-12.13" fill="#9c9fa9"/>
      <path d="M136.93,88.64c-.64.56-2.13.53-2.98.06.41-2.64.08-4.03,1.14-6.67,3.27-1.58,1.63,4.86,1.83,6.61"/>
      <path d="M134.8,88.22c.57.05.97.34,1.48.1.07-1.96.67-3.79,0-5.81-1.76.4-1.45,3.78-1.48,5.7" fill="#828692"/>
      <path d="M96.83,66.14c-.58.62-2.06.75-2.95.37.13-2.67-.34-4.02.44-6.76,3.09-1.91,2.12,4.66,2.52,6.38"/>
      <path d="M94.67,65.95c.58,0,1,.24,1.48-.05-.14-1.96.27-3.84-.61-5.78-1.71.58-1.05,3.91-.87,5.83" fill="#828692"/>
      <path d="M97.15,81.48c-.58.62-2.06.75-2.95.37.13-2.67-.34-4.01.44-6.76,3.09-1.91,2.12,4.66,2.52,6.38"/>
      <path d="M94.98,81.28c.58,0,1,.23,1.48-.05-.14-1.96.27-3.84-.61-5.78-1.71.58-1.05,3.91-.87,5.83" fill="#828692"/>
      <path d="M84.52,30.59c-1.73-.21-3.27-.1-4.63.2-.3-4.34-.1-13.79-.04-17.6.24,1.07.52,2.13.84,3.17.76,3.93,2.04,9.57,3.83,14.23" fill="#b2825a"/>
      <path d="M85.33,33.05c-.18,0-3.65-.7-4.61,0-.96.7,2.26,24.46,2.95,24.72.7.26,1.39-.26,1.39-.52s-.7-5.83-.18-6.18c.52-.35,2.35-.87,2.35-.87,0,0-1.74-17.15-1.92-17.15" fill="#9c9fa9" fill-rule="evenodd"/>
      <path d="M139.35,51.95c.48-.28,1.46-.07,2.16-.14-.23.91.16,2.3-.13,3.5.48.55,2.08-.02,2.56.54.89-.65.23-2.58,1.08-3.5l.32-.06c-.41,2.15-.99,5.68-.45,5.92.78.35,1.48.61,1.39,2.61-.07,1.64-3.38,24.7-4.55,32.85-.69-.26-1.52-.34-2.37-.09,1.16-11.33,3.79-22.65,4.72-33.82-1.1-.93-3.61-1.37-4.99-.54-.07-.74-.6-1.02-1.21-1.21.73-1.79.67-4.36,1.48-6.06" fill="#9c9fa9"/>
      <path d="M135.71,33.22c.61-.4,1.44-.26,2.02-.4.19.85-.27,2.14-.14,3.37.64.2,1.27.24,1.95.19-.83,5.98-1.9,13.31-1.9,13.31,0,0,1.74-1.04,3.22-.96.95.06,3.42.29,5.17.45l-.17,1.53-.22-.07-.14.68c-.76.11-1.45.3-1.46,1.17-.97-1.27-2.53-1.96-5.12-1.62-.81,1.77-1.2,5.06-1.62,7.14-1.14.34-3.23-.27-3.1,1.35-.69-.17-1.21-.5-1.75-.81-.08-.58,2.53-16.74,3.23-25.33" fill="#9c9fa9"/>
      <path d="M96.9,35.51c-.95.49-1.97.91-3.1,1.21-.75-2.2-1.3-6.49.54-8.08,2.03,1.03,2.26,4.55,2.56,6.87"/>
      <path d="M95.42,35.24c1.4-.58.32-3.58-.13-4.45-.81-1.65-.37,2.62.13,4.45" fill="#5d606d"/>
      <path d="M94.21,35.78c.44-.1.9-.15.71-.55-.52-1.05-.78-4.48-.17-5.65-.19,0-.3-.07-.41-.14-.69,1.63-.91,4.56-.13,6.34" fill="#9c9fa9"/>
      <path d="M82.06,42.76c-.95.49-1.97.91-3.1,1.21-.75-2.2-1.3-6.49.54-8.08,2.03,1.03,2.26,4.55,2.56,6.87"/>
      <path d="M80.58,42.49c1.4-.58.32-3.58-.13-4.45-.81-1.65-.37,2.61.13,4.45" fill="#5d606d"/>
      <path d="M79.37,43.03c.44-.1.9-.15.71-.55-.52-1.04-.78-4.48-.17-5.65-.19,0-.3-.06-.4-.13-.69,1.63-.91,4.56-.13,6.33" fill="#9c9fa9"/>
      <path d="M105.15,34.99c1.02.35,2.1.61,3.26.75.35-2.29.15-6.61-1.93-7.93-1.82,1.31-1.44,4.83-1.33,7.17"/>
      <path d="M106.57,34.51c-1.48-.37-.94-3.5-.64-4.42.51-1.75.82,2.54.64,4.42" fill="#5d606d"/>
      <path d="M107.85,34.87c-.45-.04-.92-.02-.79-.44.33-1.11-.01-4.55-.82-5.62.18-.02.28-.11.37-.19.96,1.52,1.69,4.38,1.23,6.25" fill="#9c9fa9"/>
      <path d="M105.06,49.93c1.02.35,2.1.61,3.26.75.35-2.28.15-6.62-1.93-7.92-1.82,1.31-1.44,4.83-1.33,7.17"/>
      <path d="M106.48,49.45c-1.48-.37-.94-3.5-.64-4.42.51-1.75.82,2.53.64,4.42" fill="#5d606d"/>
      <path d="M107.77,49.81c-.45-.04-.92-.02-.79-.44.33-1.11,0-4.55-.82-5.62.19-.02.28-.11.37-.19.96,1.52,1.69,4.38,1.23,6.25" fill="#9c9fa9"/>
      <path d="M132.89,72.4c-.64.56-2.13.54-2.98.06.41-2.64.08-4.03,1.14-6.67,3.28-1.58,1.63,4.86,1.83,6.61"/>
      <path d="M130.76,71.98c.58.05.97.34,1.48.1.07-1.96.67-3.79,0-5.81-1.76.4-1.45,3.78-1.48,5.7" fill="#828692"/>
      <path d="M148.18,74.16c-.69.5-2.17.35-2.97-.2.64-2.59.43-4.01,1.72-6.55,3.4-1.29,1.2,4.98,1.25,6.75"/>
      <path d="M146.1,73.56c.57.1.93.42,1.46.23.24-1.95,1-3.72.51-5.79-1.79.24-1.77,3.64-1.97,5.55" fill="#828692"/>
      <path d="M142.31,45.88c-.59.51-1.95.49-2.73.06.38-2.42.08-3.7,1.05-6.13,3.01-1.45,1.49,4.46,1.68,6.07"/>
      <path d="M140.35,45.5c.53.05.89.31,1.36.09.06-1.8.62-3.48,0-5.33-1.62.36-1.33,3.47-1.36,5.24" fill="#828692"/>
      <path d="M61.24,68.26c-.46.59-1.75.82-2.56.55-.09-2.35-.61-3.5-.13-5.96,2.56-1.91,2.22,3.93,2.7,5.41"/>
      <path d="M59.32,68.25c.51-.05.89.13,1.3-.16-.27-1.71-.06-3.39-.98-5.02-1.46.64-.62,3.51-.32,5.18" fill="#5d606d"/>
      <path d="M156.88,95.89c.26,2.05,3.56,1.43,4.12-.05l.04.17c.27,1.62-1.6,1.76-2.56,2.29.52,1.15,2.8.52,2.83,2.16-.58,1.02-2.03-.15-2.83.4-.04.85,1.03.59,1.21,1.21-.3,1.63-3.91,2.42-4.18.27-1.08.69.56,1.65,0,2.69-1.2.68-2.78-.03-3.37-.81-.59.04-.41.85-.67,1.21-.82.59-1.92.33-2.43-.4-.59.13-.46.98-.94,1.21-1.43.51-2.71-.4-2.43-1.61-.75.94-1.83,1.99-3.37,1.08-.1-.34-.14-.76-.4-.94-.97.44-1.08,3.59-2.83,1.75.04-.49-.02-.88-.13-1.21-.99.36-.7,2.38-1.89,2.43-.67.02-1.29-.73-1.21-2.02-1,.33-.99,2.14-2.7,1.35-.11-.61-.39-1.05-.27-1.89-1.33.33-1.43,1.89-2.43,2.56-.57.08-.42-.57-.67-.81-1.05.5-.41,2.23-1.75,2.43-.88.13-1.67-.58-1.89-1.75-.85.32-1.19,1.71-2.43,1.21-.6-.79-.15-1.34,0-2.29-.97.19-1.27,1.46-2.29,1.35-.55-.06-.67-.59-1.21-.94-.11.03-.13.14-.27.14-.28.42.17,1.26,0,2.02-.85,1-3.13.53-3.23-.81-.6.54-1.62,1.69-2.56.67-.03-.55.13-1.3-.27-1.48-.68,0-.29,1.05-.67,1.35-1.11.79-2.23-.24-2.56-1.08-.56.66-1.96,1.43-2.69.4-.62.96-2.43,1.75-2.96.27-.86.27-.13,1.26-.27,1.89-.21.94-.78,1.38-2.02,1.35-.07-.38-.2-.7-.27-1.08-.46.17-.63.63-.54,1.35-.79.55-2.05.82-3.1.4.06-.62.44-.87,0-1.35-.7-.11-.6.57-.94.81-1.25.13-2.09-.15-2.69-.67-.18-.32-.06-.93-.27-1.21-.77.43-3.64.74-4.31-.41-.14-.68.31-.77.27-1.35-.62-.11-1.85.85-2.56,0,.09-.18.03-.56,0-.94.13-.85,1.15-.82,1.62-1.35-.81-.94-3.51,0-3.64-1.62.28-.63,1.28-.51,1.48-1.21-1.63-.45-4.46.46-5.26-1.08.22-.77,1.5-.48,1.89-1.08-1.19-.72-4.08.19-4.18-1.48-.09-1.41,1.62-.73,2.16-1.48-.25-.38-1.01-.25-1.48-.4-.88-.9-.08-2.35,1.35-2.43.74-.04,1.24.44,1.76.62.93,1.27,3.58.46,5.13.89-.2.7-1.21.59-1.48,1.21.13,1.63,2.82.68,3.64,1.62-.46.52-1.48.49-1.62,1.35.02.38.09.76,0,.94.71.85,1.93-.11,2.56,0,.04.58-.41.67-.27,1.35.67,1.15,3.54.84,4.31.41.21.28.09.89.27,1.21.6.52,1.44.8,2.7.67.35-.23.25-.92.94-.81.44.47.06.73,0,1.35,1.05.42,2.31.14,3.1-.4-.09-.72.08-1.18.54-1.35.07.38.2.7.27,1.08,1.24.03,1.81-.4,2.02-1.35.14-.63-.59-1.62.27-1.89.53,1.48,2.35.69,2.96-.27.73,1.03,2.13.25,2.69-.4.33.84,1.45,1.87,2.56,1.08.38-.3,0-1.35.67-1.35.4.18.24.93.27,1.48.95,1.02,1.97-.14,2.56-.67.1,1.33,2.38,1.81,3.23.81.17-.76-.28-1.6,0-2.02.14,0,.16-.11.27-.13.54.35.66.88,1.21.94,1.02.1,1.32-1.16,2.29-1.35-.15.95-.6,1.5,0,2.29,1.23.49,1.58-.89,2.42-1.21.22,1.17,1.01,1.88,1.89,1.75,1.35-.2.7-1.92,1.75-2.43.26.24.1.89.67.81.99-.67,1.09-2.23,2.43-2.56-.12.84.16,1.27.27,1.89,1.71.8,1.7-1.01,2.7-1.35-.08,1.29.54,2.05,1.21,2.02,1.18-.04.9-2.07,1.89-2.43.11.34.18.72.14,1.21,1.75,1.84,1.86-1.32,2.83-1.75.27.18.3.6.4.94,1.54.92,2.62-.13,3.37-1.08-.28,1.21,1,2.13,2.43,1.62.49-.23.36-1.08.94-1.21.51.74,1.61.99,2.43.4.26-.37.08-1.18.67-1.21.59.78,2.17,1.49,3.37.81.56-1.04-1.08-2,0-2.7" fill="#479243"/>
      <path d="M94.61,95.33c-.42-1.33-2.37-2.75-3.77-1.48.08.59.47.87.94,1.08-.34.78-2.08.16-2.69.67.03,1,.67,1.39,1.75,1.35-.31,1.1-1.71.02-2.02,1.08-.27.94.68,1.76,2.16,1.62-1.39,1.44-4.1-1.58-1.89-2.56-.12-.51-.9-1.07-.54-1.62.24-.66,1.43-.36,2.02-.67-1.32-3.07,5.19-2,4.04.54" fill="#246332"/>
      <path d="M80.51,100.79c.42.28.96.43,1.57.34-1.08,2.24,1.87,2.44,4.04,2.29-1.14,1.38.42,2.8,2.29,2.43-.38.52-.98.82-1.08,1.62-1.08.65-2.52.12-2.83-.81-.46.82-2.43,1.69-3.23.54-.08-.5.35-.85,0-1.21-.86.71-1.09,2.05-2.96,1.75-.53-.5-.31-1.16-.27-2.02-.72-.13-.5.67-.81.94-1.06.81-2.68,1.94-4.45,1.21-.24-.55-.26-.79-.13-1.48-.74-.11-.66.6-1.08.81-1.2.55-2.73.12-3.37-.67,0-.32-.23-.4-.14-.81-1.18,1.05-3.81.48-2.96-1.62-1.7.82-4.06.3-4.18-1.62-.69,1.15-3.77,2.91-4.04.27-.95.81-3.85,2.35-4.72.4-1.09.52-2.68,1.7-4.18.94-.1-.41.14-.49.13-.81-1.25.26-4.24.29-5.25.14.33-.35,1.01-.34,1.08-.94-1.36-.22-3.52.63-4.04-.94.87-.56,2.45-.42,3.37-.94.1-.41-.23-.4-.14-.81,1.33-.16,3.87.09,4.18.13,0-.81-.84-.77-.81-1.62.74-.69,2.46.41,2.97-.54-.19-.34-.53-.52-.87-.7,1.26,0,2.82-.06,3.63-.23,0,.32-.23.4-.14.81,1.5.76,3.09-.42,4.18-.94.87,1.94,3.77.41,4.72-.41.28,2.63,3.35.88,4.04-.27.12,1.92,2.48,2.44,4.18,1.62-.84,2.1,1.78,2.67,2.97,1.62-.1.41.14.49.13.81.63.79,2.17,1.22,3.37.67.42-.21.34-.92,1.08-.81-.13.69-.11.93.13,1.48,1.36.56,2.63.02,3.63-.63" fill="#479243"/>
      <path d="M57.82,97.22c-.88-.43-.78-1.83-1.89-2.02-1.07.53-.13,2.16-.13,2.7-.66.04-2.47-.93-2.7.27-.08.43.24.97.94,1.08-.3.78-2.04.11-2.29.94-.03.53.5.49.81.67-.49.56-1.52-.14-1.48-.94.45-.4,1.14-.56,1.75-.81-.91-1.27.64-2.52,2.02-1.89-.81-3.22,3.13-2.91,2.96,0" fill="#246332"/>
      <path d="M114.28,96.72c.07-.98.36-2.18.11-2.91.63-.22,1.06-.64,1.91-.64,1.11.6.03,1.81-.14,2.7.89.14,1.21-1.38,2.7-1.08.43.46.65,1.14.81,1.89,1.08-.72,1.16-2.43,3.23-2.16.21.37.04,1.13.54,1.21,1.09-.24.18-1.08.67-1.75,1-.67,2.5-.03,2.83.81.02.68-.34,1.33.14,1.75.43.03.33-.48.54-.67,1.17-.21,2.01.07,2.29,1.08.87-.48.68-1.83,1.62-2.02,1.09-.23,1.76,1.04,2.56,1.75.98-.29-.34-2.85.94-2.97.7-.06,1.28,2.87,1.89,3.1.62-.24.56-1.15.94-1.62.91-.1,1.16.45,1.75.67.21-.06-.07-.75-.27-1.08.12-1.09,1.94-.66,2.7-.27.28.39.21,1.14.54,1.48.82-1.42,2.68-1.08,3.5.14.26-.05-.03-.73,0-1.21,1.79-2.79-.04-9.21,4.72-9.03.3.47-.1.81.14,1.34.58-.14.86-.58.81-1.34,1.09-1.59,2.55-.09,1.48,1.48,1.12-.76,3.3-1.41,3.23.4-.04,1.07-1.2,1.15-1.85,1.82-.5.14-1,.39-1.38.64,1.07-1.57-.39-3.07-1.48-1.48.05.77-.23,1.21-.81,1.35-.24-.54.16-.87-.14-1.35-4.76-.18-2.92,6.24-4.72,9.03-.03.48.26,1.16,0,1.21-.82-1.22-2.69-1.55-3.5-.13-.33-.34-.26-1.09-.54-1.48-.76-.39-2.58-.82-2.7.27.2.33.84.24.81.81-.42-.16-.32.21-.54.27-.59-.22-.84-.77-1.75-.67-.39.46-.33,1.38-.94,1.62-.61-.23-1.18-3.16-1.89-3.1-1.28.11.04,2.68-.94,2.96-.8-.71-1.47-1.98-2.56-1.75-.94.19-.75,1.54-1.62,2.02-.28-1-1.12-1.29-2.29-1.08-.21.19-.11.7-.54.67-.48-.42-.12-1.08-.14-1.75-.33-.84-1.83-1.48-2.83-.81-.49.67.42,1.52-.67,1.75-.5-.09-.33-.84-.54-1.21-2.07-.28-2.16,1.44-3.23,2.16-.16-.74-.37-1.42-.81-1.89-1.49-.3-1.81,1.22-2.7,1.08.17-.89,1.24-2.1.14-2.7-.9,0-1.33.47-2.02.67" fill="#7bc257"/>
      <path d="M113.74,90.35c1.12.28.69,1.94.56,3.28-.12-.2-.3-.34-.56-.41-1.26-.32-1.71,1.44-2.7,2.02-.2-.3-.09-.9-.4-1.08-1.42.19-1.25,1.98-2.02,2.83-.52-.47-.99-.99-2.16-.81-.52.33-.31,1.39-1.21,1.35,0-.85-.35-1.35-.54-2.02-1.12-.93-1.96.33-2.83.81-.64-.57-.65-1.78-1.75-1.89-.74.2-.63,1.26-1.48,1.35.18-2.2-1.32-3.14-2.83-1.89.39-.95.62-2.34.09-2.95,1.47-1.14,2.91-.19,2.74,1.96.85-.09.74-1.15,1.48-1.35,1.1.11,1.11,1.31,1.75,1.89.86-.47,1.7-1.75,2.83-.81.19.67.53,1.17.54,2.02.9.05.69-1.02,1.21-1.35,1.17-.18,1.64.34,2.16.81.77-.85.6-2.63,2.02-2.83.31.18.21.78.4,1.08.99-.58,1.44-2.34,2.7-2.02" fill="#7bc257"/>
      <path d="M95.42,87.79c1.08.21.9,1.94.45,3.11-.12-.12-.27-.2-.45-.24-1.35-.27-1.24,1.6-2.29,2.02-.3-.42-.28-1.16-.81-1.35-1.41.31-1.35,1.98-2.29,2.43-.54-.9-1.07-1.8-1.75-2.56-.32.22-.9.18-1.08.54.28.41.6,1.21.13,1.62-.25-.07-.48-.1-.71-.1-.39-.61-1.16-.85-1.45-1.56.07-1.12,1.06-1.52,2.16-1.21.46-.41.14-1.21-.13-1.62.18-.36.76-.32,1.08-.54.68.76,1.21,1.66,1.75,2.56.94-.45.88-2.11,2.29-2.43.53.19.51.93.81,1.35,1.05-.43.95-2.29,2.29-2.02" fill="#7bc257"/>
      <path d="M156.44,90.35c.64.13,1.18.35,1.5.8-.23.54-1.03.5-1.22,1.08,1.01.39,3.38-.15,3.64,1.35-.09.67-1.13.4-1.21,1.08.83.47,1.73.44,1.89,1.35.18,1.04-.54,1.47-1.32,1.78-.18-.07-.38-.15-.56-.26.08-.68,1.12-.41,1.21-1.08-.26-1.5-2.63-.96-3.64-1.35.19-.57.99-.54,1.22-1.08-.65-.93-2.26-.89-3.64-1.08.46-1.14,2.11-1.01,2.16-2.29,0-.11,0-.21-.01-.31" fill="#7bc257"/>
      <path d="M86.52,89.81c-1.44-.26-2.33,1.37-1.67,2.36-.17.23-.35.46-.56.65-.12.06-.25.12-.36.2-.42-.98-.74-2.06-1.72-2.49-1.27.43-.91,2.5-2.02,3.1-.6-.25-.67-1.04-1.48-1.08-.73.75.51,1.89-.54,2.15-.69-.48-1.79-1.47-2.83-1.35-.64.07-.74.8-1.35.67.22-.93-.21-3.09-1.35-3.5-1.1.6-.89,2.52-1.75,3.37-.4-.55-.88-1-1.75-1.08-.03.1-.11.16-.27.14-.34.61-.26,1.62-.94,1.89-.62-.82-1.2-1.68-2.43-1.89-.24.39-.19,1.07-.4,1.48-.39.03-.41-.3-.81-.27-.39.88.47,2.03-.27,2.56-.26-.5-.97-.56-1.75-.54-.51.25-.63.9-1.08,1.21-.25-1.01-.75-1.76-1.35-2.42-1.67-.42-1.49,1.03-2.43,1.35.02-1.37-.64-2.05-1.62-2.42-.94.9.92,1.79.13,2.56-.72-.58-2.38-1-3.1-.14-.08.8.74.69.81,1.35-.25.02-1.95-.53-2.83-.14-.03.48.4.49.4.94-.27.04-2.98-.1-3.77.4.26,1,1.57.95,2.02,1.75-.5.96-2.23-.16-2.96.54-.04.84.81.81.81,1.62-.26-.03-2.03-.21-3.39-.18-1.33-.34-3.49.5-4.02-1.07.87-.56,2.46-.42,3.37-.94.1-.41-.23-.4-.14-.81,1.33-.16,3.87.09,4.18.13,0-.81-.84-.77-.81-1.62.74-.69,2.46.41,2.96-.54-.45-.8-1.76-.75-2.02-1.75.8-.5,3.5-.36,3.77-.4,0-.45-.44-.46-.4-.94.88-.4,2.58.15,2.83.14-.07-.66-.89-.55-.81-1.35.72-.87,2.37-.44,3.1.13.78-.77-1.08-1.66-.13-2.56.97.38,1.64,1.06,1.62,2.43.94-.32.75-1.76,2.43-1.35.59.66,1.1,1.41,1.35,2.42.45-.31.57-.96,1.08-1.21.79-.02,1.49.04,1.75.54.74-.53-.12-1.68.27-2.56.39-.03.41.3.81.27.22-.41.16-1.09.4-1.48,1.23.21,1.81,1.07,2.43,1.89.68-.26.61-1.28.94-1.89.16.02.24-.03.27-.14.87.07,1.35.53,1.75,1.08.86-.84.65-2.76,1.75-3.37,1.14.42,1.57,2.57,1.35,3.5.6.13.71-.6,1.35-.67,1.05-.12,2.14.87,2.83,1.35,1.04-.27-.19-1.4.54-2.16.82.04.88.82,1.48,1.08,1.11-.6.75-2.67,2.02-3.1,1,.44,1.32,1.56,1.75,2.56.64-.43,1.01-1.15,1.48-1.75.76.04,1.01.6,1.08,1.35" fill="#7bc257"/>
      <path d="M86.07,136.05c10.23-.16,32.83-.5,60.13.44,28.86,1,59.91,3.08,59.91,3.08.98.07,1.8.12,2.34.16.6-.06,1.37-.21,1.51-.65.25-.78-1.7-1.8-3.59-3.59-1.85-1.75-2.04-2.73-3.81-5.22-1.72-2.43-3.24-3.89-5.98-6.53-4.24-4.08-8.94-7.2-22.66-15.67-10.03-6.19-10.91-6.62-12.77-7-8.9-1.8-11.29,3.05-18,1.01-4.53-1.38-12.41-10.7-15.8-11.43-3.21-.69-8.97-2.56-20.59.4-5.84,1.49-8.51,2.5-11.81,3.31-3.29.8-7.2,1.4-15.53,2.06-10,.79-14.32,1.24-17.82,2.76-3.45,1.5-4.12,2.77-7.54,5.05-4.12,2.74-10.44,5.9-19.84,7.35-2.85,2.1-6.22,4.96-9.57,8.78-3.84,4.36-6.48,8.62-8.27,12.04-.14.29-.31.74-.22,1.23,1.02,5.35,30.28,3.03,69.92,2.4Z" fill="#246332"/>
      <path d="M86.07,136.05c17.74.01,34.38-.57,60.13.44,19.46.77,30.73,1.03,59.91,3.08,12.5.88,24.98,1.2,37.47,1.3-27.8,2.72-36.7-1.03-39.27-5.38-.38-.64-1.12-2.13-2.61-4.24-.78-1.11-3.58-4.95-11.25-10.94-2.32-1.81-5.48-4.13-9.43-6.6-3.1-2.45-7.68-5.73-13.7-8.9-2.96-1.55-4.47-2.34-6.39-2.87-8.74-2.41-11.67,3.04-18.07,1.1-4.82-1.46-12.92-10.8-15.72-11.41-2.92-.63-8.38-2.6-20.13.4-5.84,1.49-8.51,2.51-11.82,3.31-3.32.81-7.28,1.42-15.68,2.09-9.96.79-14.17,1.22-17.56,2.71-3.35,1.47-4.01,2.71-7.27,4.89-4.05,2.7-10.3,5.8-19.73,7.07-1.78,1.23-3.65,2.72-5.51,4.5-6.35,6.07-9.72,12.83-11.53,17.63,28.82,1.49,52.06,1.81,68.17,1.82Z" fill="#ffd462"/>
      <path d="M79.97,97.4c4.89-2.34,7.08-.64,15.23-2.05,5.14-.89,3.82-1.27,11.82-3.31,11.75-3,17.21-1.03,20.13-.4,2.06.45,6.85,4.46,11.04,8.67.34.85.93,2.06,1.94,3.31.58.73,1.62,1.87,3.35,2.98,4.62,2.96,10.55,4.01,10.55,4.01.94.23,12.86,3.78,24.11,9.36,10.02,4.97,11.68,8.7-1.74,8.37-13.42-.33-20.38,3.4-30.07,5.38-9.69,1.99-12.67-1.32-23.03-2.32-10.35-.99-14.74-3.4-20.38-7.71-5.63-4.31-27.09-2.07-37.11-5.38-1.57-.52-3.54-1.34-3.95-2.93-.49-1.93,3.19-5.22,10.57-11.73,6.32-5.57,6.62-5.81,7.54-6.25Z" fill="#7bc257"/>
      <path d="M38.43,112.69c-7.79,2.64-12.64,7.69-13.8,8.94-3.38,3.66-5.26,7.36-6.3,9.85.26-.07.66-.13.87.07.24.23.04.65.12.85.73,1.61,6.34-.33,12.67-.33,3.98,0,6.71.75,10.03-.66,3.31-1.41,7.95-4.06,12.67-3.73,4.72.33,10.1-1.32,13.09-3.31,2.98-1.99,4.06-3.07,8.04-4.06,3.98-1,11.68-9.03,11.68-9.03-11.56,1.64-20.89,1.48-27.42.99-9.1-.68-14.18-2.1-21.66.42Z" fill="#e3b952" fill-rule="evenodd"/>
      <path d="M134.31,124.03c1.32.33,4.39,1.32,6.05,2.65,1.65,1.33,5.96,6.71,5.96,6.71,0,0,5.96,3.31,10.02,3.31.78,0,1.49.08,2.17.18,2.89.11,5.79.23,8.68.36.69-.13,1.43-.31,2.24-.54,6.96-1.98,9.94-2.65,14-3.64,4.06-1,12.76-6.38,12.76-6.38,0,0-11.68-.99-16.07-2.32-4.39-1.33-17.39-6.71-26.09-6.71s-20.71-1.33-20.71-1.33l-5.71-.33,5.71,2.98s-.33,4.72,1,5.06" fill="#51a249" fill-rule="evenodd"/>
      <path d="M37.56,110.18c.33-1.66,2.04-9.26,2.04-9.26,0,0,1.55-.86,3.33-1.7,1.76-.83,3.99-1.77,5.71-2.11,3.28-.65,8.27-2.54,9.85-3.57,1.88-1.22,5.05-.08,7.06.26,2.23.37,7.19,3.3,9.49,4.35,2.52,1.15,6.7,3.27,9.48,3.27,2.43,0,5.67,3.3,7.26,5.19,0,0-1.53,2.17-3.1,4.18-1.54,1.98-3.42,4.24-4.55,4.96-2.49,1.59-11.94,2.85-14.92,3.38-3.71.67-4.85.56-6.26.72-1.33.15-2.94.54-7.66,2.24-9.48,3.41-13.43,3.76-16.9,3.76-3.26,0-6.73-.96-9.84-1.88,1.12-1.58,8.72-12.31,9.02-13.8" fill="#434557"/>
      <path d="M33.99,117.88c-1.57,2.31-3.11,4.51-3.82,5.52,2.63.72,5.49,1.45,8.22,1.45,3.33,0,7.16-.32,16.57-3.7,4.72-1.7,6.43-2.13,7.89-2.29,1.39-.15,2.52-.05,6.19-.71,2.75-.5,12.28-1.78,14.57-3.25,1.69-1.08,5.5-6.27,6.93-8.25l-.4-.43c-1.23-1.32-3.84-3.83-5.6-3.83-3.88,0-11.64-4.2-15.22-6.02-2.56-1.3-4.56-1.9-7.39-2.3-1.21-.18-2.22-.14-2.89.29-1.73,1.13-6.85,3.05-10.2,3.72-2.87.57-5.79,2.09-8.36,3.49-.28,1.23-1.64,7.31-1.94,8.8-.19.96-2.46,4.43-4.55,7.51" fill="#b6bbc1"/>
      <path d="M84.85,108.62l5.6-1.87c-1.47,2.04-5.19,7.09-6.86,8.16-2.28,1.46-11.81,2.75-14.57,3.24-3.67.66-4.8.56-6.19.71-1.46.16-3.17.6-7.89,2.29-9.4,3.38-13.24,3.7-16.57,3.7-2.73,0-5.58-.73-8.22-1.45.71-1.01,2.26-3.21,3.82-5.52,2.09-3.08,4.36-6.55,4.55-7.51.3-1.48,1.66-7.56,1.94-8.8,2.57-1.39,5.49-2.91,8.36-3.49,2.91-.58,7.14-2.1,9.34-3.23l-2.4,5.06,1,4.72,11.35-.66-9.36,3.98,1.32,3.31h6.38l6.96-4.31,6.71,1.99,4.72-.33Z" fill="#9c9fa9"/>
      <path d="M90.33,106.79c-1.35,2-5.07,7.05-6.74,8.12-2.28,1.46-11.81,2.75-14.56,3.25-3.67.65-4.8.55-6.19.71-1.46.16-3.17.6-7.89,2.29-9.4,3.38-13.24,3.7-16.57,3.7-2.73,0-5.58-.73-8.21-1.45.71-1.01,2.26-3.21,3.82-5.52,2.09-3.08,4.36-6.55,4.55-7.51.29-1.48,1.66-7.56,1.93-8.8,1.96-1.06,4.11-2.19,6.3-2.93l-2.43,5.99-.33,5.3-1.32,5.72s5.38,2.32,6.71,2.32,6.71-13.66,6.71-13.66h.59l.07.33,5.67-.33h4.9l-5.88,2.5-3.37,1.15,1.33,3.31,2.65,3.73h8.37l2.98-7.7,6.38,1.66-4.31,5.72,6.96-1,7.88-6.88Z" fill="#828692"/>
      <path d="M150.57,113.65c2.55-.81,5.4-1.8,7.39-3.68,1.68-1.59,2.1-1.78,4.68-2.18,2.53-.39,3.72-1.09,5.92-1.76.48-.14.97-.24,1.53-.24,2.18,0,5.36,1.76,7.7,3.76,3.92,3.36,8.71,4.36,11.61,9.03,1.3,2.1,1.26,2.4,3.3,3.98,3.44,2.66,7.08,5.27-.16,5.27-1.43,0-3.32,0-5.98.33-3.64.45-10.72,2.13-14.05.27-4.16-2.31-5.99-3.71-10.9-4.92-5.69-1.4-7.09-1.07-13.68-1.73-6.19-.62-10.46-4.05-11.19-4.67l-7.24-1.3s7.7-1.32,9.45-1.32c1.61,0,5.64.55,6.35.65,1.17-.33,3.18-.84,5.28-1.5" fill="#434557"/>
      <path d="M150.87,114.6c-1.89.6-3.62,1.03-5.51,1.57,0,0-4.69-.67-6.41-.67-.8,0-2.84.07-4.81.15l3.05.55s.37.33.86.7c2.86,2.13,6.43,3.56,9.98,3.91,6.66.67,8.08.33,13.82,1.75,5.05,1.25,6.87,2.65,11.14,5.02,2.97,1.65,10.18,0,13.45-.39,2.72-.33,4.64-.34,6.11-.34.9,0,2.3.04,3.14-.28-.38-1.01-4.23-3.52-5.24-4.6-1.81-1.92-1.91-3.91-4.57-5.91-2.78-2.09-6.08-3.47-8.72-5.74-2.3-1.97-5.25-3.52-7.05-3.52-.93,0-1.79.38-2.64.71-1.08.43-2.46.93-4.66,1.27-3.99.61-3.03,1.41-5.85,3.24-1.59,1.04-3.91,1.9-6.08,2.58" fill="#b6bbc1"/>
      <path d="M150.87,114.6c2.17-.68,4.48-1.55,6.08-2.58,2.82-1.83,1.86-2.62,5.85-3.24l.39-.06-1.46,2.55s.33,3.73,1.65,4.39c1.33.66,7.04,3.64,7.04,3.64l10.69-1.99-7.7,3.31,2.98,4.06,5.38.33s6.05,0,7.37.33c1.03.26,3.68.91,6.22.74.16.18.27.34.32.48-.84.32-2.25.28-3.14.28-1.46,0-3.39,0-6.11.34-3.27.4-10.48,2.04-13.45.39-4.27-2.37-6.09-3.77-11.14-5.02-5.74-1.42-7.16-1.08-13.82-1.75-3.55-.36-7.12-1.78-9.98-3.91-.49-.36-.86-.7-.86-.7l-3.05-.55c1.97-.07,4.01-.15,4.81-.15,1.72,0,6.41.67,6.41.67,1.89-.54,3.62-.97,5.51-1.57" fill="#9c9fa9"/>
      <path d="M176.2,128.27c-1.28-.05-2.4-.26-3.21-.71-4.27-2.37-6.09-3.77-11.14-5.02-5.74-1.42-7.16-1.08-13.82-1.75-3.55-.36-7.12-1.78-9.98-3.91-.49-.37-.86-.7-.86-.7l-3.05-.55c1.97-.07,4.01-.15,4.81-.15,1.72,0,6.41.67,6.41.67,1.12-.32,2.18-.6,3.26-.9l13.77-.27-2.98,2.98,6.3,2.98,3.73-2.32,12.67-1.66-9.03,3.32-3.64,3.07,3.97,3.31,2.98-2.65-.19,4.24Z" fill="#828692"/>
      <path d="M40.46,101.64c2.59-1.45,5.5-2.98,8.37-3.55,3.35-.67,8.47-2.59,10.2-3.72.66-.43,1.68-.46,2.89-.29,2.83.41,4.82,1,7.39,2.3,3.58,1.81,11.33,6.02,15.22,6.02,1.76,0,4.37,2.51,5.6,3.83l.32.35c-3-1.48-11.35-2.5-11.35-2.5l-2.87-1.61-4.61-.75-1-2.63s-2.37-.87-3-1.13l-4.11-1.62h-5.12l-2,4,.63,3.61,10.49.25-11.36.75-.63-4.86,1.25-3.25s-6.24,1.38-7.36,1.75c-1.12.38-2.87,1.25-3.63,1.5-.66.22-4.18,1.23-5.31,1.54" fill="#ccd2d5"/>
      <path d="M150.87,114.6c2.17-.68,4.48-1.55,6.08-2.58,2.82-1.83,1.86-2.62,5.85-3.24,2.2-.34,3.58-.85,4.66-1.27.85-.33,1.71-.71,2.64-.71,1.8,0,4.75,1.55,7.05,3.52,2.65,2.27,5.94,3.65,8.72,5.74.62.47,1.1.94,1.5,1.4-.77-.16-1.42-.3-1.68-.39-.73-.25-3.25-2.63-4-3-.75-.37-3.25-1.73-4.12-2.23-.88-.5-4.11-2.5-4.61-2.63-.5-.13-2.37.12-3.62.12s-4.36.13-4.36.13c0,0-1.63,1.62-1.63,2.13v2.86l5.86,3.38,12.86-.75-12.98,1.63s-5.74-3-6.36-3.25c-.62-.26-1.12-3.74-1.12-3.74l.63-1.75-2,.87-4.11,2.86-9.86,2.37-.37-.05c1.69-.47,3.27-.88,4.99-1.42" fill="#ccd2d5"/>
      <path d="M148.91,130.2c.26-2.56-.92-.34-.85.22-.55-1.43-1.36-2.34-1.24.31-1.82-1.96-1.08-.86-.04,1.24-.99-.57-1.21-.78-2.2-1.24.68.71.89.89,1.42,2.06-.89-.15-1.03-.3-2.06-.32.3.53-.05.22.41.78-.4.06-2.24-1.28-2.54-1.63.68-.59,1.64-.12,2.54,0-.94-1.26-3.93-3.2-5.01-3.93,1.86.12,3.44,1.03,4.83,1.81-.97-1.2-5.77-4.67-7.01-5.13,3.7.59,6.52,2.05,8.58,4.35-.34-2.95-4.01-9.71-5.92-11.36,1.12.3,1.7,1.04,2.48,1.87.77.83,1.6,1.47,2.3,2.35,1.4,1.78,2.44,3.98,3.2,6.28.14-1.82.59-3.55,1.27-5.14.66-1.55,1.32-3.13,2.42-4.23-.33,1.86-1.65,7.74-1.87,8.82.43-.45,3.1-4.87,5.38-6.16-.39,1.15-2.71,5.98-3.5,8.03,1.12-.97,2.43-2.28,3.99-3.02-.34,1.18-1.41,1.67-1.75,2.9,1.04-.58,2.44-1.33,3.81-1.63-.1.67-2.78,3.78-3.6,5.3.35-1.49.16-2.21,1.03-3.37-.78.18-2.12,1.54-3.2,2.1.42-1.13.83-1.88,1.49-2.77-.68.33-1.23.95-3.02,3.05,0-.51-.4-2.5-.4-2.56-.41.41-.63.6-.74.67l-.18.33Z" fill="#59b351"/>
      <path d="M149.13,129.14c.28-2.74.85-6.28,1.63-9.06-1.11,1.75-2.7,6-2.9,8.94-.54-1.49-1.69-4.36-2.48-5.56-1.07-1.64-2.27-3.06-3.68-4.35,1.89,2.38,4.47,7.87,4.59,10.57-1.83-1.96-3.96-3.61-7.01-4.35,1.81,1.13,5.3,3.33,6.34,5.44-1.59-.75-2.85-1.83-4.65-2.36.68.71,3.5,2.17,4.29,3.87-.89-.15-1.63-.46-2.66-.48.3.52,1.29.89,1.75,1.45-.4.07-2.24-1.28-2.54-1.63.68-.59,1.63-.12,2.54,0-.94-1.26-3.93-3.2-5.01-3.93,1.86.12,3.44,1.03,4.83,1.81-.97-1.2-5.77-4.67-7.01-5.13,3.7.59,6.52,2.05,8.58,4.35-.34-2.95-4.01-9.71-5.92-11.36,1.12.3,1.7,1.04,2.48,1.87.77.83,1.6,1.47,2.3,2.36,1.4,1.78,2.44,3.98,3.2,6.28.14-1.82.59-3.55,1.27-5.14.66-1.55,1.32-3.13,2.42-4.23-.33,1.86-1.65,7.74-1.87,8.82.43-.45,3.1-4.87,5.38-6.16-.39,1.15-2.71,5.98-3.5,8.03,1.12-.97,2.43-2.28,3.99-3.02-.34,1.18-1.41,1.67-1.75,2.9,1.04-.58,2.44-1.33,3.81-1.63-.1.67-2.26,2.89-3.08,4.41.35-1.49,1.48-2.7,2.35-3.87-.78.18-2.67,1.32-3.75,1.87.42-1.13,1.03-2.07,1.69-2.96-.68.33-2.14,1.59-3.92,3.69,0-.51.12-1.04.3-1.51.9-2.39,2.04-4.68,3.08-6.89-1.66,1.59-4.15,4.77-5.07,6.95" fill="#345629"/>
      <path d="M71.68,120.77c-2.3,1.38-3.78,2.85-4.8,4.03l-1.35.31c-.42-.91-2.08-.6-3.6.63-.06-.52-.17-4.41-1.94-.39-.5-.23-.47-4.53-1.22-.51-.87-.47-1.44-1.3-1.55.23,0,.09-.71-2.81-1.8-4.36-.1-.14,2.16,1.1,2.73,1.86.93-3.16,2.17-7.28,6.56-10.05-.91,1.54-3.29,6.67-4.07,9.7,1.15-1.33,4.2-5.12,9.47-6.22-3.86,3.35-6.62,7.49-6.62,7.55,1.12-.68,2.44-1.33,3.84-1.8,1.38-.46,2.86-1.02,4.36-.99" fill="#51a249"/>
      <path d="M64.85,122.81c.78-.4,1.61-.76,2.48-1.05,1.38-.46,2.86-1.02,4.36-.99-.98.58-1.8,1.19-2.51,1.77-.71.19-1.41.44-2.09.67-1.2.4-2.35.94-3.36,1.52-.13.04-.26.09-.4.15.19-.29.73-1.07,1.52-2.08" fill="#62bc58"/>
      <path d="M60.97,121.85c1.34-1.56,4.31-4.84,9.15-5.84-.73.64-1.42,1.3-2.07,1.96-4.16,1.47-6.63,4.54-7.64,5.71.14-.55.34-1.17.57-1.83" fill="#62bc58"/>
      <path d="M56.5,122.9c-.29-.76-.66-1.58-1.09-2.18-.1-.14,2.16,1.1,2.73,1.86.93-3.16,2.17-7.28,6.56-10.05-.25.43-.62,1.13-1.03,1.99-3.76,2.75-4.91,6.56-5.78,9.52-.25-.34-.84-.76-1.4-1.13" fill="#62bc58"/>
      <path d="M71.68,120.77c-2.3,1.38-3.78,2.85-4.8,4.03l-.62.15c1.1-1.63,2.85-2.87,4.32-3.77-2.65.61-6.19,2.05-8.25,3.72-.06-.52,2.29-3.6,3.2-4.71,1.2-1.46,2.74-2.6,4.07-3.89-4.06,1.74-7.76,3.82-9.53,7.84-.5-.23,2.12-8.05,3.78-10.57-2.74,2.03-4.65,5.69-5.4,9.7-.87-.47-1.2-1.47-2.15-1.86.28.89,1.05,2.13.93,3.66,0,.09-.71-2.81-1.8-4.36-.1-.14,2.16,1.1,2.73,1.86.93-3.16,2.17-7.28,6.56-10.05-.91,1.54-3.29,6.67-4.07,9.7,1.15-1.33,4.2-5.12,9.47-6.22-3.86,3.35-6.62,7.49-6.62,7.55,1.12-.68,2.44-1.33,3.84-1.8,1.38-.46,2.86-1.02,4.36-.99" fill="#0e3f1d"/>
      <path d="M114.23,124.61c.4-.27.82-.54,1.27-.81-1.48-.03-2.95.35-4.37.8,1.03,0,2.07,0,3.1,0" fill="#51a249"/>
      <path d="M102.8,132.16c1.11,0,2.22,0,3.33,0,1.07-1.36,2.65-3.18,4.52-4.81-3.93.81-6.49,3.29-7.85,4.8" fill="#51a249"/>
      <path d="M102.32,132.16c.86-2.77,2.7-6.69,3.44-7.96-3.46,2.18-4.76,5.3-5.59,7.96.72,0,1.44,0,2.15,0" fill="#51a249"/>
      <path d="M103.88,132.16c1.19-1.09,2.8-2.29,4.9-3.03.58-.6,1.21-1.2,1.87-1.77-3.93.81-6.49,3.29-7.85,4.8.36,0,.72,0,1.08,0" fill="#62bc58"/>
      <path d="M100.4,132.16c.79-2.12,2.01-4.39,4.44-6.16.37-.78.7-1.41.93-1.8-3.46,2.18-4.76,5.3-5.59,7.96h.23Z" fill="#62bc58"/>
      <path d="M100.52,132.16c.85-2.91,2.39-5.48,4.45-7.01-.93,1.42-2.2,4.69-2.92,7.01h.27c.86-2.77,2.7-6.69,3.44-7.96-3.46,2.18-4.76,5.3-5.59,7.96h.35Z" fill="#0e3f1d"/>
      <path d="M102.8,132.16c.13,0,.26,0,.39,0,1.78-2.06,4.3-3.39,6.99-4.54-1.2,1.17-2.59,2.2-3.68,3.52-.21.25-.49.61-.81,1.02h.44c1.07-1.36,2.65-3.18,4.52-4.81-3.93.81-6.49,3.29-7.85,4.8" fill="#0e3f1d"/>
    </g>
  </g>
</svg>