<?xml version="1.0" encoding="UTF-8"?>
<svg id="Layer_2" data-name="Layer 2" xmlns="http://www.w3.org/2000/svg" width="92.86" height="92.86" xmlns:xlink="http://www.w3.org/1999/xlink" viewBox="0 0 92.86 92.86">
  <defs>
    <clipPath id="clippath">
      <rect y="0" width="92.86" height="92.86" fill="none"/>
    </clipPath>
    <clipPath id="clippath-1">
      <path d="M52.16,34.35c.73,1.78,4.94,10.14,4.94,10.14,0,0,10.2-.34,13.8-1.91-2.88-2.85-10.03-9.25-10.03-9.25,0,0-4.38.77-8.71,1.03" fill="none"/>
    </clipPath>
    <linearGradient id="linear-gradient" x1="-103.38" y1="206.65" x2="-102.38" y2="206.65" gradientTransform="translate(1989.67 3911.75) scale(18.74 -18.74)" gradientUnits="userSpaceOnUse">
      <stop offset="0" stop-color="#fff"/>
      <stop offset="1" stop-color="#00a3e3"/>
    </linearGradient>
    <clipPath id="clippath-2">
      <rect y="0" width="92.86" height="92.86" fill="none"/>
    </clipPath>
    <clipPath id="clippath-3">
      <rect y="0" width="92.86" height="92.86" fill="none"/>
    </clipPath>
  </defs>
  <g id="Layer_1-2" data-name="Layer 1">
    <rect y="0" width="92.86" height="92.86" fill="#fff"/>
    <polygon points="4.24 0 4.72 3.42 4.18 13.91 92.86 13.91 92.86 0 4.24 0" fill="#9cd1f1"/>
    <rect y="31.4" width="92.86" height="45.74" fill="#a9a3a1"/>
    <rect y="31.4" width="92.86" height="3.5" fill="#7a7879"/>
    <rect y="29.59" width="85.96" height="2.24" fill="#6e6664"/>
    <rect y="29.59" width="85.96" height="2.08" fill="#c5c2a7"/>
    <rect y="29.59" width="85.96" height=".82" fill="#fff"/>
    <rect y="29.59" width="85.96" height=".66" fill="#e2dfc7"/>
    <rect y="22.58" width="85.96" height="7.16" fill="#98918f"/>
    <rect y="22.43" width="85.96" height="7.16" fill="#c6c1c0"/>
    <polygon points="31.44 29.74 29.58 30.31 29.58 31.67 29.38 31.67 29.38 30.24 31.12 29.74 31.44 29.74" fill="#aaa681"/>
    <polygon points="0 80.98 85.28 80.97 85.28 76.43 0 76.33 0 80.98" fill="#6e6664"/>
    <polygon points="0 80.77 86.83 80.76 86.83 76.43 0 76.33 0 80.77" fill="#c5c2a7"/>
    <polygon points="0 78.83 86.94 78.82 86.94 76.43 0 76.33 0 78.83" fill="#98918f"/>
    <polygon points="0 78.52 87.79 78.53 87.79 76.43 0 76.33 0 78.52" fill="#e2dfc7"/>
    <polygon points="0 78.82 0 92.86 86.29 92.86 86.29 78.8 0 78.82" fill="#c6c1c0"/>
    <polygon points="10.69 78.51 14.95 76.3 15.83 76.3 11.17 78.51 10.69 78.51" fill="#aaa681"/>
    <polygon points="58.15 78.53 61.29 76.3 61.74 76.3 58.6 78.53 58.15 78.53" fill="#aaa681"/>
    <polygon points="33.65 78.52 33.65 78.38 37.09 76.3 37.84 76.3 33.95 78.52 33.65 78.52" fill="#aaa681"/>
    <polygon points="77.89 78.73 81.03 76.5 81.48 76.5 78.34 78.73 77.89 78.73" fill="#aaa681"/>
    <rect x="0" y="76.32" width="85.28" height=".34" fill="#5a524f"/>
    <polygon points="43.74 29.76 41.88 30.33 41.88 31.69 41.69 31.69 41.69 30.26 43.42 29.76 43.74 29.76" fill="#aaa681"/>
    <polygon points="55.88 29.75 54.02 30.32 54.02 31.68 53.83 31.68 53.83 30.25 55.57 29.75 55.88 29.75" fill="#aaa681"/>
    <polygon points="68.19 29.77 66.33 30.34 66.33 31.7 66.13 31.7 66.13 30.27 67.87 29.77 68.19 29.77" fill="#aaa681"/>
    <polygon points="6.67 29.7 4.81 30.27 4.81 31.63 4.62 31.63 4.62 30.19 6.36 29.7 6.67 29.7" fill="#aaa681"/>
    <polygon points="18.98 29.71 17.12 30.29 17.12 31.65 16.93 31.65 16.93 30.21 18.66 29.72 18.98 29.71" fill="#aaa681"/>
    <polygon points="79.75 29.75 77.89 30.32 77.89 31.68 77.7 31.68 77.7 30.25 79.43 29.75 79.75 29.75" fill="#aaa681"/>
    <polygon points="58.76 49.23 56.27 50.1 70.27 50.1 72.89 49.23 58.76 49.23" fill="#fff"/>
    <polygon points="33.85 49.19 31.36 50.06 45.36 50.06 47.98 49.19 33.85 49.19" fill="#fff"/>
    <polygon points="2.69 49.22 .19 50.1 14.19 50.1 16.81 49.22 2.69 49.22" fill="#fff"/>
    <g clip-path="url(#clippath)">
      <path d="M75.75,81.19c.49.1,1.36.18,1.69-.2-.33-.27-1.54-.26-1.69.2M76.17,80.69c.34-.09,1.67-.33,1.55.37-.09.51-2.26.6-2.3.07-.02-.22.28-.32.75-.44M77.81,82.76l.21-.02c.06.1.02.15.09.32-.25.03-.36-.14-.3-.3M74.16,82.72c.22-.04.35.21.26.35-.25.07-.35-.21-.26-.35M83.25,82.81c-.17-.01-.28-.08-.3-.25.2-.16.44.06.3.25M80.85,79.97c.09.06.11.3.04.37-.18-.01-.3-.09-.3-.3.06-.04.13-.07.26-.07M71.63,81.81c0,.41-1.22.5-1.28.07.35-.08.79-.15,1.28-.07M25.44,89.02c.49.1,1.36.18,1.69-.2-.33-.27-1.54-.26-1.69.2M25.87,88.51c.34-.09,1.67-.32,1.55.37-.09.51-2.26.6-2.3.07-.02-.22.28-.32.75-.44M4.91,90.5c.49.1,1.36.18,1.69-.2-.33-.27-1.54-.26-1.69.2M5.34,90c.34-.09,1.67-.33,1.55.37-.09.51-2.25.6-2.3.07-.02-.22.28-.32.75-.44M1.75,90.69l.03.23c-.27.06-.27-.16-.5-.14.07-.16.33-.18.47-.09M22.38,89.04c-.17-.01-.28-.08-.3-.25.2-.16.44.06.3.25M2.48,85.27c.09.06.11.29.05.37-.18-.01-.3-.09-.31-.3.06-.04.14-.07.26-.07M8.24,86.35c.5.15.81-.21,1.24.03-.08.33-.98.39-1.26.21-.03-.11-.01-.18.03-.24M13.23,84l.03.23c-.26.06-.27-.16-.5-.14.07-.16.33-.18.47-.09M4.65,80.5l.21-.02c.06.1.02.15.09.32-.25.03-.36-.14-.31-.3M9.36,81.26c.22-.04.35.21.26.35-.25.07-.35-.21-.26-.35M.62,79.99c.09.06.12.29.05.37-.18-.01-.3-.09-.31-.3.06-.04.13-.07.26-.07M15.15,85.61c.21-.04.25.11.25.3-.23.06-.34-.18-.25-.3M18.89,89.94c-.07.09-.21.14-.24.25.37.16.77.15,1.18-.01-.06-.27-.56-.06-.72-.21.32-.09.7-.1.97,0,.04.68-1.38.61-1.69.25.14-.19.23-.25.5-.28M41.54,90.28c.09.06.11.29.04.37-.18-.01-.3-.09-.3-.3.06-.04.13-.07.26-.07M23.26,82.14c.49.1,1.36.18,1.69-.2-.33-.27-1.54-.26-1.69.2M23.68,81.63c.34-.09,1.67-.33,1.55.37-.09.51-2.26.6-2.3.07-.02-.22.28-.32.75-.44M18.81,80.61l.03.23c-.26.06-.27-.16-.5-.14l.47-.09ZM66.1,84.15c.49.1,1.36.18,1.69-.2-.33-.27-1.54-.26-1.69.2M66.52,83.65c.34-.09,1.67-.33,1.55.37-.09.51-2.25.6-2.3.07-.02-.22.28-.32.75-.44M58.57,80.14c.49.1,1.36.18,1.69-.2-.33-.27-1.54-.26-1.69.2M58.99,79.64c.34-.09,1.67-.33,1.55.37-.09.51-2.25.6-2.3.07-.02-.22.28-.32.75-.44M63.39,87.38c.49.1,1.36.18,1.69-.2-.33-.27-1.54-.26-1.69.2M63.81,86.87c.34-.09,1.67-.32,1.55.37-.09.51-2.25.6-2.3.07-.02-.22.28-.32.75-.44M58.68,84.09c-.07.54,1.73.51,1.99.05-.51-.17-1.4-.35-1.99-.05M60.86,83.89c.04.11.1.2.1.36-.62.38-2.4.72-2.59-.14-.06.02-.18,0-.24.02.22-.33,1.6-.56,2.08-.28.26-.04.48-.03.65.03M22.81,85.61c.1.32-.42.48-.86.47v-.21c.14.02.32.03.57-.05-.13-.11-.33-.14-.57-.13.26-.18.62-.16.86-.08M73.81,86.28c.51-.35,1.36-.43,2.15-.38-.47,0-1.51.31-2.15.38M74.87,86.92c.21-.07.28.17.19.26-.23.08-.28-.16-.19-.26M36.44,88.39l.27-.02.03.23c-.16.05-.1.04-.26.02l-.03-.23ZM50.93,87.11c.15.51-1.26.62-1.41.27.32-.18.52.13,1.12-.06-.16-.14-.44-.15-.77-.12.24-.2.75-.2,1.06-.1M42.46,84.34c.1.63-1.78.74-1.49.14.36.14.77.32,1.18.03-.17-.06-.42-.04-.65-.03.13-.17.74-.28.95-.13M57.54,85.91c.5.15.81-.21,1.24.03-.08.33-.98.39-1.26.21-.03-.11-.01-.18.02-.24M62.93,84.34l.03.23c-.27.06-.27-.16-.5-.14.07-.16.33-.18.47-.09M54.48,84.09c-.42.18-1.01.15-1.79.26-.08-.17.09-.16.13-.24.57.07,1-.03,1.66-.01M31.76,88.51c.44.22,1.05.02,1.37-.17-.15-.37-1.35-.19-1.37.17M33.38,88.13c.08.66-1.93,1-1.89.31.03-.49,1.56-.63,1.89-.31M34.68,84.45c.17.04.39.04.45.19-.13.03-.13-.07-.27-.02.03.44.74.33.98.14-.09-.26-.36-.12-.51-.23.26-.15.63-.16.76.07-.02.54-1.13.67-1.46.32-.07-.22.04-.31.05-.47M54,82.78c-.54-.15-1.61.25-2.28.25.44-.35,1.74-.56,2.28-.25M46.69,83.5c.22.18.9.25.95-.13-.26-.19-.87-.12-.95.13M47.95,83.34c-.16.57-1,.55-1.46.36l-.04-.32c.38-.24,1.14-.39,1.5-.04M60.63,81.71l.21-.02c.06.1.02.15.09.32-.25.03-.36-.14-.3-.3M56.98,81.67c.22-.04.35.21.26.35-.25.07-.35-.21-.26-.35M66.07,81.76c-.17-.01-.28-.08-.3-.25.2-.16.45.06.3.25M46.88,82.04c-.06.07-.19.08-.26.03-.05-.19.29-.3.26-.03M36.32,82.07l-.32.03c-.06-.27.39-.34.32-.03M44.53,80.71c-.03.16.12.19.03.28-.3.09-.4-.31-.03-.28M63.67,78.92c.09.06.11.29.04.37-.18-.01-.3-.09-.31-.3.06-.04.14-.07.26-.07M54.44,80.76c0,.41-1.22.5-1.28.07.35-.08.79-.15,1.28-.07M30.88,81.87c.5.1,1.36.18,1.69-.2-.33-.27-1.54-.26-1.69.2M31.3,81.36c.34-.09,1.67-.33,1.55.37-.09.51-2.25.6-2.3.07-.02-.22.28-.32.75-.44M34.6,80.69s.09.04.17.03c.01.12.06.27-.07.28-.22.01-.2-.24-.09-.32M53.53,90.66c.29-.07,1.3-.26,1.51.12h-1.92c.11-.04.25-.08.41-.12M48.66,90.65l.03.23c-.26.06-.27-.16-.5-.14l.47-.09ZM74.37,90.76c-.36-.04-.27-.66.03-.74.07-.08-.02.63-.03.74M61.15,90.39c.34-.09,1.67-.33,1.55.37l-.37.02c-.2-.33-1.24-.34-1.53,0h-.39c.03-.19.32-.28.75-.39M64.44,90.73c-.11.08-.13-.69.09-.7.13-.02.09.86.07.73-.07,0-.12-.01-.16-.03" fill="#a9a3a1" fill-rule="evenodd"/>
      <rect x="85.6" y="29.57" width="13.72" height="2.24" fill="#6e6664"/>
      <rect x="85.6" y="29.57" width="13.72" height="2.1" fill="#c5c2a7"/>
      <rect x="85.6" y="29.57" width="13.72" height=".82" fill="#fff"/>
      <polygon points="99.32 30.24 85.55 30.24 85.6 29.57 99.32 29.57 99.32 30.24" fill="#e2dfc7"/>
      <polygon points="85.6 22.57 99.32 22.57 99.32 29.74 85.54 29.74 85.6 22.57" fill="#98918f"/>
      <polygon points="85.21 22.41 99.32 22.41 99.32 29.59 85.24 29.59 85.21 22.41" fill="#c6c1c0"/>
      <polygon points="86.51 80.97 85.68 76.31 99.32 76.32 99.32 80.96 86.51 80.97" fill="#6e6664"/>
      <polygon points="86.4 80.95 85.68 76.31 99.32 76.32 99.32 80.94 86.4 80.95" fill="#c5c2a7"/>
      <polygon points="85.68 78.82 85.68 76.31 99.32 76.32 99.32 78.81 85.68 78.82" fill="#98918f"/>
      <polygon points="84.44 78.5 84.44 76.31 99.32 76.32 99.32 78.5 84.44 78.5" fill="#e2dfc7"/>
      <rect x="85.68" y="78.8" width="13.64" height="22.14" fill="#c6c1c0"/>
      <rect x="84.02" y="76.31" width="15.31" height=".34" fill="#5a524f"/>
      <polygon points="94.1 29.68 92.24 30.25 92.24 31.61 92.05 31.61 92.05 30.17 93.79 29.68 94.1 29.68" fill="#aaa681"/>
      <polygon points="99.32 50.08 86.31 50.08 88.8 49.21 99.32 49.21 99.32 50.08" fill="#fff"/>
      <path d="M92.34,90.48c.49.1,1.36.18,1.69-.2-.33-.27-1.54-.26-1.69.2M92.76,89.98c.34-.09,1.67-.33,1.55.37-.09.51-2.26.6-2.3.07-.02-.22.28-.32.75-.44M89.18,90.67l.03.23c-.27.06-.27-.16-.5-.14.07-.16.33-.18.47-.09M89.91,85.25c.09.06.12.29.04.37-.18-.01-.3-.09-.3-.3.06-.04.14-.07.26-.07M95.67,86.33c.5.15.81-.21,1.24.03-.08.33-.98.39-1.26.21-.03-.1-.01-.18.03-.23M92.08,80.48l.21-.02c.06.1.02.15.09.32-.25.03-.36-.14-.3-.3M96.79,81.24c.22-.04.35.21.26.35-.25.07-.35-.21-.26-.35M88.05,79.97c.09.06.11.3.04.37-.18-.01-.3-.09-.3-.3.06-.04.13-.07.26-.07" fill="#a9a3a1" fill-rule="evenodd"/>
      <path d="M-34.68,4.92c3.25-.93,6.3-1.4,10.5-2.03,3.28-.5,5-1.16,8.28-1.6C-4.07-.36,2.84-.69,14.65.64c7.38.82,11.55,1.41,18.95,2.12,4.22.4,6.56.85,10.77,1.61,9.58,1.76,15.02,1.69,24.73,2.01,11.21.35,17.51.02,28.63-1.38,3.48-.42,5.43-.75,8.9-1.29,6.29-.98,9.98.01,16.16-1.49,5.02-1.22,7.93-2.08,13.07-1.96,3.39.06,5.21.73,8.61,1.09.44.04.88.02,1.3-.01l.53,10.09h-.24c-14.38.77-22.48,1.17-36.86,1.93-8.42.44-13.14.35-21.58.4-5.65.05-8.78.6-14.42.9-3.99.21-6.29.19-10.3.12-15.26-.37-23.77,1.85-38.98,2.65l-2.41.13c-5.74.3-8.94.72-14.68,1.02l-3.05.16c-8.11.42-12.72.49-20.83.91l-2.34.12c-4.71.25-7.33,1.02-12.04,1.27-.85.04-1.66.08-2.43.11l-.85-16.21Z" fill="#527839"/>
      <path d="M-34.66,5.18c3.25-.93,6.3-1.4,10.5-2.03,3.28-.49,5-1.16,8.28-1.6C-4.06-.11,2.85-.44,14.66.9c7.38.82,11.55,1.41,18.95,2.12,4.23.4,6.56.85,10.78,1.61,9.58,1.76,15.02,1.69,24.73,2.01,11.21.35,17.51.02,28.63-1.38,3.48-.42,5.43-.75,8.9-1.29,6.29-.98,9.98.01,16.16-1.49,5.02-1.22,7.93-2.08,13.07-1.96,3.39.06,5.21.73,8.61,1.09.44.04.88.02,1.3-.01l.52,9.83h-.24c-14.38.77-22.48,1.17-36.86,1.93-8.42.44-13.14.35-21.58.4-5.65.05-8.78.6-14.42.9-3.99.21-6.29.19-10.3.12-15.26-.37-23.77,1.85-38.97,2.65l-2.41.13c-5.73.3-8.94.72-14.68,1.02l-3.05.16c-8.11.42-12.72.49-20.83.91l-2.34.12c-4.71.25-7.33,1.02-12.04,1.27-.85.04-1.66.08-2.43.11l-.84-15.95Z" fill="#9aca3c"/>
      <path d="M-34.66,5.18c3.25-.93,6.3-1.4,10.5-2.03,3.28-.49,5-1.16,8.28-1.6C-6.13.18.28-.28,8.84.35c-.6.4-1.21.85-1.83,1.38-2.06,1.72,3.41,3.65,6.04,3.88,6.38.58,14.36,3.11,23.11,1.82,11.12-1.54,12.75.26,23.9-.75,1.29-.12,2.42-.17,3.49-.21,1.72.05,3.55.1,5.56.17,11.21.35,17.51.02,28.63-1.38.54-.06,1.05-.13,1.53-.19-1.08.37-2.2.83-3.39,1.44-.38.19-1.12.1-1,.49.47,1.47,2.23,1.18,3.78,1.21,4.01.14,6.19-1.16,10.18-1.51,6.94-.61,12.19-2.35,17.44-4.01.41-.41.88-.74,1.36-.91,1.43-.51,2.49-.82,3.68-1.08,1.38-.15,2.84-.22,4.54-.18,2.08.04,3.57.31,5.2.59-5.46.57-9.89,1.9-14.29,3.3.02.02.04.04.08.07,2.9,2.01,5.55.65,9.12.59,3.88-.06,6.97.14,10,.32l.15,10.91s-23.6.15-37.97.9c-8.42.44-12.1-3.49-20.54-3.44-5.65.05-25.13,10.06-29.13,9.99-15.26-.37-19.36-7.13-34.56-6.33l-2.41.13c-5.73.3-8.94.72-14.68,1.02l-3.05.16c-8.11.42-12.72.49-20.83.91l-2.34.12c-4.71.25-7.33,1.02-12.04,1.27-.85.04-1.66.08-2.43.11l-.84-15.95Z" fill="#80c342"/>
      <rect x="-16.05" y="18.65" width="117.43" height="6.3" fill="#a7a7b0"/>
      <path d="M99.77,11.18c.36-.51,1.28-.37,1.61.04v11.32c-.55,0-1.1,0-1.65,0-1.17-.03-2.46.05-3.78.07-2.4.04-4.83-.48-6.69-.53-2.21-.05-3.11.39-4.84.3-.55-.29.03-1.33-.25-1.65-.29.45-.42,1.05-.94,1.28-.13-1.01-.56-1.71-1.3-2.1.26.56.93,1.29.71,1.91-.54-.09-.66-.6-1.25-.64.12.27.3.48.26.92-.76.34-2.1-.27-3.05,0-.3.08-.42.38-.67.41-.33.04-.69-.24-1.12-.31-1.13-.17-2.07.27-3.05.33-1.09.07-2.24.01-3.18.13-.24.03-.5.17-.73.15-.39-.03-.76-.37-1.19-.37-.86-.01-1.78.34-2.65.38-.93.04-1.82-.34-2.65-.35-.62,0-1.16.09-1.7.19,0,0-1.1.35-1.63.35-1.27,0-2.52-.51-3.84-.58-1.72-.1-3.6.54-5.04.3-.11-.26.14-.51,0-.86-.32.06-.21.55-.54.61-.37-.3-.36-.99-.92-1.11-.04.46.11.72.05,1.19-1.08.08-2.13-.48-3.25-.07-.2.07-.26.25-.47.27-.58.08-1.26-.33-1.92-.29-.68.03-1.36.52-1.93.57-.7.06-1.34-.57-2.11-.69-.45-.07-.95-.04-1.33-.04-1.79.02-4,.17-6.16.12-1.17-.02-2.46.05-3.78.07-2.4.04-4.83-.48-6.69-.53-2.21-.05-3.1.39-4.84.29-.56-.28.03-1.33-.25-1.65-.29.45-.42,1.05-.94,1.28-.13-1.01-.56-1.71-1.3-2.09.26.56.93,1.29.71,1.91-.53-.09-.66-.6-1.25-.64.12.27.3.48.26.92-.76.34-2.1-.27-3.05,0-.3.08-.42.38-.67.41-.33.04-.69-.24-1.12-.31-1.14-.17-2.07.27-3.05.33-1.09.07-2.24.01-3.18.13-.24.03-.5.17-.73.15-.39-.03-.76-.37-1.19-.37-.85-.01-1.78.34-2.65.39-.93.04-1.82-.34-2.65-.34-1.07-.01-1.9.28-2.85.39-1.17.13-3.21.61-4.38.49-.22-.02-.38-.19-.6-.19-.35,0-1,.34-1.32.09-.51-.39.15-.96.21-1.46-.24-.02-.51,0-.6-.19.06-.3.43-4.74.64-4.94-.48-.34-.3-1.06.08-1.39-.7-.14-.27-1.03.08-1.26-.32-.97.82-.94.81-1.67.26-.15.65-.16,1.06-.15.13-.54.65-.7,1.07-.95.03-.3.23-.66.54-.74.27-.07.4.16.86.18.3.01.39-.18.6-.08.31.14.22.53.46.59.42-.53,1.44-.22,1.59.3.64-.59,1.78-.15,2.05.42.32-.18.5-.49,1-.48.27.04.29.32.53.39.75-.29,1.34-.21,1.99.09.09-.62,1.19-.79,1.66-.43.31-.26.66-.47,1.26-.42.2.26.41.5.39.99.18-.14.39-.24.73-.21.17.13.29.31.39.52.38-.15.68.02,1.13-.02.19-1.11,1.99-1.41,2.66-.58.45-.7,1.54-.36,1.79.23.61-.13,1.38-.26,1.79.1.14-.7,1.03-.75,1.6-.5.12-.39.19-.84.47-1.07.56-.06.76.24.99.51.51-.79,1.79-.59,1.78.5.23-.13.47-.25.86-.22.23.11.26.44.53.52.3-.15.72-.3,1.13-.15-.05-.34.08-.51.14-.73.6-.51,1.2.08,1.59.37.31-.82,1.62-.72,1.72.16.36-.28,1.15-.14,1.39.11.26-.86,1.64-.54,1.86.09.35-.45,1.37-1.1,1.59-.23.69-.29,1.41.03,1.92.29.07-.29.24-.48.4-.67.31,0,.65-.04.86.05.39-.84,1.65-.51,1.99.09.38-.54,1.37-.35,1.66.1.12-.33.43-.47.73-.61.93.12,1.45-.65,2.39-.31.29-1.79,1.87-.94,1.85.36.4-.23.73-.35,1.13-.15.16.4.11.59.06.99.52-.12.82-.22,1.39-.16.32-.5,1.21-.45,1.86-.3.5-.95,1.85-.69,1.85.49.47-.2.9-.45,1.53-.49.21.05.23.3.33.46.6.03,1.01.25,1.39.5-.03-.79,1-.92,1.46-.49.2-1.27,1.51-.81,1.72.1.39-.41,1.09-.2,1.39.17.27-.45.84-.99,1.53-.63.48-.74,1.58-.45,1.99.09.59-.54,1.12.18,1.38.7.14-.26.34-.47.6-.61.27.08.59.1.79.25.13-.4.43-.58.75-.6.47-.11,1.07.16,1.18.55.64-.59,1.78-.15,2.05.42.32-.18.5-.49,1-.48.27.04.29.32.53.39.75-.29,1.34-.21,1.99.09.09-.62,1.19-.79,1.66-.43.31-.25.66-.46,1.26-.42.2.26.41.5.39.99.18-.14.39-.24.73-.21.17.13.3.31.39.52.38-.15.67.02,1.13-.02.19-1.11,1.99-1.41,2.66-.58.45-.7,1.54-.36,1.79.23.61-.13,1.38-.26,1.79.1.14-.7,1.02-.75,1.6-.5.12-.39.19-.84.47-1.07.56-.06.76.24.99.51.51-.8,1.79-.59,1.78.49.23-.13.47-.25.86-.22.23.11.26.44.52.52.3-.15.72-.3,1.13-.15-.05-.34.07-.5.14-.73.6-.51,1.2.08,1.59.37.31-.82,1.62-.72,1.72.16.36-.28,1.14-.13,1.39.1.26-.86,1.64-.54,1.86.1.35-.45,1.37-1.1,1.59-.23.69-.3,1.4.03,1.92.29.07-.29.24-.48.4-.67.31,0,.65-.04.86.05.39-.84,1.64-.51,1.99.09" fill="#25611e"/>
      <path d="M61.66,22.23s-1.54.43-2.23.39c-.77-.04-1.46-.28-2.25-.42-1.8-.31-3.56.29-5.7.25-.16-.55.03-1.11-.12-1.59-.46.15-.33.88-.74,1.07-.33-.35-.68-1.01-1.25-.9.09.56.13.83.05,1.26-1.19-.09-2.56-.32-3.51.2-1.1-.56-2.26-.03-3.51.14-1.05.14-1.38-.52-2.18-.62-1.4-.17-3.09.09-4.71.03-2.81-.1-5.5.18-8.15.1-1.66-.05-3.24-.45-4.76-.57-1.91-.15-3.42.45-5.17.3-.25-.75.21-1.71.15-2.26-.66.33-.78,1.19-1.34,1.62-.35-.7-.97-1.81-1.77-1.62.13.57.69,1.05.65,1.58-.29-.23-.87-.52-1.32-.37-.08.28.37.53.39.92-.81.2-1.82-.15-2.72.05-.35.08-.54.38-1,.29-.62-.14-1.05-.36-1.79-.3-1.72.15-4.18.51-6.04.52-1.05-.71-2.74.18-4.51.02-.59-.05-1.27-.35-1.79-.36-2.32-.04-5.21,1.19-7.23.87-.62-.1-1.35.13-1.92-.16.12-.4.34-.69.41-1.13,0-.23-.4-.03-.39-.26.17-.24.02-4.01.17-4.27,0-.31.47-.16.47-.47-.16-.27-.56-.31-.59-.72.16-.27.43-.42.6-.68-.09-.26-.68-.29-.52-.59-.04-.39.5-.22.53-.54.15-.22-.25-.32-.12-.73.17-.25.75-.11.93-.35.03-.25-.27-.17-.19-.46.42-.25.93.14,1.19.04-.12-.84.46-.98,1.07-1.08-.31-.83.88-1.02,1.06-.35.26.04.06-.39.33-.34.41.05.33.58.59.78.29-.35.91-.62,1.33-.29.22.29-.22.51.06.66.49-.29,1.05-.78,1.79-.43.2.21.2.63.52.72.41-.15.49-.63,1.13-.55.11.15-.03.56.19.59.5-.74,1.92-.49,2.32.09.05-.87,1.2-1.28,1.53-.43.25-.49.52-.53,1-.75.55.19.39.65.45,1.18.37-.13.59-.43,1.06-.29,0,.23-.03.46.13.53.6-.23,1.17-.1,1.65.1.04-.21-.12-.23-.06-.46.28-.33.56-.77,1.07-.82.59-.05.9.36,1.25.71.21-.32.57-.51.93-.68.12.2.42.24.53.45.05.24-.28.46,0,.53.64-.54,1.84-.5,2.39.02.07-.21.03-.44.2-.67.47-.33.99-.01,1.32.17.26-.32.14-1.02.54-1.2.32-.11.46.48.79.58.57-.96,1.84-.57,1.45.63.31-.21.61-.42,1.07-.49.29.08.29.45.46.65.46-.51,1.31-.07,1.66-.5.01-.21-.04-.49.07-.6.7-.35.85.4,1.12.71.37-.27.64-.88,1.13-.82.51.07.36.59.52.98.53-.63,1.36-.45,1.72.16.07-1.03,1.47-1.1,1.59-.1.57-.15.7-.74,1.4-.76.26.22-.28.57.06.66.77-.73,1.89-.2,2.51.28.13-.28.01-.79.27-.93.48-.07.63.19.93.31.1-.14.05-.44.14-.6.36-.31.96,0,1.19-.02.04.27.03.59.19.72.44-.17.56-.61,1-.62.64,0,.57.62.85.98.22-.58.45-1.16,1.21-1.22.2.09.13.43.46.39.08-.27.04-.3.14-.6.53-.2,1.17-.09,1.59.17.13-.54.1-1.24.81-1.21.54.23.32,1.21.71,1.58.26-.21.63-.53,1.06-.35.13.46-.28.95-.01,1.13.39-.26,1.02-.42,1.59-.3.19.08.25.53.53.32.05-.34-.22-.39-.06-.66.65-.34,1.31.06,1.72.36.1-.22.07-.56.21-.73.25-.13.55-.18.86-.08.22.32.16.84.19,1.19.57-.2,1.19-.69,1.79-.63.26.24-.41.37-.14.6.79-.61,1.6.12,2.05.62.25-.2.09-.8.27-1.07.65-.29.93.26,1.25.5.2-.34.07-1.01.54-1.07.75.09.49,1.1.78,1.51.22-.38.36-.85.94-.88.38.12.45.55.72.78.36-.36.3-1.14,1.07-1.08.27.05.11.55.46.52.16-1.1,1.55-1.03,1.72-.03.86-1.11,1.06.33,1.58.63.31-.85,1.12-.82,1.66-.23.13-.16.02-.55.14-.73.2-.14.39-.19.55-.17.2-.03.41,0,.58.14.09.12.07.23.03.32.05.08.11.17.15.26.46-.29.99-.67,1.67-.35.2.21.2.63.52.72.41-.15.49-.63,1.13-.55.11.15-.03.56.19.59.5-.74,1.92-.49,2.32.09.05-.87,1.2-1.28,1.53-.43.24-.49.52-.53,1-.75.55.19.4.66.45,1.18.37-.13.59-.43,1.06-.29,0,.23-.02.46.13.53.6-.23,1.17-.1,1.66.1.03-.21-.12-.23-.06-.46.28-.32.56-.77,1.07-.82.59-.06.9.36,1.25.7.21-.32.57-.51.94-.68.12.2.42.24.52.45.05.24-.28.46,0,.53.64-.54,1.84-.5,2.39.02.07-.21.03-.44.21-.67.46-.33.99,0,1.32.17.26-.32.14-1.02.54-1.2.32-.11.46.48.79.58.57-.96,1.84-.57,1.45.63.31-.21.61-.42,1.06-.49.29.08.29.45.46.65.46-.52,1.31-.07,1.66-.5.02-.21-.04-.49.07-.6.7-.35.85.4,1.12.71.37-.28.64-.89,1.13-.82.51.07.36.59.52.98.53-.63,1.36-.45,1.72.16.07-1.03,1.47-1.1,1.59-.1.57-.15.7-.74,1.4-.76.26.22-.28.56.06.66.77-.73,1.89-.2,2.51.28.13-.28.01-.79.27-.93.48-.07.63.19.93.31.11-.14.05-.44.14-.6.36-.31.96,0,1.19-.02.04.27.02.59.19.72.44-.17.56-.61,1-.62.64,0,.57.62.85.98l.03,10.05c-2.36,0-4.64.19-6.88.12-1.66-.05-3.24-.45-4.76-.57-1.91-.15-3.42.46-5.17.3-.25-.75.21-1.71.15-2.26-.66.33-.78,1.19-1.34,1.62-.35-.7-.97-1.81-1.77-1.62.13.57.69,1.05.65,1.58-.29-.23-.87-.52-1.32-.37-.08.28.37.53.39.92-.81.2-1.82-.15-2.72.05-.35.08-.54.38-1,.29-.62-.14-1.05-.36-1.79-.29-1.72.15-4.18.51-6.03.52-1.05-.71-2.74.18-4.51.02-.59-.05-1.27-.35-1.79-.36-.58-.01-1.2.06-1.83.16" fill="#458e34"/>
      <path d="M101.38,11.99v1.39c-.39.04-.52.45-.94.61-.17-.14-.15-.46-.19-.72-.23.02-.84-.28-1.19.02-.09.16-.03.46-.14.6-.29-.12-.45-.38-.92-.31-.26.14-.15.66-.28.93-.63-.48-1.74-1.01-2.51-.28-.34-.1.2-.44-.06-.66-.7.02-.83.61-1.4.76-.13-1-1.52-.94-1.59.1-.36-.61-1.19-.79-1.72-.16-.15-.39,0-.91-.52-.98-.5-.07-.77.54-1.13.82-.27-.3-.42-1.05-1.12-.71-.11.11-.05.39-.07.6-.35.43-1.2-.02-1.66.5-.17-.2-.17-.58-.46-.65-.46.06-.76.28-1.07.49.38-1.2-.88-1.6-1.45-.63-.33-.1-.47-.69-.79-.58-.4.18-.28.88-.54,1.2-.34-.18-.86-.5-1.32-.17-.17.23-.13.46-.2.67-.55-.52-1.74-.55-2.39-.02-.27-.07.06-.28,0-.53-.11-.22-.4-.25-.53-.45-.37.17-.72.36-.93.68-.35-.35-.67-.76-1.25-.7-.51.05-.79.49-1.07.82-.06.23.1.25.06.46-.49-.21-1.05-.33-1.66-.1-.15-.06-.13-.3-.13-.53-.47-.14-.69.15-1.06.29-.06-.53.1-.99-.45-1.18-.48.22-.76.26-1,.75-.33-.85-1.48-.44-1.53.43-.4-.58-1.82-.83-2.32-.08-.22-.04-.08-.44-.19-.59-.64-.08-.72.4-1.13.55-.32-.09-.32-.5-.52-.72-.74-.35-1.31.14-1.79.43-.27-.15.16-.37-.06-.66-.15-.11-.32-.15-.49-.15-.31.04-.68.77-.79.91-.54-.59-1.35-.62-1.66.23-.52-.3-.72-1.74-1.58-.63-.17-.99-1.57-1.06-1.72.04-.35.02-.19-.47-.46-.52-.78-.05-.71.72-1.07,1.08-.27-.23-.35-.66-.72-.78-.58.03-.71.5-.94.88-.29-.41-.03-1.42-.78-1.51-.48.07-.34.74-.54,1.07-.33-.24-.61-.8-1.26-.51-.18.27-.02.87-.28,1.07-.45-.51-1.26-1.23-2.05-.62-.27-.23.4-.36.14-.6-.6-.06-1.22.43-1.79.63-.03-.35.03-.87-.19-1.19-.31-.1-.61-.04-.86.08-.14.17-.11.52-.21.73-.41-.3-1.07-.7-1.72-.36-.16.27.11.32.06.66-.27.21-.34-.24-.53-.32-.57-.12-1.2.04-1.59.3-.27-.18.14-.66.01-1.13-.44-.18-.81.15-1.06.35-.39-.37-.18-1.35-.71-1.58-.71-.03-.67.67-.81,1.21-.42-.26-1.06-.36-1.59-.17-.1.3-.06.33-.14.6-.33.04-.26-.3-.46-.39-.75.06-.98.63-1.2,1.22-.28-.35-.21-.98-.85-.98-.44,0-.56.44-1,.62-.17-.14-.15-.46-.19-.73-.23.03-.83-.28-1.19.02-.09.16-.03.46-.14.6-.29-.12-.45-.38-.92-.31-.26.15-.15.66-.27.93-.63-.48-1.74-1.01-2.51-.28-.34-.1.2-.44-.06-.66-.7.02-.83.6-1.4.76-.13-1-1.52-.94-1.59.1-.36-.61-1.19-.79-1.72-.16-.16-.39,0-.91-.52-.98-.5-.07-.77.54-1.14.82-.27-.31-.42-1.05-1.12-.71-.11.11-.06.39-.07.6-.35.43-1.2-.02-1.66.5-.17-.2-.17-.58-.46-.65-.46.06-.76.28-1.07.49.38-1.2-.88-1.6-1.45-.63-.33-.1-.47-.69-.79-.58-.4.18-.28.88-.54,1.2-.34-.18-.86-.51-1.32-.17-.17.23-.13.46-.2.67-.55-.52-1.74-.56-2.39-.02-.27-.07.05-.29,0-.53-.11-.22-.4-.25-.53-.45-.37.17-.72.36-.93.68-.35-.35-.67-.76-1.25-.7-.51.05-.79.49-1.07.82-.06.23.1.25.06.46-.49-.21-1.05-.33-1.66-.1-.15-.07-.13-.3-.13-.53-.47-.14-.69.15-1.06.29-.06-.53.1-.99-.45-1.18-.48.22-.76.26-1,.75-.33-.85-1.48-.44-1.53.43-.4-.58-1.82-.83-2.32-.09-.22-.04-.08-.44-.19-.59-.64-.08-.72.4-1.13.55-.32-.09-.32-.5-.52-.72-.74-.35-1.31.14-1.79.43-.27-.15.16-.37-.06-.66-.42-.33-1.04-.06-1.33.29-.26-.2-.18-.73-.59-.78-.28-.05-.07.38-.34.34-.18-.67-1.37-.47-1.06.35-.61.11-1.19.25-1.07,1.08-.26.1-.77-.29-1.19-.04-.07.29.22.21.19.46-.18.24-.76.1-.93.35-.13.4.28.51.12.73-.04.32-.57.15-.54.54-.16.3.43.33.52.59-.17.25-.6,3.66-.63,4.01-.07.53-.63.58-.61,1.21.15.12.37.16.61.18-.34,0-.68,0-.98-.15.12-.4.34-.69.41-1.13,0-.23-.4-.03-.39-.26.17-.24.02-4.01.17-4.27,0-.31.47-.16.47-.47-.16-.27-.56-.31-.59-.72.16-.27.43-.42.6-.68-.09-.26-.68-.29-.52-.59-.04-.39.5-.22.54-.54.15-.22-.25-.32-.12-.73.17-.25.75-.11.93-.35.03-.25-.27-.17-.19-.46.42-.25.93.14,1.19.04-.12-.83.46-.97,1.07-1.08-.31-.83.88-1.02,1.06-.35.26.04.06-.39.34-.34.4.05.33.58.59.78.29-.35.91-.62,1.33-.29.22.29-.22.51.06.66.49-.29,1.05-.78,1.79-.43.2.21.2.63.52.72.41-.15.49-.63,1.13-.55.11.15-.03.56.19.59.5-.74,1.92-.49,2.32.09.05-.87,1.2-1.28,1.53-.43.25-.49.52-.53,1-.75.55.19.4.66.45,1.18.37-.13.59-.43,1.06-.29,0,.23-.03.46.13.53.6-.23,1.17-.1,1.66.1.03-.21-.12-.23-.06-.46.28-.32.56-.77,1.07-.82.59-.06.9.36,1.25.7.21-.32.57-.51.93-.68.12.21.42.24.53.45.05.24-.28.46,0,.53.64-.54,1.84-.5,2.39.02.07-.21.03-.44.2-.67.47-.33.99,0,1.32.17.26-.32.14-1.02.54-1.2.32-.11.46.48.79.58.57-.96,1.83-.57,1.45.63.31-.21.61-.42,1.07-.49.29.08.29.45.46.65.46-.52,1.31-.07,1.66-.5.02-.21-.04-.49.07-.6.7-.35.85.4,1.12.71.37-.27.64-.88,1.14-.82.51.07.36.59.52.98.53-.63,1.36-.45,1.72.16.07-1.03,1.47-1.1,1.59-.1.57-.15.7-.74,1.4-.76.26.22-.28.56.06.66.77-.73,1.89-.2,2.52.28.13-.27.01-.79.27-.93.48-.07.63.19.93.31.11-.14.05-.44.14-.6.36-.31.96,0,1.19-.02.04.27.03.59.19.72.44-.17.56-.61,1-.62.64,0,.57.62.85.98.22-.58.45-1.16,1.2-1.22.2.08.13.43.46.39.08-.27.04-.3.14-.6.53-.19,1.17-.09,1.59.17.13-.54.1-1.24.81-1.21.53.23.32,1.21.71,1.58.26-.21.63-.53,1.06-.35.13.47-.28.95-.01,1.13.39-.26,1.02-.42,1.59-.3.19.08.25.53.53.32.05-.34-.22-.39-.06-.66.65-.34,1.31.06,1.72.36.1-.22.06-.56.2-.73.25-.13.55-.18.86-.08.22.32.16.84.19,1.19.57-.2,1.19-.69,1.79-.63.26.24-.41.37-.14.6.79-.6,1.6.12,2.05.62.25-.2.09-.8.28-1.07.65-.29.93.27,1.25.51.2-.33.07-1.01.54-1.07.75.09.49,1.1.78,1.51.22-.38.36-.85.94-.88.38.12.45.55.72.78.36-.36.3-1.13,1.07-1.08.27.05.11.55.46.52.16-1.1,1.55-1.03,1.72-.03.86-1.11,1.06.33,1.58.63.31-.85,1.12-.82,1.66-.23.13-.16.02-.55.14-.73.2-.14.39-.19.55-.17.2-.03.41,0,.58.14.09.12.07.23.04.32.05.08.11.17.15.26.46-.29.99-.67,1.67-.36.2.22.2.63.52.72.41-.15.49-.63,1.13-.55.11.15-.03.56.19.59.5-.74,1.92-.49,2.32.09.05-.87,1.2-1.28,1.53-.43.25-.49.52-.53,1-.75.55.19.39.66.45,1.18.37-.14.59-.43,1.06-.29,0,.23-.02.46.13.53.6-.23,1.17-.11,1.66.1.03-.21-.12-.23-.06-.46.28-.32.56-.77,1.07-.82.59-.05.9.36,1.25.71.21-.33.57-.51.94-.68.12.2.42.24.53.45.05.25-.28.46,0,.53.64-.54,1.84-.5,2.39.02.07-.21.03-.44.2-.67.47-.33.99,0,1.32.17.26-.32.14-1.02.54-1.2.32-.11.46.48.79.58.57-.96,1.83-.57,1.45.63.31-.21.61-.42,1.07-.49.29.08.29.45.46.65.46-.52,1.31-.07,1.66-.5.02-.21-.04-.49.07-.6.7-.35.85.4,1.12.71.37-.28.64-.89,1.13-.82.51.07.36.59.52.98.53-.62,1.36-.45,1.72.16.07-1.03,1.47-1.1,1.59-.1.57-.15.7-.74,1.4-.76.26.22-.28.57.06.66.77-.73,1.89-.2,2.51.28.13-.28.02-.79.28-.93.48-.07.63.19.92.31.11-.14.05-.44.14-.6.36-.3.96,0,1.19-.02.04.27.02.59.19.73.44-.18.56-.61,1-.62.64,0,.57.62.85.98l.03-.09Z" fill="#58ab40"/>
      <path d="M13.46,62.38s-15.13,6.39-10.74,10.25c4.39,3.85,72.02,2.46,79.55,1.71,7.53-.75,15.42-6.85,5.6-9.78-9.82-2.93-74.42-2.18-74.42-2.18" fill="#7a7879" fill-rule="evenodd"/>
      <path d="M8.99,69.77c-.08.03-.17.05-.28.05h-.75s-.37-.03-.37-.03c-.17-.01-.27-.04-.3-.05-.11-.04-.22-.1-.33-.17-.79-.12-1.36-.77-1.76-1.48-.44-.78-.77-1.78-1-2.79-.47-1.97-.63-4.16-.5-4.8.18-.73.72-1.12,1.17-1.33.08-1.07.1-2.16.13-3.23l.02-.62.06-1.68v-.24c.04-.61.07-1.19.1-1.73l.08-1.19.05-.63c.03-.32.06-.6.09-.82.02-.17.05-.32.07-.42.04-.18.09-.3.14-.37.14-.22.42-.47.69-.69.29-.24.65-.5,1.02-.76.63-.45,1.29-.88,1.64-1.11l.24-.54c2.39-4.43,6.1-9.58,7.22-11.09-.3-.24-.71-.61-.78-1.1-.07-.46.17-.86.59-1.14.4-.27,1.01-.49,1.87-.66,3.98-.78,23.77-2.07,39.74-.33,1.29.14,3.26.6,3.14,1.78,1.72,1.48,4.39,3.9,6.75,6.06,4.56-.2,6.45,2.4,5.28,4.67,5.15.96,9.11,2.54,11.71,4.37l.5.36c1.86,1.39,3.13,2.85,3.99,4.12.11.17.22.33.32.49.81,1.33,1.16,2.39,1.29,2.87.35.27.68.75,1.09,1.78.4,1.02.53,2.05.44,2.99-.04.53-.15,1.02-.32,1.48-.08.23-.18.45-.29.65-.73,1.37-11.86,7.35-12.31,7.36l-.65.14c-.35.45-.46.61-1,1.21-2.36,2.6-6.9,3.11-9.25,3.19-.27.02-.55.04-.83.04-.3,0-.59,0-.88-.04-3.23-.28-6.02-2.11-7.62-4.74h-.22c-.12.11-.26.14-.38.14,0,0-20.96.12-29.95.14-.31.39-.69.83-1.13,1.32-2.36,2.6-6.9,3.1-9.25,3.2-.27.02-.55.03-.83.03-.3,0-.59,0-.88-.03-3.17-.28-5.91-2.04-7.52-4.59" fill="#231f20"/>
      <path d="M67.65,54.45c5.49,0,9.95,4.45,9.95,9.95s-4.45,9.95-9.95,9.95-9.95-4.45-9.95-9.95,4.45-9.95,9.95-9.95" fill="#231f20"/>
      <path d="M17.39,54.5c5.49,0,9.95,4.45,9.95,9.95s-4.45,9.95-9.95,9.95-9.95-4.45-9.95-9.95,4.45-9.95,9.95-9.95" fill="#231f20"/>
      <path d="M66.82,73.8s7.41.42,10.54-3.03c2.28-2.51,2.69-3.71,2.69-3.71l-7.41-5.22-5.82,11.96Z" fill="#231f20" fill-rule="evenodd"/>
      <path d="M16.56,73.85s7.41.42,10.54-3.03c2.28-2.51,2.69-3.71,2.69-3.71l-7.41-5.22-5.82,11.96Z" fill="#231f20" fill-rule="evenodd"/>
      <path d="M69.49,41.36c1.38,1.32,2.78,2.2,2.78,2.2,16.29,2.68,18.07,12.33,18.07,12.33,0,0,.36-.14,1.04,1.59.68,1.73.5,3.51-.14,4.69-.64,1.18-10.06,6.69-11.24,6.83-.13.01-1.14.03-2.82.05-.16,0-.21-.49-.21-1.18.4-1.08.62-2.25.62-3.47,0-5.49-4.45-9.95-9.95-9.95s-9.95,4.45-9.95,9.95c0,1.5.33,2.92.92,4.19.03.38.01.61-.08.61-10.32.07-22.58.12-32.5.15.82-1.45,1.29-3.12,1.29-4.9,0-5.49-4.45-9.95-9.95-9.95s-9.95,4.45-9.95,9.95c0,1.77.46,3.43,1.27,4.87-.76-.01-1.19-.03-1.25-.05-.68-.27-1.45-1.18-1.86-4.28-.41-3.09,0-15.84.41-16.47.41-.64,3.46-2.58,3.46-2.58.62-1.15,1.33-2.4,2.07-3.68l57.95-.9Z" fill="#0095da" fill-rule="evenodd"/>
      <path d="M57.36,69.21c-9.6.06-20.7.11-29.98.14.56-1.32,1.55-4.31.74-7.69-1.09-4.55-4.55-7.92-11.77-7.72-7.22.2-8.9,5.74-9.2,6.83-.09.34-.34,1.05-.48,2.03.22,6,2.29,5.85,1.14,6.23l.15.28c-.29,0-.46-.02-.49-.03-.11-.04-.22-.1-.33-.19-2.39-.15-3.16-7.4-2.95-8.46.13-.68.79-.98,1.25-1.11.01-1.92.06-4,.14-5.84l59.05-.31s-5.35,1.09-7.12,7.22c-1.01,3.49-.65,6.61-.14,8.63" fill="#00a3e3"/>
      <path d="M67.08,39.18c8.44-.78,7.2,6.75.41,5.68-2.6-1.19-1.26-5.32-.41-5.68" fill="#231f20" fill-rule="evenodd"/>
      <path d="M68.24,39.47c.56-.02,1.3,0,2.04.2,1.51.4,2.07.83,2.25,1.8.18.96-.47,1.68-.47,1.68,0,0,.13-.68.02-1.12-.1-.44-.57-.66-1.78-.87l-.29-.04-1.77-1.64Z" fill="#808285" fill-rule="evenodd"/>
      <path d="M70.48,41.15c.03-.13.31-.18.63-.1.31.08.54.25.51.38-.03.13-.31.18-.63.1-.31-.08-.54-.25-.51-.38" fill="#fff"/>
      <path d="M58.21,64.4c0-5.21,4.22-9.44,9.44-9.44s9.44,4.23,9.44,9.44-4.23,9.44-9.44,9.44-9.44-4.23-9.44-9.44" fill="#58595b" fill-rule="evenodd"/>
      <path d="M59.84,64.4c0-4.31,3.5-7.81,7.81-7.81s7.81,3.5,7.81,7.81-3.5,7.81-7.81,7.81-7.81-3.49-7.81-7.81" fill="#414042" fill-rule="evenodd"/>
      <path d="M60.66,64.4c0-3.86,3.13-6.99,6.99-6.99s6.99,3.13,6.99,6.99-3.13,7-6.99,7-6.99-3.13-6.99-7" fill="#b1b3b6" fill-rule="evenodd"/>
      <path d="M17.12,33.91s-2.87-1.5,1.05-2.28c3.92-.77,24.89-2,40.82-.27,1.31.14,1.63.47,1.4,1.51.16.13-.21.68-.03.83l-6.58.9-37.21.18.55-.88Z" fill="#c0c3d8"/>
      <path d="M16.11,32.86c-.06-.43.36-.89,2.05-1.23,3.92-.77,24.89-2,40.82-.27.09.06.6.08.73.18l-9.81.99s-14-.35-33.79.34" fill="#fff"/>
      <path d="M6.23,48.3s.08-.04.12-.06c.99-.47,3.12-1.73,3.12-1.73.62-1.14,1.33-2.4,2.07-3.68l21.69-.66c1.54,0,3.02,0,4.41,0,10.04,0,16.71,1.32,19.54,1.48,2.82.16,9.18,2.59,13.96,5.02,4.79,2.43,5.23,4.85,5.23,4.85,0,0-.83-.94-4.52-2.43-3.69-1.49-7.22-2.57-22.75-2.49-13.34.07-40.89.57-43.2.5.04-.31.08-.51.13-.58.04-.07.12-.14.21-.22" fill="#cce5f7"/>
      <path d="M6.01,48.52c.41-.64,3.46-2.58,3.46-2.58.62-1.15,1.33-2.41,2.07-3.68l21.69-.66c1.54,0,3.02,0,4.41,0,10.04,0,16.71,1.32,19.54,1.48,2.82.16,9.18,2.59,13.96,5.02,4.79,2.43,5.1,5.41,5.1,5.41,0,0-.47-1.26-4.16-2.75-3.69-1.49-7.45-2.82-22.99-2.75-13.95.07-43.16.62-43.08.49" fill="#66bfec"/>
      <path d="M69.41,41.24c1.38,1.32,2.86,2.31,2.86,2.31,14.79,2.44,17.61,10.61,18.01,12.1-3.45,1.19-9.48,3.26-9.73,3.26-.1,0-.67.01-1.47.04-.09-.76-.86-4.96-6.54-8.71-6.28-4.14-15.29-4.55-15.29-4.55l-1.99-3.91,14.15-.54Z" fill="#66bfec"/>
      <path d="M90.52,55.96c.17.13.46.5.86,1.52.58,1.47.53,2.97.12,4.11-4.14,3-10.27,5.54-10.27,5.54,0,0-.12-7.08-.73-7.85.28,0,3.37-1.04,6.33-2.05,1.32-.45,2.63-.9,3.68-1.27" fill="#66bfec"/>
      <path d="M9.32,46.07l.31-.72c2.82-5.23,7.49-11.45,7.49-11.45l33.21-.15,10.02-1.02c3.53,3,11.92,10.81,11.92,10.81l-15.29,2.28-47.66.24Z" fill="#231f20"/>
      <path d="M51,33.69l9.35-.95c3.53,3,11.92,10.82,11.92,10.82,0,0-5.97,2.03-15.5,2.28-.53-.61-5.77-12.15-5.77-12.15" fill="#6d6e71"/>
    </g>
    <g clip-path="url(#clippath-1)">
      <rect x="52.16" y="33.32" width="18.74" height="11.17" fill="url(#linear-gradient)"/>
    </g>
    <g clip-path="url(#clippath-2)">
      <path d="M60.87,33.32s-4.38.77-8.71,1.03c.73,1.78,4.94,10.14,4.94,10.14,0,0,10.2-.34,13.8-1.91-2.88-2.85-10.03-9.26-10.03-9.26Z" fill="none" stroke="#231f20" stroke-linecap="round" stroke-linejoin="round" stroke-width=".46"/>
      <path d="M54.9,44.74h-.33s-16.69,0-16.69,0c-.01-3.87.37-7.85.64-10.06h11.68l4.71,10.06ZM21.15,34.69h13.01c-.36,3.13-.57,6.92-.69,10.06h-12.94c-.02-3.84.36-7.8.62-10.06M17.5,34.69h1.11c-.35,3.15-.56,6.94-.68,10.06h-6.25s2.04-4.09,2.97-5.67c.68-1.16,2.14-3.33,2.86-4.39" fill="#66bfec"/>
      <path d="M84.08,48.25c.08-.08.18-.14.31-.17,2.34,1.64,3.78,3.39,4.66,4.82-.02.03-.04.06-.06.08-.52.54-2.04-.08-3.39-1.39-1.35-1.31-2.03-2.8-1.51-3.34" fill="#c4e0e7"/>
      <path d="M90.52,55.96c.17.13.46.5.86,1.52.37.94.49,1.9.41,2.76-.05-.57-.18-1.16-.41-1.75-.4-1.02-.69-1.39-.86-1.52-1.05.36-2.36.81-3.68,1.27-2.54.87-5.17,1.76-6.04,1.99-.08-.47-.17-.81-.28-.95.28,0,3.37-1.04,6.33-2.05,1.32-.45,2.63-.9,3.68-1.27" fill="#fff"/>
      <path d="M38.52,34.69h11.68l2.49,5.33c-5.93-1.3-10.27.25-14.73,1.45.12-2.71.38-5.19.56-6.78M21.15,34.69h13.01c-.27,2.33-.45,5.01-.58,7.53-3.86.16-7.82-.9-12.95-1.43.13-2.42.35-4.62.52-6.1M17.5,34.69h1.11c-.21,1.84-.36,3.89-.48,5.91-1.78-.07-3.24.02-4.42.2.35-.67.69-1.28.94-1.71.68-1.16,2.14-3.33,2.86-4.39" fill="#cce5f7"/>
      <path d="M73.29,44.96c3.32,1.09,7.39,1.62,13.56,8.84-.57-.18-1.66-.35-1.66-.35,0,0-2.71-4.68-11.9-8.49" fill="#00a3e3" fill-rule="evenodd"/>
      <path d="M67.82,46.28c2.67.88,5.83,1.39,10.17,5.31,1.06.95-.2.3-.81-.38-1.33-1.47-2.92-2.32-4.07-2.28-1.46-.89-3.21-1.8-5.3-2.66" fill="#00a3e3" fill-rule="evenodd"/>
      <path d="M84.08,48.25c.08-.08.18-.14.31-.17.17.12.33.23.49.35-.21,0-.37.1-.45.32,0,.12.03.33.18.66.24.53.7,1.18,1.34,1.8.64.62,1.31,1.06,1.84,1.28.19.08.33.12.45.14.29.03.45-.05.49-.21.11.16.21.32.31.48-.02.03-.04.06-.06.08-.52.54-2.04-.08-3.39-1.39-1.35-1.31-2.03-2.8-1.51-3.34" fill="#b1b3b6"/>
      <path d="M84.08,48.25c.08-.08.18-.14.31-.17.17.12.33.23.49.35-.21,0-.37.1-.45.32,0,.12.03.33.18.66.24.53.7,1.18,1.34,1.8.64.62,1.31,1.06,1.84,1.28.19.08.33.12.45.14.29.03.45-.05.49-.21.11.16.21.32.31.48-.02.03-.04.06-.06.08-.52.54-2.04-.08-3.39-1.39-1.35-1.31-2.03-2.8-1.51-3.34Z" fill="none" stroke="#231f20" stroke-miterlimit="3.86" stroke-width=".31"/>
      <path d="M58.63,68.59c.03.38.01.61-.08.61-10.37.07-22.62.12-32.49.15.52-.92.9-1.94,1.11-3.01l30.71-.08c.16.82.41,1.6.75,2.34" fill="#0095da"/>
      <path d="M8.71,69.31c-.59-.01-.93-.03-.97-.04-.57-.23-1.56-.89-1.99-2.88h1.88c.21,1.04.57,2.02,1.08,2.92" fill="#0095da"/>
      <path d="M7.96,64.45c0-5.21,4.22-9.44,9.44-9.44s9.44,4.23,9.44,9.44-4.22,9.44-9.44,9.44-9.44-4.23-9.44-9.44" fill="#58595b" fill-rule="evenodd"/>
      <path d="M9.58,64.45c0-4.31,3.5-7.81,7.81-7.81s7.81,3.49,7.81,7.81-3.5,7.81-7.81,7.81-7.81-3.5-7.81-7.81" fill="#414042" fill-rule="evenodd"/>
      <path d="M10.4,64.45c0-3.86,3.13-6.99,6.99-6.99s6.99,3.13,6.99,6.99-3.13,7-6.99,7-6.99-3.13-6.99-7" fill="#b1b3b6" fill-rule="evenodd"/>
      <path d="M36.24,34.67s-.59,6.15-.4,9.9l-.4.02c-.2-3.77.4-9.96.4-9.96l.4.03Z" fill="#6d6e71"/>
      <path d="M35.79,45.89s-1.24,2.02-1.24,2.51c0,.3-.4,2.01-.52,5.08-.12,3.06.03,7.47,1.11,13.18l-.4.08c-1.09-5.76-1.24-10.2-1.12-13.28.12-3.06.52-4.76.52-5.06,0-.58.95-2.04,1.34-2.49l.3-.02Z" fill="#0066b3"/>
      <path d="M56.6,45.95l1.2,2.71.1,5.46s-.41.44-.92,1.4c-.51.98-1.17,2.54-1.76,4.9-1.17,4.7-.88,6.95-.88,6.95l-.4.05s-.31-2.3.89-7.1c.44-1.77,1.4-4.85,2.66-6.36l-.1-5.22-1.17-2.63.37-.16Z" fill="#0066b3"/>
      <polygon points="28.34 67.2 56.85 67.2 57.21 67.89 28.13 67.89 28.34 67.2" fill="#66bfec" fill-rule="evenodd"/>
      <path d="M85.9,50.5c-.69-.72-1.08-1.47-.86-1.69.22-.21.96.2,1.65.92.69.72,1.08,1.48.86,1.69-.22.21-.96-.2-1.65-.92" fill="#fff" fill-rule="evenodd"/>
      <path d="M10.77,64.45c0-3.64,2.95-6.6,6.6-6.6s6.6,2.96,6.6,6.6-2.96,6.6-6.6,6.6-6.6-2.95-6.6-6.6" fill="#dcddde"/>
      <path d="M11.04,64.45c0-3.5,2.83-6.33,6.33-6.33s6.33,2.84,6.33,6.33-2.84,6.33-6.33,6.33-6.33-2.83-6.33-6.33" fill="#231f20"/>
      <path d="M13.11,64.37c0-2.41,1.95-4.36,4.36-4.36s4.36,1.95,4.36,4.36-1.95,4.36-4.36,4.36-4.36-1.95-4.36-4.36" fill="#939598"/>
      <path d="M18.59,65.74c-.13-.51.22-1.26.43-1.65-.46-.27-.93-.99-1.1-1.27-.45.31-1.42.35-1.74.36.07.5-.32,1.29-.51,1.65.47.19.97.93,1.18,1.27.45-.31,1.41-.35,1.74-.36M13.11,64.37c0-.92.29-1.78.77-2.48.66.25,1.39.61,2.1,1.12-.42-.81-.67-1.63-.82-2.34.67-.42,1.46-.66,2.3-.66.15,0,.29,0,.44.02.12.7.19,1.53.11,2.42.51-.76,1.1-1.38,1.64-1.86.83.48,1.48,1.22,1.85,2.12-.48.4-1.07.82-1.77,1.18.78.07,1.5.25,2.1.46,0,1.02-.33,1.93-.89,2.67-.67-.25-1.43-.61-2.17-1.13.41.8.67,1.6.82,2.31-.63.35-1.35.55-2.13.55-.21,0-.42-.01-.63-.04-.1-.62-.14-1.34-.08-2.11-.43.64-.93,1.18-1.39,1.61-.83-.46-1.5-1.19-1.89-2.07.5-.4,1.1-.8,1.79-1.13-.8-.05-1.53-.21-2.15-.4,0-.07,0-.14,0-.22" fill="#6d6e71"/>
      <path d="M16.31,62.97c-.72-2.16-.4-4.19-.3-4.7.44-.1.89-.15,1.36-.15.37,0,.74.03,1.1.09.14.67.44,2.61-.21,4.69-.58.33-1.95.06-1.95.06" fill="#a7a9ac" fill-rule="evenodd"/>
      <path d="M17.18,62.33c-.84-2.49-.35-4.19-.35-4.19.18-.01.36-.02.54-.02.16,0,.33,0,.48.02.16.5.53,2.03-.14,4.14-.33.42-.54.06-.54.06" fill="#c7c8ca" fill-rule="evenodd"/>
      <path d="M16.64,66.17c-1.51,1.71-3.43,2.44-3.93,2.61-.3-.33-.57-.7-.8-1.1-.19-.32-.34-.66-.47-1,.51-.46,2.03-1.69,4.17-2.16.57.34,1.03,1.65,1.03,1.65" fill="#a7a9ac" fill-rule="evenodd"/>
      <path d="M15.66,65.73c-1.74,1.97-3.46,2.4-3.46,2.4-.1-.15-.2-.3-.29-.45-.08-.14-.16-.28-.23-.43.35-.39,1.49-1.47,3.65-1.95.53.08.32.43.32.43" fill="#c7c8ca" fill-rule="evenodd"/>
      <path d="M15.5,64.68c-2.23-.45-3.83-1.75-4.22-2.1.14-.43.32-.84.55-1.25.19-.32.4-.63.63-.9.65.21,2.48.92,3.96,2.53,0,.66-.92,1.72-.92,1.72" fill="#a7a9ac" fill-rule="evenodd"/>
      <path d="M15.39,63.61c-2.58-.52-3.8-1.79-3.8-1.79.07-.16.16-.32.25-.48.08-.14.17-.28.26-.41.51.11,2.02.56,3.51,2.19.2.5-.22.5-.22.5" fill="#c7c8ca" fill-rule="evenodd"/>
      <path d="M18.46,65.95c.72,2.16.4,4.19.29,4.7-.44.1-.89.15-1.36.15-.37,0-.74-.03-1.1-.09-.14-.67-.44-2.61.21-4.69.58-.33,1.95-.06,1.95-.06" fill="#a7a9ac" fill-rule="evenodd"/>
      <path d="M17.59,66.58c.84,2.5.35,4.19.35,4.19-.18.01-.36.02-.54.02-.16,0-.33,0-.48-.02-.16-.5-.53-2.03.14-4.14.33-.42.54-.06.54-.06" fill="#c7c8ca" fill-rule="evenodd"/>
      <path d="M19.23,64.17c2.23.45,3.83,1.75,4.22,2.1-.14.43-.32.84-.55,1.25-.19.32-.4.63-.63.9-.65-.21-2.48-.92-3.96-2.53,0-.66.92-1.72.92-1.72" fill="#a7a9ac" fill-rule="evenodd"/>
      <path d="M19.34,65.24c2.58.52,3.8,1.8,3.8,1.8-.08.16-.16.32-.25.48-.08.14-.17.28-.26.41-.51-.11-2.02-.56-3.51-2.19-.2-.5.22-.5.22-.5" fill="#c7c8ca" fill-rule="evenodd"/>
      <path d="M18.15,62.81c1.5-1.7,3.43-2.44,3.92-2.61.3.33.57.7.8,1.1.19.32.34.66.47,1-.51.46-2.03,1.69-4.17,2.16-.57-.34-1.03-1.66-1.03-1.66" fill="#a7a9ac" fill-rule="evenodd"/>
      <path d="M19.13,63.25c1.74-1.97,3.46-2.4,3.46-2.4.1.15.2.3.29.45.08.14.16.28.23.43-.35.39-1.49,1.47-3.65,1.95-.53-.08-.32-.44-.32-.44" fill="#c7c8ca" fill-rule="evenodd"/>
      <path d="M15.47,64.45c0-1.05.85-1.9,1.9-1.9s1.91.85,1.91,1.9-.85,1.91-1.91,1.91-1.9-.85-1.9-1.91" fill="#c7c8ca"/>
      <path d="M15.47,64.45c0-1.05.85-1.9,1.9-1.9s1.91.85,1.91,1.9-.85,1.91-1.91,1.91-1.9-.85-1.9-1.91Z" fill="none" stroke="#808285" stroke-miterlimit="3.86" stroke-width=".29"/>
      <path d="M17.26,64.08c0-.54.36-.98.8-.98s.8.44.8.98-.36.98-.8.98-.8-.44-.8-.98" fill="#fff"/>
      <path d="M61.08,64.43c0-3.64,2.95-6.6,6.6-6.6s6.6,2.95,6.6,6.6-2.96,6.6-6.6,6.6-6.6-2.95-6.6-6.6" fill="#dcddde"/>
      <path d="M61.35,64.43c0-3.5,2.83-6.33,6.33-6.33s6.33,2.84,6.33,6.33-2.84,6.33-6.33,6.33-6.33-2.83-6.33-6.33" fill="#231f20"/>
      <path d="M63.41,64.34c0-2.41,1.95-4.36,4.36-4.36s4.36,1.95,4.36,4.36-1.95,4.36-4.36,4.36-4.36-1.95-4.36-4.36" fill="#939598"/>
      <path d="M68.9,65.71c-.13-.51.22-1.26.43-1.64-.46-.27-.93-.99-1.1-1.27-.46.31-1.42.35-1.74.36.07.5-.32,1.29-.51,1.65.47.19.97.93,1.18,1.27.45-.31,1.41-.35,1.74-.36M63.41,64.34c0-.92.29-1.78.77-2.48.66.25,1.39.61,2.1,1.12-.42-.81-.67-1.63-.82-2.34.67-.42,1.46-.66,2.3-.66.15,0,.29,0,.44.02.12.7.19,1.53.11,2.42.51-.76,1.1-1.38,1.64-1.86.83.48,1.48,1.22,1.85,2.12-.48.4-1.07.82-1.77,1.18.78.07,1.5.25,2.1.46,0,1.02-.33,1.93-.89,2.67-.67-.25-1.43-.61-2.17-1.13.42.8.67,1.6.82,2.31-.63.35-1.35.55-2.13.55-.21,0-.42-.01-.63-.04-.1-.62-.14-1.34-.08-2.11-.43.64-.93,1.18-1.39,1.61-.83-.46-1.5-1.19-1.89-2.07.5-.4,1.1-.8,1.79-1.13-.8-.05-1.53-.21-2.15-.4,0-.07,0-.14,0-.22" fill="#6d6e71"/>
      <path d="M66.62,62.94c-.72-2.16-.4-4.19-.3-4.7.44-.09.89-.14,1.36-.14.37,0,.74.03,1.1.09.14.67.45,2.61-.21,4.69-.58.33-1.95.06-1.95.06" fill="#a7a9ac" fill-rule="evenodd"/>
      <path d="M67.49,62.31c-.84-2.49-.35-4.19-.35-4.19.18-.01.36-.02.54-.02.16,0,.32,0,.48.02.16.5.53,2.03-.14,4.14-.33.42-.54.06-.54.06" fill="#c7c8ca" fill-rule="evenodd"/>
      <path d="M66.95,66.14c-1.51,1.71-3.43,2.44-3.93,2.61-.3-.33-.57-.7-.8-1.1-.19-.32-.34-.66-.47-1,.51-.46,2.03-1.69,4.17-2.16.57.34,1.03,1.65,1.03,1.65" fill="#a7a9ac" fill-rule="evenodd"/>
      <path d="M65.97,65.7c-1.74,1.97-3.46,2.4-3.46,2.4-.1-.15-.2-.3-.29-.45-.08-.14-.16-.28-.23-.43.35-.39,1.49-1.47,3.65-1.95.53.08.32.43.32.43" fill="#c7c8ca" fill-rule="evenodd"/>
      <path d="M65.81,64.65c-2.23-.45-3.83-1.75-4.22-2.1.14-.43.32-.84.55-1.25.19-.32.4-.63.63-.9.65.21,2.48.92,3.96,2.53,0,.66-.92,1.72-.92,1.72" fill="#a7a9ac" fill-rule="evenodd"/>
      <path d="M65.69,63.58c-2.58-.52-3.8-1.79-3.8-1.79.07-.16.16-.32.25-.48.08-.14.17-.28.26-.41.51.11,2.02.56,3.51,2.19.2.5-.22.5-.22.5" fill="#c7c8ca" fill-rule="evenodd"/>
      <path d="M68.77,65.92c.72,2.16.4,4.19.29,4.7-.44.1-.89.15-1.36.15-.38,0-.74-.03-1.1-.09-.14-.67-.45-2.61.21-4.69.58-.33,1.95-.06,1.95-.06" fill="#a7a9ac" fill-rule="evenodd"/>
      <path d="M67.9,66.55c.84,2.5.35,4.19.35,4.19-.18.01-.35.02-.54.02-.16,0-.32,0-.48-.02-.16-.5-.53-2.03.13-4.14.33-.42.54-.06.54-.06" fill="#c7c8ca" fill-rule="evenodd"/>
      <path d="M69.54,64.14c2.23.45,3.83,1.75,4.22,2.1-.14.43-.32.84-.55,1.25-.19.32-.4.63-.63.9-.65-.21-2.48-.92-3.96-2.53,0-.66.92-1.72.92-1.72" fill="#a7a9ac" fill-rule="evenodd"/>
      <path d="M69.65,65.21c2.58.52,3.8,1.8,3.8,1.8-.07.16-.16.32-.25.48-.08.14-.17.28-.26.41-.51-.11-2.02-.56-3.51-2.19-.2-.5.22-.5.22-.5" fill="#c7c8ca" fill-rule="evenodd"/>
      <path d="M68.46,62.78c1.5-1.7,3.43-2.44,3.92-2.61.3.33.57.7.8,1.1.19.32.34.66.47,1-.51.46-2.03,1.69-4.17,2.16-.57-.34-1.03-1.66-1.03-1.66" fill="#a7a9ac" fill-rule="evenodd"/>
      <path d="M69.44,63.22c1.74-1.97,3.46-2.4,3.46-2.4.1.15.2.3.29.45.08.14.16.28.23.43-.35.39-1.49,1.47-3.65,1.95-.53-.08-.32-.44-.32-.44" fill="#c7c8ca" fill-rule="evenodd"/>
      <path d="M65.77,64.43c0-1.05.85-1.9,1.9-1.9s1.9.85,1.9,1.9-.85,1.91-1.9,1.91-1.9-.85-1.9-1.91" fill="#c7c8ca"/>
      <circle cx="67.68" cy="64.43" r="1.91" fill="none" stroke="#808285" stroke-miterlimit="3.86" stroke-width=".29"/>
      <path d="M67.56,64.05c0-.54.36-.98.8-.98s.8.44.8.98-.36.98-.8.98-.8-.44-.8-.98" fill="#fff"/>
      <path d="M36.02,50.22h4.56c.63,0,1.13.51,1.13,1.13v1.04c0,.62-.51,1.13-1.13,1.13h-4.56c-.62,0-1.13-.51-1.13-1.13v-1.04c0-.62.51-1.13,1.13-1.13" fill="#0066b3"/>
      <path d="M36.02,50.63h4.56c.4,0,.73.33.73.73v.18h-6.02v-.18c0-.4.33-.73.73-.73" fill="#0095da"/>
      <path d="M41.32,51.82v.57c0,.4-.33.73-.73.73h-4.57c-.4,0-.73-.33-.73-.73v-.57h6.02Z" fill="#0095da"/>
      <path d="M41.32,51.82v.44h-5.32v.57c0,.1.02.2.06.29h-.04c-.4,0-.73-.33-.73-.73v-.57h6.02Z" fill="#0066b3"/>
      <path d="M81.05,58.77c-.36-.34-.45-.94-.42-1.4.05-.78.4-1.71,1.01-2.38.86-.94,4.19-1.69,5.44-1.51,1.62.23,2.39.83,2.67,1.53.12.29.14.56.13.78-2.93,1.01-7.34,2.52-8.83,2.98" fill="#9cd1f1" fill-rule="evenodd"/>
      <path d="M89.36,56.12s.72-1.77-2.35-2.2c-1.18-.17-4.33.58-5.06,1.37-1.07,1.18-1.25,3.32-.15,3.32s7.55-2.49,7.55-2.49" fill="#2882a7" fill-rule="evenodd"/>
      <path d="M89.36,56.12s-.45.18-1.14.43c.08-.26.45-1.77-2.36-2.17-.72-.1-2.19.14-3.38.52,1.17-.63,3.54-1.13,4.53-.99,3.07.43,2.35,2.2,2.35,2.2" fill="#006d93" fill-rule="evenodd"/>
      <path d="M45.73,45.83s-.29,1.9,1.05,3.33c1.34,1.43,5.92-.18,6.25-.36.33-.18,1.15-.84,1.15-.84,0,0,2.21-.35,2.3-1.07.09-.72-10.76-1.06-10.76-1.06" fill="#0095da" fill-rule="evenodd"/>
      <path d="M54.06,44.53s2.45.73,2.61,2.11c.16,1.39-3.9.5-3.9.5l1.29-2.61Z" fill="#231f20" fill-rule="evenodd"/>
      <path d="M53.16,44.61s2.12.5,2.7,1.4c.57.9-2.06-.15-2.06-.15l-.63-1.25Z" fill="#6d6e71" fill-rule="evenodd"/>
      <path d="M48.06,41.94c9.76-.9,8.33,7.81.47,6.57-3-1.38-1.45-6.16-.47-6.57" fill="#231f20" fill-rule="evenodd"/>
      <path d="M48.24,42.4s-.81,1.37-.6,1.64c.21.27,2.74-.06,4.15.18,1.4.24,1.94.5,2.06,1.01.12.51-.03,1.3-.03,1.3,0,0,.75-.83.54-1.94-.21-1.12-.86-1.61-2.61-2.08-1.75-.47-3.51-.1-3.51-.1" fill="#808285" fill-rule="evenodd"/>
      <path d="M52.25,43.7c.04-.15.36-.2.73-.11.36.09.63.29.59.44-.04.15-.36.2-.73.11-.36-.09-.63-.29-.59-.44" fill="#fff" fill-rule="evenodd"/>
      <path d="M7.09,60.43s.88-7.77,9.9-8.14c9.03-.37,10.83,7.55,11.11,9.28-1.11-4.51-5.53-8.41-11.26-7.97-6.32.48-8.9,4.8-9.52,6.58l-.24.25Z" fill="#66bfec" fill-rule="evenodd"/>
      <path d="M57.33,60.22s.88-7.77,9.9-8.14c6.76-.27,9.47,4.1,10.52,7.04h-.26c-1.81-3.47-5.66-6.08-10.4-5.72-6.32.48-8.9,4.8-9.52,6.58l-.24.25Z" fill="#66bfec" fill-rule="evenodd"/>
      <path d="M90.28,55.66c.04.15.05.23.05.23,0,0,.06-.02.18.07-1.05.36-2.36.81-3.69,1.26-2.96,1.01-6.05,2.05-6.28,2.05-.22,0-1.89.18-4.04.24-.07-.12-.15-.24-.23-.36,2.2-.07,4.04-.25,4.27-.25.25,0,6.28-2.07,9.73-3.26" fill="#0066b3"/>
      <path d="M7.03,60.41s-1.61.14-2.83.15c.15-.59.7-.88,1.14-1.02l1.69.87Z" fill="#66bfec"/>
      <path d="M5.5,55.96c.06-2.39.17-4.67.3-6.07.76-.13,2.59-.4,2.87-.01.36.5-.71,6.19-1.56,6.33-.35.06-.98-.07-1.6-.25" fill="#231f20"/>
      <path d="M8.19,50.27c.18.56-1.03,5.32-1.19,5.35-.28.05-.88-.1-1.49-.27.06-1.84.14-3.56.23-4.82.58-.09,1.25-.19,1.53-.22.26-.03.51-.05.7-.05.08,0,.15,0,.21.01h0Z" fill="#ce181e"/>
      <path d="M8.19,50.27c.1.31-.22,1.91-.56,3.28-.61-.05-1.41-.1-2.04-.13.05-1.09.1-2.09.16-2.9.58-.09,1.25-.19,1.53-.22.26-.03.51-.05.7-.05.08,0,.15,0,.21.01h0Z" fill="#ed1c24"/>
      <path d="M8.19,50.27c.06.18-.03.81-.18,1.58-.68-.06-1.65-.11-2.34-.15.02-.43.05-.82.08-1.18.58-.09,1.25-.19,1.53-.22.26-.03.51-.05.7-.05.08,0,.15,0,.21.01h0Z" fill="#faa73f"/>
      <path d="M6.11,51.06c0-.22.41-.39.92-.39s.92.18.92.39-.41.39-.92.39-.92-.18-.92-.39" fill="#f3cb56" fill-rule="evenodd"/>
      <path d="M6.18,50.91c0-.18.14-.32.32-.32s.32.14.32.32-.14.32-.32.32-.32-.14-.32-.32" fill="#fff" fill-rule="evenodd"/>
      <polygon points="83.25 58.77 83.47 62.25 89.65 59.34 89.51 56.42 83.25 58.77" fill="#d0d2e3" fill-rule="evenodd"/>
    </g>
    <polygon points="83.25 58.77 83.27 59.08 89.22 56.85 89.35 59.48 89.65 59.34 89.51 56.42 83.25 58.77" fill="#fff"/>
    <polygon points="83.25 58.77 83.47 62.25 89.65 59.34 89.51 56.42 83.25 58.77" fill="none" stroke="#231f20" stroke-linecap="round" stroke-linejoin="round" stroke-width=".31"/>
    <g clip-path="url(#clippath-3)">
      <path d="M78.47,51.14c1.75,1.94,2.6,4.52,1.36,5.64-1.24,1.12-3.72,0-5.46-1.94-1.75-1.94-2.6-4.51-1.36-5.64,1.25-1.12,3.72,0,5.46,1.94" fill="#231f20" fill-rule="evenodd"/>
      <path d="M73.21,49.43c1.01-.91,3.26-.05,5.03,1.92,1.77,1.97,2.39,4.3,1.38,5.21-1.01.91-3.26.05-5.03-1.92-1.77-1.97-2.39-4.3-1.38-5.2" fill="#b1b3b6" fill-rule="evenodd"/>
      <path d="M77.81,51.71c1.83,2.04,1.82,3.72,1.44,4.07-.39.35-2.06.18-3.89-1.86-1.83-2.04-1.82-3.72-1.44-4.07.39-.35,2.06-.18,3.89,1.86" fill="#c4e0e7"/>
      <path d="M77.81,51.71c1.83,2.04,1.82,3.72,1.44,4.07-.39.35-2.06.18-3.89-1.86-1.83-2.04-1.82-3.72-1.44-4.07.39-.35,2.06-.18,3.89,1.86Z" fill="none" stroke="#231f20" stroke-miterlimit="3.86" stroke-width=".31"/>
      <path d="M75.5,53.01c-.92-1.13-1.25-2.38-.75-2.78.5-.41,1.65.18,2.57,1.31.92,1.13,1.25,2.38.75,2.78-.5.41-1.65-.18-2.57-1.31" fill="#fff" fill-rule="evenodd"/>
      <path d="M61.54,49.97c.77,0,1.59.48,1.59,1.27s-.82,1.26-1.59,1.26-1.59-.48-1.59-1.26.82-1.27,1.59-1.27" fill="#231f20" fill-rule="evenodd"/>
      <path d="M60.29,51.23c0-.51.56-.92,1.25-.92s1.25.41,1.25.92-.56.92-1.25.92-1.25-.41-1.25-.92" fill="#d68119" fill-rule="evenodd"/>
      <path d="M61.16,50.99c0-.26.32-.47.7-.47s.71.21.71.47-.32.47-.71.47-.7-.21-.7-.47" fill="#febf48" fill-rule="evenodd"/>
    </g>
  </g>
</svg>