<?xml version="1.0" encoding="UTF-8"?>
<svg id="Layer_2" data-name="Layer 2" xmlns="http://www.w3.org/2000/svg" width="190.67" height="124.83" xmlns:xlink="http://www.w3.org/1999/xlink" viewBox="0 0 190.67 124.83">
  <defs>
    <linearGradient id="linear-gradient" x1="95.33" y1="0" x2="95.33" y2="124.83" gradientUnits="userSpaceOnUse">
      <stop offset="0" stop-color="#fff"/>
      <stop offset="1" stop-color="#a6d6f2"/>
    </linearGradient>
  </defs>
  <g id="Layer_2-2" data-name="Layer 2">
    <g id="Layer_1-2" data-name="Layer 1-2">
      <rect width="190.67" height="124.83" fill="url(#linear-gradient)"/>
      <path d="M52,38.37s-19.49.66-20.34,5.31,6.33,4.89,5.07,9.96c-1.27,5.07-15.87,26.25-15.87,26.25,0,0-12.07,1.09-11.22,9.96s16.29,16.9,34.09,20.52,36.21,3.2,47.01,3.2,36.38,1.03,38.74-2.77c0,0,8.09-5.49-8.45-4.23-16.54,1.27-22.63,1.27-24.14-.42-1.51-1.69-4.04-11.65-4.04-11.65,0,0-48.88-6.15-54.19-7.42-5.31-1.27-9.78-8.21-2.78-10.56s31.14-6.76,29.02-22.87c-2.11-16.11,8.69-17.38,22.45-17.38s44.65-.6,42.96,6.16-20.09,17.14-21.36,19.25c-1.27,2.11-10.2,3.38-12.73,12.07s19.73,15.27,34.76,16.11c15.03.84,34.52-1.09,38.32-5.73,3.8-4.65,11.83-7.84-4.89-9.53-16.71-1.69-34.52-6.76-34.52-6.76,0,0,28.18-6.15,28.61-17.38.42-11.22-21.18-20.76-31.14-23.71-9.96-2.96-37.47-9.29-51.23-5.49-13.76,3.8-24.14,17.14-24.14,17.14" fill="#87bcdd" fill-rule="evenodd"/>
      <path d="M79.52,31.52c-5.69.34-12.92,1.98-15.18,3.79,4.25,3.21,1.77,17.31.83,22.75-.9,5.19-7.89,6.35-12.21,7.39-7.47,1.81-14.33,6.32-16.96,11.83,9.16,3.56,20.21,6.19,30.58,7.81,1.23-3.94,9.91-2.07,13.17-1.34,1.18.26,2.26.85,3.13.89,3.59.18,4.96-2.67,8.04-3.13-.03-2.13.27-3.49.89-5.36,2.81-2.62,8.15-1.91,12.8-2.7,1.07-20.61,1.43-21.32,4.11-24.19,6.96-7.42,20.72-8.57,31.98-11.06-8.38-8.24-35.07-8.27-61.17-6.7M110.99,79.29c-5.11,1.03-9.24-.17-13.39,1.79,3.94,1.04,4.3,5.01,4.91,8.93,8.92.75,15.7-.61,23.66-2.01.28-.81.04-2.81-.22-3.8-4.76-.18-10.87-2.6-14.96-4.91M102.29,96.7c.15,2.17.32,4.93-.67,7.37,8.54-.41,17.47-.03,24.11-2.23.82-1.64.67-4.24.67-6.7h-.44c-7.1,1.29-16.9.85-23.67,1.56M134.36,61.98c8.13,1,19.37,2.02,29.1,1.46,1.77-.1,4.1-.4,5.81-.01,2.16.48,9.74,8.96,9.82,10.73.1,2.3-6.97,10.55-8.71,11.38-2.79,1.34-10.11,1.97-14.18,1.91-7.79-.11-18.29-.91-22.58-1.63-.8,5.6.74,18.74-2.89,22.38-2.77,2.77-26.01,2.99-29.1,3.01-3.55.03-9.24,0-8.93-4.47-3.6.15-6.43.42-10.04.89-2.22,3.84-11.65,5.1-13.62.67-15.23.7-28.94-3.8-39.96-8.93-3.35-3.21-8.12-4.72-9.82-9.15-1.84-4.81-1.88-13.1-1.56-18.75,1.01-18.28,17.5-19.66,31.03-25.45-3.75-1.2-4.48-5.02-4.24-10.27.21-4.6.71-10.59,1.56-12.95,1.75-4.82,12.58-7.68,18.75-8.48,8.56-1.11,18.45-1.04,26.34-1.12,37.78-.36,51.94,4.55,55.96,5.82,4.7,1.48,11.47,4.87,13.24,8.25,3.87,7.41,1.69,23.56.67,25.9-2.26,5.17-21.54,7.35-26.65,8.81" fill="#231f20"/>
      <path d="M106.08,73.71c3.8-.22,7.55-.48,11.16-.89.43-1.98.67-3.4,2.46-3.57,2.19-.21,2.79,1.76,3.12,3.35,9-.92,9.89,3.02,10.49,11.61,11.76,1.98,18.1,1.98,26.12,1.79,9.6-.23,13.93-3.55,16.97-10.05-.75-2.39-5.57-6.04-7.32-7.51-2.2-1.85-8.34-.84-11.82-.89-12.84-.21-27.87-.73-39.41-3.22-3.11-.67-9.14-3.04-10.75-6.98-.71,4.29-.18,10.2-1.01,16.37" fill="#d2a93b"/>
      <path d="M127.66,65.92c9.55,1.15,20.16,1.47,29.6,1.62,3.48.06,9.62-.95,11.83.89,1.75,1.46,6.56,5.11,7.32,7.51-3.04,6.5-7.36,9.81-16.97,10.05-8.02.19-14.36.19-26.12-1.79-.48-6.9-1.15-10.8-6.06-11.59.11-2.54.26-4.82.4-6.7" fill="#ffd65a"/>
      <path d="M69.12,84.93s1.23-1.61,7.33-.18,5.92,3.76,5.74,5.37-2.88,14.53-3.06,15.06c-.18.54-3.4,4.12-3.4,4.12,0,0-2.68.71-3.22.18-.54-.54,1.79-.2,1.97-5.92s1.25-12.36.89-13.79-6.26-4.83-6.26-4.83" fill="#dcae83" fill-rule="evenodd"/>
      <path d="M83.81,86.54l.54,4.47s10.22-.89,11.11-1.07c.9-.18,3.76-2.15,3.94-2.68.18-.54.36-4.47-1.43-3.22s-1.99,3.94-7.89,2.51-6.26,0-6.26,0" fill="#dcae83" fill-rule="evenodd"/>
      <path d="M158.87,29.2s4.29,7.69-1.97,13.79c-6.26,6.1-25.26,9.14-27.05,9.32-1.79.18-1.25-5.9-1.25-5.9,0,0-17.75,1.23-15.78,10.56,1.97,9.32-5.21-4.65-1.07-7.87,4.13-3.22,17.39-5.56,17.39-5.56,0,0,13.79-2.33,15.58-3.04,1.79-.71,8.6-2.33,10.04-3.94,1.43-1.61,4.11-7.35,4.11-7.35" fill="#dcae83" fill-rule="evenodd"/>
      <path d="M23.07,60.39s-5.94,3.94-2.17,15.76c3.78,11.83,34.06,16.31,37.28,16.31s14.87-1.45,14.87-1.45c0,0,1.06-2.5-4.67-3.22-5.72-.72-18.46-1.97-23.11-4.3s-15.58-6.28-16.3-6.82c-.71-.54-4.47-3.04-5.37-5.37s-.54-10.93-.54-10.93" fill="#dcae83" fill-rule="evenodd"/>
      <path d="M115.9,94.69c4.25-.26,13.04-.05,13.17-3.12.08-1.95-1.95-2.26-3.8-2.01-4.55.63-11.7,1.8-16.52,2.01-2.07.09-3.47-.36-4.02,1.12-.29.77-.04,1.46.22,2.23,4.26.5,6.35.06,10.94-.22" fill="#a7a9ac"/>
      <path d="M74.83,109.65c1.26-.29,3.97-.3,5.36-1.12,1.23-6.1,2.23-13.25,2.23-19.42-2.78-.2-3.14-.33-5.58.22.27,6.48.24,15.47-2.01,20.31" fill="#bb7029"/>
      <path d="M99.61,85.99c-3.27,4.8-9.53,1.79-15.4,2.68-.07,6.33-1.02,11.78-1.79,17.41,5.89-1.6,14.51.89,17.86-3.12.25-5.32,1.23-11.91-.67-16.97" fill="#974a07"/>
      <path d="M76.84,88.22c1.45.39,3.21-.28,5.36,0-.8-4.04-6.33-3.35-10.49-4.02,1.35.9,3.58,3.6,5.14,4.02" fill="#c87d3a"/>
      <path d="M75.95,89.78c-.15-1.43-2-2.75-3.13-3.57-1.35-.98-3.54-3.07-4.46-1.12,4.1,1.4,6.99,3.38,6.7,8.04-.29,4.62-1.33,11.14-1.79,14.96-.32.35-1.14.2-1.79.22.31.88,1.08,1.3,2.23,1.34,1.41-3.04,2.8-14.43,2.23-19.87" fill="#974a07"/>
      <path d="M91.35,86.21c-.62-.72-.56-2.12-.89-3.13-2.25,1.1-4.23,2.47-7.14,2.9.14.75.79.99.9,1.79,5.43-1.24,13.08,2.45,14.95-3.57-.65-.84-1.3-1.68-2.68-1.79.59,3.46-2.18,4.61-5.14,3.79" fill="#c87d3a"/>
      <path d="M113.45,79.29c3.88,1.55,7.74,3.12,12.5,3.79-.19-6.04-8.23-4.19-12.5-3.79" fill="#d2a93b"/>
      <path d="M113.67,109.2c3.68-.21,14.93-.42,16.69-2.46,1.41-1.63,3.41-30.61-1.95-32.59-1.64-.61-31,.74-35.27,2.68-.74,2.13-1.61,6.25-.45,8.26.55.68,1.45-.17,2.23,0,.34-1.22.2-2.93.22-4.46,3.66-2.8,9.46-1.83,14.73-2.46,3.57-.43,13.48-.88,14.73-.45,3.61,1.24,3.35,5.77,3.35,10.04,1.69.82,3.07,2.44,2.68,4.47-.34,1.77-2.02,1.49-2.68,2.9,1.56,9.53-5.46,9.41-12.28,9.82-5.87.35-10.93.54-16.52.67-.99.87-2.18,1.54-1.79,3.8,4.75.49,10.99.08,16.3-.22" fill="#a7a9ac"/>
      <path d="M118.81,70.58v2.23c1.38-.14,1.68.02,2.68-.45.3-1.99-1.5-2.52-2.68-1.79" fill="#974a07"/>
      <path d="M20.81,89.34c9.49,13.23,31.05,17.8,51.34,17.41.49-5.35,1.99-10.84,1.12-16.52-11.85-.71-26.23-3.18-36.83-7.59-7.76-3.23-14.82-6.42-16.74-14.51-.78,7.51-.37,14.01,1.12,21.21" fill="#974a07"/>
      <path d="M46.48,52.05c-2.93,1.04-19.48,5.93-21.43,13.62-1.64,6.47,7.32,9.94,9.38,10.72.54-1.49,1.68-2.63,2.45-3.57,6.48-7.93,20.36-8.79,23.66-10.49,3.47-1.79,3.58-5.99,4.02-10.94.29-3.28,1.02-7.02.45-9.15-3.01,4.96-11.21,7.22-18.53,9.82" fill="#e8bd48"/>
      <path d="M155.2,39.33c-8.76,4.29-23.61,5.62-33.04,8.93-3.03,1.06-8.06,3.04-8.04,6.25.02,3.31,5.23,4.96,8.26,5.58,2.64.54,6.46,1.34,8.71,1.12,2.68-.27,22.56-3.89,25.9-6.25,4.64-3.09,4.14-13.79,3.57-19.42-.14,0-.26.03-.22.22-1.32,1.19-3.18,2.61-5.14,3.57" fill="#ae5c10"/>
      <path d="M51.17,45.13c2.34-1.19,6.12-1.34,6.7-3.8.55-2.36-2.38-5.41-4.24-7.59-2.7-3.16-5.11-5.85-6.25-9.15-.13,5.53-4.56,19.46,3.8,20.54" fill="#974a07"/>
      <path d="M153.86,31.07c.07-3.93-6.93-6.31-10.94-7.81-3.24-1.22-6.77-2.03-10.27-2.68-10.85-2.01-33.6-5.18-64.74-2.23-4.49.43-12.78,2.43-13.17,6.47-.28,2.89,4.43,5.62,6.25,7.14,2.16,1.81,1.78,2.4,3.79,1.12,4.04-2.57,30.49-4.02,36.61-4.02,15.95,0,38.85,2.11,40.85,9.15,3.37-.76,11.52-2.08,11.61-7.14" fill="#e8bd48"/>
      <path d="M63.22,85.99c-14.75-2.52-29.76-5.98-38.17-14.29-3.25-5.2-.77-8.93,2.68-12.06,4.12-3.73,13.2-6.62,19.64-8.93,4.57-1.64,17.84-4.98,17.41-11.16-.19-2.72-4.42-6.15-6.78-8.02-2.27-1.81-5.09-4.06-4.49-7.51.45-2.6,5.99-4.82,9.93-5.67,4.67-1.01,8.22-1.4,14.29-1.56,6.49-.17,31.88-2.12,60.05,3.8,5.79,1.22,13.35,4.04,16.07,7.37,2.41,2.94,1.15,6.15-1.34,8.04-4.41,3.35-11.96,3.81-19.87,5.14-7.02,1.18-14.88,3.18-18.98,5.8-2.16,1.39-5.39,4.66-5.8,7.14-.83,4.95,5.21,7.97,9.98,9.18,11.29,2.86,38.12,3.75,46.19,3.31.48-.03,3.51.14,4.69.45,1.21.32,7.39,6.18,8.34,7.15-1.28-3-4.51-8.54-8.93-9.82-21.78,1.64-43.28-2.03-47.55-3.12-3-.77-7.35-2.87-8.04-5.36-1.12-4.05,3.58-6.71,6.92-8.04,6.01-2.39,27.79-6.6,31.92-8.04,2.99-1.04,8.22-3.25,8.71-6.25.43-2.62-1-5.79-2.68-7.14-15.42-12.44-53.79-12.09-70.99-11.83-10.53.16-14.98-.43-23.67,1.34-4.77.97-13.05,2.95-13.84,6.47-1.15,5.15,5.89,10.75,8.26,13.62,7.12,8.64-6.97,10.6-12.95,12.95-5.01,1.97-11.83,4.07-16.3,6.7-2.84,1.68-7.17,6.38-7.37,9.82-.22,3.85,1.69,6.72,3.12,8.71,12.17,9.31,30.02,13.75,48,14.96-1.63-2.9-5.51-2.61-8.48-3.12" fill="#c87d3a"/>
      <path d="M140.24,73.26c.4,1.91.51,5-.89,5.8-1.41.14-2.45-.08-3.13-.67-1.04-3.23,1.24-7.7,4.02-5.13" fill="#231f20"/>
      <path d="M154.75,74.82c1.36,1.86,1.17,5.88-1.56,5.58-2.83-.31-2.29-6.81,1.56-5.58" fill="#231f20"/>
      <path d="M94.7,90.23c-.74.84-3.2,1.25-4.24.45v-.67c1.37-.26,2.57.37,4.24.22" fill="#231f20"/>
      <path d="M94.47,92.91c-1.04-.28-3.09.81-3.57-.89.97-.3,3.12-.05,3.57.89" fill="#231f20"/>
      <path d="M94.03,94.92c-.81-.38-2.41.03-2.23-1.34,1.09-.33,1.88.35,2.23,1.34" fill="#231f20"/>
      <path d="M91.57,95.81c.33.12,1.15-.26,1.12.22.17.85-1.45.48-1.12-.22" fill="#231f20"/>
      <path d="M105.9,93.04c-.07-.31-.07-.48,0-.66.03-.08.06-.13.08-.16.02-.02.13-.09.35-.12.65-.08,1.49.01,2.49-.03,4.85-.21,12.05-1.39,16.63-2.02.84-.11,1.56-.07,1.99.1.3.12.41.24.4.62,0,.07-.04.33-.8.68-.74.34-1.83.59-3.17.77-2.71.36-5.94.37-8.04.5-2.29.14-3.96.32-5.58.4-1.36.07-2.68.06-4.34-.09" fill="#d1d3d4"/>
      <path d="M129.2,86.32c0-.84,0-1.69-.02-2.51-.03-1.12-.13-2.2-.33-3.18-.43-2.05-1.46-3.98-3.83-4.8-1.58-.54-11.84-.02-15.28.39-2.62.31-5.37.23-7.91.41-2.62.19-5.29.66-7.43,2.29-.22.17-.48.69-.49.96-.01.77.02,1.58,0,2.36,0,.36-.02.69-.05,1l-.47.13c-.37-1.01.07-4.11.73-6.3,5.55-1.74,32.62-2.92,33.85-2.47,1.64.6,2.51,6.19,2.68,12.96-.43-.49-.93-.9-1.46-1.23M130.63,93.77c-.19,6.06-.8,10.98-1.21,11.44-.47.54-3.04,1.13-6.8,1.49-3.47.33-7.19.44-9.02.54-4.86.27-10.51.65-15.04.32.04-.27.13-.45.22-.59.1-.16.24-.31.45-.5l.4-.34c5.43-.13,10.4-.32,16.12-.66,1.73-.1,3.48-.17,5.09-.37,1.64-.2,3.28-.54,4.67-1.24,2.94-1.48,4.41-4.33,3.73-9.16.21-.17.3-.23.4-.29l.4-.24c.18-.11.38-.24.57-.39" fill="#d1d3d4"/>
      <path d="M155.2,39.33c1.03-.51,2.04-1.14,2.95-1.8-.04,7.22-1.16,14.63-1.69,17.74-1.22.64-3.47,1.35-6.14,2.05,1.08-6.58,1.06-13.15.95-16.38,1.4-.49,2.72-1.02,3.92-1.61" fill="#c87d3a"/>
      <path d="M135.6,60.48c-2.2.39-3.86.66-4.51.72-2.25.23-6.07-.58-8.71-1.12-3.03-.62-8.24-2.27-8.26-5.58-.02-3.21,5.01-5.19,8.04-6.25,2.71-.95,5.87-1.74,9.21-2.49-.9,3.58-1.82,10.93,4.23,14.71" fill="#974a07"/>
      <path d="M99.61,85.99c1.9,5.06.92,11.65.67,16.97-1.3,1.56-3.4,2.13-5.82,2.35.84-6,.56-12.66.25-16.58,1.95-.2,3.64-.9,4.9-2.74" fill="#ae5c10"/>
      <path d="M137.56,78.17h1.34c.68-.79.55-3.14.22-4.24-2.12-1-2.36,2.97-1.56,4.24" fill="#ae5c10"/>
      <path d="M153.86,79.51c1-.66.95-3.81-.45-4.02-.8,1.02-1.56,3.75.45,4.02" fill="#ae5c10"/>
      <path d="M128.86,31.34c-8.27-1.66-18.87-2.28-27.46-2.28-2.89,0-10.32.32-17.79.93l-.16-.43c-2.01-5.9.12-9.79,3.57-12.35,20.16-.47,35.34,1.54,44.12,3.09,2.3,4.96.06,8.88-2.28,11.03" fill="#ffd65a"/>
      <path d="M50.48,50.66c6.1-2.11,12.06-4.37,14.52-8.43.57,2.13-.16,5.87-.45,9.15-.44,4.95-.55,9.15-4.02,10.94-1.57.81-5.53,1.43-9.96,2.71-2.03-4.34-1.34-9.85-.1-14.37" fill="#ffd65a"/>
    </g>
  </g>
</svg>