<?xml version="1.0" encoding="UTF-8"?>
<svg id="b" data-name="Layer 2" xmlns="http://www.w3.org/2000/svg" xmlns:xlink="http://www.w3.org/1999/xlink" viewBox="0 0 108.39 126.95">
  <defs>
    <linearGradient id="d" x1="54.19" y1="126.95" x2="54.19" y2="0" gradientUnits="userSpaceOnUse">
      <stop offset="0" stop-color="#681eff"/>
      <stop offset="1" stop-color="#b858ff"/>
    </linearGradient>
  </defs>
  <g id="c" data-name="Layer 1">
    <g>
      <path d="M65.89,126.95c-3.87,0-7.57-.56-11.02-1.65-10.89-3.46-26.8-18.64-42.16-33.89-1.29-1.28-2.47-2.45-3.5-3.47-.44-.43-.9-.86-1.36-1.3-4.07-3.84-11.64-11-5.6-20.87,3.35-5.47,7.92-6.62,11.16-6.62,4.53,0,8.75,2.26,12.14,4.07.62.33,1.23.66,1.81.95,1.77.9,3.48,1.86,5.15,2.83V12.82C32.52,6.73,40.32.23,45.93,0c.12,0,.24,0,.36,0,4.32,0,14.13,4.29,14.13,11.36v14.02c.7-.1,1.4-.15,2.1-.15,4,0,7.66,1.67,10.3,4.7.25.29.49.58.71.89,1.63-.62,3.31-.95,4.98-.95,3.95,0,7.6,1.73,10.26,4.86.48.56.91,1.15,1.3,1.78,1.02-.33,2.06-.54,3.07-.6.23-.02.47-.02.7-.02,6.44,0,12.35,5.45,14.35,13.25.14.56.21,1.13.18,1.71-.33,8.58-.57,17.42-.73,26.26-.07,3.56-.1,6.51-.14,8.98-.15,11.01-.18,13.63-1.99,17.67-5.8,13.01-23.21,23.2-39.64,23.21Z" fill="url(#d)"/>
      <path d="M54.46,36.44c1.64-1.19,2.37-3.66,4.55-4.54,6.85-2.77,12.37,2.88,11.45,9.62l2.95-3.94c7.32-5.09,14.36,1.71,13.04,9.76,1.3-.3.99-2.08,2.21-3.23,1.51-1.43,3.45-2.17,4.88-2.26,3.48-.22,7.49,3.26,8.9,8.76-.23,5.97-.53,15.13-.74,26.38-.34,18.61,0,20.72-1.61,24.34-5.89,13.21-27.11,23.49-43.42,18.31-11.69-3.72-33.62-26.44-43.3-35.93-4.26-4.18-10-8.35-6.05-14.81,4.49-7.35,11.83-2.19,17.35.6,4.66,2.36,9.09,5.36,13.79,7.65V12.82c0-2.57,4.93-6.75,7.7-6.86,2.45-.1,8.29,2.98,8.29,5.41v25.08Z" fill="#212121"/>
    </g>
  </g>
</svg>