<?xml version="1.0" encoding="UTF-8"?><svg id="b" xmlns="http://www.w3.org/2000/svg" width="274.24" height="360.73" viewBox="0 0 274.24 360.73"><g id="c"><path d="M6.46,9.33h-3.61l-.6,1.73H.34L3.6,1.97h2.12l3.26,9.09h-1.92l-.6-1.73ZM5.97,7.87l-1.31-3.8-1.31,3.8h2.63Z" fill="#231f20"/><path d="M33.74,2v.96h-2.47v8.1h-1.18V2.96h-2.48v-.96h6.14Z" fill="#231f20"/><path d="M40.18,4.15c.43.23.77.57,1.02,1.03s.37,1.02.37,1.68v4.2h-1.17v-4.03c0-.71-.18-1.25-.53-1.63s-.84-.57-1.46-.57-1.12.19-1.49.58-.55.96-.55,1.7v3.94h-1.18V1.44h1.18v3.51c.23-.36.56-.65.97-.85.41-.2.87-.3,1.38-.3.54,0,1.02.11,1.46.34Z" fill="#231f20"/><path d="M49.97,7.94h-5.69c.04.7.28,1.25.72,1.64.44.39.97.59,1.59.59.51,0,.94-.12,1.28-.36.34-.24.58-.56.72-.96h1.27c-.19.68-.57,1.24-1.14,1.67-.57.43-1.28.64-2.13.64-.68,0-1.28-.15-1.81-.46s-.95-.73-1.25-1.29c-.3-.56-.46-1.21-.46-1.94s.15-1.38.44-1.94c.29-.55.71-.98,1.24-1.28.53-.3,1.15-.45,1.84-.45s1.27.15,1.79.44c.52.29.92.7,1.2,1.22.28.52.42,1.1.42,1.75,0,.23-.01.46-.04.71ZM48.49,5.81c-.2-.32-.47-.57-.81-.74-.34-.17-.72-.25-1.14-.25-.6,0-1.11.19-1.53.57-.42.38-.66.91-.72,1.59h4.5c0-.45-.1-.84-.3-1.16Z" fill="#231f20"/><path d="M57.71,3.93l-4.29,10.48h-1.22l1.4-3.43-2.87-7.05h1.31l2.24,5.77,2.21-5.77h1.22Z" fill="#231f20"/><path d="M62.36,5.55c.29-.55.7-.98,1.22-1.28.52-.3,1.09-.46,1.72-.46s1.17.13,1.62.4c.46.27.8.61,1.03,1.01v-1.3h1.2v7.12h-1.2v-1.33c-.23.42-.58.76-1.05,1.03-.46.27-1,.41-1.62.41s-1.2-.16-1.72-.47-.91-.75-1.21-1.31c-.29-.56-.44-1.2-.44-1.92s.15-1.37.44-1.92ZM67.62,6.08c-.22-.4-.51-.7-.88-.92s-.77-.32-1.22-.32-.84.1-1.21.31-.65.51-.87.91c-.22.4-.33.87-.33,1.4s.11,1.02.33,1.42.51.71.87.92c.36.21.77.32,1.21.32s.85-.11,1.22-.32c.37-.21.66-.52.88-.92s.33-.87.33-1.41-.11-1-.33-1.4Z" fill="#231f20"/><path d="M73.22,4.14c.39-.23.86-.34,1.41-.34v1.22h-.31c-1.33,0-1.99.72-1.99,2.16v3.87h-1.18V3.93h1.18v1.16c.21-.41.5-.72.89-.95Z" fill="#231f20"/><path d="M82.15,7.94h-5.69c.04.7.28,1.25.72,1.64.44.39.97.59,1.59.59.51,0,.94-.12,1.28-.36.34-.24.58-.56.72-.96h1.27c-.19.68-.57,1.24-1.14,1.67-.57.43-1.28.64-2.13.64-.68,0-1.28-.15-1.81-.46s-.95-.73-1.25-1.29c-.3-.56-.46-1.21-.46-1.94s.15-1.38.44-1.94c.29-.55.71-.98,1.24-1.28.53-.3,1.15-.45,1.84-.45s1.27.15,1.79.44c.52.29.92.7,1.2,1.22.28.52.42,1.1.42,1.75,0,.23-.01.46-.04.71ZM80.67,5.81c-.2-.32-.47-.57-.81-.74-.34-.17-.72-.25-1.14-.25-.6,0-1.11.19-1.53.57-.42.38-.66.91-.72,1.59h4.5c0-.45-.1-.84-.3-1.16Z" fill="#231f20"/><path d="M89.87,9.96l2.21-6.03h1.26l-2.79,7.12h-1.38l-2.79-7.12h1.27l2.22,6.03Z" fill="#231f20"/><path d="M100.91,7.94h-5.69c.04.7.28,1.25.72,1.64.44.39.97.59,1.59.59.51,0,.94-.12,1.28-.36.34-.24.58-.56.72-.96h1.27c-.19.68-.57,1.24-1.14,1.67-.57.43-1.28.64-2.13.64-.68,0-1.28-.15-1.81-.46s-.95-.73-1.25-1.29c-.3-.56-.46-1.21-.46-1.94s.15-1.38.44-1.94c.29-.55.71-.98,1.24-1.28.53-.3,1.15-.45,1.84-.45s1.27.15,1.79.44c.52.29.92.7,1.2,1.22.28.52.42,1.1.42,1.75,0,.23-.01.46-.04.71ZM99.42,5.81c-.2-.32-.47-.57-.81-.74-.34-.17-.72-.25-1.14-.25-.6,0-1.11.19-1.53.57-.42.38-.66.91-.72,1.59h4.5c0-.45-.1-.84-.3-1.16Z" fill="#231f20"/><path d="M104.58,4.14c.39-.23.86-.34,1.41-.34v1.22h-.31c-1.33,0-1.99.72-1.99,2.16v3.87h-1.18V3.93h1.18v1.16c.21-.41.5-.72.89-.95Z" fill="#231f20"/><path d="M113.49,3.93l-4.29,10.48h-1.22l1.4-3.43-2.87-7.05h1.31l2.24,5.77,2.21-5.77h1.22Z" fill="#231f20"/><path d="M123.72,4.59c.54.52.81,1.28.81,2.27v4.2h-1.17v-4.03c0-.71-.18-1.25-.53-1.63s-.84-.57-1.46-.57-1.12.19-1.49.58-.55.96-.55,1.7v3.94h-1.18V3.93h1.18v1.01c.23-.36.55-.65.96-.85.4-.2.85-.3,1.33-.3.87,0,1.57.26,2.11.79Z" fill="#231f20"/><path d="M126.5,2.54c-.16-.16-.23-.35-.23-.57s.08-.42.23-.57c.16-.16.35-.23.57-.23s.4.08.55.23c.15.16.23.35.23.57s-.08.42-.23.57c-.15.16-.34.23-.55.23s-.42-.08-.57-.23ZM127.65,3.93v7.12h-1.18V3.93h1.18Z" fill="#231f20"/><path d="M129.66,5.55c.29-.55.7-.98,1.23-1.28.52-.3,1.12-.46,1.8-.46.88,0,1.6.21,2.16.64.57.42.94,1.01,1.12,1.77h-1.27c-.12-.43-.36-.78-.71-1.03-.35-.25-.79-.38-1.31-.38-.68,0-1.22.23-1.64.7-.42.46-.62,1.12-.62,1.97s.21,1.52.62,1.99c.42.47.96.7,1.64.7.52,0,.95-.12,1.3-.36s.58-.59.71-1.04h1.27c-.19.73-.57,1.31-1.14,1.75-.57.44-1.29.66-2.14.66-.68,0-1.28-.15-1.8-.46s-.93-.73-1.23-1.29-.44-1.2-.44-1.95.15-1.38.44-1.93Z" fill="#231f20"/><path d="M144.01,7.94h-5.69c.04.7.28,1.25.72,1.64.44.39.97.59,1.59.59.51,0,.94-.12,1.28-.36.34-.24.58-.56.72-.96h1.27c-.19.68-.57,1.24-1.14,1.67-.57.43-1.28.64-2.13.64-.68,0-1.28-.15-1.81-.46s-.95-.73-1.25-1.29c-.3-.56-.46-1.21-.46-1.94s.15-1.38.44-1.94c.29-.55.71-.98,1.24-1.28.53-.3,1.15-.45,1.84-.45s1.27.15,1.79.44c.52.29.92.7,1.2,1.22.28.52.42,1.1.42,1.75,0,.23-.01.46-.04.71ZM142.53,5.81c-.2-.32-.47-.57-.81-.74-.34-.17-.72-.25-1.14-.25-.6,0-1.11.19-1.53.57-.42.38-.66.91-.72,1.59h4.5c0-.45-.1-.84-.3-1.16Z" fill="#231f20"/><path d="M146.83,9.42l-1.46,3.5h-.79l.95-3.5h1.3Z" fill="#231f20"/><path d="M153.91,4.22c.47-.27,1-.4,1.6-.4.64,0,1.22.15,1.73.46.51.3.91.73,1.21,1.28.29.55.44,1.19.44,1.92s-.15,1.36-.44,1.92c-.29.56-.7,1-1.22,1.31s-1.09.47-1.72.47-1.15-.13-1.62-.4c-.46-.27-.81-.61-1.05-1.03v1.31h-1.18V1.44h1.18v3.82c.24-.42.6-.77,1.07-1.04ZM157.35,6.06c-.22-.4-.51-.7-.88-.91s-.77-.31-1.22-.31-.83.11-1.2.32-.66.52-.88.92c-.22.4-.33.87-.33,1.4s.11,1.01.33,1.41.52.71.88.92c.37.21.77.32,1.2.32s.85-.11,1.22-.32c.37-.21.66-.52.88-.92.22-.4.32-.88.32-1.42s-.11-1.01-.32-1.4Z" fill="#231f20"/><path d="M162.52,4.14c.39-.23.86-.34,1.41-.34v1.22h-.31c-1.33,0-1.99.72-1.99,2.16v3.87h-1.18V3.93h1.18v1.16c.21-.41.5-.72.89-.95Z" fill="#231f20"/><path d="M164.98,5.55c.29-.55.7-.98,1.22-1.28.52-.3,1.09-.46,1.72-.46s1.17.13,1.62.4c.46.27.8.61,1.03,1.01v-1.3h1.2v7.12h-1.2v-1.33c-.23.42-.58.76-1.05,1.03-.46.27-1,.41-1.62.41s-1.2-.16-1.72-.47-.91-.75-1.21-1.31c-.29-.56-.44-1.2-.44-1.92s.15-1.37.44-1.92ZM170.25,6.08c-.22-.4-.51-.7-.88-.92s-.77-.32-1.22-.32-.84.1-1.21.31-.65.51-.87.91c-.22.4-.33.87-.33,1.4s.11,1.02.33,1.42.51.71.87.92c.36.21.77.32,1.21.32s.85-.11,1.22-.32c.37-.21.66-.52.88-.92s.33-.87.33-1.41-.11-1-.33-1.4Z" fill="#231f20"/><path d="M176.26,9.96l2.21-6.03h1.26l-2.79,7.12h-1.38l-2.79-7.12h1.27l2.22,6.03Z" fill="#231f20"/><path d="M187.3,7.94h-5.69c.04.7.28,1.25.72,1.64.44.39.97.59,1.59.59.51,0,.94-.12,1.28-.36.34-.24.58-.56.72-.96h1.27c-.19.68-.57,1.24-1.14,1.67-.57.43-1.28.64-2.13.64-.68,0-1.28-.15-1.81-.46s-.95-.73-1.25-1.29c-.3-.56-.46-1.21-.46-1.94s.15-1.38.44-1.94c.29-.55.71-.98,1.24-1.28.53-.3,1.15-.45,1.84-.45s1.27.15,1.79.44c.52.29.92.7,1.2,1.22.28.52.42,1.1.42,1.75,0,.23-.01.46-.04.71ZM185.82,5.81c-.2-.32-.47-.57-.81-.74-.34-.17-.72-.25-1.14-.25-.6,0-1.11.19-1.53.57-.42.38-.66.91-.72,1.59h4.5c0-.45-.1-.84-.3-1.16Z" fill="#231f20"/><path d="M192.37,5.55c.29-.55.7-.98,1.22-1.28.52-.3,1.09-.46,1.72-.46s1.17.13,1.62.4c.46.27.8.61,1.03,1.01v-1.3h1.2v7.12h-1.2v-1.33c-.23.42-.58.76-1.05,1.03-.46.27-1,.41-1.62.41s-1.2-.16-1.72-.47-.91-.75-1.21-1.31c-.29-.56-.44-1.2-.44-1.92s.15-1.37.44-1.92ZM197.64,6.08c-.22-.4-.51-.7-.88-.92s-.77-.32-1.22-.32-.84.1-1.21.31-.65.51-.87.91c-.22.4-.33.87-.33,1.4s.11,1.02.33,1.42.51.71.87.92c.36.21.77.32,1.21.32s.85-.11,1.22-.32c.37-.21.66-.52.88-.92s.33-.87.33-1.41-.11-1-.33-1.4Z" fill="#231f20"/><path d="M206.74,4.59c.54.52.81,1.28.81,2.27v4.2h-1.17v-4.03c0-.71-.18-1.25-.53-1.63s-.84-.57-1.46-.57-1.12.19-1.49.58-.55.96-.55,1.7v3.94h-1.18V3.93h1.18v1.01c.23-.36.55-.65.96-.85.4-.2.85-.3,1.33-.3.87,0,1.57.26,2.11.79Z" fill="#231f20"/><path d="M209.48,5.55c.29-.55.7-.98,1.22-1.28.52-.3,1.09-.46,1.74-.46.55,0,1.07.13,1.55.38.48.26.84.59,1.09,1.01V1.44h1.2v9.62h-1.2v-1.34c-.23.42-.58.77-1.04,1.05-.46.27-1,.41-1.61.41s-1.21-.16-1.72-.47-.92-.75-1.22-1.31c-.29-.56-.44-1.2-.44-1.92s.15-1.37.44-1.92ZM214.74,6.08c-.22-.4-.51-.7-.88-.92s-.77-.32-1.22-.32-.84.1-1.21.31-.65.51-.87.91c-.22.4-.33.87-.33,1.4s.11,1.02.33,1.42.51.71.87.92c.36.21.77.32,1.21.32s.85-.11,1.22-.32c.37-.21.66-.52.88-.92s.33-.87.33-1.41-.11-1-.33-1.4Z" fill="#231f20"/><path d="M222.79,10.89c-.43-.19-.78-.45-1.03-.78-.25-.33-.39-.72-.42-1.15h1.22c.03.36.2.65.5.87.3.23.69.34,1.18.34.45,0,.81-.1,1.07-.3.26-.2.39-.45.39-.75s-.14-.54-.42-.7c-.28-.15-.71-.3-1.29-.45-.53-.14-.96-.28-1.29-.42-.33-.14-.62-.36-.86-.64-.24-.28-.36-.65-.36-1.11,0-.36.11-.7.33-1s.52-.54.92-.72c.4-.18.85-.27,1.37-.27.79,0,1.43.2,1.91.6.49.4.75.94.78,1.64h-1.18c-.03-.37-.18-.67-.45-.9-.27-.23-.64-.34-1.1-.34-.42,0-.76.09-1.01.27-.25.18-.38.42-.38.71,0,.23.08.43.23.58.15.15.34.27.57.36.23.09.55.19.96.31.51.14.93.27,1.25.41.32.13.6.34.83.6.23.27.35.62.36,1.05,0,.39-.11.74-.33,1.05s-.52.56-.92.73c-.39.18-.85.27-1.36.27-.55,0-1.04-.09-1.47-.28Z" fill="#231f20"/><path d="M229.97,4.91v4.2c0,.35.07.59.22.73s.4.21.77.21h.87v1h-1.07c-.66,0-1.15-.15-1.48-.46-.33-.3-.49-.8-.49-1.5v-4.2h-.92v-.98h.92v-1.79h1.18v1.79h1.86v.98h-1.86Z" fill="#231f20"/><path d="M235.33,4.14c.39-.23.86-.34,1.41-.34v1.22h-.31c-1.33,0-1.99.72-1.99,2.16v3.87h-1.18V3.93h1.18v1.16c.21-.41.5-.72.89-.95Z" fill="#231f20"/><path d="M239.09,10.72c-.54-.3-.97-.73-1.27-1.29s-.46-1.21-.46-1.94.16-1.37.47-1.93.75-.99,1.29-1.29,1.16-.45,1.83-.45,1.29.15,1.83.45.98.73,1.29,1.28c.32.56.47,1.2.47,1.94s-.16,1.38-.49,1.94-.76.99-1.32,1.29-1.17.46-1.85.46-1.27-.15-1.81-.46ZM242.1,9.83c.37-.2.67-.5.9-.9.23-.4.34-.88.34-1.46s-.11-1.06-.34-1.46c-.23-.4-.52-.7-.88-.89-.36-.2-.76-.29-1.18-.29s-.83.1-1.19.29c-.36.19-.65.49-.86.89-.22.4-.33.88-.33,1.46s.11,1.07.32,1.47c.21.4.5.7.85.89.35.19.75.29,1.17.29s.82-.1,1.2-.3Z" fill="#231f20"/><path d="M251.69,4.59c.54.52.81,1.28.81,2.27v4.2h-1.17v-4.03c0-.71-.18-1.25-.53-1.63s-.84-.57-1.46-.57-1.12.19-1.49.58-.55.96-.55,1.7v3.94h-1.18V3.93h1.18v1.01c.23-.36.55-.65.96-.85.4-.2.85-.3,1.33-.3.87,0,1.57.26,2.11.79Z" fill="#231f20"/><path d="M258.99,4.22c.46.27.81.61,1.03,1.01v-1.3h1.2v7.28c0,.65-.14,1.23-.42,1.74-.28.51-.67.9-1.19,1.19s-1.12.43-1.8.43c-.94,0-1.72-.22-2.34-.66-.62-.44-.99-1.04-1.11-1.81h1.17c.13.43.4.78.81,1.05s.9.4,1.47.4c.65,0,1.18-.2,1.59-.61.41-.41.62-.98.62-1.72v-1.49c-.23.42-.58.76-1.04,1.04-.46.28-1,.42-1.61.42s-1.21-.16-1.72-.47-.92-.75-1.22-1.31c-.29-.56-.44-1.2-.44-1.92s.15-1.37.44-1.92.7-.98,1.22-1.28c.52-.3,1.09-.46,1.72-.46s1.15.13,1.62.4ZM259.7,6.08c-.22-.4-.51-.7-.88-.92s-.77-.32-1.22-.32-.84.1-1.21.31-.65.51-.87.91c-.22.4-.33.87-.33,1.4s.11,1.02.33,1.42.51.71.87.92c.36.21.77.32,1.21.32s.85-.11,1.22-.32c.37-.21.66-.52.88-.92s.33-.87.33-1.41-.11-1-.33-1.4Z" fill="#231f20"/><path d="M263.03,10.9c-.16-.16-.23-.35-.23-.57s.08-.42.23-.57c.16-.16.35-.23.57-.23s.4.08.55.23c.15.16.23.35.23.57s-.08.42-.23.57c-.15.16-.34.23-.55.23s-.42-.08-.57-.23Z" fill="#231f20"/><path d="M7.31,49.16c.33.42.49.89.49,1.43,0,.49-.12.91-.36,1.28-.24.37-.58.66-1.03.86-.45.21-.98.31-1.6.31H.9v-9.07h3.74c.62,0,1.15.1,1.59.3s.78.48,1.01.83.34.76.34,1.21c0,.53-.14.97-.42,1.33-.28.36-.66.61-1.12.75.51.1.93.35,1.26.77ZM2.72,47.72h1.66c.43,0,.77-.1,1-.29.23-.19.35-.47.35-.84s-.12-.65-.35-.85c-.23-.2-.57-.3-1-.3h-1.66v2.27ZM5.58,51.26c.25-.21.37-.5.37-.88s-.13-.7-.39-.92c-.26-.22-.61-.33-1.05-.33h-1.79v2.44h1.83c.44,0,.79-.1,1.03-.31Z" fill="#231f20"/><path d="M39.22,43.99l-2.63,9.06h-1.33l-2.11-7.29-2.18,7.29h-1.31s-2.54-9.06-2.54-9.06h1.26l1.98,7.68,2.18-7.68h1.33l2.08,7.66,1.99-7.66h1.27Z" fill="#231f20"/><path d="M46.42,49.93h-5.69c.04.7.28,1.25.72,1.64.44.39.97.59,1.59.59.51,0,.94-.12,1.28-.36.34-.24.58-.56.72-.96h1.27c-.19.68-.57,1.24-1.14,1.67-.57.43-1.28.64-2.13.64-.68,0-1.28-.15-1.81-.46s-.95-.73-1.25-1.29c-.3-.56-.46-1.21-.46-1.94s.15-1.38.44-1.94c.29-.55.71-.98,1.24-1.28.53-.3,1.15-.45,1.84-.45s1.27.15,1.79.44c.52.29.92.7,1.2,1.22.28.52.42,1.1.42,1.75,0,.23-.01.46-.04.71ZM44.94,47.81c-.2-.32-.47-.57-.81-.74-.34-.17-.72-.25-1.14-.25-.6,0-1.11.19-1.53.57-.42.38-.66.91-.72,1.59h4.5c0-.45-.1-.84-.3-1.16Z" fill="#231f20"/><path d="M52.68,43.43v9.62h-1.18v-9.62h1.18Z" fill="#231f20"/><path d="M54.73,44.54c-.16-.16-.23-.35-.23-.57s.08-.42.23-.57c.16-.16.35-.23.57-.23s.4.08.55.23c.15.16.23.35.23.57s-.08.42-.23.57c-.15.16-.34.23-.55.23s-.42-.08-.57-.23ZM55.87,45.93v7.12h-1.18v-7.12h1.18Z" fill="#231f20"/><path d="M60.54,51.96l2.21-6.03h1.26l-2.79,7.12h-1.38l-2.79-7.12h1.27l2.22,6.03Z" fill="#231f20"/><path d="M71.56,49.93h-5.69c.04.7.28,1.25.72,1.64.44.39.97.59,1.59.59.51,0,.94-.12,1.28-.36.34-.24.58-.56.72-.96h1.27c-.19.68-.57,1.24-1.14,1.67-.57.43-1.28.64-2.13.64-.68,0-1.28-.15-1.81-.46s-.95-.73-1.25-1.29c-.3-.56-.46-1.21-.46-1.94s.15-1.38.44-1.94c.29-.55.71-.98,1.24-1.28.53-.3,1.15-.45,1.84-.45s1.27.15,1.79.44c.52.29.92.7,1.2,1.22.28.52.42,1.1.42,1.75,0,.23-.01.46-.04.71ZM70.08,47.81c-.2-.32-.47-.57-.81-.74-.34-.17-.72-.25-1.14-.25-.6,0-1.11.19-1.53.57-.42.38-.66.91-.72,1.59h4.5c0-.45-.1-.84-.3-1.16Z" fill="#231f20"/><path d="M76.63,47.55c.29-.55.7-.98,1.22-1.28.52-.3,1.09-.46,1.72-.46s1.17.13,1.62.4c.46.27.8.61,1.03,1.01v-1.3h1.2v7.12h-1.2v-1.33c-.23.42-.58.76-1.05,1.03-.46.27-1,.41-1.62.41s-1.2-.16-1.72-.47-.91-.75-1.21-1.31c-.29-.56-.44-1.2-.44-1.92s.15-1.37.44-1.92ZM81.9,48.07c-.22-.4-.51-.7-.88-.92s-.77-.32-1.22-.32-.84.1-1.21.31-.65.51-.87.91c-.22.4-.33.87-.33,1.4s.11,1.02.33,1.42.51.71.87.92c.36.21.77.32,1.21.32s.85-.11,1.22-.32c.37-.21.66-.52.88-.92s.33-.87.33-1.41-.11-1-.33-1.4Z" fill="#231f20"/><path d="M86.87,46.9v4.2c0,.35.07.59.22.73s.4.21.77.21h.87v1h-1.07c-.66,0-1.15-.15-1.48-.46-.33-.3-.49-.8-.49-1.5v-4.2h-.92v-.98h.92v-1.79h1.18v1.79h1.86v.98h-1.86Z" fill="#231f20"/><path d="M95.07,46.9v4.2c0,.35.07.59.22.73s.4.21.77.21h.87v1h-1.07c-.66,0-1.15-.15-1.48-.46-.33-.3-.49-.8-.49-1.5v-4.2h-.92v-.98h.92v-1.79h1.18v1.79h1.86v.98h-1.86Z" fill="#231f20"/><path d="M103.35,46.14c.43.23.77.57,1.02,1.03s.37,1.02.37,1.68v4.2h-1.17v-4.03c0-.71-.18-1.25-.53-1.63s-.84-.57-1.46-.57-1.12.19-1.49.58-.55.96-.55,1.7v3.94h-1.18v-9.62h1.18v3.51c.23-.36.56-.65.97-.85.41-.2.87-.3,1.38-.3.54,0,1.02.11,1.46.34Z" fill="#231f20"/><path d="M113.14,49.93h-5.69c.04.7.28,1.25.72,1.64.44.39.97.59,1.59.59.51,0,.94-.12,1.28-.36.34-.24.58-.56.72-.96h1.27c-.19.68-.57,1.24-1.14,1.67-.57.43-1.28.64-2.13.64-.68,0-1.28-.15-1.81-.46s-.95-.73-1.25-1.29c-.3-.56-.46-1.21-.46-1.94s.15-1.38.44-1.94c.29-.55.71-.98,1.24-1.28.53-.3,1.15-.45,1.84-.45s1.27.15,1.79.44c.52.29.92.7,1.2,1.22.28.52.42,1.1.42,1.75,0,.23-.01.46-.04.71ZM111.66,47.81c-.2-.32-.47-.57-.81-.74-.34-.17-.72-.25-1.14-.25-.6,0-1.11.19-1.53.57-.42.38-.66.91-.72,1.59h4.5c0-.45-.1-.84-.3-1.16Z" fill="#231f20"/><path d="M121.11,46.9h-1.5v6.15h-1.18v-6.15h-.92v-.98h.92v-.51c0-.8.21-1.38.62-1.75.41-.37,1.07-.55,1.98-.55v.99c-.52,0-.89.1-1.1.31-.21.2-.32.54-.32,1.01v.51h1.5v.98Z" fill="#231f20"/><path d="M122.52,44.54c-.16-.16-.23-.35-.23-.57s.08-.42.23-.57c.16-.16.35-.23.57-.23s.4.08.55.23c.15.16.23.35.23.57s-.08.42-.23.57c-.15.16-.34.23-.55.23s-.42-.08-.57-.23ZM123.67,45.93v7.12h-1.18v-7.12h1.18Z" fill="#231f20"/><path d="M127.76,46.14c.39-.23.86-.34,1.41-.34v1.22h-.31c-1.33,0-1.99.72-1.99,2.16v3.87h-1.18v-7.12h1.18v1.16c.21-.41.5-.72.89-.95Z" fill="#231f20"/><path d="M136.68,49.93h-5.69c.04.7.28,1.25.72,1.64.44.39.97.59,1.59.59.51,0,.94-.12,1.28-.36.34-.24.58-.56.72-.96h1.27c-.19.68-.57,1.24-1.14,1.67-.57.43-1.28.64-2.13.64-.68,0-1.28-.15-1.81-.46s-.95-.73-1.25-1.29c-.3-.56-.46-1.21-.46-1.94s.15-1.38.44-1.94c.29-.55.71-.98,1.24-1.28.53-.3,1.15-.45,1.84-.45s1.27.15,1.79.44c.52.29.92.7,1.2,1.22.28.52.42,1.1.42,1.75,0,.23-.01.46-.04.71ZM135.2,47.81c-.2-.32-.47-.57-.81-.74-.34-.17-.72-.25-1.14-.25-.6,0-1.11.19-1.53.57-.42.38-.66.91-.72,1.59h4.5c0-.45-.1-.84-.3-1.16Z" fill="#231f20"/><path d="M142.8,52.89c-.43-.19-.78-.45-1.03-.78-.25-.33-.39-.72-.42-1.15h1.22c.03.36.2.65.5.87.3.23.69.34,1.18.34.45,0,.81-.1,1.07-.3.26-.2.39-.45.39-.75s-.14-.54-.42-.7c-.28-.15-.71-.3-1.29-.45-.53-.14-.96-.28-1.29-.42-.33-.14-.62-.36-.86-.64-.24-.28-.36-.65-.36-1.11,0-.36.11-.7.33-1s.52-.54.92-.72c.4-.18.85-.27,1.37-.27.79,0,1.43.2,1.91.6.49.4.75.94.78,1.64h-1.18c-.03-.37-.18-.67-.45-.9-.27-.23-.64-.34-1.1-.34-.42,0-.76.09-1.01.27-.25.18-.38.42-.38.71,0,.23.08.43.23.58.15.15.34.27.57.36.23.09.55.19.96.31.51.14.93.27,1.25.41.32.13.6.34.83.6.23.27.35.62.36,1.05,0,.39-.11.74-.33,1.05s-.52.56-.92.73c-.39.18-.85.27-1.36.27-.55,0-1.04-.09-1.47-.28Z" fill="#231f20"/><path d="M149.98,46.9v4.2c0,.35.07.59.22.73s.4.21.77.21h.87v1h-1.07c-.66,0-1.15-.15-1.48-.46-.33-.3-.49-.8-.49-1.5v-4.2h-.92v-.98h.92v-1.79h1.18v1.79h1.86v.98h-1.86Z" fill="#231f20"/><path d="M153.27,47.55c.29-.55.7-.98,1.22-1.28.52-.3,1.09-.46,1.72-.46s1.17.13,1.62.4c.46.27.8.61,1.03,1.01v-1.3h1.2v7.12h-1.2v-1.33c-.23.42-.58.76-1.05,1.03-.46.27-1,.41-1.62.41s-1.2-.16-1.72-.47-.91-.75-1.21-1.31c-.29-.56-.44-1.2-.44-1.92s.15-1.37.44-1.92ZM158.53,48.07c-.22-.4-.51-.7-.88-.92s-.77-.32-1.22-.32-.84.1-1.21.31-.65.51-.87.91c-.22.4-.33.87-.33,1.4s.11,1.02.33,1.42.51.71.87.92c.36.21.77.32,1.21.32s.85-.11,1.22-.32c.37-.21.66-.52.88-.92s.33-.87.33-1.41-.11-1-.33-1.4Z" fill="#231f20"/><path d="M163.5,46.9v4.2c0,.35.07.59.22.73s.4.21.77.21h.87v1h-1.07c-.66,0-1.15-.15-1.48-.46-.33-.3-.49-.8-.49-1.5v-4.2h-.92v-.98h.92v-1.79h1.18v1.79h1.86v.98h-1.86Z" fill="#231f20"/><path d="M166.83,44.54c-.16-.16-.23-.35-.23-.57s.08-.42.23-.57c.16-.16.35-.23.57-.23s.4.08.55.23c.15.16.23.35.23.57s-.08.42-.23.57c-.15.16-.34.23-.55.23s-.42-.08-.57-.23ZM167.97,45.93v7.12h-1.18v-7.12h1.18Z" fill="#231f20"/><path d="M171.28,52.71c-.54-.3-.97-.73-1.27-1.29s-.46-1.21-.46-1.94.16-1.37.47-1.93.75-.99,1.29-1.29,1.16-.45,1.83-.45,1.29.15,1.83.45.98.73,1.29,1.28c.32.56.47,1.2.47,1.94s-.16,1.38-.49,1.94-.76.99-1.32,1.29-1.17.46-1.85.46-1.27-.15-1.81-.46ZM174.29,51.83c.37-.2.67-.5.9-.9.23-.4.34-.88.34-1.46s-.11-1.06-.34-1.46c-.23-.4-.52-.7-.88-.89-.36-.2-.76-.29-1.18-.29s-.83.1-1.19.29c-.36.19-.65.49-.86.89-.22.4-.33.88-.33,1.46s.11,1.07.32,1.47c.21.4.5.7.85.89.35.19.75.29,1.17.29s.82-.1,1.2-.3Z" fill="#231f20"/><path d="M183.88,46.58c.54.52.81,1.28.81,2.27v4.2h-1.17v-4.03c0-.71-.18-1.25-.53-1.63s-.84-.57-1.46-.57-1.12.19-1.49.58-.55.96-.55,1.7v3.94h-1.18v-7.12h1.18v1.01c.23-.36.55-.65.96-.85.4-.2.85-.3,1.33-.3.87,0,1.57.26,2.11.79Z" fill="#231f20"/><path d="M193,46.9h-1.5v6.15h-1.18v-6.15h-.92v-.98h.92v-.51c0-.8.21-1.38.62-1.75.41-.37,1.07-.55,1.98-.55v.99c-.52,0-.89.1-1.1.31-.21.2-.32.54-.32,1.01v.51h1.5v.98Z" fill="#231f20"/><path d="M195.67,52.71c-.54-.3-.97-.73-1.27-1.29s-.46-1.21-.46-1.94.16-1.37.47-1.93.75-.99,1.29-1.29,1.16-.45,1.83-.45,1.29.15,1.83.45.98.73,1.29,1.28c.32.56.47,1.2.47,1.94s-.16,1.38-.49,1.94-.76.99-1.32,1.29-1.17.46-1.85.46-1.27-.15-1.81-.46ZM198.68,51.83c.37-.2.67-.5.9-.9.23-.4.34-.88.34-1.46s-.11-1.06-.34-1.46c-.23-.4-.52-.7-.88-.89-.36-.2-.76-.29-1.18-.29s-.83.1-1.19.29c-.36.19-.65.49-.86.89-.22.4-.33.88-.33,1.46s.11,1.07.32,1.47c.21.4.5.7.85.89.35.19.75.29,1.17.29s.82-.1,1.2-.3Z" fill="#231f20"/><path d="M204.77,46.14c.39-.23.86-.34,1.41-.34v1.22h-.31c-1.33,0-1.99.72-1.99,2.16v3.87h-1.18v-7.12h1.18v1.16c.21-.41.5-.72.89-.95Z" fill="#231f20"/><path d="M213.91,46.9h-1.5v6.15h-1.18v-6.15h-.92v-.98h.92v-.51c0-.8.21-1.38.62-1.75.41-.37,1.07-.55,1.98-.55v.99c-.52,0-.89.1-1.1.31-.21.2-.32.54-.32,1.01v.51h1.5v.98Z" fill="#231f20"/><path d="M216.58,52.71c-.54-.3-.97-.73-1.27-1.29s-.46-1.21-.46-1.94.16-1.37.47-1.93.75-.99,1.29-1.29,1.16-.45,1.83-.45,1.29.15,1.83.45.98.73,1.29,1.28c.32.56.47,1.2.47,1.94s-.16,1.38-.49,1.94-.76.99-1.32,1.29-1.17.46-1.85.46-1.27-.15-1.81-.46ZM219.59,51.83c.37-.2.67-.5.9-.9.23-.4.34-.88.34-1.46s-.11-1.06-.34-1.46c-.23-.4-.52-.7-.88-.89-.36-.2-.76-.29-1.18-.29s-.83.1-1.19.29c-.36.19-.65.49-.86.89-.22.4-.33.88-.33,1.46s.11,1.07.32,1.47c.21.4.5.7.85.89.35.19.75.29,1.17.29s.82-.1,1.2-.3Z" fill="#231f20"/><path d="M229.93,45.93v7.12h-1.18v-1.05c-.23.36-.54.65-.94.85s-.85.31-1.33.31c-.55,0-1.05-.11-1.5-.34-.44-.23-.79-.57-1.05-1.03s-.38-1.02-.38-1.68v-4.17h1.17v4.02c0,.7.18,1.24.53,1.62.36.38.84.57,1.46.57s1.13-.2,1.5-.58c.36-.39.55-.96.55-1.7v-3.91h1.18Z" fill="#231f20"/><path d="M234,46.14c.39-.23.86-.34,1.41-.34v1.22h-.31c-1.33,0-1.99.72-1.99,2.16v3.87h-1.18v-7.12h1.18v1.16c.21-.41.5-.72.89-.95Z" fill="#231f20"/><path d="M240.25,47.55c.29-.55.7-.98,1.22-1.28.52-.3,1.09-.46,1.74-.46.55,0,1.07.13,1.55.38.48.26.84.59,1.09,1.01v-3.77h1.2v9.62h-1.2v-1.34c-.23.42-.58.77-1.04,1.05-.46.27-1,.41-1.61.41s-1.21-.16-1.72-.47-.92-.75-1.22-1.31c-.29-.56-.44-1.2-.44-1.92s.15-1.37.44-1.92ZM245.51,48.07c-.22-.4-.51-.7-.88-.92s-.77-.32-1.22-.32-.84.1-1.21.31-.65.51-.87.91c-.22.4-.33.87-.33,1.4s.11,1.02.33,1.42.51.71.87.92c.36.21.77.32,1.21.32s.85-.11,1.22-.32c.37-.21.66-.52.88-.92s.33-.87.33-1.41-.11-1-.33-1.4Z" fill="#231f20"/><path d="M249.04,47.55c.29-.55.7-.98,1.22-1.28.52-.3,1.09-.46,1.72-.46s1.17.13,1.62.4c.46.27.8.61,1.03,1.01v-1.3h1.2v7.12h-1.2v-1.33c-.23.42-.58.76-1.05,1.03-.46.27-1,.41-1.62.41s-1.2-.16-1.72-.47-.91-.75-1.21-1.31c-.29-.56-.44-1.2-.44-1.92s.15-1.37.44-1.92ZM254.3,48.07c-.22-.4-.51-.7-.88-.92s-.77-.32-1.22-.32-.84.1-1.21.31-.65.51-.87.91c-.22.4-.33.87-.33,1.4s.11,1.02.33,1.42.51.71.87.92c.36.21.77.32,1.21.32s.85-.11,1.22-.32c.37-.21.66-.52.88-.92s.33-.87.33-1.41-.11-1-.33-1.4Z" fill="#231f20"/><path d="M263.81,45.93l-4.29,10.48h-1.22l1.4-3.43-2.87-7.05h1.31l2.24,5.77,2.21-5.77h1.22Z" fill="#231f20"/><path d="M266.04,52.89c-.43-.19-.78-.45-1.03-.78-.25-.33-.39-.72-.42-1.15h1.22c.03.36.2.65.5.87.3.23.69.34,1.18.34.45,0,.81-.1,1.07-.3.26-.2.39-.45.39-.75s-.14-.54-.42-.7c-.28-.15-.71-.3-1.29-.45-.53-.14-.96-.28-1.29-.42-.33-.14-.62-.36-.86-.64-.24-.28-.36-.65-.36-1.11,0-.36.11-.7.33-1s.52-.54.92-.72c.4-.18.85-.27,1.37-.27.79,0,1.43.2,1.91.6.49.4.75.94.78,1.64h-1.18c-.03-.37-.18-.67-.45-.9-.27-.23-.64-.34-1.1-.34-.42,0-.76.09-1.01.27-.25.18-.38.42-.38.71,0,.23.08.43.23.58.15.15.34.27.57.36.23.09.55.19.96.31.51.14.93.27,1.25.41.32.13.6.34.83.6.23.27.35.62.36,1.05,0,.39-.11.74-.33,1.05s-.52.56-.92.73c-.39.18-.85.27-1.36.27-.55,0-1.04-.09-1.47-.28Z" fill="#231f20"/><path d="M35.81,67.93h-5.69c.04.7.28,1.25.72,1.64s.97.59,1.59.59c.51,0,.94-.12,1.28-.36.34-.24.58-.56.72-.96h1.27c-.19.68-.57,1.24-1.14,1.67s-1.28.64-2.13.64c-.68,0-1.28-.15-1.81-.46s-.95-.73-1.25-1.29c-.3-.56-.46-1.21-.46-1.94s.15-1.38.44-1.94.71-.98,1.24-1.28c.53-.3,1.15-.45,1.84-.45s1.27.15,1.79.44c.52.29.92.7,1.2,1.21.28.52.42,1.1.42,1.75,0,.23-.01.46-.04.71ZM34.33,65.81c-.2-.33-.47-.57-.81-.74-.34-.17-.72-.25-1.14-.25-.6,0-1.11.19-1.53.57-.42.38-.66.91-.72,1.59h4.5c0-.45-.1-.84-.3-1.16Z" fill="#231f20"/><path d="M40.06,69.96l2.21-6.03h1.26l-2.79,7.12h-1.38l-2.79-7.12h1.27l2.22,6.03Z" fill="#231f20"/><path d="M51.08,67.93h-5.69c.04.7.28,1.25.72,1.64s.97.59,1.59.59c.51,0,.94-.12,1.28-.36.34-.24.58-.56.72-.96h1.27c-.19.68-.57,1.24-1.14,1.67s-1.28.64-2.13.64c-.68,0-1.28-.15-1.81-.46s-.95-.73-1.25-1.29c-.3-.56-.46-1.21-.46-1.94s.15-1.38.44-1.94.71-.98,1.24-1.28c.53-.3,1.15-.45,1.84-.45s1.27.15,1.79.44c.52.29.92.7,1.2,1.21.28.52.42,1.1.42,1.75,0,.23-.01.46-.04.71ZM49.6,65.81c-.2-.33-.47-.57-.81-.74-.34-.17-.72-.25-1.14-.25-.6,0-1.11.19-1.53.57-.42.38-.66.91-.72,1.59h4.5c0-.45-.1-.84-.3-1.16Z" fill="#231f20"/><path d="M54.76,64.14c.39-.23.86-.34,1.41-.34v1.22h-.31c-1.33,0-1.99.72-1.99,2.16v3.87h-1.18v-7.12h1.18v1.16c.21-.41.5-.72.89-.95Z" fill="#231f20"/><path d="M63.67,63.93l-4.29,10.48h-1.22l1.4-3.43-2.87-7.05h1.31l2.24,5.77,2.21-5.77h1.22Z" fill="#231f20"/><path d="M77.81,63.93l-2.22,7.12h-1.22l-1.72-5.66-1.72,5.66h-1.22l-2.24-7.12h1.21l1.64,5.98,1.77-5.98h1.21l1.73,5.99,1.61-5.99h1.17Z" fill="#231f20"/><path d="M85.44,67.93h-5.69c.04.7.28,1.25.72,1.64s.97.59,1.59.59c.51,0,.94-.12,1.28-.36.34-.24.58-.56.72-.96h1.27c-.19.68-.57,1.24-1.14,1.67s-1.28.64-2.13.64c-.68,0-1.28-.15-1.81-.46s-.95-.73-1.25-1.29c-.3-.56-.46-1.21-.46-1.94s.15-1.38.44-1.94.71-.98,1.24-1.28c.53-.3,1.15-.45,1.84-.45s1.27.15,1.79.44c.52.29.92.7,1.2,1.21.28.52.42,1.1.42,1.75,0,.23-.01.46-.04.71ZM83.96,65.81c-.2-.33-.47-.57-.81-.74-.34-.17-.72-.25-1.14-.25-.6,0-1.11.19-1.53.57-.42.38-.66.91-.72,1.59h4.5c0-.45-.1-.84-.3-1.16Z" fill="#231f20"/><path d="M93.5,67.93h-5.69c.04.7.28,1.25.72,1.64s.97.59,1.59.59c.51,0,.94-.12,1.28-.36.34-.24.58-.56.72-.96h1.27c-.19.68-.57,1.24-1.14,1.67s-1.28.64-2.13.64c-.68,0-1.28-.15-1.81-.46s-.95-.73-1.25-1.29c-.3-.56-.46-1.21-.46-1.94s.15-1.38.44-1.94.71-.98,1.24-1.28c.53-.3,1.15-.45,1.84-.45s1.27.15,1.79.44c.52.29.92.7,1.2,1.21.28.52.42,1.1.42,1.75,0,.23-.01.46-.04.71ZM92.02,65.81c-.2-.33-.47-.57-.81-.74-.34-.17-.72-.25-1.14-.25-.6,0-1.11.19-1.53.57-.42.38-.66.91-.72,1.59h4.5c0-.45-.1-.84-.3-1.16Z" fill="#231f20"/><path d="M99.08,71.05l-2.79-3.15v3.15h-1.18v-9.62h1.18v5.66l2.74-3.16h1.65l-3.35,3.55,3.37,3.58h-1.61Z" fill="#231f20"/><path d="M103.02,69.42l-1.46,3.5h-.79l.95-3.5h1.3Z" fill="#231f20"/><path d="M107.84,65.55c.29-.55.7-.98,1.22-1.28.52-.3,1.09-.46,1.72-.46s1.17.13,1.62.4c.46.27.8.61,1.03,1.01v-1.3h1.2v7.12h-1.2v-1.33c-.23.42-.58.76-1.05,1.03-.46.27-1,.41-1.62.41s-1.2-.16-1.72-.47c-.51-.31-.91-.75-1.21-1.31s-.44-1.2-.44-1.92.15-1.37.44-1.92ZM113.11,66.07c-.22-.4-.51-.7-.88-.92-.37-.21-.77-.32-1.22-.32s-.84.1-1.21.31-.65.51-.87.91-.33.87-.33,1.4.11,1.02.33,1.42c.22.4.51.71.87.92.36.21.77.32,1.21.32s.85-.11,1.22-.32c.37-.21.66-.52.88-.92.22-.4.33-.87.33-1.41s-.11-1-.33-1.4Z" fill="#231f20"/><path d="M122.21,64.59c.54.52.81,1.28.81,2.27v4.2h-1.17v-4.03c0-.71-.18-1.25-.53-1.63s-.84-.57-1.46-.57-1.12.19-1.49.58c-.37.39-.55.96-.55,1.7v3.94h-1.18v-7.12h1.18v1.01c.23-.36.55-.65.96-.84s.85-.3,1.33-.3c.87,0,1.57.26,2.11.79Z" fill="#231f20"/><path d="M124.95,65.55c.29-.55.7-.98,1.22-1.28.52-.3,1.09-.46,1.74-.46.55,0,1.07.13,1.55.38s.84.59,1.09,1.01v-3.77h1.2v9.62h-1.2v-1.34c-.23.42-.58.77-1.04,1.05-.46.27-1,.41-1.61.41s-1.21-.16-1.72-.47c-.52-.31-.92-.75-1.22-1.31s-.44-1.2-.44-1.92.15-1.37.44-1.92ZM130.21,66.07c-.22-.4-.51-.7-.88-.92-.37-.21-.77-.32-1.22-.32s-.84.1-1.21.31-.65.51-.87.91-.33.87-.33,1.4.11,1.02.33,1.42c.22.4.51.71.87.92.36.21.77.32,1.21.32s.85-.11,1.22-.32c.37-.21.66-.52.88-.92.22-.4.33-.87.33-1.41s-.11-1-.33-1.4Z" fill="#231f20"/><path d="M146.7,63.93l-2.22,7.12h-1.22l-1.72-5.66-1.72,5.66h-1.22l-2.24-7.12h1.21l1.64,5.98,1.77-5.98h1.21l1.73,5.99,1.61-5.99h1.17Z" fill="#231f20"/><path d="M154.33,67.93h-5.69c.04.7.28,1.25.72,1.64s.97.59,1.59.59c.51,0,.94-.12,1.28-.36.34-.24.58-.56.72-.96h1.27c-.19.68-.57,1.24-1.14,1.67s-1.28.64-2.13.64c-.68,0-1.28-.15-1.81-.46s-.95-.73-1.25-1.29c-.3-.56-.46-1.21-.46-1.94s.15-1.38.44-1.94.71-.98,1.24-1.28c.53-.3,1.15-.45,1.84-.45s1.27.15,1.79.44c.52.29.92.7,1.2,1.21.28.52.42,1.1.42,1.75,0,.23-.01.46-.04.71ZM152.85,65.81c-.2-.33-.47-.57-.81-.74-.34-.17-.72-.25-1.14-.25-.6,0-1.11.19-1.53.57-.42.38-.66.91-.72,1.59h4.5c0-.45-.1-.84-.3-1.16Z" fill="#231f20"/><path d="M164.39,64.14c.43.23.77.57,1.02,1.03s.37,1.02.37,1.68v4.2h-1.17v-4.03c0-.71-.18-1.25-.53-1.63s-.84-.57-1.46-.57-1.12.19-1.49.58c-.37.39-.55.96-.55,1.7v3.94h-1.18v-9.62h1.18v3.51c.23-.36.56-.65.97-.84.41-.2.87-.3,1.38-.3.54,0,1.02.12,1.46.34Z" fill="#231f20"/><path d="M167.72,65.55c.29-.55.7-.98,1.22-1.28.52-.3,1.09-.46,1.72-.46s1.17.13,1.62.4c.46.27.8.61,1.03,1.01v-1.3h1.2v7.12h-1.2v-1.33c-.23.42-.58.76-1.05,1.03-.46.27-1,.41-1.62.41s-1.2-.16-1.72-.47c-.51-.31-.91-.75-1.21-1.31s-.44-1.2-.44-1.92.15-1.37.44-1.92ZM172.98,66.07c-.22-.4-.51-.7-.88-.92-.37-.21-.77-.32-1.22-.32s-.84.1-1.21.31-.65.51-.87.91-.33.87-.33,1.4.11,1.02.33,1.42c.22.4.51.71.87.92.36.21.77.32,1.21.32s.85-.11,1.22-.32c.37-.21.66-.52.88-.92.22-.4.33-.87.33-1.41s-.11-1-.33-1.4Z" fill="#231f20"/><path d="M179,69.96l2.21-6.03h1.26l-2.79,7.12h-1.38l-2.79-7.12h1.27l2.22,6.03Z" fill="#231f20"/><path d="M190.04,67.93h-5.69c.04.7.28,1.25.72,1.64s.97.59,1.59.59c.51,0,.94-.12,1.28-.36.34-.24.58-.56.72-.96h1.27c-.19.68-.57,1.24-1.14,1.67s-1.28.64-2.13.64c-.68,0-1.28-.15-1.81-.46s-.95-.73-1.25-1.29c-.3-.56-.46-1.21-.46-1.94s.15-1.38.44-1.94.71-.98,1.24-1.28c.53-.3,1.15-.45,1.84-.45s1.27.15,1.79.44c.52.29.92.7,1.2,1.21.28.52.42,1.1.42,1.75,0,.23-.01.46-.04.71ZM188.56,65.81c-.2-.33-.47-.57-.81-.74-.34-.17-.72-.25-1.14-.25-.6,0-1.11.19-1.53.57-.42.38-.66.91-.72,1.59h4.5c0-.45-.1-.84-.3-1.16Z" fill="#231f20"/><path d="M196.55,64.9v4.2c0,.35.07.59.22.73.15.14.4.21.77.21h.87v1h-1.07c-.66,0-1.15-.15-1.48-.46-.33-.3-.49-.8-.49-1.5v-4.2h-.92v-.97h.92v-1.79h1.18v1.79h1.86v.97h-1.86Z" fill="#231f20"/><path d="M201.13,70.72c-.54-.3-.97-.73-1.27-1.29-.31-.56-.46-1.21-.46-1.94s.16-1.37.47-1.93c.32-.56.75-.99,1.29-1.29.55-.3,1.16-.45,1.83-.45s1.29.15,1.83.45c.55.3.98.73,1.29,1.28s.47,1.2.47,1.94-.16,1.38-.49,1.94c-.33.56-.76.99-1.32,1.29s-1.17.46-1.85.46-1.27-.15-1.81-.46ZM204.14,69.83c.37-.2.67-.5.9-.9.23-.4.34-.88.34-1.46s-.11-1.06-.34-1.46c-.23-.4-.52-.7-.88-.89-.36-.19-.76-.29-1.18-.29s-.83.1-1.19.29c-.36.2-.65.49-.86.89-.22.4-.33.88-.33,1.46s.11,1.07.32,1.47c.21.4.5.7.85.89.35.2.75.29,1.17.29s.82-.1,1.2-.3Z" fill="#231f20"/><path d="M213.88,64.22c.47-.27,1-.4,1.6-.4.64,0,1.22.15,1.73.46.51.3.91.73,1.21,1.28.29.55.44,1.19.44,1.92s-.15,1.36-.44,1.92c-.29.56-.7,1-1.22,1.31-.52.31-1.09.47-1.72.47s-1.15-.13-1.62-.4-.81-.61-1.05-1.03v1.31h-1.18v-9.62h1.18v3.82c.24-.42.6-.77,1.07-1.04ZM217.33,66.06c-.22-.4-.51-.7-.88-.91s-.77-.31-1.22-.31-.83.11-1.2.32c-.37.21-.66.52-.88.92s-.33.87-.33,1.4.11,1.01.33,1.41c.22.4.52.71.88.92.37.21.77.32,1.2.32s.85-.11,1.22-.32c.37-.21.66-.52.88-.92.22-.4.32-.88.32-1.42s-.11-1.01-.32-1.4Z" fill="#231f20"/><path d="M226.88,67.93h-5.69c.04.7.28,1.25.72,1.64s.97.59,1.59.59c.51,0,.94-.12,1.28-.36.34-.24.58-.56.72-.96h1.27c-.19.68-.57,1.24-1.14,1.67s-1.28.64-2.13.64c-.68,0-1.28-.15-1.81-.46s-.95-.73-1.25-1.29c-.3-.56-.46-1.21-.46-1.94s.15-1.38.44-1.94.71-.98,1.24-1.28c.53-.3,1.15-.45,1.84-.45s1.27.15,1.79.44c.52.29.92.7,1.2,1.21.28.52.42,1.1.42,1.75,0,.23-.01.46-.04.71ZM225.4,65.81c-.2-.33-.47-.57-.81-.74-.34-.17-.72-.25-1.14-.25-.6,0-1.11.19-1.53.57-.42.38-.66.91-.72,1.59h4.5c0-.45-.1-.84-.3-1.16Z" fill="#231f20"/><path d="M31.42,82.14c.39-.23.86-.34,1.41-.34v1.22h-.31c-1.33,0-1.99.72-1.99,2.16v3.87h-1.18v-7.12h1.18v1.16c.21-.41.5-.72.89-.95Z" fill="#231f20"/><path d="M40.35,85.94h-5.69c.04.7.28,1.25.72,1.64s.97.59,1.59.59c.51,0,.94-.12,1.28-.36.34-.24.58-.56.72-.96h1.27c-.19.68-.57,1.24-1.14,1.67s-1.28.64-2.13.64c-.68,0-1.28-.15-1.81-.46s-.95-.73-1.25-1.29c-.3-.56-.46-1.21-.46-1.94s.15-1.38.44-1.94.71-.98,1.24-1.28c.53-.3,1.15-.45,1.84-.45s1.27.15,1.79.44c.52.29.92.7,1.2,1.21.28.52.42,1.1.42,1.75,0,.23-.01.46-.04.71ZM38.86,83.81c-.2-.33-.47-.57-.81-.74-.34-.17-.72-.25-1.14-.25-.6,0-1.11.19-1.53.57-.42.38-.66.91-.72,1.59h4.5c0-.45-.1-.84-.3-1.16Z" fill="#231f20"/><path d="M41.94,83.55c.29-.55.7-.98,1.22-1.28.52-.3,1.09-.46,1.72-.46s1.17.13,1.62.4c.46.27.8.61,1.03,1.01v-1.3h1.2v7.12h-1.2v-1.33c-.23.42-.58.76-1.05,1.03-.46.27-1,.41-1.62.41s-1.2-.16-1.72-.47c-.51-.31-.91-.75-1.21-1.31s-.44-1.2-.44-1.92.15-1.37.44-1.92ZM47.21,84.08c-.22-.4-.51-.7-.88-.92-.37-.21-.77-.32-1.22-.32s-.84.1-1.21.31-.65.51-.87.91-.33.87-.33,1.4.11,1.02.33,1.42c.22.4.51.71.87.92.36.21.77.32,1.21.32s.85-.11,1.22-.32c.37-.21.66-.52.88-.92.22-.4.33-.87.33-1.41s-.11-1-.33-1.4Z" fill="#231f20"/><path d="M50.73,83.55c.29-.55.7-.98,1.22-1.28.52-.3,1.09-.46,1.74-.46.55,0,1.07.13,1.55.38s.84.59,1.09,1.01v-3.77h1.2v9.62h-1.2v-1.34c-.23.42-.58.77-1.04,1.05-.46.27-1,.41-1.61.41s-1.21-.16-1.72-.47c-.52-.31-.92-.75-1.22-1.31s-.44-1.2-.44-1.92.15-1.37.44-1.92ZM56,84.08c-.22-.4-.51-.7-.88-.92-.37-.21-.77-.32-1.22-.32s-.84.1-1.21.31-.65.51-.87.91-.33.87-.33,1.4.11,1.02.33,1.42c.22.4.51.71.87.92.36.21.77.32,1.21.32s.85-.11,1.22-.32c.37-.21.66-.52.88-.92.22-.4.33-.87.33-1.41s-.11-1-.33-1.4Z" fill="#231f20"/><path d="M65.59,81.93l-4.29,10.48h-1.22l1.4-3.43-2.87-7.05h1.31l2.24,5.77,2.21-5.77h1.22Z" fill="#231f20"/><path d="M71.69,82.91v4.2c0,.35.07.59.22.73.15.14.4.21.77.21h.87v1h-1.07c-.66,0-1.15-.15-1.48-.46-.33-.3-.49-.8-.49-1.5v-4.2h-.92v-.97h.92v-1.79h1.18v1.79h1.86v.97h-1.86Z" fill="#231f20"/><path d="M76.27,88.72c-.54-.3-.97-.73-1.27-1.29-.31-.56-.46-1.21-.46-1.94s.16-1.37.47-1.93c.32-.56.75-.99,1.29-1.29.55-.3,1.16-.45,1.83-.45s1.29.15,1.83.45c.55.3.98.73,1.29,1.28s.47,1.2.47,1.94-.16,1.38-.49,1.94c-.33.56-.76.99-1.32,1.29s-1.17.46-1.85.46-1.27-.15-1.81-.46ZM79.28,87.83c.37-.2.67-.5.9-.9.23-.4.34-.88.34-1.46s-.11-1.06-.34-1.46c-.23-.4-.52-.7-.88-.89-.36-.19-.76-.29-1.18-.29s-.83.1-1.19.29c-.36.2-.65.49-.86.89-.22.4-.33.88-.33,1.46s.11,1.07.32,1.47c.21.4.5.7.85.89.35.2.75.29,1.17.29s.82-.1,1.2-.3Z" fill="#231f20"/><path d="M96.26,81.93l-2.22,7.12h-1.22l-1.72-5.66-1.72,5.66h-1.22l-2.24-7.12h1.21l1.64,5.98,1.77-5.98h1.21l1.73,5.99,1.61-5.99h1.17Z" fill="#231f20"/><path d="M98.72,88.72c-.54-.3-.97-.73-1.27-1.29-.31-.56-.46-1.21-.46-1.94s.16-1.37.47-1.93c.32-.56.75-.99,1.29-1.29.55-.3,1.16-.45,1.83-.45s1.29.15,1.83.45c.55.3.98.73,1.29,1.28s.47,1.2.47,1.94-.16,1.38-.49,1.94c-.33.56-.76.99-1.32,1.29s-1.17.46-1.85.46-1.27-.15-1.81-.46ZM101.73,87.83c.37-.2.67-.5.9-.9.23-.4.34-.88.34-1.46s-.11-1.06-.34-1.46c-.23-.4-.52-.7-.88-.89-.36-.19-.76-.29-1.18-.29s-.83.1-1.19.29c-.36.2-.65.49-.86.89-.22.4-.33.88-.33,1.46s.11,1.07.32,1.47c.21.4.5.7.85.89.35.2.75.29,1.17.29s.82-.1,1.2-.3Z" fill="#231f20"/><path d="M107.82,82.14c.39-.23.86-.34,1.41-.34v1.22h-.31c-1.33,0-1.99.72-1.99,2.16v3.87h-1.18v-7.12h1.18v1.16c.21-.41.5-.72.89-.95Z" fill="#231f20"/><path d="M114.57,89.06l-2.79-3.15v3.15h-1.18v-9.62h1.18v5.66l2.74-3.16h1.65l-3.35,3.55,3.37,3.58h-1.61Z" fill="#231f20"/><path d="M120.76,83.55c.29-.55.7-.98,1.22-1.28.52-.3,1.09-.46,1.72-.46s1.17.13,1.62.4c.46.27.8.61,1.03,1.01v-1.3h1.2v7.12h-1.2v-1.33c-.23.42-.58.76-1.05,1.03-.46.27-1,.41-1.62.41s-1.2-.16-1.72-.47c-.51-.31-.91-.75-1.21-1.31s-.44-1.2-.44-1.92.15-1.37.44-1.92ZM126.03,84.08c-.22-.4-.51-.7-.88-.92-.37-.21-.77-.32-1.22-.32s-.84.1-1.21.31-.65.51-.87.91-.33.87-.33,1.4.11,1.02.33,1.42c.22.4.51.71.87.92.36.21.77.32,1.21.32s.85-.11,1.22-.32c.37-.21.66-.52.88-.92.22-.4.33-.87.33-1.41s-.11-1-.33-1.4Z" fill="#231f20"/><path d="M130.73,79.44v9.62h-1.18v-9.62h1.18Z" fill="#231f20"/><path d="M133.93,79.44v9.62h-1.18v-9.62h1.18Z" fill="#231f20"/><path d="M140.86,82.91v4.2c0,.35.07.59.22.73.15.14.4.21.77.21h.87v1h-1.07c-.66,0-1.15-.15-1.48-.46-.33-.3-.49-.8-.49-1.5v-4.2h-.92v-.97h.92v-1.79h1.18v1.79h1.86v.97h-1.86Z" fill="#231f20"/><path d="M149.14,82.15c.43.23.77.57,1.02,1.03s.37,1.02.37,1.68v4.2h-1.17v-4.03c0-.71-.18-1.25-.53-1.63s-.84-.57-1.46-.57-1.12.19-1.49.58c-.37.39-.55.96-.55,1.7v3.94h-1.18v-9.62h1.18v3.51c.23-.36.56-.65.97-.84.41-.2.87-.3,1.38-.3.54,0,1.02.12,1.46.34Z" fill="#231f20"/><path d="M158.93,85.94h-5.69c.04.7.28,1.25.72,1.64s.97.59,1.59.59c.51,0,.94-.12,1.28-.36.34-.24.58-.56.72-.96h1.27c-.19.68-.57,1.24-1.14,1.67s-1.28.64-2.13.64c-.68,0-1.28-.15-1.81-.46s-.95-.73-1.25-1.29c-.3-.56-.46-1.21-.46-1.94s.15-1.38.44-1.94.71-.98,1.24-1.28c.53-.3,1.15-.45,1.84-.45s1.27.15,1.79.44c.52.29.92.7,1.2,1.21.28.52.42,1.1.42,1.75,0,.23-.01.46-.04.71ZM157.45,83.81c-.2-.33-.47-.57-.81-.74-.34-.17-.72-.25-1.14-.25-.6,0-1.11.19-1.53.57-.42.38-.66.91-.72,1.59h4.5c0-.45-.1-.84-.3-1.16Z" fill="#231f20"/><path d="M165.44,82.91v4.2c0,.35.07.59.22.73.15.14.4.21.77.21h.87v1h-1.07c-.66,0-1.15-.15-1.48-.46-.33-.3-.49-.8-.49-1.5v-4.2h-.92v-.97h.92v-1.79h1.18v1.79h1.86v.97h-1.86Z" fill="#231f20"/><path d="M168.77,80.54c-.16-.16-.23-.35-.23-.57s.08-.42.23-.57.35-.23.57-.23.4.08.55.23c.15.16.23.35.23.57s-.08.42-.23.57c-.15.16-.34.23-.55.23s-.42-.08-.57-.23ZM169.92,81.93v7.12h-1.18v-7.12h1.18Z" fill="#231f20"/><path d="M181.98,82.15c.43.23.78.57,1.03,1.03.25.46.38,1.02.38,1.68v4.2h-1.17v-4.03c0-.71-.18-1.25-.53-1.63-.35-.38-.83-.57-1.42-.57s-1.11.2-1.47.59c-.36.39-.55.96-.55,1.71v3.93h-1.17v-4.03c0-.71-.18-1.25-.53-1.63-.35-.38-.83-.57-1.42-.57s-1.11.2-1.47.59c-.36.39-.55.96-.55,1.71v3.93h-1.18v-7.12h1.18v1.03c.23-.37.55-.66.94-.86.39-.2.83-.3,1.31-.3.6,0,1.13.13,1.59.4.46.27.8.66,1.03,1.18.2-.5.53-.89.99-1.17.46-.28.97-.42,1.53-.42s1.05.12,1.48.34Z" fill="#231f20"/><path d="M191.78,85.94h-5.69c.04.7.28,1.25.72,1.64s.97.59,1.59.59c.51,0,.94-.12,1.28-.36.34-.24.58-.56.72-.96h1.27c-.19.68-.57,1.24-1.14,1.67s-1.28.64-2.13.64c-.68,0-1.28-.15-1.81-.46s-.95-.73-1.25-1.29c-.3-.56-.46-1.21-.46-1.94s.15-1.38.44-1.94.71-.98,1.24-1.28c.53-.3,1.15-.45,1.84-.45s1.27.15,1.79.44c.52.29.92.7,1.2,1.21.28.52.42,1.1.42,1.75,0,.23-.01.46-.04.71ZM190.3,83.81c-.2-.33-.47-.57-.81-.74-.34-.17-.72-.25-1.14-.25-.6,0-1.11.19-1.53.57-.42.38-.66.91-.72,1.59h4.5c0-.45-.1-.84-.3-1.16Z" fill="#231f20"/><path d="M193.18,88.9c-.16-.16-.23-.35-.23-.57s.08-.42.23-.57c.16-.16.35-.23.57-.23s.4.08.55.23c.15.16.23.35.23.57s-.08.42-.23.57c-.15.16-.34.23-.55.23s-.42-.08-.57-.23Z" fill="#231f20"/><path d="M1.06,124.1c.4-.71.95-1.26,1.65-1.65.7-.39,1.48-.59,2.35-.59,1.01,0,1.9.26,2.67.78.76.52,1.3,1.24,1.6,2.16h-2.09c-.21-.43-.5-.76-.88-.97-.38-.22-.81-.33-1.31-.33-.53,0-1,.12-1.41.37-.41.25-.73.6-.96,1.05-.23.45-.34.98-.34,1.59s.11,1.12.34,1.58c.23.46.55.81.96,1.05.41.25.88.37,1.41.37.49,0,.93-.11,1.31-.33.38-.22.67-.55.88-.98h2.09c-.3.93-.83,1.65-1.59,2.17-.76.52-1.65.77-2.67.77-.87,0-1.65-.2-2.35-.59-.7-.39-1.25-.94-1.65-1.64s-.6-1.5-.6-2.39.2-1.69.6-2.4Z" fill="#231f20"/><path d="M35.62,121.99l-2.95,5.64v3.42h-1.18v-3.42l-2.96-5.64h1.31l2.24,4.59,2.24-4.59h1.31Z" fill="#231f20"/><path d="M42.46,127.93h-5.69c.04.7.28,1.25.72,1.64s.97.59,1.59.59c.51,0,.94-.12,1.28-.36.34-.24.58-.56.72-.96h1.27c-.19.68-.57,1.24-1.14,1.67s-1.28.64-2.13.64c-.68,0-1.28-.15-1.81-.46s-.95-.73-1.25-1.29c-.3-.56-.46-1.21-.46-1.94s.15-1.38.44-1.94.71-.98,1.24-1.28c.53-.3,1.15-.45,1.84-.45s1.27.15,1.79.44c.52.29.92.7,1.2,1.21.28.52.42,1.1.42,1.75,0,.23-.01.46-.04.71ZM40.98,125.8c-.2-.33-.47-.57-.81-.74-.34-.17-.72-.25-1.14-.25-.6,0-1.11.19-1.53.57-.42.38-.66.91-.72,1.59h4.5c0-.45-.1-.84-.3-1.16Z" fill="#231f20"/><path d="M45.11,130.89c-.43-.19-.78-.45-1.03-.78-.25-.33-.39-.72-.42-1.15h1.22c.03.36.2.65.5.87.3.23.69.34,1.18.34.45,0,.81-.1,1.07-.3s.39-.45.39-.75-.14-.54-.42-.7c-.28-.15-.71-.3-1.29-.45-.53-.14-.96-.28-1.29-.42-.33-.14-.62-.35-.86-.64-.24-.28-.36-.65-.36-1.11,0-.36.11-.7.33-1s.52-.54.92-.72.85-.27,1.37-.27c.79,0,1.43.2,1.91.6.49.4.75.94.78,1.64h-1.18c-.03-.37-.18-.67-.45-.9-.27-.22-.64-.34-1.1-.34-.42,0-.76.09-1.01.27-.25.18-.38.42-.38.71,0,.23.08.43.23.58s.34.27.57.36.55.19.96.31c.51.14.93.28,1.25.41.32.13.6.34.83.6s.35.62.36,1.05c0,.39-.11.74-.33,1.05-.22.31-.52.56-.92.73-.39.18-.85.27-1.36.27-.55,0-1.04-.09-1.47-.28Z" fill="#231f20"/><path d="M55.5,121.99v9.06h-1.18v-9.06h1.18Z" fill="#231f20"/><path d="M60.98,125.54c.29-.55.7-.98,1.22-1.28.52-.3,1.09-.46,1.74-.46.55,0,1.07.13,1.55.38s.84.59,1.09,1.01v-3.77h1.2v9.62h-1.2v-1.34c-.23.42-.58.77-1.04,1.05-.46.27-1,.41-1.61.41s-1.21-.16-1.72-.47c-.52-.31-.92-.75-1.22-1.31s-.44-1.2-.44-1.92.15-1.37.44-1.92ZM66.25,126.07c-.22-.4-.51-.7-.88-.92-.37-.21-.77-.32-1.22-.32s-.84.1-1.21.31-.65.51-.87.91-.33.87-.33,1.4.11,1.02.33,1.42c.22.4.51.71.87.92.36.21.77.32,1.21.32s.85-.11,1.22-.32c.37-.21.66-.52.88-.92.22-.4.33-.87.33-1.41s-.11-1-.33-1.4Z" fill="#231f20"/><path d="M71.06,130.71c-.54-.3-.97-.73-1.27-1.29-.31-.56-.46-1.21-.46-1.94s.16-1.37.47-1.93c.32-.56.75-.99,1.29-1.29.55-.3,1.16-.45,1.83-.45s1.29.15,1.83.45c.55.3.98.73,1.29,1.28s.47,1.2.47,1.94-.16,1.38-.49,1.94c-.33.56-.76.99-1.32,1.29s-1.17.46-1.85.46-1.27-.15-1.81-.46ZM74.07,129.83c.37-.2.67-.5.9-.9.23-.4.34-.88.34-1.46s-.11-1.06-.34-1.46c-.23-.4-.52-.7-.88-.89-.36-.19-.76-.29-1.18-.29s-.83.1-1.19.29c-.36.2-.65.49-.86.89-.22.4-.33.88-.33,1.46s.11,1.07.32,1.47c.21.4.5.7.85.89.35.2.75.29,1.17.29s.82-.1,1.2-.3Z" fill="#231f20"/><path d="M77.89,130.89c-.16-.16-.23-.35-.23-.57s.08-.42.23-.57c.16-.16.35-.23.57-.23s.4.08.55.23c.15.16.23.35.23.57s-.08.42-.23.57c-.15.16-.34.23-.55.23s-.42-.08-.57-.23Z" fill="#231f20"/><path d="M85.47,121.99v9.06h-1.18v-9.06h1.18Z" fill="#231f20"/><path d="M92.14,121.43v9.62h-1.18v-9.62h1.18Z" fill="#231f20"/><path d="M95.45,130.71c-.54-.3-.97-.73-1.27-1.29-.31-.56-.46-1.21-.46-1.94s.16-1.37.47-1.93c.32-.56.75-.99,1.29-1.29.55-.3,1.16-.45,1.83-.45s1.29.15,1.83.45c.55.3.98.73,1.29,1.28s.47,1.2.47,1.94-.16,1.38-.49,1.94c-.33.56-.76.99-1.32,1.29s-1.17.46-1.85.46-1.27-.15-1.81-.46ZM98.46,129.83c.37-.2.67-.5.9-.9.23-.4.34-.88.34-1.46s-.11-1.06-.34-1.46c-.23-.4-.52-.7-.88-.89-.36-.19-.76-.29-1.18-.29s-.83.1-1.19.29c-.36.2-.65.49-.86.89-.22.4-.33.88-.33,1.46s.11,1.07.32,1.47c.21.4.5.7.85.89.35.2.75.29,1.17.29s.82-.1,1.2-.3Z" fill="#231f20"/><path d="M105.01,129.96l2.21-6.03h1.26l-2.79,7.12h-1.38l-2.79-7.12h1.27l2.22,6.03Z" fill="#231f20"/><path d="M116.05,127.93h-5.69c.04.7.28,1.25.72,1.64s.97.59,1.59.59c.51,0,.94-.12,1.28-.36.34-.24.58-.56.72-.96h1.27c-.19.68-.57,1.24-1.14,1.67s-1.28.64-2.13.64c-.68,0-1.28-.15-1.81-.46s-.95-.73-1.25-1.29c-.3-.56-.46-1.21-.46-1.94s.15-1.38.44-1.94.71-.98,1.24-1.28c.53-.3,1.15-.45,1.84-.45s1.27.15,1.79.44c.52.29.92.7,1.2,1.21.28.52.42,1.1.42,1.75,0,.23-.01.46-.04.71ZM114.57,125.8c-.2-.33-.47-.57-.81-.74-.34-.17-.72-.25-1.14-.25-.6,0-1.11.19-1.53.57-.42.38-.66.91-.72,1.59h4.5c0-.45-.1-.84-.3-1.16Z" fill="#231f20"/><path d="M121.16,122.53c-.16-.16-.23-.35-.23-.57s.08-.42.23-.57.35-.23.57-.23.4.08.55.23c.15.16.23.35.23.57s-.08.42-.23.57c-.15.16-.34.23-.55.23s-.42-.08-.57-.23ZM122.3,123.93v7.12h-1.18v-7.12h1.18Z" fill="#231f20"/><path d="M125.76,124.9v4.2c0,.35.07.59.22.73.15.14.4.21.77.21h.87v1h-1.07c-.66,0-1.15-.15-1.48-.46-.33-.3-.49-.8-.49-1.5v-4.2h-.92v-.97h.92v-1.79h1.18v1.79h1.86v.97h-1.86Z" fill="#231f20"/><path d="M128.85,130.89c-.16-.16-.23-.35-.23-.57s.08-.42.23-.57c.16-.16.35-.23.57-.23s.4.08.55.23c.15.16.23.35.23.57s-.08.42-.23.57c-.15.16-.34.23-.55.23s-.42-.08-.57-.23Z" fill="#231f20"/><path d="M139.92,130.49c-.46-1.27-.7-2.62-.7-4.07s.24-2.88.73-4.18c.49-1.3,1.19-2.37,2.12-3.2h1.83v.17c-.95.91-1.68,2-2.18,3.28-.5,1.27-.75,2.59-.75,3.94s.24,2.59.71,3.82,1.15,2.29,2.02,3.19v.18h-1.83c-.84-.81-1.49-1.85-1.96-3.12Z" fill="#4d4748"/><path d="M151.68,127.99h-5.26c.04.52.22.93.55,1.22.32.29.71.44,1.18.44.68,0,1.16-.29,1.44-.87h1.96c-.21.69-.61,1.26-1.2,1.71-.59.45-1.31.67-2.17.67-.69,0-1.32-.15-1.87-.46-.55-.31-.98-.74-1.29-1.31-.31-.56-.46-1.21-.46-1.95s.15-1.4.46-1.96c.3-.56.73-1,1.27-1.3.55-.3,1.17-.46,1.88-.46s1.3.15,1.84.44c.54.29.96.71,1.26,1.25.3.54.45,1.16.45,1.87,0,.26-.02.49-.05.7ZM149.84,126.77c0-.47-.18-.84-.51-1.12-.33-.28-.73-.42-1.21-.42-.45,0-.83.14-1.14.41-.31.27-.5.65-.57,1.14h3.42Z" fill="#4d4748"/><path d="M157.03,131.05l-1.48-2.24-1.31,2.24h-1.95l2.35-3.61-2.38-3.59h2.05l1.47,2.22,1.33-2.22h1.95l-2.37,3.59,2.39,3.61h-2.05Z" fill="#4d4748"/><path d="M160.04,125.48c.29-.56.68-1,1.18-1.3.5-.3,1.05-.46,1.67-.46.54,0,1.01.11,1.41.33.4.22.73.49.97.82v-1.03h1.83v7.2h-1.83v-1.05c-.23.34-.56.62-.97.84-.41.22-.89.33-1.42.33-.61,0-1.16-.16-1.66-.47-.5-.31-.89-.75-1.18-1.32-.29-.57-.44-1.22-.44-1.96s.15-1.37.44-1.94ZM165.01,126.31c-.17-.32-.41-.56-.7-.73s-.61-.25-.95-.25-.65.08-.94.25c-.29.16-.52.41-.7.72-.18.32-.27.69-.27,1.12s.09.81.27,1.14.41.57.7.75c.29.17.6.26.93.26s.65-.08.95-.25.53-.41.7-.73c.17-.32.26-.7.26-1.14s-.09-.82-.26-1.14Z" fill="#4d4748"/><path d="M179.97,124.56c.54.54.81,1.3.81,2.27v4.22h-1.82v-3.98c0-.56-.14-1-.43-1.29s-.68-.45-1.17-.45-.89.15-1.18.45-.44.73-.44,1.29v3.98h-1.82v-3.98c0-.56-.14-1-.43-1.29s-.68-.45-1.17-.45-.9.15-1.19.45-.44.73-.44,1.29v3.98h-1.82v-7.2h1.82v.87c.23-.3.54-.54.9-.71s.77-.26,1.22-.26c.56,0,1.07.12,1.51.36.44.24.78.58,1.03,1.02.23-.42.57-.75,1.02-1,.45-.25.93-.38,1.45-.38.88,0,1.6.27,2.14.81Z" fill="#4d4748"/><path d="M185.3,124.06c.41-.22.88-.33,1.41-.33.62,0,1.17.15,1.67.46.5.3.89.73,1.18,1.29.29.56.44,1.21.44,1.94s-.14,1.39-.44,1.96c-.29.57-.68,1.01-1.18,1.32-.5.31-1.06.47-1.67.47-.53,0-.99-.11-1.4-.33-.4-.22-.73-.49-.98-.82v4.46h-1.82v-10.63h1.82v1.04c.23-.33.56-.6.97-.83ZM187.87,126.3c-.18-.32-.41-.56-.7-.72-.29-.17-.6-.25-.94-.25s-.64.08-.93.25-.52.41-.7.73c-.18.32-.27.7-.27,1.13s.09.81.27,1.13c.18.32.41.57.7.73s.6.25.93.25.65-.09.94-.26c.29-.17.52-.42.7-.74.18-.32.27-.7.27-1.14s-.09-.81-.27-1.12Z" fill="#4d4748"/><path d="M193.15,121.43v9.62h-1.82v-9.62h1.82Z" fill="#4d4748"/><path d="M201.58,127.99h-5.26c.04.52.22.93.55,1.22.32.29.71.44,1.18.44.68,0,1.16-.29,1.44-.87h1.96c-.21.69-.61,1.26-1.2,1.71-.59.45-1.31.67-2.17.67-.69,0-1.32-.15-1.87-.46-.55-.31-.98-.74-1.29-1.31-.31-.56-.46-1.21-.46-1.95s.15-1.4.46-1.96c.3-.56.73-1,1.27-1.3.55-.3,1.17-.46,1.88-.46s1.3.15,1.84.44c.54.29.96.71,1.26,1.25.3.54.45,1.16.45,1.87,0,.26-.02.49-.05.7ZM199.75,126.77c0-.47-.18-.84-.51-1.12-.33-.28-.73-.42-1.21-.42-.45,0-.83.14-1.14.41-.31.27-.5.65-.57,1.14h3.42Z" fill="#4d4748"/><path d="M202.49,133.61v-.18c.88-.9,1.55-1.96,2.02-3.19.47-1.23.71-2.5.71-3.82s-.25-2.67-.75-3.94c-.5-1.27-1.22-2.37-2.18-3.28v-.17h1.83c.93.83,1.63,1.9,2.12,3.2.49,1.3.73,2.7.73,4.18s-.23,2.8-.7,4.07c-.46,1.26-1.12,2.3-1.96,3.12h-1.83Z" fill="#4d4748"/><path d="M6.58,158.52c.72.37,1.28.9,1.68,1.59.39.69.59,1.49.59,2.4s-.2,1.71-.59,2.39c-.39.68-.95,1.21-1.68,1.58-.72.37-1.56.56-2.52.56H.9v-9.07h3.17c.95,0,1.79.19,2.52.56ZM6.21,164.71c.52-.52.78-1.25.78-2.2s-.26-1.68-.78-2.22c-.52-.53-1.26-.8-2.21-.8h-1.29v5.99h1.29c.95,0,1.69-.26,2.21-.78Z" fill="#231f20"/><path d="M37.17,158.04v9h-1.18v-6.71l-2.99,6.71h-.83l-3-6.72v6.72h-1.18v-9h1.27l3.33,7.44,3.33-7.44h1.26Z" fill="#231f20"/><path d="M45.3,159.91l-4.29,10.48h-1.22l1.4-3.43-2.87-7.05h1.31l2.24,5.77,2.21-5.77h1.22Z" fill="#231f20"/><path d="M52.86,160.89h-1.5v6.15h-1.18v-6.15h-.92v-.97h.92v-.51c0-.8.21-1.38.62-1.75.41-.37,1.07-.55,1.98-.55v.99c-.52,0-.89.1-1.1.31-.21.2-.32.54-.32,1.01v.51h1.5v.97Z" fill="#231f20"/><path d="M56.31,160.12c.39-.23.86-.34,1.41-.34v1.22h-.31c-1.33,0-1.99.72-1.99,2.16v3.87h-1.18v-7.12h1.18v1.16c.21-.41.5-.72.89-.95Z" fill="#231f20"/><path d="M59.12,158.52c-.16-.16-.23-.35-.23-.57s.08-.42.23-.57.35-.23.57-.23.4.08.55.23c.15.16.23.35.23.57s-.08.42-.23.57c-.15.16-.34.23-.55.23s-.42-.08-.57-.23ZM60.27,159.91v7.12h-1.18v-7.12h1.18Z" fill="#231f20"/><path d="M68.74,163.92h-5.69c.04.7.28,1.25.72,1.64s.97.59,1.59.59c.51,0,.94-.12,1.28-.36.34-.24.58-.56.72-.96h1.27c-.19.68-.57,1.24-1.14,1.67s-1.28.64-2.13.64c-.68,0-1.28-.15-1.81-.46s-.95-.73-1.25-1.29c-.3-.56-.46-1.21-.46-1.94s.15-1.38.44-1.94.71-.98,1.24-1.28c.53-.3,1.15-.45,1.84-.45s1.27.15,1.79.44c.52.29.92.7,1.2,1.21.28.52.42,1.1.42,1.75,0,.23-.01.46-.04.71ZM67.26,161.79c-.2-.33-.47-.57-.81-.74-.34-.17-.72-.25-1.14-.25-.6,0-1.11.19-1.53.57-.42.38-.66.91-.72,1.59h4.5c0-.45-.1-.84-.3-1.16Z" fill="#231f20"/><path d="M75.92,160.57c.54.52.81,1.28.81,2.27v4.2h-1.17v-4.03c0-.71-.18-1.25-.53-1.63s-.84-.57-1.46-.57-1.12.19-1.49.58c-.37.39-.55.96-.55,1.7v3.94h-1.18v-7.12h1.18v1.01c.23-.36.55-.65.96-.84s.85-.3,1.33-.3c.87,0,1.57.26,2.11.79Z" fill="#231f20"/><path d="M78.66,161.53c.29-.55.7-.98,1.22-1.28.52-.3,1.09-.46,1.74-.46.55,0,1.07.13,1.55.38s.84.59,1.09,1.01v-3.77h1.2v9.62h-1.2v-1.34c-.23.42-.58.77-1.04,1.05-.46.27-1,.41-1.61.41s-1.21-.16-1.72-.47c-.52-.31-.92-.75-1.22-1.31s-.44-1.2-.44-1.92.15-1.37.44-1.92ZM83.93,162.06c-.22-.4-.51-.7-.88-.92-.37-.21-.77-.32-1.22-.32s-.84.1-1.21.31-.65.51-.87.91-.33.87-.33,1.4.11,1.02.33,1.42c.22.4.51.71.87.92.36.21.77.32,1.21.32s.85-.11,1.22-.32c.37-.21.66-.52.88-.92.22-.4.33-.87.33-1.41s-.11-1-.33-1.4Z" fill="#231f20"/><path d="M96.28,165.02h-3.95l-.73,2.01h-1.25l3.28-9.01h1.37l3.26,9.01h-1.25l-.73-2.01ZM95.94,164.06l-1.64-4.58-1.64,4.58h3.28Z" fill="#231f20"/><path d="M105.26,160.57c.54.52.81,1.28.81,2.27v4.2h-1.17v-4.03c0-.71-.18-1.25-.53-1.63s-.84-.57-1.46-.57-1.12.19-1.49.58c-.37.39-.55.96-.55,1.7v3.94h-1.18v-7.12h1.18v1.01c.23-.36.55-.65.96-.84s.85-.3,1.33-.3c.87,0,1.57.26,2.11.79Z" fill="#231f20"/><path d="M113.58,160.57c.54.52.81,1.28.81,2.27v4.2h-1.17v-4.03c0-.71-.18-1.25-.53-1.63s-.84-.57-1.46-.57-1.12.19-1.49.58c-.37.39-.55.96-.55,1.7v3.94h-1.18v-7.12h1.18v1.01c.23-.36.55-.65.96-.84s.85-.3,1.33-.3c.87,0,1.57.26,2.11.79Z" fill="#231f20"/><path d="M116.32,161.53c.29-.55.7-.98,1.22-1.28.52-.3,1.09-.46,1.72-.46s1.17.13,1.62.4c.46.27.8.61,1.03,1.01v-1.3h1.2v7.12h-1.2v-1.33c-.23.42-.58.76-1.05,1.03-.46.27-1,.41-1.62.41s-1.2-.16-1.72-.47c-.51-.31-.91-.75-1.21-1.31s-.44-1.2-.44-1.92.15-1.37.44-1.92ZM121.59,162.06c-.22-.4-.51-.7-.88-.92-.37-.21-.77-.32-1.22-.32s-.84.1-1.21.31-.65.51-.87.91-.33.87-.33,1.4.11,1.02.33,1.42c.22.4.51.71.87.92.36.21.77.32,1.21.32s.85-.11,1.22-.32c.37-.21.66-.52.88-.92.22-.4.33-.87.33-1.41s-.11-1-.33-1.4Z" fill="#231f20"/><path d="M128.58,161.53c.29-.55.7-.98,1.22-1.28.52-.3,1.09-.46,1.74-.46.55,0,1.07.13,1.55.38s.84.59,1.09,1.01v-3.77h1.2v9.62h-1.2v-1.34c-.23.42-.58.77-1.04,1.05-.46.27-1,.41-1.61.41s-1.21-.16-1.72-.47c-.52-.31-.92-.75-1.22-1.31s-.44-1.2-.44-1.92.15-1.37.44-1.92ZM133.85,162.06c-.22-.4-.51-.7-.88-.92-.37-.21-.77-.32-1.22-.32s-.84.1-1.21.31-.65.51-.87.91-.33.87-.33,1.4.11,1.02.33,1.42c.22.4.51.71.87.92.36.21.77.32,1.21.32s.85-.11,1.22-.32c.37-.21.66-.52.88-.92.22-.4.33-.87.33-1.41s-.11-1-.33-1.4Z" fill="#231f20"/><path d="M138.66,166.7c-.54-.3-.97-.73-1.27-1.29-.31-.56-.46-1.21-.46-1.94s.16-1.37.47-1.93c.32-.56.75-.99,1.29-1.29.55-.3,1.16-.45,1.83-.45s1.29.15,1.83.45c.55.3.98.73,1.29,1.28s.47,1.2.47,1.94-.16,1.38-.49,1.94c-.33.56-.76.99-1.32,1.29s-1.17.46-1.85.46-1.27-.15-1.81-.46ZM141.67,165.82c.37-.2.67-.5.9-.9.23-.4.34-.88.34-1.46s-.11-1.06-.34-1.46c-.23-.4-.52-.7-.88-.89-.36-.19-.76-.29-1.18-.29s-.83.1-1.19.29c-.36.2-.65.49-.86.89-.22.4-.33.88-.33,1.46s.11,1.07.32,1.47c.21.4.5.7.85.89.35.2.75.29,1.17.29s.82-.1,1.2-.3Z" fill="#231f20"/><path d="M152.15,163.92h-5.69c.04.7.28,1.25.72,1.64s.97.59,1.59.59c.51,0,.94-.12,1.28-.36.34-.24.58-.56.72-.96h1.27c-.19.68-.57,1.24-1.14,1.67s-1.28.64-2.13.64c-.68,0-1.28-.15-1.81-.46s-.95-.73-1.25-1.29c-.3-.56-.46-1.21-.46-1.94s.15-1.38.44-1.94.71-.98,1.24-1.28c.53-.3,1.15-.45,1.84-.45s1.27.15,1.79.44c.52.29.92.7,1.2,1.21.28.52.42,1.1.42,1.75,0,.23-.01.46-.04.71ZM150.67,161.79c-.2-.33-.47-.57-.81-.74-.34-.17-.72-.25-1.14-.25-.6,0-1.11.19-1.53.57-.42.38-.66.91-.72,1.59h4.5c0-.45-.1-.84-.3-1.16Z" fill="#231f20"/><path d="M154.8,166.88c-.43-.19-.78-.45-1.03-.78-.25-.33-.39-.72-.42-1.15h1.22c.03.36.2.65.5.87.3.23.69.34,1.18.34.45,0,.81-.1,1.07-.3s.39-.45.39-.75-.14-.54-.42-.7c-.28-.15-.71-.3-1.29-.45-.53-.14-.96-.28-1.29-.42-.33-.14-.62-.35-.86-.64-.24-.28-.36-.65-.36-1.11,0-.36.11-.7.33-1s.52-.54.92-.72.85-.27,1.37-.27c.79,0,1.43.2,1.91.6.49.4.75.94.78,1.64h-1.18c-.03-.37-.18-.67-.45-.9-.27-.22-.64-.34-1.1-.34-.42,0-.76.09-1.01.27-.25.18-.38.42-.38.71,0,.23.08.43.23.58s.34.27.57.36.55.19.96.31c.51.14.93.28,1.25.41.32.13.6.34.83.6s.35.62.36,1.05c0,.39-.11.74-.33,1.05-.22.31-.52.56-.92.73-.39.18-.85.27-1.36.27-.55,0-1.04-.09-1.47-.28Z" fill="#231f20"/><path d="M165.45,160.89v4.2c0,.35.07.59.22.73.15.14.4.21.77.21h.87v1h-1.07c-.66,0-1.15-.15-1.48-.46-.33-.3-.49-.8-.49-1.5v-4.2h-.92v-.97h.92v-1.79h1.18v1.79h1.86v.97h-1.86Z" fill="#231f20"/><path d="M173.73,160.13c.43.23.77.57,1.02,1.03s.37,1.02.37,1.68v4.2h-1.17v-4.03c0-.71-.18-1.25-.53-1.63s-.84-.57-1.46-.57-1.12.19-1.49.58c-.37.39-.55.96-.55,1.7v3.94h-1.18v-9.62h1.18v3.51c.23-.36.56-.65.97-.84.41-.2.87-.3,1.38-.3.54,0,1.02.12,1.46.34Z" fill="#231f20"/><path d="M177.06,161.53c.29-.55.7-.98,1.22-1.28.52-.3,1.09-.46,1.72-.46s1.17.13,1.62.4c.46.27.8.61,1.03,1.01v-1.3h1.2v7.12h-1.2v-1.33c-.23.42-.58.76-1.05,1.03-.46.27-1,.41-1.62.41s-1.2-.16-1.72-.47c-.51-.31-.91-.75-1.21-1.31s-.44-1.2-.44-1.92.15-1.37.44-1.92ZM182.32,162.06c-.22-.4-.51-.7-.88-.92-.37-.21-.77-.32-1.22-.32s-.84.1-1.21.31-.65.51-.87.91-.33.87-.33,1.4.11,1.02.33,1.42c.22.4.51.71.87.92.36.21.77.32,1.21.32s.85-.11,1.22-.32c.37-.21.66-.52.88-.92.22-.4.33-.87.33-1.41s-.11-1-.33-1.4Z" fill="#231f20"/><path d="M187.29,160.89v4.2c0,.35.07.59.22.73.15.14.4.21.77.21h.87v1h-1.07c-.66,0-1.15-.15-1.48-.46-.33-.3-.49-.8-.49-1.5v-4.2h-.92v-.97h.92v-1.79h1.18v1.79h1.86v.97h-1.86Z" fill="#231f20"/><path d="M195.27,168.59c0,.63-.16,1.1-.48,1.39-.32.29-.79.44-1.4.44h-.69v-1h.49c.33,0,.56-.06.7-.2.13-.13.2-.35.2-.66v-8.65h1.18v8.67ZM194.12,158.52c-.15-.16-.23-.35-.23-.57s.08-.42.23-.57.34-.23.57-.23.41.08.57.23c.15.16.23.35.23.57s-.08.42-.23.57c-.15.16-.34.23-.57.23s-.41-.08-.57-.23Z" fill="#231f20"/><path d="M198.57,166.7c-.54-.3-.97-.73-1.27-1.29-.31-.56-.46-1.21-.46-1.94s.16-1.37.47-1.93c.32-.56.75-.99,1.29-1.29.55-.3,1.16-.45,1.83-.45s1.29.15,1.83.45c.55.3.98.73,1.29,1.28s.47,1.2.47,1.94-.16,1.38-.49,1.94c-.33.56-.76.99-1.32,1.29s-1.17.46-1.85.46-1.27-.15-1.81-.46ZM201.58,165.82c.37-.2.67-.5.9-.9.23-.4.34-.88.34-1.46s-.11-1.06-.34-1.46c-.23-.4-.52-.7-.88-.89-.36-.19-.76-.29-1.18-.29s-.83.1-1.19.29c-.36.2-.65.49-.86.89-.22.4-.33.88-.33,1.46s.11,1.07.32,1.47c.21.4.5.7.85.89.35.2.75.29,1.17.29s.82-.1,1.2-.3Z" fill="#231f20"/><path d="M207.84,160.2c.47-.27,1-.4,1.6-.4.64,0,1.22.15,1.73.46.51.3.91.73,1.21,1.28.29.55.44,1.19.44,1.92s-.15,1.36-.44,1.92c-.29.56-.7,1-1.22,1.31-.52.31-1.09.47-1.72.47s-1.15-.13-1.62-.4-.81-.61-1.05-1.03v1.31h-1.18v-9.62h1.18v3.82c.24-.42.6-.77,1.07-1.04ZM211.29,162.05c-.22-.4-.51-.7-.88-.91s-.77-.31-1.22-.31-.83.11-1.2.32c-.37.21-.66.52-.88.92s-.33.87-.33,1.4.11,1.01.33,1.41c.22.4.52.71.88.92.37.21.77.32,1.2.32s.85-.11,1.22-.32c.37-.21.66-.52.88-.92.22-.4.32-.88.32-1.42s-.11-1.01-.32-1.4Z" fill="#231f20"/><path d="M214.19,166.88c-.16-.16-.23-.35-.23-.57s.08-.42.23-.57c.16-.16.35-.23.57-.23s.4.08.55.23c.15.16.23.35.23.57s-.08.42-.23.57c-.15.16-.34.23-.55.23s-.42-.08-.57-.23Z" fill="#231f20"/><path d="M3.03,201.69v1.85h2.98v1.72h-2.98v2h3.37v1.78H.81v-9.13h5.59v1.78h-3.37Z" fill="#231f20"/><path d="M29.37,208.53c-.69-.39-1.24-.94-1.64-1.65-.4-.71-.6-1.5-.6-2.39s.2-1.68.6-2.39c.4-.71.95-1.26,1.64-1.65s1.46-.59,2.3-.59,1.62.2,2.31.59,1.24.94,1.64,1.64c.4.7.6,1.5.6,2.39s-.2,1.69-.6,2.39c-.4.7-.94,1.25-1.64,1.64-.69.39-1.46.59-2.31.59s-1.61-.2-2.3-.59ZM33.38,207.66c.51-.29.91-.71,1.2-1.26.29-.55.44-1.18.44-1.9s-.15-1.36-.44-1.9c-.29-.54-.69-.96-1.19-1.25-.5-.29-1.08-.44-1.72-.44s-1.21.15-1.72.44c-.5.29-.9.71-1.19,1.25-.29.54-.44,1.18-.44,1.9s.15,1.35.44,1.9c.29.55.69.97,1.2,1.26s1.08.44,1.71.44,1.2-.15,1.71-.44Z" fill="#231f20"/><path d="M40.68,202.88h-1.5v6.15h-1.18v-6.15h-.92v-.97h.92v-.51c0-.8.21-1.38.62-1.75.41-.37,1.07-.55,1.98-.55v.99c-.52,0-.89.1-1.1.31-.21.2-.32.54-.32,1.01v.51h1.5v.97Z" fill="#231f20"/><path d="M45.53,203.53c.29-.55.7-.98,1.23-1.28.52-.3,1.12-.46,1.8-.46.88,0,1.6.21,2.16.64.57.42.94,1.01,1.12,1.77h-1.27c-.12-.43-.36-.78-.71-1.03-.35-.25-.79-.38-1.31-.38-.68,0-1.22.23-1.64.7-.42.46-.62,1.12-.62,1.97s.21,1.52.62,1.99.96.7,1.64.7c.52,0,.95-.12,1.3-.36.35-.24.58-.59.71-1.04h1.27c-.19.73-.57,1.31-1.14,1.75s-1.29.66-2.14.66c-.68,0-1.28-.15-1.8-.46s-.93-.73-1.23-1.29-.44-1.2-.44-1.95.15-1.38.44-1.93Z" fill="#231f20"/><path d="M54.71,208.7c-.54-.3-.97-.73-1.27-1.29-.31-.56-.46-1.21-.46-1.94s.16-1.37.47-1.93c.32-.56.75-.99,1.29-1.29.55-.3,1.16-.45,1.83-.45s1.29.15,1.83.45c.55.3.98.73,1.29,1.28s.47,1.2.47,1.94-.16,1.38-.49,1.94c-.33.56-.76.99-1.32,1.29s-1.17.46-1.85.46-1.27-.15-1.81-.46ZM57.72,207.81c.37-.2.67-.5.9-.9.23-.4.34-.88.34-1.46s-.11-1.06-.34-1.46c-.23-.4-.52-.7-.88-.89-.36-.19-.76-.29-1.18-.29s-.83.1-1.19.29c-.36.2-.65.49-.86.89-.22.4-.33.88-.33,1.46s.11,1.07.32,1.47c.21.4.5.7.85.89.35.2.75.29,1.17.29s.82-.1,1.2-.3Z" fill="#231f20"/><path d="M68.05,201.91v7.12h-1.18v-1.05c-.23.36-.54.65-.94.85-.4.2-.85.3-1.33.3-.55,0-1.05-.11-1.5-.34-.44-.23-.79-.57-1.05-1.03-.26-.46-.38-1.02-.38-1.68v-4.17h1.17v4.02c0,.7.18,1.24.53,1.62s.84.57,1.46.57,1.13-.2,1.5-.58c.36-.39.55-.96.55-1.7v-3.91h1.18Z" fill="#231f20"/><path d="M72.13,202.12c.39-.23.86-.34,1.41-.34v1.22h-.31c-1.33,0-1.99.72-1.99,2.16v3.87h-1.18v-7.12h1.18v1.16c.21-.41.5-.72.89-.95Z" fill="#231f20"/><path d="M75.96,208.87c-.43-.19-.78-.45-1.03-.78-.25-.33-.39-.72-.42-1.15h1.22c.03.36.2.65.5.87.3.23.69.34,1.18.34.45,0,.81-.1,1.07-.3s.39-.45.39-.75-.14-.54-.42-.7c-.28-.15-.71-.3-1.29-.45-.53-.14-.96-.28-1.29-.42-.33-.14-.62-.35-.86-.64-.24-.28-.36-.65-.36-1.11,0-.36.11-.7.33-1s.52-.54.92-.72.85-.27,1.37-.27c.79,0,1.43.2,1.91.6.49.4.75.94.78,1.64h-1.18c-.03-.37-.18-.67-.45-.9-.27-.22-.64-.34-1.1-.34-.42,0-.76.09-1.01.27-.25.18-.38.42-.38.71,0,.23.08.43.23.58s.34.27.57.36.55.19.96.31c.51.14.93.28,1.25.41.32.13.6.34.83.6s.35.62.36,1.05c0,.39-.11.74-.33,1.05-.22.31-.52.56-.92.73-.39.18-.85.27-1.36.27-.55,0-1.04-.09-1.47-.28Z" fill="#231f20"/><path d="M88.15,205.91h-5.69c.04.7.28,1.25.72,1.64s.97.59,1.59.59c.51,0,.94-.12,1.28-.36.34-.24.58-.56.72-.96h1.27c-.19.68-.57,1.24-1.14,1.67s-1.28.64-2.13.64c-.68,0-1.28-.15-1.81-.46s-.95-.73-1.25-1.29c-.3-.56-.46-1.21-.46-1.94s.15-1.38.44-1.94.71-.98,1.24-1.28c.53-.3,1.15-.45,1.84-.45s1.27.15,1.79.44c.52.29.92.7,1.2,1.21.28.52.42,1.1.42,1.75,0,.23-.01.46-.04.71ZM86.67,203.79c-.2-.33-.47-.57-.81-.74-.34-.17-.72-.25-1.14-.25-.6,0-1.11.19-1.53.57-.42.38-.66.91-.72,1.59h4.5c0-.45-.1-.84-.3-1.16Z" fill="#231f20"/><path d="M89.56,208.88c-.16-.16-.23-.35-.23-.57s.08-.42.23-.57c.16-.16.35-.23.57-.23s.4.08.55.23c.15.16.23.35.23.57s-.08.42-.23.57c-.15.16-.34.23-.55.23s-.42-.08-.57-.23Z" fill="#231f20"/><path d="M96.11,202.11c.4-.71.94-1.26,1.63-1.66.69-.4,1.45-.6,2.29-.6.99,0,1.85.24,2.59.71s1.27,1.15,1.61,2.03h-1.42c-.25-.55-.61-.97-1.09-1.26-.47-.29-1.04-.44-1.7-.44s-1.2.15-1.7.44c-.5.29-.9.71-1.18,1.25s-.43,1.18-.43,1.9.14,1.35.43,1.89.68.96,1.18,1.25c.5.29,1.07.44,1.7.44s1.22-.14,1.7-.44c.47-.29.83-.71,1.09-1.25h1.42c-.34.87-.88,1.54-1.61,2.01-.74.47-1.6.71-2.59.71-.84,0-1.61-.2-2.29-.59-.69-.39-1.23-.94-1.63-1.64-.4-.7-.6-1.5-.6-2.38s.2-1.68.6-2.39Z" fill="#231f20"/><path d="M107.28,208.7c-.54-.3-.97-.73-1.27-1.29-.31-.56-.46-1.21-.46-1.94s.16-1.37.47-1.93c.32-.56.75-.99,1.29-1.29.55-.3,1.16-.45,1.83-.45s1.29.15,1.83.45c.55.3.98.73,1.29,1.28s.47,1.2.47,1.94-.16,1.38-.49,1.94c-.33.56-.76.99-1.32,1.29s-1.17.46-1.85.46-1.27-.15-1.81-.46ZM110.29,207.81c.37-.2.67-.5.9-.9.23-.4.34-.88.34-1.46s-.11-1.06-.34-1.46c-.23-.4-.52-.7-.88-.89-.36-.19-.76-.29-1.18-.29s-.83.1-1.19.29c-.36.2-.65.49-.86.89-.22.4-.33.88-.33,1.46s.11,1.07.32,1.47c.21.4.5.7.85.89.35.2.75.29,1.17.29s.82-.1,1.2-.3Z" fill="#231f20"/><path d="M124.36,202.12c.43.23.78.57,1.03,1.03.25.46.38,1.02.38,1.68v4.2h-1.17v-4.03c0-.71-.18-1.25-.53-1.63-.35-.38-.83-.57-1.42-.57s-1.11.2-1.47.59c-.36.39-.55.96-.55,1.71v3.93h-1.17v-4.03c0-.71-.18-1.25-.53-1.63-.35-.38-.83-.57-1.42-.57s-1.11.2-1.47.59c-.36.39-.55.96-.55,1.71v3.93h-1.18v-7.12h1.18v1.03c.23-.37.55-.66.94-.86.39-.2.83-.3,1.31-.3.6,0,1.13.13,1.59.4.46.27.8.66,1.03,1.18.2-.5.53-.89.99-1.17.46-.28.97-.42,1.53-.42s1.05.12,1.48.34Z" fill="#231f20"/><path d="M134.16,205.91h-5.69c.04.7.28,1.25.72,1.64s.97.59,1.59.59c.51,0,.94-.12,1.28-.36.34-.24.58-.56.72-.96h1.27c-.19.68-.57,1.24-1.14,1.67s-1.28.64-2.13.64c-.68,0-1.28-.15-1.81-.46s-.95-.73-1.25-1.29c-.3-.56-.46-1.21-.46-1.94s.15-1.38.44-1.94.71-.98,1.24-1.28c.53-.3,1.15-.45,1.84-.45s1.27.15,1.79.44c.52.29.92.7,1.2,1.21.28.52.42,1.1.42,1.75,0,.23-.01.46-.04.71ZM132.68,203.79c-.2-.33-.47-.57-.81-.74-.34-.17-.72-.25-1.14-.25-.6,0-1.11.19-1.53.57-.42.38-.66.91-.72,1.59h4.5c0-.45-.1-.84-.3-1.16Z" fill="#231f20"/><path d="M140.52,208.7c-.54-.3-.97-.73-1.27-1.29-.31-.56-.46-1.21-.46-1.94s.16-1.37.47-1.93c.32-.56.75-.99,1.29-1.29.55-.3,1.16-.45,1.83-.45s1.29.15,1.83.45c.55.3.98.73,1.29,1.28s.47,1.2.47,1.94-.16,1.38-.49,1.94c-.33.56-.76.99-1.32,1.29s-1.17.46-1.85.46-1.27-.15-1.81-.46ZM143.53,207.81c.37-.2.67-.5.9-.9.23-.4.34-.88.34-1.46s-.11-1.06-.34-1.46c-.23-.4-.52-.7-.88-.89-.36-.19-.76-.29-1.18-.29s-.83.1-1.19.29c-.36.2-.65.49-.86.89-.22.4-.33.88-.33,1.46s.11,1.07.32,1.47c.21.4.5.7.85.89.35.2.75.29,1.17.29s.82-.1,1.2-.3Z" fill="#231f20"/><path d="M153.13,202.57c.54.52.81,1.28.81,2.27v4.2h-1.17v-4.03c0-.71-.18-1.25-.53-1.63s-.84-.57-1.46-.57-1.12.19-1.49.58c-.37.39-.55.96-.55,1.7v3.94h-1.18v-7.12h1.18v1.01c.23-.36.55-.65.96-.84s.85-.3,1.33-.3c.87,0,1.57.26,2.11.79Z" fill="#231f20"/><path d="M162.33,205.91h-5.69c.04.7.28,1.25.72,1.64s.97.59,1.59.59c.51,0,.94-.12,1.28-.36.34-.24.58-.56.72-.96h1.27c-.19.68-.57,1.24-1.14,1.67s-1.28.64-2.13.64c-.68,0-1.28-.15-1.81-.46s-.95-.73-1.25-1.29c-.3-.56-.46-1.21-.46-1.94s.15-1.38.44-1.94.71-.98,1.24-1.28c.53-.3,1.15-.45,1.84-.45s1.27.15,1.79.44c.52.29.92.7,1.2,1.21.28.52.42,1.1.42,1.75,0,.23-.01.46-.04.71ZM160.85,203.79c-.2-.33-.47-.57-.81-.74-.34-.17-.72-.25-1.14-.25-.6,0-1.11.19-1.53.57-.42.38-.66.91-.72,1.59h4.5c0-.45-.1-.84-.3-1.16Z" fill="#231f20"/><path d="M167.4,203.53c.29-.55.7-.98,1.22-1.28.52-.3,1.09-.46,1.74-.46.55,0,1.07.13,1.55.38s.84.59,1.09,1.01v-3.77h1.2v9.62h-1.2v-1.34c-.23.42-.58.77-1.04,1.05-.46.27-1,.41-1.61.41s-1.21-.16-1.72-.47c-.52-.31-.92-.75-1.22-1.31s-.44-1.2-.44-1.92.15-1.37.44-1.92ZM172.66,204.06c-.22-.4-.51-.7-.88-.92-.37-.21-.77-.32-1.22-.32s-.84.1-1.21.31-.65.51-.87.91-.33.87-.33,1.4.11,1.02.33,1.42c.22.4.51.71.87.92.36.21.77.32,1.21.32s.85-.11,1.22-.32c.37-.21.66-.52.88-.92.22-.4.33-.87.33-1.41s-.11-1-.33-1.4Z" fill="#231f20"/><path d="M176.19,203.53c.29-.55.7-.98,1.22-1.28.52-.3,1.09-.46,1.72-.46s1.17.13,1.62.4c.46.27.8.61,1.03,1.01v-1.3h1.2v7.12h-1.2v-1.33c-.23.42-.58.76-1.05,1.03-.46.27-1,.41-1.62.41s-1.2-.16-1.72-.47c-.51-.31-.91-.75-1.21-1.31s-.44-1.2-.44-1.92.15-1.37.44-1.92ZM181.45,204.06c-.22-.4-.51-.7-.88-.92-.37-.21-.77-.32-1.22-.32s-.84.1-1.21.31-.65.51-.87.91-.33.87-.33,1.4.11,1.02.33,1.42c.22.4.51.71.87.92.36.21.77.32,1.21.32s.85-.11,1.22-.32c.37-.21.66-.52.88-.92.22-.4.33-.87.33-1.41s-.11-1-.33-1.4Z" fill="#231f20"/><path d="M190.96,201.91l-4.29,10.48h-1.22l1.4-3.43-2.87-7.05h1.31l2.24,5.77,2.21-5.77h1.22Z" fill="#231f20"/><path d="M201.19,202.57c.54.52.81,1.28.81,2.27v4.2h-1.17v-4.03c0-.71-.18-1.25-.53-1.63s-.84-.57-1.46-.57-1.12.19-1.49.58c-.37.39-.55.96-.55,1.7v3.94h-1.18v-7.12h1.18v1.01c.23-.36.55-.65.96-.84s.85-.3,1.33-.3c.87,0,1.57.26,2.11.79Z" fill="#231f20"/><path d="M210.39,205.91h-5.69c.04.7.28,1.25.72,1.64s.97.59,1.59.59c.51,0,.94-.12,1.28-.36.34-.24.58-.56.72-.96h1.27c-.19.68-.57,1.24-1.14,1.67s-1.28.64-2.13.64c-.68,0-1.28-.15-1.81-.46s-.95-.73-1.25-1.29c-.3-.56-.46-1.21-.46-1.94s.15-1.38.44-1.94.71-.98,1.24-1.28c.53-.3,1.15-.45,1.84-.45s1.27.15,1.79.44c.52.29.92.7,1.2,1.21.28.52.42,1.1.42,1.75,0,.23-.01.46-.04.71ZM208.91,203.79c-.2-.33-.47-.57-.81-.74-.34-.17-.72-.25-1.14-.25-.6,0-1.11.19-1.53.57-.42.38-.66.91-.72,1.59h4.5c0-.45-.1-.84-.3-1.16Z" fill="#231f20"/><path d="M215.71,209.03l-1.69-2.65-1.62,2.65h-1.24l2.3-3.54-2.3-3.59h1.34l1.69,2.64,1.61-2.64h1.24l-2.29,3.52,2.3,3.6h-1.34Z" fill="#231f20"/><path d="M219.66,202.88v4.2c0,.35.07.59.22.73.15.14.4.21.77.21h.87v1h-1.07c-.66,0-1.15-.15-1.48-.46-.33-.3-.49-.8-.49-1.5v-4.2h-.92v-.97h.92v-1.79h1.18v1.79h1.86v.97h-1.86Z" fill="#231f20"/><path d="M235.91,201.91l-2.22,7.12h-1.22l-1.72-5.66-1.72,5.66h-1.22l-2.24-7.12h1.21l1.64,5.98,1.77-5.98h1.21l1.73,5.99,1.61-5.99h1.17Z" fill="#231f20"/><path d="M243.54,205.91h-5.69c.04.7.28,1.25.72,1.64s.97.59,1.59.59c.51,0,.94-.12,1.28-.36.34-.24.58-.56.72-.96h1.27c-.19.68-.57,1.24-1.14,1.67s-1.28.64-2.13.64c-.68,0-1.28-.15-1.81-.46s-.95-.73-1.25-1.29c-.3-.56-.46-1.21-.46-1.94s.15-1.38.44-1.94.71-.98,1.24-1.28c.53-.3,1.15-.45,1.84-.45s1.27.15,1.79.44c.52.29.92.7,1.2,1.21.28.52.42,1.1.42,1.75,0,.23-.01.46-.04.71ZM242.06,203.79c-.2-.33-.47-.57-.81-.74-.34-.17-.72-.25-1.14-.25-.6,0-1.11.19-1.53.57-.42.38-.66.91-.72,1.59h4.5c0-.45-.1-.84-.3-1.16Z" fill="#231f20"/><path d="M251.6,205.91h-5.69c.04.7.28,1.25.72,1.64s.97.59,1.59.59c.51,0,.94-.12,1.28-.36.34-.24.58-.56.72-.96h1.27c-.19.68-.57,1.24-1.14,1.67s-1.28.64-2.13.64c-.68,0-1.28-.15-1.81-.46s-.95-.73-1.25-1.29c-.3-.56-.46-1.21-.46-1.94s.15-1.38.44-1.94.71-.98,1.24-1.28c.53-.3,1.15-.45,1.84-.45s1.27.15,1.79.44c.52.29.92.7,1.2,1.21.28.52.42,1.1.42,1.75,0,.23-.01.46-.04.71ZM250.12,203.79c-.2-.33-.47-.57-.81-.74-.34-.17-.72-.25-1.14-.25-.6,0-1.11.19-1.53.57-.42.38-.66.91-.72,1.59h4.5c0-.45-.1-.84-.3-1.16Z" fill="#231f20"/><path d="M257.18,209.03l-2.79-3.15v3.15h-1.18v-9.62h1.18v5.66l2.74-3.16h1.65l-3.35,3.55,3.37,3.58h-1.61Z" fill="#231f20"/><path d="M259.7,208.88c-.16-.16-.23-.35-.23-.57s.08-.42.23-.57c.16-.16.35-.23.57-.23s.4.08.55.23c.15.16.23.35.23.57s-.08.42-.23.57c-.15.16-.34.23-.55.23s-.42-.08-.57-.23Z" fill="#231f20"/><path d="M6.75,241.9v1.78h-3.72v1.92h2.78v1.73h-2.78v3.69H.81v-9.13h5.94Z" fill="#231f20"/><path d="M34.01,241.97l-2.95,5.64v3.42h-1.18v-3.42l-2.96-5.64h1.31l2.24,4.59,2.24-4.59h1.31Z" fill="#231f20"/><path d="M35.68,250.69c-.54-.3-.97-.73-1.27-1.29-.31-.56-.46-1.21-.46-1.94s.16-1.37.47-1.93c.32-.56.75-.99,1.29-1.29.55-.3,1.16-.45,1.83-.45s1.29.15,1.83.45c.55.3.98.73,1.29,1.28s.47,1.2.47,1.94-.16,1.38-.49,1.94c-.33.56-.76.99-1.32,1.29s-1.17.46-1.85.46-1.27-.15-1.81-.46ZM38.69,249.81c.37-.2.67-.5.9-.9.23-.4.34-.88.34-1.46s-.11-1.06-.34-1.46c-.23-.4-.52-.7-.88-.89-.36-.19-.76-.29-1.18-.29s-.83.1-1.19.29c-.36.2-.65.49-.86.89-.22.4-.33.88-.33,1.46s.11,1.07.32,1.47c.21.4.5.7.85.89.35.2.75.29,1.17.29s.82-.1,1.2-.3Z" fill="#231f20"/><path d="M49.02,243.9v7.12h-1.18v-1.05c-.23.36-.54.65-.94.85-.4.2-.85.3-1.33.3-.55,0-1.05-.11-1.5-.34-.44-.23-.79-.57-1.05-1.03-.26-.46-.38-1.02-.38-1.68v-4.17h1.17v4.02c0,.7.18,1.24.53,1.62s.84.57,1.46.57,1.13-.2,1.5-.58c.36-.39.55-.96.55-1.7v-3.91h1.18Z" fill="#231f20"/><path d="M59.49,244.12c.43.23.77.57,1.02,1.03s.37,1.02.37,1.68v4.2h-1.17v-4.03c0-.71-.18-1.25-.53-1.63s-.84-.57-1.46-.57-1.12.19-1.49.58c-.37.39-.55.96-.55,1.7v3.94h-1.18v-9.62h1.18v3.51c.23-.36.56-.65.97-.84.41-.2.87-.3,1.38-.3.54,0,1.02.12,1.46.34Z" fill="#231f20"/><path d="M62.82,245.52c.29-.55.7-.98,1.22-1.28.52-.3,1.09-.46,1.72-.46s1.17.13,1.62.4c.46.27.8.61,1.03,1.01v-1.3h1.2v7.12h-1.2v-1.33c-.23.42-.58.76-1.05,1.03-.46.27-1,.41-1.62.41s-1.2-.16-1.72-.47c-.51-.31-.91-.75-1.21-1.31s-.44-1.2-.44-1.92.15-1.37.44-1.92ZM68.08,246.05c-.22-.4-.51-.7-.88-.92-.37-.21-.77-.32-1.22-.32s-.84.1-1.21.31-.65.51-.87.91-.33.87-.33,1.4.11,1.02.33,1.42c.22.4.51.71.87.92.36.21.77.32,1.21.32s.85-.11,1.22-.32c.37-.21.66-.52.88-.92.22-.4.33-.87.33-1.41s-.11-1-.33-1.4Z" fill="#231f20"/><path d="M74.11,249.94l2.21-6.03h1.26l-2.79,7.12h-1.38l-2.79-7.12h1.27l2.22,6.03Z" fill="#231f20"/><path d="M85.15,247.91h-5.69c.04.7.28,1.25.72,1.64s.97.59,1.59.59c.51,0,.94-.12,1.28-.36.34-.24.58-.56.72-.96h1.27c-.19.68-.57,1.24-1.14,1.67s-1.28.64-2.13.64c-.68,0-1.28-.15-1.81-.46s-.95-.73-1.25-1.29c-.3-.56-.46-1.21-.46-1.94s.15-1.38.44-1.94.71-.98,1.24-1.28c.53-.3,1.15-.45,1.84-.45s1.27.15,1.79.44c.52.29.92.7,1.2,1.21.28.52.42,1.1.42,1.75,0,.23-.01.46-.04.71ZM83.67,245.78c-.2-.33-.47-.57-.81-.74-.34-.17-.72-.25-1.14-.25-.6,0-1.11.19-1.53.57-.42.38-.66.91-.72,1.59h4.5c0-.45-.1-.84-.3-1.16Z" fill="#231f20"/><path d="M90.22,245.52c.29-.55.7-.98,1.22-1.28.52-.3,1.09-.46,1.72-.46s1.17.13,1.62.4c.46.27.8.61,1.03,1.01v-1.3h1.2v7.12h-1.2v-1.33c-.23.42-.58.76-1.05,1.03-.46.27-1,.41-1.62.41s-1.2-.16-1.72-.47c-.51-.31-.91-.75-1.21-1.31s-.44-1.2-.44-1.92.15-1.37.44-1.92ZM95.48,246.05c-.22-.4-.51-.7-.88-.92-.37-.21-.77-.32-1.22-.32s-.84.1-1.21.31-.65.51-.87.91-.33.87-.33,1.4.11,1.02.33,1.42c.22.4.51.71.87.92.36.21.77.32,1.21.32s.85-.11,1.22-.32c.37-.21.66-.52.88-.92.22-.4.33-.87.33-1.41s-.11-1-.33-1.4Z" fill="#231f20"/><path d="M103.66,241.41v9.62h-1.18v-9.62h1.18Z" fill="#231f20"/><path d="M106.97,250.69c-.54-.3-.97-.73-1.27-1.29-.31-.56-.46-1.21-.46-1.94s.16-1.37.47-1.93c.32-.56.75-.99,1.29-1.29.55-.3,1.16-.45,1.83-.45s1.29.15,1.83.45c.55.3.98.73,1.29,1.28s.47,1.2.47,1.94-.16,1.38-.49,1.94c-.33.56-.76.99-1.32,1.29s-1.17.46-1.85.46-1.27-.15-1.81-.46ZM109.98,249.81c.37-.2.67-.5.9-.9.23-.4.34-.88.34-1.46s-.11-1.06-.34-1.46c-.23-.4-.52-.7-.88-.89-.36-.19-.76-.29-1.18-.29s-.83.1-1.19.29c-.36.2-.65.49-.86.89-.22.4-.33.88-.33,1.46s.11,1.07.32,1.47c.21.4.5.7.85.89.35.2.75.29,1.17.29s.82-.1,1.2-.3Z" fill="#231f20"/><path d="M115.44,244.88v4.2c0,.35.07.59.22.73.15.14.4.21.77.21h.87v1h-1.07c-.66,0-1.15-.15-1.48-.46-.33-.3-.49-.8-.49-1.5v-4.2h-.92v-.97h.92v-1.79h1.18v1.79h1.86v.97h-1.86Z" fill="#231f20"/><path d="M123.49,250.69c-.54-.3-.97-.73-1.27-1.29-.31-.56-.46-1.21-.46-1.94s.16-1.37.47-1.93c.32-.56.75-.99,1.29-1.29.55-.3,1.16-.45,1.83-.45s1.29.15,1.83.45c.55.3.98.73,1.29,1.28s.47,1.2.47,1.94-.16,1.38-.49,1.94c-.33.56-.76.99-1.32,1.29s-1.17.46-1.85.46-1.27-.15-1.81-.46ZM126.5,249.81c.37-.2.67-.5.9-.9.23-.4.34-.88.34-1.46s-.11-1.06-.34-1.46c-.23-.4-.52-.7-.88-.89-.36-.19-.76-.29-1.18-.29s-.83.1-1.19.29c-.36.2-.65.49-.86.89-.22.4-.33.88-.33,1.46s.11,1.07.32,1.47c.21.4.5.7.85.89.35.2.75.29,1.17.29s.82-.1,1.2-.3Z" fill="#231f20"/><path d="M133.42,244.88h-1.5v6.15h-1.18v-6.15h-.92v-.97h.92v-.51c0-.8.21-1.38.62-1.75.41-.37,1.07-.55,1.98-.55v.99c-.52,0-.89.1-1.1.31-.21.2-.32.54-.32,1.01v.51h1.5v.97Z" fill="#231f20"/><path d="M141.17,244.88h-1.5v6.15h-1.18v-6.15h-.92v-.97h.92v-.51c0-.8.21-1.38.62-1.75.41-.37,1.07-.55,1.98-.55v.99c-.52,0-.89.1-1.1.31-.21.2-.32.54-.32,1.01v.51h1.5v.97Z" fill="#231f20"/><path d="M144.62,244.11c.39-.23.86-.34,1.41-.34v1.22h-.31c-1.33,0-1.99.72-1.99,2.16v3.87h-1.18v-7.12h1.18v1.16c.21-.41.5-.72.89-.95Z" fill="#231f20"/><path d="M147.43,242.51c-.16-.16-.23-.35-.23-.57s.08-.42.23-.57.35-.23.57-.23.4.08.55.23c.15.16.23.35.23.57s-.08.42-.23.57c-.15.16-.34.23-.55.23s-.42-.08-.57-.23ZM148.58,243.9v7.12h-1.18v-7.12h1.18Z" fill="#231f20"/><path d="M157.05,247.91h-5.69c.04.7.28,1.25.72,1.64s.97.59,1.59.59c.51,0,.94-.12,1.28-.36.34-.24.58-.56.72-.96h1.27c-.19.68-.57,1.24-1.14,1.67s-1.28.64-2.13.64c-.68,0-1.28-.15-1.81-.46s-.95-.73-1.25-1.29c-.3-.56-.46-1.21-.46-1.94s.15-1.38.44-1.94.71-.98,1.24-1.28c.53-.3,1.15-.45,1.84-.45s1.27.15,1.79.44c.52.29.92.7,1.2,1.21.28.52.42,1.1.42,1.75,0,.23-.01.46-.04.71ZM155.57,245.78c-.2-.33-.47-.57-.81-.74-.34-.17-.72-.25-1.14-.25-.6,0-1.11.19-1.53.57-.42.38-.66.91-.72,1.59h4.5c0-.45-.1-.84-.3-1.16Z" fill="#231f20"/><path d="M164.23,244.56c.54.52.81,1.28.81,2.27v4.2h-1.17v-4.03c0-.71-.18-1.25-.53-1.63s-.84-.57-1.46-.57-1.12.19-1.49.58c-.37.39-.55.96-.55,1.7v3.94h-1.18v-7.12h1.18v1.01c.23-.36.55-.65.96-.84s.85-.3,1.33-.3c.87,0,1.57.26,2.11.79Z" fill="#231f20"/><path d="M166.97,245.52c.29-.55.7-.98,1.22-1.28.52-.3,1.09-.46,1.74-.46.55,0,1.07.13,1.55.38s.84.59,1.09,1.01v-3.77h1.2v9.62h-1.2v-1.34c-.23.42-.58.77-1.04,1.05-.46.27-1,.41-1.61.41s-1.21-.16-1.72-.47c-.52-.31-.92-.75-1.22-1.31s-.44-1.2-.44-1.92.15-1.37.44-1.92ZM172.24,246.05c-.22-.4-.51-.7-.88-.92-.37-.21-.77-.32-1.22-.32s-.84.1-1.21.31-.65.51-.87.91-.33.87-.33,1.4.11,1.02.33,1.42c.22.4.51.71.87.92.36.21.77.32,1.21.32s.85-.11,1.22-.32c.37-.21.66-.52.88-.92.22-.4.33-.87.33-1.41s-.11-1-.33-1.4Z" fill="#231f20"/><path d="M176.81,250.87c-.43-.19-.78-.45-1.03-.78-.25-.33-.39-.72-.42-1.15h1.22c.03.36.2.65.5.87.3.23.69.34,1.18.34.45,0,.81-.1,1.07-.3s.39-.45.39-.75-.14-.54-.42-.7c-.28-.15-.71-.3-1.29-.45-.53-.14-.96-.28-1.29-.42-.33-.14-.62-.35-.86-.64-.24-.28-.36-.65-.36-1.11,0-.36.11-.7.33-1s.52-.54.92-.72.85-.27,1.37-.27c.79,0,1.43.2,1.91.6.49.4.75.94.78,1.64h-1.18c-.03-.37-.18-.67-.45-.9-.27-.22-.64-.34-1.1-.34-.42,0-.76.09-1.01.27-.25.18-.38.42-.38.71,0,.23.08.43.23.58s.34.27.57.36.55.19.96.31c.51.14.93.28,1.25.41.32.13.6.34.83.6s.35.62.36,1.05c0,.39-.11.74-.33,1.05-.22.31-.52.56-.92.73-.39.18-.85.27-1.36.27-.55,0-1.04-.09-1.47-.28Z" fill="#231f20"/><path d="M182.35,250.87c-.16-.16-.23-.35-.23-.57s.08-.42.23-.57c.16-.16.35-.23.57-.23s.4.08.55.23c.15.16.23.35.23.57s-.08.42-.23.57c-.15.16-.34.23-.55.23s-.42-.08-.57-.23Z" fill="#231f20"/><path d="M6.86,286.78c-.17-.3-.4-.54-.71-.7s-.67-.24-1.08-.24c-.72,0-1.3.24-1.73.71-.43.47-.65,1.1-.65,1.89,0,.84.23,1.5.68,1.97.46.47,1.08.71,1.88.71.55,0,1.01-.14,1.38-.42.38-.28.65-.68.83-1.2h-2.82v-1.64h4.84v2.07c-.16.55-.44,1.07-.84,1.55s-.9.86-1.5,1.16-1.29.44-2.05.44c-.9,0-1.71-.2-2.41-.59-.71-.39-1.26-.94-1.65-1.64s-.59-1.5-.59-2.41.2-1.71.59-2.41.94-1.26,1.64-1.65,1.5-.59,2.41-.59c1.09,0,2.01.26,2.76.79.75.53,1.25,1.26,1.49,2.2h-2.46Z" fill="#231f20"/><path d="M29.98,283.96v9.06h-1.18v-9.06h1.18Z" fill="#231f20"/><path d="M36.65,283.4v9.62h-1.18v-9.62h1.18Z" fill="#231f20"/><path d="M38.7,284.51c-.16-.16-.23-.35-.23-.57s.08-.42.23-.57.35-.23.57-.23.4.08.55.23c.15.16.23.35.23.57s-.08.42-.23.57c-.15.16-.34.23-.55.23s-.42-.08-.57-.23ZM39.84,285.9v7.12h-1.18v-7.12h1.18Z" fill="#231f20"/><path d="M45.84,293.02l-2.79-3.15v3.15h-1.18v-9.62h1.18v5.66l2.74-3.16h1.65l-3.35,3.55,3.37,3.58h-1.61Z" fill="#231f20"/><path d="M55.02,289.9h-5.69c.04.7.28,1.25.72,1.64s.97.59,1.59.59c.51,0,.94-.12,1.28-.36.34-.24.58-.56.72-.96h1.27c-.19.68-.57,1.24-1.14,1.67s-1.28.64-2.13.64c-.68,0-1.28-.15-1.81-.46s-.95-.73-1.25-1.29c-.3-.56-.46-1.21-.46-1.94s.15-1.38.44-1.94.71-.98,1.24-1.28c.53-.3,1.15-.45,1.84-.45s1.27.15,1.79.44c.52.29.92.7,1.2,1.21.28.52.42,1.1.42,1.75,0,.23-.01.46-.04.71ZM53.53,287.78c-.2-.33-.47-.57-.81-.74-.34-.17-.72-.25-1.14-.25-.6,0-1.11.19-1.53.57-.42.38-.66.91-.72,1.59h4.5c0-.45-.1-.84-.3-1.16Z" fill="#231f20"/><path d="M62.33,286.18c.47-.27,1-.4,1.6-.4.64,0,1.22.15,1.73.46.51.3.91.73,1.21,1.28.29.55.44,1.19.44,1.92s-.15,1.36-.44,1.92c-.29.56-.7,1-1.22,1.31-.52.31-1.09.47-1.72.47s-1.15-.13-1.62-.4-.81-.61-1.05-1.03v1.31h-1.18v-9.62h1.18v3.82c.24-.42.6-.77,1.07-1.04ZM65.78,288.03c-.22-.4-.51-.7-.88-.91s-.77-.31-1.22-.31-.83.11-1.2.32c-.37.21-.66.52-.88.92s-.33.87-.33,1.4.11,1.01.33,1.41c.22.4.52.71.88.92.37.21.77.32,1.2.32s.85-.11,1.22-.32c.37-.21.66-.52.88-.92.22-.4.32-.88.32-1.42s-.11-1.01-.32-1.4Z" fill="#231f20"/><path d="M75.33,289.9h-5.69c.04.7.28,1.25.72,1.64s.97.59,1.59.59c.51,0,.94-.12,1.28-.36.34-.24.58-.56.72-.96h1.27c-.19.68-.57,1.24-1.14,1.67s-1.28.64-2.13.64c-.68,0-1.28-.15-1.81-.46s-.95-.73-1.25-1.29c-.3-.56-.46-1.21-.46-1.94s.15-1.38.44-1.94.71-.98,1.24-1.28c.53-.3,1.15-.45,1.84-.45s1.27.15,1.79.44c.52.29.92.7,1.2,1.21.28.52.42,1.1.42,1.75,0,.23-.01.46-.04.71ZM73.85,287.78c-.2-.33-.47-.57-.81-.74-.34-.17-.72-.25-1.14-.25-.6,0-1.11.19-1.53.57-.42.38-.66.91-.72,1.59h4.5c0-.45-.1-.84-.3-1.16Z" fill="#231f20"/><path d="M76.97,284.51c-.16-.16-.23-.35-.23-.57s.08-.42.23-.57.35-.23.57-.23.4.08.55.23c.15.16.23.35.23.57s-.08.42-.23.57c-.15.16-.34.23-.55.23s-.42-.08-.57-.23ZM78.12,285.9v7.12h-1.18v-7.12h1.18Z" fill="#231f20"/><path d="M85.71,286.55c.54.52.81,1.28.81,2.27v4.2h-1.17v-4.03c0-.71-.18-1.25-.53-1.63s-.84-.57-1.46-.57-1.12.19-1.49.58c-.37.39-.55.96-.55,1.7v3.94h-1.18v-7.12h1.18v1.01c.23-.36.55-.65.96-.84s.85-.3,1.33-.3c.87,0,1.57.26,2.11.79Z" fill="#231f20"/><path d="M93.01,286.18c.46.27.81.61,1.03,1.01v-1.3h1.2v7.28c0,.65-.14,1.23-.42,1.74s-.67.9-1.19,1.19-1.12.43-1.8.43c-.94,0-1.72-.22-2.34-.66-.62-.44-.99-1.04-1.11-1.81h1.17c.13.43.4.78.81,1.05.41.26.9.4,1.47.4.65,0,1.18-.2,1.59-.61.41-.41.62-.98.62-1.72v-1.5c-.23.42-.58.76-1.04,1.04-.46.28-1,.42-1.61.42s-1.21-.16-1.72-.47c-.52-.31-.92-.75-1.22-1.31s-.44-1.2-.44-1.92.15-1.37.44-1.92c.29-.55.7-.98,1.22-1.28.52-.3,1.09-.46,1.72-.46s1.15.13,1.62.4ZM93.72,288.04c-.22-.4-.51-.7-.88-.92-.37-.21-.77-.32-1.22-.32s-.84.1-1.21.31-.65.51-.87.91-.33.87-.33,1.4.11,1.02.33,1.42c.22.4.51.71.87.92.36.21.77.32,1.21.32s.85-.11,1.22-.32c.37-.21.66-.52.88-.92.22-.4.33-.87.33-1.41s-.11-1-.33-1.4Z" fill="#231f20"/><path d="M100.75,284.51c-.16-.16-.23-.35-.23-.57s.08-.42.23-.57.35-.23.57-.23.4.08.55.23c.15.16.23.35.23.57s-.08.42-.23.57c-.15.16-.34.23-.55.23s-.42-.08-.57-.23ZM101.89,285.9v7.12h-1.18v-7.12h1.18Z" fill="#231f20"/><path d="M109.48,286.55c.54.52.81,1.28.81,2.27v4.2h-1.17v-4.03c0-.71-.18-1.25-.53-1.63s-.84-.57-1.46-.57-1.12.19-1.49.58c-.37.39-.55.96-.55,1.7v3.94h-1.18v-7.12h1.18v1.01c.23-.36.55-.65.96-.84s.85-.3,1.33-.3c.87,0,1.57.26,2.11.79Z" fill="#231f20"/><path d="M125.75,286.11c.43.23.78.57,1.03,1.03.25.46.38,1.02.38,1.68v4.2h-1.17v-4.03c0-.71-.18-1.25-.53-1.63-.35-.38-.83-.57-1.42-.57s-1.11.2-1.47.59c-.36.39-.55.96-.55,1.71v3.93h-1.17v-4.03c0-.71-.18-1.25-.53-1.63-.35-.38-.83-.57-1.42-.57s-1.11.2-1.47.59c-.36.39-.55.96-.55,1.71v3.93h-1.18v-7.12h1.18v1.03c.23-.37.55-.66.94-.86.39-.2.83-.3,1.31-.3.6,0,1.13.13,1.59.4.46.27.8.66,1.03,1.18.2-.5.53-.89.99-1.17.46-.28.97-.42,1.53-.42s1.05.12,1.48.34Z" fill="#231f20"/><path d="M135.22,285.9l-4.29,10.48h-1.22l1.4-3.43-2.87-7.05h1.31l2.24,5.77,2.21-5.77h1.22Z" fill="#231f20"/><path d="M144.87,286.11c.43.23.77.57,1.02,1.03s.37,1.02.37,1.68v4.2h-1.17v-4.03c0-.71-.18-1.25-.53-1.63s-.84-.57-1.46-.57-1.12.19-1.49.58c-.37.39-.55.96-.55,1.7v3.94h-1.18v-9.62h1.18v3.51c.23-.36.56-.65.97-.84.41-.2.87-.3,1.38-.3.54,0,1.02.12,1.46.34Z" fill="#231f20"/><path d="M149.49,292.68c-.54-.3-.97-.73-1.27-1.29-.31-.56-.46-1.21-.46-1.94s.16-1.37.47-1.93c.32-.56.75-.99,1.29-1.29.55-.3,1.16-.45,1.83-.45s1.29.15,1.83.45c.55.3.98.73,1.29,1.28s.47,1.2.47,1.94-.16,1.38-.49,1.94c-.33.56-.76.99-1.32,1.29s-1.17.46-1.85.46-1.27-.15-1.81-.46ZM152.5,291.8c.37-.2.67-.5.9-.9.23-.4.34-.88.34-1.46s-.11-1.06-.34-1.46c-.23-.4-.52-.7-.88-.89-.36-.19-.76-.29-1.18-.29s-.83.1-1.19.29c-.36.2-.65.49-.86.89-.22.4-.33.88-.33,1.46s.11,1.07.32,1.47c.21.4.5.7.85.89.35.2.75.29,1.17.29s.82-.1,1.2-.3Z" fill="#231f20"/><path d="M162.84,285.9v7.12h-1.18v-1.05c-.23.36-.54.65-.94.85-.4.2-.85.3-1.33.3-.55,0-1.05-.11-1.5-.34-.44-.23-.79-.57-1.05-1.03-.26-.46-.38-1.02-.38-1.68v-4.17h1.17v4.02c0,.7.18,1.24.53,1.62s.84.57,1.46.57,1.13-.2,1.5-.58c.36-.39.55-.96.55-1.7v-3.91h1.18Z" fill="#231f20"/><path d="M165.89,292.86c-.43-.19-.78-.45-1.03-.78-.25-.33-.39-.72-.42-1.15h1.22c.03.36.2.65.5.87.3.23.69.34,1.18.34.45,0,.81-.1,1.07-.3s.39-.45.39-.75-.14-.54-.42-.7c-.28-.15-.71-.3-1.29-.45-.53-.14-.96-.28-1.29-.42-.33-.14-.62-.35-.86-.64-.24-.28-.36-.65-.36-1.11,0-.36.11-.7.33-1s.52-.54.92-.72.85-.27,1.37-.27c.79,0,1.43.2,1.91.6.49.4.75.94.78,1.64h-1.18c-.03-.37-.18-.67-.45-.9-.27-.22-.64-.34-1.1-.34-.42,0-.76.09-1.01.27-.25.18-.38.42-.38.71,0,.23.08.43.23.58s.34.27.57.36.55.19.96.31c.51.14.93.28,1.25.41.32.13.6.34.83.6s.35.62.36,1.05c0,.39-.11.74-.33,1.05-.22.31-.52.56-.92.73-.39.18-.85.27-1.36.27-.55,0-1.04-.09-1.47-.28Z" fill="#231f20"/><path d="M178.08,289.9h-5.69c.04.7.28,1.25.72,1.64s.97.59,1.59.59c.51,0,.94-.12,1.28-.36.34-.24.58-.56.72-.96h1.27c-.19.68-.57,1.24-1.14,1.67s-1.28.64-2.13.64c-.68,0-1.28-.15-1.81-.46s-.95-.73-1.25-1.29c-.3-.56-.46-1.21-.46-1.94s.15-1.38.44-1.94.71-.98,1.24-1.28c.53-.3,1.15-.45,1.84-.45s1.27.15,1.79.44c.52.29.92.7,1.2,1.21.28.52.42,1.1.42,1.75,0,.23-.01.46-.04.71ZM176.6,287.78c-.2-.33-.47-.57-.81-.74-.34-.17-.72-.25-1.14-.25-.6,0-1.11.19-1.53.57-.42.38-.66.91-.72,1.59h4.5c0-.45-.1-.84-.3-1.16Z" fill="#231f20"/><path d="M185.4,286.18c.47-.27,1-.4,1.6-.4.64,0,1.22.15,1.73.46.51.3.91.73,1.21,1.28.29.55.44,1.19.44,1.92s-.15,1.36-.44,1.92c-.29.56-.7,1-1.22,1.31-.52.31-1.09.47-1.72.47s-1.15-.13-1.62-.4-.81-.61-1.05-1.03v1.31h-1.18v-9.62h1.18v3.82c.24-.42.6-.77,1.07-1.04ZM188.85,288.03c-.22-.4-.51-.7-.88-.91s-.77-.31-1.22-.31-.83.11-1.2.32c-.37.21-.66.52-.88.92s-.33.87-.33,1.4.11,1.01.33,1.41c.22.4.52.71.88.92.37.21.77.32,1.2.32s.85-.11,1.22-.32c.37-.21.66-.52.88-.92.22-.4.32-.88.32-1.42s-.11-1.01-.32-1.4Z" fill="#231f20"/><path d="M198.4,289.9h-5.69c.04.7.28,1.25.72,1.64s.97.59,1.59.59c.51,0,.94-.12,1.28-.36.34-.24.58-.56.72-.96h1.27c-.19.68-.57,1.24-1.14,1.67s-1.28.64-2.13.64c-.68,0-1.28-.15-1.81-.46s-.95-.73-1.25-1.29c-.3-.56-.46-1.21-.46-1.94s.15-1.38.44-1.94.71-.98,1.24-1.28c.53-.3,1.15-.45,1.84-.45s1.27.15,1.79.44c.52.29.92.7,1.2,1.21.28.52.42,1.1.42,1.75,0,.23-.01.46-.04.71ZM196.92,287.78c-.2-.33-.47-.57-.81-.74-.34-.17-.72-.25-1.14-.25-.6,0-1.11.19-1.53.57-.42.38-.66.91-.72,1.59h4.5c0-.45-.1-.84-.3-1.16Z" fill="#231f20"/><path d="M201.06,292.86c-.43-.19-.78-.45-1.03-.78-.25-.33-.39-.72-.42-1.15h1.22c.03.36.2.65.5.87.3.23.69.34,1.18.34.45,0,.81-.1,1.07-.3s.39-.45.39-.75-.14-.54-.42-.7c-.28-.15-.71-.3-1.29-.45-.53-.14-.96-.28-1.29-.42-.33-.14-.62-.35-.86-.64-.24-.28-.36-.65-.36-1.11,0-.36.11-.7.33-1s.52-.54.92-.72.85-.27,1.37-.27c.79,0,1.43.2,1.91.6.49.4.75.94.78,1.64h-1.18c-.03-.37-.18-.67-.45-.9-.27-.22-.64-.34-1.1-.34-.42,0-.76.09-1.01.27-.25.18-.38.42-.38.71,0,.23.08.43.23.58s.34.27.57.36.55.19.96.31c.51.14.93.28,1.25.41.32.13.6.34.83.6s.35.62.36,1.05c0,.39-.11.74-.33,1.05-.22.31-.52.56-.92.73-.39.18-.85.27-1.36.27-.55,0-1.04-.09-1.47-.28Z" fill="#231f20"/><path d="M208.23,286.87v4.2c0,.35.07.59.22.73.15.14.4.21.77.21h.87v1h-1.07c-.66,0-1.15-.15-1.48-.46-.33-.3-.49-.8-.49-1.5v-4.2h-.92v-.97h.92v-1.79h1.18v1.79h1.86v.97h-1.86Z" fill="#231f20"/><path d="M217.24,286.18c.47-.27,1-.4,1.6-.4.64,0,1.22.15,1.73.46.51.3.91.73,1.21,1.28.29.55.44,1.19.44,1.92s-.15,1.36-.44,1.92c-.29.56-.7,1-1.22,1.31-.52.31-1.09.47-1.72.47s-1.15-.13-1.62-.4-.81-.61-1.05-1.03v1.31h-1.18v-9.62h1.18v3.82c.24-.42.6-.77,1.07-1.04ZM220.69,288.03c-.22-.4-.51-.7-.88-.91s-.77-.31-1.22-.31-.83.11-1.2.32c-.37.21-.66.52-.88.92s-.33.87-.33,1.4.11,1.01.33,1.41c.22.4.52.71.88.92.37.21.77.32,1.2.32s.85-.11,1.22-.32c.37-.21.66-.52.88-.92.22-.4.32-.88.32-1.42s-.11-1.01-.32-1.4Z" fill="#231f20"/><path d="M230.24,289.9h-5.69c.04.7.28,1.25.72,1.64s.97.59,1.59.59c.51,0,.94-.12,1.28-.36.34-.24.58-.56.72-.96h1.27c-.19.68-.57,1.24-1.14,1.67s-1.28.64-2.13.64c-.68,0-1.28-.15-1.81-.46s-.95-.73-1.25-1.29c-.3-.56-.46-1.21-.46-1.94s.15-1.38.44-1.94.71-.98,1.24-1.28c.53-.3,1.15-.45,1.84-.45s1.27.15,1.79.44c.52.29.92.7,1.2,1.21.28.52.42,1.1.42,1.75,0,.23-.01.46-.04.71ZM228.76,287.78c-.2-.33-.47-.57-.81-.74-.34-.17-.72-.25-1.14-.25-.6,0-1.11.19-1.53.57-.42.38-.66.91-.72,1.59h4.5c0-.45-.1-.84-.3-1.16Z" fill="#231f20"/><path d="M231.84,287.52c.29-.55.7-.98,1.23-1.28.52-.3,1.12-.46,1.8-.46.88,0,1.6.21,2.16.64.57.42.94,1.01,1.12,1.77h-1.27c-.12-.43-.36-.78-.71-1.03-.35-.25-.79-.38-1.31-.38-.68,0-1.22.23-1.64.7-.42.46-.62,1.12-.62,1.97s.21,1.52.62,1.99.96.7,1.64.7c.52,0,.95-.12,1.3-.36.35-.24.58-.59.71-1.04h1.27c-.19.73-.57,1.31-1.14,1.75s-1.29.66-2.14.66c-.68,0-1.28-.15-1.8-.46s-.93-.73-1.23-1.29-.44-1.2-.44-1.95.15-1.38.44-1.93Z" fill="#231f20"/><path d="M239.73,287.52c.29-.55.7-.98,1.22-1.28.52-.3,1.09-.46,1.72-.46s1.17.13,1.62.4c.46.27.8.61,1.03,1.01v-1.3h1.2v7.12h-1.2v-1.33c-.23.42-.58.76-1.05,1.03-.46.27-1,.41-1.62.41s-1.2-.16-1.72-.47c-.51-.31-.91-.75-1.21-1.31s-.44-1.2-.44-1.92.15-1.37.44-1.92ZM245,288.04c-.22-.4-.51-.7-.88-.92-.37-.21-.77-.32-1.22-.32s-.84.1-1.21.31-.65.51-.87.91-.33.87-.33,1.4.11,1.02.33,1.42c.22.4.51.71.87.92.36.21.77.32,1.21.32s.85-.11,1.22-.32c.37-.21.66-.52.88-.92.22-.4.33-.87.33-1.41s-.11-1-.33-1.4Z" fill="#231f20"/><path d="M254.84,285.9v7.12h-1.18v-1.05c-.23.36-.54.65-.94.85-.4.2-.85.3-1.33.3-.55,0-1.05-.11-1.5-.34-.44-.23-.79-.57-1.05-1.03-.26-.46-.38-1.02-.38-1.68v-4.17h1.17v4.02c0,.7.18,1.24.53,1.62s.84.57,1.46.57,1.13-.2,1.5-.58c.36-.39.55-.96.55-1.7v-3.91h1.18Z" fill="#231f20"/><path d="M257.89,292.86c-.43-.19-.78-.45-1.03-.78-.25-.33-.39-.72-.42-1.15h1.22c.03.36.2.65.5.87.3.23.69.34,1.18.34.45,0,.81-.1,1.07-.3s.39-.45.39-.75-.14-.54-.42-.7c-.28-.15-.71-.3-1.29-.45-.53-.14-.96-.28-1.29-.42-.33-.14-.62-.35-.86-.64-.24-.28-.36-.65-.36-1.11,0-.36.11-.7.33-1s.52-.54.92-.72.85-.27,1.37-.27c.79,0,1.43.2,1.91.6.49.4.75.94.78,1.64h-1.18c-.03-.37-.18-.67-.45-.9-.27-.22-.64-.34-1.1-.34-.42,0-.76.09-1.01.27-.25.18-.38.42-.38.71,0,.23.08.43.23.58s.34.27.57.36.55.19.96.31c.51.14.93.28,1.25.41.32.13.6.34.83.6s.35.62.36,1.05c0,.39-.11.74-.33,1.05-.22.31-.52.56-.92.73-.39.18-.85.27-1.36.27-.55,0-1.04-.09-1.47-.28Z" fill="#231f20"/><path d="M270.08,289.9h-5.69c.04.7.28,1.25.72,1.64s.97.59,1.59.59c.51,0,.94-.12,1.28-.36.34-.24.58-.56.72-.96h1.27c-.19.68-.57,1.24-1.14,1.67s-1.28.64-2.13.64c-.68,0-1.28-.15-1.81-.46s-.95-.73-1.25-1.29c-.3-.56-.46-1.21-.46-1.94s.15-1.38.44-1.94.71-.98,1.24-1.28c.53-.3,1.15-.45,1.84-.45s1.27.15,1.79.44c.52.29.92.7,1.2,1.21.28.52.42,1.1.42,1.75,0,.23-.01.46-.04.71ZM268.6,287.78c-.2-.33-.47-.57-.81-.74-.34-.17-.72-.25-1.14-.25-.6,0-1.11.19-1.53.57-.42.38-.66.91-.72,1.59h4.5c0-.45-.1-.84-.3-1.16Z" fill="#231f20"/><path d="M35.48,303.9l-4.29,10.48h-1.22l1.4-3.43-2.87-7.05h1.31l2.24,5.77,2.21-5.77h1.22Z" fill="#231f20"/><path d="M37.96,310.69c-.54-.3-.97-.73-1.27-1.29-.31-.56-.46-1.21-.46-1.94s.16-1.37.47-1.93c.32-.56.75-.99,1.29-1.29.55-.3,1.16-.45,1.83-.45s1.29.15,1.83.45c.55.3.98.73,1.29,1.28s.47,1.2.47,1.94-.16,1.38-.49,1.94c-.33.56-.76.99-1.32,1.29s-1.17.46-1.85.46-1.27-.15-1.81-.46ZM40.97,309.8c.37-.2.67-.5.9-.9.23-.4.34-.88.34-1.46s-.11-1.06-.34-1.46c-.23-.4-.52-.7-.88-.89-.36-.19-.76-.29-1.18-.29s-.83.1-1.19.29c-.36.2-.65.49-.86.89-.22.4-.33.88-.33,1.46s.11,1.07.32,1.47c.21.4.5.7.85.89.35.2.75.29,1.17.29s.82-.1,1.2-.3Z" fill="#231f20"/><path d="M51.3,303.9v7.12h-1.18v-1.05c-.23.36-.54.65-.94.85-.4.2-.85.3-1.33.3-.55,0-1.05-.11-1.5-.34-.44-.23-.79-.57-1.05-1.03-.26-.46-.38-1.02-.38-1.68v-4.17h1.17v4.02c0,.7.18,1.24.53,1.62s.84.57,1.46.57,1.13-.2,1.5-.58c.36-.39.55-.96.55-1.7v-3.91h1.18Z" fill="#231f20"/><path d="M55.38,304.11c.39-.23.86-.34,1.41-.34v1.22h-.31c-1.33,0-1.99.72-1.99,2.16v3.87h-1.18v-7.12h1.18v1.16c.21-.41.5-.72.89-.95Z" fill="#231f20"/><path d="M61.63,305.52c.29-.55.7-.98,1.22-1.28.52-.3,1.09-.46,1.72-.46s1.17.13,1.62.4c.46.27.8.61,1.03,1.01v-1.3h1.2v7.12h-1.2v-1.33c-.23.42-.58.76-1.05,1.03-.46.27-1,.41-1.62.41s-1.2-.16-1.72-.47c-.51-.31-.91-.75-1.21-1.31s-.44-1.2-.44-1.92.15-1.37.44-1.92ZM66.89,306.05c-.22-.4-.51-.7-.88-.92-.37-.21-.77-.32-1.22-.32s-.84.1-1.21.31-.65.51-.87.91-.33.87-.33,1.4.11,1.02.33,1.42c.22.4.51.71.87.92.36.21.77.32,1.21.32s.85-.11,1.22-.32c.37-.21.66-.52.88-.92.22-.4.33-.87.33-1.41s-.11-1-.33-1.4Z" fill="#231f20"/><path d="M76.73,303.9v7.12h-1.18v-1.05c-.23.36-.54.65-.94.85-.4.2-.85.3-1.33.3-.55,0-1.05-.11-1.5-.34-.44-.23-.79-.57-1.05-1.03-.26-.46-.38-1.02-.38-1.68v-4.17h1.17v4.02c0,.7.18,1.24.53,1.62s.84.57,1.46.57,1.13-.2,1.5-.58c.36-.39.55-.96.55-1.7v-3.91h1.18Z" fill="#231f20"/><path d="M84.31,304.56c.54.52.81,1.28.81,2.27v4.2h-1.17v-4.03c0-.71-.18-1.25-.53-1.63s-.84-.57-1.46-.57-1.12.19-1.49.58c-.37.39-.55.96-.55,1.7v3.94h-1.18v-7.12h1.18v1.01c.23-.36.55-.65.96-.84s.85-.3,1.33-.3c.87,0,1.57.26,2.11.79Z" fill="#231f20"/><path d="M88.5,304.87v4.2c0,.35.07.59.22.73.15.14.4.21.77.21h.87v1h-1.07c-.66,0-1.15-.15-1.48-.46-.33-.3-.49-.8-.49-1.5v-4.2h-.92v-.97h.92v-1.79h1.18v1.79h1.86v.97h-1.86Z" fill="#231f20"/><path d="M95.26,305.52c.29-.55.7-.98,1.22-1.28.52-.3,1.09-.46,1.72-.46s1.17.13,1.62.4c.46.27.8.61,1.03,1.01v-1.3h1.2v7.12h-1.2v-1.33c-.23.42-.58.76-1.05,1.03-.46.27-1,.41-1.62.41s-1.2-.16-1.72-.47c-.51-.31-.91-.75-1.21-1.31s-.44-1.2-.44-1.92.15-1.37.44-1.92ZM100.52,306.05c-.22-.4-.51-.7-.88-.92-.37-.21-.77-.32-1.22-.32s-.84.1-1.21.31-.65.51-.87.91-.33.87-.33,1.4.11,1.02.33,1.42c.22.4.51.71.87.92.36.21.77.32,1.21.32s.85-.11,1.22-.32c.37-.21.66-.52.88-.92.22-.4.33-.87.33-1.41s-.11-1-.33-1.4Z" fill="#231f20"/><path d="M109.62,304.56c.54.52.81,1.28.81,2.27v4.2h-1.17v-4.03c0-.71-.18-1.25-.53-1.63s-.84-.57-1.46-.57-1.12.19-1.49.58c-.37.39-.55.96-.55,1.7v3.94h-1.18v-7.12h1.18v1.01c.23-.36.55-.65.96-.84s.85-.3,1.33-.3c.87,0,1.57.26,2.11.79Z" fill="#231f20"/><path d="M112.37,305.52c.29-.55.7-.98,1.22-1.28.52-.3,1.09-.46,1.74-.46.55,0,1.07.13,1.55.38s.84.59,1.09,1.01v-3.77h1.2v9.62h-1.2v-1.34c-.23.42-.58.77-1.04,1.05-.46.27-1,.41-1.61.41s-1.21-.16-1.72-.47c-.52-.31-.92-.75-1.22-1.31s-.44-1.2-.44-1.92.15-1.37.44-1.92ZM117.63,306.05c-.22-.4-.51-.7-.88-.92-.37-.21-.77-.32-1.22-.32s-.84.1-1.21.31-.65.51-.87.91-.33.87-.33,1.4.11,1.02.33,1.42c.22.4.51.71.87.92.36.21.77.32,1.21.32s.85-.11,1.22-.32c.37-.21.66-.52.88-.92.22-.4.33-.87.33-1.41s-.11-1-.33-1.4Z" fill="#231f20"/><path d="M124.62,305.52c.29-.55.7-.98,1.23-1.28.52-.3,1.12-.46,1.8-.46.88,0,1.6.21,2.16.64.57.42.94,1.01,1.12,1.77h-1.27c-.12-.43-.36-.78-.71-1.03-.35-.25-.79-.38-1.31-.38-.68,0-1.22.23-1.64.7-.42.46-.62,1.12-.62,1.97s.21,1.52.62,1.99.96.7,1.64.7c.52,0,.95-.12,1.3-.36.35-.24.58-.59.71-1.04h1.27c-.19.73-.57,1.31-1.14,1.75s-1.29.66-2.14.66c-.68,0-1.28-.15-1.8-.46s-.93-.73-1.23-1.29-.44-1.2-.44-1.95.15-1.38.44-1.93Z" fill="#231f20"/><path d="M133.81,310.69c-.54-.3-.97-.73-1.27-1.29-.31-.56-.46-1.21-.46-1.94s.16-1.37.47-1.93c.32-.56.75-.99,1.29-1.29.55-.3,1.16-.45,1.83-.45s1.29.15,1.83.45c.55.3.98.73,1.29,1.28s.47,1.2.47,1.94-.16,1.38-.49,1.94c-.33.56-.76.99-1.32,1.29s-1.17.46-1.85.46-1.27-.15-1.81-.46ZM136.82,309.8c.37-.2.67-.5.9-.9.23-.4.34-.88.34-1.46s-.11-1.06-.34-1.46c-.23-.4-.52-.7-.88-.89-.36-.19-.76-.29-1.18-.29s-.83.1-1.19.29c-.36.2-.65.49-.86.89-.22.4-.33.88-.33,1.46s.11,1.07.32,1.47c.21.4.5.7.85.89.35.2.75.29,1.17.29s.82-.1,1.2-.3Z" fill="#231f20"/><path d="M147.15,303.9v7.12h-1.18v-1.05c-.23.36-.54.65-.94.85-.4.2-.85.3-1.33.3-.55,0-1.05-.11-1.5-.34-.44-.23-.79-.57-1.05-1.03-.26-.46-.38-1.02-.38-1.68v-4.17h1.17v4.02c0,.7.18,1.24.53,1.62s.84.57,1.46.57,1.13-.2,1.5-.58c.36-.39.55-.96.55-1.7v-3.91h1.18Z" fill="#231f20"/><path d="M150.21,310.86c-.43-.19-.78-.45-1.03-.78-.25-.33-.39-.72-.42-1.15h1.22c.03.36.2.65.5.87.3.23.69.34,1.18.34.45,0,.81-.1,1.07-.3s.39-.45.39-.75-.14-.54-.42-.7c-.28-.15-.71-.3-1.29-.45-.53-.14-.96-.28-1.29-.42-.33-.14-.62-.35-.86-.64-.24-.28-.36-.65-.36-1.11,0-.36.11-.7.33-1s.52-.54.92-.72.85-.27,1.37-.27c.79,0,1.43.2,1.91.6.49.4.75.94.78,1.64h-1.18c-.03-.37-.18-.67-.45-.9-.27-.22-.64-.34-1.1-.34-.42,0-.76.09-1.01.27-.25.18-.38.42-.38.71,0,.23.08.43.23.58s.34.27.57.36.55.19.96.31c.51.14.93.28,1.25.41.32.13.6.34.83.6s.35.62.36,1.05c0,.39-.11.74-.33,1.05-.22.31-.52.56-.92.73-.39.18-.85.27-1.36.27-.55,0-1.04-.09-1.47-.28Z" fill="#231f20"/><path d="M155.98,302.51c-.16-.16-.23-.35-.23-.57s.08-.42.23-.57.35-.23.57-.23.4.08.55.23c.15.16.23.35.23.57s-.08.42-.23.57c-.15.16-.34.23-.55.23s-.42-.08-.57-.23ZM157.12,303.9v7.12h-1.18v-7.12h1.18Z" fill="#231f20"/><path d="M164.72,304.56c.54.52.81,1.28.81,2.27v4.2h-1.17v-4.03c0-.71-.18-1.25-.53-1.63s-.84-.57-1.46-.57-1.12.19-1.49.58c-.37.39-.55.96-.55,1.7v3.94h-1.18v-7.12h1.18v1.01c.23-.36.55-.65.96-.84s.85-.3,1.33-.3c.87,0,1.57.26,2.11.79Z" fill="#231f20"/><path d="M168.51,310.86c-.43-.19-.78-.45-1.03-.78-.25-.33-.39-.72-.42-1.15h1.22c.03.36.2.65.5.87.3.23.69.34,1.18.34.45,0,.81-.1,1.07-.3s.39-.45.39-.75-.14-.54-.42-.7c-.28-.15-.71-.3-1.29-.45-.53-.14-.96-.28-1.29-.42-.33-.14-.62-.35-.86-.64-.24-.28-.36-.65-.36-1.11,0-.36.11-.7.33-1s.52-.54.92-.72.85-.27,1.37-.27c.79,0,1.43.2,1.91.6.49.4.75.94.78,1.64h-1.18c-.03-.37-.18-.67-.45-.9-.27-.22-.64-.34-1.1-.34-.42,0-.76.09-1.01.27-.25.18-.38.42-.38.71,0,.23.08.43.23.58s.34.27.57.36.55.19.96.31c.51.14.93.28,1.25.41.32.13.6.34.83.6s.35.62.36,1.05c0,.39-.11.74-.33,1.05-.22.31-.52.56-.92.73-.39.18-.85.27-1.36.27-.55,0-1.04-.09-1.47-.28Z" fill="#231f20"/><path d="M177.72,305.52c.29-.55.7-.98,1.22-1.28.52-.3,1.09-.46,1.72-.46s1.17.13,1.62.4c.46.27.8.61,1.03,1.01v-1.3h1.2v7.12h-1.2v-1.33c-.23.42-.58.76-1.05,1.03-.46.27-1,.41-1.62.41s-1.2-.16-1.72-.47c-.51-.31-.91-.75-1.21-1.31s-.44-1.2-.44-1.92.15-1.37.44-1.92ZM182.98,306.05c-.22-.4-.51-.7-.88-.92-.37-.21-.77-.32-1.22-.32s-.84.1-1.21.31-.65.51-.87.91-.33.87-.33,1.4.11,1.02.33,1.42c.22.4.51.71.87.92.36.21.77.32,1.21.32s.85-.11,1.22-.32c.37-.21.66-.52.88-.92.22-.4.33-.87.33-1.41s-.11-1-.33-1.4Z" fill="#231f20"/><path d="M188.58,304.11c.39-.23.86-.34,1.41-.34v1.22h-.31c-1.33,0-1.99.72-1.99,2.16v3.87h-1.18v-7.12h1.18v1.16c.21-.41.5-.72.89-.95Z" fill="#231f20"/><path d="M197.5,307.9h-5.69c.04.7.28,1.25.72,1.64s.97.59,1.59.59c.51,0,.94-.12,1.28-.36.34-.24.58-.56.72-.96h1.27c-.19.68-.57,1.24-1.14,1.67s-1.28.64-2.13.64c-.68,0-1.28-.15-1.81-.46s-.95-.73-1.25-1.29c-.3-.56-.46-1.21-.46-1.94s.15-1.38.44-1.94.71-.98,1.24-1.28c.53-.3,1.15-.45,1.84-.45s1.27.15,1.79.44c.52.29.92.7,1.2,1.21.28.52.42,1.1.42,1.75,0,.23-.01.46-.04.71ZM196.02,305.78c-.2-.33-.47-.57-.81-.74-.34-.17-.72-.25-1.14-.25-.6,0-1.11.19-1.53.57-.42.38-.66.91-.72,1.59h4.5c0-.45-.1-.84-.3-1.16Z" fill="#231f20"/><path d="M204.01,304.87v4.2c0,.35.07.59.22.73.15.14.4.21.77.21h.87v1h-1.07c-.66,0-1.15-.15-1.48-.46-.33-.3-.49-.8-.49-1.5v-4.2h-.92v-.97h.92v-1.79h1.18v1.79h1.86v.97h-1.86Z" fill="#231f20"/><path d="M212.29,304.11c.43.23.77.57,1.02,1.03s.37,1.02.37,1.68v4.2h-1.17v-4.03c0-.71-.18-1.25-.53-1.63s-.84-.57-1.46-.57-1.12.19-1.49.58c-.37.39-.55.96-.55,1.7v3.94h-1.18v-9.62h1.18v3.51c.23-.36.56-.65.97-.84.41-.2.87-.3,1.38-.3.54,0,1.02.12,1.46.34Z" fill="#231f20"/><path d="M222.08,307.9h-5.69c.04.7.28,1.25.72,1.64s.97.59,1.59.59c.51,0,.94-.12,1.28-.36.34-.24.58-.56.72-.96h1.27c-.19.68-.57,1.24-1.14,1.67s-1.28.64-2.13.64c-.68,0-1.28-.15-1.81-.46s-.95-.73-1.25-1.29c-.3-.56-.46-1.21-.46-1.94s.15-1.38.44-1.94.71-.98,1.24-1.28c.53-.3,1.15-.45,1.84-.45s1.27.15,1.79.44c.52.29.92.7,1.2,1.21.28.52.42,1.1.42,1.75,0,.23-.01.46-.04.71ZM220.6,305.78c-.2-.33-.47-.57-.81-.74-.34-.17-.72-.25-1.14-.25-.6,0-1.11.19-1.53.57-.42.38-.66.91-.72,1.59h4.5c0-.45-.1-.84-.3-1.16Z" fill="#231f20"/><path d="M225.76,304.11c.39-.23.86-.34,1.41-.34v1.22h-.31c-1.33,0-1.99.72-1.99,2.16v3.87h-1.18v-7.12h1.18v1.16c.21-.41.5-.72.89-.95Z" fill="#231f20"/><path d="M234.68,307.9h-5.69c.04.7.28,1.25.72,1.64s.97.59,1.59.59c.51,0,.94-.12,1.28-.36.34-.24.58-.56.72-.96h1.27c-.19.68-.57,1.24-1.14,1.67s-1.28.64-2.13.64c-.68,0-1.28-.15-1.81-.46s-.95-.73-1.25-1.29c-.3-.56-.46-1.21-.46-1.94s.15-1.38.44-1.94.71-.98,1.24-1.28c.53-.3,1.15-.45,1.84-.45s1.27.15,1.79.44c.52.29.92.7,1.2,1.21.28.52.42,1.1.42,1.75,0,.23-.01.46-.04.71ZM233.2,305.78c-.2-.33-.47-.57-.81-.74-.34-.17-.72-.25-1.14-.25-.6,0-1.11.19-1.53.57-.42.38-.66.91-.72,1.59h4.5c0-.45-.1-.84-.3-1.16Z" fill="#231f20"/><path d="M236.08,310.87c-.16-.16-.23-.35-.23-.57s.08-.42.23-.57c.16-.16.35-.23.57-.23s.4.08.55.23c.15.16.23.35.23.57s-.08.42-.23.57c-.15.16-.34.23-.55.23s-.42-.08-.57-.23Z" fill="#231f20"/><path d="M8.42,343.94v9.07h-1.82v-3.86h-3.89v3.86H.9v-9.07h1.82v3.73h3.89v-3.73h1.82Z" fill="#231f20"/><path d="M29.17,343.96v9.06h-1.18v-9.06h1.18Z" fill="#231f20"/><path d="M35.84,343.4v9.62h-1.18v-9.62h1.18Z" fill="#231f20"/><path d="M37.89,344.5c-.16-.16-.23-.35-.23-.57s.08-.42.23-.57.35-.23.57-.23.4.08.55.23c.15.16.23.35.23.57s-.08.42-.23.57c-.15.16-.34.23-.55.23s-.42-.08-.57-.23ZM39.04,345.89v7.12h-1.18v-7.12h1.18Z" fill="#231f20"/><path d="M45.03,353.02l-2.79-3.15v3.15h-1.18v-9.62h1.18v5.66l2.74-3.16h1.65l-3.35,3.55,3.37,3.58h-1.61Z" fill="#231f20"/><path d="M54.21,349.9h-5.69c.04.7.28,1.25.72,1.64s.97.59,1.59.59c.51,0,.94-.12,1.28-.36.34-.24.58-.56.72-.96h1.27c-.19.68-.57,1.24-1.14,1.67s-1.28.64-2.13.64c-.68,0-1.28-.15-1.81-.46s-.95-.73-1.25-1.29c-.3-.56-.46-1.21-.46-1.94s.15-1.38.44-1.94.71-.98,1.24-1.28c.53-.3,1.15-.45,1.84-.45s1.27.15,1.79.44c.52.29.92.7,1.2,1.21.28.52.42,1.1.42,1.75,0,.23-.01.46-.04.71ZM52.73,347.77c-.2-.33-.47-.57-.81-.74-.34-.17-.72-.25-1.14-.25-.6,0-1.11.19-1.53.57-.42.38-.66.91-.72,1.59h4.5c0-.45-.1-.84-.3-1.16Z" fill="#231f20"/><path d="M68.47,344.02v9h-1.18v-6.71l-2.99,6.71h-.83l-3-6.72v6.72h-1.18v-9h1.27l3.33,7.44,3.33-7.44h1.26Z" fill="#231f20"/><path d="M71.77,352.68c-.54-.3-.97-.73-1.27-1.29-.31-.56-.46-1.21-.46-1.94s.16-1.37.47-1.93c.32-.56.75-.99,1.29-1.29.55-.3,1.16-.45,1.83-.45s1.29.15,1.83.45c.55.3.98.73,1.29,1.28s.47,1.2.47,1.94-.16,1.38-.49,1.94c-.33.56-.76.99-1.32,1.29s-1.17.46-1.85.46-1.27-.15-1.81-.46ZM74.77,351.8c.37-.2.67-.5.9-.9.23-.4.34-.88.34-1.46s-.11-1.06-.34-1.46c-.23-.4-.52-.7-.88-.89-.36-.19-.76-.29-1.18-.29s-.83.1-1.19.29c-.36.2-.65.49-.86.89-.22.4-.33.88-.33,1.46s.11,1.07.32,1.47c.21.4.5.7.85.89.35.2.75.29,1.17.29s.82-.1,1.2-.3Z" fill="#231f20"/><path d="M84.37,346.55c.54.52.81,1.28.81,2.27v4.2h-1.17v-4.03c0-.71-.18-1.25-.53-1.63s-.84-.57-1.46-.57-1.12.19-1.49.58c-.37.39-.55.96-.55,1.7v3.94h-1.18v-7.12h1.18v1.01c.23-.36.55-.65.96-.84s.85-.3,1.33-.3c.87,0,1.57.26,2.11.79Z" fill="#231f20"/><path d="M87.11,347.51c.29-.55.7-.98,1.22-1.28.52-.3,1.09-.46,1.74-.46.55,0,1.07.13,1.55.38s.84.59,1.09,1.01v-3.77h1.2v9.62h-1.2v-1.34c-.23.42-.58.77-1.04,1.05-.46.27-1,.41-1.61.41s-1.21-.16-1.72-.47c-.52-.31-.92-.75-1.22-1.31s-.44-1.2-.44-1.92.15-1.37.44-1.92ZM92.38,348.04c-.22-.4-.51-.7-.88-.92-.37-.21-.77-.32-1.22-.32s-.84.1-1.21.31-.65.51-.87.91-.33.87-.33,1.4.11,1.02.33,1.42c.22.4.51.71.87.92.36.21.77.32,1.21.32s.85-.11,1.22-.32c.37-.21.66-.52.88-.92.22-.4.33-.87.33-1.41s-.11-1-.33-1.4Z" fill="#231f20"/><path d="M95.9,347.51c.29-.55.7-.98,1.22-1.28.52-.3,1.09-.46,1.72-.46s1.17.13,1.62.4c.46.27.8.61,1.03,1.01v-1.3h1.2v7.12h-1.2v-1.33c-.23.42-.58.76-1.05,1.03-.46.27-1,.41-1.62.41s-1.2-.16-1.72-.47c-.51-.31-.91-.75-1.21-1.31s-.44-1.2-.44-1.92.15-1.37.44-1.92ZM101.17,348.04c-.22-.4-.51-.7-.88-.92-.37-.21-.77-.32-1.22-.32s-.84.1-1.21.31-.65.51-.87.91-.33.87-.33,1.4.11,1.02.33,1.42c.22.4.51.71.87.92.36.21.77.32,1.21.32s.85-.11,1.22-.32c.37-.21.66-.52.88-.92.22-.4.33-.87.33-1.41s-.11-1-.33-1.4Z" fill="#231f20"/><path d="M110.68,345.89l-4.29,10.48h-1.22l1.4-3.43-2.87-7.05h1.31l2.24,5.77,2.21-5.77h1.22Z" fill="#231f20"/><path d="M112.92,352.86c-.43-.19-.78-.45-1.03-.78-.25-.33-.39-.72-.42-1.15h1.22c.03.36.2.65.5.87.3.23.69.34,1.18.34.45,0,.81-.1,1.07-.3s.39-.45.39-.75-.14-.54-.42-.7c-.28-.15-.71-.3-1.29-.45-.53-.14-.96-.28-1.29-.42-.33-.14-.62-.35-.86-.64-.24-.28-.36-.65-.36-1.11,0-.36.11-.7.33-1s.52-.54.92-.72.85-.27,1.37-.27c.79,0,1.43.2,1.91.6.49.4.75.94.78,1.64h-1.18c-.03-.37-.18-.67-.45-.9-.27-.22-.64-.34-1.1-.34-.42,0-.76.09-1.01.27-.25.18-.38.42-.38.71,0,.23.08.43.23.58s.34.27.57.36.55.19.96.31c.51.14.93.28,1.25.41.32.13.6.34.83.6s.35.62.36,1.05c0,.39-.11.74-.33,1.05-.22.31-.52.56-.92.73-.39.18-.85.27-1.36.27-.55,0-1.04-.09-1.47-.28Z" fill="#231f20"/><path d="M124.37,346.18c.47-.27,1-.4,1.6-.4.64,0,1.22.15,1.73.46.51.3.91.73,1.21,1.28.29.55.44,1.19.44,1.92s-.15,1.36-.44,1.92c-.29.56-.7,1-1.22,1.31-.52.31-1.09.47-1.72.47s-1.15-.13-1.62-.4-.81-.61-1.05-1.03v1.31h-1.18v-9.62h1.18v3.82c.24-.42.6-.77,1.07-1.04ZM127.82,348.03c-.22-.4-.51-.7-.88-.91s-.77-.31-1.22-.31-.83.11-1.2.32c-.37.21-.66.52-.88.92s-.33.87-.33,1.4.11,1.01.33,1.41c.22.4.52.71.88.92.37.21.77.32,1.2.32s.85-.11,1.22-.32c.37-.21.66-.52.88-.92.22-.4.32-.88.32-1.42s-.11-1.01-.32-1.4Z" fill="#231f20"/><path d="M137.37,349.9h-5.69c.04.7.28,1.25.72,1.64s.97.59,1.59.59c.51,0,.94-.12,1.28-.36.34-.24.58-.56.72-.96h1.27c-.19.68-.57,1.24-1.14,1.67s-1.28.64-2.13.64c-.68,0-1.28-.15-1.81-.46s-.95-.73-1.25-1.29c-.3-.56-.46-1.21-.46-1.94s.15-1.38.44-1.94.71-.98,1.24-1.28c.53-.3,1.15-.45,1.84-.45s1.27.15,1.79.44c.52.29.92.7,1.2,1.21.28.52.42,1.1.42,1.75,0,.23-.01.46-.04.71ZM135.89,347.77c-.2-.33-.47-.57-.81-.74-.34-.17-.72-.25-1.14-.25-.6,0-1.11.19-1.53.57-.42.38-.66.91-.72,1.59h4.5c0-.45-.1-.84-.3-1.16Z" fill="#231f20"/><path d="M140.02,352.86c-.43-.19-.78-.45-1.03-.78-.25-.33-.39-.72-.42-1.15h1.22c.03.36.2.65.5.87.3.23.69.34,1.18.34.45,0,.81-.1,1.07-.3s.39-.45.39-.75-.14-.54-.42-.7c-.28-.15-.71-.3-1.29-.45-.53-.14-.96-.28-1.29-.42-.33-.14-.62-.35-.86-.64-.24-.28-.36-.65-.36-1.11,0-.36.11-.7.33-1s.52-.54.92-.72.85-.27,1.37-.27c.79,0,1.43.2,1.91.6.49.4.75.94.78,1.64h-1.18c-.03-.37-.18-.67-.45-.9-.27-.22-.64-.34-1.1-.34-.42,0-.76.09-1.01.27-.25.18-.38.42-.38.71,0,.23.08.43.23.58s.34.27.57.36.55.19.96.31c.51.14.93.28,1.25.41.32.13.6.34.83.6s.35.62.36,1.05c0,.39-.11.74-.33,1.05-.22.31-.52.56-.92.73-.39.18-.85.27-1.36.27-.55,0-1.04-.09-1.47-.28Z" fill="#231f20"/><path d="M147.2,346.87v4.2c0,.35.07.59.22.73.15.14.4.21.77.21h.87v1h-1.07c-.66,0-1.15-.15-1.48-.46-.33-.3-.49-.8-.49-1.5v-4.2h-.92v-.97h.92v-1.79h1.18v1.79h1.86v.97h-1.86Z" fill="#231f20"/><path d="M150.29,352.86c-.16-.16-.23-.35-.23-.57s.08-.42.23-.57c.16-.16.35-.23.57-.23s.4.08.55.23c.15.16.23.35.23.57s-.08.42-.23.57c-.15.16-.34.23-.55.23s-.42-.08-.57-.23Z" fill="#231f20"/></g></svg>