<?xml version="1.0" encoding="UTF-8"?>
<svg id="b" data-name="Layer 2" xmlns="http://www.w3.org/2000/svg" xmlns:xlink="http://www.w3.org/1999/xlink" viewBox="0 0 65.55 125.14">
  <defs>
    <linearGradient id="d" x1="32.78" y1="125.14" x2="32.78" y2="0" gradientUnits="userSpaceOnUse">
      <stop offset="0" stop-color="#681eff"/>
      <stop offset="1" stop-color="#b858ff"/>
    </linearGradient>
  </defs>
  <g id="c" data-name="Layer 1">
    <g>
      <path d="M37.6,125.14c-1.73,0-3.37-.41-4.82-1.14-1.45.73-3.09,1.14-4.82,1.14H10.78c-5.94,0-10.78-4.83-10.78-10.78s4.83-10.78,10.78-10.78h11.22V21.55h-11.22C4.83,21.55,0,16.72,0,10.78S4.83,0,10.78,0h17.18c1.73,0,3.37.41,4.82,1.14,1.45-.73,3.09-1.14,4.82-1.14h17.18c5.94,0,10.78,4.83,10.78,10.78s-4.83,10.78-10.78,10.78h-11.22v82.04h11.22c5.94,0,10.78,4.83,10.78,10.78s-4.83,10.78-10.78,10.78h-17.18Z" fill="url(#d)"/>
      <path d="M37.6,46.6V15.6h17.18c2.66,0,4.82-2.16,4.82-4.82h0c0-2.66-2.16-4.82-4.82-4.82h-17.18c-2.66,0-4.82,2.16-4.82,4.82,0-2.66-2.16-4.82-4.82-4.82H10.78c-2.66,0-4.82,2.16-4.82,4.82h0c0,2.66,2.16,4.82,4.82,4.82h17.18v93.94H10.78c-2.66,0-4.82,2.16-4.82,4.82s2.16,4.82,4.82,4.82h17.18c2.66,0,4.82-2.16,4.82-4.82,0,2.66,2.16,4.82,4.82,4.82h17.18c2.66,0,4.82-2.16,4.82-4.82s-2.16-4.82-4.82-4.82h-17.18v-62.94Z" fill="#212121"/>
    </g>
  </g>
</svg>