<?xml version="1.0" encoding="UTF-8"?>
<svg id="b" data-name="Layer 2" xmlns="http://www.w3.org/2000/svg" xmlns:xlink="http://www.w3.org/1999/xlink" viewBox="0 0 131.23 131.26">
  <defs>
    <linearGradient id="d" x1="41.91" y1="131.26" x2="41.91" y2="4.18" gradientUnits="userSpaceOnUse">
      <stop offset="0" stop-color="#681eff"/>
      <stop offset="1" stop-color="#b858ff"/>
    </linearGradient>
    <linearGradient id="e" x1="99.25" y1="63.96" x2="99.25" y2="0" gradientUnits="userSpaceOnUse">
      <stop offset="0" stop-color="#010afc"/>
      <stop offset="1" stop-color="#26fbff"/>
    </linearGradient>
  </defs>
  <g id="c" data-name="Layer 1">
    <g>
      <path d="M54.86,131.26c-5.45,0-10.48-3.18-12.81-8.11l-13.38-28.29c-.35.01-.83.08-1.27.15-1.95.28-3.4,1.04-3.87,1.28-4.12,2.15-10.01,6.54-13.8,9.65-1.08.89-2.42,1.35-3.77,1.35-.87,0-1.73-.19-2.55-.57-2.08-.98-3.41-3.08-3.41-5.38V11.03c0-.77.15-1.54.45-2.26.75-1.83,2.23-3.3,4.05-4.05.89-.36,1.83-.55,2.79-.55.73,0,1.46.11,2.15.32.88.27,1.68.73,2.34,1.35l70.15,65.74c1.76,1.65,2.35,4.19,1.5,6.44-.85,2.25-2.97,3.77-5.38,3.85-8.86.29-15.25.92-18.28,1.42-.49.08-1.79.3-3.12,1.11-.2.12-.36.22-.48.31l12.27,25.94c3.34,7.06.31,15.52-6.75,18.86l-.79.37c-1.91.9-3.95,1.36-6.05,1.36h0Z" fill="url(#d)"/>
      <path d="M49.74,85.03c.07-.88.31-2.03,1.02-3.16.82-1.31,1.88-1.98,2.78-2.53,2.25-1.39,4.39-1.77,5.27-1.92,3.52-.58,10.3-1.22,19.06-1.5C54.48,54.02,31.1,32.11,7.72,10.2c-.12-.04-.52-.14-.97.04-.54.22-.75.7-.79.79v90.31c.98-.8,8.81-7.19,14.82-10.32.88-.46,2.95-1.49,5.78-1.9,1.51-.22,2.92-.4,4.5.18.89.33,1.62.82,2.2,1.34l14.17,29.97c1.94,4.1,6.83,5.85,10.93,3.91l.79-.37c4.1-1.94,5.85-6.83,3.91-10.93l-13.33-28.18Z" fill="#212121"/>
    </g>
    <g>
      <path d="M99.25,63.96c-17.63,0-31.98-14.35-31.98-31.98S81.62,0,99.25,0s31.98,14.35,31.98,31.98-14.35,31.98-31.98,31.98Z" fill="url(#e)"/>
      <circle cx="99.25" cy="31.98" r="24.89" fill="#212121"/>
    </g>
  </g>
</svg>